<svg xmlns="http://www.w3.org/2000/svg" viewBox="0 0 24 24">
  <path fill="#fff" d="M21.81,12.85c-.47-1.13-1.52-1.84-2.75-1.85h-2.06V3.97c0-2.19-1.8-3.97-4.01-3.97h-1.98c-2.21,0-4.01,1.78-4.01,3.97v7.03h-2.06c-1.23,0-2.28,.71-2.75,1.85-.47,1.13-.22,2.38,.63,3.22l6.37,6.77c.77,.77,1.79,1.16,2.81,1.16s2.03-.39,2.81-1.16c0,0,6.35-6.75,6.35-6.75,.87-.87,1.12-2.11,.65-3.24Zm-2.08,1.85l-6.34,6.73c-.77,.76-2.01,.75-2.76,.01l-6.37-6.77c-.43-.43-.27-.93-.21-1.07,.06-.14,.3-.61,.9-.61h3.06c.55,0,1-.45,1-1V3.97c0-1.09,.9-1.97,2.01-1.97h1.98c1.11,0,2.01,.89,2.01,1.97V12c0,.55,.45,1,1,1h3.05c.61,0,.84,.47,.9,.61,.06,.14,.22,.64-.24,1.09Z"/>
</svg>
