<svg width="254" height="104" viewBox="0 0 254 104" fill="none" xmlns="http://www.w3.org/2000/svg">
<path fill-rule="evenodd" clip-rule="evenodd" d="M104 0V104H0V0H104ZM39.847 4.95238H99.0476V64.1178C95.5988 62.4616 91.7339 61.5338 87.6523 61.5338C85.6453 61.5338 83.6906 61.7582 81.812 62.1831C82.9023 58.9863 83.4938 55.5585 83.4938 51.9925C83.4938 34.5657 69.3667 20.4385 51.9399 20.4385C48.3739 20.4385 44.9461 21.0301 41.7493 22.1203C42.1742 20.2418 42.3986 18.2871 42.3986 16.2801C42.3986 12.2251 41.4829 8.38407 39.847 4.95238ZM4.95238 31.6214V4.95238H31.2077C33.5706 8.11087 34.97 12.0321 34.97 16.2801C34.97 26.7339 26.4955 35.2083 16.0417 35.2083C11.8999 35.2083 8.06882 33.8781 4.95238 31.6214ZM4.95238 40.1975V99.0476H63.7664C62.1811 95.6595 61.2955 91.8785 61.2955 87.8907C61.2955 85.8361 61.5306 83.8365 61.9753 81.9171C58.8228 82.9739 55.4482 83.5465 51.9399 83.5465C34.5131 83.5465 20.3859 69.4193 20.3859 51.9925C20.3859 48.4842 20.9585 45.1096 22.0153 41.9571C20.0959 42.4018 18.0963 42.6369 16.0417 42.6369C12.0804 42.6369 8.3232 41.763 4.95238 40.1975ZM72.3601 99.0476H99.0476V72.7755C95.8775 70.3819 91.9307 68.9624 87.6523 68.9624C77.1985 68.9624 68.724 77.4369 68.724 87.8907C68.724 92.0625 70.0737 95.9191 72.3601 99.0476Z" fill="white"/>
<path d="M126.102 46.5553H132.903V19.8095H126.102V46.5553Z" fill="white"/>
<path d="M139.096 46.5553H145.171V34.5579C145.591 33.9084 146.355 32.2272 148.266 32.2272C149.985 32.2272 150.864 33.4117 150.864 35.131V46.5553H156.977V34.8636C156.977 34.6725 156.977 34.5197 156.977 34.3669L157.015 34.4051C157.321 33.9084 158.085 32.2272 159.995 32.2272C161.715 32.2272 162.594 33.4117 162.594 35.131V46.5553H168.707V34.8636C168.707 29.2852 165.497 26.5342 161.638 26.5342C158.735 26.5342 156.939 28.0243 155.64 29.5908C154.341 27.5658 152.239 26.5342 149.908 26.5342C147.845 26.5342 146.317 27.2983 145.171 28.2918V27.2983H139.096V46.5553Z" fill="white"/>
<path d="M173.498 55.9546H179.573V45.6765C180.949 46.7464 182.668 47.3195 184.922 47.3195C191.074 47.3195 194.627 42.5435 194.627 36.9268C194.627 31.3102 191.074 26.5342 184.922 26.5342C182.668 26.5342 180.949 27.1073 179.573 28.1771V27.2983H173.498V55.9546ZM179.611 39.2193L179.573 39.2575V34.5961L179.611 34.6343C180.757 33.0678 182.095 32.2272 184.043 32.2272C186.718 32.2272 188.361 34.0994 188.361 36.9268C188.361 39.7543 186.718 41.6265 184.043 41.6265C182.095 41.6265 180.757 40.7859 179.611 39.2193Z" fill="white"/>
<path d="M203.556 47.3195C205.581 47.3195 207.683 46.4025 208.753 45.1416V46.5553H214.866V34.4051C214.866 30.2022 212.038 26.5342 205.925 26.5342C202.333 26.5342 199.391 27.9861 197.634 30.4314L202.066 33.7938C202.792 32.4565 204.129 31.7687 205.734 31.7687C207.492 31.7687 208.676 32.8768 208.753 34.3287L203.403 35.2457C199.2 35.9716 196.946 38.2641 196.946 41.2444C196.946 45.027 199.659 47.3195 203.556 47.3195ZM202.907 40.9387C202.907 40.0599 203.442 39.525 205.046 39.2575L208.753 38.6462V40.3656C207.988 41.55 206.804 42.5052 204.893 42.5052C203.709 42.5052 202.907 41.8939 202.907 40.9387Z" fill="white"/>
<path d="M229.244 41.6265C226.646 41.6265 224.812 39.7925 224.812 36.9268C224.812 34.0994 226.646 32.2272 229.129 32.2272C230.772 32.2272 231.919 33.0296 232.606 34.0612L237.421 30.3932C235.625 28.0243 232.759 26.5342 229.206 26.5342C222.405 26.5342 218.508 31.3102 218.508 36.9268C218.508 42.5435 222.405 47.3195 229.206 47.3195C232.759 47.3195 235.625 45.8294 237.421 43.4605L232.606 39.7925C231.919 40.8241 230.734 41.6265 229.244 41.6265Z" fill="white"/>
<path d="M242.11 39.0665C242.11 43.8043 244.288 46.9374 249.523 46.9374C251.318 46.9374 252.503 46.7082 253.534 46.2497V41.0151C252.961 41.2444 252.044 41.4354 250.631 41.4354C249.026 41.4354 248.223 40.5948 248.223 39.0665V32.8003H253.496V27.2983H248.223V22.4841H242.11V27.2983H238.519V32.8003H242.11V39.0665Z" fill="white"/>
<path d="M138.138 77.8097C133.858 77.8097 130.802 74.562 130.802 70.0534C130.802 65.583 133.858 62.2971 138.138 62.2971C140.812 62.2971 142.837 63.5962 144.098 65.4302L149.485 61.3037C147.002 58.056 143.028 55.9164 138.138 55.9164C129.617 55.9164 123.81 62.4118 123.81 70.0534C123.81 77.6951 129.617 84.1905 138.138 84.1905C143.028 84.1905 147.002 82.0508 149.485 78.7649L144.098 74.6766C142.837 76.5106 140.774 77.8097 138.138 77.8097Z" fill="white"/>
<path d="M165.898 55.9164C157.378 55.9164 151.57 62.4118 151.57 70.0534C151.57 77.6951 157.378 84.1905 165.898 84.1905C174.381 84.1905 180.188 77.6951 180.188 70.0534C180.188 62.4118 174.381 55.9164 165.898 55.9164ZM165.898 77.8097C161.619 77.8097 158.562 74.562 158.562 70.0534C158.562 65.583 161.619 62.2971 165.898 62.2971C170.139 62.2971 173.196 65.5448 173.196 70.0534C173.196 74.5238 170.139 77.8097 165.898 77.8097Z" fill="white"/>
<path d="M183.556 83.4263H194.927V79.9417H188.325L191.741 76.7551C193.047 75.5401 194.515 73.8207 194.515 71.62C194.515 68.7543 192.199 66.9203 189.288 66.9203C186.262 66.9203 184.153 68.4563 182.754 70.7488L185.872 72.6745C186.674 71.3449 187.477 70.3591 188.898 70.3591C189.884 70.3591 190.594 70.9781 190.594 72.0326C190.594 73.0642 189.861 73.9125 189.081 74.6461L183.556 79.9417V83.4263Z" fill="white"/>
</svg>
