<svg xmlns="http://www.w3.org/2000/svg" viewBox="-0.5 -0.5 14 10">
  <title>W</title>
  <style>
    path {
      fill: #111;
    }

    @media (prefers-color-scheme: dark) {
      path {
        fill: #fff;
      }
    }
  </style>
  <path d="M5.916 1.59L6.438 1.764L4.59 7.452C4.562 7.532 4.54 7.608 4.524 7.68C4.508 7.752 4.5 7.834 4.5 7.926V8.142C4.5 8.222 4.478 8.286 4.434 8.334C4.39 8.378 4.33 8.4 4.254 8.4H3.228C3.144 8.4 3.078 8.378 3.03 8.334C2.986 8.286 2.964 8.222 2.964 8.142V7.926C2.964 7.854 2.958 7.792 2.946 7.74C2.934 7.688 2.912 7.608 2.88 7.5L0.81 0.858C0.774 0.754 0.732 0.678 0.684 0.63C0.636 0.582 0.572 0.544001 0.492 0.516001L0.216 0.438001C0.136 0.414001 0.08 0.384 0.048 0.348001C0.016 0.308 0 0.262 0 0.210001C0 0.142 0.024 0.0900002 0.072 0.0540004C0.124 0.0180001 0.202 0 0.306 0H2.802C2.906 0 2.982 0.02 3.03 0.0599999C3.078 0.0960002 3.102 0.148 3.102 0.216C3.102 0.324 3.032 0.394 2.892 0.426L2.424 0.498C2.328 0.518 2.272 0.562 2.256 0.63C2.24 0.698 2.254 0.806 2.298 0.954L4.338 7.59L3.852 7.95L5.916 1.59ZM9.72 0.216C9.72 0.148 9.744 0.0960002 9.792 0.0599999C9.844 0.02 9.92 0 10.02 0H11.862C11.97 0 12.046 0.02 12.09 0.0599999C12.138 0.0999999 12.162 0.152 12.162 0.216C12.162 0.264 12.146 0.306 12.114 0.342C12.086 0.374 12.026 0.406001 11.934 0.438001L11.682 0.516001C11.57 0.564001 11.476 0.636 11.4 0.732C11.324 0.824 11.256 0.972 11.196 1.176L9.312 7.452C9.284 7.56 9.262 7.646 9.246 7.71C9.23 7.774 9.222 7.846 9.222 7.926V8.142C9.222 8.222 9.2 8.286 9.156 8.334C9.112 8.378 9.052 8.4 8.976 8.4H7.884C7.808 8.4 7.746 8.378 7.698 8.334C7.654 8.286 7.632 8.222 7.632 8.142V7.926C7.632 7.858 7.63 7.794 7.626 7.734C7.622 7.674 7.604 7.59 7.572 7.482L5.586 0.858C5.546 0.73 5.508 0.644001 5.472 0.6C5.436 0.556 5.38 0.524 5.304 0.504L5.034 0.426C4.954 0.402 4.898 0.374 4.866 0.342C4.834 0.31 4.818 0.268 4.818 0.216C4.818 0.148 4.842 0.0960002 4.89 0.0599999C4.942 0.02 5.018 0 5.118 0H7.56C7.664 0 7.74 0.02 7.788 0.0599999C7.836 0.0960002 7.86 0.148 7.86 0.216C7.86 0.272 7.842 0.318 7.806 0.354C7.77 0.39 7.71 0.418001 7.626 0.438001L7.182 0.504C7.09 0.524 7.034 0.564 7.014 0.624001C6.994 0.684 7.006 0.796 7.05 0.960001L9.018 7.572L8.604 7.89L10.632 1.134C10.688 0.946 10.696 0.804 10.656 0.708C10.62 0.612 10.512 0.542 10.332 0.498L9.93 0.426C9.854 0.406 9.8 0.38 9.768 0.348001C9.736 0.312 9.72 0.268 9.72 0.216Z" />
</svg>
