<svg xmlns="http://www.w3.org/2000/svg" id="flatten_icons" data-name="flatten icons" viewBox="0 0 112 112"><defs><style>.cls-2,.cls-6{stroke-width:0}.cls-2{fill:#f7c39f}.cls-6{fill:#004241}</style></defs><path d="M0 0h112v112H0z" style="fill:none;stroke-width:0"/><path d="M58.16 39.24c2.14.66 4.15 1.56 6 2.65 2.14.13 4.31.51 6.45 1.17 14.7 4.51 24.15 20.53 18.43 34.82-7.9 19.74-26.81 24.79-43.1 22.02-.63-.11-1.81-.38-2.35-.72C25.93 88.2 16.88 75.02 23.37 57.73c5.41-14.42 20.1-23 34.79-18.48Z" style="stroke-width:0;fill:#ff9c4a"/><path d="M84.91 52.92c.5 3.89.07 7.91-1.49 11.81-7.9 19.74-26.81 24.79-43.1 22.02-.63-.11-1.81-.38-2.35-.72-6.98-4.34-12.62-9.03-16.48-14.18 1.41 10.67 9.59 19.55 22.1 27.33.54.34 1.72.61 2.35.72 16.29 2.77 35.2-2.28 43.1-22.02 3.47-8.67 1.35-17.97-4.13-24.95Z" style="stroke-width:0;fill:#f48660"/><path d="M58.5 103.13c-4.15 0-8.48-.68-12.92-2.06-.18-.06-.42-.12-.67-.19-.63-.18-1.34-.38-1.85-.59-21.28-8.68-26.11-28.46-21.6-43.16 2.34-7.63 7.51-13.89 14.55-17.63s15.12-4.52 22.74-2.18c2.08.64 4.1 1.51 6.01 2.6 2.19.17 4.35.58 6.44 1.22 15.68 4.81 24.37 21.19 19.77 37.28-2.5 8.77-8.69 16.54-16.54 20.79-4.81 2.61-10.19 3.92-15.93 3.92M49.97 40c-4.17 0-8.3 1.02-12.09 3.03-6.1 3.24-10.58 8.67-12.6 15.27-4 13.02.34 30.55 19.29 38.28.3.12.95.31 1.43.44.29.08.55.16.76.22 9.54 2.95 18.45 2.41 25.77-1.55 6.93-3.75 12.38-10.62 14.6-18.37 3.99-13.98-3.52-28.19-17.1-32.36-1.94-.59-3.95-.96-5.99-1.08a2 2 0 0 1-.89-.27 25.6 25.6 0 0 0-5.57-2.46c-2.5-.77-5.06-1.15-7.6-1.15Z" class="cls-6"/><path d="M39.76 77.25c-.88 0-1.69-.59-1.93-1.49-.74-2.79-1.05-6.1-.92-9.84.47-13.66 11.13-24.83 24.49-25.95-.98-4.48-.14-11.29 7.71-16.45.92-.6 2.16-.35 2.77.57a2 2 0 0 1-.57 2.77c-9.18 6.03-5.52 13.81-5.36 14.14.31.64.26 1.4-.13 1.99s-1.06.94-1.77.9c-.04 0-.5-.02-1.26 0-11.86.43-21.47 10.17-21.89 22.17-.12 3.35.15 6.27.79 8.68.28 1.07-.35 2.16-1.42 2.45-.17.05-.34.07-.51.07Z" class="cls-6"/><path d="M66.39 25.54s3.97-17.28-38.36-14.36c0 0 11.4 23.91 38.36 14.36" style="stroke-width:0;fill:#aad681"/><path d="M54.24 29.79c-19.29 0-27.92-17.53-28.02-17.74-.29-.6-.26-1.3.08-1.87.33-.57.93-.94 1.59-.99 19.45-1.35 32.15 1.29 37.75 7.84 3.71 4.34 2.75 8.77 2.7 8.95-.15.67-.64 1.21-1.28 1.44-4.71 1.67-8.97 2.36-12.82 2.36ZM31.4 12.99c3.7 5.54 14.06 17.18 33.08 11.08-.06-1.06-.43-2.78-1.98-4.54-3.13-3.56-11.09-7.48-31.1-6.54m34.99 12.55" class="cls-6"/><circle cx="65.44" cy="55.14" r="2.21" class="cls-2"/><circle cx="57.86" cy="61.86" r="3.96" class="cls-2"/></svg>