<?xml version="1.0" encoding="UTF-8"?>
<svg id="flatten_icons" data-name="flatten icons" xmlns="http://www.w3.org/2000/svg" viewBox="0 0 112 112">
  <defs>
    <style>
      .cls-1 {
        fill: none;
      }

      .cls-1, .cls-2, .cls-3, .cls-4, .cls-5 {
        stroke-width: 0px;
      }

      .cls-2 {
        fill: #aad681;
      }

      .cls-3 {
        fill: #f4ece4;
      }

      .cls-4 {
        fill: #f4efcb;
      }

      .cls-5 {
        fill: #004241;
      }
    </style>
  </defs>
  <rect class="cls-1" x="0" y="0" width="112" height="112"/>
  <g>
    <g>
      <path class="cls-3" d="m75.95,59.59c6.92,19.76-11.07,27.73-31.48,32.41-20.41,4.67-43.35,6.02-42.44-15.48.75-17.58,12.74-20.33,20.46-43.93,3.82-11.66-6.53-16.6,4.03-19.02,10.91-2.5,3.35,7.45,12.49,16.28,3.47,3.35,10.3,9.86,16.82,13.4,8.45,4.58,16.73,6.67,20.12,16.34Z"/>
      <path class="cls-5" d="m23.36,96.84c-7.79,0-13.57-1.63-17.5-4.9C1.7,88.48-.26,83.26.03,76.43c.42-9.97,4.31-15.54,8.82-21.98,3.86-5.52,8.24-11.78,11.74-22.49,1.5-4.59.53-8-.24-10.74-.64-2.26-1.24-4.39-.09-6.34.92-1.55,2.71-2.56,5.81-3.27,3.1-.71,5.17-.57,6.71.45,1.97,1.31,2.37,3.62,2.8,6.07.52,3.01,1.17,6.75,4.82,10.28,2.96,2.86,9.88,9.55,16.39,13.08,1.61.87,3.23,1.66,4.81,2.43,6.81,3.32,13.25,6.45,16.25,15.01h0c2.35,6.71,2.14,12.66-.64,17.69-4.34,7.86-14.3,13.21-32.28,17.33-8.4,1.92-15.57,2.89-21.56,2.89ZM29.42,15.18c-.55,0-1.34.08-2.45.34-2.54.58-3.13,1.18-3.26,1.41-.28.47.11,1.86.49,3.21.83,2.92,2.07,7.33.19,13.07-3.69,11.28-8.44,18.07-12.26,23.54-4.32,6.17-7.72,11.04-8.1,19.85-.24,5.59,1.2,9.61,4.4,12.26,5.84,4.86,17.81,5.26,35.6,1.18,10.42-2.38,24.82-6.57,29.68-15.36,2.23-4.04,2.35-8.77.36-14.44-2.46-7.01-7.65-9.54-14.22-12.74-1.61-.78-3.28-1.59-4.96-2.51-6.99-3.79-14.19-10.75-17.26-13.72-4.59-4.43-5.39-9.08-5.98-12.47-.27-1.57-.53-3.06-1.07-3.42-.13-.09-.45-.22-1.15-.22Z"/>
    </g>
    <path class="cls-5" d="m29.4,96.49c-.1,0-.2,0-.31-.02-3.94-.61-11.15-2.65-15.15-9.5-3.68-6.29-3.55-14.79.38-25.26,1.66-4.42,3.1-7.99,4.38-11.14,4.78-11.79,6.22-15.35,2.87-25.24-.35-1.05.21-2.18,1.25-2.54,1.05-.35,2.18.21,2.54,1.25,3.83,11.29,1.98,15.85-2.95,28.02-1.27,3.13-2.71,6.68-4.34,11.05-3.48,9.29-3.71,16.64-.67,21.84,3.17,5.41,9.07,7.06,12.31,7.56,1.09.17,1.84,1.19,1.67,2.28-.15.99-1,1.69-1.97,1.69Z"/>
    <path class="cls-5" d="m40.07,94.79c-1.32,0-2.17-.35-3.22-.83l-.46-.21c-16.91-7.55-13.49-23.97-9.86-41.36.27-1.3.55-2.62.81-3.94,2.28-11.21-7.41-29.77-7.51-29.95-.52-.98-.14-2.19.84-2.7.97-.51,2.19-.14,2.7.84.43.81,10.45,20.02,7.89,32.61-.27,1.33-.55,2.65-.82,3.96-3.57,17.13-6.39,30.65,7.57,36.89l.51.23c1.08.5,1.41.66,3.51.18,1.07-.25,2.15.43,2.4,1.5.25,1.08-.43,2.15-1.5,2.4-1.19.27-2.1.39-2.86.39Z"/>
    <path class="cls-5" d="m51.39,92.24c-.5,0-1.01-.19-1.4-.57-.79-.77-.8-2.03-.04-2.82.21-.23,4.6-5.05,2.09-14.47-.92-3.46-3.25-8.32-5.95-13.96-5.4-11.28-12.78-26.73-14.8-43.41-.13-1.1.65-2.09,1.75-2.23,1.1-.13,2.09.65,2.23,1.75,1.93,16.03,9.16,31.13,14.43,42.16,2.78,5.82,5.18,10.84,6.2,14.65,3.14,11.75-2.82,18.03-3.08,18.29-.39.4-.91.6-1.43.6Z"/>
    <path class="cls-5" d="m62.21,88.4c-.72,0-1.41-.39-1.77-1.07-.51-.98-.14-2.19.84-2.7,2.98-1.57,7.85-5.34,6.96-12.96-.81-6.91-1.81-10.91-13.96-19.42-13.18-9.23-20.51-23.53-20.82-24.14-.5-.99-.1-2.19.88-2.69.98-.5,2.19-.1,2.69.88.07.14,7.2,14.02,19.54,22.67,12.79,8.96,14.65,13.88,15.64,22.23.86,7.3-2.44,13.49-9.07,16.97-.3.16-.62.23-.93.23Z"/>
    <g>
      <path class="cls-2" d="m32.05,14.04s.01,1.76-.59,15.01-3.2,24.9-3.2,24.9c0,0,3.23-11.75,0-20.29-3.23-8.54-7.83-18.28-7.83-18.28,0,0-2.67-4.36,2.67-4.78s8.44.68,8.95,3.44Z"/>
      <path class="cls-5" d="m28.25,55.95c-.16,0-.32-.02-.48-.06-1.05-.26-1.71-1.31-1.47-2.37.01-.05.45-2.04,1-5.27.52-3.95.75-9.45-.92-13.88-3.01-7.97-7.29-17.12-7.73-18.05-.34-.59-1.54-2.97-.44-5.12.78-1.53,2.37-2.39,4.73-2.58,8.26-.65,10.58,2.4,11.08,5.07.02.11.03.23.03.35,0,.07,0,1.97-.6,15.12-.36,7.77-1.37,14.94-2.17,19.63-.43,3.23-1.03,5.49-1.09,5.7-.24.89-1.05,1.47-1.93,1.47Zm-3.08-43.44c-.69,0-1.35.04-1.93.08-1.06.08-1.44.34-1.48.41-.08.17.08.86.36,1.34.03.05.07.12.09.18.04.09,3.98,8.44,7.12,16.41.04-.66.08-1.31.11-1.98.5-10.87.58-13.96.59-14.7-.41-1.41-2.75-1.74-4.87-1.74Z"/>
    </g>
    <path class="cls-5" d="m34.27,102c-.06,0-.13,0-.19,0-1.1-.1-1.91-1.08-1.8-2.18.58-6.18,6.01-8.55,6.24-8.65,1.02-.43,2.19.04,2.62,1.06.43,1.01-.04,2.18-1.05,2.62-.17.08-3.48,1.59-3.83,5.34-.1,1.04-.97,1.81-1.99,1.81Z"/>
    <path class="cls-5" d="m42.24,103.49c-.98,0-1.83-.72-1.98-1.72-.04-.25-.83-6.16,2.58-10.93.64-.9,1.89-1.11,2.79-.46.9.64,1.11,1.89.46,2.79-2.45,3.43-1.88,8-1.87,8.04.16,1.09-.6,2.11-1.7,2.26-.1.01-.19.02-.29.02Z"/>
    <path class="cls-5" d="m53.16,99c-.91,0-1.74-.63-1.95-1.55-.02-.07-.71-2.52-4.27-4.47-.97-.53-1.33-1.75-.8-2.71.53-.97,1.75-1.33,2.71-.8,5.14,2.81,6.16,6.66,6.25,7.09.25,1.08-.43,2.15-1.5,2.4-.15.03-.3.05-.45.05Z"/>
    <path class="cls-5" d="m61.91,95.67c-.49,0-.99-.18-1.37-.55-2.89-2.74-6.7-3.56-6.73-3.57-1.08-.23-1.77-1.29-1.55-2.36s1.27-1.77,2.36-1.55c.2.04,4.93,1.04,8.68,4.58.8.76.84,2.02.08,2.83-.39.42-.92.63-1.45.63Z"/>
    <g>
      <path class="cls-4" d="m87.25,94.34c-2.64.11-4.74-2.19-4.38-4.81.79-5.69.09-12.66,7.12-17.07,4.73-2.97,6.68-3.78,12.25-3.58,4.98.18,8.58,4.81,7.59,9.7-.77,3.8-2.35,7.9-5.53,10.34-5.88,4.5-10.15,5.14-17.05,5.42Z"/>
      <path class="cls-5" d="m87.07,96.34c-1.76,0-3.43-.74-4.62-2.05-1.25-1.37-1.81-3.21-1.56-5.04.13-.91.21-1.85.3-2.86.46-5.09,1.04-11.44,7.74-15.63,5.1-3.2,7.48-4.1,13.39-3.88,2.95.11,5.68,1.5,7.51,3.82,1.84,2.34,2.56,5.36,1.96,8.28-1.07,5.28-3.18,9.16-6.28,11.53-6.53,5-11.44,5.56-18.18,5.83-.09,0-.17,0-.26,0Zm13.64-25.5c-3.95,0-5.63.78-9.66,3.3-5.02,3.15-5.43,7.74-5.88,12.61-.09,1-.19,2.04-.32,3.04-.09.67.11,1.31.56,1.8.45.49,1.09.77,1.76.73h0c6.73-.28,10.5-.86,15.91-5.01,2.31-1.77,3.92-4.84,4.79-9.15.36-1.77-.07-3.6-1.19-5.01-1.1-1.39-2.74-2.23-4.51-2.29-.52-.02-1.01-.03-1.46-.03Z"/>
    </g>
    <g>
      <path class="cls-2" d="m83.14,87.12s.36,1.63-.06,2.07c-1.27,1.3-2.9,2.46-2.96,4.92-.07,2.89,3.09,2.11,4.91,1.64,1.02-.27,2.33-.72,4.15-1.2,1.65-.43,5-.87,5-.87"/>
      <path class="cls-5" d="m82.31,98.21c-.99,0-1.99-.21-2.81-.86-.65-.52-1.43-1.51-1.38-3.29.07-2.93,1.77-4.56,3-5.75.05-.05.1-.1.15-.15-.02-.19-.05-.42-.09-.61-.23-1.08.45-2.14,1.52-2.38,1.08-.24,2.14.44,2.38,1.52.4,1.79.2,3.1-.58,3.9-.2.2-.4.4-.61.6-1.12,1.08-1.75,1.74-1.78,2.97,0,.02,0,.04,0,.06.42.04,1.23-.09,2.41-.4.42-.11.9-.25,1.44-.42.76-.23,1.65-.5,2.7-.78,1.75-.46,5.11-.9,5.25-.92,1.1-.14,2.1.63,2.24,1.72s-.63,2.1-1.72,2.24c-.9.12-3.5.5-4.76.82-1,.26-1.84.52-2.56.73-.6.18-1.13.34-1.6.46-.86.22-2.04.53-3.22.53Z"/>
    </g>
  </g>
</svg>