<?xml version="1.0" encoding="UTF-8"?>
<svg id="flatten_icons" data-name="flatten icons" xmlns="http://www.w3.org/2000/svg" viewBox="0 0 112 112">
  <defs>
    <style>
      .cls-1 {
        fill: none;
      }

      .cls-1, .cls-2, .cls-3, .cls-4, .cls-5, .cls-6 {
        stroke-width: 0px;
      }

      .cls-2 {
        fill: #d2e0e7;
      }

      .cls-3 {
        fill: #b0bec7;
      }

      .cls-4 {
        fill: #c2cfd5;
      }

      .cls-5 {
        fill: #ef7158;
      }

      .cls-6 {
        fill: #004241;
      }
    </style>
  </defs>
  <g id="alim-pc">
    <g>
      <path class="cls-3" d="m40.88,23.86h37.48v14.34c0,7.23-5.87,13.09-13.09,13.09h-11.3c-7.23,0-13.09-5.87-13.09-13.09v-14.34h0Z"/>
      <path class="cls-2" d="m48.14,23.86h22.97v8.85c0,5.49-4.46,9.95-9.95,9.95h-2.56c-5.77,0-10.46-4.69-10.46-10.46v-8.35h0Z"/>
      <path class="cls-6" d="m65.27,53.3h-11.3c-8.32,0-15.09-6.77-15.09-15.09v-14.34c0-1.1.9-2,2-2h37.48c1.1,0,2,.9,2,2v14.34c0,8.32-6.77,15.09-15.09,15.09Zm-22.39-27.43v12.34c0,6.12,4.98,11.09,11.09,11.09h11.3c6.12,0,11.09-4.98,11.09-11.09v-12.34h-33.48Z"/>
      <path class="cls-6" d="m79.49,86.53h-16.99c-1.1,0-2-.9-2-2s.9-2,2-2h16.99c1.75,0,3.39-.68,4.62-1.91l1.25-1.25c2.39-2.39,2.57-6.16.42-8.78-1.25-1.51-3.08-2.38-5.04-2.38h-9.63c-4.01,0-7.23-1.3-9.58-3.85-4.56-4.97-3.93-12.9-3.9-13.23.1-1.1,1.07-1.91,2.17-1.82,1.1.1,1.91,1.06,1.82,2.16,0,.11-.49,6.55,2.87,10.2,1.58,1.71,3.74,2.55,6.62,2.55h9.63c3.16,0,6.12,1.4,8.13,3.84,3.47,4.21,3.17,10.29-.68,14.15l-1.25,1.25c-1.99,1.99-4.64,3.09-7.45,3.09Z"/>
      <g>
        <rect class="cls-4" x="22.73" y="78.51" width="39.77" height="17.91"/>
        <path class="cls-6" d="m62.5,98.43H22.73c-1.1,0-2-.9-2-2v-17.91c0-1.1.9-2,2-2h39.77c1.1,0,2,.9,2,2v17.91c0,1.1-.9,2-2,2Zm-37.77-4h35.77v-13.91H24.73v13.91Z"/>
      </g>
      <g>
        <path class="cls-4" d="m55.63,9.59v14.27h-7.29v-14.27c0-2.01,1.63-3.64,3.64-3.64h0c2.01,0,3.64,1.63,3.64,3.64Z"/>
        <path class="cls-6" d="m55.63,25.86h-7.29c-1.1,0-2-.9-2-2v-14.27c0-3.11,2.53-5.64,5.64-5.64s5.64,2.53,5.64,5.64v14.27c0,1.1-.9,2-2,2Zm-5.29-4h3.29v-12.27c0-.91-.74-1.64-1.64-1.64s-1.64.74-1.64,1.64v12.27Z"/>
      </g>
      <g>
        <path class="cls-4" d="m71.11,9.59v14.27h-7.29v-14.27c0-2.01,1.63-3.64,3.64-3.64h0c2.01,0,3.64,1.63,3.64,3.64Z"/>
        <path class="cls-6" d="m71.11,25.86h-7.29c-1.1,0-2-.9-2-2v-14.27c0-3.11,2.53-5.64,5.64-5.64s5.64,2.53,5.64,5.64v14.27c0,1.1-.9,2-2,2Zm-5.29-4h3.29v-12.27c0-.91-.74-1.64-1.64-1.64s-1.64.74-1.64,1.64v12.27Z"/>
      </g>
      <g>
        <rect class="cls-3" x="22.73" y="96.43" width="39.77" height="9.63"/>
        <path class="cls-6" d="m62.5,108.05H22.73c-1.1,0-2-.9-2-2v-9.63c0-1.1.9-2,2-2h39.77c1.1,0,2,.9,2,2v9.63c0,1.1-.9,2-2,2Zm-37.77-4h35.77v-5.63H24.73v5.63Z"/>
      </g>
      <circle class="cls-5" cx="32.02" cy="87.47" r="3.84"/>
      <path class="cls-6" d="m89.27,103.24h-26.77c-1.1,0-2-.9-2-2s.9-2,2-2h26.77c1.1,0,2,.9,2,2s-.9,2-2,2Z"/>
    </g>
    <rect class="cls-1" width="112" height="112"/>
  </g>
</svg>