<svg xmlns="http://www.w3.org/2000/svg" id="flatten_icons" data-name="flatten icons" viewBox="0 0 112 112"><defs><style>.cls-3,.cls-4,.cls-6{stroke-width:0}.cls-3{fill:#b0bec7}.cls-4{fill:#c2cfd5}.cls-6{fill:#004241}</style></defs><g id="alim-pc"><path d="M40.88 23.86h37.48V38.2c0 7.23-5.87 13.09-13.09 13.09h-11.3c-7.23 0-13.09-5.87-13.09-13.09z" class="cls-3"/><path d="M48.14 23.86h22.97v8.85c0 5.49-4.46 9.95-9.95 9.95H58.6c-5.77 0-10.46-4.69-10.46-10.46v-8.35Z" style="stroke-width:0;fill:#d2e0e7"/><path d="M65.27 53.3h-11.3c-8.32 0-15.09-6.77-15.09-15.09V23.87c0-1.1.9-2 2-2h37.48c1.1 0 2 .9 2 2v14.34c0 8.32-6.77 15.09-15.09 15.09M42.88 25.87v12.34c0 6.12 4.98 11.09 11.09 11.09h11.3c6.12 0 11.09-4.98 11.09-11.09V25.87z" class="cls-6"/><path d="M79.49 86.53H62.5c-1.1 0-2-.9-2-2s.9-2 2-2h16.99c1.75 0 3.39-.68 4.62-1.91l1.25-1.25a6.52 6.52 0 0 0 .42-8.78 6.52 6.52 0 0 0-5.04-2.38h-9.63c-4.01 0-7.23-1.3-9.58-3.85-4.56-4.97-3.93-12.9-3.9-13.23.1-1.1 1.07-1.91 2.17-1.82 1.1.1 1.91 1.06 1.82 2.16 0 .11-.49 6.55 2.87 10.2 1.58 1.71 3.74 2.55 6.62 2.55h9.63c3.16 0 6.12 1.4 8.13 3.84a10.5 10.5 0 0 1-.68 14.15l-1.25 1.25a10.48 10.48 0 0 1-7.45 3.09Z" class="cls-6"/><path d="M22.73 78.51H62.5v17.91H22.73z" class="cls-4"/><path d="M62.5 98.43H22.73c-1.1 0-2-.9-2-2V78.52c0-1.1.9-2 2-2H62.5c1.1 0 2 .9 2 2v17.91c0 1.1-.9 2-2 2m-37.77-4H60.5V80.52H24.73z" class="cls-6"/><path d="M55.63 9.59v14.27h-7.29V9.59a3.64 3.64 0 0 1 7.28 0Z" class="cls-4"/><path d="M55.63 25.86h-7.29c-1.1 0-2-.9-2-2V9.59c0-3.11 2.53-5.64 5.64-5.64s5.64 2.53 5.64 5.64v14.27c0 1.1-.9 2-2 2Zm-5.29-4h3.29V9.59c0-.91-.74-1.64-1.64-1.64s-1.64.74-1.64 1.64v12.27Z" class="cls-6"/><path d="M71.11 9.59v14.27h-7.29V9.59a3.64 3.64 0 0 1 7.28 0Z" class="cls-4"/><path d="M71.11 25.86h-7.29c-1.1 0-2-.9-2-2V9.59c0-3.11 2.53-5.64 5.64-5.64s5.64 2.53 5.64 5.64v14.27c0 1.1-.9 2-2 2Zm-5.29-4h3.29V9.59c0-.91-.74-1.64-1.64-1.64s-1.64.74-1.64 1.64v12.27Z" class="cls-6"/><path d="M22.73 96.43H62.5v9.63H22.73z" class="cls-3"/><path d="M62.5 108.05H22.73c-1.1 0-2-.9-2-2v-9.63c0-1.1.9-2 2-2H62.5c1.1 0 2 .9 2 2v9.63c0 1.1-.9 2-2 2m-37.77-4H60.5v-5.63H24.73z" class="cls-6"/><circle cx="32.02" cy="87.47" r="3.84" style="stroke-width:0;fill:#ef7158"/><path d="M89.27 103.24H62.5c-1.1 0-2-.9-2-2s.9-2 2-2h26.77c1.1 0 2 .9 2 2s-.9 2-2 2" class="cls-6"/><path d="M0 0h112v112H0z" style="fill:none;stroke-width:0"/></g></svg>