<svg xmlns="http://www.w3.org/2000/svg" id="flatten_icons" data-name="flatten icons" viewBox="0 0 112 112"><defs><style>.cls-2,.cls-3,.cls-4{stroke-width:0}.cls-2{fill:#c2cfd5}.cls-3{fill:#8e889a}.cls-4{fill:#004241}</style></defs><g id="alim-port"><path d="M0 0h112v112H0z" style="fill:none;stroke-width:0"/><path d="M27.95 106c-1.1 0-2-.9-2-2s.9-2 2-2c4.44 0 7.89-1.22 10.25-3.64 3.71-3.79 3.64-9.26 3.64-9.31V60.83c0-1.1.9-2 2-2s2 .9 2 2v28.18c0 .25.1 7.17-4.78 12.15-3.15 3.21-7.56 4.84-13.11 4.84" class="cls-4"/><path d="M37.59 59.44s-1 8.42 6.25 8.42 5.95-8.42 5.95-8.42" class="cls-3"/><path d="M43.84 69.86c-3.16 0-5.03-1.35-6.04-2.48-2.72-3.06-2.26-7.66-2.2-8.17a2 2 0 0 1 3.97.47c-.1.92-.08 3.6 1.23 5.06.68.76 1.68 1.13 3.04 1.13s2.3-.36 2.94-1.1c1.24-1.44 1.17-4.12 1.03-5.03-.16-1.09.59-2.11 1.68-2.27 1.08-.16 2.1.58 2.27 1.67.08.52.7 5.14-1.94 8.23-.98 1.14-2.81 2.5-5.98 2.5Z" class="cls-4"/><path d="M57.71 13.52h6.79v36.16h-6.79" class="cls-3"/><path d="M64.5 51.68h-6.79c-1.1 0-2-.9-2-2s.9-2 2-2h4.79V15.52h-4.79c-1.1 0-2-.9-2-2s.9-2 2-2h6.79c1.1 0 2 .9 2 2v36.17c0 1.1-.9 2-2 2Z" class="cls-4"/><path d="M36.22 8h14.2c3.28 0 5.95 2.67 5.95 5.95v37.67c0 4.32-3.51 7.82-7.82 7.82h-9.41c-4.32 0-7.82-3.51-7.82-7.82V12.9c0-2.71 2.2-4.9 4.9-4.9" class="cls-3"/><path d="M48.55 61.44h-9.41c-5.42 0-9.82-4.41-9.82-9.82V12.9c0-3.81 3.1-6.9 6.9-6.9h14.2c4.38 0 7.95 3.57 7.95 7.95v37.67c0 5.42-4.41 9.82-9.82 9.82M36.22 10c-1.6 0-2.9 1.3-2.9 2.9v38.72c0 3.21 2.61 5.82 5.82 5.82h9.41c3.21 0 5.82-2.61 5.82-5.82V13.95c0-2.18-1.77-3.95-3.95-3.95z" class="cls-4"/><path d="M80.07 27.13H64.5v-7.95h15.57c2.2 0 3.98 1.78 3.98 3.98s-1.78 3.98-3.98 3.98Z" class="cls-2"/><path d="M80.07 29.13H64.5c-1.1 0-2-.9-2-2v-7.95c0-1.1.9-2 2-2h15.57c3.3 0 5.98 2.68 5.98 5.98s-2.68 5.98-5.98 5.98Zm-13.57-4h13.57c1.09 0 1.98-.89 1.98-1.98s-.89-1.98-1.98-1.98H66.5v3.95Z" class="cls-4"/><path d="M80.07 44.02H64.5v-7.95h15.57c2.2 0 3.98 1.78 3.98 3.98s-1.78 3.98-3.98 3.98Z" class="cls-2"/><path d="M80.07 46.02H64.5c-1.1 0-2-.9-2-2v-7.95c0-1.1.9-2 2-2h15.57c3.3 0 5.98 2.68 5.98 5.98s-2.68 5.98-5.98 5.98Zm-13.57-4h13.57c1.09 0 1.98-.89 1.98-1.98s-.89-1.98-1.98-1.98H66.5v3.95Z" class="cls-4"/></g></svg>