<?xml version="1.0" encoding="UTF-8"?>
<svg id="flatten_icons" data-name="flatten icons" xmlns="http://www.w3.org/2000/svg" viewBox="0 0 112 112">
  <defs>
    <style>
      .cls-1 {
        fill: none;
      }

      .cls-1, .cls-2, .cls-3, .cls-4, .cls-5 {
        stroke-width: 0px;
      }

      .cls-2 {
        fill: #aad681;
      }

      .cls-3 {
        fill: #ffe948;
      }

      .cls-4 {
        fill: #ffcb4a;
      }

      .cls-5 {
        fill: #004241;
      }
    </style>
  </defs>
  <rect class="cls-1" y="0" width="112" height="112"/>
  <g>
    <g>
      <path class="cls-2" d="m24.6,30.46s-4.7-6.31-6.11-12.44c0,0,9.7-1.96,16.5,2.12l6.82,13.89-17.21-3.57Z"/>
      <path class="cls-5" d="m41.81,36.04c-.13,0-.27-.01-.41-.04l-17.21-3.57c-.48-.1-.9-.37-1.2-.76-.2-.27-4.97-6.72-6.46-13.18-.12-.53-.02-1.08.27-1.53s.76-.77,1.28-.88c.43-.09,10.55-2.06,17.92,2.36.33.2.6.49.77.83l6.82,13.89c.34.69.25,1.5-.21,2.11-.38.49-.97.77-1.58.77Zm-16.04-7.37l12.44,2.58-4.75-9.67c-4.15-2.24-9.48-2.15-12.41-1.88,1.35,3.88,3.75,7.56,4.72,8.96Z"/>
    </g>
    <g>
      <path class="cls-2" d="m56.14,14.97s-2.12-7.58-6.11-12.44c0,0-7.48,6.48-8.4,14.35l6.82,13.89,7.69-15.81Z"/>
      <path class="cls-5" d="m48.45,32.77c-.76,0-1.46-.43-1.79-1.12l-6.82-13.89c-.17-.35-.24-.73-.19-1.12,1-8.54,8.75-15.35,9.08-15.63.41-.35.94-.52,1.48-.48.54.05,1.03.31,1.38.72,4.21,5.12,6.4,12.84,6.49,13.17.13.47.09.97-.13,1.41l-7.69,15.81c-.33.69-1.03,1.12-1.79,1.12h0Zm-4.76-16.22l4.75,9.67,5.56-11.42c-.52-1.63-1.97-5.78-4.21-9.21-2.01,2.15-5.33,6.31-6.09,10.97Z"/>
    </g>
    <g>
      <path class="cls-2" d="m53.28,47.97l9.95-4.89s-7.7-29.26,6.95-36.12c0,0-15.81.43-20.98,12.31,0,0-5.12-15.17-18.5-17.27l-.1.05c-6.51,11.88,2.37,25.2,2.37,25.2-12.57-3.17-22.57,9.09-22.57,9.09,14.38-7.4,32.84,16.57,32.84,16.57l9.95-4.89.1-.05Z"/>
      <path class="cls-5" d="m43.24,54.91c-.6,0-1.2-.27-1.59-.78-.17-.23-17.6-22.57-30.34-16.01-.84.43-1.87.22-2.47-.52-.6-.74-.59-1.79,0-2.52.4-.48,8.89-10.72,20.47-10.34-2.37-5.07-5.42-14.63-.48-23.64.2-.36.5-.65.88-.83l.1-.05c.37-.18.78-.25,1.19-.18,10.15,1.6,15.86,9.85,18.42,14.82,6.79-9.39,20.07-9.87,20.7-9.88.96-.02,1.78.62,2,1.54s-.24,1.87-1.1,2.27c-6.59,3.09-7.89,11.89-7.82,18.73.08,7.84,1.94,15,1.95,15.07.24.92-.2,1.88-1.05,2.3l-9.95,4.89s0,0,0,0l-10.05,4.94c-.28.14-.58.21-.88.21Zm-26.12-21.98c11.65.56,23.19,13.3,26.67,17.48l17.13-8.42c-1.18-5.31-4.21-22.21,2.45-31.78-4.44,1.35-9.84,4.13-12.34,9.86-.33.76-1.1,1.25-1.92,1.2-.83-.04-1.55-.58-1.81-1.36-.04-.13-4.55-13.01-15.57-15.67-4.62,10.35,2.81,21.78,2.89,21.9.46.69.44,1.59-.03,2.26-.48.67-1.32.99-2.12.78-6.09-1.54-11.59,1.04-15.36,3.74Zm36.17,15.04h0,0Z"/>
    </g>
    <g>
      <path class="cls-3" d="m93.09,60.55s-.75.27-1.92.98c-.87-3.85-3.68-13.73-10.34-18.95,0,0-.71.44-1.7,1.44l-1.19-1.87c-2.95-5.23-14.5-11.11-14.5-11.11-1.52,1.99-1.76,6.7-1.76,6.7-8.72-3.76-12.16-3.37-14.7-3.25-1.67,1.95-4.14,4.35-6.56,13.73,0,0-3.91-2.7-6.44-2.71,0,0-2.42,12.73-.05,18.27l.63,2.1c-1.33.17-2.08.45-2.08.45.07,8.42,5.69,16.86,8.04,20.03-.85.37-1.3.65-1.3.65,1.78,8.34,7.86,13.76,10.25,15.62-.95.56-1.54.95-1.54.95,0,0,6.79,13.05,31.25,1.91h.07s3.31-1.62,3.31-1.62l.02-.04c24.58-12.65,18.29-26.26,18.29-26.26,0,0-.59.19-1.52.56-.06-3-.75-11.08-6.28-17.59Z"/>
      <path class="cls-3" d="m46.8,34.51c.06,0,.13,0,.19,0,0-.01.02-.02.03-.03l-.22.04Z"/>
    </g>
    <g>
      <path class="cls-4" d="m88.87,95.37l-.02.04-3.31,1.62h-.07c-24.45,11.14-24.39,1.27-24.39,1.27,0,0-6.27-3.58-5.32-4.14-2.4-1.86-5.65-3.1-7.43-11.44,0,0-2.38-4.47-1.53-4.84-2.35-3.17-5.11-7.18-5.18-15.59,0,0-2.11-4.71-.78-4.88l-.63-2.1c-.85-2-1.08-4.93-1.03-7.86-1.36-.8-3.56-1.92-5.19-1.93,0,0-2.42,12.73-.05,18.27l.63,2.1c-1.33.17-2.08.45-2.08.45.07,8.42,5.69,16.86,8.04,20.03-.85.37-1.3.65-1.3.65,1.78,8.34,7.86,13.76,10.25,15.62-.95.56-1.54.95-1.54.95,0,0,6.79,13.05,31.24,1.91h.07s3.31-1.62,3.31-1.62l.02-.04c10.97-5.65,15.78-11.48,17.76-16.21-2.76,2.54-6.47,5.15-11.49,7.73Z"/>
      <path class="cls-3" d="m44.18,38.27c1.42.72,2.53,1.48,2.53,1.48.54-2.1,1.09-3.84,1.63-5.31-.48.02-.92.04-1.34.06-.79.92-1.76,1.96-2.82,3.77Z"/>
    </g>
    <path class="cls-5" d="m80.84,105.89c-.74,0-1.45-.41-1.8-1.12-.49-.99-.08-2.19.91-2.68,18.69-9.18,19.67-18.59,19.11-22.47-2.55,1.07-6.91,3.26-9,6.37-.47.69-1.32,1.03-2.14.83-.81-.2-1.42-.89-1.51-1.72,0-.07-.93-7.48-5.58-9.3-1.46.8-5.54,3.87-5.18,13.09.04,1.1-.82,2.03-1.92,2.08-1.09.06-2.03-.82-2.08-1.92-.56-14.17,8.07-17.17,8.43-17.29.37-.12.76-.13,1.13-.03,4.82,1.27,7.16,5.68,8.26,9.01,4.24-3.68,10.02-5.57,10.32-5.66.96-.31,2,.15,2.42,1.06.3.65,7.05,16.02-20.51,29.56-.28.14-.58.21-.88.21Z"/>
    <path class="cls-5" d="m98.66,79.62c-.06,0-.12,0-.19,0-1.1-.1-1.91-1.07-1.81-2.17,0-.12.6-7.93-4.61-15-1.51.88-4.17,2.79-6.62,6.41-.47.69-1.32,1.02-2.13.82-.81-.2-1.41-.88-1.51-1.71-.03-.21-.76-5.32-6.58-7.25-1.79,1.14-6.75,5.02-7.19,13.15-.06,1.1-1.02,1.95-2.11,1.89-1.1-.06-1.95-1-1.89-2.11.67-12.14,9.67-16.7,10.05-16.88.43-.21.92-.26,1.39-.14,5.1,1.34,7.7,4.43,9.01,6.98,3.75-4.17,7.29-5.48,7.47-5.54.78-.28,1.66-.04,2.2.59,7.37,8.7,6.54,18.74,6.5,19.17-.1,1.04-.97,1.82-1.99,1.82Z"/>
    <path class="cls-5" d="m90.7,62.87c-.97,0-1.82-.7-1.97-1.69-.02-.14-1.76-10.44-8.39-16.61-1.17,1.13-3.06,3.37-4.39,7.09-.28.79-1.03,1.32-1.87,1.33h-.01c-.83,0-1.58-.52-1.87-1.3-.08-.2-2-4.97-7.82-5.82-1.4,1.47-4.85,5.98-3.33,13.65.21,1.08-.49,2.14-1.57,2.35-1.09.21-2.14-.49-2.35-1.57-2.34-11.79,4.99-17.82,5.31-18.07.4-.32.9-.47,1.4-.43,4.99.37,8.12,2.8,9.94,4.97,2.47-4.55,5.4-6.4,5.55-6.49.71-.44,1.62-.39,2.29.13,8.9,6.97,10.99,19.63,11.08,20.17.17,1.09-.57,2.12-1.66,2.29-.11.02-.21.02-.32.02Z"/>
    <path class="cls-5" d="m77.49,43.54c-.7,0-1.38-.37-1.74-1.02-1.83-3.24-8.09-7.22-11.85-9.33-.38,1.27-.6,2.92-.66,4.05-.03.65-.38,1.25-.94,1.6-.56.34-1.25.4-1.85.14-7.9-3.4-11.11-3.23-13.45-3.1l-.56.03c-1.11.05-2.04-.81-2.09-1.91-.05-1.1.81-2.04,1.91-2.09l.52-.03c2.33-.12,5.72-.31,12.77,2.41.29-1.68.83-3.73,1.86-5.07.59-.76,1.63-1,2.49-.56,1.24.63,12.18,6.31,15.34,11.91.54.96.2,2.18-.76,2.72-.31.17-.65.26-.98.26Z"/>
    <path class="cls-5" d="m61.15,111.42c-11.35,0-15.22-7.09-15.44-7.53-.46-.9-.19-2,.64-2.57.26-.18,5.28-3.6,10.79-4.71-1.96-2.9-4.03-7.45-2.08-12.04.15-.35.4-.66.72-.88.32-.22,7.96-5.21,18.84,3.89.85.71.96,1.97.25,2.82s-1.97.96-2.82.25c-7.1-5.94-12-4.58-13.52-3.9-1.41,4.8,3.9,10.06,3.95,10.11.6.58.77,1.48.43,2.25s-1.12,1.24-1.96,1.18c-3.73-.26-8.14,1.87-10.54,3.23,2.72,2.8,10.77,7.79,29.47-1.39.99-.49,2.19-.08,2.68.91.49.99.08,2.19-.91,2.68-8.62,4.23-15.33,5.7-20.49,5.7Z"/>
    <path class="cls-5" d="m49.08,103.98c-.37,0-.74-.1-1.07-.31-.36-.23-8.82-5.71-11.2-16.86-.17-.81.17-1.65.88-2.1.16-.1,3.36-2.11,8.95-2.53-1.22-2.59-2.07-6.53-.02-11.39.19-.44.53-.8.96-1.02.38-.19,9.49-4.53,19.51,2.36.91.63,1.14,1.87.51,2.78-.63.91-1.87,1.14-2.78.51-6.68-4.6-12.81-3.04-14.8-2.34-2.02,5.78,1.57,9.48,1.73,9.64.59.59.75,1.48.41,2.24s-1.11,1.24-1.94,1.18c-4.36-.27-7.5.66-9.12,1.33,2.43,8.52,8.99,12.76,9.06,12.81.93.59,1.21,1.83.62,2.76-.38.6-1.03.93-1.69.93Z"/>
    <path class="cls-5" d="m40.66,87.46c-.53,0-1.06-.21-1.46-.63-.37-.39-9.07-9.79-9.17-21.09,0-.84.51-1.59,1.29-1.89.17-.06,3.4-1.24,8.47-.42-.6-2.77-.62-6.72,2.11-10.89.28-.43.71-.73,1.2-.85.39-.09,9.6-2.19,17.48,6.87.72.83.64,2.1-.2,2.82-.83.72-2.1.63-2.82-.2-5.1-5.87-10.73-5.92-12.76-5.72-2.86,5.12-.26,9.56-.14,9.76.43.72.37,1.63-.15,2.28-.52.65-1.39.92-2.18.66-3.74-1.22-6.64-1.11-8.23-.88.85,9.04,7.93,16.72,8.01,16.8.75.81.71,2.07-.09,2.83-.39.36-.88.54-1.37.54Z"/>
    <path class="cls-5" d="m33.47,65.17c-.78,0-1.52-.46-1.84-1.21-2.53-5.92-.33-18.06-.07-19.43.18-.94,1-1.63,1.96-1.63h0c1.71,0,3.69.84,5.21,1.64,2.17-7.25,4.41-9.83,5.95-11.59l.34-.39c.72-.84,1.98-.94,2.82-.22.84.72.94,1.98.22,2.82l-.36.42c-1.54,1.78-3.66,4.21-5.81,12.54-.16.63-.62,1.15-1.24,1.37-.61.23-1.3.14-1.83-.23-.95-.65-2.42-1.48-3.68-1.96-.63,4.26-1.31,11.66.16,15.09.43,1.02-.04,2.19-1.05,2.62-.26.11-.52.16-.79.16Z"/>
  </g>
</svg>