<?xml version="1.0" encoding="UTF-8"?>
<svg id="flatten_icons" data-name="flatten icons" xmlns="http://www.w3.org/2000/svg" viewBox="0 0 112 112">
  <defs>
    <style>
      .cls-1 {
        fill: none;
      }

      .cls-1, .cls-2, .cls-3, .cls-4 {
        stroke-width: 0px;
      }

      .cls-2 {
        fill: #c59878;
      }

      .cls-3 {
        fill: #e4c8a7;
      }

      .cls-4 {
        fill: #004241;
      }
    </style>
  </defs>
  <g id="armoire">
    <g id="area">
      <rect class="cls-1" y="0" width="112" height="112"/>
    </g>
    <g id="armoire-2" data-name="armoire">
      <g>
        <rect class="cls-3" x="7" y="2" width="98" height="97.24"/>
        <path class="cls-4" d="m105,101.24H7c-1.1,0-2-.9-2-2V2C5,.9,5.9,0,7,0h98C106.1,0,107,.9,107,2v97.24c0,1.1-.9,2-2,2Zm-96-4h94V4H9v93.24Z"/>
      </g>
      <g>
        <rect class="cls-2" x="7" y="99.24" width="10.84" height="10.76"/>
        <path class="cls-4" d="m17.84,112H7c-1.1,0-2-.9-2-2v-10.76c0-1.1.9-2,2-2h10.84c1.1,0,2,.9,2,2v10.76c0,1.1-.9,2-2,2Zm-8.84-4h6.84v-6.76h-6.84v6.76Z"/>
      </g>
      <g>
        <rect class="cls-2" x="94.16" y="99.24" width="10.84" height="10.76"/>
        <path class="cls-4" d="m105,112h-10.84c-1.1,0-2-.9-2-2v-10.76c0-1.1.9-2,2-2h10.84c1.1,0,2,.9,2,2v10.76c0,1.1-.9,2-2,2Zm-8.84-4h6.84v-6.76h-6.84v6.76Z"/>
      </g>
      <path class="cls-4" d="m56,100.1c-1.1,0-2-.9-2-2V2C54,.9,54.9,0,56,0s2,.9,2,2v96.1c0,1.1-.9,2-2,2Z"/>
      <path class="cls-4" d="m105,84.05H7c-1.1,0-2-.9-2-2s.9-2,2-2h98c1.1,0,2,.9,2,2s-.9,2-2,2Z"/>
      <path class="cls-4" d="m33.58,92h-4.04c-1.1,0-2-.9-2-2s.9-2,2-2h4.04c1.1,0,2,.9,2,2s-.9,2-2,2Z"/>
      <path class="cls-4" d="m84.53,92h-4.04c-1.1,0-2-.9-2-2s.9-2,2-2h4.04c1.1,0,2,.9,2,2s-.9,2-2,2Z"/>
      <path class="cls-4" d="m105,67.59H7c-1.1,0-2-.9-2-2s.9-2,2-2h98c1.1,0,2,.9,2,2s-.9,2-2,2Z"/>
      <path class="cls-4" d="m33.58,75.54h-4.04c-1.1,0-2-.9-2-2s.9-2,2-2h4.04c1.1,0,2,.9,2,2s-.9,2-2,2Z"/>
      <path class="cls-4" d="m84.53,75.54h-4.04c-1.1,0-2-.9-2-2s.9-2,2-2h4.04c1.1,0,2,.9,2,2s-.9,2-2,2Z"/>
      <path class="cls-4" d="m69.83,52.62h-6.06c-1.1,0-2-.9-2-2s.9-2,2-2h6.06c1.1,0,2,.9,2,2s-.9,2-2,2Z"/>
      <path class="cls-4" d="m47.18,52.62h-6.06c-1.1,0-2-.9-2-2s.9-2,2-2h6.06c1.1,0,2,.9,2,2s-.9,2-2,2Z"/>
      <path class="cls-2" d="m14.09,8.58v50.49h19.11c3.26,0,4.11-4.48,1.07-5.66h0c-1.9-.73-2.5-3.12-1.16-4.65l6.98-7.99c.94-1.08.96-2.67.06-3.77l-8.49-10.31c-.78-.94-.88-2.26-.27-3.32l3.94-6.78c.53-.91,1.5-1.46,2.56-1.46h8.08c1.63,0,2.95-1.31,2.95-2.93v-3.63H14.09Z"/>
      <path class="cls-2" d="m63.77,8.58v21.6l8.12-4.65c1.55-.89,2.08-2.85,1.19-4.39h0c-.91-1.57-.33-3.58,1.28-4.44l4.9-2.62c.79-.42,1.71-.5,2.56-.22l5.86,1.92c.92.3,1.93.18,2.74-.33l4.31-2.69c.95-.59,1.52-1.62,1.52-2.73v-1.45h-32.48Z"/>
    </g>
  </g>
</svg>