<svg xmlns="http://www.w3.org/2000/svg" id="flatten_icons" data-name="flatten icons" viewBox="0 0 112 112"><defs><style>.cls-2,.cls-4{stroke-width:0}.cls-2{fill:#c59878}.cls-4{fill:#004241}</style></defs><g id="armoire"><path id="area" d="M0 0h112v112H0z" style="fill:none;stroke-width:0"/><g id="armoire-2" data-name="armoire"><path d="M7 2h98v97.24H7z" style="stroke-width:0;fill:#e4c8a7"/><path d="M105 101.24H7c-1.1 0-2-.9-2-2V2c0-1.1.9-2 2-2h98c1.1 0 2 .9 2 2v97.24c0 1.1-.9 2-2 2m-96-4h94V4H9z" class="cls-4"/><path d="M7 99.24h10.84V110H7z" class="cls-2"/><path d="M17.84 112H7c-1.1 0-2-.9-2-2V99.24c0-1.1.9-2 2-2h10.84c1.1 0 2 .9 2 2V110c0 1.1-.9 2-2 2M9 108h6.84v-6.76H9z" class="cls-4"/><path d="M94.16 99.24H105V110H94.16z" class="cls-2"/><path d="M105 112H94.16c-1.1 0-2-.9-2-2V99.24c0-1.1.9-2 2-2H105c1.1 0 2 .9 2 2V110c0 1.1-.9 2-2 2m-8.84-4H103v-6.76h-6.84zM56 100.1c-1.1 0-2-.9-2-2V2c0-1.1.9-2 2-2s2 .9 2 2v96.1c0 1.1-.9 2-2 2" class="cls-4"/><path d="M105 84.05H7c-1.1 0-2-.9-2-2s.9-2 2-2h98c1.1 0 2 .9 2 2s-.9 2-2 2M33.58 92h-4.04c-1.1 0-2-.9-2-2s.9-2 2-2h4.04c1.1 0 2 .9 2 2s-.9 2-2 2m50.95 0h-4.04c-1.1 0-2-.9-2-2s.9-2 2-2h4.04c1.1 0 2 .9 2 2s-.9 2-2 2M105 67.59H7c-1.1 0-2-.9-2-2s.9-2 2-2h98c1.1 0 2 .9 2 2s-.9 2-2 2m-71.42 7.95h-4.04c-1.1 0-2-.9-2-2s.9-2 2-2h4.04c1.1 0 2 .9 2 2s-.9 2-2 2m50.95 0h-4.04c-1.1 0-2-.9-2-2s.9-2 2-2h4.04c1.1 0 2 .9 2 2s-.9 2-2 2m-14.7-22.92h-6.06c-1.1 0-2-.9-2-2s.9-2 2-2h6.06c1.1 0 2 .9 2 2s-.9 2-2 2m-22.65 0h-6.06c-1.1 0-2-.9-2-2s.9-2 2-2h6.06c1.1 0 2 .9 2 2s-.9 2-2 2" class="cls-4"/><path d="M14.09 8.58v50.49H33.2c3.26 0 4.11-4.48 1.07-5.66-1.9-.73-2.5-3.12-1.16-4.65l6.98-7.99c.94-1.08.96-2.67.06-3.77l-8.49-10.31c-.78-.94-.88-2.26-.27-3.32l3.94-6.78c.53-.91 1.5-1.46 2.56-1.46h8.08c1.63 0 2.95-1.31 2.95-2.93V8.57H14.09Zm49.68 0v21.6l8.12-4.65a3.204 3.204 0 0 0 1.19-4.39 3.21 3.21 0 0 1 1.28-4.44l4.9-2.62c.79-.42 1.71-.5 2.56-.22l5.86 1.92c.92.3 1.93.18 2.74-.33l4.31-2.69c.95-.59 1.52-1.62 1.52-2.73V8.58z" class="cls-2"/></g></g></svg>