<svg xmlns="http://www.w3.org/2000/svg" id="flatten_icons" data-name="flatten icons" viewBox="0 0 112 112"><defs><style>.cls-2,.cls-3,.cls-4{stroke-width:0}.cls-2{fill:#aad681}.cls-3{fill:#80c969}.cls-4{fill:#004241}</style></defs><path d="M0 0h112v112H0z" style="fill:none;stroke-width:0"/><path d="M44.22 76.22h23.56V110H44.22z" class="cls-3"/><path d="M67.78 112H44.22c-1.1 0-2-.9-2-2V76.22c0-1.1.9-2 2-2h23.56c1.1 0 2 .9 2 2V110c0 1.1-.9 2-2 2m-21.56-4h19.56V78.22H46.22z" class="cls-4"/><path d="M46.76 101.22s-8.61 1.76-12.96-4.93c0 0 2.58-6.69 13.49-3.29" class="cls-3"/><path d="M44.18 103.43c-3.34 0-8.71-.9-12.06-6.05-.35-.54-.42-1.21-.19-1.81.03-.08 3.4-8.39 15.95-4.47 1.05.33 1.64 1.45 1.31 2.5a2 2 0 0 1-2.5 1.31c-6.55-2.04-9.41 0-10.48 1.27 3.69 4.28 9.87 3.13 10.15 3.07 1.08-.21 2.13.49 2.35 1.57s-.48 2.13-1.56 2.35c-.14.03-1.3.25-2.97.25Z" class="cls-4"/><path d="M71.92 20.21c0 6.02-7.13 10.9-15.92 10.9s-15.92-4.88-15.92-10.9S56 2 56 2s15.92 12.18 15.92 18.21" class="cls-2"/><path d="M56 33.11c-10.05 0-17.92-5.67-17.92-12.91 0-6.67 13.91-17.66 16.7-19.79.72-.55 1.71-.55 2.43 0C60 2.54 73.91 13.53 73.91 20.2c0 7.24-7.87 12.91-17.92 12.91Zm0-28.58C49.85 9.42 42.08 16.95 42.08 20.2c0 4.83 6.37 8.91 13.92 8.91s13.92-4.08 13.92-8.91c0-2.01-4.33-8.12-13.91-15.67Z" class="cls-4"/><path d="M70.44 10.81S60.31 20.52 56 28.43c-4.32-7.91-14.44-17.62-14.44-17.62S25.2 26.48 25.2 34.23s7.32 14.03 16.36 14.03c6.26 0 11.69-3.02 14.44-7.45 2.75 4.43 8.18 7.45 14.44 7.45 9.03 0 16.36-6.28 16.36-14.03S70.44 10.81 70.44 10.81" class="cls-2"/><path d="M70.44 50.26c-5.7 0-11-2.3-14.44-6.13-3.44 3.84-8.74 6.13-14.44 6.13-10.12 0-18.35-7.19-18.35-16.03 0-8.36 15.23-23.2 16.97-24.87.77-.74 1.99-.74 2.77 0 .37.36 8.19 7.89 13.06 15.22 4.86-7.33 12.68-14.86 13.06-15.22.77-.74 1.99-.74 2.77 0 1.74 1.67 16.97 16.51 16.97 24.87 0 8.84-8.23 16.03-18.35 16.03ZM56 38.81c.69 0 1.33.36 1.7.95 2.49 4.01 7.37 6.5 12.74 6.5 7.92 0 14.35-5.4 14.35-12.03 0-4.65-8.29-14.54-14.35-20.61-2.87 2.91-9.51 9.92-12.69 15.77a2 2 0 0 1-1.76 1.04 2 2 0 0 1-1.76-1.04c-3.19-5.84-9.82-12.86-12.69-15.77-6.06 6.07-14.35 15.96-14.35 20.61 0 6.63 6.44 12.03 14.35 12.03 5.37 0 10.25-2.49 12.74-6.5.36-.59 1.01-.95 1.7-.95Z" class="cls-4"/><path d="M74.43 46.61c0 10.18-8.25 18.43-18.43 18.43s-18.43-8.25-18.43-18.43S56 15.83 56 15.83s18.43 20.6 18.43 30.78" class="cls-2"/><path d="M56 67.04c-11.27 0-20.43-9.17-20.43-20.43 0-10.64 17-29.95 18.94-32.11.76-.85 2.22-.85 2.98 0 1.94 2.17 18.94 21.47 18.94 32.11 0 11.27-9.17 20.43-20.43 20.43m0-48.17c-5.68 6.65-16.43 20.7-16.43 27.74 0 9.06 7.37 16.43 16.43 16.43s16.43-7.37 16.43-16.43c0-7.04-10.76-21.09-16.43-27.74" class="cls-4"/><path d="m76.88 34.51 5.45-16.49s8.16 10.67 7.54 24.36l-4.71 10.74-12.71-15.21 4.42-3.4Z" class="cls-2"/><path d="M85.16 55.11c-.59 0-1.15-.26-1.53-.72L70.92 39.18c-.35-.42-.51-.96-.45-1.5s.34-1.03.77-1.37l3.94-3.02 5.26-15.91c.23-.7.84-1.22 1.57-1.34.73-.13 1.47.17 1.92.76.35.46 8.59 11.41 7.94 25.67-.01.25-.07.49-.17.71l-4.71 10.74a2.01 2.01 0 0 1-1.83 1.2Zm-9.83-16.89 9.3 11.13 3.26-7.43c.27-8.17-2.79-15.25-4.99-19.24l-4.12 12.46c-.13.38-.36.71-.68.96l-2.77 2.13Zm1.55-3.71" class="cls-4"/><path d="m35.38 34.51-5.45-16.49s-8.16 10.67-7.54 24.36l4.71 10.74 12.71-15.21-4.42-3.4Z" class="cls-2"/><path d="M27.1 55.11c-.09 0-.19 0-.28-.02-.69-.1-1.27-.54-1.55-1.18l-4.71-10.74c-.1-.23-.15-.47-.17-.71-.65-14.25 7.59-25.21 7.94-25.67.45-.59 1.19-.88 1.92-.76s1.33.64 1.57 1.34l5.26 15.91 3.94 3.02c.43.33.71.83.77 1.37s-.1 1.08-.45 1.5L28.63 54.38c-.38.46-.95.72-1.53.72Zm-2.72-13.19 3.26 7.43 9.3-11.13-2.77-2.13c-.32-.24-.56-.58-.68-.96l-4.12-12.46c-2.2 3.99-5.26 11.07-4.99 19.24Z" class="cls-4"/><path d="M72.28 26.82S60.87 39.58 56 49.97c-4.86-10.4-16.28-23.15-16.28-23.15S21.29 47.42 21.29 57.6s8.25 18.43 18.43 18.43c7.05 0 13.18-3.97 16.28-9.79 3.1 5.82 9.22 9.79 16.28 9.79 10.18 0 18.43-8.25 18.43-18.43S72.28 26.82 72.28 26.82" class="cls-2"/><path d="M72.28 78.03c-6.46 0-12.45-3.03-16.28-8.08a20.4 20.4 0 0 1-16.28 8.08c-11.27 0-20.43-9.17-20.43-20.43 0-4.65 3.23-11.5 9.59-20.37 4.62-6.44 9.16-11.53 9.35-11.74.38-.42.92-.67 1.49-.67s1.11.24 1.49.67c.42.47 9.35 10.5 14.79 20.14 5.43-9.64 14.36-19.67 14.79-20.14.76-.85 2.22-.85 2.98 0 .19.21 4.73 5.3 9.35 11.74 6.36 8.87 9.59 15.72 9.59 20.37 0 11.27-9.17 20.43-20.43 20.43M56 64.24c.74 0 1.42.41 1.77 1.06 2.87 5.38 8.43 8.73 14.51 8.73 9.06 0 16.43-7.37 16.43-16.43 0-7.04-10.75-21.08-16.43-27.73-3.21 3.79-10.82 13.14-14.47 20.95-.33.7-1.04 1.15-1.81 1.15s-1.48-.45-1.81-1.15c-3.65-7.81-11.26-17.16-14.47-20.95-5.68 6.65-16.43 20.69-16.43 27.73 0 9.06 7.37 16.43 16.43 16.43 6.08 0 11.65-3.34 14.51-8.73.35-.65 1.03-1.06 1.77-1.06" class="cls-4"/><path d="M94.16 73.86c-4.71 8.36-15.84 11.6-24.87 7.24s-4.85-11.11-.15-19.47c4.71-8.36 22.9-20.93 22.9-20.93s6.82 24.8 2.12 33.16" class="cls-2"/><path d="M77.76 85.02c-3.16 0-6.35-.68-9.34-2.12-3.29-1.59-5.28-3.6-6.08-6.15-1.44-4.59 1.38-9.58 4.63-15.36l.42-.75c4.88-8.66 22.75-21.07 23.5-21.6.53-.37 1.21-.45 1.82-.23s1.07.72 1.24 1.35c.72 2.62 6.9 25.85 1.93 34.67-3.64 6.47-10.78 10.19-18.14 10.19Zm13.07-41c-5 3.65-16.5 12.46-19.95 18.59l-.43.76c-2.69 4.76-5.22 9.25-4.3 12.19.45 1.43 1.76 2.66 4 3.74 8.08 3.9 18.06 1.02 22.25-6.42 3.11-5.53.36-20.77-1.58-28.85Zm3.33 29.83" class="cls-4"/><path d="M17.84 73.86c4.71 8.36 15.84 11.6 24.87 7.24s4.85-11.11.15-19.47c-4.71-8.36-22.9-20.93-22.9-20.93s-6.82 24.8-2.12 33.16" class="cls-2"/><path d="M34.24 85.02c-7.36 0-14.49-3.71-18.14-10.19-4.97-8.82 1.21-32.05 1.93-34.67.17-.62.64-1.13 1.24-1.35.61-.22 1.29-.13 1.82.23.76.52 18.63 12.94 23.5 21.6l.42.75c3.26 5.77 6.07 10.76 4.63 15.36-.8 2.55-2.79 4.56-6.08 6.15a21.44 21.44 0 0 1-9.34 2.12ZM19.59 72.87c4.19 7.44 14.17 10.33 22.25 6.42 2.24-1.08 3.55-2.31 4-3.74.92-2.94-1.62-7.43-4.3-12.19l-.43-.76c-3.45-6.12-14.95-14.94-19.95-18.59-1.95 8.09-4.7 23.32-1.58 28.85Z" class="cls-4"/><path d="M88.05 58.32c.03.24.04.47.04.69 0 6.88-5.58 12.45-12.45 12.45-3.97 0-7.5-1.87-9.78-4.76.47 6.45 5.84 11.55 12.41 11.55s12.45-5.58 12.45-12.45c0-2.05-1.11-4.73-2.66-7.47Zm-43.5 0c.03.24.04.47.04.69 0 6.88-5.58 12.45-12.45 12.45-3.97 0-7.5-1.87-9.78-4.76.47 6.45 5.84 11.55 12.41 11.55s12.45-5.58 12.45-12.45c0-2.05-1.11-4.73-2.66-7.47Z" class="cls-3"/><path d="M74.43 68.68c0 10.18-8.25 18.43-18.43 18.43s-18.43-8.25-18.43-18.43S56 37.9 56 37.9s18.43 20.6 18.43 30.78" class="cls-2"/><path d="M56 89.12c-11.27 0-20.43-9.17-20.43-20.43 0-10.64 17-29.94 18.94-32.11.76-.85 2.22-.85 2.98 0 1.94 2.17 18.94 21.47 18.94 32.11 0 11.27-9.17 20.43-20.43 20.43m0-48.17c-5.68 6.65-16.43 20.7-16.43 27.74 0 9.06 7.37 16.43 16.43 16.43s16.43-7.37 16.43-16.43c0-7.04-10.76-21.09-16.43-27.74" class="cls-4"/><path d="M65.77 62.51c.03.24.04.47.04.69 0 6.88-5.58 12.45-12.45 12.45-3.97 0-7.5-1.87-9.78-4.76.47 6.45 5.84 11.55 12.41 11.55s12.45-5.58 12.45-12.45c0-2.05-1.11-4.73-2.66-7.47Z" class="cls-3"/></svg>