<?xml version="1.0" encoding="UTF-8"?>
<svg id="flatten_icons" data-name="flatten icons" xmlns="http://www.w3.org/2000/svg" viewBox="0 0 112 112">
  <defs>
    <style>
      .cls-1 {
        fill: none;
      }

      .cls-1, .cls-2, .cls-3 {
        stroke-width: 0px;
      }

      .cls-2 {
        fill: #aad681;
      }

      .cls-3 {
        fill: #004241;
      }
    </style>
  </defs>
  <rect class="cls-1" y="0" width="112" height="112"/>
  <g>
    <g>
      <path class="cls-2" d="m40.44,34.49s26.62,39.99,35.07,67.27c1.05,3.39,4.68,5.28,8.03,4.11,1.5-.53,3.13-1.43,4.76-2.92,1.98-1.81,2.62-4.67,1.55-7.13-4.06-9.43-16.92-36.13-43.65-65.98"/>
      <path class="cls-3" d="m81.5,108.22c-1.26,0-2.52-.3-3.68-.88-2.01-1.01-3.54-2.83-4.21-4.98-8.27-26.69-34.56-66.35-34.83-66.75-.61-.92-.36-2.16.56-2.77.92-.61,2.16-.36,2.77.56,1.09,1.64,26.88,40.54,35.32,67.79.35,1.14,1.13,2.06,2.19,2.6,1.03.52,2.19.59,3.27.22,1.43-.5,2.8-1.34,4.08-2.51,1.36-1.24,1.79-3.19,1.07-4.87-4.25-9.88-16.98-36.04-43.31-65.44-.74-.82-.67-2.09.16-2.82.82-.74,2.09-.67,2.82.16,26.72,29.84,39.67,56.46,44,66.53,1.39,3.24.57,7.01-2.04,9.4-1.67,1.53-3.51,2.65-5.45,3.33-.89.31-1.8.46-2.71.46Z"/>
    </g>
    <g>
      <path class="cls-2" d="m36.04,41.42c-2.15-2.66-2.37-12.78-2.37-12.78,0,0,9.85,2.34,12,5s1.74,6.56-.92,8.7-6.56,1.74-8.7-.92Z"/>
      <path class="cls-3" d="m40.86,45.72c-2.39,0-4.76-1.04-6.38-3.04h0c-2.45-3.04-2.77-12.19-2.81-13.99-.01-.62.26-1.21.74-1.6.48-.39,1.12-.53,1.72-.39,1.76.42,10.64,2.65,13.09,5.69,1.37,1.7,2,3.84,1.77,6.01-.23,2.18-1.29,4.13-3,5.51-1.51,1.22-3.33,1.82-5.14,1.82Zm-3.27-5.55c1.45,1.8,4.09,2.08,5.89.62.87-.7,1.41-1.7,1.53-2.82.12-1.11-.2-2.21-.91-3.08-.86-1.06-4.58-2.54-8.32-3.63.28,3.88.94,7.83,1.8,8.89h0Z"/>
    </g>
    <g>
      <path class="cls-2" d="m56.88,52.12c-2.15-2.66-2.37-12.78-2.37-12.78,0,0,9.85,2.34,12,5s1.74,6.56-.92,8.7-6.56,1.74-8.7-.92Z"/>
      <path class="cls-3" d="m61.71,56.42c-.29,0-.59-.02-.88-.05-2.18-.23-4.13-1.29-5.51-3h0c-2.45-3.04-2.77-12.19-2.81-14-.01-.62.26-1.21.74-1.6.48-.39,1.12-.54,1.72-.39,1.76.42,10.64,2.65,13.09,5.69,2.84,3.51,2.29,8.68-1.22,11.52-1.47,1.19-3.27,1.82-5.13,1.82Zm-3.27-5.56c.7.87,1.7,1.42,2.82,1.53,1.12.12,2.21-.2,3.08-.91,1.8-1.45,2.08-4.09.63-5.89-.86-1.06-4.58-2.54-8.32-3.62.28,3.88.94,7.83,1.8,8.89h0Z"/>
    </g>
    <g>
      <path class="cls-2" d="m58.32,73.61c-2.15-2.66-2.37-12.78-2.37-12.78,0,0,9.85,2.34,12,5s1.74,6.56-.92,8.7-6.56,1.74-8.7-.92Z"/>
      <path class="cls-3" d="m63.15,77.9c-2.39,0-4.76-1.04-6.38-3.04h0c-2.45-3.04-2.77-12.19-2.81-13.99-.01-.62.26-1.21.74-1.6.48-.39,1.12-.53,1.72-.39,1.76.42,10.64,2.65,13.09,5.69,1.38,1.7,2.01,3.84,1.77,6.01-.23,2.18-1.29,4.13-3,5.51-1.51,1.22-3.33,1.82-5.14,1.82Zm-5.07-14.45c.28,3.88.94,7.83,1.8,8.89h0c1.45,1.8,4.09,2.08,5.89.62.87-.7,1.41-1.7,1.53-2.82.12-1.11-.2-2.21-.91-3.07-.86-1.06-4.58-2.54-8.32-3.63Z"/>
    </g>
    <g>
      <path class="cls-2" d="m24,31.13c-2.15-2.66-2.37-12.78-2.37-12.78,0,0,9.85,2.34,12,5s1.74,6.56-.92,8.7-6.56,1.74-8.7-.92Z"/>
      <path class="cls-3" d="m28.83,35.43c-.29,0-.59-.01-.88-.05-2.18-.23-4.13-1.29-5.51-3h0c-2.45-3.04-2.77-12.19-2.81-13.99-.01-.62.26-1.21.74-1.6.48-.39,1.12-.53,1.72-.39,1.76.42,10.64,2.65,13.09,5.69,1.38,1.7,2.01,3.84,1.77,6.01-.23,2.18-1.29,4.13-3,5.51-1.47,1.19-3.27,1.82-5.13,1.82Zm-5.07-14.45c.28,3.88.94,7.83,1.8,8.89h0c.7.87,1.7,1.42,2.82,1.53,1.12.12,2.21-.21,3.08-.91.87-.7,1.41-1.7,1.53-2.82.12-1.11-.2-2.21-.91-3.07-.86-1.06-4.58-2.54-8.32-3.63Z"/>
    </g>
    <g>
      <path class="cls-2" d="m25.53,18.56c-2.15-2.66-2.37-12.78-2.37-12.78,0,0,9.85,2.34,12,5s1.74,6.56-.92,8.7-6.56,1.74-8.7-.92Z"/>
      <path class="cls-3" d="m30.35,22.86c-2.39,0-4.76-1.04-6.38-3.04h0c-2.45-3.04-2.77-12.19-2.81-13.99-.01-.62.26-1.21.74-1.6.48-.39,1.12-.54,1.72-.39,1.76.42,10.64,2.65,13.09,5.69,2.84,3.51,2.29,8.68-1.22,11.52-1.51,1.22-3.33,1.82-5.14,1.82Zm-3.27-5.55c1.45,1.8,4.09,2.08,5.89.62,1.8-1.45,2.08-4.09.62-5.89-.86-1.06-4.58-2.54-8.32-3.62.28,3.88.94,7.83,1.8,8.89h0Z"/>
    </g>
    <g>
      <path class="cls-2" d="m42.78,30.06c-2.15-2.66-2.37-12.78-2.37-12.78,0,0,9.85,2.34,12,5s1.74,6.56-.92,8.7-6.56,1.74-8.7-.92Z"/>
      <path class="cls-3" d="m47.6,34.36c-2.39,0-4.76-1.04-6.38-3.04h0c-2.45-3.04-2.77-12.19-2.81-13.99-.01-.62.26-1.21.74-1.6.48-.39,1.12-.53,1.72-.39,1.76.42,10.64,2.65,13.09,5.69,1.37,1.7,2,3.84,1.77,6.01-.23,2.18-1.29,4.13-3,5.51-1.51,1.22-3.33,1.82-5.14,1.82Zm-3.27-5.55c1.45,1.8,4.1,2.08,5.89.62.87-.7,1.41-1.7,1.53-2.82.12-1.11-.2-2.21-.91-3.08-.86-1.06-4.58-2.54-8.32-3.63.28,3.88.94,7.83,1.8,8.89h0Z"/>
    </g>
    <g>
      <path class="cls-2" d="m36.87,19.05c-2.15-2.66-2.37-12.78-2.37-12.78,0,0,9.85,2.34,12,5s1.74,6.56-.92,8.7-6.56,1.74-8.7-.92Z"/>
      <path class="cls-3" d="m41.7,23.35c-.29,0-.58-.01-.88-.05-2.18-.23-4.13-1.29-5.51-3-2.45-3.04-2.77-12.19-2.81-13.99-.01-.62.26-1.21.74-1.6.48-.39,1.12-.53,1.72-.39,1.76.42,10.64,2.65,13.09,5.69,1.37,1.7,2,3.84,1.77,6.01-.23,2.18-1.29,4.13-3,5.51-1.47,1.19-3.27,1.82-5.13,1.82Zm-5.07-14.45c.28,3.88.94,7.83,1.8,8.89h0c.7.87,1.7,1.42,2.82,1.53,1.11.11,2.21-.21,3.08-.91.87-.7,1.41-1.7,1.53-2.82.12-1.11-.2-2.21-.91-3.08-.86-1.06-4.58-2.54-8.32-3.63Z"/>
    </g>
    <g>
      <path class="cls-2" d="m33.45,28.36c-2.15-2.66-2.37-12.78-2.37-12.78,0,0,9.85,2.34,12,5s1.74,6.56-.92,8.7c-2.66,2.15-6.56,1.74-8.7-.92Z"/>
      <path class="cls-3" d="m38.28,32.66c-.29,0-.58-.01-.88-.05-2.18-.23-4.13-1.29-5.51-3-2.45-3.04-2.77-12.19-2.81-13.99-.01-.62.26-1.21.74-1.6.48-.39,1.12-.53,1.72-.39,1.76.42,10.64,2.65,13.09,5.69,1.37,1.7,2,3.84,1.77,6.01-.23,2.18-1.29,4.13-3,5.51-1.47,1.19-3.27,1.82-5.13,1.82Zm-5.07-14.45c.28,3.88.94,7.83,1.8,8.89h0c.7.87,1.7,1.42,2.82,1.53,1.11.11,2.21-.2,3.08-.91.87-.7,1.41-1.7,1.53-2.82.12-1.11-.2-2.21-.91-3.08-.86-1.06-4.58-2.54-8.32-3.63Z"/>
    </g>
  </g>
</svg>