<svg xmlns="http://www.w3.org/2000/svg" id="flatten_icons" data-name="flatten icons" viewBox="0 0 112 112"><defs><style>.cls-2,.cls-4,.cls-7{stroke-width:0}.cls-2{fill:#72757e}.cls-4{fill:#8e88a6}.cls-7{fill:#004241}</style></defs><g id="aspirateur"><path id="area" d="M0 0h112v112H0z" style="fill:none;stroke-width:0"/><g id="aspi"><path d="M89.41 96.1v-8.32H76.75v8.35" class="cls-2"/><path d="M76.75 98.13c-1.1 0-2-.9-2-2v-8.35c0-1.1.9-2 2-2H89.4c1.1 0 2 .9 2 2v8.32c0 1.1-.9 2-2 2s-2-.9-2-2v-6.32h-8.65v6.35c0 1.1-.9 2-2 2" class="cls-7"/><path d="M34.23 40.97v-6.7H21.58v6.72" class="cls-2"/><path d="M21.58 42.99c-1.1 0-2-.9-2-2v-6.71c0-1.1.9-2 2-2h12.65c1.1 0 2 .9 2 2v6.7c0 1.1-.9 2-2 2s-2-.9-2-2v-4.7h-8.65v4.71c0 1.1-.9 2-2 2" class="cls-7"/><path d="M52.74 106.13h50.56v-5.36c0-2.02-1.64-3.66-3.66-3.66H69.79" class="cls-4"/><path d="M103.3 108.13H52.74c-1.1 0-2-.9-2-2s.9-2 2-2h48.56v-3.36c0-.92-.75-1.66-1.66-1.66H69.79c-1.1 0-2-.9-2-2s.9-2 2-2h29.85c3.12 0 5.66 2.54 5.66 5.66v5.36c0 1.1-.9 2-2 2" class="cls-7"/><path d="M17.16 79.77V49.78c0-4.7 3.81-8.51 8.51-8.51h6.89c6.62 0 12.74 3.52 16.06 9.24l19.1 32.85a15.1 15.1 0 0 1 2.05 7.62c0 8.37-6.78 15.15-15.15 15.15H29.03" style="stroke-width:0;fill:#ed706b"/><path d="M54.64 108.13H29.05c-1.1 0-2-.9-2-2s.9-2 2-2h25.59c7.25 0 13.15-5.9 13.15-13.15 0-2.32-.62-4.61-1.78-6.61l-19.1-32.85a16.64 16.64 0 0 0-14.34-8.25h-6.89c-3.59 0-6.51 2.92-6.51 6.51v29.99c0 1.1-.9 2-2 2s-2-.9-2-2V49.78c0-5.8 4.71-10.51 10.51-10.51h6.89c7.3 0 14.12 3.92 17.79 10.24l19.1 32.85c1.52 2.62 2.33 5.6 2.33 8.62 0 9.46-7.69 17.15-17.15 17.15" class="cls-7"/><circle cx="22.84" cy="93.57" r="14.14" class="cls-4"/><path d="M22.84 109.71c-8.9 0-16.14-7.24-16.14-16.14s7.24-16.14 16.14-16.14 16.14 7.24 16.14 16.14-7.24 16.14-16.14 16.14m0-28.28c-6.69 0-12.14 5.45-12.14 12.14s5.45 12.14 12.14 12.14 12.14-5.45 12.14-12.14-5.45-12.14-12.14-12.14" class="cls-7"/><path d="M22.84 100.64c-1.1 0-2-.9-2-2s.9-2 2-2c1.69 0 3.07-1.38 3.07-3.07s-1.38-3.07-3.07-3.07-3.07 1.38-3.07 3.07c0 1.1-.9 2-2 2s-2-.9-2-2c0-3.9 3.17-7.07 7.07-7.07s7.07 3.17 7.07 7.07-3.17 7.07-7.07 7.07" class="cls-7"/><path d="M79.58 87.26V24.59c0-7.33-5.97-13.3-13.3-13.3h-12.9c-12.38 0-22.46 10.08-22.46 22.46h-7c0-16.24 13.22-29.46 29.46-29.46h12.9c11.19 0 20.3 9.11 20.3 20.3v62.67z" class="cls-4"/><path d="M86.58 89.26h-7c-1.1 0-2-.9-2-2V24.59c0-6.23-5.07-11.3-11.3-11.3h-12.9c-11.28 0-20.46 9.18-20.46 20.46 0 1.1-.9 2-2 2h-7c-1.1 0-2-.9-2-2 0-17.35 14.11-31.46 31.46-31.46h12.9c12.3 0 22.3 10 22.3 22.3v62.67c0 1.1-.9 2-2 2m-5-4h3V24.59c0-10.09-8.21-18.3-18.3-18.3h-12.9c-14.47 0-26.36 11.25-27.39 25.46H29C30.02 19.19 40.57 9.29 53.38 9.29h12.9c8.44 0 15.3 6.86 15.3 15.3z" class="cls-7"/><path d="M75.8 16.69c-.58 0-1.15-.25-1.54-.73-.7-.85-.58-2.11.27-2.82l4.34-3.58c.85-.7 2.11-.58 2.82.27.7.85.58 2.11-.27 2.82l-4.34 3.58c-.37.31-.82.46-1.27.46ZM54.43 94.57h-3.69c-1.1 0-2-.9-2-2s.9-2 2-2h3.69c1.1 0 2 .9 2 2s-.9 2-2 2m6.75.01c-.53 0-1.04-.22-1.41-.59s-.59-.89-.59-1.41c0-.13.02-.27.04-.4.03-.12.07-.25.12-.37s.11-.24.18-.34c.07-.11.16-.22.25-.31.46-.46 1.15-.68 1.8-.54.13.02.26.06.38.11s.23.11.34.18c.11.08.21.16.31.25.37.37.58.89.58 1.42s-.21 1.04-.58 1.41c-.38.37-.89.59-1.42.59" class="cls-7"/><path d="M38.69 73.7c11.2 10.17 26.37 5.06 26.37 5.06L48.63 50.51a18.59 18.59 0 0 0-16.06-9.24s-5.08 22.26 6.12 32.43" style="stroke-width:0;fill:#c9dde4"/><path d="M56.02 82.07c-5.56 0-12.61-1.38-18.67-6.89-11.93-10.83-6.95-33.4-6.73-34.35.21-.91 1.02-1.56 1.95-1.56 7.3 0 14.12 3.92 17.79 10.24l16.43 28.25c.3.52.36 1.15.14 1.71s-.67 1-1.23 1.19c-.33.11-4.31 1.41-9.68 1.41M34.21 43.36c-.86 5.15-2.7 21.13 5.82 28.86 7.63 6.92 17.46 6.1 21.96 5.24L46.9 51.52a16.61 16.61 0 0 0-12.69-8.16" class="cls-7"/><path d="M48.24 66.07c-.7 0-1.39-.37-1.75-1.03-.02-.04-2.29-4.13-4.73-8.16a10.1 10.1 0 0 0-3.93-3.69 1.99 1.99 0 0 1-.83-2.7c.52-.98 1.73-1.35 2.7-.83 1.58.84 3.82 2.41 5.48 5.15 2.48 4.1 4.78 8.25 4.8 8.29.54.97.19 2.18-.78 2.72-.31.17-.64.25-.97.25Z" style="stroke-width:0;fill:#fff"/></g></g></svg>