<?xml version="1.0" encoding="UTF-8"?>
<svg id="flatten_icons" data-name="flatten icons" xmlns="http://www.w3.org/2000/svg" viewBox="0 0 112 112">
  <defs>
    <style>
      .cls-1 {
        fill: none;
      }

      .cls-1, .cls-2, .cls-3, .cls-4, .cls-5, .cls-6, .cls-7 {
        stroke-width: 0px;
      }

      .cls-2 {
        fill: #72757e;
      }

      .cls-3 {
        fill: #c9dde4;
      }

      .cls-4 {
        fill: #8e88a6;
      }

      .cls-5 {
        fill: #fff;
      }

      .cls-6 {
        fill: #ed706b;
      }

      .cls-7 {
        fill: #004241;
      }
    </style>
  </defs>
  <g id="aspirateur">
    <g id="area">
      <rect class="cls-1" width="112" height="112"/>
    </g>
    <g id="aspi">
      <g>
        <g>
          <polyline class="cls-2" points="89.41 96.1 89.41 87.78 76.75 87.78 76.75 96.13"/>
          <path class="cls-7" d="m76.75,98.13c-1.1,0-2-.9-2-2v-8.35c0-1.1.9-2,2-2h12.65c1.1,0,2,.9,2,2v8.32c0,1.1-.9,2-2,2s-2-.9-2-2v-6.32h-8.65v6.35c0,1.1-.9,2-2,2Z"/>
        </g>
        <g>
          <polyline class="cls-2" points="34.23 40.97 34.23 34.27 21.58 34.27 21.58 40.99"/>
          <path class="cls-7" d="m21.58,42.99c-1.1,0-2-.9-2-2v-6.71c0-1.1.9-2,2-2h12.65c1.1,0,2,.9,2,2v6.7c0,1.1-.9,2-2,2s-2-.9-2-2v-4.7h-8.65v4.71c0,1.1-.9,2-2,2Z"/>
        </g>
        <g>
          <path class="cls-4" d="m52.74,106.13h50.56v-5.36c0-2.02-1.64-3.66-3.66-3.66h-29.85"/>
          <path class="cls-7" d="m103.3,108.13h-50.56c-1.1,0-2-.9-2-2s.9-2,2-2h48.56v-3.36c0-.92-.75-1.66-1.66-1.66h-29.85c-1.1,0-2-.9-2-2s.9-2,2-2h29.85c3.12,0,5.66,2.54,5.66,5.66v5.36c0,1.1-.9,2-2,2Z"/>
        </g>
        <g>
          <path class="cls-6" d="m17.16,79.77v-29.99c0-4.7,3.81-8.51,8.51-8.51h6.89c6.62,0,12.74,3.52,16.06,9.24l19.1,32.85c1.35,2.31,2.05,4.94,2.05,7.62h0c0,8.37-6.78,15.15-15.15,15.15h-25.59"/>
          <path class="cls-7" d="m54.64,108.13h-25.59c-1.1,0-2-.9-2-2s.9-2,2-2h25.59c7.25,0,13.15-5.9,13.15-13.15,0-2.32-.62-4.61-1.78-6.61l-19.1-32.85c-2.96-5.09-8.45-8.25-14.34-8.25h-6.89c-3.59,0-6.51,2.92-6.51,6.51v29.99c0,1.1-.9,2-2,2s-2-.9-2-2v-29.99c0-5.8,4.71-10.51,10.51-10.51h6.89c7.3,0,14.12,3.92,17.79,10.24l19.1,32.85c1.52,2.62,2.33,5.6,2.33,8.62,0,9.46-7.69,17.15-17.15,17.15Z"/>
        </g>
        <g>
          <circle class="cls-4" cx="22.84" cy="93.57" r="14.14"/>
          <path class="cls-7" d="m22.84,109.71c-8.9,0-16.14-7.24-16.14-16.14s7.24-16.14,16.14-16.14,16.14,7.24,16.14,16.14-7.24,16.14-16.14,16.14Zm0-28.28c-6.69,0-12.14,5.45-12.14,12.14s5.45,12.14,12.14,12.14,12.14-5.45,12.14-12.14-5.45-12.14-12.14-12.14Z"/>
        </g>
        <path class="cls-7" d="m22.84,100.64c-1.1,0-2-.9-2-2s.9-2,2-2c1.69,0,3.07-1.38,3.07-3.07s-1.38-3.07-3.07-3.07-3.07,1.38-3.07,3.07c0,1.1-.9,2-2,2s-2-.9-2-2c0-3.9,3.17-7.07,7.07-7.07s7.07,3.17,7.07,7.07-3.17,7.07-7.07,7.07Z"/>
        <g>
          <path class="cls-4" d="m79.58,87.26V24.59c0-7.33-5.97-13.3-13.3-13.3h-12.9c-12.38,0-22.46,10.08-22.46,22.46h-7c0-16.24,13.22-29.46,29.46-29.46h12.9c11.19,0,20.3,9.11,20.3,20.3v62.67h-7Z"/>
          <path class="cls-7" d="m86.58,89.26h-7c-1.1,0-2-.9-2-2V24.59c0-6.23-5.07-11.3-11.3-11.3h-12.9c-11.28,0-20.46,9.18-20.46,20.46,0,1.1-.9,2-2,2h-7c-1.1,0-2-.9-2-2,0-17.35,14.11-31.46,31.46-31.46h12.9c12.3,0,22.3,10,22.3,22.3v62.67c0,1.1-.9,2-2,2Zm-5-4h3V24.59c0-10.09-8.21-18.3-18.3-18.3h-12.9c-14.47,0-26.36,11.25-27.39,25.46h3.01c1.02-12.56,11.57-22.46,24.38-22.46h12.9c8.44,0,15.3,6.86,15.3,15.3v60.67Z"/>
        </g>
        <path class="cls-7" d="m75.8,16.69c-.58,0-1.15-.25-1.54-.73-.7-.85-.58-2.11.27-2.82l4.34-3.58c.85-.7,2.11-.58,2.82.27.7.85.58,2.11-.27,2.82l-4.34,3.58c-.37.31-.82.46-1.27.46Z"/>
        <path class="cls-7" d="m54.43,94.57h-3.69c-1.1,0-2-.9-2-2s.9-2,2-2h3.69c1.1,0,2,.9,2,2s-.9,2-2,2Z"/>
        <path class="cls-7" d="m61.18,94.58c-.53,0-1.04-.22-1.41-.59-.37-.37-.59-.89-.59-1.41,0-.13.02-.27.04-.4.03-.12.07-.25.12-.37s.11-.24.18-.34c.07-.11.16-.22.25-.31.46-.46,1.15-.68,1.8-.54.13.02.26.06.38.11.12.05.23.11.34.18.11.08.21.16.31.25.37.37.58.89.58,1.42s-.21,1.04-.58,1.41c-.38.37-.89.59-1.42.59Z"/>
        <g>
          <path class="cls-3" d="m38.69,73.7c11.2,10.17,26.37,5.06,26.37,5.06h0l-16.43-28.25c-3.33-5.72-9.45-9.24-16.06-9.24,0,0-5.08,22.26,6.12,32.43Z"/>
          <path class="cls-7" d="m56.02,82.07c-5.56,0-12.61-1.38-18.67-6.89h0c-11.93-10.83-6.95-33.4-6.73-34.35.21-.91,1.02-1.56,1.95-1.56,7.3,0,14.12,3.92,17.79,10.24l16.43,28.25c.3.52.36,1.15.14,1.71s-.67,1-1.23,1.19c-.33.11-4.31,1.41-9.68,1.41Zm-21.81-38.71c-.86,5.15-2.7,21.13,5.82,28.86h0c7.63,6.92,17.46,6.1,21.96,5.24l-15.09-25.94c-2.68-4.61-7.44-7.64-12.69-8.16Z"/>
        </g>
      </g>
      <path class="cls-5" d="m48.24,66.07c-.7,0-1.39-.37-1.75-1.03-.02-.04-2.29-4.13-4.73-8.16-1.19-1.96-2.79-3.09-3.93-3.69-.98-.52-1.35-1.73-.83-2.7.52-.98,1.73-1.35,2.7-.83,1.58.84,3.82,2.41,5.48,5.15,2.48,4.1,4.78,8.25,4.8,8.29.54.97.19,2.18-.78,2.72-.31.17-.64.25-.97.25Z"/>
    </g>
  </g>
</svg>