<?xml version="1.0" encoding="UTF-8"?>
<svg id="flatten_icons" data-name="flatten icons" xmlns="http://www.w3.org/2000/svg" viewBox="0 0 112 112">
  <defs>
    <style>
      .cls-1 {
        fill: none;
      }

      .cls-1, .cls-2, .cls-3, .cls-4, .cls-5, .cls-6 {
        stroke-width: 0px;
      }

      .cls-2 {
        fill: #9a82d6;
      }

      .cls-3 {
        fill: #aad681;
      }

      .cls-4 {
        fill: #735daa;
      }

      .cls-5 {
        fill: #fff;
      }

      .cls-6 {
        fill: #004241;
      }
    </style>
  </defs>
  <rect class="cls-1" width="112" height="112"/>
  <g>
    <path class="cls-2" d="m82.55,56.95c-12.4-4.52-21.55-15.39-28.23-26.62-.27-.46-.86-1.52-1.13-1.95-.03-.06-.04-.05-.04-.04l-.03.02C45.02,4.15,10.05,14.34,16.2,39.09c.49,2.19,1.12,4.92,1.71,7.06,4.26,15.4,10.99,29.75,21.31,42.36l3.22,3.75c1.66,1.78,3.63,3.64,5.37,5.39,2.2,1.9,4.43,4.12,6.84,5.74,18.81,12.65,35.64,6,42.38-10.57,5.91-13.9-.57-29.97-14.47-35.88Z"/>
    <path class="cls-4" d="m97.02,92.83c.88-2.07,1.48-4.19,1.83-6.31-2.81,3.39-3.25,14.32-26.98,12.29-8.74-.75-17.02-6.39-24.12-14-4.32-4.63-5.43-9.99-8.72-15.41-2.01-3.32-6.57-6.66-8.1-9.88-.81-1.71-.54-5.75-1.2-7.36-3.42-8.38-5.71-12.82-4.11-14.87,3.83-4.88,5.96-16.36,5.96-16.36l-3.11-5.3c-8.59,2.9-15.26,11.47-12.28,23.46.49,2.19,1.12,4.92,1.71,7.06,4.26,15.4,10.99,29.75,21.31,42.36l3.22,3.75c1.66,1.78,3.63,3.64,5.37,5.39,2.2,1.9,4.44,4.12,6.84,5.74,18.81,12.65,35.64,6,42.38-10.57Z"/>
    <path class="cls-6" d="m73.71,112.01c-6.48,0-13.34-2.34-20.19-6.95-1.86-1.25-3.58-2.8-5.24-4.3-.6-.54-1.2-1.08-1.79-1.59-.04-.03-.07-.07-.11-.1-.58-.59-1.19-1.19-1.81-1.79-1.22-1.2-2.48-2.44-3.6-3.65l-3.27-3.81c-9.96-12.16-17.05-26.26-21.72-43.13-.63-2.31-1.29-5.17-1.73-7.16-3.48-13.99,5.08-23.34,14.51-26.08,9.32-2.71,21.4.49,26.1,13.84,0,.01.02.03.02.04h0c.17.27.45.77.72,1.23.17.29.33.57.44.76,7.99,13.43,17.14,22.1,27.2,25.76.03.01.07.02.1.04,7.22,3.07,12.81,8.76,15.74,16.04,2.93,7.27,2.86,15.25-.21,22.47-3.56,8.76-9.82,14.91-17.63,17.29-2.43.74-4.94,1.11-7.51,1.11Zm-24.55-15.82c.59.52,1.19,1.05,1.79,1.6,1.56,1.4,3.17,2.85,4.8,3.95,8.53,5.74,16.94,7.58,24.3,5.33,6.63-2.02,12-7.35,15.1-15,2.66-6.26,2.73-13.15.19-19.44-2.53-6.27-7.34-11.18-13.55-13.83-10.93-4-20.75-13.24-29.21-27.46-.12-.2-.29-.5-.47-.82-.16-.28-.33-.58-.47-.81-.2-.21-.35-.45-.44-.73-2.63-7.86-10.43-14.88-21.34-11.71-10.92,3.17-13.74,13.28-11.74,21.33.45,2,1.09,4.8,1.69,7.02,4.51,16.32,11.36,29.93,20.93,41.62l3.19,3.72c1.01,1.09,2.24,2.29,3.42,3.46.61.6,1.21,1.19,1.79,1.77Z"/>
    <g>
      <path class="cls-3" d="m30.92,20.93s13.04,8.62,21.16,2.02c0,0-2.29-9.03-12.64-12.02-6.35-1.84-7.88-4.82-8.12-6.85-.14-1.19-1.18-2.13-2.38-2.08h0c-1.23.05-2.19,1.06-2.2,2.29,0,1.09-.21,2.54-.91,4.25-1.14,2.79-3.3,5.03-5.91,6.56-6.5,3.8-8.06,8.03-6.67,16.78,0,0,8.69,2,17.66-10.95Z"/>
      <path class="cls-6" d="m14.59,33.99c-1.04,0-1.68-.14-1.78-.16-.79-.18-1.4-.83-1.53-1.64-1.54-9.7.46-14.63,7.63-18.82,2.39-1.4,4.14-3.33,5.07-5.59.5-1.21.75-2.4.76-3.51C24.76,1.97,26.57.1,28.87,0c2.24-.08,4.19,1.6,4.45,3.84.25,2.15,2.62,3.99,6.69,5.16,11.32,3.28,13.91,13.04,14.02,13.45.19.75-.07,1.55-.68,2.04-7.41,6.02-17.85,1.3-21.87-.92-6.94,9.18-13.74,10.41-16.88,10.41ZM29.04,4s0,0,0,0c-.16,0-.28.14-.28.3-.01,1.63-.37,3.31-1.06,5-1.26,3.08-3.59,5.68-6.75,7.53-5.32,3.11-6.79,6.2-5.93,13.17,2.49-.1,8.18-1.42,14.26-10.21.62-.9,1.84-1.13,2.75-.53.14.09,10.71,6.93,17.67,2.92-1-2.35-3.86-7.32-10.8-9.33-7.31-2.12-9.23-5.81-9.55-8.54-.02-.16-.17-.31-.3-.31Z"/>
    </g>
    <g>
      <path class="cls-3" d="m32,14.78s.96,4.12-2.28,7.79"/>
      <path class="cls-6" d="m29.72,24.57c-.47,0-.94-.16-1.32-.5-.83-.73-.91-1.99-.18-2.82,2.49-2.82,1.84-5.99,1.83-6.02-.25-1.08.42-2.15,1.5-2.4,1.07-.25,2.15.42,2.4,1.5.05.21,1.15,5.17-2.73,9.57-.4.45-.95.68-1.5.68Z"/>
    </g>
    <path class="cls-5" d="m88.54,83.68c-.1,0-.2,0-.29-.02-1.09-.16-1.85-1.18-1.69-2.27,1.25-8.48-5.39-12.01-5.68-12.16-.98-.5-1.37-1.71-.87-2.69.5-.98,1.69-1.38,2.67-.88,3.3,1.65,9.18,7.19,7.83,16.31-.15.99-1,1.71-1.98,1.71Z"/>
  </g>
</svg>