<svg xmlns="http://www.w3.org/2000/svg" id="flatten_icons" data-name="flatten icons" viewBox="0 0 112 112"><defs><style>.cls-5,.cls-6{stroke-width:0}.cls-5{fill:#fff}.cls-6{fill:#004241}</style></defs><g id="autocar"><path id="area" d="M0 0h112v112H0z" style="fill:none;stroke-width:0"/><g id="car"><path d="M100.62 92.53h2.53c3.79 0 6.85-3.07 6.85-6.85V30.82c0-7.83-6.35-14.18-14.18-14.18h-7.83l-4.58-4.58a10.42 10.42 0 0 0-7.38-3.05H64.57c-2.77 0-5.42 1.1-7.38 3.05l-3.04 4.58H16.18C8.35 16.64 2 22.99 2 30.82v54.86c0 3.79 3.07 6.85 6.85 6.85h2.2" style="stroke-width:0;fill:#a9d384"/><path d="M2 70.99v14.69c0 3.79 3.07 6.85 6.85 6.85h94.29c3.79 0 6.85-3.07 6.85-6.85V70.99z" style="stroke-width:0;fill:#549659"/><circle cx="23.5" cy="92.02" r="11.92" class="cls-5"/><path d="M23.5 105.94c-7.68 0-13.92-6.25-13.92-13.92S15.83 78.1 23.5 78.1s13.92 6.25 13.92 13.92-6.25 13.92-13.92 13.92m0-23.84c-5.47 0-9.92 4.45-9.92 9.92s4.45 9.92 9.92 9.92 9.92-4.45 9.92-9.92-4.45-9.92-9.92-9.92" class="cls-6"/><circle cx="88.5" cy="92.02" r="11.92" class="cls-5"/><path d="M88.5 105.94c-7.68 0-13.92-6.25-13.92-13.92S80.83 78.1 88.5 78.1s13.92 6.25 13.92 13.92-6.25 13.92-13.92 13.92m0-23.84c-5.47 0-9.92 4.45-9.92 9.92s4.45 9.92 9.92 9.92 9.92-4.45 9.92-9.92-4.45-9.92-9.92-9.92" class="cls-6"/><path d="M88.5 98.29c-3.46 0-6.27-2.81-6.27-6.27s2.81-6.27 6.27-6.27 6.27 2.81 6.27 6.27-2.81 6.27-6.27 6.27m0-8.54c-1.25 0-2.27 1.02-2.27 2.27s1.02 2.27 2.27 2.27 2.27-1.02 2.27-2.27-1.02-2.27-2.27-2.27m-65 8.54c-3.46 0-6.27-2.81-6.27-6.27s2.81-6.27 6.27-6.27 6.27 2.81 6.27 6.27c0 1.1-.9 2-2 2s-2-.9-2-2c0-1.25-1.02-2.27-2.27-2.27s-2.27 1.02-2.27 2.27 1.02 2.27 2.27 2.27c1.1 0 2 .9 2 2s-.9 2-2 2" class="cls-6"/><path d="M2 30.82v18.2c22.25-.51 75.78-1.18 85.99 3.93 6.94 3.47 15.53 4.8 22.01 5.29V30.81c0-.69-.07-1.36-.16-2.02H2.16c-.09.66-.16 1.33-.16 2.02Z" style="stroke-width:0;fill:#b8e1ec"/><path d="M109.14 60.46h-.09l-1.01-.04a35.7 35.7 0 0 1-11.53-2.19l-13.76-5.07a30.4 30.4 0 0 0-10.51-1.87H2c-1.1 0-2-.9-2-2s.9-2 2-2h70.24c4.07 0 8.07.71 11.89 2.12l13.76 5.07a31.7 31.7 0 0 0 10.28 1.95l1.05.04c1.1.05 1.96.98 1.91 2.08a2 2 0 0 1-2 1.91ZM56 72.6H2c-1.1 0-2-.9-2-2s.9-2 2-2h54c1.1 0 2 .9 2 2s-.9 2-2 2m51.63-41.8H3.55c-1.1 0-2-.9-2-2s.9-2 2-2h104.08c1.1 0 2 .9 2 2s-.9 2-2 2" class="cls-6"/><path d="M65.09 41.04H2c-1.1 0-2-.9-2-2s.9-2 2-2h63.09c1.1 0 2 .9 2 2s-.9 2-2 2" class="cls-5"/><path d="M103.15 94.53h-2.53c-1.1 0-2-.9-2-2s.9-2 2-2h2.53c2.68 0 4.85-2.18 4.85-4.85V30.82c0-6.72-5.46-12.18-12.18-12.18h-7.83c-.53 0-1.04-.21-1.41-.59L82 13.47A8.38 8.38 0 0 0 76.04 11H64.58c-2.19 0-4.25.83-5.83 2.34l-2.92 4.4c-.37.56-1 .89-1.67.89H16.18C9.46 18.63 4 24.09 4 30.81v54.86c0 2.68 2.18 4.85 4.85 4.85h2.2c1.1 0 2 .9 2 2s-.9 2-2 2h-2.2C3.97 94.52 0 90.55 0 85.67V30.82c0-8.93 7.26-16.18 16.18-16.18h36.91l2.45-3.69c.07-.11.16-.21.25-.31C58.14 8.29 61.26 7 64.58 7h11.46c3.32 0 6.44 1.29 8.79 3.64l3.99 3.99h7c8.92 0 16.18 7.26 16.18 16.18v54.86c0 4.88-3.97 8.85-8.85 8.85Z" class="cls-6"/><path d="M76.59 94.53H35.42c-1.1 0-2-.9-2-2s.9-2 2-2h41.17c1.1 0 2 .9 2 2s-.9 2-2 2m1.43-43.24c-1.1 0-2-.9-2-2V30.75c0-1.1.9-2 2-2s2 .9 2 2v18.54c0 1.1-.9 2-2 2m-25.76 0c-1.1 0-2-.9-2-2V30.75c0-1.1.9-2 2-2s2 .9 2 2v18.54c0 1.1-.9 2-2 2m-25.46 0c-1.1 0-2-.9-2-2V30.75c0-1.1.9-2 2-2s2 .9 2 2v18.54c0 1.1-.9 2-2 2m61.19-32.65h-22.9c-1.1 0-2-.9-2-2s.9-2 2-2h22.9c1.1 0 2 .9 2 2s-.9 2-2 2" class="cls-6"/><path d="M108.01 68.67H101c-1.18 0-2.13.95-2.13 2.13v.91c0 1.71 1.38 3.09 3.09 3.09h6.05z" class="cls-5"/><path d="M108.01 76.8h-6.05c-2.81 0-5.09-2.28-5.09-5.09v-.91c0-2.28 1.85-4.13 4.13-4.13h7.01c1.1 0 2 .9 2 2v6.13c0 1.1-.9 2-2 2M101 70.67c-.07 0-.13.06-.13.13v.91c0 .6.49 1.09 1.09 1.09h4.05v-2.13z" class="cls-6"/><path d="M102.58 41.04H87.99c-1.1 0-2-.9-2-2s.9-2 2-2h14.59c1.1 0 2 .9 2 2s-.9 2-2 2" class="cls-5"/></g></g></svg>