<?xml version="1.0" encoding="UTF-8"?>
<svg id="flatten_icons" data-name="flatten icons" xmlns="http://www.w3.org/2000/svg" viewBox="0 0 112 112">
  <defs>
    <style>
      .cls-1 {
        fill: none;
      }

      .cls-1, .cls-2, .cls-3, .cls-4, .cls-5, .cls-6 {
        stroke-width: 0px;
      }

      .cls-2 {
        fill: #549659;
      }

      .cls-3 {
        fill: #a9d384;
      }

      .cls-4 {
        fill: #b8e1ec;
      }

      .cls-5 {
        fill: #fff;
      }

      .cls-6 {
        fill: #004241;
      }
    </style>
  </defs>
  <g id="autocar">
    <g id="area">
      <rect class="cls-1" width="112" height="112"/>
    </g>
    <g id="car">
      <path class="cls-3" d="m100.62,92.53h2.53c3.79,0,6.85-3.07,6.85-6.85V30.82c0-7.83-6.35-14.18-14.18-14.18h-7.83l-4.58-4.58c-1.96-1.96-4.61-3.05-7.38-3.05h-11.46c-2.77,0-5.42,1.1-7.38,3.05l-3.04,4.58H16.18c-7.83,0-14.18,6.35-14.18,14.18v54.86c0,3.79,3.07,6.85,6.85,6.85h2.2"/>
      <path class="cls-2" d="m2,70.99v14.69c0,3.79,3.07,6.85,6.85,6.85h94.29c3.79,0,6.85-3.07,6.85-6.85v-14.69H2Z"/>
      <g>
        <circle class="cls-5" cx="23.5" cy="92.02" r="11.92"/>
        <path class="cls-6" d="m23.5,105.94c-7.68,0-13.92-6.25-13.92-13.92s6.25-13.92,13.92-13.92,13.92,6.25,13.92,13.92-6.25,13.92-13.92,13.92Zm0-23.84c-5.47,0-9.92,4.45-9.92,9.92s4.45,9.92,9.92,9.92,9.92-4.45,9.92-9.92-4.45-9.92-9.92-9.92Z"/>
      </g>
      <g>
        <circle class="cls-5" cx="88.5" cy="92.02" r="11.92"/>
        <path class="cls-6" d="m88.5,105.94c-7.68,0-13.92-6.25-13.92-13.92s6.25-13.92,13.92-13.92,13.92,6.25,13.92,13.92-6.25,13.92-13.92,13.92Zm0-23.84c-5.47,0-9.92,4.45-9.92,9.92s4.45,9.92,9.92,9.92,9.92-4.45,9.92-9.92-4.45-9.92-9.92-9.92Z"/>
      </g>
      <path class="cls-6" d="m88.5,98.29c-3.46,0-6.27-2.81-6.27-6.27s2.81-6.27,6.27-6.27,6.27,2.81,6.27,6.27-2.81,6.27-6.27,6.27Zm0-8.54c-1.25,0-2.27,1.02-2.27,2.27s1.02,2.27,2.27,2.27,2.27-1.02,2.27-2.27-1.02-2.27-2.27-2.27Z"/>
      <path class="cls-6" d="m23.5,98.29c-3.46,0-6.27-2.81-6.27-6.27s2.81-6.27,6.27-6.27,6.27,2.81,6.27,6.27c0,1.1-.9,2-2,2s-2-.9-2-2c0-1.25-1.02-2.27-2.27-2.27s-2.27,1.02-2.27,2.27,1.02,2.27,2.27,2.27c1.1,0,2,.9,2,2s-.9,2-2,2Z"/>
      <path class="cls-4" d="m2,30.82v18.2c22.25-.51,75.78-1.18,85.99,3.93,6.94,3.47,15.53,4.8,22.01,5.29v-27.43c0-.69-.07-1.36-.16-2.02H2.16c-.09.66-.16,1.33-.16,2.02Z"/>
      <path class="cls-6" d="m109.14,60.46s-.06,0-.09,0l-1.01-.04c-3.92-.09-7.82-.82-11.53-2.19l-13.76-5.07c-3.38-1.24-6.91-1.87-10.51-1.87H2c-1.1,0-2-.9-2-2s.9-2,2-2h70.24c4.07,0,8.07.71,11.89,2.12l13.76,5.07c3.3,1.22,6.76,1.87,10.28,1.95l1.05.04c1.1.05,1.96.98,1.91,2.08-.05,1.07-.93,1.91-2,1.91Z"/>
      <path class="cls-6" d="m56,72.6H2c-1.1,0-2-.9-2-2s.9-2,2-2h54c1.1,0,2,.9,2,2s-.9,2-2,2Z"/>
      <path class="cls-6" d="m107.63,30.8H3.55c-1.1,0-2-.9-2-2s.9-2,2-2h104.08c1.1,0,2,.9,2,2s-.9,2-2,2Z"/>
      <path class="cls-5" d="m65.09,41.04H2c-1.1,0-2-.9-2-2s.9-2,2-2h63.09c1.1,0,2,.9,2,2s-.9,2-2,2Z"/>
      <path class="cls-6" d="m103.15,94.53h-2.53c-1.1,0-2-.9-2-2s.9-2,2-2h2.53c2.68,0,4.85-2.18,4.85-4.85V30.82c0-6.72-5.46-12.18-12.18-12.18h-7.83c-.53,0-1.04-.21-1.41-.59l-4.58-4.58c-1.59-1.59-3.71-2.47-5.96-2.47h-11.46c-2.19,0-4.25.83-5.83,2.34l-2.92,4.4c-.37.56-1,.89-1.67.89H16.18c-6.72,0-12.18,5.46-12.18,12.18v54.86c0,2.68,2.18,4.85,4.85,4.85h2.2c1.1,0,2,.9,2,2s-.9,2-2,2h-2.2c-4.88,0-8.85-3.97-8.85-8.85V30.82C0,21.89,7.26,14.64,16.18,14.64h36.91l2.45-3.69c.07-.11.16-.21.25-.31,2.35-2.35,5.47-3.64,8.79-3.64h11.46c3.32,0,6.44,1.29,8.79,3.64l3.99,3.99h7c8.92,0,16.18,7.26,16.18,16.18v54.86c0,4.88-3.97,8.85-8.85,8.85Z"/>
      <path class="cls-6" d="m76.59,94.53h-41.17c-1.1,0-2-.9-2-2s.9-2,2-2h41.17c1.1,0,2,.9,2,2s-.9,2-2,2Z"/>
      <path class="cls-6" d="m78.02,51.29c-1.1,0-2-.9-2-2v-18.54c0-1.1.9-2,2-2s2,.9,2,2v18.54c0,1.1-.9,2-2,2Z"/>
      <path class="cls-6" d="m52.26,51.29c-1.1,0-2-.9-2-2v-18.54c0-1.1.9-2,2-2s2,.9,2,2v18.54c0,1.1-.9,2-2,2Z"/>
      <path class="cls-6" d="m26.8,51.29c-1.1,0-2-.9-2-2v-18.54c0-1.1.9-2,2-2s2,.9,2,2v18.54c0,1.1-.9,2-2,2Z"/>
      <path class="cls-6" d="m87.99,18.64h-22.9c-1.1,0-2-.9-2-2s.9-2,2-2h22.9c1.1,0,2,.9,2,2s-.9,2-2,2Z"/>
      <g>
        <path class="cls-5" d="m108.01,68.67h-7.01c-1.18,0-2.13.95-2.13,2.13v.91c0,1.71,1.38,3.09,3.09,3.09h6.05v-6.13Z"/>
        <path class="cls-6" d="m108.01,76.8h-6.05c-2.81,0-5.09-2.28-5.09-5.09v-.91c0-2.28,1.85-4.13,4.13-4.13h7.01c1.1,0,2,.9,2,2v6.13c0,1.1-.9,2-2,2Zm-7.01-6.13c-.07,0-.13.06-.13.13v.91c0,.6.49,1.09,1.09,1.09h4.05v-2.13h-5.01Z"/>
      </g>
      <path class="cls-5" d="m102.58,41.04h-14.59c-1.1,0-2-.9-2-2s.9-2,2-2h14.59c1.1,0,2,.9,2,2s-.9,2-2,2Z"/>
    </g>
  </g>
</svg>