<?xml version="1.0" encoding="UTF-8"?>
<svg id="flatten_icons" data-name="flatten icons" xmlns="http://www.w3.org/2000/svg" viewBox="0 0 112 112">
  <defs>
    <style>
      .cls-1 {
        fill: none;
      }

      .cls-1, .cls-2, .cls-3, .cls-4, .cls-5 {
        stroke-width: 0px;
      }

      .cls-2 {
        fill: #c4d1d5;
      }

      .cls-3 {
        fill: #d3e7ee;
      }

      .cls-4 {
        fill: #fff;
      }

      .cls-5 {
        fill: #004241;
      }
    </style>
  </defs>
  <g id="avion">
    <g id="area">
      <rect class="cls-1" width="112" height="112"/>
    </g>
    <g id="sky">
      <path class="cls-3" d="m27.39,20.65l-2.81,2.67c-12.51,11.9-19.89,30.76-19.89,50.82v4.51c0,14.66,10.89,26.55,24.33,26.55h53.97c13.43,0,24.33-11.89,24.33-26.55v-5.17c0-19.68-7.11-38.24-19.24-50.18l-2.04-2.01c-17.27-17.01-41.16-17.27-58.65-.64Z"/>
    </g>
    <g>
      <path class="cls-4" d="m4.48,95.59c0,1.58,1.28,2.86,2.86,2.86h19.2s5.08-6.97-6.66-6.52c0,0-2.38-9.42-12.53-9.69-1.58-.04-2.87,1.28-2.87,2.86v10.5Z"/>
      <path class="cls-5" d="m26.53,100.45H4.48c-1.1,0-2-.9-2-2s.9-2,2-2h20.88c.23-.54.36-1.12.18-1.44-.07-.13-.84-1.27-5.59-1.09-1,.03-1.9-.69-2.05-1.69-.15-.92-1.8-9.02-12.05-7.7-1.09.14-2.1-.63-2.24-1.73-.14-1.1.63-2.1,1.73-2.24,11.11-1.43,14.9,5.9,16.06,9.34,4.05.08,6.57,1.14,7.68,3.22,1.56,2.93-.67,6.14-.93,6.49-.38.52-.98.82-1.62.82Z"/>
    </g>
    <g id="cloud-01">
      <path class="cls-4" d="m73.05,91.14c-3.72-3.13-5.57-12.61,3.51-15.3s12.7,4.69,12.7,4.69c12.36-.35,11.84,10.43,11.84,10.43,9.68-.7,6.35,6.44,6.35,6.44h-34.77c-1.78,0-2.8-2.04-1.73-3.46l2.1-2.8Z"/>
      <path class="cls-5" d="m107.45,99.4h-39.1c-1.1,0-2-.9-2-2s.9-2,2-2h37.61c.08-.55.06-1.13-.21-1.52-.53-.75-2.17-1.09-4.51-.92-.57.05-1.13-.16-1.54-.56s-.63-.96-.6-1.53c0-.02.11-3.58-2.27-5.97-1.65-1.66-4.19-2.45-7.52-2.37-.85.01-1.56-.45-1.89-1.19-.27-.58-2.91-5.78-10.3-3.59-2.83.84-4.51,2.45-5,4.78-.57,2.74.7,5.8,2.21,7.07.84.71.95,1.97.24,2.82-.71.85-1.97.95-2.82.24-2.47-2.08-4.48-6.51-3.55-10.95.79-3.78,3.55-6.55,7.78-7.8,7.72-2.29,12.48,1.52,14.45,4.61,3.93.11,7.04,1.32,9.27,3.59,2.17,2.22,2.96,4.95,3.24,6.81,2.9.11,4.94,1.01,6.1,2.69,1.91,2.78.39,6.24.21,6.63-.33.7-1.04,1.15-1.81,1.15Z"/>
    </g>
    <g id="plane">
      <path class="cls-4" d="m63.83,25.3s-11.05-10.13-19.2-12.63-17.77,2.61-17.77,2.61c0,0-1.66,2.23,4.05,6.27,5.71,4.03,12.1,10.09,12.1,10.09l-14.34,3.72-16.63-9.83-9.91,4.85,8.95,15.94-2.48,12.86,6.45-1.37,4-3.12s19.02,9.75,31.57,6.09l-5.93,16.39s-.24,3.28,5.43,2.24,14.43-7.33,17.21-15.84,4.54-10.17,4.54-10.17l29.89-9.12s8.2-8.35,8.24-12.09-4.77-5.3-8.95-6.79-9.29-6.4-16.99-5.71-20.24,5.65-20.24,5.65Z"/>
      <path class="cls-2" d="m109.23,30.36l-35.6,10.35-3.09,13.07,29.81-9.33s11.4-7.91,8.88-14.08Z"/>
      <path class="cls-2" d="m21.34,56.71l34.66-10.42-6.86,14.45s-14,1.03-27.8-4.03Z"/>
      <path class="cls-5" d="m70.54,55.77c-.86,0-1.66-.56-1.92-1.43-.32-1.06.29-2.17,1.35-2.49l26.16-7.79c3.29-.98,6.23-3.03,8.29-5.77l2.73-3.64c.86-1.14,1.08-2.58.62-3.93-.46-1.35-1.52-2.34-2.9-2.72l-7.05-1.92c-.15-.04-.29-.1-.43-.17l-4.58-2.48c-3.59-1.94-7.73-2.37-11.64-1.21l-50.2,14.95c-1.76.52-3.65.16-5.08-.98l-12.23-8.12c-.06-.04-.11-.08-.17-.12-.51-.42-1.2-.56-1.83-.37l-6.21,1.85c-.57.17-1.01.56-1.25,1.1-.22.5-.23,1.05-.02,1.55l6.67,9.68c.06.08.11.17.15.26.69,1.43,1.5,2.81,2.42,4.11.64.9.42,2.15-.48,2.79-.9.64-2.15.42-2.79-.48-1.01-1.43-1.91-2.96-2.68-4.53L.75,34.22c-.06-.08-.11-.17-.15-.26-.77-1.58-.8-3.42-.09-5.03.71-1.61,2.08-2.82,3.77-3.32l6.22-1.85c1.88-.56,3.9-.17,5.43,1.05l12.23,8.12c.06.04.11.08.17.12.42.34.97.45,1.48.3l50.2-14.95c4.94-1.47,10.15-.93,14.69,1.52l4.38,2.37,6.83,1.86c2.64.72,4.75,2.69,5.64,5.28.89,2.59.44,5.44-1.2,7.63l-2.73,3.64c-2.57,3.43-6.24,5.99-10.35,7.21l-26.16,7.79c-.19.06-.38.08-.57.08Z"/>
      <path class="cls-5" d="m39.99,62.75c-2.6,0-5.21-.2-7.81-.6-5.51-.86-10.77-3.11-15.19-6.52-.88-.67-1.04-1.93-.36-2.81.67-.88,1.93-1.04,2.8-.36,3.89,3,8.51,4.98,13.36,5.73,5.64.88,11.33.72,16.91-.47,1.08-.23,2.14.46,2.37,1.54s-.46,2.14-1.54,2.37c-3.49.74-7.01,1.11-10.54,1.11Z"/>
      <path class="cls-5" d="m81.46,31.18c-.86,0-1.66-.56-1.92-1.43-.32-1.06.29-2.17,1.35-2.49l16.87-5.02c1.05-.31,2.17.29,2.49,1.35.32,1.06-.29,2.17-1.35,2.49l-16.87,5.02c-.19.06-.38.08-.57.08Z"/>
      <path class="cls-5" d="m22.88,59.02c-.86,0-1.66-.56-1.92-1.43-.32-1.06.29-2.17,1.35-2.49l33.22-9.89c1.06-.31,2.17.29,2.49,1.35.32,1.06-.29,2.17-1.35,2.49l-33.22,9.89c-.19.06-.38.08-.57.08Z"/>
      <path class="cls-5" d="m74.09,43.52c-.86,0-1.66-.56-1.92-1.43-.32-1.06.29-2.17,1.35-2.49l33.22-9.89c1.05-.32,2.17.29,2.49,1.35.32,1.06-.29,2.17-1.35,2.49l-33.22,9.89c-.19.06-.38.08-.57.08Z"/>
      <path class="cls-5" d="m71.87,34.95c-.53,0-1.04-.21-1.42-.58-.09-.1-.17-.2-.24-.31-.08-.11-.14-.22-.19-.34-.05-.12-.09-.25-.11-.38-.03-.13-.04-.26-.04-.39s0-.26.04-.39c.02-.13.06-.25.11-.37s.11-.24.19-.35c.07-.11.15-.21.24-.3.75-.75,2.09-.75,2.83,0,.09.09.18.19.25.3.07.11.13.23.18.35.06.12.09.24.12.37.02.13.04.26.04.39s-.02.26-.04.39c-.03.13-.06.26-.12.38-.05.12-.11.23-.18.34-.07.11-.16.21-.25.31-.37.37-.89.58-1.41.58Z"/>
      <path class="cls-5" d="m63.19,37.54c-.13,0-.27-.02-.4-.04-.12-.03-.25-.07-.37-.12-.12-.05-.24-.11-.34-.18-.11-.07-.22-.16-.31-.25-.09-.09-.17-.19-.25-.3-.07-.11-.13-.23-.18-.35-.05-.12-.09-.24-.11-.37-.03-.13-.04-.26-.04-.39,0-.53.21-1.05.58-1.42.09-.09.2-.17.31-.25.1-.07.22-.13.34-.18.12-.05.25-.09.37-.11.66-.13,1.35.08,1.81.54.37.37.59.89.59,1.42,0,.13-.02.26-.04.39-.03.13-.07.25-.12.37-.05.12-.11.24-.18.35-.07.11-.16.21-.25.3-.37.37-.89.59-1.41.59Z"/>
      <path class="cls-5" d="m54.5,40.12c-.13,0-.26-.01-.39-.04-.13-.02-.25-.06-.37-.11-.12-.05-.24-.11-.35-.18-.11-.08-.21-.16-.3-.25-.37-.37-.59-.89-.59-1.42s.22-1.04.59-1.41c.09-.09.19-.18.3-.25.11-.07.23-.13.35-.18.12-.05.24-.09.37-.12.26-.05.53-.05.78,0,.13.03.26.07.38.12.12.05.23.11.34.18.11.07.21.16.31.25.37.37.58.88.58,1.41s-.21,1.05-.58,1.42c-.1.09-.2.17-.31.25-.11.07-.22.13-.34.18-.12.05-.25.09-.38.11-.12.03-.26.04-.39.04Z"/>
      <path class="cls-5" d="m45.82,42.71c-.13,0-.26,0-.39-.04-.13-.03-.25-.06-.37-.11s-.24-.12-.35-.19c-.11-.07-.21-.16-.3-.25-.38-.37-.59-.88-.59-1.41s.21-1.04.59-1.42c.09-.09.19-.17.3-.24.11-.08.23-.14.35-.19.12-.05.24-.09.37-.11.66-.13,1.34.08,1.8.54.38.38.59.89.59,1.42s-.21,1.04-.59,1.41c-.37.37-.88.59-1.41.59Z"/>
      <path class="cls-5" d="m37.14,45.29c-.53,0-1.05-.21-1.42-.58-.09-.09-.17-.2-.24-.31-.08-.1-.14-.22-.19-.34s-.09-.25-.11-.37c-.03-.13-.04-.27-.04-.4s0-.26.04-.39c.02-.12.06-.25.11-.37.05-.12.11-.24.19-.35.07-.11.15-.21.24-.3.74-.74,2.08-.75,2.83,0,.1.09.18.19.25.3.07.11.14.23.19.35.05.12.08.25.11.37.03.13.04.26.04.39s0,.27-.04.4c-.03.12-.06.25-.11.37-.05.12-.12.24-.19.34-.07.11-.15.22-.25.31-.37.37-.88.58-1.41.58Z"/>
      <path class="cls-5" d="m47.76,81.97c-1.34,0-2.66-.58-3.65-1.66-1.44-1.57-1.87-3.85-1.1-5.79l11.22-28.13c.41-1.03,1.57-1.53,2.6-1.12,1.03.41,1.53,1.57,1.12,2.6l-11.22,28.13c-.25.64.02,1.27.33,1.61.16.17.48.45.87.33l3.62-1.08c2.76-.82,5.33-2.36,7.43-4.45,3.62-3.61,6.35-8.27,7.89-13.48l5.3-17.98c.31-1.06,1.43-1.67,2.48-1.35,1.06.31,1.67,1.42,1.35,2.48l-5.3,17.98c-1.73,5.85-4.8,11.11-8.9,15.19-2.57,2.56-5.72,4.44-9.11,5.46l-3.62,1.08c-.43.13-.88.19-1.32.19Z"/>
      <path class="cls-5" d="m44.42,33.08c-.4,0-.8-.12-1.15-.37l-16.08-11.36c-1.71-1.21-2.59-3.35-2.25-5.45.31-1.91,1.6-3.42,3.35-3.94l3.62-1.08c3.4-1.01,7.07-1.16,10.61-.42,5.66,1.17,11.11,3.89,15.76,7.84.84.72.94,1.98.23,2.82-.72.84-1.98.94-2.82.23-4.14-3.52-8.97-5.94-13.98-6.97-2.9-.6-5.89-.49-8.66.34l-3.62,1.08c-.39.12-.51.52-.55.75-.08.46.04,1.14.61,1.54l16.08,11.36c.9.64,1.12,1.89.48,2.79-.39.55-1.01.85-1.64.85Z"/>
      <path class="cls-5" d="m8.35,61.19c-.83,0-1.64-.36-2.19-1.02-.74-.87-.88-2.1-.38-3.12l4.83-9.76c.49-.99,1.68-1.4,2.68-.91.99.49,1.4,1.69.91,2.68l-3.67,7.43,2.97-.89c.19-.06.36-.19.47-.36l6.95-11.17c.58-.94,1.82-1.23,2.75-.64.94.58,1.22,1.82.64,2.75l-6.95,11.17c-.63,1-1.59,1.74-2.72,2.08l-5.47,1.63c-.27.08-.55.12-.82.12Z"/>
    </g>
  </g>
</svg>