<?xml version="1.0" encoding="UTF-8"?>
<svg id="flatten_icons" data-name="flatten icons" xmlns="http://www.w3.org/2000/svg" viewBox="0 0 112 112">
  <defs>
    <style>
      .cls-1 {
        fill: none;
      }

      .cls-1, .cls-2, .cls-3, .cls-4 {
        stroke-width: 0px;
      }

      .cls-2 {
        fill: #93d8c6;
      }

      .cls-3 {
        fill: #d3e7ee;
      }

      .cls-4 {
        fill: #004241;
      }
    </style>
  </defs>
  <rect class="cls-1" width="112" height="112"/>
  <g>
    <path class="cls-3" d="m57.41,14.26h0c-2.01,0-3.98.15-5.91.41,1.18,2.54,3.02,5.85,5.76,9.32,7.63,9.66,18.21,15.77,31.45,18.18.85.15,1.54.85,1.58,1.71.05,1.11-.83,1.93-1.83,1.93-.11,0-.22,0-.33-.03-17.75-3.2-28.21-12.46-33.86-19.66-3.22-4.1-5.27-7.98-6.51-10.79C27.99,19.73,13.2,37.37,13.2,58.48v48.18c0,1.85,1.5,3.35,3.35,3.35h81.73c1.85,0,3.35-1.5,3.35-3.35v-48.18c0-24.42-19.79-44.21-44.21-44.21Z"/>
    <g>
      <path class="cls-2" d="m28.35,24.15l-4.62-16.85-.2,1.59c-.66,5.23-2.73,10.18-5.98,14.33h0s-.15,6.57-.15,6.57v8.05l2.91,18.89,4.29,14.32,5.66,11.93c.35.73,1.02,1.27,1.81,1.44l4.96,1.1c1.21.27,2.06,1.34,2.06,2.57v6.61c0,2.15,2.44,3.4,4.18,2.14h0c1.75-1.26,4.19,0,4.18,2.15l-.04,7.14,11.74,2.02h23.69l5.18-12.43-14.37.87-3.34-7.16s2.79-6.16,0-10.7c-2.79-4.55-5.78-9.4-5.78-9.4,0,0-1.69-12.32-9.04-12.12-7.35.2-8.01,8.4-8.01,8.4l.72,2.22c1.08,3.35.83,8.34,3.13,11.02l4.6,1.16-6.7-.95-1.74,5.24-10.31-10.09-6.21-10.4-5.28-18.74-.78-13.91,3.46-7.01Z"/>
      <g>
        <path class="cls-4" d="m53.43,82.66c-4.36,0-13.08-6.25-13.08-14.45s5.87-14.45,13.08-14.45,13.08,6.48,13.08,14.45-8.72,14.45-13.08,14.45Zm0-24.9c-5.01,0-9.08,4.69-9.08,10.45s6.86,10.45,9.08,10.45,9.08-4.7,9.08-10.45-4.08-10.45-9.08-10.45Z"/>
        <path class="cls-4" d="m70.3,91.45c-.38,0-.76-.11-1.1-.33-.92-.61-1.17-1.85-.56-2.77,4.11-6.22-4.42-14.96-4.51-15.05-.2-.2-.35-.44-.45-.7-1.53-4.05-5.45-6.77-9.77-6.77-3.77,0-7.26,2.05-9.11,5.35-.54.96-1.76,1.31-2.72.77-.96-.54-1.31-1.76-.77-2.72,2.55-4.56,7.38-7.39,12.59-7.39,5.83,0,11.14,3.59,13.36,8.97,1.76,1.88,10.13,11.56,4.7,19.76-.38.58-1.02.9-1.67.9Z"/>
        <path class="cls-4" d="m53.91,57.77c-1.1,0-2-.9-2-2v-12.27c0-1.1.9-2,2-2s2,.9,2,2v12.27c0,1.1-.9,2-2,2Z"/>
        <path class="cls-4" d="m45.41,59.23c-.54,0-1.08-.22-1.47-.65l-7-7.63c-.75-.81-.69-2.08.12-2.83.81-.75,2.08-.69,2.83.12l7,7.63c.75.81.69,2.08-.12,2.83-.38.35-.87.53-1.35.53Z"/>
        <path class="cls-4" d="m62.41,59.23c-.48,0-.97-.17-1.35-.53-.81-.75-.87-2.01-.12-2.83l7-7.63c.75-.81,2.01-.87,2.83-.12.81.75.87,2.01.12,2.83l-7,7.63c-.39.43-.93.65-1.47.65Z"/>
        <path class="cls-4" d="m53.99,91.45c-1.68,0-3.35-.52-4.77-1.56-.16-.12-.31-.26-.43-.43l-2.92-3.96c-.32-.43-.45-.98-.36-1.51l.89-5.45c.18-1.09,1.21-1.83,2.29-1.65,1.09.18,1.83,1.21,1.65,2.29l-.75,4.62,2.22,3.01c1.39.88,3.18.84,4.54-.11l2.16-1.51-.74-6.09c-.13-1.1.65-2.09,1.74-2.23,1.1-.13,2.09.65,2.23,1.74l.89,7.28c.09.73-.23,1.46-.84,1.88l-3.14,2.2c-1.4.98-3.02,1.46-4.64,1.46Z"/>
        <path class="cls-4" d="m74.43,100.29c-.75,0-1.47-.43-1.81-1.15l-3.77-8.07-8.87-3.03c-1.05-.36-1.6-1.49-1.25-2.54.36-1.04,1.49-1.6,2.54-1.25l9.68,3.3c.52.18.94.55,1.17,1.05l4.13,8.84c.47,1,.03,2.19-.97,2.66-.27.13-.56.19-.84.19Z"/>
        <path class="cls-4" d="m70.3,110.17H31.15c-.56,0-1.09-.23-1.47-.64-.38-.41-.57-.96-.53-1.51l.59-7.71-7.03-13.22-4.54-7.64c-.42-.7-.37-1.58.12-2.23l11.05-14.6c.4-.53,1.05-.83,1.7-.79.66.04,1.27.4,1.61.97l6.07,10.18,10.13,9.91c.79.77.8,2.04.03,2.83s-2.04.8-2.83.03l-10.31-10.09c-.12-.12-.23-.26-.32-.4l-4.69-7.85-8.45,11.16,3.9,6.57,7.34,13.82c.18.33.26.71.23,1.09l-.47,6.13h37c1.1,0,2,.9,2,2s-.9,2-2,2Z"/>
        <path class="cls-4" d="m45.41,110.17c-.51,0-1.02-.19-1.41-.58-.78-.78-.79-2.04-.01-2.83l20.14-20.34c.78-.79,2.04-.79,2.83-.01.78.78.79,2.04.01,2.83l-20.14,20.34c-.39.4-.91.59-1.42.59Z"/>
        <path class="cls-4" d="m31.78,101.88c-.31,0-.63-.07-.93-.23-.98-.51-1.35-1.72-.84-2.7l9.68-18.41c.51-.98,1.72-1.35,2.7-.84.98.51,1.35,1.72.84,2.7l-9.68,18.41c-.36.68-1.05,1.07-1.77,1.07Z"/>
        <g>
          <path class="cls-4" d="m24.59,73.06c-.86,0-1.66-.56-1.92-1.43l-4.29-14.32c-.03-.09-.05-.18-.06-.27l-2.88-18.67-3.08-7.72c-.25-.62-.17-1.31.2-1.86.37-.55.99-.88,1.66-.88h10.79c.57,0,1.11.24,1.49.66s.56.99.5,1.55l-.74,6.88,2.2,12.38,4.25,14.1c.32,1.06-.28,2.17-1.34,2.49-1.06.32-2.17-.28-2.49-1.34l-4.28-14.21c-.02-.07-.04-.15-.05-.23l-2.27-12.77c-.03-.19-.04-.38-.02-.56l.53-4.95h-5.62l2.07,5.19c.06.14.1.29.12.44l2.89,18.76,4.25,14.19c.32,1.06-.28,2.17-1.34,2.49-.19.06-.38.08-.57.08Z"/>
          <path class="cls-4" d="m28.35,31.92h-4.24c-1.1,0-2-.9-2-2s.9-2,2-2h2.24v-2.02l-2.9-.4c-2.72-.37-5.47-.37-8.19,0l-2.89.4v2.02h1.85c1.1,0,2,.9,2,2s-.9,2-2,2h-3.85c-1.1,0-2-.9-2-2v-5.76c0-1,.74-1.85,1.73-1.98l4.62-.63c3.07-.42,6.19-.42,9.27,0l4.62.63c.99.14,1.73.98,1.73,1.98v5.76c0,1.1-.9,2-2,2Z"/>
          <path class="cls-4" d="m14.99,25.52c-.43,0-.87-.14-1.24-.43-2.4-1.9-6.16-6.7-3.27-11.25,1.21-1.91,3.25-3.02,5.23-4.1,3.63-1.99,5.64-3.31,4.77-7.31-.2-.93.28-1.87,1.15-2.25.87-.38,1.89-.1,2.44.67.46.65,11.19,15.93,2.69,23.06-.85.71-2.11.6-2.82-.25-.71-.85-.6-2.11.25-2.82,3.33-2.79,1.53-8.47-.49-12.64-1.38,2.49-3.96,3.9-6.07,5.06-1.6.88-3.11,1.7-3.77,2.74-1.69,2.65,2.34,5.94,2.38,5.97.86.69,1,1.95.31,2.81-.4.5-.98.75-1.56.75Z"/>
        </g>
        <path class="cls-4" d="m82.84,110.17h-12.53c-.67,0-1.29-.33-1.66-.89-.37-.56-.44-1.26-.18-1.88l5.19-12.43c.31-.74,1.04-1.23,1.85-1.23h12.52c.67,0,1.29.33,1.66.89.37.56.44,1.26.18,1.88l-5.18,12.43c-.31.75-1.04,1.23-1.85,1.23Zm-9.53-4h8.2l3.51-8.43h-8.19l-3.52,8.43Z"/>
        <path class="cls-4" d="m41.91,64.46c-.24,0-.48-.04-.71-.13l-7-2.66c-1.03-.39-1.55-1.55-1.16-2.58.39-1.03,1.54-1.55,2.58-1.16l7,2.66c1.03.39,1.55,1.55,1.16,2.58-.3.8-1.06,1.29-1.87,1.29Z"/>
        <path class="cls-4" d="m63.89,65.93c-.81,0-1.57-.49-1.87-1.29-.39-1.03.13-2.19,1.16-2.58l7-2.66c1.03-.39,2.19.13,2.58,1.16.39,1.03-.13,2.19-1.16,2.58l-7,2.66c-.23.09-.47.13-.71.13Z"/>
      </g>
    </g>
  </g>
</svg>