<svg xmlns="http://www.w3.org/2000/svg" id="flatten_icons" data-name="flatten icons" viewBox="0 0 112 112"><defs><style>.cls-2,.cls-8{stroke-width:0}.cls-2{fill:#4a7c38}.cls-8{fill:#004241}</style></defs><path d="M0 0h112v112H0z" style="fill:none;stroke-width:0"/><path d="M24.37 19.11s-12.14 7.86-8.23 24.93c3.19 13.95 3.7 13.92 3.7 24.44s-1.23 23.48 14.4 33.35 40.83-.21 47.26-5.34" class="cls-2"/><path d="M50.49 108.01c-6.12 0-12.18-1.24-17.32-4.49-15.52-9.8-15.42-22.61-15.34-32.9 0-.72.01-1.44.01-2.14 0-8.49-.3-9.75-2.23-17.93-.4-1.7-.87-3.68-1.42-6.07-2.17-9.48.38-16.31 2.9-20.37 2.75-4.43 6.05-6.6 6.19-6.69.93-.6 2.17-.33 2.77.59.6.93.34 2.16-.59 2.76-.45.3-10.9 7.39-7.37 22.81.54 2.38 1.01 4.36 1.41 6.04 1.94 8.19 2.34 9.9 2.34 18.85 0 .71 0 1.44-.01 2.17-.08 9.78-.16 20.87 13.48 29.49 7.97 5.03 18.31 4.24 25.6 2.69 8.36-1.78 16.21-5.4 19.35-7.9.86-.69 2.12-.55 2.81.32.69.86.55 2.12-.32 2.81-4.88 3.89-18.72 9.95-32.25 9.95Z" class="cls-8"/><path d="M60.9 23.72a22.3 22.3 0 0 0-2.13-3.79c-6.25-8.89-18.46-11.67-27.94-6.36-10.88 6.1-14.22 19.99-7.56 30.31.6.93 1.26 1.8 1.97 2.6 5.59 6.33 9.11 14.31 8.97 22.75-.11 6.67 1.91 13.45 6.29 19.29 9.53 12.69 27.41 16.15 41.01 7.96 15.16-9.13 19.67-28.91 10.15-43.68a31.13 31.13 0 0 0-13.63-11.65c-7.75-3.41-13.73-9.7-17.12-17.45Z" style="stroke-width:0;fill:#7dbc68"/><path d="M65.57 102.88c-10.19 0-20.27-4.61-26.68-13.14-4.5-6-6.82-13.09-6.69-20.53.13-7.48-2.88-15.08-8.47-21.4-.78-.89-1.51-1.84-2.15-2.84a23.46 23.46 0 0 1-3.04-18.34c1.58-6.34 5.59-11.59 11.31-14.8 10.32-5.78 23.74-2.73 30.56 6.96.92 1.3 1.7 2.69 2.33 4.14 3.26 7.46 8.98 13.29 16.09 16.42a33.15 33.15 0 0 1 14.51 12.39c4.91 7.62 6.49 16.68 4.44 25.51s-7.46 16.27-15.24 20.96c-5.24 3.16-11.12 4.67-16.96 4.67ZM41.15 12.89c-3.2 0-6.43.78-9.35 2.42-4.75 2.66-8.08 7.02-9.39 12.27-1.31 5.26-.41 10.66 2.52 15.21.54.83 1.14 1.62 1.79 2.36 6.25 7.07 9.61 15.63 9.47 24.11-.11 6.53 1.93 12.78 5.89 18.06 8.86 11.8 25.72 15.07 38.38 7.45 6.85-4.12 11.61-10.67 13.41-18.44s.42-15.74-3.91-22.44c-3.11-4.83-7.52-8.6-12.76-10.9-8.04-3.54-14.48-10.1-18.15-18.48a19 19 0 0 0-1.94-3.44c-3.72-5.28-9.81-8.19-15.98-8.19Z" class="cls-8"/><path d="M78.17 90.97c5.8-3.5 9.84-9.05 11.37-15.63 1.53-6.59.35-13.35-3.31-19.03a24.7 24.7 0 0 0-10.81-9.24C66.36 43.08 59.1 35.71 54.99 26.3c-.4-.93-.91-1.82-1.5-2.66-2.87-4.07-7.56-6.31-12.32-6.31-2.47 0-4.95.6-7.2 1.87-3.66 2.05-6.24 5.42-7.24 9.47-1.01 4.05-.32 8.22 1.95 11.73.42.64.88 1.26 1.38 1.82 6.99 7.9 10.75 17.54 10.59 27.13-.09 5.54 1.64 10.83 5 15.31 7.51 10 21.79 12.77 32.53 6.31Z" style="stroke-width:0;fill:#c6eaa0"/><path d="M76.04 87.42c4.84-2.91 8.2-7.54 9.47-13.02 1.27-5.49.29-11.11-2.76-15.84-2.2-3.41-5.31-6.07-9-7.69-10.02-4.41-18.03-12.54-22.56-22.9-.29-.67-.66-1.32-1.09-1.93-2.01-2.85-5.34-4.55-8.93-4.55-1.83 0-3.62.46-5.18 1.34-2.66 1.49-4.52 3.92-5.25 6.85a10.7 10.7 0 0 0 1.41 8.48c.3.47.64.91 1 1.32 7.68 8.68 11.81 19.32 11.63 29.95-.08 4.61 1.36 9.02 4.17 12.76 6.25 8.32 18.14 10.62 27.08 5.24Z" style="stroke-width:0;fill:#e3f4b5"/><circle cx="65.84" cy="68.48" r="14.22" style="stroke-width:0;fill:#d3b062"/><path d="M77.73 60.68c.05.47.07.94.07 1.42 0 7.85-6.37 14.22-14.22 14.22-4.97 0-9.35-2.56-11.89-6.43.71 7.19 6.77 12.8 14.15 12.8 7.85 0 14.22-6.37 14.22-14.22 0-2.88-.86-5.56-2.33-7.8Z" style="stroke-width:0;fill:#b79249"/><path d="M65.84 84.7c-8.94 0-16.22-7.28-16.22-16.22s7.28-16.22 16.22-16.22 16.22 7.28 16.22 16.22S74.78 84.7 65.84 84.7m0-28.44c-6.74 0-12.22 5.48-12.22 12.22S59.1 80.7 65.84 80.7s12.22-5.48 12.22-12.22-5.48-12.22-12.22-12.22" class="cls-8"/><path d="m28.2 14.91-.99-1.45A23.6 23.6 0 0 0 18.86 6" class="cls-2"/><path d="M28.2 16.91c-.64 0-1.26-.3-1.65-.87l-.99-1.45a21.6 21.6 0 0 0-7.64-6.83 2.006 2.006 0 0 1-.82-2.71c.52-.97 1.73-1.35 2.71-.82 3.61 1.92 6.74 4.72 9.06 8.09l.99 1.45c.63.91.39 2.16-.52 2.78-.35.24-.74.35-1.13.35Z" class="cls-8"/></svg>