<svg xmlns="http://www.w3.org/2000/svg" id="flatten_icons" viewBox="0 0 112 112"><defs><style>.cls-3{fill:#d1a579}.cls-4{fill:#004241}.cls-5{fill:#d8ae88}</style></defs><g id="baguette"><path d="M8.44 103.91c-5.86-5.92-1.22-23.85 14.34-35.39s33.17-29.79 46.99-46.47C83.59 5.38 99.46 2.18 105.32 8.11c5.86 5.92-6.18 22.16-14.34 35.39S58.29 76.33 43.99 89.97c-14.3 13.63-29.69 19.87-35.55 13.94" style="fill:#f4c77f"/><path d="M22.91 69.68s13.91 6.27 26.4.59c0 0-7.6-11.12-18.77-7.66" class="cls-3"/><path d="M37.65 74.66c-8.41 0-15.15-2.97-15.56-3.16a1.987 1.987 0 0 1-1-2.64 1.995 1.995 0 0 1 2.64-1c.2.09 11.49 5.01 22.27 1.55-2.58-2.73-7.96-7.02-14.87-4.89-1.05.33-2.18-.26-2.5-1.32-.33-1.05.26-2.17 1.32-2.5 12.44-3.85 20.67 7.94 21.01 8.44.33.49.43 1.1.27 1.67a1.98 1.98 0 0 1-1.1 1.28c-4.21 1.91-8.53 2.57-12.48 2.57" class="cls-4"/><path d="M45.86 48.29s14.3 6.74 26.79 1.07c0 0-7.99-11.59-19.16-8.14" class="cls-3"/><path d="M61.46 53.64c-8.8 0-16.02-3.34-16.45-3.54-1-.47-1.43-1.66-.96-2.66s1.66-1.42 2.66-.96c.13.06 11.79 5.42 22.63 2-2.66-2.86-8.28-7.52-15.27-5.35-1.05.33-2.18-.26-2.5-1.32-.33-1.05.26-2.17 1.32-2.5 12.43-3.85 21.04 8.39 21.4 8.91.34.49.44 1.1.28 1.67s-.56 1.04-1.1 1.29c-4.01 1.82-8.17 2.46-12.02 2.46Z" class="cls-4"/><path d="M65.96 27.31s12.76 4.25 24.62-2.63c0 0-8.08-9.43-18.86-4.88" class="cls-3"/><path d="M75.35 30.62c-5.66 0-9.72-1.31-10.02-1.42-1.05-.35-1.61-1.48-1.27-2.53s1.48-1.61 2.53-1.27c.15.05 10.4 3.31 20.56-1.22-2.73-2.2-8.13-5.3-14.65-2.55-1.02.43-2.19-.05-2.62-1.07s.05-2.19 1.07-2.62c9.59-4.05 18.03 1.78 21.16 5.42.39.45.55 1.05.45 1.64s-.45 1.1-.97 1.4c-5.69 3.3-11.52 4.22-16.24 4.22" class="cls-4"/><path d="M105.32 8.1c-.43-.43-.91-.81-1.43-1.14-.97 3.12-2.76 6.69-4.93 10.44-1.42 2.45-.82 5.63-2.42 8.15-1.12 1.77-7.05 7.02-7.77 8.2-1.56 2.53-3.71 5.29-6.28 8.19-1 1.13-2.06 2.28-3.17 3.45-1.58 1.66-.75 4.03-2.51 5.74-2.06 2.01-6.72 3.37-8.93 5.41-3.51 3.24-7.13 6.5-10.69 9.67-1.27 1.13-.39 5.31-1.63 6.42-1.4 1.25-8.37 2.98-9.71 4.18-2.7 2.43-1.79 1.22-4.08 3.39-14.3 13.63-29.69 19.87-35.55 13.94s-.04-.05-.06-.07c-.53 4.21.23 7.74 2.28 9.81 5.86 5.92 21.25-.31 35.55-13.94s38.83-33.23 46.99-46.47c8.16-13.23 20.2-29.47 14.34-35.39Z" class="cls-5"/><path d="M14.62 108.11c-3.12 0-5.73-.9-7.6-2.79-2.24-2.27-3.29-5.93-2.96-10.32.57-7.38 5.5-19.16 17.53-28.08 13.86-10.28 30.86-27.1 46.64-46.14 8.7-10.49 19.35-17 28.49-17.4 4.21-.18 7.68.96 10.02 3.33 6.12 6.18-1.85 18.66-10.28 31.86-1.3 2.03-2.58 4.04-3.78 5.99-6.05 9.81-20.72 22.9-33.66 34.44-4.99 4.45-9.7 8.66-13.65 12.42-11.2 10.68-22.7 16.7-30.76 16.7ZM97.57 7.35c-.22 0-.44 0-.67.01-3.01.13-13.75 1.67-25.59 15.96-15.97 19.27-33.23 36.33-47.34 46.8C13.02 78.24 8.55 88.76 8.05 95.3c-.25 3.21.4 5.77 1.81 7.2 5.42 5.48 21.22-2.99 32.75-13.98 3.99-3.81 8.73-8.03 13.75-12.51C69.1 64.64 83.54 51.76 89.28 42.45c1.21-1.96 2.5-3.99 3.81-6.04 6.54-10.24 14.68-22.99 10.81-26.9-1.39-1.4-3.62-2.16-6.33-2.16" class="cls-4"/><ellipse cx="71.12" cy="35.73" class="cls-5" rx="2.03" ry="1.53" transform="rotate(-38.88 71.125 35.73)"/><ellipse cx="27.14" cy="85.61" class="cls-5" rx="2.03" ry="1.53" transform="rotate(-38.88 27.154 85.608)"/><ellipse cx="44.7" cy="57.76" class="cls-5" rx="1.71" ry="1.29" transform="rotate(-38.88 44.71 57.76)"/><path d="M0 0h112v112H0z" style="fill:none"/></g></svg>