<svg xmlns="http://www.w3.org/2000/svg" id="flatten_icons" data-name="flatten icons" viewBox="0 0 112 112"><defs><style>.cls-2,.cls-4,.cls-6{stroke-width:0}.cls-2{fill:#f4d553}.cls-4{fill:#efe8c7}.cls-6{fill:#004241}</style></defs><path d="M0 0h112v112H0z" style="fill:none;stroke-width:0"/><path d="m50.6 23.14.03.1c.02.07-3.72 45.99 41.44 57 28.32 6.9 20.7 29.07-6.15 25.78-30.79-3.77-55.44-26.03-61.34-56.1-1.78-8.83-2.18-17.76-.8-26.64l.37-2.17c5.3-22.36 28.19-25.89 26.42 2.06 0 0 .03-.05.04-.03Z" style="stroke-width:0;fill:#f4f0df"/><path d="M90.74 108.32c-1.69 0-3.39-.1-5.07-.31-31.71-3.89-57.05-27.07-63.06-57.7-1.9-9.41-2.17-18.61-.82-27.33l.37-2.2.03-.13C25.49 6.73 34.76.33 41.83 1.39c2.79.42 11.75 3.19 10.75 21.45.04.2.05.42.04.6-.27 4.55-1.41 44.79 39.92 54.87 13.16 3.21 20.73 10.36 19.29 18.22-1.48 8.08-11.03 11.8-21.09 11.8ZM26.1 21.51l-.35 2.11c-1.28 8.24-1.01 16.96.79 25.92 5.67 28.93 29.63 50.83 59.62 54.51 12.85 1.58 20.79-3.07 21.74-8.23 1.16-6.38-7.35-11.43-16.31-13.62C48.14 71.61 48.31 30.09 48.6 23.61c-.04-.18-.05-.37-.04-.56.64-10.15-2.16-16.93-7.32-17.7-5.36-.81-12.48 5.03-15.14 16.17Z" class="cls-6"/><path d="M85.92 106.02c26.85 3.29 34.46-18.88 6.15-25.78C77.2 76.61 67.63 69.2 61.49 60.89L32.76 71.57c10.95 18.72 30.37 31.66 53.17 34.45Z" class="cls-2"/><path d="M90.74 108.32c-1.69 0-3.39-.1-5.07-.31-23.23-2.85-43.15-15.76-54.65-35.43-.3-.51-.36-1.13-.16-1.68.2-.56.63-1 1.19-1.2l28.73-10.68c.84-.31 1.77-.03 2.3.69 6.83 9.24 16.74 15.5 29.45 18.59 9.99 2.44 21.04 8.67 19.29 18.22-1.48 8.08-11.03 11.79-21.09 11.8ZM35.72 72.6c11.02 17.43 29.27 28.84 50.44 31.43 12.85 1.58 20.79-3.07 21.74-8.23 1.16-6.38-7.35-11.43-16.31-13.62-13.09-3.19-23.44-9.55-30.8-18.9z" class="cls-6"/><path d="M91.09 95.63c.95.09 1.91.16 2.89.2" class="cls-2"/><path d="M93.98 97.84h-.09c-.99-.04-2-.11-2.99-.21-1.1-.11-1.9-1.08-1.8-2.18a2 2 0 0 1 2.19-1.8c.92.09 1.86.16 2.78.2 1.1.05 1.96.98 1.91 2.08a2 2 0 0 1-2 1.91" class="cls-6"/><path d="M43.25 67.67S58.56 88.09 82.8 94.19" class="cls-2"/><path d="M82.8 96.19c-.16 0-.33-.02-.49-.06-24.64-6.2-40.02-26.4-40.66-27.26-.66-.88-.48-2.14.4-2.8s2.14-.48 2.8.4c.15.2 15.21 19.94 38.44 25.78 1.07.27 1.72 1.36 1.45 2.43-.23.91-1.04 1.51-1.94 1.51" class="cls-6"/><path d="M47.51 66.09s-18.69-15.21-32.2-5.19C-1.33 73.23 11.98 97.43 2 106.36c0 0 3.74 7.38 16.22-3.91s4.03-26.98 14.53-30.88z" class="cls-4"/><path d="M6.52 110.73c-.52 0-1.02-.05-1.51-.14-3.33-.62-4.65-3.05-4.79-3.33-.41-.81-.23-1.79.45-2.39 3.68-3.29 3.61-9.49 3.52-16.66-.12-10.01-.26-21.36 9.93-28.91 6.11-4.53 14.1-5.02 23.1-1.41 6.57 2.63 11.35 6.49 11.55 6.66.56.45.83 1.17.71 1.88s-.6 1.3-1.28 1.55l-14.76 5.48c-3.81 1.42-4.4 4.62-5.18 10.63-.79 6.05-1.77 13.58-8.7 19.86-4.99 4.52-9.37 6.79-13.05 6.79Zm-1.75-4.41c.28.15.63.29 1.06.35 1.51.25 4.95-.18 11.05-5.71 5.84-5.29 6.68-11.72 7.42-17.41.74-5.67 1.5-11.54 7.75-13.86l11.2-4.16c-5.54-3.56-17.67-9.77-26.76-3.03-8.55 6.34-8.43 16.16-8.32 25.65.08 6.98.17 13.62-3.42 18.17Z" class="cls-6"/><path d="M47.51 66.09s.26-21.77 15.51-25.81c15.25-4.03 23.93 7.82 29.51 15.75 4.14 5.88 14.67 15.81-1.82 10.95-4.05-1.19-7.23-4.29-10.13-7.35-7.02-7.42-19.1 1.26-19.1 1.26l-13.97 5.19Z" class="cls-4"/><path d="M97.36 70.29c-1.74 0-4.08-.46-7.21-1.39-4.53-1.34-7.93-4.63-11.02-7.9-5.73-6.05-16.37 1.44-16.48 1.51-.14.1-.3.19-.47.25l-13.97 5.19a2 2 0 0 1-1.85-.24c-.54-.38-.86-1-.85-1.66 0-.24.09-5.83 2.14-12 2.8-8.45 7.94-13.89 14.86-15.72 16.89-4.47 26.5 9.2 31.66 16.54.68.97 1.55 2.06 2.47 3.21 3.38 4.24 6.29 7.9 4.49 10.58-.72 1.08-1.9 1.61-3.77 1.61ZM73.39 54.63c3.43 0 6.37 1.22 8.65 3.62 2.72 2.87 5.67 5.75 9.24 6.81 3.72 1.09 5.47 1.24 6.24 1.22-.59-1.39-2.77-4.13-4.01-5.7-.96-1.2-1.86-2.34-2.61-3.41-6.66-9.47-14.26-18.43-27.36-14.97-10.38 2.74-13.08 15.12-13.78 20.91l10.8-4.01c.82-.56 3.68-2.39 7.24-3.53 1.98-.63 3.85-.95 5.59-.95Z" class="cls-6"/><path d="M91.33 67.17c15.6 4.42 5.28-5.32 1.2-11.13-2.7-3.83-6.12-8.58-10.66-12.01-1.37-1.03-3.02-1.62-4.74-1.61-16 .07-20.86 20.42-20.86 20.42l5.21-1.94s13.05-9.38 19.9-.31c2.45 3.24 6.03 5.47 9.94 6.57Z" class="cls-2"/><path d="M97.34 70.28c-1.63 0-3.76-.4-6.55-1.19-4.5-1.28-8.4-3.87-10.99-7.29-5.6-7.4-16.67.39-17.14.72-.14.1-.3.19-.47.25l-5.21 1.94c-.61.23-1.3.14-1.84-.23s-.86-.99-.86-1.64c0-.22 4.95-22.34 22.85-22.42h.04c2.09 0 4.19.71 5.91 2.02 4.58 3.46 7.99 8.05 11.09 12.46.68.97 1.55 2.06 2.47 3.21 3.37 4.23 6.28 7.89 4.5 10.57-.72 1.08-1.91 1.61-3.79 1.61Zm-5.46-5.04c3.31.94 4.91 1.08 5.64 1.04-.59-1.39-2.77-4.13-4.01-5.7-.96-1.2-1.86-2.34-2.61-3.4-2.29-3.26-5.76-8.19-10.23-11.57-1.03-.78-2.27-1.21-3.5-1.21h-.02c-10.17.05-15.45 9.59-17.65 15.09l1.05-.39c5.16-3.61 16.18-8.02 22.44.27 2.07 2.74 5.23 4.82 8.89 5.86Z" class="cls-6"/><path d="M31.31 36.14a2 2 0 0 1-2-2c-.01-7.25 1.44-13.13 1.51-13.37a2.003 2.003 0 0 1 2.43-1.45c1.07.27 1.72 1.35 1.45 2.43-.01.06-1.4 5.67-1.39 12.39a2 2 0 0 1-2 2" style="stroke-width:0;fill:#fff"/></svg>