<?xml version="1.0" encoding="UTF-8"?>
<svg id="flatten_icons" data-name="flatten icons" xmlns="http://www.w3.org/2000/svg" viewBox="0 0 112 112">
  <defs>
    <style>
      .cls-1 {
        fill: none;
      }

      .cls-1, .cls-2, .cls-3, .cls-4, .cls-5 {
        stroke-width: 0px;
      }

      .cls-2 {
        fill: #d15d81;
      }

      .cls-3 {
        fill: #aad681;
      }

      .cls-4 {
        fill: #bc468c;
      }

      .cls-5 {
        fill: #004241;
      }
    </style>
  </defs>
  <rect class="cls-1" y="0" width="112" height="112"/>
  <g>
    <g>
      <path class="cls-3" d="m46.24,23.03l6.02-1.66s3.46,6.9,2.66,13.53l-5.07,3.51-3.6-15.38Z"/>
      <path class="cls-5" d="m49.84,40.41c-.24,0-.49-.04-.72-.13-.62-.24-1.08-.77-1.23-1.41l-3.6-15.38c-.25-1.05.38-2.1,1.42-2.38l6.02-1.66c.92-.25,1.89.18,2.32,1.03.15.3,3.72,7.52,2.85,14.67-.07.57-.38,1.08-.85,1.4l-5.07,3.51c-.34.23-.74.36-1.14.36Zm-1.21-15.96l2.49,10.65,1.89-1.31c.24-3.94-1.06-7.93-1.89-10.03l-2.49.69Z"/>
    </g>
    <g>
      <path class="cls-3" d="m49.84,36.11c-1.07-4.51-2.74-8.96-4.71-13.08C39.22,10.67,30.58,1.29,27.07,2.04c-4.68,1-4.27,4.84-4.27,4.84,7.75,2.83,15.63,20.85,15.63,20.85l4.46,11.8,6.95-3.43Z"/>
      <path class="cls-5" d="m42.89,41.53c-.25,0-.5-.05-.73-.14-.52-.21-.94-.63-1.14-1.15l-4.44-11.75c-2.12-4.83-8.79-17.65-14.46-19.73-.72-.26-1.22-.91-1.3-1.67-.21-1.94.75-5.91,5.84-7,5.44-1.17,14.77,10.55,20.29,22.08,2.17,4.54,3.81,9.08,4.85,13.48.22.91-.23,1.84-1.06,2.26l-6.96,3.43c-.28.14-.58.21-.88.21ZM24.97,5.69c7.72,4.33,14.5,19.43,15.29,21.24.01.03.03.06.04.09l3.68,9.74,3.53-1.74c-.98-3.64-2.38-7.38-4.18-11.14-6.36-13.29-14.14-20.07-15.86-19.89-1.56.33-2.22,1.06-2.5,1.69Z"/>
    </g>
    <g>
      <path class="cls-3" d="m39.42,38.41s-4.46-9.15-14.2-11.79c0,0-2.96-3.97,0-4.97s9.78.29,20.23,14.68"/>
      <path class="cls-5" d="m39.42,40.41c-.74,0-1.45-.41-1.8-1.12-.05-.1-4.23-8.38-12.92-10.74-.43-.12-.81-.38-1.08-.74-.39-.52-2.28-3.23-1.54-5.63.36-1.15,1.24-2.01,2.5-2.44,3.39-1.15,10.81-.67,22.49,15.4.65.89.45,2.14-.44,2.79-.89.65-2.14.45-2.79-.44-11.11-15.29-17.06-14.23-17.92-13.98.05.33.28.87.57,1.38,9.98,3.08,14.54,12.23,14.73,12.62.48.99.07,2.19-.92,2.67-.28.14-.58.2-.88.2Z"/>
    </g>
    <path class="cls-2" d="m95.37,60.27c3.85,19.58-15.99,32.74-27.27,47.18-1.98,2.53-5.51,3.28-8.35,1.78-16.89-8.97-39.03-13.88-42.89-33.52-4.26-21.68,11.31-35.34,32.99-39.6,21.68-4.26,41.26,2.49,45.52,24.17Z"/>
    <path class="cls-4" d="m95.37,60.27c-1.8-9.14-6.33-15.62-12.58-19.75,3.06,3.73,5.29,8.43,6.42,14.21,2.13,10.84-3,19.72-9.92,27.93-12.34,14.64-33.14,18.67-49.93,9.47-2.25-1.24-4.41-2.55-6.41-4,8.68,9.97,24.19,14.41,36.79,21.1,2.84,1.51,6.37.75,8.35-1.78,11.29-14.44,31.12-27.6,27.27-47.18Z"/>
    <path class="cls-5" d="m62.86,112.01c-1.38,0-2.77-.33-4.06-1.01-3.63-1.93-7.61-3.71-11.45-5.43-14.38-6.44-29.25-13.1-32.46-29.47-4.1-20.88,9.14-36.95,34.57-41.95,11.68-2.3,22.24-1.43,30.54,2.51,9.21,4.37,15.21,12.41,17.33,23.23,3.1,15.76-7.8,27.25-18.35,38.37-3.39,3.57-6.58,6.94-9.31,10.43-1.69,2.16-4.22,3.32-6.81,3.32Zm-1.11-75.12c-3.65,0-7.51.39-11.52,1.18-18.03,3.54-35.75,15.19-31.41,37.25,2.82,14.34,16.11,20.29,30.17,26.59,3.91,1.75,7.95,3.56,11.69,5.55,1.99,1.06,4.45.54,5.84-1.24,2.84-3.64,6.26-7.24,9.56-10.72,9.84-10.38,20.02-21.11,17.32-34.84h0c-1.9-9.67-6.99-16.53-15.12-20.39-4.73-2.25-10.33-3.38-16.53-3.38Z"/>
    <path class="cls-5" d="m39.96,88.64c-12.9,0-21.35-4.8-21.79-5.06-.96-.55-1.28-1.78-.73-2.73.55-.96,1.78-1.28,2.73-.73.17.1,12.93,7.25,30.55,3.32,1.08-.24,2.15.44,2.39,1.52.24,1.08-.44,2.15-1.52,2.39-4.17.93-8.07,1.29-11.63,1.29Z"/>
    <path class="cls-5" d="m77.05,77.28c-.89,0-1.7-.59-1.93-1.49-.28-1.07.35-2.16,1.42-2.44h0c.12-.03,11.79-3.27,17.03-13.96.49-.99,1.68-1.4,2.68-.92.99.49,1.4,1.68.92,2.68-6.06,12.37-19.05,15.92-19.6,16.07-.17.05-.34.07-.51.07Z"/>
    <path class="cls-5" d="m28.85,70.34c-8.76,0-13.51-5.6-13.73-5.86-.7-.85-.59-2.11.26-2.82.85-.7,2.1-.59,2.81.26.2.23,4.72,5.42,13.09,4.25,1.09-.16,2.1.61,2.26,1.7.15,1.09-.61,2.1-1.7,2.26-1.04.15-2.04.21-2.99.21Z"/>
    <path class="cls-5" d="m53.81,65.78c-.94,0-1.78-.67-1.96-1.63-.21-1.08.5-2.13,1.59-2.34.15-.03,15.34-2.99,26.7-10.66.91-.62,2.16-.38,2.78.54.62.92.38,2.16-.54,2.78-12.06,8.13-27.53,11.15-28.19,11.27-.13.02-.25.04-.38.04Z"/>
  </g>
</svg>