<svg xmlns="http://www.w3.org/2000/svg" id="Calque_2" viewBox="0 0 112 112"><defs><style>.cls-5{fill:#004241}</style></defs><g id="flatten_icons"><g id="beurre"><path d="M0 0h112v112H0z" style="fill:none"/><path d="M38.58 79.6 7 60.57V29.43l31.58 19.02z" style="fill:#ffc74a"/><path d="M38.58 81.6c-.36 0-.71-.1-1.03-.29L5.97 62.28c-.6-.36-.97-1.01-.97-1.71V29.42c0-.72.39-1.39 1.02-1.74s1.4-.34 2.02.03l31.58 19.03c.6.36.97 1.01.97 1.71V79.6c0 .72-.39 1.39-1.02 1.74-.31.17-.65.26-.98.26ZM9 59.44l27.58 16.62V49.58L9 32.96z" class="cls-5"/><path d="M7 29.1 63.77 14l31.58 19.35-56.77 15.1L7 29.43" style="fill:#f9eaac"/><path d="M38.58 50.45c-.36 0-.72-.1-1.03-.29L5.97 31.14a1.99 1.99 0 0 1-.96-1.87 1.99 1.99 0 0 1 1.48-2.09l56.77-15.1a2 2 0 0 1 1.56.23L96.4 31.66a1.995 1.995 0 0 1-.53 3.63L39.1 50.39c-.17.05-.34.07-.51.07ZM11.7 29.92 38.89 46.3l51.44-13.69-26.87-16.46z" class="cls-5"/><path d="M95.35 63.86V33.35l-56.77 15.1V79.6l19.25-5.12c0 .13-.03.26-.03.4 0 1.62.51 3.17 1.41 4.61-6.3 1.35-10.79 4.84-10.79 8.96 0 5.28 7.39 9.56 16.49 9.56s16.39-4.22 16.49-9.45c13.03 0 23.6-6.12 23.6-13.67 0-4.52-3.81-8.52-9.65-11.01Z" style="fill:#f4d553"/><path d="M64.9 100c-10.37 0-18.5-5.08-18.5-11.56 0-4.46 3.83-8.34 9.95-10.28q-.195-.57-.33-1.14l-16.94 4.51a2.004 2.004 0 0 1-2.51-1.94V48.44c0-.91.61-1.7 1.49-1.93l56.77-15.1a2.004 2.004 0 0 1 2.51 1.94v29.22c6.15 2.96 9.65 7.39 9.65 12.3 0 8.44-10.36 15.12-23.89 15.64-1.53 5.45-9.01 9.49-18.2 9.49m-7.07-27.52c.45 0 .9.15 1.26.44.5.4.77 1.01.74 1.65 0 .11-.02.21-.03.31 0 1.16.37 2.36 1.1 3.54.34.55.39 1.24.14 1.84-.26.6-.79 1.04-1.42 1.17-5.42 1.16-9.21 4.04-9.21 7 0 4.03 6.77 7.56 14.5 7.56 8.58 0 14.42-3.87 14.49-7.49.02-1.1.9-2.02 2.04-1.96 11.69 0 21.57-5.35 21.57-11.67 0-3.49-3.15-6.92-8.43-9.17a2 2 0 0 1-1.22-1.84V35.95L40.59 49.99V77l16.74-4.45c.17-.05.34-.07.51-.07Z" class="cls-5"/><path d="M67.97 73.79c-.89 0-1.7-.6-1.93-1.5-.28-1.07.36-2.16 1.43-2.44l16.27-4.23c1.07-.28 2.16.36 2.44 1.43s-.36 2.16-1.43 2.44l-16.27 4.23a2.2 2.2 0 0 1-.5.06Z" style="fill:#fff"/></g></g></svg>