<?xml version="1.0" encoding="UTF-8"?>
<svg id="Calque_2" xmlns="http://www.w3.org/2000/svg" viewBox="0 0 112 112">
  <defs>
    <style>
      .cls-1 {
        fill: none;
      }

      .cls-2 {
        fill: #ffc74a;
      }

      .cls-3 {
        fill: #fff;
      }

      .cls-4 {
        fill: #f4d553;
      }

      .cls-5 {
        fill: #004241;
      }

      .cls-6 {
        fill: #f9eaac;
      }
    </style>
  </defs>
  <g id="flatten_icons">
    <g id="beurre">
      <rect class="cls-1" width="112" height="112"/>
      <g>
        <g>
          <polygon class="cls-2" points="38.58 79.6 7 60.57 7 29.43 38.58 48.45 38.58 79.6"/>
          <path class="cls-5" d="M38.58,81.6c-.36,0-.71-.1-1.03-.29L5.97,62.28c-.6-.36-.97-1.01-.97-1.71v-31.15c0-.72.39-1.39,1.02-1.74.63-.35,1.4-.34,2.02.03l31.58,19.03c.6.36.97,1.01.97,1.71v31.15c0,.72-.39,1.39-1.02,1.74-.31.17-.65.26-.98.26ZM9,59.44l27.58,16.62v-26.48l-27.58-16.62v26.48Z"/>
        </g>
        <g>
          <polyline class="cls-6" points="7 29.1 63.77 14 95.35 33.35 38.58 48.45 7 29.43"/>
          <path class="cls-5" d="M38.58,50.45c-.36,0-.72-.1-1.03-.29L5.97,31.14c-.67-.4-1.02-1.14-.96-1.87-.08-.95.53-1.84,1.48-2.09l56.77-15.1c.53-.14,1.09-.06,1.56.23l31.58,19.35c.68.42,1.05,1.2.93,1.99-.12.79-.69,1.44-1.46,1.64l-56.77,15.1c-.17.05-.34.07-.51.07ZM11.7,29.92l27.19,16.38,51.44-13.69-26.87-16.46L11.7,29.92Z"/>
        </g>
        <g>
          <path class="cls-4" d="M95.35,63.86v-30.51l-56.77,15.1v31.15l19.25-5.12c0,.13-.03.26-.03.4,0,1.62.51,3.17,1.41,4.61-6.3,1.35-10.79,4.84-10.79,8.96,0,5.28,7.39,9.56,16.49,9.56s16.39-4.22,16.49-9.45c0,0,0,0,0,0,13.03,0,23.6-6.12,23.6-13.67,0-4.52-3.81-8.52-9.65-11.01Z"/>
          <path class="cls-5" d="M64.9,100c-10.37,0-18.5-5.08-18.5-11.56,0-4.46,3.83-8.34,9.95-10.28-.13-.38-.24-.76-.33-1.14l-16.94,4.51c-.6.16-1.24.03-1.73-.35-.49-.38-.78-.96-.78-1.59v-31.15c0-.91.61-1.7,1.49-1.93l56.77-15.1c.6-.16,1.24-.03,1.73.35.49.38.78.96.78,1.59v29.22c6.15,2.96,9.65,7.39,9.65,12.3,0,8.44-10.36,15.12-23.89,15.64-1.53,5.45-9.01,9.49-18.2,9.49ZM57.83,72.48c.45,0,.9.15,1.26.44.5.4.77,1.01.74,1.65,0,.11-.02.21-.03.31,0,1.16.37,2.36,1.1,3.54.34.55.39,1.24.14,1.84-.26.6-.79,1.04-1.42,1.17-5.42,1.16-9.21,4.04-9.21,7,0,4.03,6.77,7.56,14.5,7.56,8.58,0,14.42-3.87,14.49-7.49.02-1.1.9-2.02,2.04-1.96,11.69,0,21.57-5.35,21.57-11.67,0-3.49-3.15-6.92-8.43-9.17-.74-.31-1.22-1.04-1.22-1.84v-27.91l-52.77,14.04v27.01l16.74-4.45c.17-.05.34-.07.51-.07Z"/>
        </g>
        <path class="cls-3" d="M67.97,73.79c-.89,0-1.7-.6-1.93-1.5-.28-1.07.36-2.16,1.43-2.44l16.27-4.23c1.07-.28,2.16.36,2.44,1.43s-.36,2.16-1.43,2.44l-16.27,4.23c-.17.04-.34.06-.5.06Z"/>
      </g>
    </g>
  </g>
</svg>