<svg xmlns="http://www.w3.org/2000/svg" id="flatten_icons" data-name="flatten icons" viewBox="0 0 112 112"><defs><style>.cls-3,.cls-4,.cls-5,.cls-6{stroke-width:0}.cls-3{fill:#d6c47c}.cls-4{fill:#e5c851}.cls-5{fill:#eae8da}.cls-6{fill:#004241}</style></defs><g id="biere"><path d="M0 0h112v112H0z" style="fill:none;stroke-width:0"/><path d="M18.57 23.27h59.56v72.77c0 5.5-4.46 9.96-9.96 9.96H28.53c-5.5 0-9.96-4.46-9.96-9.96z" class="cls-4"/><path d="M68.17 108H28.53c-6.6 0-11.96-5.37-11.96-11.96V23.27c0-1.1.9-2 2-2h59.56c1.1 0 2 .9 2 2v72.77c0 6.6-5.37 11.96-11.96 11.96m-47.6-82.73v70.77c0 4.39 3.57 7.96 7.96 7.96h39.64c4.39 0 7.96-3.57 7.96-7.96V25.27z" class="cls-6"/><path d="M79.38 88.39h8.08c5.93 0 10.73-4.81 10.73-10.73V50.95c0-5.93-4.81-10.73-10.73-10.73h-9.33v7.34h8.82c2.2 0 3.98 1.78 3.98 3.98v25.82c0 2.2-1.78 3.98-3.98 3.98h-8.82v7.08h1.24Z" class="cls-4"/><path d="M87.46 90.39h-9.33c-1.1 0-2-.9-2-2v-7.08c0-1.1.9-2 2-2h8.82c1.09 0 1.98-.89 1.98-1.98V51.51c0-1.09-.89-1.98-1.98-1.98h-8.82c-1.1 0-2-.9-2-2V40.2c0-1.1.9-2 2-2h9.33c7.02 0 12.73 5.71 12.73 12.73v26.71c0 7.02-5.71 12.73-12.73 12.73Zm-7.33-4h7.33c4.82 0 8.73-3.92 8.73-8.73V50.95c0-4.82-3.92-8.73-8.73-8.73h-7.33v3.33h6.82c3.3 0 5.98 2.68 5.98 5.98v25.82c0 3.3-2.68 5.98-5.98 5.98h-6.82v3.08Z" class="cls-6"/><path d="M70.65 64.11v27.21c0 3.24-2.63 5.87-5.87 5.87H38.4c-1.85 0-3.28-1.62-3.05-3.46 1.06-8.53 6.29-30.07 31.88-32.68 1.83-.19 3.43 1.22 3.43 3.06Z" class="cls-5"/><path d="M32.37 90.39c-1.1 0-2-.9-2-2V64.3c0-1.1.9-2 2-2s2 .9 2 2v24.09c0 1.1-.9 2-2 2m0-35.04c-1.1 0-2-.9-2-2v-4.91c0-1.1.9-2 2-2s2 .9 2 2v4.91c0 1.1-.9 2-2 2m15.98 35.04c-1.1 0-2-.9-2-2V48.44c0-1.1.9-2 2-2s2 .9 2 2v39.95c0 1.1-.9 2-2 2m14.89 0c-1.1 0-2-.9-2-2V48.44c0-1.1.9-2 2-2s2 .9 2 2v39.95c0 1.1-.9 2-2 2" style="stroke-width:0;fill:#966d2a"/><path d="M79.75 18.53c0-4.05-3.7-7.34-8.26-7.34-3.09 0-5.78 1.51-7.19 3.75-1.75-2.26-4.68-3.75-8-3.75-1.51 0-2.94.32-4.22.87C49.97 8.46 45.75 6 40.87 6c-5.23 0-9.72 2.83-11.64 6.85-1.6-1.04-3.58-1.66-5.71-1.66-5.37 0-9.72 3.87-9.72 8.64 0 3.16 1.91 5.91 4.76 7.42v8.03h13.02c2.37 0 4.7-.52 6.91-1.37 3.74-1.45 7.87-1.61 11.72-.45l.51.15c3.6 1.09 7.45 1.02 11.02-.19l.97-.33c2.8-.95 5.79-1.2 8.71-.73l6.71 1.1v-7.58c0-1.52.28-3.02.86-4.42.39-.94.76-2.06.76-2.93" class="cls-5"/><path d="M31.59 37.28H18.57c-1.1 0-2-.9-2-2v-6.9c-2.96-1.99-4.76-5.17-4.76-8.55 0-5.86 5.26-10.64 11.71-10.64 1.73 0 3.41.34 4.95 1C31.12 6.37 35.78 4 40.87 4c4.83 0 9.28 2.13 12 5.66 1.11-.31 2.26-.47 3.43-.47 2.95 0 5.76 1.01 7.9 2.78 1.9-1.75 4.53-2.78 7.3-2.78 5.65 0 10.26 4.19 10.26 9.34 0 1-.3 2.21-.91 3.69a9.6 9.6 0 0 0-.71 3.66v7.58c0 .59-.26 1.14-.7 1.52-.45.38-1.04.55-1.62.45l-6.71-1.1c-2.59-.42-5.27-.2-7.75.65l-.97.33a19.9 19.9 0 0 1-12.24.22l-.51-.15c-3.4-1.03-7.1-.88-10.42.4-2.58 1-5.15 1.51-7.63 1.51Zm-11.02-4h11.02c1.98 0 4.06-.42 6.18-1.24 4.14-1.6 8.76-1.78 13.02-.5l.5.15c3.22.97 6.61.91 9.79-.17l.97-.33c3.1-1.06 6.45-1.34 9.68-.81l4.39.72v-5.22c0-1.82.34-3.56 1.01-5.19.56-1.36.61-2 .61-2.16 0-2.94-2.81-5.34-6.26-5.34-2.3 0-4.41 1.08-5.5 2.82a2.012 2.012 0 0 1-3.28.16c-1.44-1.86-3.84-2.97-6.42-2.97-1.19 0-2.34.24-3.43.7-.93.4-2.01.04-2.52-.83C48.5 9.95 44.87 8 40.85 8c-4.32 0-8.18 2.24-9.83 5.71-.25.52-.71.91-1.26 1.06-.55.16-1.15.07-1.63-.25-1.35-.88-2.95-1.34-4.63-1.34-4.25 0-7.71 2.98-7.71 6.64 0 2.31 1.38 4.43 3.7 5.65.66.35 1.07 1.03 1.07 1.77v6.03Z" class="cls-6"/><circle cx="32.8" cy="22.92" r="2.28" class="cls-3"/><circle cx="44.17" cy="17.13" r="2.28" class="cls-3"/><circle cx="60.35" cy="25.19" r="2.28" class="cls-3"/></g></svg>