<svg xmlns="http://www.w3.org/2000/svg" id="flatten_icons" viewBox="0 0 112 112"><defs><style>.cls-2{fill:#f2d39c}.cls-5{fill:#eac781}.cls-7{fill:#004241}.cls-9{fill:#f9eaac}</style></defs><g id="ble"><path d="M0 0h112v112H0z" style="fill:none"/><path d="M90.19 25.34c-3.55 4.03-10.92 3.35-10.92 3.35s-1.61-7.22 1.94-11.25 10.92-3.35 10.92-3.35 1.61 7.22-1.94 11.25" style="fill:#f9ddb4"/><path d="M80.49 30.73c-.8 0-1.32-.04-1.4-.05a2.01 2.01 0 0 1-1.77-1.56c-.07-.33-1.79-8.26 2.39-13.01 4.18-4.74 12.26-4.05 12.6-4.02.86.08 1.58.71 1.77 1.56.07.33 1.79 8.26-2.39 13.01-3.18 3.61-8.64 4.07-11.21 4.07Zm9.91-14.68c-2.3.07-5.85.63-7.69 2.71-1.84 2.09-1.94 5.68-1.72 7.97 2.3-.07 5.85-.62 7.7-2.71 1.95-2.21 1.91-5.9 1.71-7.97m-.21 9.29" class="cls-7"/><path d="M78.08 26.35c.75 5.32-4.56 10.47-4.56 10.47s-6.53-3.47-7.29-8.79 4.56-10.47 4.56-10.47 6.53 3.47 7.29 8.79" style="fill:#f4d7a8"/><path d="M73.52 38.81c-.32 0-.64-.08-.94-.23-.3-.16-7.44-4.02-8.33-10.28-.89-6.25 4.9-11.94 5.15-12.18a2 2 0 0 1 2.33-.33c.3.16 7.44 4.02 8.33 10.28.89 6.25-4.9 11.94-5.15 12.18-.38.37-.88.56-1.39.56m-2.36-18.66c-1.44 1.79-3.33 4.84-2.94 7.6s3.06 5.17 4.94 6.49c1.44-1.79 3.33-4.84 2.94-7.6-.41-2.91-3.24-5.29-4.95-6.48Z" class="cls-7"/><path d="M82.58 29.73c-5.32.75-8.8 7.28-8.8 7.28s5.15 5.31 10.47 4.56 8.8-7.28 8.8-7.28-5.15-5.31-10.47-4.56" class="cls-5"/><path d="M83.22 43.64c-5.72 0-10.64-5-10.87-5.23-.6-.62-.74-1.57-.33-2.33.16-.3 4.03-7.44 10.28-8.32 6.26-.88 11.95 4.9 12.19 5.14.6.62.74 1.57.33 2.33-.16.3-4.03 7.44-10.28 8.32-.44.06-.89.09-1.32.09m-6.85-6.99c1.79 1.44 4.85 3.33 7.61 2.94s5.18-3.05 6.49-4.93c-1.79-1.44-4.85-3.33-7.61-2.94s-5.18 3.05-6.49 4.93m6.21-6.92" class="cls-7"/><path d="M86.59 75.93c-3.27 3.27-4.57 7.85-5.07 11.47-.45 3.22 2.3 5.97 5.53 5.52 3.62-.5 8.21-1.8 11.48-5.07s4.57-7.85 5.07-11.47c.45-3.22-2.3-5.97-5.53-5.52-3.62.5-8.21 1.8-11.48 5.07" class="cls-5"/><path d="M86.34 94.96c-1.82 0-3.55-.71-4.86-2.02a6.83 6.83 0 0 1-1.95-5.82c.51-3.69 1.9-8.87 5.64-12.61 3.74-3.73 8.92-5.13 12.62-5.64 2.16-.3 4.29.41 5.83 1.96a6.83 6.83 0 0 1 1.95 5.82c-.51 3.69-1.9 8.87-5.64 12.61-3.74 3.73-8.92 5.13-12.62 5.64-.32.04-.65.07-.97.07Zm12.4-22.15c-.14 0-.27 0-.41.03-3.09.43-7.39 1.55-10.34 4.5s-4.08 7.24-4.51 10.33c-.13.91.17 1.8.82 2.45s1.54.95 2.45.82c3.09-.43 7.38-1.55 10.34-4.5 2.95-2.95 4.08-7.24 4.51-10.33.13-.91-.17-1.8-.82-2.45-.55-.55-1.28-.85-2.04-.85m-12.15 3.12" class="cls-7"/><path d="M69.97 37.88c1.35 5.2-3.34 10.92-3.34 10.92s-6.89-2.71-8.24-7.9 3.34-10.92 3.34-10.92 6.89 2.71 8.24 7.9" class="cls-2"/><path d="M66.64 50.8c-.25 0-.49-.04-.73-.14-.32-.13-7.85-3.15-9.45-9.26-1.59-6.11 3.51-12.42 3.73-12.69.55-.67 1.47-.91 2.28-.59.32.13 7.85 3.15 9.45 9.26 1.59 6.11-3.51 12.42-3.73 12.69-.39.47-.96.73-1.55.73m-4.25-18.3c-1.23 1.94-2.76 5.19-2.06 7.89s3.62 4.79 5.65 5.89c1.23-1.94 2.76-5.19 2.06-7.89-.7-2.69-3.62-4.79-5.65-5.88Z" class="cls-7"/><path d="M74.83 40.73c-5.2 1.35-7.91 8.23-7.91 8.23s5.72 4.69 10.93 3.33 7.91-8.23 7.91-8.23-5.72-4.69-10.93-3.33" class="cls-5"/><path d="M75.88 54.54c-5.24 0-10-3.84-10.23-4.03-.67-.55-.91-1.47-.59-2.28.13-.32 3.15-7.85 9.27-9.44s12.43 3.5 12.7 3.72c.67.55.91 1.47.59 2.28-.13.32-3.15 7.85-9.27 9.44-.82.21-1.65.31-2.47.31m-6.44-6.23c1.94 1.23 5.2 2.76 7.9 2.06s4.79-3.62 5.89-5.64c-1.94-1.23-5.2-2.75-7.9-2.06-2.7.7-4.79 3.62-5.89 5.64" class="cls-7"/><path d="M64.35 51.54c1.59 5.13-2.84 11.05-2.84 11.05s-7-2.4-8.59-7.53 2.84-11.05 2.84-11.05 7 2.4 8.59 7.53" class="cls-2"/><path d="M61.51 64.59c-.22 0-.43-.04-.65-.11-.32-.11-7.98-2.8-9.85-8.83-1.87-6.04 2.95-12.57 3.15-12.84.52-.69 1.43-.97 2.25-.69.32.11 7.98 2.8 9.85 8.83 1.86 6.04-2.95 12.57-3.15 12.84-.39.51-.98.8-1.6.8M56.54 46.5c-1.14 1.99-2.52 5.31-1.7 7.97s3.84 4.62 5.91 5.63c1.14-1.99 2.52-5.31 1.7-7.97s-3.84-4.62-5.91-5.63" class="cls-7"/><path d="M69.33 54.17c-5.14 1.58-7.53 8.58-7.53 8.58s5.93 4.43 11.06 2.84 7.53-8.58 7.53-8.58-5.93-4.43-11.06-2.84" style="fill:#e0ba77"/><path d="M70.51 67.93c-5.05 0-9.68-3.41-9.91-3.58-.7-.52-.98-1.43-.7-2.25.11-.33 2.8-7.98 8.84-9.84 6.03-1.87 12.57 2.95 12.85 3.15.7.52.98 1.43.7 2.25-.11.33-2.8 7.98-8.84 9.84-.98.3-1.97.43-2.94.43m-6.21-5.95c2 1.14 5.31 2.52 7.97 1.7 2.81-.87 4.72-4.03 5.62-5.9-2-1.14-5.31-2.52-7.97-1.7-2.81.87-4.72 4.03-5.62 5.9m5.03-7.81" class="cls-7"/><path d="M58.49 64.27c2.2 4.9-1.48 11.32-1.48 11.32s-7.24-1.53-9.44-6.43 1.48-11.32 1.48-11.32 7.24 1.53 9.44 6.43" class="cls-2"/><path d="M57.01 77.59c-.14 0-.28-.01-.41-.04-.34-.07-8.27-1.81-10.85-7.57s1.4-12.83 1.57-13.13c.43-.75 1.3-1.14 2.15-.96.34.07 8.26 1.81 10.85 7.57 2.58 5.76-1.4 12.83-1.57 13.13-.36.63-1.03 1-1.73 1Zm-6.89-17.37c-.89 2.12-1.86 5.58-.72 8.12s4.37 4.12 6.55 4.87c.89-2.12 1.86-5.58.72-8.12s-4.37-4.13-6.55-4.87" class="cls-7"/><path d="M63.75 66.28c-4.91 2.19-6.44 9.43-6.44 9.43s6.42 3.68 11.33 1.48 6.44-9.43 6.44-9.43-6.42-3.68-11.33-1.48" style="fill:#ddb876"/><path d="M65.13 79.88c-4.48 0-8.58-2.31-8.81-2.44-.75-.43-1.14-1.3-.96-2.15.07-.34 1.81-8.26 7.58-10.84s12.84 1.4 13.14 1.57c.75.43 1.14 1.3.96 2.15-.07.34-1.81 8.26-7.58 10.84-1.4.63-2.89.87-4.33.87m-5.44-5.24c2.12.89 5.58 1.86 8.13.72 2.54-1.14 4.13-4.36 4.87-6.54-2.12-.89-5.58-1.86-8.13-.72-2.54 1.14-4.13 4.36-4.87 6.54" class="cls-7"/><path d="M89.14 84.38s2.26-4.64 13.85-11.1" class="cls-9"/><path d="M89.13 86.37c-.3 0-.61-.07-.89-.21a1.98 1.98 0 0 1-.9-2.64c.26-.53 2.87-5.4 14.68-11.98a2 2 0 0 1 1.95 3.49C93.3 80.98 90.95 85.25 90.93 85.29c-.36.68-1.06 1.08-1.79 1.08Z" class="cls-7"/><path d="M33.26 17.57c-2.97-3.54-7.43-5.24-10.99-6.05-3.17-.73-6.15 1.77-5.99 5.02.18 3.65 1.08 8.33 4.05 11.87s7.43 5.24 10.99 6.05c3.17.73 6.15-1.77 5.99-5.02-.18-3.65-1.08-8.33-4.05-11.87" class="cls-5"/><path d="M32.44 36.58q-.78 0-1.56-.18c-3.63-.83-8.68-2.67-12.08-6.71-3.4-4.05-4.33-9.33-4.52-13.05a6.86 6.86 0 0 1 2.45-5.63 6.85 6.85 0 0 1 5.98-1.44c3.64.83 8.68 2.67 12.08 6.72s4.33 9.33 4.52 13.05a6.86 6.86 0 0 1-2.45 5.63 6.82 6.82 0 0 1-4.41 1.62ZM21.17 13.39c-.67 0-1.33.23-1.86.68a2.87 2.87 0 0 0-1.03 2.37c.16 3.11.9 7.48 3.59 10.68 2.68 3.2 6.87 4.69 9.9 5.39.9.21 1.81-.01 2.52-.6a2.87 2.87 0 0 0 1.03-2.37c-.16-3.11-.9-7.48-3.59-10.68-2.68-3.2-6.87-4.69-9.9-5.39-.22-.05-.44-.07-.66-.07Z" class="cls-7"/><path d="M24.61 19.37s4.43 2.65 9.86 14.76" class="cls-9"/><path d="M34.47 36.13c-.76 0-1.49-.44-1.83-1.18-5-11.14-9.05-13.85-9.09-13.88-.92-.59-1.2-1.82-.63-2.75s1.77-1.23 2.71-.67c.51.3 5.13 3.33 10.66 15.66.45 1.01 0 2.19-1.01 2.64-.27.12-.54.18-.82.18Z" class="cls-7"/><path d="M22.32 92.41c4.41 1.4 9.08.45 12.52-.76 3.07-1.08 4.25-4.79 2.37-7.44-2.11-2.98-5.37-6.45-9.78-7.86-4.41-1.4-9.08-.45-12.52.76-3.07 1.08-4.25 4.79-2.37 7.44 2.11 2.98 5.37 6.45 9.78 7.86" class="cls-5"/><path d="M27.01 95.11c-1.74 0-3.53-.22-5.3-.79-5.03-1.6-8.66-5.56-10.81-8.61a6.84 6.84 0 0 1-.94-6.07 6.84 6.84 0 0 1 4.28-4.41c3.52-1.24 8.76-2.38 13.8-.79 5.04 1.6 8.66 5.56 10.81 8.61 1.26 1.78 1.6 3.99.94 6.07a6.82 6.82 0 0 1-4.28 4.41c-2.28.81-5.29 1.57-8.5 1.57Zm-4.09-4.6c3.98 1.26 8.31.29 11.25-.74.87-.31 1.52-.98 1.8-1.85s.13-1.8-.4-2.55c-1.8-2.54-4.77-5.84-8.75-7.1-3.98-1.27-8.31-.29-11.25.74-.87.31-1.52.98-1.8 1.85s-.13 1.8.4 2.55c1.8 2.54 4.77 5.84 8.75 7.1" class="cls-7"/><path d="M36.17 88.56s-5.51 1.67-16.58-5.65" class="cls-9"/><path d="M34.54 90.73c-2.79 0-8.14-.92-16.05-6.16a1.998 1.998 0 1 1 2.21-3.33c9.91 6.55 14.9 5.41 14.94 5.4 1.05-.27 2.15.35 2.44 1.4s-.28 2.13-1.32 2.44c-.21.06-.95.25-2.22.25m15.9 18.66c-.1 0-.2 0-.31-.02a2 2 0 0 1-1.67-2.28c8.23-53.74 28.42-78.64 29.28-79.67.7-.85 1.96-.97 2.81-.27s.97 1.96.27 2.81c-.2.25-20.36 25.2-28.4 77.73-.15.99-1 1.7-1.97 1.7Z" class="cls-7"/></g></svg>