<?xml version="1.0" encoding="UTF-8"?>
<svg id="flatten_icons" data-name="flatten icons" xmlns="http://www.w3.org/2000/svg" viewBox="0 0 112 112">
  <defs>
    <style>
      .cls-1 {
        fill: none;
      }

      .cls-1, .cls-2, .cls-3, .cls-4, .cls-5, .cls-6, .cls-7 {
        stroke-width: 0px;
      }

      .cls-2 {
        fill: #f2efdf;
      }

      .cls-3 {
        fill: #46894e;
      }

      .cls-4 {
        fill: #579660;
      }

      .cls-5 {
        fill: #64a35d;
      }

      .cls-6 {
        fill: #e5dfc6;
      }

      .cls-7 {
        fill: #004241;
      }
    </style>
  </defs>
  <rect class="cls-1" width="112" height="112"/>
  <g>
    <g>
      <path class="cls-3" d="m62.74,86.03s9.95-1.9,9.95-4.76-.54-10.96,4.71-11.01,14-12.14,13.51-17.99-6.4-17.08-6.4-17.08c0,0,13.39-1.52,13.39-8.54s-4.66-17.13-17.58-16.59c-12.93.55-27.13,16.59-27.13,16.59l-.81,59.39h10.36Z"/>
      <path class="cls-7" d="m62.74,88.03h-10.36c-.54,0-1.05-.21-1.42-.6s-.58-.9-.58-1.43l.81-59.39c0-.48.19-.94.5-1.3.6-.68,14.92-16.68,28.55-17.26,5.62-.25,10.45,1.42,13.96,4.78,3.57,3.42,5.71,8.58,5.71,13.8,0,6.54-7.95,9.13-12.39,10.07,1.81,3.75,5.02,10.9,5.39,15.4.36,4.4-3.3,10.93-7.1,15.1-2.09,2.29-5.24,5.03-8.38,5.06-.58,0-1,.17-1.34.52-1.48,1.51-1.42,5.71-1.4,7.73v.77c0,3.73-6.29,5.72-11.57,6.73-.12.02-.25.04-.38.04Zm-8.33-4h8.14c3.66-.72,7.41-2.09,8.14-2.96v-.52c-.04-2.95-.1-7.88,2.53-10.58,1.09-1.11,2.53-1.71,4.16-1.72.95,0,2.95-1,5.47-3.75,3.57-3.92,6.3-9.33,6.07-12.07-.37-4.46-4.58-13.29-6.17-16.32-.31-.58-.31-1.28,0-1.87.31-.58.88-.98,1.54-1.05,3.01-.35,11.62-2.3,11.62-6.55,0-3.2-1.18-7.75-4.47-10.92-2.74-2.63-6.45-3.86-11.03-3.67-10.66.45-22.67,12.65-25.23,15.38l-.77,56.6Z"/>
    </g>
    <g>
      <path class="cls-6" d="m61.66,103.43s7.44-10.95,7.13-19.09-9.49-15.12-9.49-15.12l-4.07,14.43,6.43,19.77Z"/>
      <path class="cls-7" d="m61.66,105.43c-.09,0-.19,0-.28-.02-.76-.11-1.38-.64-1.62-1.36l-6.43-19.77c-.12-.38-.13-.78-.02-1.16l4.07-14.43c.18-.64.66-1.14,1.29-1.35.63-.21,1.32-.1,1.85.31.41.31,9.93,7.66,10.27,16.63.34,8.69-7.15,19.82-7.47,20.29-.38.55-1,.88-1.65.88Zm-4.34-21.82l4.88,15.03c2.05-3.72,4.76-9.57,4.58-14.22-.18-4.69-3.91-9.12-6.43-11.58l-3.04,10.78Z"/>
    </g>
    <g>
      <path class="cls-4" d="m59.39,90.22s3.46-10.49,6.63-11.55,3.95-8.45,11.86-15.3c7.91-6.85,14.76-15.89,12.65-27.32-2.11-11.42-2.9-10.11-3.95-21.44s-5.54-11.86-15.29-11.6-19.83.53-22.17,8.17-2.46,55.88-2.46,55.88l5.72,29.51,7.01-6.36Z"/>
      <path class="cls-7" d="m52.38,98.58c-.21,0-.42-.03-.63-.1-.69-.23-1.19-.81-1.33-1.52l-5.72-29.51c-.02-.13-.04-.26-.04-.39,0-1.98.15-48.62,2.54-56.46C49.96,1.59,61.24,1.29,71.2,1.02c9.99-.28,16.14.23,17.37,13.41.63,6.77,1.15,8.88,1.94,12.09.51,2.08,1.15,4.66,1.98,9.18,1.89,10.25-2.46,19.8-13.31,29.19-4.15,3.59-6.17,7.28-7.8,10.24-1.45,2.64-2.6,4.73-4.74,5.44-1.17.44-3.73,5.34-5.36,10.28-.11.33-.3.62-.55.85l-7.01,6.36c-.37.34-.85.52-1.34.52Zm-3.72-31.7l5.01,25.83,3.99-3.62c1.25-3.67,4.18-11.13,7.72-12.32.65-.22,1.59-1.92,2.5-3.57,1.69-3.07,4-7.28,8.69-11.34,9.68-8.38,13.61-16.71,11.99-25.44-.81-4.4-1.43-6.92-1.93-8.94-.81-3.26-1.39-5.61-2.04-12.68-.9-9.69-3.69-10.04-13.24-9.78-11.13.3-18.53.93-20.32,6.76-1.84,6.01-2.33,41.62-2.37,55.11Zm10.73,23.34h0,0Z"/>
    </g>
    <path class="cls-2" d="m62.74,45.47c-.27,0-.55-.06-.81-.17-1.01-.45-1.46-1.63-1.01-2.64,3.89-8.73,7.91-18.89,7.91-20.77,0-1.1.9-2,2-2s2,.9,2,2c0,3.57-6.32,18.04-8.25,22.39-.33.74-1.06,1.19-1.83,1.19Z"/>
    <g>
      <path class="cls-2" d="m54.81,110s5.54.28,6.85-6.57c1.32-6.85,1.06-13.81,1.06-13.81,0,0-1.07-23.42-5.98-15.77-4.91,7.65-6,24.57-6,24.57l4.07,11.58Z"/>
      <path class="cls-7" d="m54.99,112c-.1,0-.2,0-.29,0-.81-.04-1.52-.57-1.78-1.33l-4.07-11.58c-.09-.25-.13-.52-.11-.79.05-.71,1.19-17.52,6.31-25.52,1.59-2.47,3.21-2.65,4.3-2.36,3.01.81,4.82,7.24,5.36,19.11.01.31.25,7.28-1.09,14.28-1.25,6.52-6.03,8.2-8.63,8.2Zm-2.23-13.85l3.39,9.64c1.21-.39,2.93-1.53,3.54-4.74,1.26-6.53,1.03-13.29,1.03-13.36-.29-6.28-1.28-12.6-2.25-14.83-.02.02-.03.05-.05.07-4.17,6.5-5.46,20.66-5.66,23.22Z"/>
    </g>
    <path class="cls-2" d="m59.3,67.99c-.35,0-.7-.09-1.01-.28-.95-.56-1.27-1.79-.71-2.74.17-.29,4.34-7.26,12.24-11.84,6.31-3.66,5.56-12.91,5.55-13-.1-1.1.71-2.07,1.81-2.17,1.1-.1,2.07.7,2.17,1.8.05.48,1.02,11.88-7.53,16.84-7,4.06-10.76,10.34-10.8,10.41-.37.63-1.04.98-1.72.98Z"/>
    <g>
      <path class="cls-5" d="m43.01,88.74s-7.14-.56-7.15-3.39,1.78-6.25-1.31-9.22c-3.09-2.97-13.7-18.38-14.97-27.41-.94-6.72-6.08-10.82-5.42-18.42.23-2.62,1.25-9.96,5.06-11.48C22.83,9.1,31.88,1.3,37.47,2.05s12.2,4.04,19.34,8.42,9.11,10.2,9.91,26.81c.8,16.61-3.83,19.18-4.33,26.54-.5,7.37,2.5,9.42-3.52,13.17-2.45,1.52-3.39,4.12-3.63,6.67-.37,3.81-3.87,6.51-7.64,5.87l-4.58-.78Z"/>
      <path class="cls-7" d="m48.68,91.62c-.48,0-.95-.04-1.43-.12l-4.49-.77c-2.21-.18-8.88-1.09-8.91-5.37,0-.9.13-1.79.27-2.65.36-2.34.5-3.74-.96-5.14-3.43-3.31-14.22-19.03-15.56-28.58-.35-2.52-1.4-4.68-2.5-6.97-1.65-3.42-3.36-6.96-2.93-11.9.27-3.12,1.34-10.29,5.47-12.74C21.66,7.35,31.08-.83,37.74.07c5.24.7,11.45,3.38,20.12,8.69,8.43,5.16,10.1,12.6,10.86,28.42.53,11.03-1.29,16.19-2.75,20.34-.77,2.17-1.43,4.05-1.59,6.43-.14,2.08.02,3.69.16,5.12.39,3.94.37,6.51-4.62,9.61-1.55.97-2.46,2.7-2.7,5.17-.23,2.38-1.45,4.57-3.34,6.02-1.5,1.14-3.34,1.76-5.2,1.76Zm-10.83-6.38c.51.6,3.07,1.34,5.31,1.52.06,0,.12.01.18.02l4.58.78c1.26.22,2.52-.09,3.53-.87,1.03-.78,1.66-1.93,1.79-3.22.36-3.71,1.94-6.54,4.57-8.18,3.13-1.95,3.06-2.69,2.75-5.82-.15-1.5-.33-3.37-.17-5.78.2-2.92.98-5.14,1.81-7.49,1.41-4.02,3.02-8.58,2.53-18.82-.78-16.14-2.62-21.32-8.96-25.2-8.06-4.94-13.96-7.52-18.56-8.14-4.45-.61-12.75,6.43-16.12,15.49-.2.53-.61.95-1.14,1.16-2.11.84-3.43,5.52-3.8,9.79-.33,3.85,1.06,6.75,2.55,9.81,1.19,2.46,2.42,5.01,2.86,8.15,1.18,8.4,11.39,23.37,14.38,26.25,3.03,2.91,2.52,6.22,2.14,8.63-.11.69-.21,1.35-.22,1.91Z"/>
    </g>
    <g>
      <path class="cls-2" d="m43.37,88.84c0,5.02,1.58,12.94,2.42,16.77.33,1.5,1.36,2.74,2.78,3.34,2.56,1.07,6.5,2.1,7.46-1.11,1.46-4.87,1.63-16.58-.8-22.43"/>
      <path class="cls-7" d="m52.86,112c-1.45,0-3.14-.4-5.06-1.2-2.02-.84-3.5-2.62-3.96-4.75-.92-4.22-2.46-12.07-2.46-17.2,0-1.1.9-2,2-2s2,.9,2,2c0,4.93,1.66,13.07,2.37,16.35.19.86.78,1.58,1.6,1.92,2.33.97,3.77,1.03,4.35.75.1-.05.29-.14.43-.6,1.33-4.44,1.53-15.65-.74-21.08-.42-1.02.06-2.19,1.08-2.62,1.02-.43,2.19.06,2.62,1.08,2.7,6.48,2.4,18.7.87,23.77-.42,1.42-1.31,2.48-2.55,3.07-.74.35-1.59.52-2.54.52Z"/>
    </g>
    <path class="cls-2" d="m46.64,75.85c-.56,0-1.11-.23-1.51-.69-.97-1.12-9.52-11.06-10.21-16.8-.13-1.1.65-2.09,1.75-2.22,1.1-.13,2.09.65,2.22,1.75.41,3.41,5.89,10.79,9.25,14.65.73.83.64,2.1-.19,2.82-.38.33-.85.49-1.31.49Z"/>
    <path class="cls-2" d="m48.29,64.65c-.88,0-1.68-.58-1.93-1.46-.02-.08-2.19-7.85-4.9-16.51-4.77-15.23-2.98-22.57-2.9-22.88.28-1.07,1.37-1.71,2.44-1.44,1.07.28,1.71,1.37,1.44,2.44-.01.05-1.53,6.72,2.84,20.68,2.73,8.72,4.92,16.55,4.94,16.63.3,1.06-.33,2.17-1.39,2.46-.18.05-.36.07-.54.07Z"/>
    <path class="cls-2" d="m43.37,48.08c-.34,0-.68-.08-.99-.27-.96-.55-1.29-1.77-.74-2.73,4.58-7.96,4.65-16.05,4.66-16.13,0-1.1.9-2,2-2h0c1.1,0,2,.89,2,2,0,.37-.06,9.2-5.19,18.12-.37.64-1.04,1-1.74,1Z"/>
    <path class="cls-2" d="m46.64,62.88c-.07,0-.14,0-.21-.01-1.1-.11-1.89-1.09-1.79-2.18.03-.31.51-6.95-6.9-10.48-10.01-4.76-9.61-11.41-9.59-11.69.08-1.1,1.04-1.92,2.15-1.84,1.1.08,1.93,1.05,1.84,2.15,0,.13-.03,4.27,7.32,7.77,10.04,4.78,9.21,14.09,9.17,14.49-.11,1.03-.97,1.8-1.99,1.8Z"/>
    <path class="cls-2" d="m48.29,69.01c-1.08,0-1.97-.86-2-1.94-.03-1.15-.26-11.4,1.86-15.74,1.85-3.79,3.09-8.33,3.1-8.38.29-1.07,1.38-1.7,2.45-1.41,1.07.29,1.7,1.38,1.41,2.45-.05.2-1.34,4.95-3.37,9.1-1.43,2.93-1.54,11-1.46,13.87.03,1.1-.84,2.02-1.94,2.06-.02,0-.04,0-.06,0Z"/>
    <path class="cls-2" d="m47.35,103.43s-3.53-15.2-3.12-21.04,0-23.56,0-23.56c0,0-.45-4.33-.86-5.85s5.88,4.79,6.58,10.64c.7,5.85.66,13.37,2.66,18.76s-.24,20.74-.24,20.74c0,0-.88,4.4-5.03.32Z"/>
  </g>
</svg>