<?xml version="1.0" encoding="UTF-8"?>
<svg id="flatten_icons" xmlns="http://www.w3.org/2000/svg" viewBox="0 0 112 112">
  <defs>
    <style>
      .cls-1 {
        fill: none;
      }

      .cls-2 {
        fill: #af8977;
      }

      .cls-3 {
        fill: #d3b7ab;
      }

      .cls-4 {
        fill: #ceaa9b;
      }

      .cls-5 {
        fill: #c17667;
      }

      .cls-6 {
        fill: #c4a79b;
      }

      .cls-7 {
        fill: #004241;
      }
    </style>
  </defs>
  <g id="boeuf">
    <g>
      <polygon class="cls-6" points="47.11 100.32 33.41 100.32 32.13 70.49 47.11 70.49 47.11 100.32"/>
      <path class="cls-7" d="M47.11,102.32h-13.71c-1.07,0-1.95-.84-2-1.91l-1.28-29.84c-.02-.54.18-1.08.55-1.47.38-.39.9-.62,1.44-.62h14.99c1.1,0,2,.9,2,2v29.84c0,1.1-.9,2-2,2ZM35.33,98.32h9.79v-25.84h-10.9l1.11,25.84Z"/>
    </g>
    <g>
      <polygon class="cls-6" points="93.09 100.32 79.38 100.32 78.1 70.49 93.09 70.49 93.09 100.32"/>
      <path class="cls-7" d="M93.09,102.32h-13.71c-1.07,0-1.95-.84-2-1.91l-1.28-29.84c-.02-.54.18-1.08.55-1.47.38-.39.9-.62,1.44-.62h14.99c1.1,0,2,.9,2,2v29.84c0,1.1-.9,2-2,2ZM81.3,98.32h9.79v-25.84h-10.9l1.11,25.84Z"/>
    </g>
    <g>
      <path class="cls-2" d="M80.55,37.92h-23.5c-3.54-2.73-16-7.5-21.66-7.5-10.7,0-12,9.18-12,16.75,0,.18.03.35.04.53-.62,1.7-.96,3.58-.96,5.55,0,5.94,3.09,11.01,7.46,13.09,1.77,4.78,5.55,8.59,10.32,10.38l1,23.59h8.8l.94-22.45h28.31c2.02,2.41,4.9,3.98,8.06,4.33l.71,18.12h8.8l1.28-28.9v-15.9c0-9.72-7.88-17.61-17.61-17.61Z"/>
      <path class="cls-7" d="M96.88,102.32h-8.8c-1.07,0-1.96-.85-2-1.92l-.65-16.51c-2.67-.63-5.1-2.02-7.02-4.02h-25.5l-.86,20.54c-.04,1.07-.93,1.92-2,1.92h-8.8c-1.07,0-1.95-.84-2-1.92l-.95-22.32c-4.5-2.05-8.05-5.73-9.96-10.31-4.81-2.66-7.88-8.27-7.88-14.52,0-2,.31-3.95.93-5.81,0-.09,0-.18,0-.27,0-4.64,0-18.75,14-18.75,5.96,0,17.99,4.61,22.3,7.5h22.86c10.81,0,19.61,8.8,19.61,19.61v15.9l-1.28,28.99c-.05,1.07-.93,1.91-2,1.91ZM90,98.32h4.96l1.2-26.99v-15.81c0-8.61-7-15.61-15.61-15.61h-23.5c-.44,0-.87-.15-1.22-.42-3.19-2.46-15.14-7.09-20.44-7.09-7.1,0-10,4.27-10,14.75v.13c.02.1.03.19.03.29.01.27-.02.54-.12.79-.56,1.54-.84,3.18-.84,4.87,0,4.95,2.54,9.49,6.32,11.28.47.22.84.62,1.02,1.11,1.57,4.25,4.91,7.61,9.15,9.21.75.28,1.26.99,1.29,1.79l.92,21.68h4.96l.86-20.54c.04-1.07.93-1.92,2-1.92h28.31c.59,0,1.15.26,1.53.71,1.72,2.05,4.12,3.34,6.75,3.63.98.11,1.74.92,1.78,1.91l.64,16.2Z"/>
    </g>
    <g>
      <g>
        <g>
          <path class="cls-3" d="M16.43,21.9s-10.27,1.2-11.59,6.8c0,0,7.09,3.67,11.59,2.38"/>
          <path class="cls-7" d="M14.26,33.36c-4.63,0-9.68-2.54-10.35-2.88-.81-.42-1.24-1.34-1.03-2.24,1.6-6.77,12.11-8.19,13.31-8.33,1.1-.13,2.09.66,2.22,1.75.13,1.1-.66,2.09-1.75,2.22h0c-1.96.23-7.13,1.39-9.14,3.84,2.38.98,6.02,2.1,8.36,1.43,1.06-.3,2.17.31,2.47,1.37.3,1.06-.31,2.17-1.37,2.47-.86.25-1.78.35-2.72.35Z"/>
        </g>
        <g>
          <path class="cls-3" d="M41.26,30.83s6.6-.25,11.72-2.25c0,0-4.21-7.6-9.74-7.14"/>
          <path class="cls-7" d="M41.26,32.83c-1.07,0-1.96-.85-2-1.92-.04-1.1.82-2.03,1.92-2.08.05,0,4.45-.19,8.66-1.33-1.55-1.98-3.96-4.26-6.44-4.07-1.1.09-2.07-.73-2.16-1.83-.09-1.1.73-2.07,1.83-2.16,6.75-.56,11.46,7.8,11.66,8.16.28.5.33,1.11.13,1.65s-.62.97-1.15,1.18c-5.37,2.1-12.08,2.38-12.37,2.39-.03,0-.05,0-.08,0Z"/>
        </g>
        <g>
          <path class="cls-2" d="M34.47,53.31h-11.25c-2.34,0-4.23-1.89-4.23-4.23l-2.56-27.18h24.83l-2.56,27.18c0,2.34-1.89,4.23-4.23,4.23Z"/>
          <path class="cls-7" d="M34.47,55.31h-11.25c-3.4,0-6.17-2.74-6.23-6.13l-2.55-27.09c-.05-.56.13-1.12.51-1.53.38-.42.92-.65,1.48-.65h24.83c.56,0,1.1.24,1.48.65.38.42.56.97.51,1.53l-2.55,27.09c-.06,3.39-2.83,6.13-6.23,6.13ZM18.63,23.9l2.35,24.99c0,.06,0,.12,0,.19,0,1.23,1,2.23,2.23,2.23h11.25c1.23,0,2.23-1,2.23-2.23,0-.06,0-.12,0-.19l2.35-24.99h-20.43Z"/>
        </g>
      </g>
      <g>
        <path class="cls-5" d="M17.54,40.09h22.61c1.27,0,2.31,1.03,2.31,2.31v7.61c0,1.82-1.48,3.3-3.3,3.3h-20.62c-1.82,0-3.3-1.48-3.3-3.3v-7.61c0-1.27,1.03-2.31,2.31-2.31Z"/>
        <path class="cls-7" d="M39.15,55.31h-20.62c-2.92,0-5.3-2.38-5.3-5.3v-7.61c0-2.38,1.93-4.31,4.31-4.31h22.61c2.38,0,4.31,1.93,4.31,4.31v7.61c0,2.92-2.38,5.3-5.3,5.3ZM17.54,42.09c-.17,0-.31.14-.31.31v7.61c0,.72.58,1.3,1.3,1.3h20.62c.72,0,1.3-.58,1.3-1.3v-7.61c0-.17-.14-.31-.31-.31h-22.61Z"/>
      </g>
    </g>
    <path class="cls-7" d="M107.65,55.26c-.9,0-1.72-.61-1.94-1.53-1.25-5.16-4.97-13.81-15.84-13.81h-9.31c-1.1,0-2-.9-2-2s.9-2,2-2h9.31c9.94,0,17.13,6.15,19.73,16.86.26,1.07-.4,2.15-1.47,2.42-.16.04-.32.06-.47.06Z"/>
    <path class="cls-7" d="M23.4,23.9c-2.84,0-5.21-.96-7.03-2.85-3.91-4.06-3.7-11.01-3.69-11.31.04-1.1.97-1.97,2.07-1.92,1.1.04,1.96.97,1.92,2.07,0,.11-.14,5.59,2.58,8.39,1.05,1.09,2.41,1.62,4.14,1.62,1.1,0,2,.9,2,2s-.9,2-2,2Z"/>
    <path class="cls-7" d="M34.33,23.9c-1.1,0-2-.9-2-2s.9-2,2-2c1.73,0,3.09-.53,4.14-1.62,2.73-2.82,2.58-8.34,2.58-8.39-.04-1.1.83-2.03,1.93-2.07,1.11.01,2.03.82,2.07,1.92.01.29.22,7.25-3.69,11.31-1.82,1.89-4.19,2.85-7.03,2.85Z"/>
    <g>
      <polyline class="cls-2" points="104.45 58.14 107.65 54.17 108.84 60.44"/>
      <path class="cls-7" d="M108.84,62.44c-.94,0-1.78-.67-1.96-1.63l-.38-2.02-.49.6c-.69.86-1.95,1-2.81.3-.86-.69-1-1.95-.3-2.81l3.2-3.97c.49-.61,1.29-.88,2.04-.69.76.19,1.33.8,1.48,1.57l1.19,6.27c.21,1.09-.51,2.13-1.59,2.34-.13.02-.25.04-.38.04Z"/>
    </g>
    <g>
      <path class="cls-6" d="M75.04,69.12s.83,5.92,4.26,8.75"/>
      <path class="cls-7" d="M79.3,79.87c-.45,0-.9-.15-1.27-.46-3.98-3.29-4.93-9.74-4.97-10.01-.15-1.09.61-2.11,1.7-2.26,1.09-.16,2.1.61,2.26,1.7.21,1.44,1.25,5.59,3.56,7.49.85.7.97,1.96.27,2.82-.4.48-.97.73-1.54.73Z"/>
    </g>
    <rect class="cls-1" width="112" height="112"/>
    <path class="cls-4" d="M89.65,58.16c-1.1,0-2-.9-2-2,0-4.43-3.6-8.03-8.03-8.03h-10.01c-1.1,0-2-.9-2-2s.9-2,2-2h10.01c6.63,0,12.03,5.4,12.03,12.03,0,1.1-.9,2-2,2Z"/>
  </g>
</svg>