<?xml version="1.0" encoding="UTF-8"?>
<svg id="flatten_icons" data-name="flatten icons" xmlns="http://www.w3.org/2000/svg" viewBox="0 0 112 112">
  <defs>
    <style>
      .cls-1 {
        fill: none;
      }

      .cls-1, .cls-2, .cls-3, .cls-4, .cls-5, .cls-6, .cls-7 {
        stroke-width: 0px;
      }

      .cls-2 {
        fill: #ddcfb8;
      }

      .cls-3 {
        fill: #dde6ed;
      }

      .cls-4 {
        fill: #ad7150;
      }

      .cls-5 {
        fill: #fff;
      }

      .cls-6 {
        fill: #eae8da;
      }

      .cls-7 {
        fill: #004241;
      }
    </style>
  </defs>
  <g id="cafe">
    <g>
      <g>
        <g>
          <path class="cls-5" d="m80.77,56.21h2.61c5.8,0,10.28,4.7,9.54,10.01h0c-.62,4.43-4.7,7.75-9.54,7.75h-6.95"/>
          <path class="cls-7" d="m83.38,75.97h-6.95c-1.1,0-2-.9-2-2s.9-2,2-2h6.95c3.83,0,7.08-2.59,7.56-6.03.25-1.84-.3-3.65-1.57-5.11-1.46-1.67-3.64-2.63-5.99-2.63h-2.61c-1.1,0-2-.9-2-2s.9-2,2-2h2.61c3.51,0,6.79,1.46,9.01,4.01,2.04,2.34,2.93,5.28,2.51,8.28-.75,5.4-5.7,9.48-11.52,9.48Z"/>
        </g>
        <g>
          <ellipse class="cls-3" cx="52.17" cy="88.62" rx="31.17" ry="15.38"/>
          <path class="cls-7" d="m52.17,106c-18.6,0-33.17-7.63-33.17-17.38s14.57-17.38,33.17-17.38,33.17,7.63,33.17,17.38-14.57,17.38-33.17,17.38Zm0-30.75c-15.81,0-29.17,6.12-29.17,13.38s13.36,13.38,29.17,13.38,29.17-6.12,29.17-13.38-13.36-13.38-29.17-13.38Z"/>
        </g>
        <g>
          <path class="cls-5" d="m72.94,85.38c8.74-14.71,8.3-34.39,8.3-34.39H23.1s-.43,19.68,8.3,34.39c7.18,11.46,34.4,11.19,41.54,0Z"/>
          <path class="cls-7" d="m52.03,95.88h-.16c-10.05-.04-18.54-3.65-22.16-9.43-8.95-15.07-8.63-34.67-8.61-35.5.02-1.09.91-1.96,2-1.96h58.15c1.09,0,1.98.87,2,1.96.02.83.34,20.43-8.58,35.46-.01.02-.02.04-.03.05-4.43,6.95-14.55,9.42-22.6,9.42Zm-26.9-42.89c.16,5.24,1.23,19.98,8,31.37,2.83,4.52,10.2,7.48,18.76,7.52.05,0,.1,0,.16,0,8.73,0,16.25-2.95,19.2-7.54,6.75-11.39,7.82-26.1,7.98-31.34H25.12Zm47.82,32.39h0,0Z"/>
        </g>
        <g>
          <ellipse class="cls-5" cx="52.17" cy="52.02" rx="29.08" ry="13.07"/>
          <path class="cls-7" d="m52.17,67.09c-17.43,0-31.08-6.62-31.08-15.07s13.65-15.07,31.08-15.07,31.08,6.62,31.08,15.07-13.65,15.07-31.08,15.07Zm0-26.15c-15.96,0-27.08,5.84-27.08,11.07s11.12,11.07,27.08,11.07,27.08-5.84,27.08-11.07-11.12-11.07-27.08-11.07Z"/>
        </g>
        <g>
          <path class="cls-4" d="m52.17,65.09c10.28,0,19.3-2.4,24.47-6.02-.46-7-11.24-12.61-24.47-12.61s-24.01,5.6-24.47,12.61c5.17,3.62,14.2,6.02,24.47,6.02Z"/>
          <path class="cls-7" d="m52.17,67.09c-10.33,0-19.91-2.38-25.62-6.38-.57-.4-.9-1.07-.85-1.77.54-8.25,11.92-14.48,26.47-14.48s25.92,6.22,26.47,14.48c.05.7-.28,1.37-.85,1.77-5.71,3.99-15.29,6.38-25.62,6.38Zm-22.29-8.98c5.17,3.13,13.37,4.98,22.29,4.98s17.12-1.85,22.29-4.98c-1.5-5.33-11.23-9.65-22.29-9.65s-20.78,4.31-22.29,9.65Z"/>
        </g>
      </g>
      <g>
        <path class="cls-6" d="m47.25,30.31l-1.95-3.04c-1.61-2.51-1.29-5.51.84-7.77h0c2.28-2.43,2.47-5.68.5-8.26l-2.49-3.24"/>
        <path class="cls-7" d="m47.25,32.31c-.66,0-1.3-.32-1.69-.92l-1.95-3.04c-2.1-3.28-1.69-7.29,1.07-10.22,1.6-1.71,1.74-3.88.37-5.67l-2.49-3.24c-.67-.88-.51-2.13.37-2.8.88-.67,2.13-.51,2.8.37l2.49,3.24c2.57,3.35,2.32,7.71-.62,10.85-1.5,1.6-1.73,3.58-.61,5.32l1.95,3.04c.6.93.33,2.17-.6,2.76-.33.21-.71.32-1.08.32Z"/>
      </g>
      <g>
        <path class="cls-6" d="m61.31,31.11l-1.26-1.96c-1.04-1.62-.83-3.56.54-5.02h0c1.47-1.57,1.6-3.67.32-5.34l-1.61-2.1"/>
        <path class="cls-7" d="m61.31,33.11c-.66,0-1.3-.32-1.69-.92l-1.26-1.96c-1.54-2.4-1.24-5.33.77-7.47.81-.86.88-1.86.19-2.75l-1.61-2.09c-.67-.88-.51-2.13.37-2.8.88-.67,2.13-.51,2.8.37l1.61,2.09c1.88,2.45,1.7,5.64-.45,7.92-.74.79-.86,1.73-.32,2.57l1.26,1.96c.6.93.33,2.17-.6,2.76-.33.21-.71.32-1.08.32Z"/>
      </g>
      <path class="cls-2" d="m45.97,52.25c-1.68.39-4.08,1.04-6.15,1.92-1.89.8-1.63,3.37.38,3.85,2.28.55,5.71,1.06,10.74,1.15.94.02,1.26-1.05.41-1.39-2.55-1.01-5.1-2.56-4.31-4.58.22-.57-.37-1.12-1.07-.96Z"/>
    </g>
    <rect class="cls-1" width="112" height="112"/>
  </g>
</svg>