<svg xmlns="http://www.w3.org/2000/svg" id="outline_icons" viewBox="0 0 112 112"><defs><style>.cls-2{fill:#d6478f}.cls-3{fill:#44ad44}.cls-7{fill:#004241}</style></defs><g id="bonbons"><path d="M0 0h112v112H0z" style="fill:none"/><path d="M54.68 59.57c5.06 0 9.1-4.35 8.59-9.52-.37-3.74-3.23-6.87-6.92-7.58a8.62 8.62 0 0 0-5.36.68V42.1c2.61-2.93 4.22-6.78 4.22-11.01 0-2.13-.42-4.16-1.15-6.04a8.64 8.64 0 0 0 5.55-8.62c-.26-4.17-3.61-7.64-7.78-8.03a8.62 8.62 0 0 0-9.23 6.63c-1.26-.31-2.58-.49-3.93-.49s-2.67.18-3.93.49c-.95-4.08-4.78-7.05-9.23-6.63-4.16.39-7.51 3.86-7.78 8.03-.25 3.92 2.13 7.32 5.55 8.62-.73 1.87-1.15 3.9-1.15 6.04 0 4.23 1.6 8.08 4.22 11.01v1.05a8.62 8.62 0 0 0-5.36-.68c-3.69.71-6.55 3.84-6.92 7.58-.52 5.17 3.53 9.52 8.59 9.52.32 0 .64-.02.95-.05a2.46 2.46 0 0 1 2.74 2.44v2.55c0 1.66-1.04 3.09-2.56 3.76a8.64 8.64 0 0 0-5.07 9.13c.53 3.82 3.65 6.88 7.47 7.34 4.34.52 8.13-2.17 9.31-6.02.41-1.33 1.6-2.25 2.99-2.25h.37c1.39 0 2.58.93 2.99 2.25a8.626 8.626 0 0 0 9.31 6.02c3.83-.46 6.95-3.52 7.47-7.34a8.64 8.64 0 0 0-5.07-9.13c-1.52-.67-2.56-2.1-2.56-3.76v-2.55c0-1.47 1.28-2.6 2.74-2.44.31.03.63.05.95.05Z" style="fill:#58db5e"/><path d="M27.22 86.79c-.43 0-.86-.03-1.29-.08-4.7-.57-8.57-4.37-9.22-9.05-.66-4.78 1.85-9.3 6.25-11.23.84-.37 1.36-1.11 1.36-1.93v-2.55c0-.17-.08-.27-.15-.33a.47.47 0 0 0-.37-.12c-.38.04-.77.07-1.17.07-3 0-5.87-1.28-7.88-3.5a10.7 10.7 0 0 1-2.69-8.22c.46-4.62 3.97-8.46 8.53-9.34.66-.13 1.33-.19 1.99-.2a18.4 18.4 0 0 1-2.47-9.22c0-1.7.23-3.38.7-5.01-3.35-2.02-5.34-5.74-5.09-9.76.32-5.16 4.45-9.42 9.59-9.9 4.63-.43 8.95 2.2 10.76 6.32 1.75-.26 3.45-.26 5.2 0 1.81-4.12 6.13-6.76 10.76-6.32 5.14.48 9.26 4.74 9.59 9.9.25 4.02-1.74 7.74-5.09 9.76.46 1.64.7 3.32.7 5.01 0 3.26-.86 6.43-2.47 9.22.66 0 1.33.07 1.99.2 4.56.88 8.07 4.72 8.53 9.34.3 3-.68 6-2.69 8.22s-4.89 3.5-7.88 3.5c-.4 0-.79-.02-1.17-.07-.17-.02-.3.05-.37.12a.43.43 0 0 0-.15.33v2.55c0 .82.52 1.56 1.36 1.93 4.4 1.94 6.91 6.45 6.25 11.23-.64 4.68-4.52 8.49-9.22 9.05-5.13.63-9.95-2.5-11.46-7.41-.16-.5-.59-.84-1.08-.84h-.37c-.49 0-.92.34-1.08.84a10.63 10.63 0 0 1-10.17 7.49ZM23.86 57.5a4.455 4.455 0 0 1 4.46 4.46v2.55c0 2.39-1.47 4.59-3.75 5.59-2.74 1.21-4.31 4.03-3.9 7.03.4 2.91 2.81 5.27 5.73 5.63 3.2.38 6.21-1.56 7.16-4.62.68-2.19 2.65-3.67 4.9-3.67h.37c2.25 0 4.22 1.47 4.9 3.67.94 3.06 3.96 5.01 7.16 4.62 2.92-.35 5.33-2.72 5.73-5.63.41-2.99-1.15-5.82-3.9-7.03-2.28-1-3.75-3.2-3.75-5.59v-2.55c0-1.26.54-2.47 1.48-3.32.95-.85 2.22-1.25 3.48-1.11 2.08.23 4.22-.57 5.65-2.14a6.6 6.6 0 0 0 1.68-5.14c-.29-2.88-2.47-5.27-5.31-5.82a6.57 6.57 0 0 0-4.12.52c-.62.29-1.35.25-1.93-.12s-.93-1-.93-1.69v-1.05c0-.49.18-.97.51-1.33 2.39-2.68 3.71-6.11 3.71-9.68 0-1.81-.34-3.59-1.01-5.31-.19-.5-.18-1.05.03-1.54.22-.49.62-.87 1.12-1.06a6.6 6.6 0 0 0 4.26-6.62c-.2-3.21-2.77-5.87-5.97-6.17-3.3-.31-6.35 1.88-7.1 5.09-.12.52-.45.97-.9 1.25s-1 .37-1.52.24c-2.35-.57-4.57-.57-6.92 0-.52.13-1.07.04-1.52-.24-.46-.28-.78-.73-.9-1.25-.75-3.21-3.8-5.4-7.1-5.09-3.2.3-5.77 2.95-5.97 6.17a6.61 6.61 0 0 0 4.26 6.62c.5.19.9.57 1.12 1.06s.23 1.04.03 1.54c-.67 1.71-1.01 3.5-1.01 5.31 0 3.56 1.32 7 3.71 9.68.33.37.51.84.51 1.33v1.05c0 .69-.35 1.32-.93 1.69s-1.31.41-1.93.12a6.64 6.64 0 0 0-4.12-.52c-2.84.55-5.02 2.94-5.31 5.82-.19 1.91.41 3.73 1.68 5.14a6.64 6.64 0 0 0 5.64 2.14c.17-.02.33-.03.5-.03Z" class="cls-7"/><path d="M82.72 84.15c4.77 1.68 10.03-1.09 11.26-6.14.89-3.65-.77-7.55-4.02-9.45-1.71-1-3.54-1.32-5.28-1.14l.35-.99a16.45 16.45 0 0 0 7.63-8.99c.71-2.01.99-4.07.91-6.08a8.63 8.63 0 0 0 8.09-6.29c1.14-4.02-.88-8.41-4.67-10.16a8.634 8.634 0 0 0-10.91 3.19c-1.09-.71-2.27-1.32-3.55-1.77s-2.58-.71-3.87-.84a8.63 8.63 0 0 0-6.52-9.32c-4.06-1.01-8.37 1.15-10 5-1.53 3.62-.41 7.61 2.38 9.97-1.31 1.52-2.38 3.3-3.09 5.31-1.4 3.99-1.17 8.16.33 11.78l-.35.99a8.56 8.56 0 0 0-4.83-2.41c-3.72-.55-7.45 1.46-9.04 4.86-2.2 4.7.17 10.15 4.95 11.83.3.11.61.19.91.26 1.43.33 2.26 1.82 1.78 3.21l-.85 2.41c-.55 1.56-2 2.57-3.66 2.7-3.69.28-7 2.93-7.81 6.93-.77 3.78 1.16 7.7 4.62 9.4 3.92 1.93 8.39.64 10.78-2.59.83-1.12 2.26-1.6 3.57-1.14l.35.12c1.31.46 2.13 1.73 2.07 3.12a8.62 8.62 0 0 0 6.79 8.76c3.76.83 7.72-1.02 9.48-4.45 1.86-3.63.94-7.77-1.76-10.29-1.21-1.13-1.71-2.83-1.17-4.39l.85-2.41c.49-1.39 2.07-2.03 3.39-1.39.28.14.57.26.88.36Z" style="fill:#ed83b3"/><path d="M72.83 108.91c-.74 0-1.48-.08-2.21-.24-5.04-1.12-8.56-5.66-8.36-10.79.02-.53-.28-.99-.74-1.15l-.35-.12c-.46-.16-.98.01-1.29.44a10.634 10.634 0 0 1-13.27 3.19c-4.24-2.09-6.64-6.97-5.69-11.6.96-4.73 4.83-8.16 9.62-8.53.91-.07 1.65-.59 1.92-1.37l.85-2.41c.06-.16.01-.29-.03-.37a.5.5 0 0 0-.31-.23 10.63 10.63 0 0 1-7.41-6.25c-1.16-2.76-1.09-5.92.18-8.65 1.97-4.21 6.55-6.67 11.15-5.99.67.1 1.32.26 1.94.47-.59-3.17-.35-6.44.73-9.52.56-1.6 1.34-3.11 2.32-4.5a10.59 10.59 0 0 1-1.57-10.9c2.02-4.76 7.31-7.41 12.33-6.16 4.51 1.12 7.71 5.04 8.05 9.53.87.17 1.71.4 2.52.68s1.6.63 2.39 1.04c3.07-3.29 8.03-4.34 12.25-2.4 4.69 2.16 7.17 7.54 5.76 12.52-1.1 3.88-4.21 6.73-8.04 7.52-.1 1.7-.44 3.36-1 4.96a18.4 18.4 0 0 1-5.39 7.88c.62.22 1.23.5 1.81.84 4.01 2.34 6.05 7.13 4.95 11.64a10.68 10.68 0 0 1-5.26 6.86 10.68 10.68 0 0 1-9.69.24.42.42 0 0 0-.38-.01c-.08.04-.2.11-.25.27l-.85 2.41c-.27.77-.02 1.64.65 2.27 3.51 3.28 4.38 8.37 2.17 12.67-1.82 3.53-5.58 5.73-9.48 5.73ZM60.81 92.54c.56 0 1.13.09 1.68.29l.35.12c2.12.75 3.49 2.79 3.41 5.08-.12 3.2 2.07 6.03 5.22 6.73 2.87.64 5.93-.8 7.27-3.41 1.38-2.69.84-5.87-1.35-7.92-1.82-1.7-2.48-4.26-1.68-6.52l.85-2.41a4.46 4.46 0 0 1 2.5-2.64 4.43 4.43 0 0 1 3.65.11c.22.11.44.2.67.28 1.76.62 3.72.46 5.36-.43 1.67-.9 2.83-2.43 3.29-4.29.68-2.81-.59-5.79-3.08-7.25a6.7 6.7 0 0 0-4.06-.88 2.01 2.01 0 0 1-1.78-.75c-.42-.54-.54-1.26-.32-1.9l.35-.99c.16-.46.49-.85.92-1.09 3.14-1.73 5.52-4.54 6.71-7.9.6-1.7.87-3.5.8-5.34-.02-.53.18-1.05.54-1.44.37-.39.87-.62 1.41-.63a6.63 6.63 0 0 0 6.22-4.83c.88-3.1-.67-6.45-3.59-7.8-3.01-1.39-6.62-.33-8.39 2.45a1.995 1.995 0 0 1-2.78.6c-1.01-.66-2.06-1.18-3.12-1.56-1.06-.37-2.2-.62-3.41-.74-.53-.05-1.02-.32-1.36-.73s-.49-.95-.44-1.48c.36-3.28-1.79-6.36-5.01-7.16-3.12-.78-6.42.88-7.68 3.84a6.6 6.6 0 0 0 1.83 7.66c.41.34.66.84.7 1.37s-.13 1.06-.48 1.46c-1.2 1.39-2.12 2.96-2.72 4.67-1.18 3.36-1.08 7.04.29 10.36.19.45.2.96.04 1.43l-.35.99c-.23.65-.77 1.13-1.44 1.29-.67.15-1.37-.05-1.86-.53a6.65 6.65 0 0 0-3.71-1.86c-2.86-.43-5.71 1.11-6.94 3.73-.81 1.74-.85 3.65-.12 5.4a6.67 6.67 0 0 0 3.92 3.69c.23.08.46.15.7.2 1.24.29 2.3 1.09 2.92 2.2.61 1.11.72 2.43.3 3.62l-.85 2.41c-.79 2.26-2.91 3.84-5.39 4.03-2.99.23-5.4 2.37-6 5.34-.59 2.88.9 5.91 3.54 7.21 2.89 1.42 6.38.59 8.29-1.99 1.01-1.36 2.56-2.12 4.15-2.12Z" class="cls-7"/><path d="M74.25 35.18s-1.8-3.76-4.67-3.2-3.15 5.55-1.62 6.38zm.96 47.73 1.65-2.25c.5-.68 1.33-1.04 2.17-.91 1.81.27 5.12.59 7.67-.04 2.37-.59 2.23-2.52 1.83-3.82-.14-.44-.68-.55-1-.22-1.67 1.74-7.33.65-9.83.25-2.66-.42-4.31 2.11-5.15 5.73-.13.57.13 1.17.66 1.44l.42.21c.55.28 1.23.12 1.59-.38Z" class="cls-2"/><path d="M49.7 17.67c-2.97.13-4.81.71-5.37 2.37-.2.61-.04 1.62.24 2.86.13.56-.18 1.09-.69 1.36a2.19 2.19 0 0 0-1.17 2.16c.07.74.57 1.4 1.23 1.74.23.12.45.19.67.23.62.1 1.13.56 1.15 1.19.04 1.05-.04 2.09-.31 3.08-1.3 4.69-6.48 2.19-3.24 9.13l2.1 4.5c.42.9 1.51 1.31 2.36.78.79-.49 1.01-1.48.58-2.22-.76-1.29-1.8-3.62-.32-4.91 2.04-1.6 3.17-3.74 3.79-5.72 1.01-3.21.67-6.74-.91-9.71a8.5 8.5 0 0 0-.84-1.31c-1.06-1.27 1.45-1.57 2.24-3.39.44-1.03-.37-2.18-1.49-2.13Z" class="cls-3"/><circle cx="32.21" cy="26.21" r="2.2" class="cls-3"/><circle cx="71.73" cy="45.13" r="2.2" class="cls-2"/><circle cx="83.66" cy="49.47" r="2.2" class="cls-2"/><path d="M31.53 74.49c-.18-.69-1.11-.78-1.51-.18a5.44 5.44 0 0 1-4.55 2.46c-.19 0-.38 0-.56-.03-.72-.07-1.26.71-.83 1.29.88 1.19 2.38 1.9 4.02 1.65s3.14-1.62 3.47-3.32c.13-.66.1-1.29-.05-1.87ZM19.72 53.46c.46.55 1.34.23 1.44-.48a5.4 5.4 0 0 1 3.57-4.38c.69-.24.83-1.18.19-1.52-1.31-.7-2.96-.69-4.34.23s-2.14 2.81-1.71 4.49c.16.65.46 1.21.85 1.67Zm2.66-34.59c.29.65 1.22.6 1.52-.05a5.45 5.45 0 0 1 4.67-3.2c.73-.04 1.13-.89.62-1.4-1.06-1.04-2.64-1.51-4.23-1.01s-2.85 2.09-2.92 3.82c-.03.67.1 1.29.34 1.84" class="cls-3"/><path d="M55.15 89.32c-.18-.69-1.11-.78-1.51-.18a5.44 5.44 0 0 1-4.55 2.46c-.19 0-.38 0-.56-.03-.72-.07-1.26.71-.83 1.29.88 1.19 2.38 1.9 4.02 1.65s3.14-1.62 3.47-3.32c.13-.66.1-1.29-.05-1.87Zm-3.27-21.57c.36.62 1.28.45 1.5-.23a5.41 5.41 0 0 1 3.71-3.6c.18-.05.37-.09.55-.12.72-.12 1.02-1.02.44-1.47-1.17-.91-2.8-1.18-4.32-.5s-2.58 2.41-2.44 4.14c.05.67.25 1.27.56 1.79Zm24.98 28.98c-.18-.69-1.11-.78-1.51-.18a5.44 5.44 0 0 1-4.55 2.46c-.19 0-.38 0-.56-.03-.72-.07-1.26.71-.83 1.29.88 1.19 2.38 1.9 4.02 1.65s3.14-1.62 3.47-3.32c.13-.66.1-1.29-.05-1.87Zm20.71-54.54c-.18-.69-1.11-.78-1.51-.18a5.44 5.44 0 0 1-4.55 2.46c-.19 0-.38 0-.56-.03-.72-.07-1.26.71-.83 1.29.88 1.19 2.38 1.9 4.02 1.65s3.14-1.62 3.47-3.32c.13-.66.1-1.29-.05-1.87Z" class="cls-2"/><path d="M62.91 80.23c-.32 0-.64-.08-.94-.23a2 2 0 0 1-.83-2.71c.31-.59.48-2.22.64-3.66.33-3.09.7-6.6 2.72-8.79.57-.62 1.08-1.14 1.52-1.59.42-.43.88-.9 1.13-1.2-.89-1.72-2.09-5.58-1.56-8.65a2.01 2.01 0 0 1 2.31-1.63c1.09.19 1.82 1.23 1.63 2.31-.36 2.06.62 5.2 1.23 6.24 1.39 2.38-.27 4.08-1.88 5.73-.41.42-.9.92-1.44 1.51-1.12 1.22-1.43 4.15-1.68 6.5-.22 2.06-.41 3.85-1.08 5.12a1.99 1.99 0 0 1-1.77 1.06ZM32.87 63.44a1.997 1.997 0 0 1-1.93-2.53c.18-.64-.02-2.27-.18-3.71-.36-3.09-.77-6.59.72-9.17.42-.73.8-1.35 1.13-1.89.31-.5.65-1.05.83-1.41-.14-.14-.3-.29-.47-.46-1.79-1.75-4.8-4.67-4.94-7.65-.05-1.1.8-2.04 1.9-2.1s2.04.79 2.1 1.9c.07 1.41 2.74 4 3.74 4.98.34.33.63.62.83.83 1.88 2.02.64 4.04-.57 6-.31.51-.67 1.09-1.07 1.79-.83 1.44-.48 4.36-.21 6.71.24 2.06.45 3.84.07 5.23-.24.89-1.05 1.47-1.93 1.47Zm.8-18.45" style="fill:#fff"/></g></svg>