<?xml version="1.0" encoding="UTF-8"?>
<svg id="outline_icons" xmlns="http://www.w3.org/2000/svg" viewBox="0 0 112 112">
  <defs>
    <style>
      .cls-1 {
        fill: none;
      }

      .cls-2 {
        fill: #e8b782;
      }

      .cls-3 {
        fill: #87634b;
      }

      .cls-4 {
        fill: #6b503d;
      }

      .cls-5 {
        fill: #fff;
      }

      .cls-6 {
        fill: #004241;
      }
    </style>
  </defs>
  <g id="boucheeschocolat">
    <g>
      <circle class="cls-2" cx="11.71" cy="72.45" r="3.99"/>
      <path class="cls-6" d="M11.71,78.44c-3.3,0-5.99-2.69-5.99-5.99s2.69-5.99,5.99-5.99,5.99,2.69,5.99,5.99-2.69,5.99-5.99,5.99ZM11.71,70.46c-1.1,0-1.99.89-1.99,1.99s.89,1.99,1.99,1.99,1.99-.89,1.99-1.99-.89-1.99-1.99-1.99Z"/>
    </g>
    <g>
      <path class="cls-3" d="M59.31,71c0,1.45,2.24,2.86,1.95,4.22-.66,3.06-2.01,5.88-3.9,8.3-.91,1.16-4.34,2.24-5.48,3.2-1.93,1.63-4.17,5.33-6.61,6.23s-5.1,1.39-7.88,1.39c-1.22,0-2.42-2.49-3.59-2.67-2.26-.36-4.41-1.04-6.39-2.01-1.56-.77-4.22.69-5.54-.4-2.02-1.67-3.73-3.68-5-5.95-.83-1.48-.29-5.45-.73-7.11s-.68-3.4-.68-5.2c0-1.1-2.31-3.37-2.14-4.42.51-3.15,1.76-6.07,3.56-8.6,1.05-1.47,4.69-1.61,6.1-2.78.68-.57,1.39-3.49,2.14-3.97,2.38-1.53,5.08-2.63,8-3.18,1.38-.26,3.25.95,4.26,2,1.8,1.86,4.46,1.37,6.01,1.7,2.34.5,4.53-1.04,6.52.11,2.43,1.41,4.55,3.25,6.25,5.42,1.36,1.75.06,3.7.8,5.81s2.35,5.56,2.35,7.91Z"/>
      <path class="cls-6" d="M37.38,96.34c-1.52,0-2.55-1.11-3.38-2.01-.22-.23-.53-.57-.71-.72-2.36-.39-4.63-1.12-6.77-2.16-.23-.09-1.04.02-1.52.08-1.28.17-3.04.4-4.41-.73-2.23-1.84-4.08-4.03-5.47-6.51-.73-1.3-.75-3.16-.78-5.12,0-.89-.02-2.01-.14-2.46-.48-1.8-.73-3.67-.75-5.54-.12-.27-.49-.83-.73-1.18-.82-1.24-1.6-2.41-1.39-3.73.54-3.37,1.9-6.63,3.91-9.44.98-1.37,2.78-1.9,4.37-2.37.67-.2,1.58-.46,1.97-.7.14-.25.37-.8.53-1.18.54-1.29,1-2.41,1.92-3,2.65-1.71,5.58-2.88,8.71-3.47,2.23-.42,4.67,1.13,6.07,2.58.72.74,1.75.86,3.23.94.61.04,1.19.07,1.75.19.65.14,1.38.01,2.22-.13,1.4-.24,3.14-.54,4.88.47,2.66,1.54,4.96,3.53,6.82,5.92,1.24,1.59,1.12,3.28,1.02,4.52-.05.71-.1,1.33.09,1.86.16.45.36.96.57,1.51.83,2.14,1.87,4.8,1.89,6.99.08.2.4.63.61.92.69.93,1.64,2.19,1.29,3.8-.71,3.32-2.15,6.39-4.28,9.11-.81,1.04-2.28,1.73-3.83,2.47-.69.33-1.64.78-1.93,1.02-.57.48-1.26,1.28-1.98,2.12-1.49,1.74-3.18,3.7-5.23,4.46-2.74,1.01-5.62,1.52-8.57,1.52ZM26.19,87.42c.69,0,1.41.1,2.09.43,1.83.9,3.79,1.51,5.82,1.83,1.24.2,2.09,1.11,2.84,1.93.2.22.51.55.71.72,2.38-.03,4.71-.46,6.92-1.27,1.08-.4,2.46-2.01,3.58-3.31.83-.97,1.61-1.88,2.44-2.57.69-.58,1.71-1.07,2.79-1.58.79-.37,2.11-1,2.41-1.33,1.7-2.17,2.86-4.62,3.46-7.26-.11-.21-.36-.54-.54-.78-.63-.84-1.4-1.88-1.4-3.23,0-1.45-.93-3.86-1.62-5.62-.23-.59-.44-1.14-.61-1.62-.47-1.32-.38-2.52-.3-3.49.08-1.02.08-1.41-.19-1.76-1.55-1.98-3.46-3.64-5.67-4.92-.47-.27-1.11-.18-2.2,0-1.04.18-2.34.4-3.74.1-.27-.06-.7-.08-1.15-.11-1.6-.09-4.02-.24-5.87-2.16-.87-.91-2.06-1.48-2.45-1.42-2.54.48-4.92,1.41-7.09,2.77-.16.28-.42.91-.58,1.3-.46,1.11-.86,2.07-1.56,2.65-.94.79-2.24,1.17-3.5,1.54-.74.22-1.99.59-2.26.88-1.61,2.25-2.68,4.76-3.15,7.45.15.3.5.83.72,1.16.72,1.08,1.39,2.1,1.39,3.23,0,1.58.21,3.16.61,4.68.25.94.26,2.16.28,3.45.01.96.03,2.74.26,3.2,1.14,2.02,2.64,3.82,4.47,5.33.27.05.97-.04,1.4-.1.52-.07,1.1-.14,1.71-.14ZM59.3,75.12h.01-.01ZM61.31,71h0,0ZM15.29,66.47h0ZM26.46,52.7h0Z"/>
    </g>
    <g>
      <path class="cls-3" d="M96.75,29.64c-.62-1.16.57-3.24-.25-4.21-1.83-2.17-4.13-3.84-6.67-4.97-1.23-.54-4.43.07-5.75-.21-2.24-.48-5.61-2.48-7.95-2.15s-4.68,1.07-6.9,2.26c-.98.52-.87,3.03-1.73,3.67-1.66,1.25-3.08,2.72-4.25,4.34-.92,1.28-3.67,1.25-4.26,2.69-.9,2.2-1.4,4.54-1.45,6.9-.03,1.54,2.1,4.48,2.46,6s.91,3.01,1.68,4.44c.47.88-.4,3.68.18,4.45,1.76,2.3,4,4.11,6.53,5.35,1.47.72,4.44-.72,6.06-.39.78.16,2.61,2.19,3.41,2.26,2.56.21,5.19-.07,7.76-.88,1.21-.38,2.19-2.15,2.55-3.42.64-2.26,2.98-3,4.07-3.93,1.66-1.4,4.07-1.11,5.17-2.88,1.34-2.16,2.25-4.55,2.68-7,.34-1.98-1.54-2.98-1.84-4.99s-.5-5.45-1.51-7.33Z"/>
      <path class="cls-6" d="M79.53,62.14c-.61,0-1.21-.03-1.82-.08-1.05-.09-1.91-.8-2.92-1.62-.27-.22-.65-.53-.87-.68-.42,0-1.22.16-1.78.28-1.5.31-3.2.66-4.63-.04-2.88-1.42-5.32-3.41-7.23-5.93-.78-1.02-.65-2.39-.52-3.71.03-.35.09-.92.08-1.19-.79-1.51-1.38-3.11-1.77-4.76-.09-.39-.55-1.28-.92-1.99-.83-1.6-1.62-3.11-1.59-4.51.06-2.6.6-5.17,1.6-7.62.64-1.57,2.19-2.15,3.32-2.58.39-.14,1.03-.39,1.19-.54,1.24-1.72,2.75-3.28,4.46-4.6.08-.2.17-.56.24-.81.29-1.1.65-2.48,1.93-3.17,2.38-1.27,4.93-2.11,7.57-2.47,2.01-.28,4.23.58,6.18,1.34.93.36,1.81.7,2.46.84.31.07,1.25.02,1.93-.01,1.58-.08,3.08-.15,4.21.35,2.89,1.28,5.38,3.13,7.39,5.5,1.01,1.2.79,2.67.63,3.74-.04.29-.11.72-.1.92.92,1.79,1.23,4.36,1.48,6.43.06.53.12,1.02.19,1.45.07.46.35.9.7,1.45.62.97,1.47,2.31,1.14,4.18-.47,2.73-1.47,5.33-2.95,7.72-1,1.61-2.55,2.13-3.8,2.54-.72.24-1.34.45-1.77.81-.41.35-.89.64-1.34.92-1.11.68-1.86,1.19-2.1,2.03-.51,1.8-1.83,4.14-3.87,4.78-2.19.69-4.44,1.04-6.7,1.04ZM78.4,58.16h0ZM78.29,58.09c2.27.16,4.54-.12,6.74-.81.29-.13.94-1.06,1.23-2.06.68-2.4,2.59-3.57,3.85-4.35.35-.21.67-.41.85-.57,1.02-.86,2.17-1.24,3.09-1.55.91-.3,1.44-.49,1.67-.86,1.21-1.95,2.02-4.07,2.41-6.29.05-.31-.07-.57-.57-1.35-.48-.76-1.08-1.7-1.28-2.99-.07-.46-.14-1-.21-1.57-.2-1.68-.48-3.98-1.09-5.11h0c-.61-1.14-.43-2.34-.28-3.3.04-.23.08-.56.09-.76-1.58-1.81-3.52-3.23-5.77-4.23-.35-.11-1.63-.05-2.4-.01-1.1.05-2.13.1-2.96-.07-.97-.2-1.99-.6-3.08-1.02-1.43-.55-3.21-1.24-4.19-1.11-2.07.29-4.07.92-5.95,1.89-.08.21-.17.55-.23.8-.26,1-.56,2.13-1.51,2.86-1.47,1.11-2.76,2.43-3.83,3.91-.78,1.09-2.01,1.55-3,1.92-.35.13-.87.33-1.08.47-.79,1.96-1.21,4-1.26,6.07.03.45.75,1.83,1.14,2.58.55,1.05,1.06,2.04,1.27,2.92.32,1.37.83,2.7,1.5,3.96.51.95.4,2.08.29,3.28-.03.34-.08.85-.08,1.16,1.51,1.9,3.4,3.42,5.62,4.51.29.08,1.39-.15,2.05-.29,1.18-.25,2.4-.5,3.53-.27.85.18,1.6.79,2.46,1.49.28.23.72.59.96.75ZM70.52,21.82h0Z"/>
    </g>
    <g>
      <circle class="cls-2" cx="32.62" cy="61.69" r="3.99"/>
      <path class="cls-6" d="M32.62,67.68c-3.3,0-5.99-2.69-5.99-5.99s2.69-5.99,5.99-5.99,5.99,2.69,5.99,5.99-2.69,5.99-5.99,5.99ZM32.62,59.7c-1.1,0-1.99.89-1.99,1.99s.89,1.99,1.99,1.99,1.99-.89,1.99-1.99-.89-1.99-1.99-1.99Z"/>
    </g>
    <g>
      <circle class="cls-2" cx="56" cy="64.47" r="3.99"/>
      <path class="cls-6" d="M56,70.46c-3.3,0-5.99-2.69-5.99-5.99s2.69-5.99,5.99-5.99,5.99,2.69,5.99,5.99-2.69,5.99-5.99,5.99ZM56,62.47c-1.1,0-1.99.89-1.99,1.99s.89,1.99,1.99,1.99,1.99-.89,1.99-1.99-.89-1.99-1.99-1.99Z"/>
    </g>
    <g>
      <circle class="cls-2" cx="44.76" cy="52.01" r="3.99"/>
      <path class="cls-6" d="M44.76,58c-3.3,0-5.99-2.69-5.99-5.99s2.69-5.99,5.99-5.99,5.99,2.69,5.99,5.99-2.69,5.99-5.99,5.99ZM44.76,50.02c-1.1,0-1.99.89-1.99,1.99s.89,1.99,1.99,1.99,1.99-.89,1.99-1.99-.89-1.99-1.99-1.99Z"/>
    </g>
    <g>
      <circle class="cls-2" cx="33.31" cy="77.67" r="3.99"/>
      <path class="cls-6" d="M33.31,83.66c-3.3,0-5.99-2.69-5.99-5.99s2.69-5.99,5.99-5.99,5.99,2.69,5.99,5.99-2.69,5.99-5.99,5.99ZM33.31,75.67c-1.1,0-1.99.89-1.99,1.99s.89,1.99,1.99,1.99,1.99-.89,1.99-1.99-.89-1.99-1.99-1.99Z"/>
    </g>
    <g>
      <circle class="cls-2" cx="59.99" cy="31.66" r="3.99"/>
      <path class="cls-6" d="M59.99,37.66c-.88,0-1.76-.2-2.59-.59-1.44-.69-2.53-1.9-3.06-3.41-.53-1.51-.44-3.14.25-4.58,1.43-2.98,5.01-4.24,7.99-2.81,2.98,1.43,4.24,5.01,2.81,7.99-.69,1.44-1.9,2.53-3.41,3.06-.65.23-1.32.34-1.99.34ZM60,29.67c-.74,0-1.46.42-1.8,1.13-.23.48-.26,1.02-.08,1.52s.54.91,1.02,1.13c.48.23,1.02.26,1.52.08.5-.18.9-.54,1.13-1.02.47-.99.05-2.18-.94-2.66-.28-.13-.57-.2-.86-.2Z"/>
    </g>
    <g>
      <circle class="cls-2" cx="78.84" cy="41.54" r="3.99"/>
      <path class="cls-6" d="M78.84,47.54c-.88,0-1.76-.2-2.59-.59-1.44-.69-2.53-1.9-3.06-3.41s-.44-3.14.25-4.58,1.9-2.53,3.41-3.06c1.51-.53,3.14-.44,4.58.25,1.44.69,2.53,1.9,3.06,3.41s.44,3.14-.25,4.58h0c-.69,1.44-1.9,2.53-3.41,3.06-.65.23-1.32.34-1.99.34ZM78.85,39.55c-.22,0-.45.04-.66.11-.5.18-.9.54-1.13,1.02-.23.48-.26,1.02-.08,1.52.18.5.54.9,1.02,1.13.48.23,1.02.26,1.52.08.5-.18.9-.54,1.13-1.02h0c.23-.48.26-1.02.08-1.52s-.54-.91-1.02-1.13c-.27-.13-.57-.2-.86-.2Z"/>
    </g>
    <g>
      <circle class="cls-2" cx="83.94" cy="22.53" r="3.99"/>
      <path class="cls-6" d="M83.93,28.52c-.87,0-1.75-.19-2.58-.59-2.98-1.43-4.24-5.01-2.81-7.99s5.01-4.24,7.99-2.81c2.98,1.43,4.24,5.01,2.81,7.99-1.03,2.15-3.18,3.4-5.41,3.4ZM83.94,20.54c-.74,0-1.46.42-1.8,1.13-.47.99-.05,2.18.94,2.66.99.47,2.18.05,2.66-.94.47-.99.05-2.18-.94-2.66-.28-.13-.57-.2-.86-.2Z"/>
    </g>
    <g>
      <circle class="cls-2" cx="96.87" cy="37.5" r="3.99"/>
      <path class="cls-6" d="M96.87,43.5c-.88,0-1.76-.2-2.59-.59-1.44-.69-2.53-1.9-3.06-3.41s-.44-3.14.25-4.58,1.9-2.53,3.41-3.06c1.51-.53,3.14-.44,4.58.25,1.44.69,2.53,1.9,3.06,3.41s.44,3.14-.25,4.58-1.9,2.53-3.41,3.06c-.65.23-1.32.34-1.99.34ZM96.87,35.51c-.22,0-.45.04-.66.11-.5.18-.9.54-1.13,1.02-.23.48-.26,1.02-.08,1.52.18.5.54.9,1.02,1.13.48.23,1.02.26,1.52.08.5-.18.9-.54,1.13-1.02.23-.48.26-1.02.08-1.52-.18-.5-.54-.9-1.02-1.13-.27-.13-.57-.2-.86-.2Z"/>
    </g>
    <path class="cls-5" d="M68.08,41.86c-.06,0-.12,0-.18,0-1.1-.1-1.91-1.06-1.82-2.15.02-.21.47-5.14,4.14-8.4.83-.73,2.09-.66,2.82.17.73.83.66,2.09-.17,2.82-2.45,2.17-2.8,5.71-2.81,5.74-.1,1.04-.97,1.82-1.99,1.82Z"/>
    <path class="cls-5" d="M23.35,74.72s-.08,0-.12,0c-1.1-.06-1.94-1.01-1.88-2.11.08-1.39-.02-1.79-.09-1.9-.89-.46-1.54-1.26-1.84-2.28-.71-2.39.77-5.28,1.07-5.84.53-.97,1.74-1.33,2.71-.8.97.53,1.32,1.74.8,2.71h0c-.54,1-.92,2.42-.75,2.81,2.34,1.22,2.17,4.03,2.08,5.54-.06,1.06-.94,1.88-1.99,1.88Z"/>
    <path class="cls-4" d="M56,74.9c.16-5.88-4.02,4.77-7.25,2.06s0-6.12-.86-8.51-4.96-1.63-4.96,1.22-.43,4.94-.86,9.17-2.37,4.89-3.45,5.85-1.08,5.92,3.45,3.55,2.81-5.17,6.68-5.6,7.18-5.17,7.25-7.76Z"/>
    <path class="cls-4" d="M75.52,50.26c-1.46-.22-2.4,1.5-1.42,2.61,1.48,1.67,3.47,2.87,6.11,2.21,2.15-.54,4.33-3.75,6.97-5.82,1.29-1.01,2.68-1.75,3.77-2.24,1.03-.47,1.3-1.81.54-2.64-1.2-1.31-2.91-2.56-4.17-.92-2.15,2.79-5.71,6.23-7.24,6.75-1.2.4-2.96.3-4.55.06Z"/>
    <rect class="cls-1" width="112" height="112"/>
  </g>
</svg>