<svg xmlns="http://www.w3.org/2000/svg" id="flatten_icons" data-name="flatten icons" viewBox="0 0 112 112"><defs><style>.cls-4,.cls-6{stroke-width:0}.cls-4{fill:#9fdecf}.cls-6{fill:#004241}</style></defs><g id="bouilloire"><path id="area" d="M0 0h112v112H0z" style="fill:none;stroke-width:0"/><g id="bouilloire-2" data-name="bouilloire"><path d="M26.3 54.39c-5.06-6.98-9.91-15.83-12.68-21.17-1.12-2.15.44-4.71 2.86-4.71h11.56" class="cls-4"/><path d="M26.3 56.39c-.62 0-1.23-.29-1.62-.83-4.98-6.87-9.73-15.44-12.84-21.42a5.17 5.17 0 0 1 .17-5.12 5.2 5.2 0 0 1 4.47-2.51h11.56c1.1 0 2 .9 2 2s-.9 2-2 2H16.48c-.62 0-.94.41-1.05.59s-.33.65-.04 1.2c2.49 4.79 7.44 13.89 12.53 20.92.65.89.45 2.15-.45 2.79-.35.26-.77.38-1.17.38" class="cls-6"/><path d="M54.54 8.01c-14.04 0-25.65 10.91-26.53 24.92l-4.44 61.06h61.94l-4.44-61.06C80.19 18.92 68.58 8.01 54.54 8.01" class="cls-4"/><path d="M85.51 95.99H23.57c-.56 0-1.09-.23-1.46-.64-.38-.41-.57-.95-.53-1.51l4.44-61.06C26.96 17.77 39.49 6 54.54 6s27.58 11.77 28.52 26.8l4.44 61.04c.04.55-.15 1.1-.53 1.51s-.91.64-1.46.64m-59.79-4h57.64l-4.29-58.91c-.81-12.94-11.59-23.07-24.53-23.07S30.82 20.13 30.01 33.06z" class="cls-6"/><path d="M23.4 93.99h62.37c2.68 0 4.86 2.18 4.86 4.86v5.14h-72.1v-5.14c0-2.68 2.18-4.86 4.86-4.86Z" style="stroke-width:0;fill:#76c1a8"/><path d="M90.62 105.99H18.53c-1.1 0-2-.9-2-2v-5.14c0-3.78 3.08-6.86 6.86-6.86h62.37c3.78 0 6.86 3.08 6.86 6.86v5.14c0 1.1-.9 2-2 2m-70.09-4h68.09v-3.14a2.86 2.86 0 0 0-2.86-2.86H23.4a2.86 2.86 0 0 0-2.86 2.86v3.14Z" class="cls-6"/><rect width="12.02" height="43.69" x="58.31" y="34.99" rx="6.01" ry="6.01" style="stroke-width:0;fill:#c9dde4"/><path d="M64.32 80.69c-4.42 0-8.01-3.59-8.01-8.01V41c0-4.42 3.59-8.01 8.01-8.01s8.01 3.59 8.01 8.01v31.68c0 4.42-3.59 8.01-8.01 8.01m0-43.69c-2.21 0-4.01 1.8-4.01 4.01v31.68c0 2.21 1.8 4.01 4.01 4.01s4.01-1.8 4.01-4.01V41.01c0-2.21-1.8-4.01-4.01-4.01" class="cls-6"/><path d="M86.64 85.59h8.53c1.98 0 3.58-1.6 3.58-3.58s-1.6-3.58-3.58-3.58h-9.66" style="stroke-width:0;fill:#ed706b"/><path d="M95.16 87.59h-8.53c-1.1 0-2-.9-2-2s.9-2 2-2h8.53c.87 0 1.58-.71 1.58-1.58s-.71-1.58-1.58-1.58H85.5c-1.1 0-2-.9-2-2s.9-2 2-2h9.66c3.08 0 5.58 2.5 5.58 5.58s-2.5 5.58-5.58 5.58M76.12 21.72H51.95c-1.1 0-2-.9-2-2s.9-2 2-2h24.17c1.1 0 2 .9 2 2s-.9 2-2 2m-31.74 0H32.51c-1.1 0-2-.9-2-2s.9-2 2-2h11.87c1.1 0 2 .9 2 2s-.9 2-2 2m20.03 36.67h-5.32c-1.1 0-2-.9-2-2s.9-2 2-2h5.32c1.1 0 2 .9 2 2s-.9 2-2 2m34.34 3.03c-1.1 0-2-.9-2-2V35.48c0-2.74-2.23-4.97-4.97-4.97H81.07c-1.1 0-2-.9-2-2s.9-2 2-2h10.71c4.95 0 8.97 4.02 8.97 8.97v23.94c0 1.1-.9 2-2 2" class="cls-6"/></g></g></svg>