<?xml version="1.0" encoding="UTF-8"?>
<svg id="flatten_icons" data-name="flatten icons" xmlns="http://www.w3.org/2000/svg" viewBox="0 0 112 112">
  <defs>
    <style>
      .cls-1 {
        fill: none;
      }

      .cls-1, .cls-2, .cls-3, .cls-4, .cls-5, .cls-6 {
        stroke-width: 0px;
      }

      .cls-2 {
        fill: #76c1a8;
      }

      .cls-3 {
        fill: #c9dde4;
      }

      .cls-4 {
        fill: #9fdecf;
      }

      .cls-5 {
        fill: #ed706b;
      }

      .cls-6 {
        fill: #004241;
      }
    </style>
  </defs>
  <g id="bouilloire">
    <g id="area">
      <rect class="cls-1" width="112" height="112"/>
    </g>
    <g id="bouilloire-2" data-name="bouilloire">
      <g>
        <path class="cls-4" d="m26.3,54.39c-5.06-6.98-9.91-15.83-12.68-21.17-1.12-2.15.44-4.71,2.86-4.71h11.56"/>
        <path class="cls-6" d="m26.3,56.39c-.62,0-1.23-.29-1.62-.83-4.98-6.87-9.73-15.44-12.84-21.42-.85-1.63-.79-3.55.17-5.12.96-1.57,2.63-2.51,4.47-2.51h11.56c1.1,0,2,.9,2,2s-.9,2-2,2h-11.56c-.62,0-.94.41-1.05.59-.11.18-.33.65-.04,1.2,2.49,4.79,7.44,13.89,12.53,20.92.65.89.45,2.15-.45,2.79-.35.26-.77.38-1.17.38Z"/>
      </g>
      <g>
        <path class="cls-4" d="m54.54,8.01h0c-14.04,0-25.65,10.91-26.53,24.92l-4.44,61.06h61.94l-4.44-61.06c-.88-14.01-12.49-24.92-26.53-24.92Z"/>
        <path class="cls-6" d="m85.51,95.99H23.57c-.56,0-1.09-.23-1.46-.64-.38-.41-.57-.95-.53-1.51l4.44-61.06c.94-15.01,13.47-26.78,28.52-26.78s27.58,11.77,28.52,26.8l4.44,61.04c.04.55-.15,1.1-.53,1.51-.38.41-.91.64-1.46.64Zm-59.79-4h57.64l-4.29-58.91c-.81-12.94-11.59-23.07-24.53-23.07s-23.72,10.12-24.53,23.05l-4.29,58.93Z"/>
      </g>
      <g>
        <path class="cls-2" d="m23.4,93.99h62.37c2.68,0,4.86,2.18,4.86,4.86v5.14H18.53v-5.14c0-2.68,2.18-4.86,4.86-4.86Z"/>
        <path class="cls-6" d="m90.62,105.99H18.53c-1.1,0-2-.9-2-2v-5.14c0-3.78,3.08-6.86,6.86-6.86h62.37c3.78,0,6.86,3.08,6.86,6.86v5.14c0,1.1-.9,2-2,2Zm-70.09-4h68.09v-3.14c0-1.58-1.28-2.86-2.86-2.86H23.4c-1.58,0-2.86,1.28-2.86,2.86v3.14Z"/>
      </g>
      <g>
        <rect class="cls-3" x="58.31" y="34.99" width="12.02" height="43.69" rx="6.01" ry="6.01"/>
        <path class="cls-6" d="m64.32,80.69c-4.42,0-8.01-3.59-8.01-8.01v-31.68c0-4.42,3.59-8.01,8.01-8.01s8.01,3.59,8.01,8.01v31.68c0,4.42-3.59,8.01-8.01,8.01Zm0-43.69c-2.21,0-4.01,1.8-4.01,4.01v31.68c0,2.21,1.8,4.01,4.01,4.01s4.01-1.8,4.01-4.01v-31.68c0-2.21-1.8-4.01-4.01-4.01Z"/>
      </g>
      <g>
        <path class="cls-5" d="m86.64,85.59h8.53c1.98,0,3.58-1.6,3.58-3.58h0c0-1.98-1.6-3.58-3.58-3.58h-9.66"/>
        <path class="cls-6" d="m95.16,87.59h-8.53c-1.1,0-2-.9-2-2s.9-2,2-2h8.53c.87,0,1.58-.71,1.58-1.58s-.71-1.58-1.58-1.58h-9.66c-1.1,0-2-.9-2-2s.9-2,2-2h9.66c3.08,0,5.58,2.5,5.58,5.58s-2.5,5.58-5.58,5.58Z"/>
      </g>
      <path class="cls-6" d="m76.12,21.72h-24.17c-1.1,0-2-.9-2-2s.9-2,2-2h24.17c1.1,0,2,.9,2,2s-.9,2-2,2Z"/>
      <path class="cls-6" d="m44.38,21.72h-11.87c-1.1,0-2-.9-2-2s.9-2,2-2h11.87c1.1,0,2,.9,2,2s-.9,2-2,2Z"/>
      <path class="cls-6" d="m64.41,58.39h-5.32c-1.1,0-2-.9-2-2s.9-2,2-2h5.32c1.1,0,2,.9,2,2s-.9,2-2,2Z"/>
      <path class="cls-6" d="m98.75,61.42c-1.1,0-2-.9-2-2v-23.94c0-2.74-2.23-4.97-4.97-4.97h-10.71c-1.1,0-2-.9-2-2s.9-2,2-2h10.71c4.95,0,8.97,4.02,8.97,8.97v23.94c0,1.1-.9,2-2,2Z"/>
    </g>
  </g>
</svg>