<svg xmlns="http://www.w3.org/2000/svg" id="flatten_icons" viewBox="0 0 112 112"><defs><style>.cls-2{fill:#f4d7a8}.cls-3{fill:#eac781}.cls-4{fill:#004241}.cls-5{fill:#f2c87e}</style></defs><g id="boulgour"><path d="M0 0h112v112H0z" style="fill:none"/><path d="M43.96 46.98c1.29 3.56 1.45 8.2-3.65 10.05s-7.96-1.8-9.25-5.37-2.19-7.93 3.65-10.05 7.96 1.8 9.25 5.37" class="cls-3"/><path d="M37.7 59.53c-2.03 0-3.58-.76-4.63-1.55-2.08-1.55-3.26-3.92-3.88-5.63-.67-1.85-1.38-4.27-.93-6.62.53-2.77 2.47-4.79 5.78-5.99 8.33-3.02 10.95 4.19 11.81 6.56.62 1.72 1.24 4.29.64 6.81-.45 1.9-1.77 4.45-5.49 5.8-1.21.44-2.31.62-3.3.62m0-16.53c-.68 0-1.44.17-2.31.49-2.55.93-3.06 2.15-3.22 2.98-.27 1.4.27 3.14.77 4.51.62 1.7 1.51 3.04 2.51 3.79 1.15.86 2.51.98 4.17.38s2.63-1.57 2.96-2.97c.29-1.22.11-2.82-.51-4.52-1.18-3.24-2.41-4.66-4.38-4.66Z" class="cls-4"/><path d="M45.12 68.23c-1.27 3.18-4.07 6.35-9.11 4.34s-4.9-6.24-3.64-9.42 3.34-6.64 9.11-4.34 4.9 6.24 3.64 9.42" class="cls-3"/><path d="M38.98 75.19c-1.09 0-2.33-.21-3.72-.77-5.08-2.02-6.9-6.63-4.75-12.02.67-1.69 1.69-3.81 3.58-5.12 2.16-1.51 4.9-1.62 8.13-.33 8.23 3.28 5.62 9.86 4.75 12.02-.63 1.58-1.82 3.74-3.93 5.07-.96.6-2.31 1.16-4.06 1.16Zm-.89-15.13c-.99 0-1.49.35-1.71.5-1.02.71-1.69 2.15-2.15 3.32-2 5.02 1.4 6.38 2.52 6.82 1.68.67 3.04.65 4.17-.06 1.2-.76 1.94-2.14 2.35-3.16 1.33-3.33 1.3-5.3-2.52-6.82-1.14-.45-2-.6-2.65-.6Z" class="cls-4"/><path d="M58.62 57.48c-1.4 3.52-4.37 7.09-9.41 5.08s-4.74-6.64-3.34-10.16 3.64-7.38 9.41-5.08 4.74 6.64 3.34 10.16" class="cls-3"/><path d="M51.99 65.14c-1.05 0-2.22-.21-3.52-.72-3.67-1.46-4.91-4.05-5.31-5.97-.52-2.54.17-5.1.85-6.79.93-2.34 3.77-9.48 12.01-6.2 3.27 1.3 5.15 3.38 5.6 6.16.38 2.37-.41 4.77-1.14 6.59-.67 1.7-1.93 4.03-4.05 5.51-1.04.72-2.52 1.41-4.43 1.41Zm.13-16.52c-1.89 0-3.14 1.38-4.39 4.52-.67 1.68-.9 3.28-.65 4.5.29 1.4 1.23 2.4 2.87 3.06 1.64.65 3.01.57 4.18-.25 1.03-.72 1.96-2.04 2.63-3.71.54-1.35 1.13-3.08.9-4.48-.13-.84-.6-2.07-3.12-3.08-.92-.37-1.71-.56-2.42-.56" class="cls-4"/><path d="M49.82 32.36c2.95.51 6.13 2.51 5.21 7.86s-4.59 6.17-7.54 5.66-6.27-1.74-5.21-7.86c1.05-6.12 4.59-6.17 7.54-5.66" class="cls-5"/><path d="M48.91 48.01c-.59 0-1.18-.05-1.75-.15-8.35-1.44-7.22-8.01-6.84-10.17.58-3.38 1.97-5.65 4.12-6.76 1.97-1.01 4.1-.82 5.74-.54 2.2.38 4.01 1.34 5.24 2.79 1.09 1.28 2.25 3.6 1.6 7.38-.95 5.52-4.55 7.45-8.1 7.45Zm-1.06-13.84c-.57 0-1.12.08-1.59.32-.97.5-1.65 1.81-2.01 3.88-.77 4.45 1 5.11 3.58 5.55 4.4.75 5.03-2.85 5.23-4.03.31-1.81.07-3.19-.71-4.11s-1.99-1.29-2.87-1.44c-.51-.09-1.08-.17-1.64-.17Z" class="cls-4"/><path d="M69.34 16.85c3.22.56 6.73 2.62 5.81 7.96s-4.92 6.12-8.14 5.56-6.87-1.84-5.81-7.96c1.05-6.12 4.92-6.12 8.14-5.56" class="cls-2"/><path d="M68.74 32.53c-.76 0-1.47-.08-2.06-.18-1.74-.3-3.95-.85-5.57-2.44-1.83-1.79-2.46-4.43-1.87-7.84 1-5.79 4.51-8.22 10.45-7.19 5.52.95 8.37 4.89 7.44 10.28-.66 3.82-2.68 5.61-4.25 6.43-1.38.72-2.84.95-4.13.95Zm-1.71-13.91c-2.09 0-3.32.97-3.86 4.13-.53 3.07.42 4 .73 4.3.83.82 2.28 1.15 3.45 1.35 1.02.17 2.48.25 3.67-.37 1.14-.6 1.85-1.76 2.16-3.56.2-1.19.83-4.79-4.18-5.66-.73-.12-1.38-.2-1.97-.2Z" class="cls-4"/><path d="M55.33 64.12c3.73.64 7.84 2.81 6.92 8.15s-5.51 6.01-9.25 5.37c-3.73-.64-7.97-2.03-6.92-8.15s5.51-6.01 9.25-5.37" class="cls-5"/><path d="M55.25 79.85c-.82 0-1.68-.08-2.58-.23-2.49-.43-10.05-1.73-8.55-10.46.6-3.47 2.24-5.74 4.87-6.75 2.24-.86 4.75-.59 6.69-.25 1.8.31 4.34 1.05 6.23 2.82 1.43 1.34 2.99 3.75 2.32 7.64-.79 4.6-4.14 7.23-8.97 7.23Zm-2.84-14.02c-.71 0-1.39.08-1.99.31-.79.3-1.9 1.02-2.36 3.69-.62 3.58.72 5.06 5.29 5.84 4.06.7 6.39-.56 6.94-3.74.3-1.74-.06-3.06-1.11-4.04-.91-.86-2.4-1.5-4.18-1.8-.79-.14-1.71-.26-2.59-.26" class="cls-4"/><path d="M25.26 80.85c3.63-1.1 8.27-1 9.84 4.19s-2.24 7.85-5.86 8.94-8.04 1.75-9.84-4.19c-1.8-5.95 2.24-7.85 5.86-8.94" class="cls-3"/><path d="M25.21 96.71c-.69 0-1.38-.07-2.06-.24-2.74-.68-4.65-2.73-5.67-6.1s-.57-6.13 1.34-8.22c1.62-1.77 3.98-2.65 5.87-3.22 6.02-1.82 10.75.3 12.33 5.53 1.14 3.78-.11 6.37-1.36 7.87-1.66 1.99-4.09 3.04-5.84 3.57-1.33.4-2.95.81-4.61.81m3.56-14.44c-.86 0-1.84.16-2.94.49-1.39.42-3.11 1.04-4.07 2.09-.57.63-1.25 1.76-.46 4.36s1.97 3.17 2.8 3.38c1.38.34 3.15-.1 4.54-.52 1.73-.52 3.12-1.34 3.93-2.3.92-1.1 1.12-2.46.6-4.15-.67-2.23-2.15-3.35-4.41-3.35Zm-3.51-1.42" class="cls-4"/><path d="M79.67 75.51c2.27 2.27 3.9 5.93.06 9.76-3.84 3.84-7.49 2.21-9.76-.06s-4.45-5.37-.06-9.76 7.49-2.21 9.76.06" class="cls-3"/><path d="M74.97 89.57c-2.46 0-4.72-1.25-6.41-2.94-1.23-1.23-2.7-2.93-3.08-5.16-.43-2.49.58-4.99 3.02-7.43 4.16-4.16 8.4-4.14 12.59.06 1.15 1.15 2.58 3.03 2.89 5.46.22 1.74-.09 4.4-2.83 7.13-2.06 2.07-4.19 2.88-6.18 2.88m-.18-14.64c-1.02 0-2.11.58-3.47 1.94-2.21 2.21-1.99 3.5-1.91 3.92.2 1.12 1.16 2.2 1.97 3.02 3.5 3.5 6.09.91 6.94.06 1.3-1.3 1.85-2.54 1.69-3.81-.16-1.3-1.04-2.42-1.75-3.13-1.24-1.24-2.3-2-3.47-2" class="cls-4"/><path d="M16.74 37.05c1.35-3.54 4.26-7.15 9.33-5.22s4.84 6.57 3.49 10.11-3.53 7.43-9.33 5.22-4.84-6.57-3.49-10.11" class="cls-2"/><path d="M23.38 49.82c-1.13 0-2.41-.24-3.86-.79-3.29-1.25-5.2-3.3-5.69-6.08-.41-2.36.34-4.77 1.04-6.61 2.24-5.88 6.8-8.32 11.92-6.38 5.11 1.95 6.89 6.81 4.65 12.69-.74 1.94-2.73 7.16-8.05 7.17Zm.03-16.51c-2.06 0-3.67 1.49-4.8 4.46-.52 1.36-1.08 3.1-.84 4.5.15.84.63 2.06 3.17 3.03 3.4 1.3 5.1.27 6.75-4.06 1.47-3.85.68-6.38-2.33-7.53q-1.035-.39-1.95-.39Zm-6.67 3.74" class="cls-4"/><path d="M95.32 46.93c-2.28 2.28-5.94 3.91-9.78.08-3.84-3.84-2.2-7.5.08-9.78s5.39-4.47 9.78-.08 2.2 7.5-.08 9.78" class="cls-3"/><path d="M90.3 51.3c-1.99 0-4.11-.82-6.17-2.88-4.62-4.62-2.99-9.54.08-12.61 4.21-4.21 8.45-4.24 12.61-.08 2.44 2.44 3.46 4.95 3.02 7.45-.39 2.23-1.86 3.93-3.1 5.17-1.7 1.7-3.97 2.96-6.44 2.96Zm.22-14.67c-1.17 0-2.24.77-3.49 2.01-3.51 3.52-.93 6.1-.08 6.95s3.44 3.44 6.95-.08c.82-.82 1.79-1.91 1.98-3.03.07-.42.3-1.71-1.91-3.92-1.35-1.35-2.45-1.93-3.47-1.93Z" class="cls-4"/><path d="M73.51 48.76c2.26 2.26 3.87 5.9.03 9.74s-7.48 2.22-9.74-.03-4.43-5.35-.03-9.74c4.39-4.39 7.48-2.22 9.74.03" class="cls-2"/><path d="M68.77 62.8c-2.45 0-4.7-1.24-6.38-2.92-1.23-1.23-2.69-2.92-3.07-5.14-.43-2.49.59-4.98 3.03-7.42s4.93-3.46 7.42-3.03c2.22.38 3.92 1.84 5.14 3.07 3.05 3.05 4.65 7.95.03 12.57-2.07 2.07-4.2 2.89-6.19 2.89Zm-.1-14.62c-.63 0-1.78.27-3.48 1.96-2.21 2.21-1.99 3.5-1.92 3.92.19 1.11 1.14 2.18 1.95 2.99 3.47 3.47 6.06.88 6.91.03s3.44-3.44-.03-6.91c-.81-.81-1.88-1.76-2.99-1.95-.1-.02-.25-.04-.44-.04" class="cls-4"/></g></svg>