<svg xmlns="http://www.w3.org/2000/svg" id="flatten_icons" data-name="flatten icons" viewBox="0 0 112 112"><defs><style>.cls-5{stroke-width:0;fill:#004241}</style></defs><g id="box"><path d="M0 0h112v112H0z" style="fill:none;stroke-width:0"/><path d="M15.69 52.18h80.63c7.55 0 13.69 6.13 13.69 13.69v18.7c0 4.98-4.04 9.03-9.03 9.03H11.03C6.05 93.6 2 89.56 2 84.57v-18.7c0-7.55 6.13-13.69 13.69-13.69" style="stroke-width:0;fill:#a4b0ba"/><path d="M15.69 52.18C8.13 52.18 2 58.31 2 65.87v18.7c0 2.05.69 3.93 1.84 5.44 23.75-.39 74.89-4.85 101.38-34.52-2.39-2.05-5.5-3.3-8.9-3.3H15.69Z" style="stroke-width:0;fill:#bdc7cc"/><rect width="8.48" height="8.48" x="87.39" y="64.54" rx="3.76" ry="3.76" style="stroke-width:0;fill:#e26f6b"/><path d="M92.12 75.02h-.97c-3.17 0-5.76-2.58-5.76-5.76v-.97c0-3.18 2.58-5.76 5.76-5.76h.97c3.18 0 5.76 2.58 5.76 5.76v.97c0 3.17-2.58 5.76-5.76 5.76m-.97-8.48c-.97 0-1.76.79-1.76 1.76v.97c0 .97.79 1.76 1.76 1.76h.97c.97 0 1.76-.79 1.76-1.76v-.97c0-.97-.79-1.76-1.76-1.76zm-11.05 0H60.56c-1.1 0-2-.9-2-2s.9-2 2-2H80.1c1.1 0 2 .9 2 2s-.9 2-2 2m0 8.35H60.56c-1.1 0-2-.9-2-2s.9-2 2-2H80.1c1.1 0 2 .9 2 2s-.9 2-2 2m15.78 9.2H60.57c-1.1 0-2-.9-2-2s.9-2 2-2h35.31c1.1 0 2 .9 2 2s-.9 2-2 2M26.87 61.15c6.79 0 11.39 4.26 11.39 10.53 0 4.37-2.19 7.07-5.81 7.07-1.83 0-3.14-.74-3.63-2.06h-.29c-.56 1.39-1.57 2.1-3.17 2.1-2.91 0-4.83-2.37-4.83-5.91s1.81-5.63 4.52-5.63c1.53 0 2.69.69 3.24 1.96h.31v-.07c0-1.22.66-1.89 1.85-1.89s1.86.67 1.86 1.89v5.04c0 1.02.39 1.61 1.09 1.61 1.06 0 1.71-1.44 1.71-3.63 0-5.03-3.21-8.24-8.24-8.24s-8.94 3.6-8.94 8.98 3.74 8.87 9.64 8.87c.69 0 1.13-.03 1.53-.06.27-.01.5-.03.78-.03 1.01 0 1.44.5 1.44 1.26 0 .67-.28 1.02-.87 1.27-.6.25-1.53.35-3.28.35-7.42 0-12.41-4.66-12.41-11.72s4.96-11.71 12.1-11.71Zm1.34 11.89c0-1.64-.67-2.62-1.75-2.62s-1.75.98-1.75 2.62.64 2.58 1.75 2.58 1.75-.95 1.75-2.58m10.04-28.21c-.41 0-.83-.13-1.19-.39-11.35-8.37-23.26-.31-23.76.03a2 2 0 0 1-2.29-3.28c.15-.1 14.73-10.06 28.42.03a2 2 0 0 1-1.19 3.61Zm2-9.67c-.41 0-.83-.13-1.19-.39-13.28-9.79-27.18-.37-27.76.03a2 2 0 0 1-2.29-3.28c.17-.12 16.81-11.48 32.42.03.89.65 1.08 1.91.42 2.8-.39.53-1 .81-1.61.81Z" class="cls-5"/><path d="M44.41 26.52c-.41 0-.83-.13-1.19-.39-17.28-12.73-35.32-.5-36.08.03-.91.63-2.15.41-2.78-.5a2 2 0 0 1 .49-2.78c.21-.15 21.12-14.43 40.74.03a2 2 0 0 1-1.19 3.61Zm56.56 69.08H11.03C4.95 95.6 0 90.65 0 84.57v-18.7c0-8.65 7.04-15.69 15.69-15.69h80.63c8.65 0 15.69 7.04 15.69 15.69v18.7c0 6.08-4.95 11.03-11.03 11.03ZM15.69 54.18C9.25 54.18 4 59.42 4 65.87v18.7c0 3.87 3.15 7.03 7.03 7.03h89.95c3.87 0 7.03-3.15 7.03-7.03v-18.7c0-6.44-5.24-11.69-11.69-11.69z" class="cls-5"/></g></svg>