<?xml version="1.0" encoding="UTF-8"?>
<svg id="flatten_icons" data-name="flatten icons" xmlns="http://www.w3.org/2000/svg" viewBox="0 0 112 112">
  <defs>
    <style>
      .cls-1 {
        fill: none;
      }

      .cls-1, .cls-2, .cls-3, .cls-4 {
        stroke-width: 0px;
      }

      .cls-2 {
        fill: #73cc64;
      }

      .cls-3 {
        fill: #aad681;
      }

      .cls-4 {
        fill: #004241;
      }
    </style>
  </defs>
  <rect class="cls-1" width="112" height="112"/>
  <g>
    <g>
      <path class="cls-3" d="m33.03,52.76l19.82,18.53c0-5.84-5.12-20.09-5.12-20.09l5.81-1.78,8.44,24.45c.89-10.02,9.21-23.42,9.21-23.42l7.99,1.5c-4.91,6.14-9.03,20.15-8.51,32.66.42,10.18,5.12,19.82,5.12,19.82,0,0-2.23,5.62-14.03,5.57-13.16-.05-11.14-6.01-11.14-6.01,0,0,2.92-15.37-4.46-26.95-5.89-9.25-18.26-16.71-18.26-16.71"/>
      <path class="cls-4" d="m61.9,112h-.15c-6.23-.03-10.34-1.36-12.2-3.96-1.38-1.94-1.05-3.86-.88-4.49.19-1.14,2.4-15.07-4.19-25.43-5.56-8.74-17.49-16-17.61-16.07-.95-.57-1.25-1.8-.68-2.75.57-.95,1.8-1.25,2.74-.68.52.31,12.85,7.81,18.92,17.35,7.71,12.11,4.86,27.74,4.73,28.4-.02.09-.04.18-.07.27,0,.04-.11.56.34,1.15.51.66,2.4,2.2,8.91,2.23h.14c7.6,0,10.61-2.52,11.61-3.73-1.24-2.82-4.49-10.95-4.85-19.58-.45-10.97,2.52-23.71,7.12-31.35l-3.59-.67c-1.98,3.41-7.53,13.6-8.22,21.37-.08.94-.81,1.69-1.75,1.81-.94.11-1.83-.44-2.13-1.33l-7.81-22.63-1.98.61c1.43,4.2,4.55,13.97,4.55,18.79,0,.8-.47,1.52-1.2,1.83-.73.32-1.58.17-2.16-.37l-19.82-18.53c-.81-.75-.85-2.02-.1-2.83.75-.81,2.02-.85,2.83-.09l15.66,14.64c-1.15-5.05-3.23-11.34-4.21-14.06-.18-.52-.15-1.08.09-1.57.24-.49.68-.86,1.2-1.02l5.81-1.78c1.03-.32,2.12.24,2.48,1.26l6.11,17.69c2.66-8.48,7.68-16.62,7.95-17.06.44-.7,1.26-1.07,2.07-.91l7.99,1.5c.69.13,1.26.61,1.51,1.27.24.66.13,1.4-.31,1.95-4.38,5.47-8.6,18.69-8.07,31.33.4,9.65,4.88,18.94,4.92,19.03.25.5.27,1.09.06,1.61-.11.28-2.86,6.83-15.75,6.83Z"/>
    </g>
    <g>
      <path class="cls-2" d="m86.9,36.55c4.18-6.41,2.75-15.04-3.45-19.72-1.64-1.23-3.45-2.05-5.32-2.51,0-.08.01-.17.01-.25,0-3.91-3.17-7.08-7.08-7.08-.8,0-1.56.14-2.27.38-.74-1.06-1.64-2.03-2.72-2.85-5.52-4.16-13.38-3.06-17.54,2.46-.82,1.09-1.43,2.27-1.85,3.49-6-2.4-13.08-.63-17.16,4.78-4.88,6.47-3.58,15.67,2.89,20.55.59.44,1.2.82,1.83,1.16-.04.05-.08.09-.11.14-4.16,5.52-3.06,13.38,2.46,17.54,4.45,3.35,10.4,3.28,14.72.25.59.7,1.26,1.34,2.02,1.91,5.36,4.04,12.91,3.11,17.16-2.01,5.42,3.2,12.49,1.9,16.36-3.24,3.42-4.54,3.28-10.65.05-15Z"/>
      <path class="cls-4" d="m60.85,61.32c-3.04,0-6.11-.96-8.72-2.93-.39-.3-.78-.62-1.14-.96-4.95,2.66-11.02,2.24-15.6-1.2-3.1-2.33-5.1-5.74-5.64-9.58-.45-3.17.15-6.33,1.69-9.08-.08-.06-.15-.11-.23-.17-7.34-5.53-8.81-16.01-3.28-23.35,4.11-5.46,11.14-7.8,17.63-6.06.39-.78.85-1.52,1.37-2.21,4.82-6.4,13.94-7.67,20.34-2.86.84.64,1.62,1.37,2.31,2.19.49-.08.99-.12,1.48-.12,4.58,0,8.37,3.4,8.99,7.81,1.67.57,3.21,1.38,4.6,2.43,6.61,4.98,8.5,14.09,4.61,21.25,3.03,5.02,2.76,11.52-.82,16.27-4.12,5.47-11.42,7.27-17.53,4.51-2.77,2.67-6.4,4.06-10.07,4.06Zm-9.54-8.44c.57,0,1.13.24,1.53.71.52.61,1.09,1.16,1.69,1.61,4.49,3.38,10.82,2.64,14.41-1.69.63-.76,1.71-.94,2.56-.44,4.61,2.73,10.52,1.56,13.75-2.73,2.79-3.7,2.81-8.88.04-12.6-.5-.67-.53-1.58-.07-2.29,3.63-5.56,2.32-13.04-2.98-17.03-1.35-1.02-2.9-1.74-4.59-2.16-.92-.23-1.56-1.07-1.52-2.01v-.17c.01-2.81-2.27-5.09-5.07-5.09-.55,0-1.1.09-1.63.27-.85.29-1.78-.02-2.29-.75-.65-.94-1.42-1.74-2.29-2.4-4.63-3.49-11.24-2.56-14.74,2.07-.66.88-1.19,1.87-1.55,2.93-.18.52-.56.94-1.06,1.17-.5.23-1.07.24-1.58.04-5.3-2.12-11.39-.42-14.82,4.13-4.21,5.58-3.09,13.54,2.49,17.75.45.34.95.65,1.58,1,.52.28.88.78,1,1.35s-.02,1.17-.38,1.64c-.02.03-.1.12-.13.15-3.46,4.59-2.53,11.2,2.11,14.69,3.65,2.75,8.63,2.84,12.37.21.35-.24.75-.36,1.15-.36Z"/>
    </g>
    <g>
      <path class="cls-2" d="m49.29,46.04c0-3.55-2.73-6.45-6.2-6.74.23-.8.36-1.64.36-2.52,0-5.11-4.14-9.25-9.25-9.25-4.32,0-7.93,2.96-8.95,6.96-.17.07-.35.13-.52.21-1.24-1.34-3-2.19-4.97-2.19-3.74,0-6.76,3.03-6.76,6.76,0,2.17,1.03,4.1,2.62,5.33-3.06,1.89-5.1,5.26-5.1,9.12,0,5.92,4.8,10.71,10.71,10.71,3.99,0,7.46-2.19,9.31-5.42,1.24,1.52,3.13,2.49,5.24,2.49,3.74,0,6.76-3.03,6.76-6.76"/>
      <path class="cls-4" d="m21.21,66.44c-7.01,0-12.71-5.7-12.71-12.71,0-3.62,1.51-6.97,4.12-9.36-1.05-1.47-1.63-3.23-1.63-5.09,0-4.83,3.93-8.76,8.76-8.76,1.56,0,3.08.42,4.41,1.2,1.88-3.73,5.72-6.17,10.03-6.17,6.2,0,11.25,5.05,11.25,11.25,0,.33-.01.65-.04.98,3.43,1.2,5.89,4.5,5.89,8.27,0,1.1-.9,2-2,2s-2-.9-2-2c0-2.46-1.92-4.54-4.37-4.74-.6-.05-1.14-.36-1.48-.85-.34-.49-.44-1.11-.28-1.68.19-.66.28-1.32.28-1.97,0-4-3.25-7.25-7.25-7.25-3.31,0-6.19,2.24-7.01,5.45-.16.63-.61,1.14-1.22,1.37l-.11.04c-.11.04-.22.08-.32.13-.78.34-1.7.16-2.28-.48-.92-1-2.16-1.54-3.5-1.54-2.63,0-4.76,2.14-4.76,4.76,0,1.47.67,2.84,1.84,3.76.52.4.8,1.03.77,1.69s-.39,1.25-.95,1.59c-2.6,1.61-4.15,4.38-4.15,7.41,0,4.81,3.91,8.71,8.71,8.71,3.12,0,6.02-1.69,7.57-4.41.33-.57.91-.95,1.57-1,.66-.06,1.3.22,1.72.73.91,1.12,2.26,1.76,3.69,1.76,2.63,0,4.76-2.14,4.76-4.76,0-1.1.9-2,2-2s2,.9,2,2c0,4.83-3.93,8.76-8.76,8.76-1.78,0-3.48-.53-4.91-1.5-2.39,2.78-5.91,4.43-9.64,4.43Z"/>
    </g>
    <g>
      <path class="cls-2" d="m72.44,49.61c3.05,0,5.77-1.41,7.54-3.61,1.51,1.94,3.87,3.19,6.52,3.19,4.57,0,8.27-3.7,8.27-8.27,0-.9-.15-1.76-.41-2.57,4.12-1.12,7.15-4.87,7.15-9.34,0-5.35-4.34-9.69-9.69-9.69-.49,0-.96.05-1.42.12,0-.04,0-.08,0-.12,0-4.57-3.7-8.27-8.27-8.27-3.68,0-6.79,2.4-7.86,5.72-.59-.13-1.2-.21-1.82-.21-4.44,0-8.04,3.49-8.25,7.88-4.13.46-7.34,3.96-7.34,8.21"/>
      <path class="cls-4" d="m72.44,51.61c-1.1,0-2-.9-2-2s.9-2,2-2c2.33,0,4.51-1.05,5.98-2.87.38-.47.98-.77,1.57-.74.61,0,1.19.29,1.56.77,1.2,1.54,3,2.42,4.94,2.42,3.46,0,6.27-2.81,6.27-6.27,0-.66-.11-1.31-.31-1.95-.17-.52-.12-1.09.14-1.57s.71-.84,1.24-.98c3.34-.91,5.67-3.96,5.67-7.41,0-4.24-3.45-7.69-7.69-7.69-.34,0-.7.03-1.13.09-.58.08-1.17-.09-1.61-.47-.44-.39-.69-.95-.68-1.53,0-.04,0-.14,0-.18,0-3.37-2.82-6.19-6.27-6.19-2.73,0-5.12,1.74-5.96,4.34-.32.98-1.33,1.56-2.34,1.33-3.97-.9-7.46,2.01-7.64,5.81-.05.98-.8,1.78-1.78,1.89-3.17.36-5.56,3.03-5.56,6.23,0,1.1-.9,2-2,2s-2-.9-2-2c0-4.69,3.15-8.7,7.54-9.9,1-4.89,5.46-8.49,10.63-8.17,1.74-3.36,5.22-5.53,9.11-5.53,0,0,0,0,0,0,4.98,0,9.15,3.56,10.08,8.28,6.27.21,11.3,5.37,11.3,11.68,0,4.61-2.73,8.74-6.82,10.62.06.43.08.86.08,1.3,0,5.66-4.61,10.27-10.27,10.27-2.42,0-4.7-.83-6.52-2.34-2.09,1.77-4.74,2.76-7.54,2.76Z"/>
    </g>
    <g>
      <path class="cls-3" d="m49.29,78.52s-5-1.48-8.55,1.19,1.97,6.5,8.55,4.02"/>
      <path class="cls-4" d="m45.08,86.53c-3.32,0-5.97-1.34-6.98-3.17-.98-1.79-.42-3.85,1.43-5.25,4.31-3.24,10.08-1.58,10.33-1.51,1.06.31,1.66,1.43,1.35,2.49-.31,1.06-1.42,1.66-2.48,1.35-.06-.02-4.12-1.15-6.79.87-.13.1-.21.18-.26.23.55.68,3.31,1.67,6.91.32,1.04-.39,2.19.14,2.58,1.17.39,1.03-.13,2.19-1.17,2.58-1.72.64-3.38.93-4.91.93Z"/>
    </g>
    <g>
      <path class="cls-3" d="m70.28,83.54s4.38-2.84,4.65-7.28-6.22-2.72-8.61,3.89"/>
      <path class="cls-4" d="m70.28,85.54c-.65,0-1.3-.32-1.68-.91-.6-.92-.34-2.16.58-2.76.05-.03,3.54-2.38,3.75-5.72,0-.16,0-.27,0-.35-.88.02-3.42,1.43-4.73,5.04-.38,1.04-1.53,1.57-2.56,1.2-1.04-.38-1.58-1.52-1.2-2.56,1.98-5.48,6.44-8.21,9.43-7.58,2,.42,3.2,2.18,3.06,4.49-.33,5.38-5.35,8.69-5.56,8.83-.34.22-.71.32-1.09.32Z"/>
    </g>
  </g>
</svg>