<svg xmlns="http://www.w3.org/2000/svg" id="outline_icons" viewBox="0 0 112 112"><defs><style>.cls-4{fill:#87634b}.cls-6{fill:#edb964}.cls-7{fill:#a07f68}.cls-8{fill:#004241}</style></defs><g id="brownie"><path d="M0 0h112v112H0z" style="fill:none"/><path d="M44.41 91.46 12.82 67.43V39.29l31.59 24.03z" style="fill:#8e6b54"/><path d="M44.41 93.46c-.43 0-.86-.14-1.21-.41L11.62 69.02c-.5-.38-.79-.97-.79-1.59V39.28a2 2 0 0 1 3.21-1.59l31.58 24.03c.5.38.79.97.79 1.59v28.15a2 2 0 0 1-2 2M14.82 66.44 42.4 87.43V64.31L14.82 43.32z" class="cls-8"/><path d="m12.82 38.97 54.16-19.18c1.63-.58 3.43-.29 4.8.77l29.39 22.66-56.77 20.1-31.58-24.03" style="fill:#b29079"/><path d="M44.41 65.32c-.43 0-.86-.14-1.21-.41L11.62 40.88c-.56-.43-.83-1.1-.78-1.75-.07-.88.45-1.74 1.33-2.05L66.33 17.9c2.28-.8 4.78-.41 6.69 1.07l29.39 22.66c.58.45.87 1.18.75 1.9a2.01 2.01 0 0 1-1.31 1.57L45.08 65.2c-.22.08-.44.11-.67.11Zm-27.72-25.6 28.07 21.35 52.29-18.52-26.48-20.42c-.83-.64-1.92-.82-2.91-.46L16.7 39.72Z" class="cls-8"/><path d="M50.65 36.93s11.1-.72 15.57-4.32 17.86-2.58 17.86-2.58" class="cls-7"/><path d="M50.64 38.93c-1.05 0-1.92-.81-1.99-1.87a2.01 2.01 0 0 1 1.87-2.13c2.91-.19 11.19-1.26 14.44-3.88 4.94-3.99 17.82-3.13 19.27-3.02 1.1.08 1.93 1.04 1.84 2.15-.08 1.1-1.05 1.92-2.15 1.84-4.88-.37-13.65-.12-16.45 2.14-4.82 3.89-15.49 4.68-16.69 4.76h-.13Z" class="cls-8"/><path d="M31.14 53.22s5.73-4.48 13.27-4.91c7.53-.43 22.52-3.75 25.26-5.62" class="cls-7"/><path d="M31.14 55.22c-.6 0-1.19-.26-1.58-.77-.68-.87-.52-2.12.35-2.8.25-.2 6.32-4.87 14.38-5.33 7.61-.44 22-3.74 24.25-5.27.91-.62 2.16-.39 2.78.52s.39 2.16-.52 2.78c-3.23 2.21-18.88 5.54-26.28 5.97-6.78.39-12.1 4.45-12.15 4.49-.36.28-.8.42-1.22.42Z" class="cls-8"/><path d="M23.93 56.42c-1.17-1.31-3.35-.83-3.93.83-.39 1.11-.64 2.64-.34 4.61.72 4.76 1.3 5.87 3.46 3.51 1.72-1.87 3.07-6.44.82-8.96Z" class="cls-6"/><path d="M21.41 68.57q-.375 0-.78-.12c-1.95-.59-2.43-2.88-2.95-6.29-.31-2.02-.16-3.9.43-5.58a4.37 4.37 0 0 1 3.29-2.84c1.51-.3 3.01.2 4.02 1.34 3.01 3.37 1.54 9.05-.83 11.64-.54.59-1.69 1.85-3.18 1.85m.84-10.91h-.08c-.08.02-.23.07-.29.24-.37 1.06-.46 2.28-.25 3.65.13.86.25 1.52.35 2.02.99-1.48 1.75-4.39.46-5.84-.02-.03-.08-.08-.19-.08Z" class="cls-8"/><path d="M101.18 43.88 44.41 63.31v28.15l6.04-2.17c1.18-.43 2.48-.1 3.39.77l.02.02c2.78 2.67 9.17 4.44 12.29.38.83-1.08.84-2.32.41-3.49-.62-1.69.23-3.56 1.92-4.17l32.7-11.77z" class="cls-4"/><path d="M60.94 94.85c-3.03 0-6.35-1.29-8.47-3.33-.39-.38-.9-.5-1.34-.35l-6.04 2.17c-.61.22-1.29.13-1.83-.25-.53-.38-.85-.99-.85-1.64V63.3c0-.85.54-1.62 1.35-1.89l56.77-19.43c.61-.21 1.28-.11 1.81.27.52.38.84.98.84 1.63v27.15c0 .84-.53 1.6-1.32 1.88l-32.7 11.77c-.3.11-.54.33-.68.62-.14.31-.16.65-.04.98.72 1.96.47 3.88-.71 5.4-1.44 1.87-3.53 2.96-6.03 3.15-.25.02-.5.03-.76.03Zm-9.41-7.75c1.35 0 2.67.53 3.7 1.52 1.29 1.24 3.81 2.4 6.18 2.21 1.36-.1 2.42-.64 3.16-1.6.14-.18.47-.61.12-1.58-.49-1.33-.43-2.77.17-4.04a5.17 5.17 0 0 1 2.95-2.69l31.38-11.29V46.69L46.42 64.76v23.87l3.36-1.21c.57-.21 1.16-.31 1.75-.31Z" class="cls-8"/><path d="M46.77 71.51c-1.71-1.31-4.9-.83-5.76.83-.57 1.11-.94 2.64-.5 4.61 1.05 4.76 1.9 5.87 5.06 3.51 2.51-1.87 4.49-6.44 1.19-8.96Z" class="cls-6"/><path d="M43.06 83.67c-.38 0-.76-.06-1.15-.21-2.02-.75-2.72-3.19-3.35-6.07-.47-2.13-.24-4.2.67-5.96.63-1.23 1.92-2.14 3.54-2.5 1.9-.42 3.85-.05 5.21.99 1.64 1.25 2.53 3.06 2.52 5.09-.02 2.97-1.89 5.68-3.73 7.06-1.04.78-2.34 1.59-3.71 1.59Zm1.24-10.91c-.22 0-.44.02-.66.07-.59.13-.83.38-.86.43-.49.94-.59 2.04-.32 3.26.39 1.78.68 2.62.87 3.02.21-.11.55-.31 1.04-.68 1.2-.9 2.11-2.56 2.12-3.88 0-.79-.3-1.39-.95-1.89-.29-.22-.75-.34-1.25-.34Z" class="cls-8"/><path d="M72.26 69.92c1.19-1.55.49-4.18-1.22-4.77-1.15-.39-2.69-.57-4.63-.05-4.67 1.27-5.72 2.07-3.16 4.54 2.04 1.96 6.72 3.25 9.01.28" class="cls-6"/><path d="M68.45 73.68c-2.35 0-4.93-1-6.59-2.59-.71-.69-2.39-2.3-1.89-4.26.52-2.04 2.77-2.8 5.9-3.65 2.06-.56 4.01-.53 5.81.08 1.37.47 2.47 1.67 2.93 3.21.5 1.65.21 3.4-.77 4.68-1.15 1.5-2.81 2.36-4.81 2.51-.19.01-.39.02-.59.02Zm-4.15-5.81q.135.15.33.33c.83.8 2.54 1.59 4.11 1.47.85-.06 1.48-.38 1.93-.96.19-.24.23-.68.11-1.08-.1-.32-.27-.53-.39-.58-1.03-.35-2.19-.35-3.46 0-1.34.36-2.14.64-2.63.83Z" class="cls-8"/><path d="M91.5 89.71c1.19-1.55.08-3.52-1.22-4.77-1.64-1.57-2.84-1.99-4.78-1.47-4.67 1.27-5.57 3.49-3.01 5.96 2.04 1.96 6.72 3.25 9.01.28" class="cls-4"/><path d="M87.69 93.46c-2.35 0-4.93-1-6.59-2.59-2.11-2.03-2.2-3.83-1.9-4.99.5-1.98 2.45-3.44 5.77-4.34 2.58-.7 4.52-.14 6.69 1.95 2.5 2.4 3.05 5.31 1.42 7.43-1.15 1.5-2.81 2.36-4.8 2.51-.19.01-.39.02-.59.02Zm-4.61-6.59s.04.38.8 1.11c.83.8 2.55 1.58 4.11 1.46.85-.06 1.48-.38 1.93-.97.31-.4-.29-1.4-1.02-2.11-1.31-1.25-1.83-1.26-2.87-.98-2.6.71-2.94 1.46-2.94 1.47Z" class="cls-8"/><path d="M27.97 88.54c.44-2.45-1.97-4.04-4.19-4.69-2.78-.82-4.4-.59-6.29 1.15-4.55 4.18-4.27 7.23.09 8.52 3.46 1.02 9.53-.26 10.38-4.98Z" class="cls-4"/><path d="M20.05 95.85c-1.05 0-2.08-.14-3.03-.42-3.32-.98-4.39-2.79-4.7-4.13-.54-2.33.75-4.95 3.83-7.78 2.74-2.52 5.26-2.46 8.21-1.59 3.95 1.17 6.14 3.9 5.59 6.96-.4 2.21-1.68 4.05-3.72 5.3-1.75 1.08-4 1.66-6.17 1.66Zm1.12-10.46c-.93 0-1.54.37-2.31 1.08-2.31 2.12-2.74 3.47-2.64 3.93.08.33.62.81 1.94 1.2 1.56.46 4.11.33 5.97-.81 1.05-.65 1.69-1.53 1.88-2.6.27-1.5-2.66-2.38-2.79-2.42-.86-.25-1.51-.38-2.05-.38" class="cls-8"/><path d="M93.22 60.18c0 2.39-1.61 4.32-3.59 4.32s-5.56-2.85-5.56-5.24 3.58-3.4 5.56-3.4 3.59 1.93 3.59 4.32" class="cls-6"/><path d="M89.63 66.5c-3.12 0-7.56-3.74-7.56-7.24 0-3.73 4.42-5.4 7.56-5.4s5.58 2.83 5.58 6.32-2.51 6.32-5.58 6.32m0-8.64c-1.65 0-3.56.85-3.56 1.4 0 1.11 2.53 3.24 3.56 3.24.84 0 1.58-1.08 1.58-2.32s-.74-2.32-1.58-2.32" class="cls-8"/><ellipse cx="33.78" cy="40.99" class="cls-4" rx="3.35" ry="1.7"/><ellipse cx="56" cy="30.28" class="cls-4" rx="3.35" ry="1.7"/><ellipse cx="80.36" cy="38.63" class="cls-4" rx="3.35" ry="1.7"/><path d="M52.65 70.76c.22 1.98.46 10.95 0 12.63s3.09 2.76 4.35 3.97 3.01-.92 1.39-4.1-1.03-6.96-1.39-9.79-4.97-8.39-4.35-2.71M31.14 64.5c.41 2.22 2.55 10.22 0 8.42s-5.01-2.82-6.02-2.16 7.26 6.05 9.66 8.34-.2-4.69 1-6.88c.8-1.47.56-5.16.31-7.45a3.39 3.39 0 0 0-2.42-2.9c-1.47-.43-3.05-.29-2.52 2.62Z" style="fill:#6b503d"/></g></svg>