<?xml version="1.0" encoding="UTF-8"?>
<svg id="flatten_icons" xmlns="http://www.w3.org/2000/svg" viewBox="0 0 112 112">
  <defs>
    <style>
      .cls-1 {
        fill: none;
      }

      .cls-2 {
        fill: #f2cd8c;
      }

      .cls-3 {
        fill: #f2e2c4;
      }

      .cls-4 {
        fill: #d1a47c;
      }

      .cls-5 {
        fill: #e8b782;
      }

      .cls-6 {
        fill: #e28430;
      }

      .cls-7 {
        fill: #edccb0;
      }

      .cls-8 {
        fill: #aad681;
      }

      .cls-9 {
        fill: #004241;
      }

      .cls-10 {
        fill: #ea6359;
      }

      .cls-11 {
        fill: #fce1b1;
      }
    </style>
  </defs>
  <g id="burgerpoulet">
    <g>
      <g>
        <path class="cls-5" d="M10.51,68.76v9.6c0,12.15,20.15,22,45,22s45-9.85,45-22v-9.6H10.51"/>
        <path class="cls-9" d="M55.51,102.37c-26.35,0-47-10.54-47-24v-9.6c0-1.1.9-2,2-2h90c1.1,0,2,.9,2,2v9.6c0,13.46-20.65,24-47,24ZM12.51,70.76v7.6c0,10.84,19.69,20,43,20s43-9.16,43-20v-7.6H12.51Z"/>
      </g>
      <g>
        <ellipse class="cls-3" cx="55.51" cy="68.76" rx="45" ry="22"/>
        <path class="cls-9" d="M55.51,92.76c-26.35,0-47-10.54-47-24s20.65-24,47-24,47,10.54,47,24-20.65,24-47,24ZM55.51,48.76c-23.31,0-43,9.16-43,20s19.69,20,43,20,43-9.16,43-20-19.69-20-43-20Z"/>
      </g>
      <g>
        <path class="cls-6" d="M104.8,70.4l-9.63-11.62-81.35,10.26,21.88,20.34,4.77,4.04c2.43,2.06,5.91,2.29,8.59.58l4.51-2.88,7.07-2.66,1.07-.4c3.97-1.49,8.21,1.44,8.21,5.69v5.38c0,2.61,2.12,4.73,4.73,4.73h0c2.61,0,4.73-2.12,4.73-4.73v-11.88c0-3.52,2.25-6.66,5.59-7.78.96-.32,1.88-.62,2.6-.84,3.55-1.07,7.15-1.99,10.79-2.75l4.89-1.02c2.03-.42,2.88-2.85,1.56-4.45Z"/>
        <path class="cls-9" d="M74.65,105.85c-3.71,0-6.73-3.02-6.73-6.73v-5.38c0-1.36-.64-2.58-1.76-3.35-1.12-.77-2.48-.94-3.75-.46l-7.94,2.99-4.33,2.77c-3.44,2.2-7.84,1.9-10.96-.73l-4.77-4.04-21.95-20.4c-.57-.53-.78-1.34-.54-2.08.24-.74.88-1.27,1.65-1.37l81.35-10.26c.68-.09,1.35.18,1.79.71l9.62,11.62c1.07,1.29,1.38,3.01.83,4.6-.55,1.59-1.87,2.74-3.51,3.08l-4.89,1.02c-3.56.74-7.13,1.65-10.62,2.71-.7.21-1.6.5-2.54.82-2.53.85-4.23,3.21-4.23,5.88v11.89c0,3.71-3.02,6.73-6.73,6.73ZM63.85,85.66c1.62,0,3.23.49,4.6,1.44,2.18,1.51,3.48,3.99,3.48,6.64v5.38c0,1.51,1.23,2.73,2.73,2.73s2.73-1.23,2.73-2.73v-11.89c0-4.39,2.79-8.28,6.95-9.67.98-.33,1.92-.64,2.65-.86,3.6-1.09,7.29-2.03,10.96-2.79l4.89-1.02c.36-.08.5-.34.56-.49s.1-.44-.13-.73h0l-8.92-10.78-76.01,9.59,18.74,17.43,4.7,3.98c1.77,1.5,4.27,1.66,6.22.42l4.51-2.88c.12-.08.24-.14.37-.19l8.14-3.06c.92-.35,1.88-.52,2.84-.52Z"/>
      </g>
      <g>
        <path class="cls-7" d="M106.45,59.78c0,15.28-26.07,19.12-50.45,23.96-28.54,5.66-50.78-3.1-50.78-19.94s25.44-26.02,50.29-26.02,50.94,6.72,50.94,22Z"/>
        <path class="cls-9" d="M39.33,87.45c-11.88,0-21.99-2.81-28.53-8.18-4.95-4.07-7.57-9.42-7.57-15.47,0-8.66,5.87-15.97,16.98-21.14,9.41-4.38,22.28-6.88,35.31-6.88,26.35,0,52.94,7.42,52.94,24s-23.7,20.4-46.63,24.85c-1.81.35-3.63.71-5.44,1.06-5.94,1.18-11.68,1.75-17.06,1.75ZM55.51,39.78c-31.37,0-48.29,12.38-48.29,24.02,0,4.88,2.06,9.05,6.11,12.38,8.59,7.05,24.39,9.14,42.28,5.6,1.81-.36,3.63-.71,5.45-1.07,21.33-4.14,43.39-8.43,43.39-20.93,0-13.74-25.37-20-48.94-20Z"/>
      </g>
      <path class="cls-4" d="M29.59,77.52c-.7,0-1.38-.37-1.74-1.02l-10.78-19.06c-.54-.96-.2-2.18.76-2.73.96-.54,2.18-.2,2.73.76l10.78,19.06c.54.96.2,2.18-.76,2.73-.31.18-.65.26-.98.26Z"/>
      <path class="cls-4" d="M47.26,77.26c-.69,0-1.37-.36-1.74-1.01l-10.58-18.54c-.55-.96-.21-2.18.75-2.73.96-.55,2.18-.21,2.73.75l10.58,18.54c.55.96.21,2.18-.75,2.73-.31.18-.65.26-.99.26Z"/>
      <g>
        <path class="cls-8" d="M5.49,45.18c1.34-4.78,7.31-7.27,13.33-5.58,0,0,.01,0,.02,0,1.14.32,2.37.35,3.47-.12,4.41-1.88,10.27-1.63,15.69,1.13,3.65,1.86,6.49,4.56,8.28,7.55.98,1.64,2.74,2.71,4.65,2.63,1.39-.06,2.86.11,4.33.52.87.24,1.69.56,2.46.94,2.02,1.01,4.45.49,6.06-1.09,2.16-2.11,4.98-3.84,8.28-4.89,2.26-.72,4.52-1.04,6.68-1.03,1.65.01,3.25-.66,4.24-1.98,1.92-2.56,4.89-4.7,8.53-5.85,7.72-2.45,15.52.4,17.41,6.38,1.9,5.98-2.82,12.81-10.54,15.26-.97.31-1.95.53-2.92.68-1.65.25-3.09,1.3-3.85,2.8-2.03,4.01-6.14,7.5-11.48,9.2-6.46,2.05-12.97.94-16.98-2.41-1.37-1.15-3.27-1.45-4.96-.86-2.3.81-5.05.92-7.82.14-1.68-.47-3.18-1.22-4.44-2.16-1.44-1.07-3.35-1.27-5.03-.65-4.33,1.6-9.9,1.24-15.06-1.4-2.73-1.39-4.99-3.25-6.72-5.35-.82-1-2.03-1.6-3.31-1.77-.62-.09-1.24-.21-1.87-.39-6.02-1.7-9.81-6.94-8.46-11.72Z"/>
        <path class="cls-9" d="M73.59,74.78c-4.46,0-8.63-1.34-11.71-3.91-.81-.68-1.97-.87-3.02-.5-2.77.97-5.97,1.04-9.02.18-1.87-.53-3.58-1.36-5.09-2.48-.85-.63-2.06-.78-3.15-.38-4.99,1.84-11.22,1.29-16.67-1.49-2.86-1.46-5.4-3.49-7.35-5.86-.47-.57-1.19-.94-2.04-1.06-.73-.1-1.45-.25-2.14-.45-7.07-1.99-11.48-8.35-9.84-14.18h0c1.64-5.83,8.73-8.95,15.8-6.96.58.17,1.41.29,2.16-.03,5.13-2.19,11.63-1.75,17.38,1.19,3.88,1.98,7.02,4.85,9.08,8.3.64,1.07,1.75,1.69,2.85,1.66,1.64-.07,3.31.13,4.95.59.97.27,1.91.64,2.8,1.08,1.2.6,2.72.3,3.78-.73,2.46-2.4,5.59-4.26,9.07-5.37,2.4-.76,4.86-1.14,7.3-1.12,1.1.03,2.07-.43,2.63-1.18,2.25-2.99,5.63-5.32,9.53-6.56,4.15-1.32,8.48-1.3,12.18.06,3.88,1.42,6.63,4.13,7.74,7.62,2.23,7.02-3.08,14.99-11.84,17.77-1.06.34-2.15.59-3.23.75-1.01.15-1.89.79-2.36,1.72-2.36,4.68-6.98,8.39-12.66,10.2-2.39.76-4.81,1.13-7.16,1.13ZM59.92,66.18c1.64,0,3.24.56,4.51,1.61,3.61,3.01,9.54,3.81,15.1,2.04,4.6-1.46,8.45-4.52,10.3-8.19,1.05-2.08,3.05-3.53,5.34-3.87.87-.13,1.75-.33,2.61-.61,6.66-2.12,10.8-7.83,9.24-12.75-.73-2.29-2.61-4.09-5.31-5.08-2.88-1.05-6.28-1.05-9.6,0-3.11.99-5.79,2.82-7.54,5.15-1.32,1.76-3.53,2.8-5.86,2.77-2.01-.02-4.06.3-6.06.93-2.89.92-5.48,2.44-7.49,4.41-2.27,2.22-5.63,2.81-8.35,1.45-.67-.33-1.38-.61-2.11-.81-1.23-.35-2.48-.49-3.7-.45-2.59.11-5.05-1.27-6.45-3.6-1.66-2.77-4.31-5.18-7.47-6.8-4.71-2.4-9.94-2.81-13.99-1.08-1.44.62-3.1.69-4.8.21-4.97-1.4-9.84.48-10.88,4.19h0c-1.04,3.71,2.13,7.85,7.08,9.25.52.15,1.06.26,1.6.33,1.85.25,3.47,1.14,4.58,2.48,1.6,1.95,3.71,3.62,6.08,4.84,4.46,2.28,9.49,2.77,13.46,1.3,2.38-.88,4.96-.53,6.92.91,1.12.83,2.39,1.45,3.79,1.84,2.27.64,4.61.6,6.61-.1.78-.27,1.59-.41,2.39-.41Z"/>
      </g>
      <g>
        <ellipse class="cls-10" cx="85.02" cy="50.66" rx="15.61" ry="12.36"/>
        <path class="cls-9" d="M85.02,65.02c-9.71,0-17.61-6.44-17.61-14.36s7.9-14.36,17.61-14.36,17.61,6.44,17.61,14.36-7.9,14.36-17.61,14.36ZM85.02,40.3c-7.5,0-13.61,4.65-13.61,10.36s6.1,10.36,13.61,10.36,13.61-4.65,13.61-10.36-6.1-10.36-13.61-10.36Z"/>
      </g>
      <g>
        <path class="cls-2" d="M100.51,37.01c0,12.15-20.15,22-45,22S10.51,49.16,10.51,37.01,19.98,5.01,55.51,5.01c37.42,0,45,19.85,45,32Z"/>
        <path class="cls-9" d="M55.51,61.01c-26.35,0-47-10.54-47-24C8.51,24.39,18.41,3.01,55.51,3.01c43.61,0,47,26.02,47,34,0,13.46-20.65,24-47,24ZM55.51,7.01C13.71,7.01,12.51,33.94,12.51,37.01c0,10.84,19.69,20,43,20s43-9.16,43-20c0-7.04-3.1-30-43-30Z"/>
      </g>
      <path class="cls-4" d="M82.74,19.54c-.07.28-.12.56-.14.85-.55,6.79,1.65,10.65-4.78,15.48-6.43,4.84-27.85,6.77-40.37,4.29-4.66-.92-8.89-.74-12.36-.14-2.44.42-2.83,3.74-.58,4.76,7.61,3.44,18.58,5.6,30.79,5.6s23.16-2.16,30.77-5.59c1.82-.82,3.43-2.09,4.53-3.76.93-1.41,1.43-2.9,1.43-4.44,0-5.07-2.03-11.86-9.28-17.06Z"/>
      <path class="cls-11" d="M77.45,25.57c0,2.26-1.84,3.1-4.1,3.1s-4.1-.84-4.1-3.1,1.84-3.1,4.1-3.1,4.1.84,4.1,3.1Z"/>
      <path class="cls-11" d="M61.15,32.47c-1.05,2-3.07,1.89-5.07.84s-3.24-2.64-2.19-4.65,3.07-1.89,5.07-.84,3.24,2.64,2.19,4.65Z"/>
      <path class="cls-11" d="M67.21,19.85c-.73,2.14-2.74,2.34-4.88,1.61s-3.61-2.11-2.88-4.26,2.74-2.34,4.88-1.61,3.61,2.11,2.88,4.26Z"/>
      <path class="cls-11" d="M46.07,17.67c0,2.26-1.84,3.1-4.1,3.1s-4.1-.84-4.1-3.1,1.84-4.1,4.1-4.1,4.1,1.84,4.1,4.1Z"/>
      <path class="cls-11" d="M36.64,27.19c1.9,1.23,1.6,3.23.37,5.13s-2.93,2.98-4.83,1.75-2.44-3.77-1.2-5.67,3.77-2.44,5.67-1.2Z"/>
    </g>
    <rect class="cls-1" width="112" height="112"/>
  </g>
</svg>