<?xml version="1.0" encoding="UTF-8"?>
<svg id="outline_icons" xmlns="http://www.w3.org/2000/svg" viewBox="0 0 112 112">
  <defs>
    <style>
      .cls-1 {
        fill: none;
      }

      .cls-2 {
        fill: #f2cd8c;
      }

      .cls-3 {
        fill: #f2e2c4;
      }

      .cls-4 {
        fill: #d1a47c;
      }

      .cls-5 {
        fill: #e28430;
      }

      .cls-6 {
        fill: #eac781;
      }

      .cls-7 {
        fill: #aad681;
      }

      .cls-8 {
        fill: #d1a579;
      }

      .cls-9 {
        fill: #004241;
      }

      .cls-10 {
        fill: #ea6359;
      }

      .cls-11 {
        fill: #fce1b1;
      }
    </style>
  </defs>
  <g id="burgervegetarien">
    <g>
      <g>
        <path class="cls-8" d="M10.51,68.76v9.6c0,12.15,20.15,22,45,22s45-9.85,45-22v-9.6H10.51"/>
        <path class="cls-9" d="M55.51,102.37c-26.35,0-47-10.54-47-24v-9.6c0-1.1.9-2,2-2h90c1.1,0,2,.9,2,2v9.6c0,13.46-20.65,24-47,24ZM12.51,70.76v7.6c0,10.84,19.69,20,43,20s43-9.16,43-20v-7.6H12.51Z"/>
      </g>
      <g>
        <ellipse class="cls-3" cx="55.51" cy="68.76" rx="45" ry="22"/>
        <path class="cls-9" d="M55.51,92.76c-26.35,0-47-10.54-47-24s20.65-24,47-24,47,10.54,47,24-20.65,24-47,24ZM55.51,48.76c-23.31,0-43,9.16-43,20s19.69,20,43,20,43-9.16,43-20-19.69-20-43-20Z"/>
      </g>
      <g>
        <path class="cls-5" d="M56.67,89.94l22.92-8.63c6.11-2.3,12.38-4.12,18.77-5.45l6.27-1.31c1.4-.29,1.98-1.97,1.07-3.07l-10.53-12.71-79.21.29h0c-6.19,8.18-3.69,19.94,5.29,24.89l12.25,6.75c.8.44,1.53.99,2.17,1.62l1.76,1.73c1.83,4.97,8.33,6.14,11.78,2.12l2.19-2.56c1.41-1.65,3.22-2.92,5.26-3.68Z"/>
        <path class="cls-9" d="M43.98,100.62c-.54,0-1.08-.05-1.62-.15-3-.54-5.45-2.49-6.63-5.27l-1.46-1.44c-.52-.51-1.1-.95-1.73-1.29l-12.25-6.75c-4.79-2.64-8.19-7.22-9.32-12.57-1.14-5.35.1-10.92,3.41-15.28.38-.5.96-.79,1.59-.79l79.21-.29h0c.6,0,1.16.27,1.54.72l10.53,12.71c.88,1.06,1.13,2.47.68,3.77-.46,1.3-1.53,2.25-2.88,2.53l-6.27,1.31c-6.26,1.31-12.48,3.11-18.47,5.37l-22.93,8.63h0c-1.71.65-3.25,1.72-4.44,3.11l-2.19,2.56c-1.73,2.02-4.17,3.13-6.75,3.13ZM17.01,61.07c-2.18,3.3-2.95,7.35-2.12,11.24.9,4.21,3.57,7.82,7.34,9.9l12.25,6.75c.96.53,1.83,1.18,2.61,1.95l1.76,1.73c.21.21.37.46.47.73.61,1.66,2.02,2.84,3.76,3.15,1.74.31,3.47-.3,4.62-1.65l2.19-2.56c1.63-1.9,3.73-3.37,6.07-4.26l22.92-8.63c6.18-2.33,12.6-4.19,19.06-5.54l6.1-1.27-9.82-11.85-77.23.29ZM56.67,89.94h0,0Z"/>
      </g>
      <g>
        <ellipse class="cls-6" cx="56.41" cy="60.19" rx="45.9" ry="23.18"/>
        <path class="cls-9" d="M56.41,85.38c-26.86,0-47.9-11.06-47.9-25.18s21.04-25.18,47.9-25.18,47.9,11.06,47.9,25.18-21.04,25.18-47.9,25.18ZM56.41,39.01c-23.8,0-43.9,9.7-43.9,21.18s20.11,21.18,43.9,21.18,43.9-9.7,43.9-21.18-20.11-21.18-43.9-21.18Z"/>
      </g>
      <g>
        <path class="cls-7" d="M108.33,42.62c-1.58-4.7-7.67-6.9-13.59-4.91,0,0-.01,0-.02,0-1.13.38-2.35.46-3.47.05-4.5-1.66-10.34-1.12-15.61,1.91-3.55,2.04-6.25,4.87-7.9,7.95-.9,1.68-2.6,2.84-4.51,2.86-1.4.01-2.85.25-4.29.73-.86.29-1.66.65-2.41,1.06-1.97,1.1-4.42.71-6.11-.79-2.26-2-5.17-3.59-8.51-4.47-2.29-.6-4.57-.82-6.72-.69-1.64.1-3.28-.5-4.34-1.76-2.05-2.46-5.12-4.45-8.81-5.42-7.83-2.07-15.48,1.17-17.08,7.23-1.6,6.06.37,15.97,11.28,14.72,1.02-.12,1.97.44,2.95.53,1.66.16,3.16,1.15,3.98,2.6,2.22,3.91,6.5,7.19,11.92,8.62,6.56,1.73,13,.29,16.84-3.25,1.32-1.21,3.2-1.61,4.91-1.1,2.34.69,5.09.67,7.81-.25,1.65-.55,3.11-1.38,4.33-2.38,1.39-1.14,3.28-1.43,4.99-.89,4.4,1.38,10.05,2.74,15.07-.14,2.65-1.53,4.73-5.49,6.34-7.67.77-1.04,1.94-1.69,3.22-1.93.61-.12,1.23-.27,1.84-.48,5.93-1.99,9.45-7.42,7.87-12.12Z"/>
        <path class="cls-9" d="M40.67,75.58c-2,0-4.05-.26-6.09-.8-5.77-1.52-10.56-5.01-13.15-9.56-.51-.9-1.42-1.5-2.44-1.6-.57-.06-1.08-.2-1.53-.33-.38-.11-.78-.22-.99-.2-5.85.67-9.17-1.59-10.92-3.61-3.46-4-3.52-9.83-2.52-13.61,1.88-7.12,10.64-11,19.52-8.66,3.95,1.04,7.45,3.2,9.84,6.08.6.72,1.6,1.12,2.68,1.04,2.44-.14,4.91.11,7.35.76,3.53.93,6.76,2.63,9.33,4.91,1.1.98,2.63,1.2,3.81.54.87-.49,1.79-.89,2.75-1.21,1.61-.54,3.27-.82,4.92-.84,1.12,0,2.18-.7,2.77-1.8,1.89-3.55,4.89-6.57,8.66-8.74,5.6-3.22,12.07-3.98,17.3-2.05.76.28,1.57.12,2.13-.07.01,0,.02,0,.03-.01,3.29-1.11,6.75-1.12,9.74-.04,3.15,1.14,5.42,3.34,6.38,6.21h0c.96,2.86.49,5.99-1.34,8.8-1.73,2.67-4.5,4.74-7.79,5.85-.68.23-1.39.42-2.11.55-.84.16-1.55.57-1.98,1.16-.38.51-.79,1.13-1.22,1.79-1.48,2.25-3.32,5.04-5.73,6.42-5.5,3.17-11.52,1.94-16.67.32-1.1-.35-2.3-.14-3.13.53-1.45,1.19-3.12,2.11-4.96,2.73-3,1.01-6.21,1.11-9.02.27-1.06-.31-2.21-.06-2.99.65-3.2,2.94-7.74,4.51-12.62,4.52ZM16.53,59.07c.79,0,1.48.2,2.05.37.31.09.6.17.81.2,2.3.23,4.37,1.58,5.52,3.6,2.03,3.57,6.03,6.44,10.69,7.67,5.64,1.49,11.52.4,14.98-2.79,1.81-1.67,4.43-2.26,6.83-1.55,2.03.6,4.38.52,6.61-.23,1.38-.46,2.62-1.15,3.7-2.03,1.88-1.55,4.45-2.01,6.86-1.26,4.54,1.43,9.32,2.42,13.48.03,1.58-.91,3.14-3.26,4.38-5.16.48-.73.93-1.41,1.35-1.97,1.04-1.4,2.62-2.36,4.45-2.71.53-.1,1.07-.24,1.58-.41,2.44-.82,4.47-2.32,5.71-4.24,1.15-1.77,1.47-3.67.9-5.35h0c-.57-1.68-1.97-3.01-3.95-3.72-2.14-.77-4.66-.75-7.1.07-.03,0-.06.02-.08.03-1.62.55-3.28.56-4.75.01-4.13-1.53-9.34-.87-13.92,1.77-3.08,1.77-5.61,4.31-7.13,7.16-1.28,2.39-3.68,3.89-6.26,3.92-1.23,0-2.46.22-3.68.63-.72.24-1.41.55-2.06.91-2.65,1.49-6.04,1.07-8.41-1.04-2.11-1.87-4.77-3.26-7.7-4.04-2.03-.54-4.08-.75-6.1-.63-2.35.14-4.58-.79-5.99-2.48-1.86-2.24-4.63-3.94-7.79-4.77-6.75-1.78-13.32.82-14.63,5.81-.78,2.96-.59,7.34,1.68,9.97,1.62,1.88,4.12,2.64,7.44,2.26.18-.02.35-.03.52-.03Z"/>
      </g>
      <g>
        <ellipse class="cls-10" cx="59.89" cy="57.66" rx="15.61" ry="12.36"/>
        <path class="cls-9" d="M59.89,72.02c-9.71,0-17.61-6.44-17.61-14.36s7.9-14.36,17.61-14.36,17.61,6.44,17.61,14.36-7.9,14.36-17.61,14.36ZM59.89,47.3c-7.5,0-13.61,4.65-13.61,10.36s6.1,10.36,13.61,10.36,13.61-4.65,13.61-10.36-6.1-10.36-13.61-10.36Z"/>
      </g>
      <g>
        <path class="cls-2" d="M100.51,37.01c0,12.15-20.15,22-45,22S10.51,49.16,10.51,37.01,19.98,5.01,55.51,5.01c37.42,0,45,19.85,45,32Z"/>
        <path class="cls-9" d="M55.51,61.01c-26.35,0-47-10.54-47-24C8.51,24.39,18.41,3.01,55.51,3.01c43.61,0,47,26.02,47,34,0,13.46-20.65,24-47,24ZM55.51,7.01C13.71,7.01,12.51,33.94,12.51,37.01c0,10.84,19.69,20,43,20s43-9.16,43-20c0-7.04-3.1-30-43-30Z"/>
      </g>
      <path class="cls-4" d="M82.74,19.54c-.07.28-.12.56-.14.85-.55,6.79,1.65,10.65-4.78,15.48-6.43,4.84-27.85,6.77-40.37,4.29-4.66-.92-8.89-.74-12.36-.14-2.44.42-2.83,3.74-.58,4.76,7.61,3.44,18.58,5.6,30.79,5.6s23.16-2.16,30.77-5.59c1.82-.82,3.43-2.09,4.53-3.76.93-1.41,1.43-2.9,1.43-4.44,0-5.07-2.03-11.86-9.28-17.06Z"/>
      <path class="cls-11" d="M58.57,17.17c0,2.26-1.84,3.1-4.1,3.1s-4.1-.84-4.1-3.1,1.84-3.1,4.1-3.1,4.1.84,4.1,3.1Z"/>
      <path class="cls-11" d="M50.45,30.67c-1.05,2-3.07,1.89-5.07.84s-3.24-2.64-2.19-4.65,3.07-1.89,5.07-.84,3.24,2.64,2.19,4.65Z"/>
      <path class="cls-11" d="M76.04,21.58c-.73,2.14-2.74,2.34-4.88,1.61s-3.61-2.11-2.88-4.26,2.74-2.34,4.88-1.61,3.61,2.11,2.88,4.26Z"/>
      <path class="cls-11" d="M41.37,20.04c0,2.26-1.84,3.1-4.1,3.1s-4.1-.84-4.1-3.1,1.84-4.1,4.1-4.1,4.1,1.84,4.1,4.1Z"/>
      <path class="cls-11" d="M65.06,28.65c1.9,1.23,1.6,3.23.37,5.13s-2.93,2.98-4.83,1.75-2.44-3.77-1.2-5.67,3.77-2.44,5.67-1.2Z"/>
    </g>
    <rect class="cls-1" width="112" height="112"/>
  </g>
</svg>