<svg xmlns="http://www.w3.org/2000/svg" id="flatten_icons" data-name="flatten icons" viewBox="0 0 112 112"><defs><style>.cls-4,.cls-5,.cls-7{stroke-width:0}.cls-4{fill:#b8e1ec}.cls-5{fill:#fff}.cls-7{fill:#004241}</style></defs><g id="autocar"><path id="area" d="M0 .61h111.99v112H0z" style="fill:none;stroke-width:0"/><g id="car"><path d="M100.6 92.67h2.53c3.79 0 6.85-3.07 6.85-6.85V30.96c0-7.83-6.35-14.18-14.18-14.18h-7.83l-4.58-4.58a10.4 10.4 0 0 0-7.37-3.05H64.56c-2.77 0-5.42 1.1-7.37 3.05l-3.04 4.58H16.17c-7.83 0-14.18 6.35-14.18 14.18v54.86c0 3.79 3.07 6.85 6.85 6.85h2.2" style="stroke-width:0;fill:#c4d1d5"/><path d="M39.06 70.46a14.16 14.16 0 0 1-4.15-10.02V16.78H16.17c-7.83 0-14.18 6.35-14.18 14.18v54.86c0 3.79 3.07 6.85 6.85 6.85h94.28c3.79 0 6.85-3.07 6.85-6.85V74.61h-60.9c-3.76 0-7.36-1.49-10.02-4.15Z" style="stroke-width:0;fill:#87acaf"/><circle cx="23.48" cy="92.17" r="11.92" class="cls-5"/><path d="M23.48 106.09c-7.68 0-13.92-6.25-13.92-13.92s6.24-13.92 13.92-13.92S37.4 84.5 37.4 92.17s-6.24 13.92-13.92 13.92m0-23.84c-5.47 0-9.92 4.45-9.92 9.92s4.45 9.92 9.92 9.92 9.92-4.45 9.92-9.92-4.45-9.92-9.92-9.92" class="cls-7"/><circle cx="88.48" cy="92.17" r="11.92" class="cls-5"/><path d="M88.48 106.09c-7.68 0-13.92-6.25-13.92-13.92s6.24-13.92 13.92-13.92 13.92 6.25 13.92 13.92-6.24 13.92-13.92 13.92m0-23.84c-5.47 0-9.92 4.45-9.92 9.92s4.45 9.92 9.92 9.92 9.92-4.45 9.92-9.92-4.45-9.92-9.92-9.92" class="cls-7"/><path d="M88.48 98.44c-3.46 0-6.27-2.81-6.27-6.27s2.81-6.27 6.27-6.27 6.27 2.81 6.27 6.27-2.81 6.27-6.27 6.27m0-8.54c-1.25 0-2.27 1.02-2.27 2.27s1.02 2.27 2.27 2.27 2.27-1.02 2.27-2.27-1.02-2.27-2.27-2.27" class="cls-7"/><path d="m109.12 58.61-1.01-.04c-3.73-.08-7.42-.78-10.93-2.07l-7.68-2.83c-1.9-.7-3.17-2.51-3.17-4.54V33.79c0-2.67 2.17-4.84 4.84-4.84h17.94" class="cls-4"/><path d="M23.48 98.44c-3.46 0-6.27-2.81-6.27-6.27s2.81-6.27 6.27-6.27 6.27 2.81 6.27 6.27c0 1.1-.9 2-2 2s-2-.9-2-2c0-1.25-1.02-2.27-2.27-2.27s-2.27 1.02-2.27 2.27 1.02 2.27 2.27 2.27c1.1 0 2 .9 2 2s-.9 2-2 2m85.64-37.83h-.09l-1.01-.04a35.7 35.7 0 0 1-11.53-2.19l-7.68-2.83a6.86 6.86 0 0 1-4.48-6.42V33.79c0-3.77 3.07-6.84 6.84-6.84h17.94c1.1 0 2 .9 2 2s-.9 2-2 2H91.17c-1.56 0-2.84 1.27-2.84 2.84v15.34c0 1.18.75 2.25 1.86 2.66l7.68 2.83a31.7 31.7 0 0 0 10.28 1.95l1.05.04c1.1.05 1.96.98 1.91 2.08a2 2 0 0 1-2 1.91Z" class="cls-7"/><path d="M52.24 75.57h25.48c.17-.53.28-1.08.28-1.64V33.78c0-2.67-2.17-4.84-4.84-4.84H3.54l.44 19.05h48.26z" class="cls-4"/><path d="M52.25 51.43H1.99c-1.1 0-2-.9-2-2s.9-2 2-2h50.26c1.1 0 2 .9 2 2s-.9 2-2 2" class="cls-7"/><path d="M68.91 85.03H57.72c-4.12 0-7.47-3.35-7.47-7.47V48c0-1.1.9-2 2-2s2 .9 2 2v29.56c0 1.91 1.56 3.47 3.47 3.47h11.19c.93 0 1.8-.36 2.45-1.02l3.62-3.62c.66-.66 1.02-1.53 1.02-2.45V33.79c0-1.57-1.27-2.84-2.84-2.84H3.54c-1.1 0-2-.9-2-2s.9-2 2-2h69.62c3.77 0 6.84 3.07 6.84 6.84v40.15c0 1.99-.78 3.87-2.19 5.28l-3.62 3.62a7.43 7.43 0 0 1-5.28 2.19" class="cls-7"/><path d="M103.12 94.67h-2.53c-1.1 0-2-.9-2-2s.9-2 2-2h2.53c2.68 0 4.85-2.18 4.85-4.85V30.96c0-6.72-5.46-12.18-12.18-12.18h-7.83c-.53 0-1.04-.21-1.41-.59l-4.58-4.58a8.38 8.38 0 0 0-5.96-2.47H64.55c-2.19 0-4.25.83-5.83 2.34l-2.92 4.41c-.37.56-1 .89-1.67.89H16.17c-6.72 0-12.18 5.46-12.18 12.18v54.86c0 2.68 2.18 4.85 4.85 4.85h2.2c1.1 0 2 .9 2 2s-.9 2-2 2h-2.2c-4.88 0-8.85-3.97-8.85-8.85V30.96c0-8.92 7.26-16.18 16.18-16.18h36.9l2.45-3.69c.07-.11.16-.21.25-.31 2.35-2.35 5.47-3.64 8.79-3.64h11.46c3.32 0 6.44 1.29 8.79 3.64l3.99 3.99h7c8.92 0 16.18 7.26 16.18 16.18v54.86c0 4.88-3.97 8.85-8.85 8.85Z" class="cls-7"/><path d="M76.57 94.67H35.4c-1.1 0-2-.9-2-2s.9-2 2-2h41.17c1.1 0 2 .9 2 2s-.9 2-2 2M52.25 51.43c-1.1 0-2-.9-2-2V30.89c0-1.1.9-2 2-2s2 .9 2 2v18.54c0 1.1-.9 2-2 2m-25.46 0c-1.1 0-2-.9-2-2V30.89c0-1.1.9-2 2-2s2 .9 2 2v18.54c0 1.1-.9 2-2 2m61.18-32.65h-22.9c-1.1 0-2-.9-2-2s.9-2 2-2h22.9c1.1 0 2 .9 2 2s-.9 2-2 2M78 77.57H52.24c-1.1 0-2-.9-2-2s.9-2 2-2H78c1.1 0 2 .9 2 2s-.9 2-2 2" class="cls-7"/><path d="M65.07 76.07c-1.1 0-2-.9-2-2V29.6c0-1.1.9-2 2-2s2 .9 2 2v44.47c0 1.1-.9 2-2 2m-58.42.87H3.54c-1.1 0-2-.9-2-2s.9-2 2-2h3.11c.79 0 1.43-.64 1.43-1.43v-10.4c0-.79-.64-1.43-1.43-1.43H3.54c-1.1 0-2-.9-2-2s.9-2 2-2h3.11c3 0 5.43 2.44 5.43 5.43v10.4c0 3-2.44 5.43-5.43 5.43" class="cls-7"/><path d="M109.99 68.81h-7.01c-1.18 0-2.13.95-2.13 2.13v.91c0 1.71 1.38 3.09 3.09 3.09h6.05z" class="cls-5"/><path d="M109.99 76.94h-6.05c-2.81 0-5.09-2.28-5.09-5.09v-.91c0-2.28 1.85-4.13 4.13-4.13h7.01c1.1 0 2 .9 2 2v6.13c0 1.1-.9 2-2 2m-7.01-6.13c-.07 0-.13.06-.13.13v.91c0 .6.49 1.09 1.09 1.09h4.05v-2.13z" class="cls-7"/><path d="M102.56 41.19h-9.27c-1.1 0-2-.9-2-2s.9-2 2-2h9.27c1.1 0 2 .9 2 2s-.9 2-2 2" class="cls-5"/></g><g id="bolt"><path d="M81.05 51.12H60.22c-.98 0-1.67-.97-1.35-1.9l8.94-25.6c.51-1.45-1.33-2.57-2.39-1.45L29.89 59.69c-.86.91-.22 2.41 1.04 2.41h20.83c.98 0 1.67.97 1.35 1.9l-8.94 25.6c-.51 1.45 1.33 2.57 2.39 1.45L82.1 53.52c.86-.91.22-2.41-1.04-2.41Z" style="stroke-width:0;fill:#ffdc49"/><path d="M45.52 93.51c-.61 0-1.23-.17-1.79-.51a3.41 3.41 0 0 1-1.45-4.06l8.67-24.84H30.92c-1.37 0-2.61-.81-3.15-2.07s-.28-2.72.66-3.71l35.54-37.53a3.405 3.405 0 0 1 4.27-.57c1.39.85 1.99 2.52 1.45 4.06l-8.67 24.84h20.03c1.37 0 2.61.81 3.15 2.07s.28 2.72-.66 3.71L48 92.43c-.67.71-1.57 1.08-2.48 1.08M32.25 60.1h19.5c1.11 0 2.15.54 2.8 1.44.64.9.81 2.07.44 3.12l-8.06 23.09 32.8-34.63h-19.5c-1.11 0-2.15-.54-2.8-1.44-.64-.9-.81-2.07-.44-3.12l8.06-23.09zm48.8-6.99" class="cls-7"/></g></g></svg>