<svg xmlns="http://www.w3.org/2000/svg" id="flatten_icons" data-name="flatten icons" viewBox="0 0 112 112"><defs><style>.cls-4,.cls-5,.cls-6{stroke-width:0}.cls-4{fill:#b8e1ec}.cls-5{fill:#fff}.cls-6{fill:#004241}</style></defs><g id="autocar"><path id="area" d="M0 0h111.99v112H0z" style="fill:none;stroke-width:0"/><g id="car"><path d="M100.61 92.53h2.53c3.79 0 6.85-3.07 6.85-6.85V30.82c0-7.83-6.35-14.18-14.18-14.18h-7.83l-4.58-4.58a10.4 10.4 0 0 0-7.37-3.05H64.57c-2.77 0-5.42 1.1-7.37 3.05l-3.04 4.58H16.19c-7.83 0-14.18 6.35-14.18 14.18v54.86c0 3.79 3.07 6.85 6.85 6.85h2.2" style="stroke-width:0;fill:#c4d1d5"/><path d="M39.08 70.31a14.16 14.16 0 0 1-4.15-10.02V16.64H16.19c-7.83 0-14.18 6.35-14.18 14.18v54.86c0 3.79 3.07 6.85 6.85 6.85h94.28c3.79 0 6.85-3.07 6.85-6.85V74.47h-60.9c-3.76 0-7.36-1.49-10.02-4.15Z" style="stroke-width:0;fill:#87acaf"/><circle cx="23.5" cy="92.02" r="11.92" class="cls-5"/><path d="M23.5 105.94c-7.68 0-13.92-6.25-13.92-13.92S15.82 78.1 23.5 78.1s13.92 6.25 13.92 13.92-6.24 13.92-13.92 13.92m0-23.84c-5.47 0-9.92 4.45-9.92 9.92s4.45 9.92 9.92 9.92 9.92-4.45 9.92-9.92-4.45-9.92-9.92-9.92" class="cls-6"/><circle cx="88.5" cy="92.02" r="11.92" class="cls-5"/><path d="M88.5 105.94c-7.68 0-13.92-6.25-13.92-13.92S80.82 78.1 88.5 78.1s13.92 6.25 13.92 13.92-6.24 13.92-13.92 13.92m0-23.84c-5.47 0-9.92 4.45-9.92 9.92s4.45 9.92 9.92 9.92 9.92-4.45 9.92-9.92-4.45-9.92-9.92-9.92" class="cls-6"/><path d="M88.5 98.29c-3.46 0-6.27-2.81-6.27-6.27s2.81-6.27 6.27-6.27 6.27 2.81 6.27 6.27-2.81 6.27-6.27 6.27m0-8.54c-1.25 0-2.27 1.02-2.27 2.27s1.02 2.27 2.27 2.27 2.27-1.02 2.27-2.27-1.02-2.27-2.27-2.27" class="cls-6"/><path d="m109.14 58.46-1.01-.04c-3.73-.08-7.42-.78-10.93-2.07l-7.68-2.83c-1.9-.7-3.17-2.51-3.17-4.54V33.64c0-2.67 2.17-4.84 4.84-4.84h17.94" class="cls-4"/><path d="M23.5 98.29c-3.46 0-6.27-2.81-6.27-6.27s2.81-6.27 6.27-6.27 6.27 2.81 6.27 6.27c0 1.1-.9 2-2 2s-2-.9-2-2c0-1.25-1.02-2.27-2.27-2.27s-2.27 1.02-2.27 2.27 1.02 2.27 2.27 2.27c1.1 0 2 .9 2 2s-.9 2-2 2m85.64-37.83h-.09l-1.01-.04a35.7 35.7 0 0 1-11.53-2.19l-7.68-2.83a6.86 6.86 0 0 1-4.48-6.42V33.64c0-3.77 3.07-6.84 6.84-6.84h17.94c1.1 0 2 .9 2 2s-.9 2-2 2H91.19c-1.56 0-2.84 1.27-2.84 2.84v15.34c0 1.18.75 2.25 1.86 2.66l7.68 2.83a31.7 31.7 0 0 0 10.28 1.95l1.05.04c1.1.05 1.96.98 1.91 2.08a2 2 0 0 1-2 1.91Z" class="cls-6"/><path d="M52.26 75.43h25.48c.17-.53.28-1.08.28-1.64V33.64c0-2.67-2.17-4.84-4.84-4.84H3.56L4 47.85h48.26z" class="cls-4"/><path d="M52.26 51.29H2c-1.1 0-2-.9-2-2s.9-2 2-2h50.26c1.1 0 2 .9 2 2s-.9 2-2 2" class="cls-6"/><path d="M68.93 84.88H57.74c-4.12 0-7.47-3.35-7.47-7.47V47.85c0-1.1.9-2 2-2s2 .9 2 2v29.56c0 1.91 1.56 3.47 3.47 3.47h11.19c.93 0 1.8-.36 2.45-1.02L75 76.24c.66-.66 1.02-1.53 1.02-2.45V33.64c0-1.57-1.27-2.84-2.84-2.84H3.56c-1.1 0-2-.9-2-2s.9-2 2-2h69.62c3.77 0 6.84 3.07 6.84 6.84v40.15c0 1.99-.78 3.87-2.19 5.28l-3.62 3.62a7.43 7.43 0 0 1-5.28 2.19" class="cls-6"/><path d="M103.14 94.53h-2.53c-1.1 0-2-.9-2-2s.9-2 2-2h2.53c2.68 0 4.85-2.18 4.85-4.85V30.82c0-6.72-5.46-12.18-12.18-12.18h-7.83c-.53 0-1.04-.21-1.41-.59l-4.58-4.58A8.38 8.38 0 0 0 76.03 11H64.57c-2.19 0-4.25.83-5.83 2.34l-2.92 4.41c-.37.56-1 .89-1.67.89H16.19c-6.72 0-12.18 5.46-12.18 12.18v54.86c0 2.68 2.18 4.85 4.85 4.85h2.2c1.1 0 2 .9 2 2s-.9 2-2 2h-2.2C3.98 94.53 0 90.56 0 85.67V30.82c0-8.93 7.26-16.18 16.19-16.18h36.9l2.45-3.69c.07-.11.16-.21.25-.31C58.14 8.29 61.26 7 64.58 7h11.46c3.32 0 6.44 1.29 8.79 3.64l3.99 3.99h7c8.92 0 16.18 7.26 16.18 16.18v54.86c0 4.88-3.97 8.85-8.85 8.85Z" class="cls-6"/><path d="M76.59 94.53H35.42c-1.1 0-2-.9-2-2s.9-2 2-2h41.17c1.1 0 2 .9 2 2s-.9 2-2 2M52.26 51.29c-1.1 0-2-.9-2-2V30.75c0-1.1.9-2 2-2s2 .9 2 2v18.54c0 1.1-.9 2-2 2m-25.46 0c-1.1 0-2-.9-2-2V30.75c0-1.1.9-2 2-2s2 .9 2 2v18.54c0 1.1-.9 2-2 2m61.19-32.65h-22.9c-1.1 0-2-.9-2-2s.9-2 2-2h22.9c1.1 0 2 .9 2 2s-.9 2-2 2m-9.97 58.79H52.26c-1.1 0-2-.9-2-2s.9-2 2-2h25.76c1.1 0 2 .9 2 2s-.9 2-2 2" class="cls-6"/><path d="M65.09 75.93c-1.1 0-2-.9-2-2V29.45c0-1.1.9-2 2-2s2 .9 2 2v44.47c0 1.1-.9 2-2 2Zm-58.42.87H3.56c-1.1 0-2-.9-2-2s.9-2 2-2h3.11c.79 0 1.43-.64 1.43-1.43v-10.4c0-.79-.64-1.43-1.43-1.43H3.56c-1.1 0-2-.9-2-2s.9-2 2-2h3.11c3 0 5.43 2.44 5.43 5.43v10.4c0 3-2.44 5.43-5.43 5.43" class="cls-6"/><path d="M110.01 68.67H103c-1.18 0-2.13.95-2.13 2.13v.91c0 1.71 1.38 3.09 3.09 3.09h6.05z" class="cls-5"/><path d="M110.01 76.8h-6.05c-2.81 0-5.09-2.28-5.09-5.09v-.91c0-2.28 1.85-4.13 4.13-4.13h7.01c1.1 0 2 .9 2 2v6.13c0 1.1-.9 2-2 2M103 70.67c-.07 0-.13.06-.13.13v.91c0 .6.49 1.09 1.09 1.09h4.05v-2.13z" class="cls-6"/><path d="M102.57 41.04H93.3c-1.1 0-2-.9-2-2s.9-2 2-2h9.27c1.1 0 2 .9 2 2s-.9 2-2 2" class="cls-5"/></g><g id="gaz"><path d="M18.05 68.57c.27.21.55.42.83.62.31 2.6 1.54 5.11 3.66 6.98 4.59 4.04 11.58 3.6 15.62-.99.24-.28.47-.56.68-.85 4.58 3.5 11.14 2.92 15.01-1.47s3.6-11.58-.99-15.62l-.15-.12c.52-.41 1.01-.86 1.46-1.37 4.04-4.59 3.6-11.58-.99-15.62-3.22-2.84-7.62-3.46-11.36-1.99-.17-3.75-1.79-7.43-4.83-10.11-5.93-5.23-14.98-4.66-20.2 1.28-2.86 3.24-3.97 7.42-3.43 11.39-2.88.61-5.59 2.1-7.69 4.48C.5 51.05 1.06 60 6.93 65.17c3.16 2.79 7.22 3.89 11.1 3.41Z" class="cls-5"/><path d="M29.86 80.93c-3.07 0-6.15-1.07-8.63-3.26-2.09-1.84-3.52-4.3-4.11-7.01a16.17 16.17 0 0 1-11.48-4c-6.69-5.89-7.33-16.13-1.44-22.81 1.91-2.17 4.33-3.76 7.06-4.65-.11-4.1 1.32-8.11 4.06-11.21 2.88-3.27 6.86-5.22 11.21-5.5a16.22 16.22 0 0 1 11.81 4.04 16.18 16.18 0 0 1 5.21 9.05c3.89-.72 7.93.37 10.97 3.05 5.41 4.76 5.93 13.04 1.16 18.44-.03.03-.06.07-.09.1 1.77 2.12 2.82 4.74 3 7.55.22 3.48-.93 6.84-3.24 9.46-4.09 4.64-10.85 5.7-16.12 2.79a13.04 13.04 0 0 1-9.38 3.96Zm-11.8-14.36c.44 0 .87.15 1.22.42.25.19.49.38.74.55.47.33.78.84.85 1.41a9.036 9.036 0 0 0 9.56 7.97 8.98 8.98 0 0 0 6.23-3.06c.2-.23.38-.46.56-.7.32-.44.8-.73 1.33-.81.54-.08 1.08.06 1.51.39 3.76 2.88 9.16 2.35 12.3-1.2 1.6-1.82 2.4-4.15 2.25-6.57s-1.24-4.63-3.05-6.23c-.03-.02-.09-.07-.12-.09-.46-.39-.72-.96-.71-1.56s.29-1.16.76-1.53c.46-.36.85-.73 1.2-1.12 3.31-3.75 2.94-9.49-.81-12.8a9.04 9.04 0 0 0-9.31-1.63c-.6.24-1.28.17-1.82-.19-.54-.35-.88-.94-.91-1.59-.15-3.38-1.62-6.47-4.15-8.7a12.25 12.25 0 0 0-8.92-3.05c-3.28.21-6.29 1.68-8.46 4.15-2.36 2.67-3.43 6.25-2.95 9.8.14 1.04-.54 2.01-1.57 2.23a12.08 12.08 0 0 0-6.6 3.84c-4.43 5.03-3.95 12.73 1.08 17.17a12.15 12.15 0 0 0 9.53 2.93c.08-.01.16-.02.24-.02Z" class="cls-6"/><path d="M10.67 41.58c3.99-1.77 8.82-1.2 12.33 1.86" class="cls-5"/><path d="M23 45.44c-.47 0-.93-.16-1.31-.49a9.65 9.65 0 0 0-10.2-1.54c-1.01.45-2.19 0-2.64-1.02-.45-1.01 0-2.19 1.02-2.64 4.81-2.13 10.48-1.28 14.45 2.18.83.73.92 1.99.19 2.82-.4.45-.95.69-1.51.69" class="cls-6"/><path d="M38.85 74.33s-3.12-5.13-.66-8.37" class="cls-5"/><path d="M38.84 76.33c-.67 0-1.33-.34-1.71-.96-.16-.26-3.79-6.34-.55-10.62.67-.88 1.92-1.05 2.8-.38s1.05 1.92.38 2.8c-1.32 1.74.16 5.09.78 6.12.57.95.26 2.17-.68 2.74-.32.2-.68.29-1.03.29Z" class="cls-6"/></g></g></svg>