<?xml version="1.0" encoding="UTF-8"?>
<svg id="flatten_icons" data-name="flatten icons" xmlns="http://www.w3.org/2000/svg" viewBox="0 0 112 112">
  <defs>
    <style>
      .cls-1 {
        fill: none;
      }

      .cls-1, .cls-2, .cls-3, .cls-4, .cls-5, .cls-6 {
        stroke-width: 0px;
      }

      .cls-2 {
        fill: #87acaf;
      }

      .cls-3 {
        fill: #c4d1d5;
      }

      .cls-4 {
        fill: #b8e1ec;
      }

      .cls-5 {
        fill: #fff;
      }

      .cls-6 {
        fill: #004241;
      }
    </style>
  </defs>
  <g id="autocar">
    <g id="area">
      <rect class="cls-1" x="0" width="111.99" height="112"/>
    </g>
    <g id="car">
      <path class="cls-3" d="m100.61,92.53h2.53c3.79,0,6.85-3.07,6.85-6.85V30.82c0-7.83-6.35-14.18-14.18-14.18h-7.83l-4.58-4.58c-1.96-1.96-4.61-3.05-7.37-3.05h-11.46c-2.77,0-5.42,1.1-7.37,3.05l-3.04,4.58H16.19c-7.83,0-14.18,6.35-14.18,14.18v54.86c0,3.79,3.07,6.85,6.85,6.85h2.2"/>
      <path class="cls-2" d="m39.08,70.31h0c-2.66-2.66-4.15-6.26-4.15-10.02V16.64h-18.74c-7.83,0-14.18,6.35-14.18,14.18v54.86c0,3.79,3.07,6.85,6.85,6.85h94.28c3.79,0,6.85-3.07,6.85-6.85v-11.21h-60.9c-3.76,0-7.36-1.49-10.02-4.15Z"/>
      <g>
        <circle class="cls-5" cx="23.5" cy="92.02" r="11.92"/>
        <path class="cls-6" d="m23.5,105.94c-7.68,0-13.92-6.25-13.92-13.92s6.24-13.92,13.92-13.92,13.92,6.25,13.92,13.92-6.24,13.92-13.92,13.92Zm0-23.84c-5.47,0-9.92,4.45-9.92,9.92s4.45,9.92,9.92,9.92,9.92-4.45,9.92-9.92-4.45-9.92-9.92-9.92Z"/>
      </g>
      <g>
        <circle class="cls-5" cx="88.5" cy="92.02" r="11.92"/>
        <path class="cls-6" d="m88.5,105.94c-7.68,0-13.92-6.25-13.92-13.92s6.24-13.92,13.92-13.92,13.92,6.25,13.92,13.92-6.24,13.92-13.92,13.92Zm0-23.84c-5.47,0-9.92,4.45-9.92,9.92s4.45,9.92,9.92,9.92,9.92-4.45,9.92-9.92-4.45-9.92-9.92-9.92Z"/>
      </g>
      <path class="cls-6" d="m88.5,98.29c-3.46,0-6.27-2.81-6.27-6.27s2.81-6.27,6.27-6.27,6.27,2.81,6.27,6.27-2.81,6.27-6.27,6.27Zm0-8.54c-1.25,0-2.27,1.02-2.27,2.27s1.02,2.27,2.27,2.27,2.27-1.02,2.27-2.27-1.02-2.27-2.27-2.27Z"/>
      <path class="cls-4" d="m109.14,58.46l-1.01-.04c-3.73-.08-7.42-.78-10.93-2.07l-7.68-2.83c-1.9-.7-3.17-2.51-3.17-4.54v-15.34c0-2.67,2.17-4.84,4.84-4.84h17.94"/>
      <path class="cls-6" d="m23.5,98.29c-3.46,0-6.27-2.81-6.27-6.27s2.81-6.27,6.27-6.27,6.27,2.81,6.27,6.27c0,1.1-.9,2-2,2s-2-.9-2-2c0-1.25-1.02-2.27-2.27-2.27s-2.27,1.02-2.27,2.27,1.02,2.27,2.27,2.27c1.1,0,2,.9,2,2s-.9,2-2,2Z"/>
      <path class="cls-6" d="m109.14,60.46s-.06,0-.09,0l-1.01-.04c-3.92-.09-7.81-.82-11.53-2.19l-7.68-2.83c-2.68-.99-4.48-3.56-4.48-6.42v-15.34c0-3.77,3.07-6.84,6.84-6.84h17.94c1.1,0,2,.9,2,2s-.9,2-2,2h-17.94c-1.56,0-2.84,1.27-2.84,2.84v15.34c0,1.18.75,2.25,1.86,2.66l7.68,2.83c3.3,1.22,6.76,1.87,10.28,1.95l1.05.04c1.1.05,1.96.98,1.91,2.08-.05,1.07-.93,1.91-2,1.91Z"/>
      <path class="cls-4" d="m52.26,75.43h25.48c.17-.53.28-1.08.28-1.64v-40.15c0-2.67-2.17-4.84-4.84-4.84H3.56l.44,19.05h48.26v27.58Z"/>
      <path class="cls-6" d="m52.26,51.29H2C.9,51.29,0,50.39,0,49.29s.9-2,2-2h50.26c1.1,0,2,.9,2,2s-.9,2-2,2Z"/>
      <path class="cls-6" d="m68.93,84.88h-11.19c-4.12,0-7.47-3.35-7.47-7.47v-29.56c0-1.1.9-2,2-2s2,.9,2,2v29.56c0,1.91,1.56,3.47,3.47,3.47h11.19c.93,0,1.8-.36,2.45-1.02l3.62-3.62c.66-.66,1.02-1.53,1.02-2.45v-40.15c0-1.57-1.27-2.84-2.84-2.84H3.56c-1.1,0-2-.9-2-2s.9-2,2-2h69.62c3.77,0,6.84,3.07,6.84,6.84v40.15c0,1.99-.78,3.87-2.19,5.28l-3.62,3.62c-1.41,1.41-3.29,2.19-5.28,2.19Z"/>
      <path class="cls-6" d="m103.14,94.53h-2.53c-1.1,0-2-.9-2-2s.9-2,2-2h2.53c2.68,0,4.85-2.18,4.85-4.85V30.82c0-6.72-5.46-12.18-12.18-12.18h-7.83c-.53,0-1.04-.21-1.41-.59l-4.58-4.58c-1.59-1.59-3.71-2.47-5.96-2.47h-11.46c-2.19,0-4.25.83-5.83,2.34l-2.92,4.41c-.37.56-1,.89-1.67.89H16.19c-6.72,0-12.18,5.46-12.18,12.18v54.86c0,2.68,2.18,4.85,4.85,4.85h2.2c1.1,0,2,.9,2,2s-.9,2-2,2h-2.2C3.98,94.53,0,90.56,0,85.67V30.82C0,21.89,7.26,14.64,16.19,14.64h36.9l2.45-3.69c.07-.11.16-.21.25-.31,2.35-2.35,5.47-3.64,8.79-3.64h11.46c3.32,0,6.44,1.29,8.79,3.64l3.99,3.99h7c8.92,0,16.18,7.26,16.18,16.18v54.86c0,4.88-3.97,8.85-8.85,8.85Z"/>
      <path class="cls-6" d="m76.59,94.53h-41.17c-1.1,0-2-.9-2-2s.9-2,2-2h41.17c1.1,0,2,.9,2,2s-.9,2-2,2Z"/>
      <path class="cls-6" d="m52.26,51.29c-1.1,0-2-.9-2-2v-18.54c0-1.1.9-2,2-2s2,.9,2,2v18.54c0,1.1-.9,2-2,2Z"/>
      <path class="cls-6" d="m26.8,51.29c-1.1,0-2-.9-2-2v-18.54c0-1.1.9-2,2-2s2,.9,2,2v18.54c0,1.1-.9,2-2,2Z"/>
      <path class="cls-6" d="m87.99,18.64h-22.9c-1.1,0-2-.9-2-2s.9-2,2-2h22.9c1.1,0,2,.9,2,2s-.9,2-2,2Z"/>
      <path class="cls-6" d="m78.02,77.43h-25.76c-1.1,0-2-.9-2-2s.9-2,2-2h25.76c1.1,0,2,.9,2,2s-.9,2-2,2Z"/>
      <path class="cls-6" d="m65.09,75.93c-1.1,0-2-.9-2-2V29.45c0-1.1.9-2,2-2s2,.9,2,2v44.47c0,1.1-.9,2-2,2Z"/>
      <path class="cls-6" d="m6.67,76.8h-3.11c-1.1,0-2-.9-2-2s.9-2,2-2h3.11c.79,0,1.43-.64,1.43-1.43v-10.4c0-.79-.64-1.43-1.43-1.43h-3.11c-1.1,0-2-.9-2-2s.9-2,2-2h3.11c3,0,5.43,2.44,5.43,5.43v10.4c0,3-2.44,5.43-5.43,5.43Z"/>
      <g>
        <path class="cls-5" d="m110.01,68.67h-7.01c-1.18,0-2.13.95-2.13,2.13v.91c0,1.71,1.38,3.09,3.09,3.09h6.05v-6.13Z"/>
        <path class="cls-6" d="m110.01,76.8h-6.05c-2.81,0-5.09-2.28-5.09-5.09v-.91c0-2.28,1.85-4.13,4.13-4.13h7.01c1.1,0,2,.9,2,2v6.13c0,1.1-.9,2-2,2Zm-7.01-6.13c-.07,0-.13.06-.13.13v.91c0,.6.49,1.09,1.09,1.09h4.05v-2.13h-5.01Z"/>
      </g>
      <path class="cls-5" d="m102.57,41.04h-9.27c-1.1,0-2-.9-2-2s.9-2,2-2h9.27c1.1,0,2,.9,2,2s-.9,2-2,2Z"/>
    </g>
    <g id="gaz">
      <path class="cls-5" d="m18.05,68.57c.27.21.55.42.83.62.31,2.6,1.54,5.11,3.66,6.98,4.59,4.04,11.58,3.6,15.62-.99.24-.28.47-.56.68-.85,4.58,3.5,11.14,2.92,15.01-1.47s3.6-11.58-.99-15.62c-.05-.04-.1-.08-.15-.12.52-.41,1.01-.86,1.46-1.37,4.04-4.59,3.6-11.58-.99-15.62-3.22-2.84-7.62-3.46-11.36-1.99-.17-3.75-1.79-7.43-4.83-10.11-5.93-5.23-14.98-4.66-20.2,1.28-2.86,3.24-3.97,7.42-3.43,11.39-2.88.61-5.59,2.1-7.69,4.48-5.17,5.87-4.61,14.82,1.26,19.99,3.16,2.79,7.22,3.89,11.1,3.41Z"/>
      <path class="cls-6" d="m29.86,80.93c-3.07,0-6.15-1.07-8.63-3.26-2.09-1.84-3.52-4.3-4.11-7.01-4.19.21-8.32-1.22-11.48-4-6.69-5.89-7.33-16.13-1.44-22.81,1.91-2.17,4.33-3.76,7.06-4.65-.11-4.1,1.32-8.11,4.06-11.21,2.88-3.27,6.86-5.22,11.21-5.5,4.35-.27,8.54,1.16,11.81,4.04,2.72,2.4,4.52,5.55,5.21,9.05,3.89-.72,7.93.37,10.97,3.05,5.41,4.76,5.93,13.04,1.16,18.44-.03.03-.06.07-.09.1,1.77,2.12,2.82,4.74,3,7.55.22,3.48-.93,6.84-3.24,9.46-4.09,4.64-10.85,5.7-16.12,2.79-2.54,2.62-5.95,3.96-9.38,3.96Zm-11.8-14.36c.44,0,.87.15,1.22.42.25.19.49.38.74.55.47.33.78.84.85,1.41.27,2.22,1.33,4.25,2.99,5.72,1.82,1.6,4.15,2.4,6.57,2.25,2.42-.15,4.63-1.24,6.23-3.06.2-.23.38-.46.56-.7.32-.44.8-.73,1.33-.81.54-.08,1.08.06,1.51.39,3.76,2.88,9.16,2.35,12.3-1.2,1.6-1.82,2.4-4.15,2.25-6.57s-1.24-4.63-3.05-6.23c-.03-.02-.09-.07-.12-.09-.46-.39-.72-.96-.71-1.56.01-.6.29-1.16.76-1.53.46-.36.85-.73,1.2-1.12,3.31-3.75,2.94-9.49-.81-12.8-2.56-2.25-6.12-2.88-9.31-1.63-.6.24-1.28.17-1.82-.19-.54-.35-.88-.94-.91-1.59-.15-3.38-1.62-6.47-4.15-8.7-2.47-2.17-5.64-3.26-8.92-3.05-3.28.21-6.29,1.68-8.46,4.15-2.36,2.67-3.43,6.25-2.95,9.8.14,1.04-.54,2.01-1.57,2.23-2.59.55-4.87,1.88-6.6,3.84-4.43,5.03-3.95,12.73,1.08,17.17,2.6,2.29,6.07,3.36,9.53,2.93.08-.01.16-.02.24-.02Z"/>
      <g>
        <path class="cls-5" d="m10.67,41.58c3.99-1.77,8.82-1.2,12.33,1.86"/>
        <path class="cls-6" d="m23,45.44c-.47,0-.93-.16-1.31-.49-2.8-2.44-6.8-3.04-10.2-1.54-1.01.45-2.19,0-2.64-1.02-.45-1.01,0-2.19,1.02-2.64,4.81-2.13,10.48-1.28,14.45,2.18.83.73.92,1.99.19,2.82-.4.45-.95.69-1.51.69Z"/>
      </g>
      <g>
        <path class="cls-5" d="m38.85,74.33s-3.12-5.13-.66-8.37"/>
        <path class="cls-6" d="m38.84,76.33c-.67,0-1.33-.34-1.71-.96-.16-.26-3.79-6.34-.55-10.62.67-.88,1.92-1.05,2.8-.38.88.67,1.05,1.92.38,2.8-1.32,1.74.16,5.09.78,6.12.57.95.26,2.17-.68,2.74-.32.2-.68.29-1.03.29Z"/>
      </g>
    </g>
  </g>
</svg>