<?xml version="1.0" encoding="UTF-8"?>
<svg id="flatten_icons" data-name="flatten icons" xmlns="http://www.w3.org/2000/svg" viewBox="0 0 112 112">
  <defs>
    <style>
      .cls-1 {
        fill: none;
      }

      .cls-1, .cls-2, .cls-3, .cls-4, .cls-5, .cls-6 {
        stroke-width: 0px;
      }

      .cls-2 {
        fill: #87acaf;
      }

      .cls-3 {
        fill: #c4d1d5;
      }

      .cls-4 {
        fill: #b8e1ec;
      }

      .cls-5 {
        fill: #fff;
      }

      .cls-6 {
        fill: #004241;
      }
    </style>
  </defs>
  <g id="autocar">
    <g id="area">
      <rect class="cls-1" x="0" width="112" height="112"/>
    </g>
    <g id="car">
      <path class="cls-3" d="m100.61,92.06h2.53c3.79,0,6.85-3.07,6.85-6.85V30.35c0-7.83-6.35-14.18-14.18-14.18h-7.83l-4.58-4.58c-1.96-1.96-4.61-3.05-7.37-3.05h-11.46c-2.77,0-5.42,1.1-7.37,3.05l-3.04,4.58H16.19c-7.83,0-14.18,6.35-14.18,14.18v54.86c0,3.79,3.07,6.85,6.85,6.85h2.2"/>
      <path class="cls-2" d="m39.08,69.84h0c-2.66-2.66-4.15-6.26-4.15-10.02V16.16h-18.74c-7.83,0-14.18,6.35-14.18,14.18v54.86c0,3.79,3.07,6.85,6.85,6.85h94.28c3.79,0,6.85-3.07,6.85-6.85v-11.21h-60.9c-3.76,0-7.36-1.49-10.02-4.15Z"/>
      <g>
        <circle class="cls-5" cx="23.5" cy="91.55" r="11.92"/>
        <path class="cls-6" d="m23.5,105.47c-7.68,0-13.92-6.25-13.92-13.92s6.24-13.92,13.92-13.92,13.92,6.25,13.92,13.92-6.24,13.92-13.92,13.92Zm0-23.84c-5.47,0-9.92,4.45-9.92,9.92s4.45,9.92,9.92,9.92,9.92-4.45,9.92-9.92-4.45-9.92-9.92-9.92Z"/>
      </g>
      <g>
        <circle class="cls-5" cx="88.5" cy="91.55" r="11.92"/>
        <path class="cls-6" d="m88.5,105.47c-7.68,0-13.92-6.25-13.92-13.92s6.24-13.92,13.92-13.92,13.92,6.25,13.92,13.92-6.24,13.92-13.92,13.92Zm0-23.84c-5.47,0-9.92,4.45-9.92,9.92s4.45,9.92,9.92,9.92,9.92-4.45,9.92-9.92-4.45-9.92-9.92-9.92Z"/>
      </g>
      <path class="cls-6" d="m88.5,97.82c-3.46,0-6.27-2.81-6.27-6.27s2.81-6.27,6.27-6.27,6.27,2.81,6.27,6.27-2.81,6.27-6.27,6.27Zm0-8.54c-1.25,0-2.27,1.02-2.27,2.27s1.02,2.27,2.27,2.27,2.27-1.02,2.27-2.27-1.02-2.27-2.27-2.27Z"/>
      <path class="cls-4" d="m109.14,57.99l-1.01-.04c-3.73-.08-7.42-.78-10.93-2.07l-7.68-2.83c-1.9-.7-3.17-2.51-3.17-4.54v-15.34c0-2.67,2.17-4.84,4.84-4.84h17.94"/>
      <path class="cls-6" d="m23.5,97.82c-3.46,0-6.27-2.81-6.27-6.27s2.81-6.27,6.27-6.27,6.27,2.81,6.27,6.27c0,1.1-.9,2-2,2s-2-.9-2-2c0-1.25-1.02-2.27-2.27-2.27s-2.27,1.02-2.27,2.27,1.02,2.27,2.27,2.27c1.1,0,2,.9,2,2s-.9,2-2,2Z"/>
      <path class="cls-6" d="m109.14,59.99s-.06,0-.09,0l-1.01-.04c-3.92-.09-7.81-.82-11.53-2.19l-7.68-2.83c-2.68-.99-4.48-3.56-4.48-6.42v-15.34c0-3.77,3.07-6.84,6.84-6.84h17.94c1.1,0,2,.9,2,2s-.9,2-2,2h-17.94c-1.57,0-2.84,1.27-2.84,2.84v15.34c0,1.18.75,2.25,1.86,2.66l7.68,2.83c3.3,1.22,6.76,1.87,10.28,1.95l1.05.04c1.1.05,1.96.98,1.91,2.08-.05,1.07-.93,1.91-2,1.91Z"/>
      <path class="cls-4" d="m52.26,74.96h25.48c.17-.53.28-1.08.28-1.64v-40.15c0-2.67-2.17-4.84-4.84-4.84H3.56l.44,19.05h48.26v27.58Z"/>
      <path class="cls-6" d="m52.26,50.81H2C.9,50.81,0,49.92,0,48.81s.9-2,2-2h50.26c1.1,0,2,.9,2,2s-.9,2-2,2Z"/>
      <path class="cls-6" d="m68.93,84.41h-11.2c-4.12,0-7.47-3.35-7.47-7.47v-29.56c0-1.1.9-2,2-2s2,.9,2,2v29.56c0,1.91,1.56,3.47,3.47,3.47h11.2c.91,0,1.81-.37,2.45-1.02l3.62-3.62c.66-.66,1.02-1.53,1.02-2.45v-40.15c0-1.57-1.27-2.84-2.84-2.84H3.56c-1.1,0-2-.9-2-2s.9-2,2-2h69.62c3.77,0,6.84,3.07,6.84,6.84v40.15c0,2-.78,3.87-2.19,5.28l-3.62,3.62c-1.41,1.41-3.29,2.19-5.28,2.19Z"/>
      <path class="cls-5" d="m40.79,40.57H4c-1.1,0-2-.9-2-2s.9-2,2-2h36.78c1.1,0,2,.9,2,2s-.9,2-2,2Z"/>
      <path class="cls-6" d="m103.14,94.06h-2.53c-1.1,0-2-.9-2-2s.9-2,2-2h2.53c2.68,0,4.85-2.18,4.85-4.85V30.35c0-6.72-5.46-12.18-12.18-12.18h-7.83c-.53,0-1.04-.21-1.41-.59l-4.58-4.58c-1.59-1.59-3.71-2.47-5.96-2.47h-11.46c-2.19,0-4.25.83-5.83,2.34l-2.92,4.4c-.37.56-1,.89-1.67.89H16.19c-6.72,0-12.18,5.46-12.18,12.18v54.86c0,2.68,2.18,4.85,4.85,4.85h2.2c1.1,0,2,.9,2,2s-.9,2-2,2h-2.2C3.98,94.06,0,90.09,0,85.2V30.35C0,21.42,7.26,14.16,16.19,14.16h36.9l2.45-3.69c.07-.11.16-.21.25-.31,2.35-2.35,5.47-3.64,8.79-3.64h11.46c3.32,0,6.44,1.29,8.79,3.64l3.99,3.99h7c8.92,0,16.18,7.26,16.18,16.18v54.86c0,4.88-3.97,8.85-8.85,8.85Z"/>
      <path class="cls-6" d="m76.59,94.06h-41.17c-1.1,0-2-.9-2-2s.9-2,2-2h41.17c1.1,0,2,.9,2,2s-.9,2-2,2Z"/>
      <path class="cls-6" d="m52.26,50.81c-1.1,0-2-.9-2-2v-18.54c0-1.1.9-2,2-2s2,.9,2,2v18.54c0,1.1-.9,2-2,2Z"/>
      <path class="cls-6" d="m26.8,50.81c-1.1,0-2-.9-2-2v-18.54c0-1.1.9-2,2-2s2,.9,2,2v18.54c0,1.1-.9,2-2,2Z"/>
      <path class="cls-6" d="m87.99,18.16h-22.9c-1.1,0-2-.9-2-2s.9-2,2-2h22.9c1.1,0,2,.9,2,2s-.9,2-2,2Z"/>
      <path class="cls-6" d="m78.02,76.96h-25.76c-1.1,0-2-.9-2-2s.9-2,2-2h25.76c1.1,0,2,.9,2,2s-.9,2-2,2Z"/>
      <path class="cls-6" d="m65.09,75.46c-1.1,0-2-.9-2-2V28.98c0-1.1.9-2,2-2s2,.9,2,2v44.47c0,1.1-.9,2-2,2Z"/>
      <path class="cls-6" d="m6.67,76.33h-3.11c-1.1,0-2-.9-2-2s.9-2,2-2h3.11c.79,0,1.43-.64,1.43-1.43v-10.4c0-.79-.64-1.43-1.43-1.43h-3.11c-1.1,0-2-.9-2-2s.9-2,2-2h3.11c3,0,5.43,2.44,5.43,5.43v10.4c0,3-2.44,5.43-5.43,5.43Z"/>
      <g>
        <path class="cls-5" d="m110.01,68.19h-7.01c-1.18,0-2.13.95-2.13,2.13v.91c0,1.71,1.38,3.09,3.09,3.09h6.05v-6.13Z"/>
        <path class="cls-6" d="m110.01,76.33h-6.05c-2.81,0-5.09-2.28-5.09-5.09v-.91c0-2.28,1.85-4.13,4.13-4.13h7.01c1.1,0,2,.9,2,2v6.13c0,1.1-.9,2-2,2Zm-7.01-6.13c-.07,0-.13.06-.13.13v.91c0,.6.49,1.09,1.09,1.09h4.05v-2.13h-5.01Z"/>
      </g>
      <path class="cls-5" d="m102.57,40.57h-9.27c-1.1,0-2-.9-2-2s.9-2,2-2h9.27c1.1,0,2,.9,2,2s-.9,2-2,2Z"/>
    </g>
  </g>
</svg>