<svg xmlns="http://www.w3.org/2000/svg" id="outline_icons" viewBox="0 0 112 112"><defs><style>.cls-4{fill:#fff}.cls-5{fill:#c4c1ad}.cls-6{fill:#004241}</style></defs><g id="cabillaud"><path id="pommedeterre" d="M0 0h112v112H0z" style="fill:none"/><path d="M80.66 52.84s2.12 9.71 10.75 6.71c0 0-.47-15.27-1.43-17.79" class="cls-5"/><path d="M88.28 62.13q-2.265 0-4.2-1.08c-4.14-2.32-5.32-7.55-5.37-7.78-.24-1.08.45-2.14 1.53-2.38 1.07-.23 2.14.44 2.38 1.52.02.07.88 3.74 3.44 5.16.96.53 2.05.69 3.31.47-.25-6.92-.76-14.28-1.25-15.56-.39-1.03.13-2.19 1.16-2.58s2.19.12 2.58 1.16c1.03 2.7 1.48 15.84 1.56 18.44.03.87-.52 1.66-1.34 1.95-1.33.46-2.59.69-3.79.69Z" class="cls-6"/><path d="m46.92 72.3-1.39 7.09s10.58-.82 13.76 2.87c0 0 9.77-13.23 6.49-18.12" class="cls-5"/><path d="M59.3 84.25c-.58 0-1.13-.25-1.51-.69-1.9-2.21-8.97-2.42-12.09-2.18-.63.05-1.23-.2-1.65-.66-.42-.47-.59-1.1-.47-1.71l1.39-7.08a2.005 2.005 0 0 1 2.35-1.58c1.08.21 1.79 1.26 1.58 2.35l-.9 4.62c2.94 0 7.73.3 10.89 2.1 5.08-7.4 6.19-12.76 5.25-14.16-.62-.92-.37-2.16.54-2.78.92-.61 2.16-.37 2.78.54 3.88 5.77-4.77 18.03-6.54 20.43-.36.49-.93.79-1.53.81h-.08Z" class="cls-6"/><path d="M43.22 49.36s-7.28-2.1-6.54-4.15 6.13-4.09 3.59-8.67-.58-9.94 3.53-10.06 13.73-1.2 16.56 1.81" class="cls-5"/><path d="M43.22 51.36c-.18 0-.37-.03-.55-.08-1.92-.55-6.53-2.09-7.7-4.39-.39-.76-.45-1.6-.17-2.36.39-1.07 1.23-1.87 2.12-2.71 1.9-1.8 2.53-2.63 1.6-4.31-1.75-3.16-1.86-6.85-.28-9.62 1.19-2.09 3.2-3.34 5.5-3.41.6-.02 1.32-.06 2.12-.1 6.8-.37 13.14-.45 15.95 2.53.76.8.72 2.07-.08 2.83s-2.07.72-2.83-.08c-1.77-1.88-9.24-1.48-12.83-1.28-.84.04-1.59.09-2.22.1-1.14.04-1.79.77-2.14 1.39-.88 1.55-.76 3.79.3 5.71 2.52 4.54-.65 7.54-2.35 9.15-.22.2-.49.46-.72.7.92.62 2.93 1.47 4.81 2.02 1.06.31 1.67 1.42 1.37 2.48-.25.88-1.05 1.45-1.92 1.45Z" class="cls-6"/><path d="M7.49 82.19s7.33-6.53 14.97-7.8c7.64-1.26 10.05-5.9 16.73-18.35 6.67-12.45 21.43-36.8 58.1-45.4l-.76 7.09 6.45-2.19s.86 7.64-8.34 18.39c0 0-6.26 13.52-19.7 23.88-13.43 10.36-23.45 13.17-29.73 16.05s-9.9 8.57-12.16 16.66-6.31 12.6-6.31 12.6 2.12-8.77-5.14-15.58c-7.26-6.82-14.11-5.37-14.11-5.37Z" style="fill:#d8d5c0"/><path d="M26.74 105.14a1.996 1.996 0 0 1-1.94-2.47c.07-.31 1.72-7.76-4.56-13.65-6.42-6.03-12.27-4.88-12.33-4.87-.89.19-1.79-.24-2.2-1.05s-.22-1.79.45-2.4c.32-.28 7.85-6.94 15.97-8.28 6.59-1.09 8.73-5.08 15.09-16.95l.2-.38c4.92-9.18 19.9-37.13 59.41-46.4a1.995 1.995 0 0 1 2.44 2.16l-.43 3.98 3.49-1.18c.57-.19 1.2-.12 1.71.21s.85.86.92 1.46c.04.34.84 8.54-8.64 19.71-.97 2-7.36 14.49-20.17 24.37-10.88 8.39-19.53 11.91-25.84 14.48-1.62.66-3.03 1.23-4.28 1.81-5.31 2.44-8.82 7.33-11.06 15.38-2.35 8.45-6.57 13.21-6.75 13.41-.39.43-.93.66-1.49.66Zm-13.68-24.6c2.81.67 6.33 2.2 9.91 5.56 3.56 3.35 5.11 7.1 5.71 10.27.86-1.74 1.74-3.88 2.43-6.37 2.58-9.27 6.79-14.98 13.25-17.95 1.34-.61 2.85-1.23 4.44-1.88 6.1-2.48 14.46-5.88 24.9-13.94 12.9-9.95 19.04-23.01 19.1-23.14.08-.17.18-.32.3-.46 5.33-6.22 7.07-11.31 7.63-14.22l-3.57 1.21c-.65.22-1.36.09-1.89-.33s-.81-1.1-.74-1.77l.46-4.25C63.1 21.68 48.9 42.14 40.94 56.98l-.2.38c-6.67 12.44-9.43 17.59-17.96 19-3.55.59-7.09 2.46-9.72 4.17Z" class="cls-6"/><path d="M36.68 83.71c-.12 0-.24 0-.36-.03-8.96-1.62-10.92-10.1-11-10.46-.24-1.08.45-2.15 1.52-2.38 1.08-.24 2.14.44 2.38 1.52.06.28 1.52 6.26 7.81 7.39 1.09.2 1.81 1.24 1.61 2.32-.17.97-1.02 1.64-1.97 1.64Zm49.33-45.55c-1.64 0-3.21-.29-4.7-.87-6.87-2.68-9.3-10.55-9.4-10.88a2 2 0 0 1 3.83-1.15c.03.09 2.01 6.37 7.04 8.32 3.17 1.23 7.04.51 11.48-2.12.95-.56 2.18-.25 2.74.7s.25 2.18-.7 2.74c-3.67 2.18-7.12 3.27-10.3 3.27Zm8.86-13.29c-.2 0-.41-.03-.61-.1a2 2 0 0 1-1.29-2.52l1.65-5.13a2 2 0 0 1 2.52-1.29 2 2 0 0 1 1.29 2.52l-1.65 5.13c-.27.85-1.06 1.39-1.9 1.39Zm-7.51-2.17c-.71 0-1.4-.38-1.76-1.05-.52-.97-.16-2.19.81-2.71l.65-.35c.97-.52 2.19-.16 2.71.81s.16 2.19-.81 2.71l-.65.35c-.3.16-.63.24-.95.24M71.87 50.93c-3.55 0-6.46-1.67-6.61-1.76a2 2 0 0 1-.65-2.84l2.73-4.09c.61-.92 1.86-1.17 2.77-.55.92.61 1.17 1.86.55 2.77l-1.38 2.07c1.18.35 2.74.6 4.25.18 1.6-.44 2.87-1.54 3.89-3.35a1.99 1.99 0 0 1 2.72-.76c.96.54 1.3 1.76.76 2.72-1.56 2.77-3.69 4.54-6.35 5.26-.91.25-1.82.35-2.69.35Z" class="cls-6"/><path d="M47.05 60.65c-.29 0-.58-.06-.86-.19-1-.47-1.42-1.67-.95-2.66.25-.53 6.26-13.01 16.77-21.4.86-.69 2.12-.55 2.81.32.69.86.55 2.12-.32 2.81-9.77 7.8-15.59 19.87-15.65 19.99-.34.72-1.06 1.14-1.81 1.14Z" class="cls-4"/><path d="M73.43 105.31c-6.84-3.71-4.86-19.98-3.51-24.99 1.27-4.73 27.35-4.84 35.4 1.05.8.59 1.25 1.6 1.23 2.67-.06 3.48-.28 12.05-1.1 17.22-1.04 6.6-24.7 8.03-32.03 4.05Z" style="fill:#e8e1d9"/><path d="M81 108.7a2 2 0 0 1-2-1.97c0-.17-.41-16.92-10.27-17.04-1.1-.01-1.99-.92-1.98-2.02s.91-1.98 2-1.98h.02c5.82.07 10.14 3.85 12.48 10.93 1.65 4.97 1.74 9.84 1.74 10.05a2 2 0 0 1-1.97 2.03h-.03Zm11.35-1a2 2 0 0 1-2-1.97c0-.26-.61-25.69-15.96-25.87-1.1-.01-1.99-.92-1.98-2.02s.91-1.98 2-1.98h.02c8.09.09 14.11 5.41 17.41 15.37 2.36 7.14 2.5 14.15 2.5 14.44a2 2 0 0 1-1.97 2.03h-.03Zm12.27-2.75c-.67 0-1.32-.33-1.7-.94-.32-.52-7.88-12.81-7.48-26.2.03-1.1.95-2 2.06-1.94 1.1.03 1.97.96 1.94 2.06-.36 12.16 6.81 23.85 6.88 23.96a1.994 1.994 0 0 1-1.7 3.05Z" class="cls-4"/><path d="M83.45 109.14c-4.33 0-8.3-.62-10.97-2.07-3.75-2.03-5.38-6.73-6.09-10.31-1.17-5.91-.74-14.35 1.98-17.7 3.37-4.14 14.85-6.63 24.56-5.31 7.84 1.06 13.18 4.34 15.45 9.49 1.54 3.49 2.93 14.61-1.46 19.38-3.41 3.71-14.26 6.53-23.48 6.53Zm-9.07-5.59c6.52 3.53 25.75.54 29.6-3.65 2.77-3.02 1.94-12.34.74-15.06-2.12-4.81-7.87-6.54-12.33-7.14-9.29-1.26-18.94 1.44-20.92 3.88-1.49 1.83-2.32 8.52-1.16 14.4.77 3.88 2.21 6.57 4.07 7.57" class="cls-6"/></g></svg>