<?xml version="1.0" encoding="UTF-8"?>
<svg id="outline_icons" xmlns="http://www.w3.org/2000/svg" viewBox="0 0 112 112">
  <defs>
    <style>
      .cls-1 {
        fill: none;
      }

      .cls-2 {
        fill: #e8e1d9;
      }

      .cls-3 {
        fill: #d8d5c0;
      }

      .cls-4 {
        fill: #fff;
      }

      .cls-5 {
        fill: #c4c1ad;
      }

      .cls-6 {
        fill: #004241;
      }
    </style>
  </defs>
  <g id="cabillaud">
    <g id="pommedeterre">
      <rect class="cls-1" width="112" height="112"/>
    </g>
    <g>
      <g>
        <path class="cls-5" d="M80.66,52.84s2.12,9.71,10.75,6.71c0,0-.47-15.27-1.43-17.79"/>
        <path class="cls-6" d="M88.28,62.13c-1.51,0-2.91-.36-4.2-1.08-4.14-2.32-5.32-7.55-5.37-7.78-.24-1.08.45-2.14,1.53-2.38,1.07-.23,2.14.44,2.38,1.52.02.07.88,3.74,3.44,5.16.96.53,2.05.69,3.31.47-.25-6.92-.76-14.28-1.25-15.56-.39-1.03.13-2.19,1.16-2.58,1.03-.39,2.19.12,2.58,1.16,1.03,2.7,1.48,15.84,1.56,18.44.03.87-.52,1.66-1.34,1.95-1.33.46-2.59.69-3.79.69Z"/>
      </g>
      <g>
        <path class="cls-5" d="M46.92,72.3l-1.39,7.09s10.58-.82,13.76,2.87c0,0,9.77-13.23,6.49-18.12"/>
        <path class="cls-6" d="M59.3,84.25c-.58,0-1.13-.25-1.51-.69-1.9-2.21-8.97-2.42-12.09-2.18-.63.05-1.23-.2-1.65-.66-.42-.47-.59-1.1-.47-1.71l1.39-7.08c.21-1.08,1.26-1.79,2.35-1.58,1.08.21,1.79,1.26,1.58,2.35l-.9,4.62c2.94,0,7.73.3,10.89,2.1,5.08-7.4,6.19-12.76,5.25-14.16-.62-.92-.37-2.16.54-2.78.92-.61,2.16-.37,2.78.54,3.88,5.77-4.77,18.03-6.54,20.43-.36.49-.93.79-1.53.81-.03,0-.05,0-.08,0Z"/>
      </g>
      <g>
        <path class="cls-5" d="M43.22,49.36s-7.28-2.1-6.54-4.15,6.13-4.09,3.59-8.67-.58-9.94,3.53-10.06,13.73-1.2,16.56,1.81"/>
        <path class="cls-6" d="M43.22,51.36c-.18,0-.37-.03-.55-.08-1.92-.55-6.53-2.09-7.7-4.39-.39-.76-.45-1.6-.17-2.36.39-1.07,1.23-1.87,2.12-2.71,1.9-1.8,2.53-2.63,1.6-4.31-1.75-3.16-1.86-6.85-.28-9.62,1.19-2.09,3.2-3.34,5.5-3.41.6-.02,1.32-.06,2.12-.1,6.8-.37,13.14-.45,15.95,2.53.76.8.72,2.07-.08,2.83-.8.76-2.07.72-2.83-.08-1.77-1.88-9.24-1.48-12.83-1.28-.84.04-1.59.09-2.22.1-1.14.04-1.79.77-2.14,1.39-.88,1.55-.76,3.79.3,5.71,2.52,4.54-.65,7.54-2.35,9.15-.22.2-.49.46-.72.7.92.62,2.93,1.47,4.81,2.02,1.06.31,1.67,1.42,1.37,2.48-.25.88-1.05,1.45-1.92,1.45Z"/>
      </g>
      <g>
        <path class="cls-3" d="M7.49,82.19s7.33-6.53,14.97-7.8c7.64-1.26,10.05-5.9,16.73-18.35,6.67-12.45,21.43-36.8,58.1-45.4l-.76,7.09,6.45-2.19s.86,7.64-8.34,18.39c0,0-6.26,13.52-19.7,23.88-13.43,10.36-23.45,13.17-29.73,16.05s-9.9,8.57-12.16,16.66-6.31,12.6-6.31,12.6c0,0,2.12-8.77-5.14-15.58-7.26-6.82-14.11-5.37-14.11-5.37Z"/>
        <path class="cls-6" d="M26.74,105.14c-.32,0-.64-.08-.93-.23-.81-.43-1.23-1.35-1.01-2.24.07-.31,1.72-7.76-4.56-13.65-6.42-6.03-12.27-4.88-12.33-4.87-.89.19-1.79-.24-2.2-1.05-.41-.81-.22-1.79.45-2.4.32-.28,7.85-6.94,15.97-8.28,6.59-1.09,8.73-5.08,15.09-16.95l.2-.38c4.92-9.18,19.9-37.13,59.41-46.4.63-.15,1.29.02,1.78.45.49.43.73,1.07.66,1.71l-.43,3.98,3.49-1.18c.57-.19,1.2-.12,1.71.21s.85.86.92,1.46c.04.34.84,8.54-8.64,19.71-.97,2-7.36,14.49-20.17,24.37-10.88,8.39-19.53,11.91-25.84,14.48-1.62.66-3.03,1.23-4.28,1.81-5.31,2.44-8.82,7.33-11.06,15.38-2.35,8.45-6.57,13.21-6.75,13.41-.39.43-.93.66-1.49.66ZM13.06,80.54c2.81.67,6.33,2.2,9.91,5.56,3.56,3.35,5.11,7.1,5.71,10.27.86-1.74,1.74-3.88,2.43-6.37,2.58-9.27,6.79-14.98,13.25-17.95,1.34-.61,2.85-1.23,4.44-1.88,6.1-2.48,14.46-5.88,24.9-13.94,12.9-9.95,19.04-23.01,19.1-23.14.08-.17.18-.32.3-.46,5.33-6.22,7.07-11.31,7.63-14.22l-3.57,1.21c-.65.22-1.36.09-1.89-.33s-.81-1.1-.74-1.77l.46-4.25c-31.89,8.41-46.09,28.87-54.05,43.71l-.2.38c-6.67,12.44-9.43,17.59-17.96,19-3.55.59-7.09,2.46-9.72,4.17Z"/>
      </g>
      <path class="cls-6" d="M36.68,83.71c-.12,0-.24,0-.36-.03-8.96-1.62-10.92-10.1-11-10.46-.24-1.08.45-2.15,1.52-2.38,1.08-.24,2.14.44,2.38,1.52.06.28,1.52,6.26,7.81,7.39,1.09.2,1.81,1.24,1.61,2.32-.17.97-1.02,1.64-1.97,1.64Z"/>
      <path class="cls-6" d="M86.01,38.16c-1.64,0-3.21-.29-4.7-.87-6.87-2.68-9.3-10.55-9.4-10.88-.32-1.06.28-2.17,1.34-2.49,1.05-.32,2.17.28,2.49,1.34.03.09,2.01,6.37,7.04,8.32,3.17,1.23,7.04.51,11.48-2.12.95-.56,2.18-.25,2.74.7.56.95.25,2.18-.7,2.74-3.67,2.18-7.12,3.27-10.3,3.27Z"/>
      <path class="cls-6" d="M94.87,24.87c-.2,0-.41-.03-.61-.1-1.05-.34-1.63-1.46-1.29-2.52l1.65-5.13c.34-1.05,1.46-1.63,2.52-1.29,1.05.34,1.63,1.46,1.29,2.52l-1.65,5.13c-.27.85-1.06,1.39-1.9,1.39Z"/>
      <path class="cls-6" d="M87.36,22.7c-.71,0-1.4-.38-1.76-1.05-.52-.97-.16-2.19.81-2.71l.65-.35c.97-.52,2.19-.16,2.71.81.52.97.16,2.19-.81,2.71l-.65.35c-.3.16-.63.24-.95.24Z"/>
      <path class="cls-6" d="M71.87,50.93c-3.55,0-6.46-1.67-6.61-1.76-.48-.28-.82-.74-.94-1.28-.12-.54-.02-1.1.29-1.56l2.73-4.09c.61-.92,1.86-1.17,2.77-.55.92.61,1.17,1.86.55,2.77l-1.38,2.07c1.18.35,2.74.6,4.25.18,1.6-.44,2.87-1.54,3.89-3.35.54-.96,1.76-1.31,2.72-.76.96.54,1.3,1.76.76,2.72-1.56,2.77-3.69,4.54-6.35,5.26-.91.25-1.82.35-2.69.35Z"/>
      <path class="cls-4" d="M47.05,60.65c-.29,0-.58-.06-.86-.19-1-.47-1.42-1.67-.95-2.66.25-.53,6.26-13.01,16.77-21.4.86-.69,2.12-.55,2.81.32.69.86.55,2.12-.32,2.81-9.77,7.8-15.59,19.87-15.65,19.99-.34.72-1.06,1.14-1.81,1.14Z"/>
    </g>
    <g>
      <path class="cls-2" d="M73.43,105.31c-6.84-3.71-4.86-19.98-3.51-24.99,1.27-4.73,27.35-4.84,35.4,1.05.8.59,1.25,1.6,1.23,2.67-.06,3.48-.28,12.05-1.1,17.22-1.04,6.6-24.7,8.03-32.03,4.05Z"/>
      <path class="cls-4" d="M81,108.7c-1.09,0-1.98-.87-2-1.97,0-.17-.41-16.92-10.27-17.04-1.1-.01-1.99-.92-1.98-2.02.01-1.1.91-1.98,2-1.98h.02c5.82.07,10.14,3.85,12.48,10.93,1.65,4.97,1.74,9.84,1.74,10.05.02,1.1-.86,2.01-1.97,2.03h-.03Z"/>
      <path class="cls-4" d="M92.35,107.7c-1.09,0-1.98-.87-2-1.97,0-.26-.61-25.69-15.96-25.87-1.1-.01-1.99-.92-1.98-2.02.01-1.1.91-1.98,2-1.98h.02c8.09.09,14.11,5.41,17.41,15.37,2.36,7.14,2.5,14.15,2.5,14.44.02,1.1-.86,2.01-1.97,2.03h-.03Z"/>
      <path class="cls-4" d="M104.62,104.95c-.67,0-1.32-.33-1.7-.94-.32-.52-7.88-12.81-7.48-26.2.03-1.1.95-2,2.06-1.94,1.1.03,1.97.96,1.94,2.06-.36,12.16,6.81,23.85,6.88,23.96.58.94.3,2.17-.64,2.75-.33.21-.69.3-1.06.3Z"/>
      <path class="cls-6" d="M83.45,109.14c-4.33,0-8.3-.62-10.97-2.07h0c-3.75-2.03-5.38-6.73-6.09-10.31-1.17-5.91-.74-14.35,1.98-17.7,3.37-4.14,14.85-6.63,24.56-5.31,7.84,1.06,13.18,4.34,15.45,9.49,1.54,3.49,2.93,14.61-1.46,19.38-3.41,3.71-14.26,6.53-23.48,6.53ZM74.38,103.55c6.52,3.53,25.75.54,29.6-3.65,2.77-3.02,1.94-12.34.74-15.06-2.12-4.81-7.87-6.54-12.33-7.14-9.29-1.26-18.94,1.44-20.92,3.88-1.49,1.83-2.32,8.52-1.16,14.4.77,3.88,2.21,6.57,4.07,7.57h0Z"/>
    </g>
  </g>
</svg>