<?xml version="1.0" encoding="UTF-8"?>
<svg id="flatten_icons" data-name="flatten icons" xmlns="http://www.w3.org/2000/svg" viewBox="0 0 112 112">
  <defs>
    <style>
      .cls-1 {
        fill: none;
      }

      .cls-1, .cls-2, .cls-3, .cls-4, .cls-5, .cls-6, .cls-7, .cls-8 {
        stroke-width: 0px;
      }

      .cls-2 {
        fill: #d3d9dc;
      }

      .cls-3 {
        fill: #b2c3c4;
      }

      .cls-4 {
        fill: #8e889b;
      }

      .cls-5 {
        fill: #fff;
      }

      .cls-6 {
        fill: #edece8;
      }

      .cls-7 {
        fill: #e7edef;
      }

      .cls-8 {
        fill: #004241;
      }
    </style>
  </defs>
  <g id="cafetiere-espresso">
    <g id="area">
      <rect class="cls-1" width="112" height="112"/>
    </g>
    <g id="cafetiere-espresso-2" data-name="cafetiere-espresso">
      <g>
        <rect class="cls-2" x="27.53" y="32.28" width="78.3" height="63.95"/>
        <path class="cls-8" d="m105.83,98.23H27.53c-1.1,0-2-.9-2-2v-63.95c0-1.1.9-2,2-2h78.3c1.1,0,2,.9,2,2v63.95c0,1.1-.9,2-2,2Zm-76.3-4h74.3v-59.95H29.53v59.95Z"/>
      </g>
      <path class="cls-3" d="m33.93,32.28s-6.81,74.09,32.75,74.09,32.71-74.09,32.71-74.09"/>
      <path class="cls-8" d="m57.67,87.8h-7.17c-3.53,0-6.4-2.87-6.4-6.4s2.87-6.4,6.4-6.4h5.78c1.1,0,2,.9,2,2s-.9,2-2,2h-5.78c-1.32,0-2.4,1.08-2.4,2.4s1.08,2.4,2.4,2.4h7.17c1.1,0,2,.9,2,2s-.9,2-2,2Z"/>
      <g>
        <polygon class="cls-6" points="75.38 95.51 59.83 95.51 56.83 71.45 78.38 71.45 75.38 95.51"/>
        <path class="cls-8" d="m75.38,97.52h-15.55c-1.01,0-1.86-.75-1.98-1.75l-3-24.07c-.07-.57.11-1.14.49-1.57.38-.43.93-.68,1.5-.68h21.55c.57,0,1.12.25,1.5.68.38.43.56,1,.49,1.57l-3,24.07c-.12,1-.98,1.75-1.98,1.75Zm-13.79-4h12.02l2.5-20.07h-17.02l2.5,20.07Z"/>
      </g>
      <g>
        <rect class="cls-7" x="23.48" y="95.94" width="86.39" height="10.43"/>
        <path class="cls-8" d="m109.87,108.37H23.48c-1.1,0-2-.9-2-2v-10.43c0-1.1.9-2,2-2h86.39c1.1,0,2,.9,2,2v10.43c0,1.1-.9,2-2,2Zm-84.39-4h82.39v-6.43H25.48v6.43Z"/>
      </g>
      <g>
        <path class="cls-7" d="m40.09,5.63h53.18c9.17,0,16.61,7.44,16.61,16.61v10.05H23.48v-10.05c0-9.17,7.44-16.61,16.61-16.61Z"/>
        <path class="cls-8" d="m109.87,34.28H23.48c-1.1,0-2-.9-2-2v-10.05c0-10.26,8.35-18.61,18.61-18.61h53.18c10.26,0,18.61,8.35,18.61,18.61v10.05c0,1.1-.9,2-2,2Zm-84.39-4h82.39v-8.05c0-8.05-6.55-14.61-14.61-14.61h-53.18c-8.05,0-14.61,6.55-14.61,14.61v8.05Z"/>
      </g>
      <g>
        <rect class="cls-7" x="50.18" y="39.82" width="33" height="11.66"/>
        <path class="cls-8" d="m83.18,53.48h-33c-1.1,0-2-.9-2-2v-11.66c0-1.1.9-2,2-2h33c1.1,0,2,.9,2,2v11.66c0,1.1-.9,2-2,2Zm-31-4h29v-7.66h-29v7.66Z"/>
      </g>
      <g>
        <polygon class="cls-4" points="91.18 32.28 42.18 32.28 50.18 39.82 83.18 39.82 91.18 32.28"/>
        <path class="cls-8" d="m83.18,41.82h-33c-.51,0-1-.19-1.37-.54l-8-7.53c-.6-.56-.79-1.43-.49-2.19.3-.76,1.04-1.26,1.86-1.26h49c.82,0,1.56.5,1.86,1.26.3.76.11,1.63-.49,2.19l-8,7.53c-.37.35-.86.54-1.37.54Zm-32.21-4h31.41l3.75-3.53h-38.92l3.75,3.53Z"/>
      </g>
      <g>
        <rect class="cls-7" x="2.13" y="39.82" width="33" height="12.57" rx="6.29" ry="6.29"/>
        <path class="cls-8" d="m28.84,54.39H8.41C3.84,54.39.13,50.67.13,46.1s3.72-8.29,8.29-8.29h20.43c4.57,0,8.29,3.72,8.29,8.29s-3.72,8.29-8.29,8.29Zm-20.43-12.57c-2.36,0-4.29,1.92-4.29,4.29s1.92,4.29,4.29,4.29h20.43c2.36,0,4.29-1.92,4.29-4.29s-1.92-4.29-4.29-4.29H8.41Z"/>
      </g>
      <g>
        <rect class="cls-7" x="57.62" y="51.95" width="18.11" height="7"/>
        <path class="cls-8" d="m75.73,60.95h-18.11c-1.1,0-2-.9-2-2v-7c0-1.1.9-2,2-2h18.11c1.1,0,2,.9,2,2v7c0,1.1-.9,2-2,2Zm-16.11-4h14.11v-3h-14.11v3Z"/>
      </g>
      <path class="cls-8" d="m50.18,48.1h-15.05c-1.1,0-2-.9-2-2s.9-2,2-2h15.05c1.1,0,2,.9,2,2s-.9,2-2,2Z"/>
      <path class="cls-8" d="m96.82,22.72h-6.48c-1.1,0-2-.9-2-2s.9-2,2-2h6.48c1.1,0,2,.9,2,2s-.9,2-2,2Z"/>
      <path class="cls-8" d="m62.56,63.2c-1.1,0-2-.9-2-2v-2.27c0-1.1.9-2,2-2s2,.9,2,2v2.27c0,1.1-.9,2-2,2Z"/>
      <path class="cls-8" d="m70.83,63.2c-1.1,0-2-.9-2-2v-2.27c0-1.1.9-2,2-2s2,.9,2,2v2.27c0,1.1-.9,2-2,2Z"/>
      <path class="cls-5" d="m31.73,21.93h0c0-5.35,4.34-9.68,9.68-9.68h24.13c1.17,0,1.79,1.38,1.02,2.25-2.83,3.17-10.95,8.58-33.47,8.79-.75,0-1.37-.6-1.37-1.35Z"/>
    </g>
  </g>
</svg>