<svg xmlns="http://www.w3.org/2000/svg" id="flatten_icons" data-name="flatten icons" viewBox="0 0 112 112"><defs><style>.cls-5,.cls-8{stroke-width:0}.cls-5{fill:#fdda49}.cls-8{fill:#004241}</style></defs><g id="cafetiere-dosette"><path id="area" d="M0 0h112v112H0z" style="fill:none;stroke-width:0"/><path d="m41.98 29.91-2 6.83H32.2l-2-6.83" style="stroke-width:0;fill:#d3d9dc"/><path d="M39.98 38.74H32.2c-.89 0-1.67-.59-1.92-1.44l-2-6.83a2 2 0 0 1 3.84-1.12l1.58 5.4h4.78l1.58-5.4a2 2 0 0 1 3.84 1.12l-2 6.83c-.25.85-1.03 1.44-1.92 1.44" class="cls-8"/><path d="M56 29.91v53.57H22.31V95.8h75.12V29.91z" style="stroke-width:0;fill:#8e88a6"/><path d="M97.43 97.8H22.31c-1.1 0-2-.9-2-2V83.48c0-1.1.9-2 2-2H54V29.91c0-1.1.9-2 2-2h41.43c1.1 0 2 .9 2 2v65.9c0 1.1-.9 2-2 2Zm-73.12-4h71.12V31.91H58v51.57c0 1.1-.9 2-2 2H24.31z" class="cls-8"/><path d="M26.82 75.77h-7.17c-3.53 0-6.4-2.87-6.4-6.4s2.87-6.4 6.4-6.4h5.78c1.1 0 2 .9 2 2s-.9 2-2 2h-5.78c-1.32 0-2.4 1.08-2.4 2.4s1.08 2.4 2.4 2.4h7.17c1.1 0 2 .9 2 2s-.9 2-2 2" class="cls-8"/><rect width="8.86" height="43.74" x="79.47" y="39.74" rx="4.43" ry="4.43" style="stroke-width:0;fill:#c9dde4"/><path d="M83.9 85.48c-3.54 0-6.43-2.88-6.43-6.43V44.17c0-3.54 2.88-6.43 6.43-6.43s6.43 2.88 6.43 6.43v34.88c0 3.54-2.88 6.43-6.43 6.43m0-43.74c-1.34 0-2.43 1.09-2.43 2.43v34.88c0 1.34 1.09 2.43 2.43 2.43s2.43-1.09 2.43-2.43V44.17c0-1.34-1.09-2.43-2.43-2.43" class="cls-8"/><path d="M78.66 5.63H42.97c-10.27 0-18.61 8.26-18.76 18.49h-6.67c-1.64 0-2.98 1.29-2.98 2.89s1.33 2.89 2.98 2.89h79.89v-5.51c0-10.37-8.4-18.77-18.77-18.77Z" class="cls-5"/><path d="M97.43 31.91H17.54c-2.74 0-4.98-2.19-4.98-4.89s2.23-4.89 4.98-4.89h4.79C23.48 11.77 32.35 3.64 42.96 3.64h35.69c11.45 0 20.77 9.32 20.77 20.77v5.51c0 1.1-.9 2-2 2Zm-79.89-5.78c-.54 0-.98.4-.98.89s.44.89.98.89h77.89V24.4c0-9.25-7.52-16.77-16.77-16.77H42.97c-9.11 0-16.62 7.41-16.76 16.52a2.006 2.006 0 0 1-2 1.97h-6.67Z" class="cls-8"/><path d="M22.31 95.8h75.12v10.57H22.31z" class="cls-5"/><path d="M97.43 108.37H22.31c-1.1 0-2-.9-2-2V95.8c0-1.1.9-2 2-2h75.12c1.1 0 2 .9 2 2v10.57c0 1.1-.9 2-2 2m-73.12-4h71.12V97.8H24.31z" class="cls-8"/><path d="M44.54 83.48H28.98l-3-24.06h21.56z" style="stroke-width:0;fill:#edece8"/><path d="M44.54 85.48H28.99a1.99 1.99 0 0 1-1.98-1.75l-3-24.07A2.01 2.01 0 0 1 26 57.41h21.55a2.01 2.01 0 0 1 1.99 2.25l-3 24.07c-.12 1-.98 1.75-1.98 1.75Zm-13.79-4h12.02l2.5-20.07H28.25zm56.44-58.76H83.9c-1.1 0-2-.9-2-2s.9-2 2-2h3.29c1.1 0 2 .9 2 2s-.9 2-2 2" class="cls-8"/><path d="M43.09 13.06c1.32-.25 2.28-1.4 2.28-2.75V5.63h-2.4c-10.27 0-18.61 8.26-18.76 18.49h-6.67c-1.64 0-2.98 1.29-2.98 2.89s1.33 2.89 2.98 2.89H32.2c0-13.09 7.12-16.15 10.89-16.85Z" style="stroke-width:0;fill:#e7edef"/><path d="M32.2 31.91H17.54c-2.74 0-4.98-2.19-4.98-4.89s2.23-4.89 4.98-4.89h4.79C23.48 11.77 32.35 3.64 42.96 3.64h2.4c1.1 0 2 .9 2 2v4.68c0 2.31-1.64 4.29-3.91 4.71-3.46.65-9.26 3.44-9.26 14.89 0 1.1-.9 2-2 2Zm-14.66-5.78c-.54 0-.98.4-.98.89s.44.89.98.89h12.71c.75-13.17 8.88-16.15 12.47-16.82.37-.07.64-.4.64-.78V7.63h-.4c-9.11 0-16.62 7.41-16.76 16.52a2.006 2.006 0 0 1-2 1.97h-6.67Z" class="cls-8"/></g></svg>