<svg xmlns="http://www.w3.org/2000/svg" id="flatten_icons" data-name="flatten icons" viewBox="0 0 112 112"><defs><style>.cls-7,.cls-8{stroke-width:0}.cls-7{fill:#e7edef}.cls-8{fill:#004241}</style></defs><g id="cafetiere-espresso"><path id="area" d="M0 0h112v112H0z" style="fill:none;stroke-width:0"/><g id="cafetiere-espresso-2" data-name="cafetiere-espresso"><path d="M27.53 32.28h78.3v63.95h-78.3z" style="stroke-width:0;fill:#d3d9dc"/><path d="M105.83 98.23h-78.3c-1.1 0-2-.9-2-2V32.28c0-1.1.9-2 2-2h78.3c1.1 0 2 .9 2 2v63.95c0 1.1-.9 2-2 2m-76.3-4h74.3V34.28h-74.3z" class="cls-8"/><path d="M33.93 32.28s-6.81 74.09 32.75 74.09 32.71-74.09 32.71-74.09" style="stroke-width:0;fill:#b2c3c4"/><path d="M57.67 87.8H50.5c-3.53 0-6.4-2.87-6.4-6.4s2.87-6.4 6.4-6.4h5.78c1.1 0 2 .9 2 2s-.9 2-2 2H50.5c-1.32 0-2.4 1.08-2.4 2.4s1.08 2.4 2.4 2.4h7.17c1.1 0 2 .9 2 2s-.9 2-2 2" class="cls-8"/><path d="M75.38 95.51H59.83l-3-24.06h21.55z" style="stroke-width:0;fill:#edece8"/><path d="M75.38 97.52H59.83a1.99 1.99 0 0 1-1.98-1.75l-3-24.07a2.01 2.01 0 0 1 1.99-2.25h21.55a2.01 2.01 0 0 1 1.99 2.25l-3 24.07c-.12 1-.98 1.75-1.98 1.75Zm-13.79-4h12.02l2.5-20.07H59.09z" class="cls-8"/><path d="M23.48 95.94h86.39v10.43H23.48z" class="cls-7"/><path d="M109.87 108.37H23.48c-1.1 0-2-.9-2-2V95.94c0-1.1.9-2 2-2h86.39c1.1 0 2 .9 2 2v10.43c0 1.1-.9 2-2 2m-84.39-4h82.39v-6.43H25.48z" class="cls-8"/><path d="M40.09 5.63h53.18c9.17 0 16.61 7.44 16.61 16.61v10.05h-86.4V22.24c0-9.17 7.44-16.61 16.61-16.61" class="cls-7"/><path d="M109.87 34.28H23.48c-1.1 0-2-.9-2-2V22.23c0-10.26 8.35-18.61 18.61-18.61h53.18c10.26 0 18.61 8.35 18.61 18.61v10.05c0 1.1-.9 2-2 2Zm-84.39-4h82.39v-8.05c0-8.05-6.55-14.61-14.61-14.61H40.08c-8.05 0-14.61 6.55-14.61 14.61v8.05Z" class="cls-8"/><path d="M50.18 39.82h33v11.66h-33z" class="cls-7"/><path d="M83.18 53.48h-33c-1.1 0-2-.9-2-2V39.82c0-1.1.9-2 2-2h33c1.1 0 2 .9 2 2v11.66c0 1.1-.9 2-2 2m-31-4h29v-7.66h-29z" class="cls-8"/><path d="M91.18 32.28h-49l8 7.54h33z" style="stroke-width:0;fill:#8e889b"/><path d="M83.18 41.82h-33c-.51 0-1-.19-1.37-.54l-8-7.53a1.994 1.994 0 0 1 1.37-3.45h49a1.994 1.994 0 0 1 1.37 3.45l-8 7.53c-.37.35-.86.54-1.37.54m-32.21-4h31.41l3.75-3.53H47.21l3.75 3.53Z" class="cls-8"/><rect width="33" height="12.57" x="2.13" y="39.82" class="cls-7" rx="6.29" ry="6.29"/><path d="M28.84 54.39H8.41c-4.57 0-8.28-3.72-8.28-8.29s3.72-8.29 8.29-8.29h20.43c4.57 0 8.29 3.72 8.29 8.29s-3.72 8.29-8.29 8.29ZM8.41 41.82a4.29 4.29 0 1 0 0 8.58h20.43a4.29 4.29 0 1 0 0-8.58z" class="cls-8"/><path d="M57.62 51.95h18.11v7H57.62z" class="cls-7"/><path d="M75.73 60.95H57.62c-1.1 0-2-.9-2-2v-7c0-1.1.9-2 2-2h18.11c1.1 0 2 .9 2 2v7c0 1.1-.9 2-2 2m-16.11-4h14.11v-3H59.62zm-9.44-8.85H35.13c-1.1 0-2-.9-2-2s.9-2 2-2h15.05c1.1 0 2 .9 2 2s-.9 2-2 2m46.64-25.38h-6.48c-1.1 0-2-.9-2-2s.9-2 2-2h6.48c1.1 0 2 .9 2 2s-.9 2-2 2" class="cls-8"/><path d="M62.56 63.2c-1.1 0-2-.9-2-2v-2.27c0-1.1.9-2 2-2s2 .9 2 2v2.27c0 1.1-.9 2-2 2m8.27 0c-1.1 0-2-.9-2-2v-2.27c0-1.1.9-2 2-2s2 .9 2 2v2.27c0 1.1-.9 2-2 2" class="cls-8"/><path d="M31.73 21.93c0-5.35 4.34-9.68 9.68-9.68h24.13c1.17 0 1.79 1.38 1.02 2.25-2.83 3.17-10.95 8.58-33.47 8.79-.75 0-1.37-.6-1.37-1.35Z" style="stroke-width:0;fill:#fff"/></g></g></svg>