<?xml version="1.0" encoding="UTF-8"?>
<svg id="flatten_icons" data-name="flatten icons" xmlns="http://www.w3.org/2000/svg" viewBox="0 0 112 112">
  <defs>
    <style>
      .cls-1 {
        fill: none;
      }

      .cls-1, .cls-2, .cls-3, .cls-4, .cls-5, .cls-6, .cls-7, .cls-8 {
        stroke-width: 0px;
      }

      .cls-2 {
        fill: #c9dde4;
      }

      .cls-3 {
        fill: #d3d9dc;
      }

      .cls-4 {
        fill: #8e88a6;
      }

      .cls-5 {
        fill: #fdda49;
      }

      .cls-6 {
        fill: #edece8;
      }

      .cls-7 {
        fill: #e7edef;
      }

      .cls-8 {
        fill: #004241;
      }
    </style>
  </defs>
  <g id="cafetiere-dosette">
    <g id="area">
      <rect class="cls-1" width="112" height="112"/>
    </g>
    <g>
      <g>
        <polyline class="cls-3" points="41.98 29.91 39.98 36.74 32.2 36.74 30.2 29.91"/>
        <path class="cls-8" d="m39.98,38.74h-7.78c-.89,0-1.67-.59-1.92-1.44l-2-6.83c-.31-1.06.3-2.17,1.36-2.48,1.06-.31,2.17.3,2.48,1.36l1.58,5.4h4.78l1.58-5.4c.31-1.06,1.42-1.67,2.48-1.36,1.06.31,1.67,1.42,1.36,2.48l-2,6.83c-.25.85-1.03,1.44-1.92,1.44Z"/>
      </g>
      <g>
        <polygon class="cls-4" points="56 29.91 56 83.48 22.31 83.48 22.31 95.8 56 95.8 67.32 95.8 97.43 95.8 97.43 29.91 56 29.91"/>
        <path class="cls-8" d="m97.43,97.8H22.31c-1.1,0-2-.9-2-2v-12.32c0-1.1.9-2,2-2h31.69V29.91c0-1.1.9-2,2-2h41.43c1.1,0,2,.9,2,2v65.9c0,1.1-.9,2-2,2Zm-73.12-4h71.12V31.91h-37.43v51.57c0,1.1-.9,2-2,2h-31.69v8.32Z"/>
      </g>
      <path class="cls-8" d="m26.82,75.77h-7.17c-3.53,0-6.4-2.87-6.4-6.4s2.87-6.4,6.4-6.4h5.78c1.1,0,2,.9,2,2s-.9,2-2,2h-5.78c-1.32,0-2.4,1.08-2.4,2.4s1.08,2.4,2.4,2.4h7.17c1.1,0,2,.9,2,2s-.9,2-2,2Z"/>
      <g>
        <rect class="cls-2" x="79.47" y="39.74" width="8.86" height="43.74" rx="4.43" ry="4.43"/>
        <path class="cls-8" d="m83.9,85.48c-3.54,0-6.43-2.88-6.43-6.43v-34.88c0-3.54,2.88-6.43,6.43-6.43s6.43,2.88,6.43,6.43v34.88c0,3.54-2.88,6.43-6.43,6.43Zm0-43.74c-1.34,0-2.43,1.09-2.43,2.43v34.88c0,1.34,1.09,2.43,2.43,2.43s2.43-1.09,2.43-2.43v-34.88c0-1.34-1.09-2.43-2.43-2.43Z"/>
      </g>
      <g>
        <path class="cls-5" d="m78.66,5.63h-35.69c-10.27,0-18.61,8.26-18.76,18.49h-6.67c-1.64,0-2.98,1.29-2.98,2.89s1.33,2.89,2.98,2.89h79.89v-5.51c0-10.37-8.4-18.77-18.77-18.77Z"/>
        <path class="cls-8" d="m97.43,31.91H17.54c-2.74,0-4.98-2.19-4.98-4.89s2.23-4.89,4.98-4.89h4.79c1.15-10.36,10.02-18.49,20.63-18.49h35.69c11.45,0,20.77,9.32,20.77,20.77v5.51c0,1.1-.9,2-2,2Zm-79.89-5.78c-.54,0-.98.4-.98.89s.44.89.98.89h77.89v-3.51c0-9.25-7.52-16.77-16.77-16.77h-35.69c-9.11,0-16.62,7.41-16.76,16.52-.02,1.09-.91,1.97-2,1.97h-6.67Z"/>
      </g>
      <g>
        <rect class="cls-5" x="22.31" y="95.8" width="75.12" height="10.57"/>
        <path class="cls-8" d="m97.43,108.37H22.31c-1.1,0-2-.9-2-2v-10.57c0-1.1.9-2,2-2h75.12c1.1,0,2,.9,2,2v10.57c0,1.1-.9,2-2,2Zm-73.12-4h71.12v-6.57H24.31v6.57Z"/>
      </g>
      <g>
        <polygon class="cls-6" points="44.54 83.48 28.98 83.48 25.98 59.42 47.54 59.42 44.54 83.48"/>
        <path class="cls-8" d="m44.54,85.48h-15.55c-1.01,0-1.86-.75-1.98-1.75l-3-24.07c-.07-.57.11-1.14.49-1.57.38-.43.93-.68,1.5-.68h21.55c.57,0,1.12.25,1.5.68.38.43.56,1,.49,1.57l-3,24.07c-.12,1-.98,1.75-1.98,1.75Zm-13.79-4h12.02l2.5-20.07h-17.02l2.5,20.07Z"/>
      </g>
      <path class="cls-8" d="m87.19,22.72h-3.29c-1.1,0-2-.9-2-2s.9-2,2-2h3.29c1.1,0,2,.9,2,2s-.9,2-2,2Z"/>
      <g>
        <path class="cls-7" d="m43.09,13.06c1.32-.25,2.28-1.4,2.28-2.75v-4.68h-2.4c-10.27,0-18.61,8.26-18.76,18.49h-6.67c-1.64,0-2.98,1.29-2.98,2.89s1.33,2.89,2.98,2.89h14.66c0-13.09,7.12-16.15,10.89-16.85Z"/>
        <path class="cls-8" d="m32.2,31.91h-14.66c-2.74,0-4.98-2.19-4.98-4.89s2.23-4.89,4.98-4.89h4.79c1.15-10.36,10.02-18.49,20.63-18.49h2.4c1.1,0,2,.9,2,2v4.68c0,2.31-1.64,4.29-3.91,4.71-3.46.65-9.26,3.44-9.26,14.89,0,1.1-.9,2-2,2Zm-14.66-5.78c-.54,0-.98.4-.98.89s.44.89.98.89h12.71c.75-13.17,8.88-16.15,12.47-16.82h0c.37-.07.64-.4.64-.78v-2.68h-.4c-9.11,0-16.62,7.41-16.76,16.52-.02,1.09-.91,1.97-2,1.97h-6.67Z"/>
      </g>
    </g>
  </g>
</svg>