<svg xmlns="http://www.w3.org/2000/svg" id="flatten_icons" data-name="flatten icons" viewBox="0 0 112 112"><defs><style>.cls-6,.cls-7{stroke-width:0}.cls-6{fill:#ed706b}.cls-7{fill:#004241}</style></defs><g id="cafetiere-filtre"><path id="area" d="M0 0h112v112H0z" style="fill:none;stroke-width:0"/><g id="cafetiere-filtre-2" data-name="cafetiere-filtre"><path d="M55.97 52.04H13.69l6.61 5.98a25.17 25.17 0 0 0-4.52 14.4c0 13.95 11.31 25.27 25.27 25.27s25.27-11.31 25.27-25.27c0-8.37-4.07-15.79-10.34-20.38Z" style="stroke-width:0;fill:#d5e6ec"/><path d="M71.79 18.58h30.18v88.34H71.79z" class="cls-6"/><path d="M101.97 108.92H71.79c-1.1 0-2-.9-2-2V18.58c0-1.1.9-2 2-2h30.18c1.1 0 2 .9 2 2v88.34c0 1.1-.9 2-2 2m-28.18-4h26.18V20.58H73.79z" class="cls-7"/><path d="M15.79 72.95c.28 13.71 11.47 24.75 25.25 24.75s24.98-11.03 25.25-24.75z" style="stroke-width:0;fill:#a07554"/><path d="M41.05 99.69c-15.04 0-27.27-12.23-27.27-27.27 0-4.99 1.35-9.82 3.91-14.06l-5.35-4.84a2 2 0 0 1 1.35-3.48h42.29c.43 0 .84.14 1.18.39 6.99 5.13 11.16 13.35 11.16 22 0 15.04-12.23 27.27-27.27 27.27ZM18.88 54.04l2.76 2.5c.75.68.87 1.8.3 2.62a23.1 23.1 0 0 0-4.16 13.26c0 12.83 10.44 23.27 23.27 23.27s23.27-10.44 23.27-23.27c0-7.17-3.36-13.99-9.01-18.38z" class="cls-7"/><path d="M57.75 5.08h38.47c3.14 0 5.69 2.55 5.69 5.69v7.8H57.75z" class="cls-6"/><path d="M101.91 20.58H57.75c-1.1 0-2-.9-2-2V5.08c0-1.1.9-2 2-2h38.47c4.24 0 7.69 3.45 7.69 7.69v7.8c0 1.1-.9 2-2 2Zm-42.16-4h40.16v-5.8c0-2.04-1.66-3.69-3.69-3.69H59.75z" class="cls-7"/><path d="M27.13 5.08h30.62v13.49H20.53v-6.9a6.59 6.59 0 0 1 6.59-6.59Z" class="cls-6"/><path d="M57.75 20.58H20.53c-1.1 0-2-.9-2-2v-6.9c0-4.74 3.85-8.59 8.59-8.59h30.62c1.1 0 2 .9 2 2v13.49c0 1.1-.9 2-2 2Zm-35.21-4h33.21v-9.5H27.13c-2.53 0-4.59 2.06-4.59 4.59v4.9Z" class="cls-7"/><path d="M17.57 93.42h50.1c4.16 0 7.53 3.37 7.53 7.53v5.96H10.03v-5.96c0-4.16 3.37-7.53 7.53-7.53Z" class="cls-6"/><path d="M75.2 108.92H10.03c-1.1 0-2-.9-2-2v-5.96c0-5.26 4.28-9.53 9.53-9.53h50.1c5.26 0 9.53 4.28 9.53 9.53v5.96c0 1.1-.9 2-2 2Zm-63.16-4H73.2v-3.96c0-3.05-2.48-5.53-5.53-5.53h-50.1c-3.05 0-5.53 2.48-5.53 5.53z" class="cls-7"/><path d="M57.75 18.58 47.34 41.54a4.74 4.74 0 0 1-4.35 2.85h-7.38c-1.87 0-3.56-1.1-4.33-2.8l-10.75-23h37.21Z" style="stroke-width:0;fill:#8e88a6"/><path d="M42.99 46.38h-7.38c-2.65 0-5.07-1.56-6.15-3.99L18.72 19.42c-.29-.62-.24-1.34.12-1.92.37-.58 1-.93 1.69-.93h37.21c.68 0 1.31.35 1.68.92s.42 1.29.14 1.91L49.15 42.36a6.73 6.73 0 0 1-6.17 4.03ZM23.68 20.57l9.42 20.16a2.76 2.76 0 0 0 2.52 1.65H43c1.09 0 2.08-.65 2.52-1.65l9.14-20.16H23.69Zm13.27 48.54h-7.37c-1.1 0-2-.9-2-2s.9-2 2-2h7.37c1.1 0 2 .9 2 2s-.9 2-2 2m0 7.68h-7.37c-1.1 0-2-.9-2-2s.9-2 2-2h7.37c1.1 0 2 .9 2 2s-.9 2-2 2m0 7.68h-7.37c-1.1 0-2-.9-2-2s.9-2 2-2h7.37c1.1 0 2 .9 2 2s-.9 2-2 2m15.28-6.21c-1.1 0-2-.9-2-2V63.69c0-4.85-4.32-8.66-6.18-10.07a1.995 1.995 0 0 1-.38-2.8c.67-.88 1.92-1.05 2.8-.38 2.9 2.21 7.76 6.86 7.76 13.26v12.57c0 1.1-.9 2-2 2Z" class="cls-7"/><rect width="9.76" height="52.46" x="82" y="28.77" rx="4.88" ry="4.88" style="stroke-width:0;fill:#c9dde4"/><path d="M86.88 83.23c-3.79 0-6.88-3.09-6.88-6.88v-42.7c0-3.79 3.09-6.88 6.88-6.88s6.88 3.09 6.88 6.88v42.7c0 3.79-3.09 6.88-6.88 6.88m0-52.46A2.88 2.88 0 0 0 84 33.65v42.7a2.88 2.88 0 0 0 5.76 0v-42.7a2.88 2.88 0 0 0-2.88-2.88m4.88 64.65h-3.85c-1.1 0-2-.9-2-2s.9-2 2-2h3.85c1.1 0 2 .9 2 2s-.9 2-2 2" class="cls-7"/></g></g></svg>