<?xml version="1.0" encoding="UTF-8"?>
<svg id="outline_icons" xmlns="http://www.w3.org/2000/svg" viewBox="0 0 112 112">
  <defs>
    <style>
      .cls-1 {
        fill: none;
      }

      .cls-2 {
        fill: #dd7957;
      }

      .cls-3 {
        fill: #e0bfc0;
      }

      .cls-4 {
        fill: #8eb763;
      }

      .cls-5 {
        fill: #579e6b;
      }

      .cls-6 {
        fill: #ce9bb6;
      }

      .cls-7 {
        fill: #004241;
      }

      .cls-8 {
        fill: #ffdb49;
      }
    </style>
  </defs>
  <g id="area">
    <rect class="cls-1" y="0" width="112" height="112"/>
  </g>
  <path class="cls-3" d="M57.86,9.5c-23.33,0-42.24,18.91-42.24,42.24,0,8.63,2.59,16.64,7.03,23.33v33.43h77.45v-56.76c0-23.33-18.91-42.24-42.24-42.24Z"/>
  <g>
    <path class="cls-8" d="M86.34,14.9h0c0-3.18,1.14-6.08,3.04-8.34-.39-.04-.79-.06-1.19-.06h0c-7.19,0-13.02,5.82-13.02,13h0c0,7.18,5.83,13,13.02,13h0c4.01,0,7.59-1.81,9.98-4.66-6.63-.6-11.82-6.16-11.82-12.94Z"/>
    <path class="cls-7" d="M88.18,34.5c-8.28,0-15.02-6.73-15.02-15s6.74-15,15.02-15c.46,0,.92.03,1.38.07.74.07,1.38.54,1.67,1.23.28.69.16,1.48-.32,2.05-1.66,1.98-2.57,4.48-2.57,7.06,0,5.72,4.3,10.43,10.01,10.95.74.07,1.38.54,1.67,1.23.28.69.16,1.48-.32,2.05-2.87,3.42-7.06,5.37-11.51,5.37ZM85.64,8.8c-4.86,1.15-8.48,5.51-8.48,10.71,0,6.07,4.94,11,11.02,11,2.05,0,4.03-.57,5.73-1.61-5.67-2.17-9.58-7.62-9.58-13.99,0-2.12.45-4.2,1.3-6.11Z"/>
  </g>
  <g>
    <path class="cls-4" d="M54.91,46.6c0-4.83-2.49-9.13-6.38-11.92-1.61-1.16-2.78-2.72-3.4-4.49-2.5-7.18-10.23-12.27-19.18-11.63-8.71.62-15.9,6.86-16.89,14.68-.43,3.41.28,6.65,1.84,9.43s1.47,6.32-.55,9c-2.81,3.73-4.24,8.38-3.62,13.34,1.13,9.06,9.26,16.37,19.31,17.37,13.24,1.32,24.45-7.99,24.45-19.65,0-.67-.04-1.34-.12-1.99-.23-1.92.3-3.88,1.52-5.46,1.9-2.46,3.01-5.45,3.01-8.68Z"/>
    <path class="cls-7" d="M28.53,84.5c-.89,0-1.78-.04-2.68-.13-10.99-1.09-19.86-9.13-21.1-19.12-.65-5.24.77-10.49,4.01-14.79,1.51-2.01,1.66-4.56.4-6.82-1.83-3.27-2.55-6.96-2.08-10.66,1.12-8.82,9-15.72,18.73-16.42,9.59-.7,18.31,4.64,21.21,12.96.49,1.4,1.41,2.62,2.68,3.53,4.58,3.3,7.21,8.23,7.21,13.55,0,3.56-1.19,6.99-3.43,9.9-.89,1.15-1.29,2.58-1.12,4,.09.74.13,1.49.13,2.23,0,5.83-2.5,11.31-7.05,15.43-4.53,4.1-10.58,6.34-16.92,6.34ZM27.47,20.5c-.46,0-.91.02-1.37.05-7.71.55-14.18,6.11-15.05,12.93-.36,2.85.19,5.68,1.6,8.2,2.03,3.63,1.76,7.91-.7,11.18-2.65,3.52-3.77,7.63-3.24,11.89,1.01,8.15,8.38,14.72,17.53,15.63,6.17.61,12.2-1.28,16.52-5.2,3.7-3.35,5.73-7.77,5.73-12.46,0-.58-.04-1.17-.1-1.76-.29-2.47.39-4.93,1.92-6.91,1.7-2.21,2.6-4.78,2.6-7.45,0-4.01-2.02-7.76-5.55-10.3-1.93-1.39-3.36-3.28-4.12-5.46-2.17-6.23-8.54-10.34-15.78-10.34Z"/>
  </g>
  <g>
    <path class="cls-5" d="M63.82,70.66h0c.2-6.1,1.91-12.07,5-17.44l8.24-14.33,4.06,8.32c2.66,5.46,4.89,11.08,6.67,16.82,2.68,8.64,3.78,17.64,3.45,26.62l-.34,9.48-28.3,7.13,1.21-36.61Z"/>
    <path class="cls-7" d="M62.61,109.27c-.45,0-.9-.15-1.26-.44-.49-.39-.76-1-.74-1.62l1.21-36.61h0c.21-6.4,2.03-12.75,5.27-18.37l8.24-14.33c.37-.64,1.06-1.03,1.8-1,.74.03,1.4.46,1.73,1.12l4.06,8.32c2.69,5.52,4.98,11.28,6.79,17.11,2.69,8.67,3.88,17.85,3.54,27.28l-.34,9.48c-.03.89-.65,1.65-1.51,1.87l-28.3,7.13c-.16.04-.33.06-.49.06ZM65.82,70.73l-1.12,33.96,24.26-6.11.29-7.98c.33-8.98-.81-17.72-3.36-25.95-1.75-5.64-3.96-11.2-6.56-16.54l-2.41-4.94-6.36,11.06c-2.91,5.05-4.54,10.76-4.73,16.5h0Z"/>
  </g>
  <g>
    <path class="cls-8" d="M4,107.77h98.07l-23.65-35.82c-1.72-2.61-4.31-4.61-7.38-5.67-6.37-2.21-25.33-5.07-36.76-.27-6.03,2.53-15.14,11.55-16.76,14.13l-13.51,27.63Z"/>
    <path class="cls-7" d="M102.07,109.77H4c-.69,0-1.33-.36-1.7-.94-.37-.58-.4-1.32-.1-1.94l13.51-27.63c.03-.06.07-.12.1-.18,1.85-2.95,11.28-12.23,17.68-14.91,11.86-4.97,31.03-2.26,38.19.22,3.46,1.2,6.44,3.49,8.4,6.46l23.65,35.82c.41.61.44,1.4.09,2.05-.35.65-1.03,1.05-1.76,1.05ZM7.2,105.77h91.15l-21.6-32.72c-1.48-2.24-3.74-3.97-6.37-4.88-5.81-2.01-24.24-4.97-35.33-.31-5.51,2.31-14.24,10.92-15.79,13.27l-12.05,24.64Z"/>
  </g>
  <g>
    <path class="cls-2" d="M30.71,107.77h71.36l-17.54-28.97c-1.25-2.07-3.24-3.55-5.55-4.16-8.98-2.37-19.25-2.34-26.6-.59-3.59.85-6.66,3.23-8.53,6.47-6.75,11.74-13.14,27.25-13.14,27.25Z"/>
    <path class="cls-7" d="M102.07,109.77H30.71c-.67,0-1.29-.33-1.66-.89-.37-.55-.44-1.26-.19-1.87.06-.16,6.52-15.77,13.26-27.49,2.15-3.75,5.72-6.45,9.8-7.42,8.21-1.95,18.78-1.72,27.58.6,2.83.75,5.23,2.54,6.75,5.06l17.54,28.97c.37.62.39,1.39.03,2.02-.35.63-1.02,1.02-1.74,1.02ZM33.73,105.77h64.79l-15.7-25.93c-.98-1.62-2.53-2.78-4.35-3.26-8.08-2.13-18.14-2.36-25.63-.58-3,.71-5.65,2.72-7.25,5.52-4.92,8.56-9.71,19.29-11.85,24.26Z"/>
  </g>
  <g>
    <path class="cls-8" d="M46.5,107.77h43c-3.15-14.66-11.58-25.15-21.5-25.15s-18.35,10.49-21.5,25.15Z"/>
    <path class="cls-7" d="M89.5,109.77h-43c-.6,0-1.18-.27-1.56-.74s-.53-1.09-.4-1.68c3.44-15.99,12.86-26.73,23.46-26.73s20.02,10.74,23.46,26.73c.13.59-.02,1.21-.4,1.68s-.95.74-1.56.74ZM49.03,105.77h37.93c-3.37-12.75-10.81-21.15-18.97-21.15s-15.6,8.4-18.97,21.15Z"/>
  </g>
  <g>
    <line class="cls-8" x1="68" y1="82.62" x2="71.41" y2="107.76"/>
    <path class="cls-7" d="M71.41,109.76c-.99,0-1.84-.73-1.98-1.73l-3.41-25.13c-.15-1.09.62-2.1,1.71-2.25,1.09-.16,2.1.62,2.25,1.71l3.41,25.13c.15,1.09-.62,2.1-1.71,2.25-.09.01-.18.02-.27.02Z"/>
  </g>
  <g>
    <line class="cls-8" x1="102.07" y1="107.77" x2="105.68" y2="95.22"/>
    <path class="cls-7" d="M102.07,109.77c-.18,0-.37-.03-.55-.08-1.06-.31-1.67-1.41-1.37-2.47l3.61-12.55c.31-1.06,1.41-1.68,2.47-1.37,1.06.31,1.67,1.41,1.37,2.47l-3.61,12.55c-.25.88-1.05,1.45-1.92,1.45Z"/>
  </g>
  <path class="cls-6" d="M60.98,32.93c-.51,0-1.02-.2-1.41-.59l-4.39-4.39c-.78-.78-.78-2.05,0-2.83.78-.78,2.05-.78,2.83,0l2.98,2.98,4.8-4.8c.78-.78,2.05-.78,2.83,0s.78,2.05,0,2.83l-6.22,6.22c-.39.39-.9.59-1.41.59Z"/>
  <path class="cls-7" d="M23.55,107.5c-.09,0-.18,0-.28-.02-1.09-.15-1.86-1.16-1.71-2.25,2.09-15.12-.29-20.3-1.89-22.04-1-1.09-1.93-1.05-1.97-1.05-1.09.15-2.07-.62-2.22-1.71-.15-1.09.65-2.11,1.75-2.26.28-.04,2.78-.3,5.14,2.06,3.9,3.9,4.96,12.5,3.15,25.55-.14,1-1,1.73-1.98,1.73Z"/>
  <path class="cls-7" d="M16.89,92.17c-2.65,0-4.56-.76-4.71-.82-1.02-.42-1.51-1.58-1.1-2.61.42-1.02,1.58-1.51,2.6-1.1.22.08,4.77,1.8,8.85-1.45.86-.69,2.12-.55,2.81.32.69.86.55,2.12-.32,2.81-2.81,2.24-5.77,2.84-8.13,2.84Z"/>
  <g>
    <path class="cls-4" d="M20.6,47.89s2.35,5.67,10.16,5.25"/>
    <path class="cls-7" d="M29.91,55.16c-8.37,0-11.05-6.23-11.17-6.51-.42-1.02.06-2.19,1.08-2.61,1.02-.42,2.18.06,2.61,1.06.1.21,2.03,4.36,8.21,4.04,1.09-.06,2.05.79,2.1,1.89.06,1.1-.79,2.04-1.89,2.1-.32.02-.64.03-.94.03Z"/>
  </g>
</svg>