<svg xmlns="http://www.w3.org/2000/svg" id="flatten_icons" data-name="flatten icons" viewBox="0 0 112 112"><defs><style>.cls-4,.cls-5,.cls-6,.cls-7{stroke-width:0}.cls-4{fill:#bec9d2}.cls-5{fill:#8bba75}.cls-6{fill:#ffdb49}.cls-7{fill:#004241}</style></defs><g id="convertible"><path id="area" d="M0 0h112v112H0z" style="fill:none;stroke-width:0"/><g id="convertible-2" data-name="convertible"><path d="M26.13 50.98h59.74c5.07 0 9.18 4.12 9.18 9.18v33.33h-78.1V60.16c0-5.07 4.12-9.18 9.18-9.18" style="stroke-width:0;fill:#70b16d"/><path d="M95.05 95.49h-78.1c-1.1 0-2-.9-2-2V60.16c0-6.17 5.02-11.18 11.18-11.18h59.74c6.17 0 11.18 5.02 11.18 11.18v33.33c0 1.1-.9 2-2 2m-76.11-4h74.11V60.16c0-3.96-3.22-7.18-7.18-7.18H26.13c-3.96 0-7.18 3.22-7.18 7.18v31.33Z" class="cls-7"/><path d="M14 101.76v8.23H5.77v-8.23z" class="cls-4"/><path d="M14.01 112H5.77c-1.1 0-2-.9-2-2v-8.23c0-1.1.9-2 2-2H14c1.1 0 2 .9 2 2V110c0 1.1-.9 2-2 2Zm-6.23-4h4.23v-4.23H7.78z" class="cls-7"/><path d="M106.36 101.76v8.23h-8.23v-8.23z" class="cls-4"/><path d="M106.37 112h-8.23c-1.1 0-2-.9-2-2v-8.23c0-1.1.9-2 2-2h8.23c1.1 0 2 .9 2 2V110c0 1.1-.9 2-2 2m-6.23-4h4.23v-4.23h-4.23z" class="cls-7"/><path d="M72.45 74.19s-2.25-6.95 0-12.74c0 0 5.75-2.04 13.49-1.04 7.75 1 10.93 2.2 10.93 2.2l-3.26 11.58z" class="cls-6"/><path d="M93.61 76.19H72.45c-.87 0-1.64-.56-1.9-1.38-.1-.31-2.44-7.7.04-14.08.21-.54.65-.97 1.19-1.16.25-.09 6.29-2.19 14.42-1.14 7.89 1.02 11.24 2.27 11.38 2.32a2 2 0 0 1 1.22 2.41l-3.26 11.58c-.24.86-1.03 1.46-1.92 1.46Zm-19.61-4h18.1l2.31-8.22c-1.64-.42-4.47-1.03-8.72-1.58-5.44-.7-9.86.21-11.68.68-1 3.39-.44 7.14 0 9.11Z" class="cls-7"/><path d="M11.22 61.45a7.17 7.17 0 0 1 7.17 7.17v33.13H5.63V67.04c0-3.09 2.5-5.59 5.59-5.59" class="cls-5"/><path d="M18.39 103.75H5.63c-1.1 0-2-.9-2-2V67.04c0-4.19 3.41-7.59 7.59-7.59 5.06 0 9.17 4.11 9.17 9.17v33.13c0 1.1-.9 2-2 2m-10.76-4h8.76V68.62c0-2.85-2.32-5.17-5.17-5.17-1.98 0-3.59 1.61-3.59 3.59z" class="cls-7"/><path d="M100.78 61.45c3.09 0 5.59 2.5 5.59 5.59v34.71H93.61V68.62a7.17 7.17 0 0 1 7.17-7.17" class="cls-5"/><path d="M106.37 103.75H93.61c-1.1 0-2-.9-2-2V68.62c0-5.06 4.11-9.17 9.17-9.17 4.18 0 7.59 3.4 7.59 7.59v34.71c0 1.1-.9 2-2 2m-10.76-4h8.76V67.04c0-1.98-1.61-3.59-3.59-3.59-2.85 0-5.17 2.32-5.17 5.17z" class="cls-7"/><path d="M5.63 93.49h100.74v8.25H5.63z" style="stroke-width:0;fill:#549659"/><path d="M106.37 103.75H5.63c-1.1 0-2-.9-2-2V93.5c0-1.1.9-2 2-2h100.74c1.1 0 2 .9 2 2v8.25c0 1.1-.9 2-2 2m-98.74-4h96.74V95.5H7.63z" class="cls-7"/><path d="M25.38 12.22c0-3.86 1.39-7.4 3.69-10.15-.48-.04-.96-.07-1.45-.07C18.88 2 11.8 9.08 11.8 17.82s7.08 15.82 15.82 15.82c4.87 0 9.23-2.21 12.13-5.67-8.06-.73-14.37-7.5-14.37-15.75" class="cls-6"/><path d="M27.62 35.64c-9.83 0-17.82-7.99-17.82-17.82S17.79 0 27.62 0c.5 0 1.01.03 1.63.08.74.07 1.38.54 1.67 1.23.28.69.16 1.48-.32 2.05a13.82 13.82 0 0 0-3.22 8.87c0 7.19 5.4 13.1 12.55 13.75.74.07 1.38.54 1.67 1.23.28.69.16 1.48-.32 2.05-3.4 4.06-8.38 6.39-13.66 6.39ZM25.29 4.2c-6.52 1.11-11.5 6.8-11.5 13.62 0 7.62 6.2 13.82 13.82 13.82 2.87 0 5.63-.89 7.93-2.51-7.16-2.36-12.17-9.04-12.17-16.91 0-2.8.67-5.55 1.92-8.03Z" class="cls-7"/><path d="M14.82 74.19h82.37c5.07 0 9.18 4.12 9.18 9.18v10.12H5.63V83.37c0-5.07 4.12-9.18 9.18-9.18Z" class="cls-5"/><path d="M106.37 95.49H5.63c-1.1 0-2-.9-2-2V83.37c0-6.17 5.02-11.18 11.18-11.18h82.37c6.17 0 11.18 5.02 11.18 11.18v10.12c0 1.1-.9 2-2 2Zm-98.74-4h96.74v-8.12c0-3.96-3.22-7.18-7.18-7.18H14.82c-3.96 0-7.18 3.22-7.18 7.18v8.12Zm25.89-26.11c-.52 0-1.04-.22-1.41-.59s-.59-.89-.59-1.41.22-1.05.59-1.42c.74-.74 2.09-.74 2.83 0 .09.09.17.19.25.3.07.11.13.23.18.35s.09.25.11.37a2.02 2.02 0 0 1-.54 1.81c-.09.09-.2.18-.31.25-.1.07-.22.13-.34.18s-.25.09-.37.12c-.13.02-.27.04-.4.04m22.48 0c-.53 0-1.04-.22-1.41-.59-.1-.09-.18-.19-.25-.3-.08-.11-.14-.23-.19-.35s-.09-.25-.11-.37c-.03-.13-.04-.26-.04-.39 0-.14 0-.27.04-.4.02-.12.06-.25.11-.37s.11-.24.19-.35c.07-.1.15-.21.25-.3.09-.09.19-.17.3-.25.11-.07.22-.13.34-.18s.25-.09.38-.11q.39-.09.78 0c.13.02.25.06.38.11.12.05.23.11.34.18.11.08.21.16.3.25.38.37.59.89.59 1.42s-.21 1.04-.59 1.41c-.37.37-.88.59-1.41.59" class="cls-7"/></g></g></svg>