<?xml version="1.0" encoding="UTF-8"?>
<svg id="flatten_icons" data-name="flatten icons" xmlns="http://www.w3.org/2000/svg" viewBox="0 0 112 112">
  <defs>
    <style>
      .cls-1 {
        fill: none;
      }

      .cls-1, .cls-2, .cls-3, .cls-4, .cls-5, .cls-6, .cls-7 {
        stroke-width: 0px;
      }

      .cls-2 {
        fill: #549659;
      }

      .cls-3 {
        fill: #70b16d;
      }

      .cls-4 {
        fill: #bec9d2;
      }

      .cls-5 {
        fill: #8bba75;
      }

      .cls-6 {
        fill: #ffdb49;
      }

      .cls-7 {
        fill: #004241;
      }
    </style>
  </defs>
  <g id="convertible">
    <g id="area">
      <rect class="cls-1" width="112" height="112"/>
    </g>
    <g id="convertible-2" data-name="convertible">
      <g>
        <path class="cls-3" d="m26.13,50.98h59.74c5.07,0,9.18,4.12,9.18,9.18v33.33H16.95v-33.33c0-5.07,4.12-9.18,9.18-9.18Z"/>
        <path class="cls-7" d="m95.05,95.49H16.95c-1.1,0-2-.9-2-2v-33.33c0-6.17,5.02-11.18,11.18-11.18h59.74c6.17,0,11.18,5.02,11.18,11.18v33.33c0,1.1-.9,2-2,2Zm-76.11-4h74.11v-31.33c0-3.96-3.22-7.18-7.18-7.18H26.13c-3.96,0-7.18,3.22-7.18,7.18v31.33Z"/>
      </g>
      <g>
        <g>
          <rect class="cls-4" x="5.77" y="101.77" width="8.23" height="8.23" transform="translate(115.77 95.99) rotate(90)"/>
          <path class="cls-7" d="m14.01,112H5.77c-1.1,0-2-.9-2-2v-8.23c0-1.1.9-2,2-2h8.23c1.1,0,2,.9,2,2v8.23c0,1.1-.9,2-2,2Zm-6.23-4h4.23v-4.23h-4.23v4.23Z"/>
        </g>
        <g>
          <rect class="cls-4" x="98.13" y="101.77" width="8.23" height="8.23" transform="translate(208.13 3.63) rotate(90)"/>
          <path class="cls-7" d="m106.37,112h-8.23c-1.1,0-2-.9-2-2v-8.23c0-1.1.9-2,2-2h8.23c1.1,0,2,.9,2,2v8.23c0,1.1-.9,2-2,2Zm-6.23-4h4.23v-4.23h-4.23v4.23Z"/>
        </g>
        <g>
          <path class="cls-6" d="m72.45,74.19s-2.25-6.95,0-12.74c0,0,5.75-2.04,13.49-1.04,7.75,1,10.93,2.2,10.93,2.2l-3.26,11.58h-21.16Z"/>
          <path class="cls-7" d="m93.61,76.19h-21.16c-.87,0-1.64-.56-1.9-1.38-.1-.31-2.44-7.7.04-14.08.21-.54.65-.97,1.19-1.16.25-.09,6.29-2.19,14.42-1.14,7.89,1.02,11.24,2.27,11.38,2.32.97.37,1.5,1.41,1.22,2.41l-3.26,11.58c-.24.86-1.03,1.46-1.92,1.46Zm-19.61-4h18.1l2.31-8.22c-1.64-.42-4.47-1.03-8.72-1.58-5.44-.7-9.86.21-11.68.68-1,3.39-.44,7.14,0,9.11Z"/>
        </g>
        <g>
          <path class="cls-5" d="m11.22,61.45h0c3.96,0,7.17,3.21,7.17,7.17v33.13H5.63v-34.71c0-3.09,2.5-5.59,5.59-5.59Z"/>
          <path class="cls-7" d="m18.39,103.75H5.63c-1.1,0-2-.9-2-2v-34.71c0-4.19,3.41-7.59,7.59-7.59,5.06,0,9.17,4.11,9.17,9.17v33.13c0,1.1-.9,2-2,2Zm-10.76-4h8.76v-31.13c0-2.85-2.32-5.17-5.17-5.17-1.98,0-3.59,1.61-3.59,3.59v32.71Z"/>
        </g>
        <g>
          <path class="cls-5" d="m100.78,61.45h0c3.09,0,5.59,2.5,5.59,5.59v34.71h-12.76v-33.13c0-3.96,3.21-7.17,7.17-7.17Z"/>
          <path class="cls-7" d="m106.37,103.75h-12.76c-1.1,0-2-.9-2-2v-33.13c0-5.06,4.11-9.17,9.17-9.17,4.18,0,7.59,3.4,7.59,7.59v34.71c0,1.1-.9,2-2,2Zm-10.76-4h8.76v-32.71c0-1.98-1.61-3.59-3.59-3.59-2.85,0-5.17,2.32-5.17,5.17v31.13Z"/>
        </g>
        <g>
          <rect class="cls-2" x="5.63" y="93.49" width="100.74" height="8.25"/>
          <path class="cls-7" d="m106.37,103.75H5.63c-1.1,0-2-.9-2-2v-8.25c0-1.1.9-2,2-2h100.74c1.1,0,2,.9,2,2v8.25c0,1.1-.9,2-2,2Zm-98.74-4h96.74v-4.25H7.63v4.25Z"/>
        </g>
        <g>
          <path class="cls-6" d="m25.38,12.22h0c0-3.86,1.39-7.4,3.69-10.15-.48-.04-.96-.07-1.45-.07h0c-8.74,0-15.82,7.08-15.82,15.82h0c0,8.74,7.08,15.82,15.82,15.82h0c4.87,0,9.23-2.21,12.13-5.67-8.06-.73-14.37-7.5-14.37-15.75Z"/>
          <path class="cls-7" d="m27.62,35.64c-9.83,0-17.82-7.99-17.82-17.82S17.79,0,27.62,0C28.12,0,28.63.03,29.25.08c.74.07,1.38.54,1.67,1.23.28.69.16,1.48-.32,2.05-2.08,2.48-3.22,5.63-3.22,8.87,0,7.19,5.4,13.1,12.55,13.75.74.07,1.38.54,1.67,1.23.28.69.16,1.48-.32,2.05-3.4,4.06-8.38,6.39-13.66,6.39Zm-2.33-31.44c-6.52,1.11-11.5,6.8-11.5,13.62,0,7.62,6.2,13.82,13.82,13.82,2.87,0,5.63-.89,7.93-2.51-7.16-2.36-12.17-9.04-12.17-16.91,0-2.8.67-5.55,1.92-8.03Z"/>
        </g>
      </g>
      <g>
        <path class="cls-5" d="m14.82,74.19h82.37c5.07,0,9.18,4.12,9.18,9.18v10.12H5.63v-10.12c0-5.07,4.12-9.18,9.18-9.18Z"/>
        <path class="cls-7" d="m106.37,95.49H5.63c-1.1,0-2-.9-2-2v-10.12c0-6.17,5.02-11.18,11.18-11.18h82.37c6.17,0,11.18,5.02,11.18,11.18v10.12c0,1.1-.9,2-2,2Zm-98.74-4h96.74v-8.12c0-3.96-3.22-7.18-7.18-7.18H14.82c-3.96,0-7.18,3.22-7.18,7.18v8.12Z"/>
      </g>
      <path class="cls-7" d="m33.52,65.38c-.52,0-1.04-.22-1.41-.59-.37-.37-.59-.89-.59-1.41s.22-1.05.59-1.42c.74-.74,2.09-.74,2.83,0,.09.09.17.19.25.3.07.11.13.23.18.35.05.12.09.25.11.37.03.13.04.27.04.4,0,.52-.21,1.04-.58,1.41-.09.09-.2.18-.31.25-.1.07-.22.13-.34.18-.12.05-.25.09-.37.12-.13.02-.27.04-.4.04Z"/>
      <path class="cls-7" d="m56,65.38c-.53,0-1.04-.22-1.41-.59-.1-.09-.18-.19-.25-.3-.08-.11-.14-.23-.19-.35-.05-.12-.09-.25-.11-.37-.03-.13-.04-.26-.04-.39,0-.14,0-.27.04-.4.02-.12.06-.25.11-.37.05-.12.11-.24.19-.35.07-.1.15-.21.25-.3.09-.09.19-.17.3-.25.11-.07.22-.13.34-.18.12-.05.25-.09.38-.11.26-.06.52-.06.78,0,.13.02.25.06.38.11.12.05.23.11.34.18.11.08.21.16.3.25.38.37.59.89.59,1.42s-.21,1.04-.59,1.41c-.37.37-.88.59-1.41.59Z"/>
    </g>
  </g>
</svg>