<svg xmlns="http://www.w3.org/2000/svg" id="flatten_icons" data-name="flatten icons" viewBox="0 0 112 112"><defs><style>.cls-4,.cls-5,.cls-6,.cls-7{stroke-width:0}.cls-4{fill:#c59878}.cls-5{fill:#8bba75}.cls-6{fill:#ffdb49}.cls-7{fill:#004241}</style></defs><g id="canap"><path id="area" d="M0 0h112v112H0z" style="fill:none;stroke-width:0"/><g id="canap-2" data-name="canap"><path d="M33.02 22.57v69.25h-8.24V22.57z" class="cls-4"/><path d="M33.02 93.83h-8.24c-1.1 0-2-.9-2-2V22.58c0-1.1.9-2 2-2h8.24c1.1 0 2 .9 2 2v69.25c0 1.1-.9 2-2 2m-6.24-4h4.24V24.58h-4.24z" class="cls-7"/><path d="M15.71 98.39v8.24H7.47v-8.24z" class="cls-4"/><path d="M15.71 108.62H7.47c-1.1 0-2-.9-2-2v-8.24c0-1.1.9-2 2-2h8.24c1.1 0 2 .9 2 2v8.24c0 1.1-.9 2-2 2m-6.24-4h4.24v-4.24H9.47z" class="cls-7"/><path d="M105.09 98.38v8.24h-8.24v-8.24z" class="cls-4"/><path d="M105.09 108.62h-8.24c-1.1 0-2-.9-2-2v-8.24c0-1.1.9-2 2-2h8.24c1.1 0 2 .9 2 2v8.24c0 1.1-.9 2-2 2m-6.24-4h4.24v-4.24h-4.24z" class="cls-7"/><path d="M47.18 26.19H11.56l6.53-20.81h21.62z" class="cls-6"/><path d="M47.18 28.19H11.56c-.64 0-1.24-.3-1.61-.82a1.99 1.99 0 0 1-.3-1.78l6.53-20.81c.26-.83 1.03-1.4 1.91-1.4h21.62c.84 0 1.6.53 1.88 1.32l7.47 20.81c.22.61.13 1.29-.25 1.83s-.98.85-1.64.85Zm-32.9-4h30.05L38.3 7.38H19.55l-5.28 16.81Z" class="cls-7"/><path d="M100.71 70.8c0 17.45-20.11 21.97-44.92 21.97S10.87 88.26 10.87 70.8 16.44 42 55.79 42s44.92 11.35 44.92 28.8" style="stroke-width:0;fill:#70b16d"/><path d="M55.78 94.76c-14.3 0-24.94-1.5-32.52-4.59-9.56-3.89-14.4-10.41-14.4-19.38 0-19.51 7.68-30.8 46.92-30.8s46.92 11.29 46.92 30.8c0 23.97-35.32 23.97-46.92 23.97m0-50.77c-39.76 0-42.92 11.62-42.92 26.8 0 13.62 13.64 19.97 42.92 19.97S98.7 84.42 98.7 70.79c0-15.19-3.16-26.8-42.92-26.8" class="cls-7"/><path d="M73.05 72.55s-2.25-6.95 0-12.74c0 0 5.75-2.04 13.5-1.04s10.93 2.21 10.93 2.21l-3.26 11.58H73.05Z" class="cls-6"/><path d="M94.22 74.55H73.05c-.87 0-1.64-.56-1.9-1.38-.1-.31-2.44-7.7.04-14.08.21-.54.65-.97 1.19-1.16.25-.09 6.29-2.19 14.43-1.14 7.89 1.02 11.25 2.27 11.39 2.32a2 2 0 0 1 1.22 2.41L96.16 73.1c-.24.86-1.03 1.46-1.93 1.46Zm-19.63-4H92.7l2.31-8.22c-1.64-.42-4.47-1.03-8.73-1.58-5.48-.71-9.88.2-11.69.68-1.01 3.41-.45 7.16-.01 9.12Z" class="cls-7"/><path d="M10.89 58.04C3.6 56.85 2 61.44 2 65.51c0 2.56 1.31 4.82 3.29 6.14v26.71h12.77V65.21c0-3.96-3.26-6.54-7.17-7.17" class="cls-5"/><path d="M18.06 100.36H5.29c-1.1 0-2-.9-2-2V72.64A9.36 9.36 0 0 1 0 65.51c0-3.44 1.03-6.13 2.97-7.79 1.97-1.67 4.74-2.23 8.24-1.66 5.29.86 8.85 4.54 8.85 9.15v33.15c0 1.1-.9 2-2 2m-10.77-4h8.77V65.21c0-3.18-2.96-4.79-5.5-5.2-2.29-.37-3.97-.12-5 .76C4.27 61.87 4 63.95 4 65.51c0 1.8.9 3.48 2.4 4.48.56.37.89 1 .89 1.66z" class="cls-7"/><path d="M101.11 58.04c7.29-1.19 8.89 3.4 8.89 7.47 0 2.56-1.31 4.82-3.29 6.14v26.71H93.94V65.21c0-3.96 3.26-6.54 7.17-7.17" class="cls-5"/><path d="M106.71 100.36H93.94c-1.1 0-2-.9-2-2V65.21c0-4.61 3.56-8.28 8.85-9.15 3.5-.57 6.27-.01 8.24 1.66 1.94 1.65 2.97 4.35 2.97 7.79a9.34 9.34 0 0 1-3.29 7.13v25.72c0 1.1-.9 2-2 2m-10.77-4h8.77V71.65c0-.67.33-1.29.89-1.66 1.5-1 2.4-2.68 2.4-4.48 0-1.56-.27-3.64-1.56-4.74-1.03-.88-2.71-1.13-5-.76-2.54.41-5.5 2.02-5.5 5.2zm5.17-38.32" class="cls-7"/><path d="M5.29 90.1h100.8v8.26H5.29z" style="stroke-width:0;fill:#549659"/><path d="M106.09 100.36H5.29c-1.1 0-2-.9-2-2V90.1c0-1.1.9-2 2-2h100.8c1.1 0 2 .9 2 2v8.26c0 1.1-.9 2-2 2m-98.8-4h96.8V92.1H7.29z" class="cls-7"/><path d="M11.41 70.79h33.52c5.93 0 10.75 4.82 10.75 10.75v8.57H11.41a6.12 6.12 0 0 1-6.12-6.12v-7.08a6.12 6.12 0 0 1 6.12-6.12" class="cls-5"/><path d="M55.69 92.1H11.41c-4.48 0-8.12-3.64-8.12-8.12V76.9c0-4.48 3.64-8.12 8.12-8.12h33.52c7.03 0 12.75 5.72 12.75 12.75v8.57c0 1.1-.9 2-2 2ZM11.41 72.78c-2.27 0-4.12 1.85-4.12 4.12v7.08c0 2.27 1.85 4.12 4.12 4.12h42.28v-6.57c0-4.83-3.93-8.75-8.75-8.75z" class="cls-7"/><path d="M66.44 70.79h33.52a6.12 6.12 0 0 1 6.12 6.12v7.08a6.12 6.12 0 0 1-6.12 6.12H55.68v-8.57c0-5.93 4.82-10.75 10.75-10.75Z" class="cls-5"/><path d="M99.97 92.1H55.69c-1.1 0-2-.9-2-2v-8.57c0-7.03 5.72-12.75 12.75-12.75h33.52c4.48 0 8.12 3.64 8.12 8.12v7.08c0 4.48-3.64 8.12-8.12 8.12Zm-42.28-4h42.28c2.27 0 4.12-1.85 4.12-4.12V76.9c0-2.27-1.85-4.12-4.12-4.12H66.45c-4.83 0-8.75 3.93-8.75 8.75v6.57Z" class="cls-7"/></g></g></svg>