<svg xmlns="http://www.w3.org/2000/svg" id="flatten_icons" viewBox="0 0 112 112"><defs><style>.cls-5{fill:#004241}</style></defs><g id="canard"><path d="M27.97 59.8s2.17 26.43 34.5 26.43 36.92-34.74 36.92-34.74l-13.58 4.38c-5.59 1.8-11.69.9-16.52-2.43a21.9 21.9 0 0 0-12.43-3.88H45.1s9.41-8.93 9.17-16.65-7.48-16.89-18.34-15.68-10.14 17.53-10.14 17.53l7.97.08s5.37-.36 4.1 5.55c-1.24 3.95-11.84 5.79-9.89 19.41" style="fill:#d6cfb4"/><path d="M62.48 88.23c-32.85 0-36.3-26.46-36.49-28.18-1.5-10.56 3.91-14.91 7.48-17.79 1.09-.87 2.21-1.78 2.46-2.4.14-.7.26-1.84-.23-2.41-.5-.57-1.61-.62-1.81-.61h-.15l-7.97-.08a2.005 2.005 0 0 1-1.98-1.91c0-.18-.18-4.45 1.07-8.94 1.78-6.39 5.53-10.08 10.85-10.67 5.14-.58 10.1.96 13.97 4.31 3.92 3.4 6.44 8.49 6.59 13.29.17 5.44-3.7 11.17-6.62 14.71h7.21c4.87 0 9.56 1.46 13.57 4.23 4.29 2.96 9.81 3.78 14.77 2.18l13.58-4.38c.65-.21 1.37-.07 1.9.37s.79 1.12.7 1.8c-.05.36-5.2 36.48-38.9 36.48m-32.51-28.6c.09 1.04 2.51 24.6 32.51 24.6 12.66 0 22.37-5.52 28.87-16.4 3.04-5.1 4.64-10.22 5.42-13.4l-10.33 3.33c-6.14 1.98-12.97.97-18.27-2.69-3.33-2.3-7.24-3.52-11.29-3.52H45.12c-.82 0-1.55-.5-1.86-1.26-.3-.76-.11-1.63.48-2.19 2.44-2.32 8.72-9.55 8.55-15.14-.12-3.73-2.11-7.71-5.21-10.4-2.13-1.85-5.76-3.93-10.9-3.36-6.92.77-8.14 9.61-8.34 13.57l5.91.06c.6-.02 3.28 0 5.01 1.99 1.26 1.46 1.63 3.47 1.09 5.98-.01.06-.03.12-.05.18-.56 1.79-2.13 3.05-3.79 4.39-3.38 2.72-7.22 5.81-6.03 14.14 0 .04 0 .08.01.12Z" class="cls-5"/><path d="M27.04 24.4s-4.79 2.68-10.55 2.49c-.63-.02-1.19-.04-1.69-.05a3.95 3.95 0 0 0-4.06 3.95c0 2.18 1.77 3.96 3.96 3.96h13.88L27.05 24.4Z" style="fill:#f29c61"/><path d="M28.57 36.76H14.69c-3.28 0-5.96-2.67-5.96-5.96 0-1.62.64-3.13 1.8-4.26s2.7-1.76 4.32-1.69c.5.01 1.07.03 1.71.05 5.12.16 9.46-2.21 9.5-2.24a2.005 2.005 0 0 1 2.96 1.45l1.53 10.35c.08.58-.08 1.16-.46 1.6s-.93.69-1.51.69ZM14.7 28.85c-.52 0-1 .2-1.37.56-.38.37-.59.87-.59 1.4 0 1.08.88 1.96 1.96 1.96h11.56l-.81-5.46c-2.13.81-5.4 1.71-9.02 1.59-.62-.02-1.18-.04-1.67-.05h-.05Zm47.5 44.56c-2.63 0-5.1-.52-7.4-1.57-7.47-3.39-10.22-11.06-10.33-11.39-.36-1.04.19-2.18 1.23-2.55 1.04-.36 2.18.19 2.55 1.23.04.11 2.36 6.43 8.25 9.08 3.89 1.75 8.55 1.56 13.84-.57 1.02-.41 2.19.08 2.6 1.11.41 1.02-.09 2.19-1.11 2.6-3.4 1.37-6.61 2.05-9.62 2.05ZM51.46 99.34h-7.17c-1.1 0-2-.9-2-2s.9-2 2-2h5.54l2.09-10.22a2.004 2.004 0 0 1 2.36-1.56c1.08.22 1.78 1.28 1.56 2.36l-2.42 11.82c-.19.93-1.01 1.6-1.96 1.6m14.42 0h-7.17c-1.1 0-2-.9-2-2s.9-2 2-2h5.58l2.06-8.97a2.005 2.005 0 0 1 2.4-1.5c1.08.25 1.75 1.32 1.5 2.4L67.83 97.8a2 2 0 0 1-1.95 1.55Z" class="cls-5"/><path d="M69.1 69.76c2.44.92 7.12 1.24 9.76-2.45-3.35-2.69-7.63-5.36-11.92-5.87-2.58-.3-5.38-.07-8.07.67 0 0 6.93 6.41 10.23 7.65" style="fill:#a09082"/><path d="M72.49 72.36c-1.45 0-2.86-.27-4.1-.74-3.44-1.3-9.66-6.93-10.87-8.05a2 2 0 0 1-.59-1.95c.17-.71.71-1.27 1.41-1.46 2.95-.81 6-1.06 8.83-.73 3.97.47 8.32 2.59 12.94 6.29.83.67.99 1.86.37 2.72-2 2.8-5.07 3.9-8 3.9Zm-2.68-4.47c1.34.5 3.96.89 6-.39-3.3-2.36-6.42-3.76-9.1-4.07-1.09-.13-2.22-.15-3.37-.07 2.41 2.01 5.04 3.99 6.47 4.53" class="cls-5"/><path d="M0 0h112v112H0z" style="fill:none"/></g></svg>