<?xml version="1.0" encoding="UTF-8"?>
<svg id="flatten_icons" data-name="flatten icons" xmlns="http://www.w3.org/2000/svg" viewBox="0 0 112 112">
  <defs>
    <style>
      .cls-1 {
        fill: none;
      }

      .cls-1, .cls-2, .cls-3, .cls-4, .cls-5, .cls-6, .cls-7 {
        stroke-width: 0px;
      }

      .cls-2 {
        fill: #549659;
      }

      .cls-3 {
        fill: #70b16d;
      }

      .cls-4 {
        fill: #c59878;
      }

      .cls-5 {
        fill: #8bba75;
      }

      .cls-6 {
        fill: #ffdb49;
      }

      .cls-7 {
        fill: #004241;
      }
    </style>
  </defs>
  <g id="canap">
    <g id="area">
      <rect class="cls-1" width="112" height="112"/>
    </g>
    <g id="canap-2" data-name="canap">
      <g>
        <rect class="cls-4" x="-5.73" y="53.08" width="69.25" height="8.24" transform="translate(86.1 28.3) rotate(90)"/>
        <path class="cls-7" d="m33.02,93.83h-8.24c-1.1,0-2-.9-2-2V22.58c0-1.1.9-2,2-2h8.24c1.1,0,2,.9,2,2v69.25c0,1.1-.9,2-2,2Zm-6.24-4h4.24V24.58h-4.24v65.25Z"/>
      </g>
      <g>
        <rect class="cls-4" x="7.47" y="98.38" width="8.24" height="8.24" transform="translate(114.09 90.92) rotate(90)"/>
        <path class="cls-7" d="m15.71,108.62H7.47c-1.1,0-2-.9-2-2v-8.24c0-1.1.9-2,2-2h8.24c1.1,0,2,.9,2,2v8.24c0,1.1-.9,2-2,2Zm-6.24-4h4.24v-4.24h-4.24v4.24Z"/>
      </g>
      <g>
        <rect class="cls-4" x="96.85" y="98.38" width="8.24" height="8.24" transform="translate(203.47 1.53) rotate(90)"/>
        <path class="cls-7" d="m105.09,108.62h-8.24c-1.1,0-2-.9-2-2v-8.24c0-1.1.9-2,2-2h8.24c1.1,0,2,.9,2,2v8.24c0,1.1-.9,2-2,2Zm-6.24-4h4.24v-4.24h-4.24v4.24Z"/>
      </g>
      <g>
        <polygon class="cls-6" points="47.18 26.19 11.56 26.19 18.09 5.38 39.71 5.38 47.18 26.19"/>
        <path class="cls-7" d="m47.18,28.19H11.56c-.64,0-1.24-.3-1.61-.82-.38-.51-.49-1.18-.3-1.78l6.53-20.81c.26-.83,1.03-1.4,1.91-1.4h21.62c.84,0,1.6.53,1.88,1.32l7.47,20.81c.22.61.13,1.29-.25,1.83s-.98.85-1.64.85Zm-32.9-4h30.05l-6.03-16.81h-18.75l-5.28,16.81Z"/>
      </g>
      <g>
        <path class="cls-3" d="m100.71,70.8c0,17.45-20.11,21.97-44.92,21.97s-44.92-4.51-44.92-21.97,5.57-28.8,44.92-28.8,44.92,11.35,44.92,28.8Z"/>
        <path class="cls-7" d="m55.78,94.76c-14.3,0-24.94-1.5-32.52-4.59-9.56-3.89-14.4-10.41-14.4-19.38,0-19.51,7.68-30.8,46.92-30.8s46.92,11.29,46.92,30.8c0,23.97-35.32,23.97-46.92,23.97Zm0-50.77c-39.76,0-42.92,11.62-42.92,26.8,0,13.62,13.64,19.97,42.92,19.97s42.92-6.34,42.92-19.97c0-15.19-3.16-26.8-42.92-26.8Z"/>
      </g>
      <g>
        <path class="cls-6" d="m73.05,72.55s-2.25-6.95,0-12.74c0,0,5.75-2.04,13.5-1.04s10.93,2.21,10.93,2.21l-3.26,11.58h-21.17Z"/>
        <path class="cls-7" d="m94.22,74.55h-21.17c-.87,0-1.64-.56-1.9-1.38-.1-.31-2.44-7.7.04-14.08.21-.54.65-.97,1.19-1.16.25-.09,6.29-2.19,14.43-1.14,7.89,1.02,11.25,2.27,11.39,2.32.97.37,1.5,1.41,1.22,2.41l-3.26,11.58c-.24.86-1.03,1.46-1.93,1.46Zm-19.63-4h18.11l2.31-8.22c-1.64-.42-4.47-1.03-8.73-1.58-5.48-.71-9.88.2-11.69.68-1.01,3.41-.45,7.16-.01,9.12Z"/>
      </g>
      <g>
        <path class="cls-5" d="m10.89,58.04c-7.29-1.19-8.89,3.4-8.89,7.47,0,2.56,1.31,4.82,3.29,6.14v26.71h12.77v-33.15c0-3.96-3.26-6.54-7.17-7.17Z"/>
        <path class="cls-7" d="m18.06,100.36H5.29c-1.1,0-2-.9-2-2v-25.72c-2.08-1.77-3.29-4.37-3.29-7.13,0-3.44,1.03-6.13,2.97-7.79,1.97-1.67,4.74-2.23,8.24-1.66,5.29.86,8.85,4.54,8.85,9.15v33.15c0,1.1-.9,2-2,2Zm-10.77-4h8.77v-31.15c0-3.18-2.96-4.79-5.5-5.2h0c-2.29-.37-3.97-.12-5,.76-1.29,1.1-1.56,3.18-1.56,4.74,0,1.8.9,3.48,2.4,4.48.56.37.89,1,.89,1.66v24.71Z"/>
      </g>
      <g>
        <path class="cls-5" d="m101.11,58.04c7.29-1.19,8.89,3.4,8.89,7.47,0,2.56-1.31,4.82-3.29,6.14v26.71h-12.77v-33.15c0-3.96,3.26-6.54,7.17-7.17Z"/>
        <path class="cls-7" d="m106.71,100.36h-12.77c-1.1,0-2-.9-2-2v-33.15c0-4.61,3.56-8.28,8.85-9.15h0c3.5-.57,6.27-.01,8.24,1.66,1.94,1.65,2.97,4.35,2.97,7.79,0,2.77-1.21,5.36-3.29,7.13v25.72c0,1.1-.9,2-2,2Zm-10.77-4h8.77v-24.71c0-.67.33-1.29.89-1.66,1.5-1,2.4-2.68,2.4-4.48,0-1.56-.27-3.64-1.56-4.74-1.03-.88-2.71-1.13-5-.76h0c-2.54.41-5.5,2.02-5.5,5.2v31.15Zm5.17-38.32h0,0Z"/>
      </g>
      <g>
        <rect class="cls-2" x="5.29" y="90.1" width="100.8" height="8.26"/>
        <path class="cls-7" d="m106.09,100.36H5.29c-1.1,0-2-.9-2-2v-8.26c0-1.1.9-2,2-2h100.8c1.1,0,2,.9,2,2v8.26c0,1.1-.9,2-2,2Zm-98.8-4h96.8v-4.26H7.29v4.26Z"/>
      </g>
      <g>
        <path class="cls-5" d="m11.41,70.79h33.52c5.93,0,10.75,4.82,10.75,10.75v8.57H11.41c-3.38,0-6.12-2.74-6.12-6.12v-7.08c0-3.38,2.74-6.12,6.12-6.12Z"/>
        <path class="cls-7" d="m55.69,92.1H11.41c-4.48,0-8.12-3.64-8.12-8.12v-7.08c0-4.48,3.64-8.12,8.12-8.12h33.52c7.03,0,12.75,5.72,12.75,12.75v8.57c0,1.1-.9,2-2,2Zm-44.28-19.32c-2.27,0-4.12,1.85-4.12,4.12v7.08c0,2.27,1.85,4.12,4.12,4.12h42.28v-6.57c0-4.83-3.93-8.75-8.75-8.75H11.41Z"/>
      </g>
      <g>
        <path class="cls-5" d="m66.44,70.79h33.52c3.38,0,6.12,2.74,6.12,6.12v7.08c0,3.38-2.74,6.12-6.12,6.12h-44.28v-8.57c0-5.93,4.82-10.75,10.75-10.75Z"/>
        <path class="cls-7" d="m99.97,92.1h-44.28c-1.1,0-2-.9-2-2v-8.57c0-7.03,5.72-12.75,12.75-12.75h33.52c4.48,0,8.12,3.64,8.12,8.12v7.08c0,4.48-3.64,8.12-8.12,8.12Zm-42.28-4h42.28c2.27,0,4.12-1.85,4.12-4.12v-7.08c0-2.27-1.85-4.12-4.12-4.12h-33.52c-4.83,0-8.75,3.93-8.75,8.75v6.57Z"/>
      </g>
    </g>
  </g>
</svg>