<?xml version="1.0" encoding="UTF-8"?>
<svg id="flatten_icons" data-name="flatten icons" xmlns="http://www.w3.org/2000/svg" viewBox="0 0 112 112">
  <defs>
    <style>
      .cls-1 {
        fill: none;
      }

      .cls-1, .cls-2, .cls-3, .cls-4, .cls-5 {
        stroke-width: 0px;
      }

      .cls-2 {
        fill: #aad681;
      }

      .cls-3 {
        fill: #fff594;
      }

      .cls-4 {
        fill: #feda00;
      }

      .cls-5 {
        fill: #004241;
      }
    </style>
  </defs>
  <rect class="cls-1" width="112" height="112"/>
  <g>
    <path class="cls-3" d="m59.36,9.06l1.47,1.92c5.52,7.21,9.44,15.51,11.5,24.35h0c.55,1.11,1.6,1.87,2.82,2.05l5.4.02c5.75.02,11.47.81,17.01,2.36l6.58,1.84c3.07.45,4.3,4.23,2.08,6.39l-7.23,8.31c-2.83,3.25-5.99,6.21-9.42,8.83l-4.33,3.31c-.88.86-1.29,2.1-1.08,3.32l1.76,5.44c1.91,5.9,2.94,12.04,3.08,18.24l.12,5.19c.53,3.06-2.69,5.4-5.44,3.95l-7.16-2.75c-4.93-1.9-9.61-4.4-13.92-7.45l-4.85-3.43c-1.09-.57-2.4-.57-3.49,0l-2.8,2.13c-5.19,3.96-10.96,7.11-17.11,9.33l-6.03,2.17c-2.75,1.45-5.96-.89-5.44-3.95l.29-6.52c.23-5.22,1.1-10.4,2.6-15.41l2.07-6.95c.21-1.22-.19-2.46-1.08-3.32l-4.57-3.33c-4.99-3.63-9.42-7.97-13.16-12.87l-3.24-4.24c-2.22-2.17-1-5.95,2.08-6.39l6.5-1.82c5.53-1.55,11.25-2.35,17-2.37l5.5-.02c1.22-.18,2.28-.94,2.82-2.05l.2-.78c1.94-7.69,5.28-14.95,9.87-21.41l2.9-4.08c1.37-2.79,5.35-2.79,6.72,0Z"/>
    <path class="cls-4" d="m56.07,21.68c3.01,4.91,5.2,10.25,6.52,15.92l.26,1.12.51,1.03c2,4.06,5.87,6.87,10.35,7.52l.7.1h.71s5.4.02,5.4.02c3.97.01,7.92.46,11.79,1.34l-.87.99c-2.38,2.74-5.06,5.25-7.94,7.45l-4.33,3.31-.48.37-.43.42c-3.24,3.16-4.72,7.71-3.95,12.17l.12.7.22.68,1.76,5.44c1.23,3.81,2.03,7.73,2.39,11.7-3.67-1.53-7.18-3.46-10.43-5.76l-4.85-3.43-.54-.38-.58-.31c-1.97-1.03-4.18-1.58-6.4-1.58s-4.43.55-6.4,1.58l-.74.39-.67.51-2.8,2.13c-3.71,2.83-7.76,5.16-12.06,6.95.32-3.57,1-7.1,2.02-10.53l2.07-6.95.17-.57.1-.59c.77-4.46-.71-9.01-3.95-12.17l-.51-.5-.58-.42-4.57-3.33c-3.27-2.38-6.26-5.12-8.91-8.17,4-.95,8.11-1.44,12.23-1.45l5.5-.02h.7s.7-.1.7-.1c4.48-.65,8.35-3.46,10.35-7.52l.47-.95.26-1.03.2-.78c1.37-5.44,3.55-10.58,6.5-15.31m-.07-14.71c-1.34,0-2.67.7-3.36,2.09l-2.9,4.08c-4.59,6.46-7.94,13.72-9.87,21.41l-.2.78c-.55,1.11-1.6,1.87-2.82,2.05l-5.5.02c-5.75.02-11.46.82-17,2.37l-6.5,1.82c-3.07.45-4.3,4.23-2.08,6.39l3.24,4.24c3.74,4.9,8.18,9.24,13.16,12.87l4.57,3.33c.88.86,1.29,2.1,1.08,3.32l-2.07,6.95c-1.49,5.01-2.36,10.19-2.6,15.41l-.29,6.52c-.42,2.42,1.51,4.39,3.69,4.39.58,0,1.17-.14,1.75-.44l6.03-2.17c6.15-2.22,11.92-5.36,17.11-9.33l2.8-2.13c.55-.29,1.15-.43,1.74-.43s1.2.14,1.74.43l4.85,3.43c4.32,3.05,8.99,5.55,13.92,7.45l7.16,2.75c.57.3,1.17.44,1.75.44,2.18,0,4.11-1.97,3.69-4.39l-.12-5.19c-.14-6.2-1.18-12.34-3.08-18.24l-1.76-5.44c-.21-1.22.19-2.46,1.08-3.32l4.33-3.31c3.43-2.62,6.58-5.58,9.42-8.83l7.23-8.31c2.22-2.17,1-5.95-2.08-6.39l-6.58-1.84c-5.54-1.55-11.26-2.34-17.01-2.36l-5.4-.02c-1.22-.18-2.28-.94-2.82-2.05-2.06-8.84-5.98-17.14-11.5-24.35l-1.47-1.92c-.69-1.39-2.02-2.09-3.36-2.09h0Z"/>
    <path class="cls-5" d="m26.57,107.02c-1.19,0-2.37-.37-3.37-1.1-1.75-1.27-2.62-3.36-2.31-5.49l.28-6.4c.24-5.38,1.14-10.73,2.68-15.89l2.03-6.81c.06-.5-.1-1-.44-1.37l-4.44-3.23c-5.14-3.75-9.71-8.22-13.58-13.27l-3.16-4.14c-1.49-1.54-2.01-3.73-1.34-5.78.67-2.05,2.38-3.53,4.5-3.89l6.39-1.79c5.71-1.6,11.6-2.42,17.53-2.44l5.33-.02c.47-.1.87-.38,1.12-.79l.14-.54c2-7.96,5.43-15.38,10.18-22.08l2.81-3.96c1-1.88,2.93-3.05,5.07-3.05s4.05,1.15,5.06,3.01l1.36,1.78c5.67,7.41,9.64,15.77,11.79,24.84.25.4.65.68,1.11.77l5.23.02c5.93.02,11.83.84,17.54,2.43l6.47,1.81c2.12.36,3.83,1.84,4.5,3.89.67,2.07.14,4.29-1.39,5.83l-7.19,8.26c-2.92,3.35-6.18,6.42-9.71,9.11l-4.21,3.22c-.34.37-.5.87-.45,1.36l1.71,5.28c1.97,6.09,3.03,12.42,3.18,18.81l.11,5.06c.3,2.12-.57,4.2-2.31,5.46-1.75,1.27-4.01,1.46-5.94.5l-7.06-2.72c-5.08-1.96-9.91-4.54-14.36-7.68l-4.73-3.34c-.45-.2-.96-.21-1.41-.01l-2.64,2.01c-5.36,4.09-11.3,7.33-17.64,9.62l-5.91,2.13c-.81.4-1.68.6-2.54.6ZM56,8.97c-.33,0-1.13.1-1.57.97-.05.1-.1.19-.16.27l-2.9,4.08c-4.46,6.29-7.68,13.26-9.56,20.74l-.2.79c-.03.14-.08.27-.15.4-.84,1.7-2.46,2.87-4.33,3.15-.09.01-.19.02-.28.02l-5.5.02c-5.56.02-11.1.79-16.46,2.3l-6.5,1.82c-.08.02-.17.04-.25.05-.97.14-1.31.88-1.41,1.19s-.26,1.11.44,1.79c.07.07.13.14.19.22l3.24,4.25c3.63,4.75,7.92,8.95,12.75,12.47l4.57,3.33c.08.06.15.12.22.18,1.35,1.32,1.97,3.22,1.65,5.09-.01.08-.03.16-.05.23l-2.07,6.95c-1.44,4.85-2.29,9.88-2.51,14.93l-.29,6.52c0,.08-.01.17-.03.25-.17.97.43,1.52.7,1.71.26.19.97.59,1.84.13.08-.04.17-.08.25-.11l6.03-2.17c5.96-2.15,11.54-5.19,16.57-9.03l2.8-2.13c.09-.07.18-.13.28-.18,1.67-.88,3.67-.88,5.35,0,.08.04.15.09.22.14l4.85,3.43c4.18,2.95,8.72,5.38,13.49,7.22l7.16,2.75c.07.03.14.06.21.1.87.46,1.58.06,1.84-.13.26-.19.86-.74.7-1.71-.02-.1-.03-.2-.03-.29l-.11-5.19c-.13-6.01-1.14-11.95-2.98-17.67l-1.76-5.44c-.03-.09-.05-.18-.07-.28-.32-1.87.3-3.77,1.65-5.09.06-.06.12-.11.18-.16l4.33-3.31c3.31-2.53,6.38-5.41,9.12-8.56l7.23-8.31s.07-.08.11-.12c.7-.69.54-1.48.44-1.79s-.44-1.05-1.41-1.19c-.08-.01-.17-.03-.25-.05l-6.58-1.84c-5.36-1.5-10.91-2.27-16.48-2.28l-5.4-.02c-.09,0-.19,0-.28-.02-1.87-.27-3.49-1.45-4.33-3.15-.07-.14-.12-.28-.15-.43-2.01-8.62-5.76-16.56-11.14-23.59l-1.47-1.92c-.08-.1-.15-.21-.21-.33-.43-.88-1.24-.97-1.57-.97Z"/>
    <g>
      <path class="cls-2" d="m50.14,58.84s-7.07,2.11-6.82,8.93,10.61.58,6.82-8.93Z"/>
      <path class="cls-5" d="m45.53,72.65c-.52,0-1.02-.09-1.49-.28-.78-.3-2.6-1.35-2.72-4.53-.25-6.62,5.29-10.04,8.25-10.92.99-.3,2.05.21,2.43,1.18,2.18,5.48.39,10.01-2.01,12.43-1.36,1.37-2.97,2.11-4.45,2.11Zm3.33-11.02c-1.61.97-3.66,2.85-3.54,6.07.03.76.22.97.22.98.12.02.94-.18,1.83-1.19.55-.62,2.03-2.65,1.49-5.86Z"/>
    </g>
    <g>
      <path class="cls-2" d="m62.32,58.84s7.07,2.11,6.82,8.93-10.61.58-6.82-8.93Z"/>
      <path class="cls-5" d="m66.92,72.65c-1.49,0-3.09-.74-4.45-2.11-2.4-2.42-4.19-6.95-2.01-12.43.38-.96,1.44-1.47,2.43-1.18,2.96.88,8.49,4.3,8.25,10.92-.12,3.17-1.94,4.22-2.72,4.53-.47.18-.98.28-1.49.28Zm-3.33-11.02c-.54,3.2.95,5.24,1.49,5.86.88,1,1.68,1.21,1.87,1.17-.01-.01.15-.25.18-.95.12-3.22-1.93-5.1-3.54-6.07Z"/>
    </g>
  </g>
</svg>