<svg xmlns="http://www.w3.org/2000/svg" id="flatten_icons" data-name="flatten icons" viewBox="0 0 112 112"><defs><style>.cls-2,.cls-5{stroke-width:0}.cls-2{fill:#aad681}.cls-5{fill:#004241}</style></defs><path d="M0 0h112v112H0z" style="fill:none;stroke-width:0"/><path d="m59.36 9.06 1.47 1.92a63.9 63.9 0 0 1 11.5 24.35 3.75 3.75 0 0 0 2.82 2.05l5.4.02c5.75.02 11.47.81 17.01 2.36l6.58 1.84c3.07.45 4.3 4.23 2.08 6.39l-7.23 8.31a64 64 0 0 1-9.42 8.83l-4.33 3.31c-.88.86-1.29 2.1-1.08 3.32l1.76 5.44c1.91 5.9 2.94 12.04 3.08 18.24l.12 5.19c.53 3.06-2.69 5.4-5.44 3.95l-7.16-2.75c-4.93-1.9-9.61-4.4-13.92-7.45l-4.85-3.43c-1.09-.57-2.4-.57-3.49 0l-2.8 2.13a64 64 0 0 1-17.11 9.33l-6.03 2.17c-2.75 1.45-5.96-.89-5.44-3.95l.29-6.52c.23-5.22 1.1-10.4 2.6-15.41l2.07-6.95c.21-1.22-.19-2.46-1.08-3.32l-4.57-3.33A63.7 63.7 0 0 1 9.03 52.23l-3.24-4.24c-2.22-2.17-1-5.95 2.08-6.39l6.5-1.82a63.8 63.8 0 0 1 17-2.37l5.5-.02c1.22-.18 2.28-.94 2.82-2.05l.2-.78a64 64 0 0 1 9.87-21.41l2.9-4.08c1.37-2.79 5.35-2.79 6.72 0Z" style="stroke-width:0;fill:#fff594"/><path d="M56.07 21.68c3.01 4.91 5.2 10.25 6.52 15.92l.26 1.12.51 1.03c2 4.06 5.87 6.87 10.35 7.52l.7.1h.71l5.4.02c3.97.01 7.92.46 11.79 1.34l-.87.99a54 54 0 0 1-7.94 7.45l-4.33 3.31-.48.37-.43.42a13.74 13.74 0 0 0-3.95 12.17l.12.7.22.68 1.76 5.44c1.23 3.81 2.03 7.73 2.39 11.7a54 54 0 0 1-10.43-5.76l-4.85-3.43-.54-.38-.58-.31c-1.97-1.03-4.18-1.58-6.4-1.58s-4.43.55-6.4 1.58l-.74.39-.67.51-2.8 2.13a54.2 54.2 0 0 1-12.06 6.95c.32-3.57 1-7.1 2.02-10.53l2.07-6.95.17-.57.1-.59c.77-4.46-.71-9.01-3.95-12.17l-.51-.5-.58-.42L28.08 57a53.5 53.5 0 0 1-8.91-8.17c4-.95 8.11-1.44 12.23-1.45l5.5-.02h.7l.7-.1a13.73 13.73 0 0 0 10.35-7.52l.47-.95.26-1.03.2-.78a53.6 53.6 0 0 1 6.5-15.31m-.07-14.71c-1.34 0-2.67.7-3.36 2.09l-2.9 4.08a63.8 63.8 0 0 0-9.87 21.41l-.2.78a3.75 3.75 0 0 1-2.82 2.05l-5.5.02c-5.75.02-11.46.82-17 2.37l-6.5 1.82c-3.07.45-4.3 4.23-2.08 6.39l3.24 4.24c3.74 4.9 8.18 9.24 13.16 12.87l4.57 3.33c.88.86 1.29 2.1 1.08 3.32l-2.07 6.95a64.5 64.5 0 0 0-2.6 15.41l-.29 6.52c-.42 2.42 1.51 4.39 3.69 4.39.58 0 1.17-.14 1.75-.44l6.03-2.17a63.8 63.8 0 0 0 17.11-9.33l2.8-2.13a3.73 3.73 0 0 1 3.48 0l4.85 3.43c4.32 3.05 8.99 5.55 13.92 7.45l7.16 2.75c.57.3 1.17.44 1.75.44 2.18 0 4.11-1.97 3.69-4.39l-.12-5.19c-.14-6.2-1.18-12.34-3.08-18.24l-1.76-5.44c-.21-1.22.19-2.46 1.08-3.32l4.33-3.31c3.43-2.62 6.58-5.58 9.42-8.83l7.23-8.31c2.22-2.17 1-5.95-2.08-6.39l-6.58-1.84a64 64 0 0 0-17.01-2.36l-5.4-.02a3.73 3.73 0 0 1-2.82-2.05 63.9 63.9 0 0 0-11.5-24.35l-1.47-1.92a3.71 3.71 0 0 0-3.36-2.09Z" style="stroke-width:0;fill:#feda00"/><path d="M26.57 107.02c-1.19 0-2.37-.37-3.37-1.1a5.72 5.72 0 0 1-2.31-5.49l.28-6.4c.24-5.38 1.14-10.73 2.68-15.89l2.03-6.81c.06-.5-.1-1-.44-1.37L21 66.73A66.5 66.5 0 0 1 7.42 53.46l-3.16-4.14a5.7 5.7 0 0 1-1.34-5.78 5.71 5.71 0 0 1 4.5-3.89l6.39-1.79c5.71-1.6 11.6-2.42 17.53-2.44l5.33-.02c.47-.1.87-.38 1.12-.79l.14-.54c2-7.96 5.43-15.38 10.18-22.08l2.81-3.96c1-1.88 2.93-3.05 5.07-3.05s4.05 1.15 5.06 3.01l1.36 1.78A65.5 65.5 0 0 1 74.2 34.61c.25.4.65.68 1.11.77l5.23.02c5.93.02 11.83.84 17.54 2.43l6.47 1.81c2.12.36 3.83 1.84 4.5 3.89.67 2.07.14 4.29-1.39 5.83l-7.19 8.26a66 66 0 0 1-9.71 9.11l-4.21 3.22c-.34.37-.5.87-.45 1.36l1.71 5.28a66.1 66.1 0 0 1 3.18 18.81l.11 5.06c.3 2.12-.57 4.2-2.31 5.46a5.71 5.71 0 0 1-5.94.5l-7.06-2.72a66.3 66.3 0 0 1-14.36-7.68l-4.73-3.34c-.45-.2-.96-.21-1.41-.01l-2.64 2.01a66 66 0 0 1-17.64 9.62l-5.91 2.13c-.81.4-1.68.6-2.54.6ZM56 8.97c-.33 0-1.13.1-1.57.97-.05.1-.1.19-.16.27l-2.9 4.08a61.7 61.7 0 0 0-9.56 20.74l-.2.79c-.03.14-.08.27-.15.4a5.78 5.78 0 0 1-4.33 3.15c-.09.01-.19.02-.28.02l-5.5.02c-5.56.02-11.1.79-16.46 2.3l-6.5 1.82c-.08.02-.17.04-.25.05-.97.14-1.31.88-1.41 1.19s-.26 1.11.44 1.79a2 2 0 0 1 .19.22l3.24 4.25A62 62 0 0 0 23.35 63.5l4.57 3.33c.08.06.15.12.22.18a5.76 5.76 0 0 1 1.65 5.09c-.01.08-.03.16-.05.23l-2.07 6.95a62 62 0 0 0-2.51 14.93l-.29 6.52c0 .08-.01.17-.03.25-.17.97.43 1.52.7 1.71.26.19.97.59 1.84.13.08-.04.17-.08.25-.11l6.03-2.17a61.9 61.9 0 0 0 16.57-9.03l2.8-2.13c.09-.07.18-.13.28-.18a5.75 5.75 0 0 1 5.35 0c.08.04.15.09.22.14l4.85 3.43c4.18 2.95 8.72 5.38 13.49 7.22l7.16 2.75c.07.03.14.06.21.1.87.46 1.58.06 1.84-.13s.86-.74.7-1.71c-.02-.1-.03-.2-.03-.29l-.11-5.19a62 62 0 0 0-2.98-17.67l-1.76-5.44c-.03-.09-.05-.18-.07-.28-.32-1.87.3-3.77 1.65-5.09.06-.06.12-.11.18-.16l4.33-3.31c3.31-2.53 6.38-5.41 9.12-8.56l7.23-8.31s.07-.08.11-.12c.7-.69.54-1.48.44-1.79s-.44-1.05-1.41-1.19c-.08-.01-.17-.03-.25-.05L97 41.71a61.6 61.6 0 0 0-16.48-2.28l-5.4-.02c-.09 0-.19 0-.28-.02a5.75 5.75 0 0 1-4.33-3.15c-.07-.14-.12-.28-.15-.43a61.6 61.6 0 0 0-11.14-23.59l-1.47-1.92q-.12-.15-.21-.33C57.11 9.09 56.3 9 55.97 9Z" class="cls-5"/><path d="M50.14 58.84s-7.07 2.11-6.82 8.93 10.61.58 6.82-8.93" class="cls-2"/><path d="M45.53 72.65c-.52 0-1.02-.09-1.49-.28-.78-.3-2.6-1.35-2.72-4.53-.25-6.62 5.29-10.04 8.25-10.92.99-.3 2.05.21 2.43 1.18 2.18 5.48.39 10.01-2.01 12.43-1.36 1.37-2.97 2.11-4.45 2.11Zm3.33-11.02c-1.61.97-3.66 2.85-3.54 6.07.03.76.22.97.22.98.12.02.94-.18 1.83-1.19.55-.62 2.03-2.65 1.49-5.86" class="cls-5"/><path d="M62.32 58.84s7.07 2.11 6.82 8.93-10.61.58-6.82-8.93" class="cls-2"/><path d="M66.92 72.65c-1.49 0-3.09-.74-4.45-2.11-2.4-2.42-4.19-6.95-2.01-12.43a2.01 2.01 0 0 1 2.43-1.18c2.96.88 8.49 4.3 8.25 10.92-.12 3.17-1.94 4.22-2.72 4.53-.47.18-.98.28-1.49.28Zm-3.33-11.02c-.54 3.2.95 5.24 1.49 5.86.88 1 1.68 1.21 1.87 1.17-.01-.01.15-.25.18-.95.12-3.22-1.93-5.1-3.54-6.07Z" class="cls-5"/></svg>