<svg xmlns="http://www.w3.org/2000/svg" id="flatten_icons" data-name="flatten icons" viewBox="0 0 112 112"><defs><style>.cls-4,.cls-5{stroke-width:0}.cls-4{fill:#e5764e}.cls-5{fill:#004241}</style></defs><path d="M0 0h112v112H0z" style="fill:none;stroke-width:0"/><path d="M24.25 40.67s-10.35 5.61-16.9-2.46c-3.65-4.49-.07-7.74 3.82-9.73 2.79-1.43 4.53-4.45 4.02-7.54-.41-2.53.17-5.64 3.72-8.51 3.11-2.51 5.79-2.7 7.89-2.02 2.33.76 4.87.12 6.45-1.74 1.02-1.21 2.61-2.53 5.03-3.86 8.83-4.84 5.71 17.09 5.71 17.09" style="stroke-width:0;fill:#aad681"/><path d="M16.63 44.56c-3.71 0-7.72-1.25-10.84-5.09-1.65-2.03-2.27-4.1-1.84-6.14.53-2.53 2.65-4.76 6.3-6.63 2.09-1.07 3.31-3.31 2.96-5.44-.45-2.74-.04-6.77 4.44-10.39 4.04-3.26 7.54-3.09 9.76-2.37 1.6.52 3.29.07 4.3-1.13 1.31-1.55 3.19-3 5.59-4.32 2.8-1.53 4.74-.92 5.87-.13 1.18.82 4.86 4.62 2.78 19.26a2.01 2.01 0 0 1-2.26 1.7 2.01 2.01 0 0 1-1.7-2.26c.91-6.44.69-14.17-1.09-15.4-.4-.27-1.22.1-1.67.35-1.97 1.08-3.47 2.22-4.46 3.39-2.07 2.46-5.45 3.38-8.6 2.36-1.89-.61-3.86-.07-6.01 1.67-2.43 1.96-3.41 4.13-3 6.63.64 3.88-1.41 7.76-5.08 9.64-2.45 1.26-3.95 2.64-4.21 3.89-.06.3-.26 1.22 1.03 2.8 5.41 6.66 14.04 2.16 14.4 1.96.97-.52 2.19-.16 2.71.81s.16 2.18-.81 2.71c-1.96 1.06-5.14 2.13-8.57 2.13" class="cls-5"/><path d="m105.78 92.2.38 8.53c.2 4.43-3.38 7.7-7.78 7.09l-7.44-1.03c-13.47-1.87-26.56-7.39-37.85-15.98l-.7-.54a86.3 86.3 0 0 1-22.8-26.1l-1.35-2.39c-3.88-6.85-4.95-14.71-2.98-21.76l.1-.36c2.41-8.59 9.05-14.95 17.71-16.94l2.4-.55c7.16-1.65 14.99-.14 21.64 4.16a86.3 86.3 0 0 1 27.28 28.41c6.87 11.61 10.79 24.53 11.38 37.46Z" style="stroke-width:0;fill:#f59455"/><path d="M55.21 49.48c-.14 0-.27-.01-.38-.03-.18-.03-.39-.09-.6-.2-.43-.02-.85-.18-1.19-.48-.84-.72-.94-1.98-.21-2.81.81-.94 1.65-1.05 2.21-.97.25.03.54.12.83.3.41.06.8.25 1.12.56.78.78.79 2.04.01 2.82-.64.64-1.27.82-1.78.82Zm6.36-5.28c-.64 0-1.27-.3-1.65-.87-.62-.91-.39-2.16.52-2.78 11.69-7.99 21.09-4.8 21.48-4.66a1.996 1.996 0 0 1-1.32 3.77c-.35-.12-8-2.58-17.89 4.19-.35.24-.74.35-1.13.35Zm11.12 26.26c-.52 0-1.04-.2-1.43-.6-.77-.79-.76-2.05.03-2.83 16.56-16.24 26.19-9.99 26.59-9.72.91.62 1.15 1.87.53 2.78a2 2 0 0 1-2.75.54c-.12-.07-1.88-1.11-5.26-.61-3.34.48-8.88 2.59-16.3 9.86-.39.38-.9.57-1.4.57Z" class="cls-5"/><path d="m28.24 61.78 1.35 2.39a86.3 86.3 0 0 0 22.8 26.1l.7.54c11.29 8.59 24.38 14.11 37.85 15.98l7.44 1.03-17.73-10.68a6.76 6.76 0 0 1-2.26-2.22L67.25 77.24a6.89 6.89 0 0 0-5.81-3.21c-3.38 0-6.27-2.47-6.79-5.81l-.43-2.73c-.53-3.39-3.4-6.06-6.83-6.02-2.57.03-5.44-1.02-7.29-4.98-4.03-8.66 0-29.43 0-29.43l-.43-1.29c-6.98 2.71-12.24 8.46-14.32 15.89l-.1.36c-1.97 7.05-.9 14.92 2.98 21.76Z" class="cls-4"/><path d="M93.15 88.29c-.59 0-1.18-.26-1.57-.76-.68-.87-.53-2.12.33-2.81 9.64-7.6 13.96-3.31 14.42-2.8l-2.98 2.67s.02.03.07.08c-.02-.02-2.43-2.01-9.04 3.2-.37.29-.8.43-1.24.43Z" class="cls-5"/><path d="M99.42 109.89c-.43 0-.87-.03-1.3-.09l-7.44-1.03c-13.81-1.91-27.22-7.58-38.78-16.37l-.7-.54c-9.44-7.18-17.5-16.41-23.33-26.71l-1.35-2.38c-4.12-7.28-5.27-15.76-3.17-23.29l.1-.36c2.61-9.33 9.79-16.19 19.19-18.35l2.4-.55c7.66-1.76 16.1-.15 23.17 4.43C79.57 32 89.22 42.05 96.13 53.72c7.03 11.87 11.06 25.15 11.65 38.39l.38 8.53c.12 2.71-.9 5.26-2.82 7-1.6 1.46-3.71 2.25-5.93 2.25ZM51.26 23.52c-1.8 0-3.59.2-5.33.6l-2.4.55C35.58 26.5 29.51 32.3 27.3 40.2l-.1.36c-1.82 6.51-.8 13.88 2.79 20.24l1.35 2.38c5.57 9.83 13.27 18.64 22.27 25.5l.7.54c11.02 8.38 23.78 13.77 36.91 15.59l7.44 1.03c1.53.21 2.94-.2 3.99-1.15s1.58-2.33 1.51-3.86l-.38-8.53c-.57-12.59-4.41-25.22-11.1-36.54-6.59-11.14-15.81-20.74-26.65-27.75-4.55-2.94-9.72-4.48-14.78-4.48Z" class="cls-5"/><path d="M36.57 63.18a6.61 6.61 0 1 1-6.61-6.61" class="cls-4"/><path d="M29.96 71.79c-4.74 0-8.6-3.86-8.6-8.6s3.86-8.6 8.6-8.6c1.1 0 2 .9 2 2s-.9 2-2 2c-2.54 0-4.6 2.07-4.6 4.6s2.07 4.6 4.6 4.6 4.6-2.07 4.6-4.6c0-1.1.9-2 2-2s2 .9 2 2c0 4.74-3.86 8.6-8.6 8.6" class="cls-5"/></svg>