<?xml version="1.0" encoding="UTF-8"?>
<svg id="flatten_icons" data-name="flatten icons" xmlns="http://www.w3.org/2000/svg" viewBox="0 0 112 112">
  <defs>
    <style>
      .cls-1 {
        fill: none;
      }

      .cls-1, .cls-2, .cls-3, .cls-4, .cls-5, .cls-6, .cls-7, .cls-8 {
        stroke-width: 0px;
      }

      .cls-2 {
        fill: #f3cf49;
      }

      .cls-3 {
        fill: #c3d9e3;
      }

      .cls-4 {
        fill: #e26f6b;
      }

      .cls-5 {
        fill: #d5d0c9;
      }

      .cls-6 {
        fill: #e6ecf1;
      }

      .cls-7 {
        fill: #e9e5dc;
      }

      .cls-8 {
        fill: #004241;
      }
    </style>
  </defs>
  <g id="vr">
    <rect class="cls-1" width="112" height="112"/>
    <g>
      <g>
        <g>
          <path class="cls-5" d="m26.84,30.14s20.38-17.98,47.51-17.49c27.13.49,33.22,17.49,33.22,17.49v-8.75s-6.09-16.99-33.22-17.49S26.84,21.39,26.84,21.39v8.75Z"/>
          <path class="cls-8" d="m107.57,32.14c-.83,0-1.59-.52-1.88-1.33-.23-.63-6.08-15.7-31.37-16.16-26.03-.48-45.96,16.81-46.15,16.99-.59.52-1.43.65-2.15.32-.72-.32-1.18-1.04-1.18-1.82v-8.75c0-.57.25-1.12.68-1.5.86-.75,21.33-18.48,48.87-17.99,28.19.51,34.8,18.06,35.07,18.81.08.22.12.44.12.67v8.75c0,.97-.7,1.8-1.66,1.97-.12.02-.23.03-.34.03ZM28.84,22.33v3.69c6.95-5.1,24.08-15.79,45.55-15.36,17.48.32,26.67,7.19,31.18,12.54v-1.42c-.94-2.21-7.58-15.44-31.26-15.87-23.33-.41-41.77,13.43-45.48,16.42Z"/>
        </g>
        <g>
          <path class="cls-7" d="m95.01,34.3s7.8,1.12,12.57-12.91c0,0,10.62,17.1-12.57,33.39"/>
          <path class="cls-8" d="m95.01,56.78c-.63,0-1.25-.3-1.64-.85-.63-.9-.42-2.15.49-2.79,14.7-10.33,15-20.74,13.66-26.4-5.28,10.48-12.46,9.59-12.8,9.54-1.09-.16-1.85-1.17-1.69-2.26.16-1.08,1.15-1.84,2.23-1.7.34.03,6.35.42,10.42-11.57.25-.73.9-1.26,1.67-1.34.77-.09,1.52.27,1.93.93.12.19,11.34,18.91-13.12,36.08-.35.25-.75.36-1.15.36Z"/>
        </g>
        <g>
          <g>
            <path class="cls-3" d="m80.14,21.64l-53.3-.25c-11.32,0-24.34,12.44-24.34,23.83s11.84,24.58,22.72,25.71c12.8-6.56,13.44-16.95,15.96-25.46.54-1.81,9.89,1.16,11.65,1.16h0c1.76,0,3.34,1.22,3.88,3.03,2.52,8.51,1.87,21.41,15.11,21.41,19.07,0,25.03-15.92,25.03-27.31,0-10.3-7.06-22.13-16.71-22.13Z"/>
            <path class="cls-8" d="m71.82,73.07c-12.26,0-14.23-9.75-15.82-17.59-.38-1.88-.74-3.66-1.21-5.26-.28-.95-1.07-1.59-1.96-1.59-.74,0-1.81-.23-3.8-.68-1.61-.36-4.74-1.06-6.17-1.08-.28,1-.54,2.02-.81,3.09-2,7.86-4.26,16.77-15.91,22.74-.34.18-.73.25-1.12.21C13.1,71.68.5,57.44.5,45.22s13.78-25.83,26.34-25.83l53.3.25c10.71,0,18.71,12.74,18.71,24.12,0,14.59-8.36,29.31-27.03,29.31Zm-29.01-30.19c1.88,0,4.34.55,7.1,1.17,1.14.25,2.55.57,2.93.58,2.67,0,5,1.79,5.79,4.46.52,1.77.92,3.72,1.3,5.6,1.81,8.95,3.51,14.38,11.89,14.38,7.9,0,13.97-2.88,18.04-8.55,3.17-4.42,4.99-10.53,4.99-16.76,0-9.31-6.43-20.12-14.71-20.12h0l-53.3-.25c-10.43,0-22.33,11.63-22.33,21.83s10.53,22.21,20.35,23.65c9.57-5.14,11.48-12.63,13.32-19.89.34-1.35.7-2.74,1.09-4.08.44-1.5,1.72-2.02,3.55-2.02Z"/>
          </g>
          <g>
            <path class="cls-6" d="m73.32,30.09l-53.3-.25c-11.32,0-18.02,9.23-18.02,20.61s9.56,20.61,20.5,20.61,17.12-6.21,19.64-14.71c.54-1.81,2.11-3.03,3.88-3.03h0c1.76,0,3.34,1.22,3.88,3.03,2.52,8.51,8.32,14.71,19.64,14.71s20.5-9.23,20.5-20.61c0-10.3-7.06-20.37-16.71-20.37Z"/>
            <path class="cls-8" d="m69.54,73.07c-10.97,0-18.43-5.58-21.56-16.15-.28-.95-1.07-1.59-1.96-1.59s-1.68.64-1.96,1.59c-3.09,10.41-10.74,16.15-21.56,16.15-12.2,0-22.5-10.36-22.5-22.61,0-13.32,8.23-22.61,20.02-22.61l53.3.25c11.19,0,18.71,11.57,18.71,22.37,0,12.47-10.09,22.61-22.5,22.61Zm-23.52-21.74c2.68,0,5,1.79,5.79,4.46,2.65,8.94,8.45,13.28,17.72,13.28,10.2,0,18.5-8.35,18.5-18.61,0-10.99-7.61-18.37-14.71-18.37h0l-53.3-.25c-7.97,0-16.02,5.76-16.02,18.61,0,10.09,8.47,18.61,18.5,18.61,11.39,0,15.93-7.22,17.72-13.28.79-2.67,3.12-4.46,5.79-4.46Z"/>
          </g>
        </g>
        <path class="cls-8" d="m26.84,41.85h-11.86c-1.1,0-2-.9-2-2s.9-2,2-2h11.86c1.1,0,2,.9,2,2s-.9,2-2,2Z"/>
        <path class="cls-8" d="m21.57,49.79h-6.59c-1.1,0-2-.9-2-2s.9-2,2-2h6.59c1.1,0,2,.9,2,2s-.9,2-2,2Z"/>
      </g>
      <g>
        <g>
          <path class="cls-6" d="m105.61,84.6h-33.15v23.51h4.58c4.68,0,8.87-2.06,11.74-5.31,1.45-1.65,3.59-2.52,5.78-2.52h11.05c2.43,0,4.39-1.97,4.39-4.39v-6.88c0-2.43-1.97-4.39-4.39-4.39Z"/>
          <path class="cls-8" d="m77.03,110.1h-4.58c-1.1,0-2-.9-2-2v-23.51c0-1.1.9-2,2-2h33.15c3.53,0,6.39,2.87,6.39,6.39v6.88c0,3.53-2.87,6.39-6.39,6.39h-11.05c-1.69,0-3.25.67-4.28,1.85-3.35,3.81-8.18,5.99-13.24,5.99Zm-2.58-4h2.58c3.91,0,7.65-1.69,10.24-4.63,1.79-2.03,4.45-3.2,7.29-3.2h11.05c1.32,0,2.39-1.07,2.39-2.39v-6.88c0-1.32-1.07-2.39-2.39-2.39h-31.15v19.51Z"/>
        </g>
        <g>
          <path class="cls-2" d="m71.98,84.6h.47v23.51h-.47c-4.72,0-8.55-3.83-8.55-8.55v-6.4c0-4.72,3.83-8.55,8.55-8.55Z"/>
          <path class="cls-8" d="m72.45,110.1h-.47c-5.82,0-10.55-4.73-10.55-10.55v-6.4c0-5.82,4.73-10.55,10.55-10.55h.47c1.1,0,2,.9,2,2v23.51c0,1.1-.9,2-2,2Zm-2-23.33c-2.88.69-5.02,3.29-5.02,6.37v6.4c0,3.09,2.15,5.68,5.02,6.37v-19.15Z"/>
        </g>
        <path class="cls-8" d="m82.07,94.17h-1.67c-1.1,0-2-.9-2-2s.9-2,2-2h1.67c1.1,0,2,.9,2,2s-.9,2-2,2Z"/>
      </g>
      <g>
        <g>
          <path class="cls-6" d="m44.18,84.6H11.02v23.51h4.58c4.68,0,8.87-2.06,11.74-5.31,1.45-1.65,3.59-2.52,5.78-2.52h11.05c2.43,0,4.39-1.97,4.39-4.39v-6.88c0-2.43-1.97-4.39-4.39-4.39Z"/>
          <path class="cls-8" d="m15.6,110.1h-4.58c-1.1,0-2-.9-2-2v-23.51c0-1.1.9-2,2-2h33.15c3.53,0,6.39,2.87,6.39,6.39v6.88c0,3.53-2.87,6.39-6.39,6.39h-11.05c-1.69,0-3.25.67-4.28,1.85-3.35,3.81-8.18,5.99-13.24,5.99Zm-2.58-4h2.58c3.91,0,7.65-1.69,10.24-4.63,1.79-2.03,4.45-3.2,7.29-3.2h11.05c1.32,0,2.39-1.07,2.39-2.39v-6.88c0-1.32-1.07-2.39-2.39-2.39H13.02v19.51Z"/>
        </g>
        <g>
          <path class="cls-4" d="m10.55,84.6h.47v23.51h-.47c-4.72,0-8.55-3.83-8.55-8.55v-6.4c0-4.72,3.83-8.55,8.55-8.55Z"/>
          <path class="cls-8" d="m11.02,110.1h-.47c-5.82,0-10.55-4.73-10.55-10.55v-6.4c0-5.82,4.73-10.55,10.55-10.55h.47c1.1,0,2,.9,2,2v23.51c0,1.1-.9,2-2,2Zm-2-23.33c-2.88.69-5.02,3.29-5.02,6.37v6.4c0,3.09,2.15,5.68,5.02,6.37v-19.15Z"/>
        </g>
        <path class="cls-8" d="m20.45,94.17h-1.67c-1.1,0-2-.9-2-2s.9-2,2-2h1.67c1.1,0,2,.9,2,2s-.9,2-2,2Z"/>
      </g>
    </g>
  </g>
</svg>