<?xml version="1.0" encoding="UTF-8"?>
<svg id="flatten_icons" data-name="flatten icons" xmlns="http://www.w3.org/2000/svg" viewBox="0 0 112 112">
  <defs>
    <style>
      .cls-1 {
        fill: none;
      }

      .cls-1, .cls-2, .cls-3, .cls-4, .cls-5, .cls-6 {
        stroke-width: 0px;
      }

      .cls-2 {
        fill: #494260;
      }

      .cls-3 {
        fill: #555570;
      }

      .cls-4 {
        fill: #aad681;
      }

      .cls-5 {
        fill: #fff;
      }

      .cls-6 {
        fill: #004241;
      }
    </style>
  </defs>
  <rect class="cls-1" width="112" height="112"/>
  <g>
    <g>
      <g>
        <path class="cls-4" d="m105.79,27.77s-40.59-.51-35.55,39.59c0,0,40.35,3.7,35.55-39.59Z"/>
        <path class="cls-6" d="m72.66,69.45c-1.49,0-2.44-.08-2.6-.09-.94-.08-1.68-.81-1.8-1.74-1.56-12.4.94-22.36,7.42-29.62,11-12.32,29.35-12.22,30.13-12.22,1.01.01,1.85.78,1.96,1.78,1.55,13.93-1.29,24.69-8.42,31.96-8.73,8.9-21.3,9.94-26.7,9.94Zm-.62-4.02c4.36.03,16.51-.6,24.48-8.75,5.93-6.06,8.44-15.09,7.46-26.85-4.67.31-17.43,1.97-25.33,10.84-5.38,6.03-7.6,14.36-6.61,24.76Z"/>
      </g>
      <g>
        <path class="cls-4" d="m11.01,16.63s5.6,40.2,44.49,29.19c0,0-2.41-40.45-44.49-29.19Z"/>
        <path class="cls-6" d="m42.82,49.73c-6.46,0-12.21-1.63-17.18-4.87-13.83-9.03-16.51-27.18-16.61-27.95-.14-1,.49-1.95,1.46-2.21,13.54-3.63,24.6-2.44,32.86,3.52,12.91,9.31,14.1,26.74,14.14,27.48.06.94-.55,1.79-1.45,2.04-4.68,1.33-9.09,1.99-13.22,1.99ZM13.32,18.11c1.01,4.57,4.56,16.93,14.52,23.42,6.77,4.41,15.34,5.35,25.47,2.81-.61-4.31-3.08-16.23-12.33-22.88-6.88-4.95-16.18-6.07-27.66-3.34Zm-2.32-1.48h0,0Z"/>
      </g>
      <g>
        <ellipse class="cls-3" cx="29.64" cy="50.97" rx="14.79" ry="13.74" transform="translate(-23.95 26.37) rotate(-35.17)"/>
        <path class="cls-2" d="m43.56,46.32c-.22.56-.46,1.12-.75,1.67-3.8,7.09-12.56,10.23-19.59,7.01-3.62-1.66-6.05-4.68-7.06-8.19-2.6,6.69.12,14.03,6.6,17,7.02,3.22,15.79.08,19.59-7.01,1.84-3.44,2.16-7.17,1.21-10.48Z"/>
        <path class="cls-6" d="m28.36,66.9c-2.26,0-4.45-.42-6.39-1.25-4.42-1.9-7.3-4.71-8.57-8.35-1.36-3.88-.75-8.41,1.76-13.09,4.12-7.7,13.18-10.51,21.54-6.68,7.73,3.54,10.62,11.19,7.54,19.94h0c-1.13,3.21-4.02,6.03-7.94,7.75-2.56,1.12-5.3,1.69-7.94,1.69Zm.83-27.06c-4.37,0-8.35,2.23-10.51,6.25-1.37,2.56-2.75,6.36-1.51,9.89.89,2.54,3.04,4.56,6.38,6,3.17,1.36,7.43,1.2,11.14-.43,2.91-1.27,5.01-3.25,5.77-5.41h0c2.4-6.83.42-12.29-5.43-14.98-1.94-.89-3.93-1.32-5.84-1.32Z"/>
      </g>
      <g>
        <ellipse class="cls-3" cx="20.75" cy="83.25" rx="14.79" ry="13.74" transform="translate(-44.16 27.14) rotate(-35.17)"/>
        <path class="cls-2" d="m34.68,78.6c-.22.56-.46,1.12-.75,1.67-3.8,7.09-12.56,10.23-19.59,7.01-3.62-1.66-6.05-4.68-7.06-8.19-2.6,6.69.12,14.03,6.6,17,7.02,3.22,15.79.08,19.59-7.01,1.84-3.44,2.16-7.17,1.21-10.48Z"/>
        <path class="cls-6" d="m19.48,99.17c-2.26,0-4.45-.42-6.39-1.25-4.42-1.9-7.3-4.71-8.57-8.35-1.36-3.88-.75-8.41,1.76-13.09,4.12-7.7,13.18-10.51,21.54-6.68,7.73,3.54,10.62,11.18,7.54,19.94h0c-1.13,3.21-4.02,6.03-7.94,7.75-2.56,1.12-5.3,1.69-7.94,1.69Zm.83-27.06c-4.37,0-8.35,2.23-10.51,6.25-1.37,2.56-2.75,6.36-1.51,9.89.89,2.54,3.04,4.56,6.38,6,3.17,1.36,7.43,1.2,11.14-.43,2.91-1.27,5.01-3.25,5.77-5.41,2.4-6.84.42-12.3-5.43-14.98-1.94-.89-3.93-1.32-5.84-1.32Zm13.16,16.96h0,0Z"/>
      </g>
      <g>
        <ellipse class="cls-3" cx="63.22" cy="47.73" rx="13.86" ry="12.83"/>
        <path class="cls-2" d="m76.45,43.95c-.19.5-.41,1-.67,1.49-3.42,6.34-11.74,8.91-18.59,5.75-3.53-1.63-5.96-4.47-7.04-7.7-2.28,6.01.56,12.8,6.88,15.72,6.85,3.17,15.17.59,18.59-5.75,1.66-3.08,1.85-6.47.83-9.51Z"/>
        <path class="cls-6" d="m63.02,62.39c-2.39,0-4.73-.45-6.8-1.35-4.5-1.96-7.42-4.79-8.66-8.39-1.22-3.53-.7-7.54,1.49-11.61,3.77-6.99,12.44-9.31,20.61-5.54,7.55,3.49,10.55,10.62,7.84,18.59h0c-.95,2.79-3.36,5.17-6.79,6.68-2.41,1.07-5.08,1.6-7.7,1.6Zm-1.17-24.66c-3.96,0-7.45,1.84-9.27,5.22-1.15,2.13-2.29,5.32-1.23,8.4.86,2.5,3.04,4.53,6.48,6.03,3.28,1.43,7.7,1.33,11.28-.25,2.36-1.04,4.04-2.61,4.62-4.31h0c2.06-6.06-.03-11.04-5.73-13.68-2.06-.95-4.16-1.41-6.14-1.41Z"/>
      </g>
      <g>
        <circle class="cls-3" cx="58.78" cy="73.39" r="14.82"/>
        <path class="cls-2" d="m69.49,63.16c.08.61.13,1.23.13,1.86,0,8.19-6.64,14.82-14.82,14.82-4.21,0-8.01-1.77-10.71-4.59.92,7.3,7.14,12.96,14.69,12.96,8.18,0,14.82-6.64,14.82-14.82,0-3.97-1.57-7.57-4.11-10.23Z"/>
        <path class="cls-6" d="m58.78,90.21c-9.27,0-16.82-7.55-16.82-16.82s7.07-15.43,16.82-15.43,16.82,6.49,16.82,15.43-7.55,16.82-16.82,16.82Zm0-28.25c-7.55,0-12.82,4.7-12.82,11.43,0,7.07,5.75,12.82,12.82,12.82s12.82-5.75,12.82-12.82-5.27-11.43-12.82-11.43Z"/>
      </g>
      <g>
        <line class="cls-4" x1="65.62" y1="36.87" x2="67.94" y2="29.8"/>
        <path class="cls-6" d="m65.62,38.87c-.21,0-.42-.03-.62-.1-1.05-.34-1.62-1.48-1.28-2.52l2.32-7.07c.34-1.05,1.48-1.62,2.52-1.28,1.05.34,1.62,1.48,1.28,2.52l-2.32,7.07c-.28.84-1.06,1.38-1.9,1.38Z"/>
      </g>
      <g>
        <path class="cls-4" d="m73.6,80.95l8.37,1.79c3.94.85,8.04.62,11.87-.67l3.37-1.13"/>
        <path class="cls-6" d="m86.69,85.25c-1.72,0-3.44-.18-5.13-.54l-8.37-1.79c-1.08-.23-1.77-1.29-1.54-2.37.23-1.08,1.29-1.78,2.38-1.54l8.37,1.79c3.59.77,7.33.56,10.81-.61l3.37-1.13c1.04-.35,2.18.21,2.53,1.26.35,1.05-.21,2.18-1.26,2.53l-3.37,1.13c-2.52.84-5.15,1.27-7.79,1.27Z"/>
      </g>
      <g>
        <line class="cls-4" x1="32.38" y1="91.16" x2="40.93" y2="95.82"/>
        <path class="cls-6" d="m40.93,97.82c-.32,0-.65-.08-.96-.24l-8.54-4.66c-.97-.53-1.33-1.74-.8-2.71s1.74-1.33,2.71-.8l8.54,4.66c.97.53,1.33,1.74.8,2.71-.36.67-1.05,1.04-1.76,1.04Z"/>
      </g>
    </g>
    <path class="cls-5" d="m57.02,45.77c-.67,0-1.33-.34-1.71-.96-.58-.94-.28-2.17.66-2.75.61-.37,3.77-2.19,6.43-1.54,1.07.26,1.73,1.35,1.46,2.42s-1.35,1.72-2.42,1.46c-.76-.19-2.48.51-3.39,1.06-.33.2-.69.29-1.04.29Z"/>
    <path class="cls-5" d="m16.46,80.59c-.68,0-1.33-.34-1.71-.96-.57-.94-.28-2.17.66-2.75.61-.37,3.77-2.19,6.43-1.53,1.07.26,1.73,1.35,1.46,2.42-.27,1.07-1.35,1.73-2.42,1.46-.76-.19-2.45.5-3.39,1.07-.32.2-.68.29-1.04.29Z"/>
    <path class="cls-5" d="m54.51,69.92c-.75,0-1.46-.42-1.81-1.14-.48-1-.06-2.19.94-2.67.64-.31,3.98-1.8,6.56-.87,1.04.37,1.58,1.52,1.21,2.56-.37,1.04-1.52,1.58-2.56,1.21-.74-.26-2.52.25-3.48.71-.28.13-.57.2-.86.2Z"/>
    <path class="cls-5" d="m25.34,47.87c-.74,0-1.45-.41-1.8-1.12-.48-.99-.07-2.19.92-2.67.29-.14,2.95-1.41,5.6-1.29,1.1.04,1.96.98,1.92,2.08-.04,1.1-.96,1.95-2.08,1.92-1.4-.04-3.17.64-3.68.89-.28.14-.58.2-.87.2Z"/>
  </g>
</svg>