<svg xmlns="http://www.w3.org/2000/svg" id="flatten_icons" data-name="flatten icons" viewBox="0 0 112 112"><defs><style>.cls-2,.cls-3,.cls-4,.cls-6{stroke-width:0}.cls-2{fill:#494260}.cls-3{fill:#555570}.cls-4{fill:#aad681}.cls-6{fill:#004241}</style></defs><path d="M0 0h112v112H0z" style="fill:none;stroke-width:0"/><path d="M105.79 27.77s-40.59-.51-35.55 39.59c0 0 40.35 3.7 35.55-39.59" class="cls-4"/><path d="M72.66 69.45c-1.49 0-2.44-.08-2.6-.09a1.99 1.99 0 0 1-1.8-1.74c-1.56-12.4.94-22.36 7.42-29.62 11-12.32 29.35-12.22 30.13-12.22 1.01.01 1.85.78 1.96 1.78 1.55 13.93-1.29 24.69-8.42 31.96-8.73 8.9-21.3 9.94-26.7 9.94Zm-.62-4.02c4.36.03 16.51-.6 24.48-8.75 5.93-6.06 8.44-15.09 7.46-26.85-4.67.31-17.43 1.97-25.33 10.84-5.38 6.03-7.6 14.36-6.61 24.76" class="cls-6"/><path d="M11.01 16.63s5.6 40.2 44.49 29.19c0 0-2.41-40.45-44.49-29.19" class="cls-4"/><path d="M42.82 49.73c-6.46 0-12.21-1.63-17.18-4.87C11.81 35.83 9.13 17.68 9.03 16.91c-.14-1 .49-1.95 1.46-2.21 13.54-3.63 24.6-2.44 32.86 3.52 12.91 9.31 14.1 26.74 14.14 27.48.06.94-.55 1.79-1.45 2.04-4.68 1.33-9.09 1.99-13.22 1.99m-29.5-31.62c1.01 4.57 4.56 16.93 14.52 23.42 6.77 4.41 15.34 5.35 25.47 2.81-.61-4.31-3.08-16.23-12.33-22.88-6.88-4.95-16.18-6.07-27.66-3.34ZM11 16.63" class="cls-6"/><ellipse cx="29.64" cy="50.97" class="cls-3" rx="14.79" ry="13.74" transform="rotate(-35.17 29.627 50.97)"/><path d="M43.56 46.32c-.22.56-.46 1.12-.75 1.67-3.8 7.09-12.56 10.23-19.59 7.01-3.62-1.66-6.05-4.68-7.06-8.19-2.6 6.69.12 14.03 6.6 17 7.02 3.22 15.79.08 19.59-7.01 1.84-3.44 2.16-7.17 1.21-10.48" class="cls-2"/><path d="M28.36 66.9c-2.26 0-4.45-.42-6.39-1.25-4.42-1.9-7.3-4.71-8.57-8.35-1.36-3.88-.75-8.41 1.76-13.09 4.12-7.7 13.18-10.51 21.54-6.68 7.73 3.54 10.62 11.19 7.54 19.94-1.13 3.21-4.02 6.03-7.94 7.75-2.56 1.12-5.3 1.69-7.94 1.69Zm.83-27.06c-4.37 0-8.35 2.23-10.51 6.25-1.37 2.56-2.75 6.36-1.51 9.89.89 2.54 3.04 4.56 6.38 6 3.17 1.36 7.43 1.2 11.14-.43 2.91-1.27 5.01-3.25 5.77-5.41 2.4-6.83.42-12.29-5.43-14.98-1.94-.89-3.93-1.32-5.84-1.32" class="cls-6"/><ellipse cx="20.75" cy="83.25" class="cls-3" rx="14.79" ry="13.74" transform="rotate(-35.17 20.737 83.238)"/><path d="M34.68 78.6c-.22.56-.46 1.12-.75 1.67-3.8 7.09-12.56 10.23-19.59 7.01-3.62-1.66-6.05-4.68-7.06-8.19-2.6 6.69.12 14.03 6.6 17 7.02 3.22 15.79.08 19.59-7.01 1.84-3.44 2.16-7.17 1.21-10.48" class="cls-2"/><path d="M19.48 99.17c-2.26 0-4.45-.42-6.39-1.25-4.42-1.9-7.3-4.71-8.57-8.35-1.36-3.88-.75-8.41 1.76-13.09 4.12-7.7 13.18-10.51 21.54-6.68 7.73 3.54 10.62 11.18 7.54 19.94-1.13 3.21-4.02 6.03-7.94 7.75-2.56 1.12-5.3 1.69-7.94 1.69Zm.83-27.06c-4.37 0-8.35 2.23-10.51 6.25-1.37 2.56-2.75 6.36-1.51 9.89.89 2.54 3.04 4.56 6.38 6 3.17 1.36 7.43 1.2 11.14-.43 2.91-1.27 5.01-3.25 5.77-5.41 2.4-6.84.42-12.3-5.43-14.98-1.94-.89-3.93-1.32-5.84-1.32m13.16 16.96" class="cls-6"/><ellipse cx="63.22" cy="47.73" class="cls-3" rx="13.86" ry="12.83"/><path d="M76.45 43.95c-.19.5-.41 1-.67 1.49-3.42 6.34-11.74 8.91-18.59 5.75-3.53-1.63-5.96-4.47-7.04-7.7-2.28 6.01.56 12.8 6.88 15.72 6.85 3.17 15.17.59 18.59-5.75 1.66-3.08 1.85-6.47.83-9.51" class="cls-2"/><path d="M63.02 62.39c-2.39 0-4.73-.45-6.8-1.35-4.5-1.96-7.42-4.79-8.66-8.39-1.22-3.53-.7-7.54 1.49-11.61 3.77-6.99 12.44-9.31 20.61-5.54 7.55 3.49 10.55 10.62 7.84 18.59-.95 2.79-3.36 5.17-6.79 6.68-2.41 1.07-5.08 1.6-7.7 1.6Zm-1.17-24.66c-3.96 0-7.45 1.84-9.27 5.22-1.15 2.13-2.29 5.32-1.23 8.4.86 2.5 3.04 4.53 6.48 6.03 3.28 1.43 7.7 1.33 11.28-.25 2.36-1.04 4.04-2.61 4.62-4.31 2.06-6.06-.03-11.04-5.73-13.68-2.06-.95-4.16-1.41-6.14-1.41Z" class="cls-6"/><circle cx="58.78" cy="73.39" r="14.82" class="cls-3"/><path d="M69.49 63.16c.08.61.13 1.23.13 1.86 0 8.19-6.64 14.82-14.82 14.82-4.21 0-8.01-1.77-10.71-4.59.92 7.3 7.14 12.96 14.69 12.96 8.18 0 14.82-6.64 14.82-14.82 0-3.97-1.57-7.57-4.11-10.23" class="cls-2"/><path d="M58.78 90.21c-9.27 0-16.82-7.55-16.82-16.82s7.07-15.43 16.82-15.43S75.6 64.45 75.6 73.39s-7.55 16.82-16.82 16.82m0-28.25c-7.55 0-12.82 4.7-12.82 11.43 0 7.07 5.75 12.82 12.82 12.82S71.6 80.46 71.6 73.39s-5.27-11.43-12.82-11.43" class="cls-6"/><path d="m65.62 36.87 2.32-7.07" class="cls-4"/><path d="M65.62 38.87a2.003 2.003 0 0 1-1.9-2.62l2.32-7.07a2.003 2.003 0 0 1 2.52-1.28c1.05.34 1.62 1.48 1.28 2.52l-2.32 7.07c-.28.84-1.06 1.38-1.9 1.38" class="cls-6"/><path d="m73.6 80.95 8.37 1.79c3.94.85 8.04.62 11.87-.67l3.37-1.13" class="cls-4"/><path d="M86.69 85.25c-1.72 0-3.44-.18-5.13-.54l-8.37-1.79a2 2 0 0 1-1.54-2.37 1.996 1.996 0 0 1 2.38-1.54l8.37 1.79c3.59.77 7.33.56 10.81-.61l3.37-1.13a1.999 1.999 0 0 1 1.27 3.79l-3.37 1.13c-2.52.84-5.15 1.27-7.79 1.27" class="cls-6"/><path d="m32.38 91.16 8.55 4.66" class="cls-4"/><path d="M40.93 97.82c-.32 0-.65-.08-.96-.24l-8.54-4.66c-.97-.53-1.33-1.74-.8-2.71s1.74-1.33 2.71-.8l8.54 4.66c.97.53 1.33 1.74.8 2.71-.36.67-1.05 1.04-1.76 1.04Z" class="cls-6"/><path d="M57.02 45.77c-.67 0-1.33-.34-1.71-.96a2 2 0 0 1 .66-2.75c.61-.37 3.77-2.19 6.43-1.54 1.07.26 1.73 1.35 1.46 2.42s-1.35 1.72-2.42 1.46c-.76-.19-2.48.51-3.39 1.06-.33.2-.69.29-1.04.29ZM16.46 80.59c-.68 0-1.33-.34-1.71-.96-.57-.94-.28-2.17.66-2.75.61-.37 3.77-2.19 6.43-1.53a1.999 1.999 0 0 1-.96 3.88c-.76-.19-2.45.5-3.39 1.07-.32.2-.68.29-1.04.29Zm38.05-10.67c-.75 0-1.46-.42-1.81-1.14-.48-1-.06-2.19.94-2.67.64-.31 3.98-1.8 6.56-.87 1.04.37 1.58 1.52 1.21 2.56a2.005 2.005 0 0 1-2.56 1.21c-.74-.26-2.52.25-3.48.71-.28.13-.57.2-.86.2M25.34 47.87c-.74 0-1.45-.41-1.8-1.12a2 2 0 0 1 .92-2.67c.29-.14 2.95-1.41 5.6-1.29 1.1.04 1.96.98 1.92 2.08s-.96 1.95-2.08 1.92c-1.4-.04-3.17.64-3.68.89-.28.14-.58.2-.87.2Z" style="stroke-width:0;fill:#fff"/></svg>