<?xml version="1.0" encoding="UTF-8"?>
<svg id="flatten_icons" data-name="flatten icons" xmlns="http://www.w3.org/2000/svg" viewBox="0 0 112 112">
  <defs>
    <style>
      .cls-1 {
        fill: none;
      }

      .cls-1, .cls-2, .cls-3, .cls-4, .cls-5, .cls-6 {
        stroke-width: 0px;
      }

      .cls-2 {
        fill: #73cc64;
      }

      .cls-3 {
        fill: #c9a275;
      }

      .cls-4 {
        fill: #aad681;
      }

      .cls-5 {
        fill: #fbe4ac;
      }

      .cls-6 {
        fill: #004241;
      }
    </style>
  </defs>
  <rect class="cls-1" width="112" height="112"/>
  <g>
    <g>
      <path class="cls-2" d="m36.37,88.73s21.53-15.63,55.62-24.91c4.36-1.19,8.99-1.02,13.26.49l1.91.67c2.05.72,3.22,2.87,2.73,4.98h0c-.44,1.89-2.1,3.25-4.04,3.3l-3,.08-.11,2.73c-.09,2.14-1.75,3.88-3.88,4.07l-9.39.83-53.1,7.75Z"/>
      <path class="cls-6" d="m36.37,90.73c-.8,0-1.54-.48-1.85-1.25-.35-.85-.07-1.83.68-2.37.89-.65,22.22-15.96,56.27-25.22,4.78-1.3,9.78-1.12,14.45.54l1.91.67c3.01,1.06,4.74,4.21,4.02,7.32-.64,2.78-3.09,4.77-5.94,4.84l-1.13.03-.04.87c-.13,3.13-2.58,5.7-5.7,5.98l-9.33.83-53.04,7.74c-.1.01-.19.02-.29.02Zm61.47-25.7c-1.78,0-3.57.24-5.32.71-21.48,5.85-38.04,14.32-47.14,19.65l43.8-6.39s.07,0,.11-.01l9.39-.83c1.13-.1,2.01-1.03,2.06-2.16l.11-2.74c.04-1.05.89-1.89,1.95-1.92l3-.08c1.03-.03,1.91-.75,2.14-1.75.26-1.12-.36-2.26-1.45-2.65l-1.9-.67c-2.19-.77-4.47-1.16-6.74-1.16Z"/>
    </g>
    <g>
      <path class="cls-5" d="m5.92,36.46c1.82-4.12,4.27-7.75,7.18-10.8.75-.78,3.08.36,3.88-.34,1.17-1.03.85-3.85,2.13-4.71,8.15-5.43,18.32-7.3,28.24-4.45.65.19.86,1.4,1.51,1.62.85.3,2.08.16,2.99,0,2.61-.45,3.58.91,4.65,2.46.45.65.88,1.86,1.52,2.32.98.7,2.35.45,3.25,1.24,2.69,2.36,5,5.09,6.89,8.06.9,1.41-.75,3-.05,4.51.65,1.41,3.65,2.73,4.12,4.2,2.51,7.88,2.37,16.57-1.16,24.58-7.93,17.99-21.76,29.32-45.93,18.67S-2.01,54.45,5.92,36.46Z"/>
      <path class="cls-6" d="m42.31,89.91c-5.52,0-11.52-1.41-17.96-4.25C1.84,75.75-5.54,57.52,4.09,35.65h0c1.88-4.26,4.42-8.09,7.57-11.38,1.08-1.13,2.64-.93,3.67-.8.13.02.3.04.46.05.09-.28.19-.71.26-1,.29-1.21.65-2.71,1.97-3.59,8.86-5.91,19.76-7.62,29.9-4.71,1.08.31,1.61,1.18,1.92,1.69,0,0,0,.01.01.02.29.03.81.02,1.67-.13,3.9-.68,5.55,1.72,6.64,3.3.22.32.4.67.58,1.01.15.28.39.74.52.87.07.04.45.12.76.19.73.15,1.72.36,2.58,1.12,2.81,2.47,5.25,5.33,7.26,8.5.94,1.48.53,2.94.27,3.9-.08.29-.2.72-.18.86.14.23.92.84,1.39,1.2,1.17.9,2.38,1.84,2.81,3.21,2.77,8.68,2.33,17.91-1.23,26-6.99,15.88-17.41,23.94-30.61,23.94ZM7.75,37.26h0c-5.06,11.49-9.42,32.57,18.21,44.74,20.02,8.82,34.18,3.04,43.29-17.65,3.17-7.19,3.55-15.42,1.08-23.17-.13-.24-.96-.88-1.45-1.26-1.02-.79-2.07-1.6-2.58-2.71-.65-1.4-.28-2.71-.04-3.59.07-.24.16-.58.17-.75-1.8-2.83-3.99-5.38-6.49-7.58-.1-.07-.5-.16-.77-.21-.68-.14-1.52-.32-2.33-.9-.8-.58-1.28-1.48-1.66-2.2-.12-.22-.23-.44-.34-.6-1.04-1.51-1.33-1.85-2.66-1.63-1.71.29-2.97.27-3.99-.09-.99-.35-1.49-1.17-1.79-1.66,0-.02-.02-.03-.03-.04-8.86-2.42-18.33-.87-26.08,4.25-.13.23-.28.86-.37,1.25-.26,1.09-.58,2.44-1.63,3.35-1.07.94-2.47.76-3.49.63-.17-.02-.41-.05-.59-.07-2.67,2.88-4.85,6.2-6.48,9.89Z"/>
    </g>
    <g>
      <path class="cls-4" d="m63.8,60.74l.26.48,1.93-6.78c.5-1.77,1.91-3.15,3.7-3.61l.45-.12c2.99-.77,5.99,1.22,6.43,4.28l.14.96,4.07-4.49c1.67-1.84,4.55-1.92,6.31-.16,1.16,1.16,1.58,2.87,1.08,4.43-1.31,4.1-4.07,7.58-7.75,9.8l-6.17,3.71s-3.52,3.05-21.55,10.5c8.18-2.01,24.7-1.61,24.7-1.61l7.17-.59c4.29-.35,8.56.86,12.02,3.42,1.32.97,1.98,2.61,1.71,4.22-.41,2.46-2.78,4.08-5.22,3.56l-5.93-1.26.45.87c1.42,2.74.16,6.11-2.72,7.23l-.43.17c-1.72.67-3.66.38-5.11-.77l-5.53-4.37.07.54c.41,3.23-2.33,5.97-5.56,5.57-1.81-.22-3.36-1.42-4.03-3.12l-2.17-5.51c-.25-.62-.83-1.04-1.5-1.05-3.43-.08-14.18.08-22.94,4.63-10.57,5.5-15.95,5.47-15.95,5.47-3.55.56-5.35-4.82-5.35-4.82,0,0-5.09-8.2,15.28-10.8,9.79-1.25,22.64-10.59,22.66-15.57,0-.89.13-1.77.1-2.66-.05-1.43.52-2.83,1.6-3.82h0c2.38-2.21,6.21-1.58,7.77,1.27Z"/>
      <path class="cls-6" d="m21.21,99.18c-3.53,0-5.78-3.62-6.65-6.03-.62-1.16-1.23-3.48-.08-5.89,1.87-3.93,7.57-6.52,16.95-7.71,9.73-1.24,20.9-10.42,20.91-13.59,0-.43.03-.86.05-1.29.03-.46.06-.89.04-1.3-.07-2.02.75-3.97,2.24-5.35,1.59-1.48,3.73-2.12,5.88-1.77.93.15,1.8.48,2.57.96l.94-3.3c.7-2.45,2.66-4.36,5.12-5l.45-.12c1.97-.51,4.08-.15,5.78.98.89.59,1.63,1.37,2.17,2.27l1.72-1.89c1.18-1.3,2.8-2.04,4.55-2.08,1.76-.06,3.41.61,4.65,1.85,1.7,1.69,2.31,4.17,1.57,6.46-1.46,4.56-4.52,8.43-8.62,10.9l-6.05,3.64c-.64.5-3.02,2.17-9.81,5.39,5.76-.25,10.87-.16,11.74-.14l7.07-.59c4.77-.39,9.52.95,13.37,3.8,1.93,1.43,2.89,3.79,2.5,6.16-.29,1.73-1.24,3.23-2.69,4.22-1.45.99-3.19,1.33-4.91.97l-2.5-.53c.08,1.04-.06,2.11-.44,3.11-.72,1.91-2.22,3.43-4.12,4.17l-.43.17c-2.37.92-5.08.52-7.08-1.06l-2.69-2.13c-.35.84-.86,1.62-1.53,2.29-1.53,1.54-3.65,2.26-5.8,2-2.54-.31-4.71-1.99-5.65-4.38l-2.09-5.3c-3.3-.07-13.54.15-21.74,4.41-9.96,5.18-15.62,5.65-16.7,5.69-.24.03-.47.05-.7.05Zm38.2-39.04c-.75,0-1.46.28-2.02.8-.64.59-.98,1.42-.96,2.29.02.6-.02,1.15-.05,1.68-.02.35-.05.7-.05,1.05-.02,5.83-12.88,16.08-24.4,17.54-10.32,1.31-13.08,3.95-13.81,5.41-.62,1.23-.07,2.27,0,2.38.06.11.14.27.18.39.25.74,1.62,3.7,3.14,3.48.11-.02.21-.02.32-.02.03,0,5.15-.11,15.01-5.24,8.99-4.68,19.71-4.96,23.91-4.86,1.47.03,2.77.94,3.32,2.32l2.17,5.51c.4,1.02,1.33,1.74,2.42,1.87.92.11,1.83-.2,2.48-.85.66-.66.97-1.56.85-2.48l-.07-.54c-.1-.81.3-1.59,1-1.99.71-.4,1.59-.33,2.22.17l5.53,4.37c.89.7,2.09.88,3.14.47l.43-.17c.85-.33,1.5-.99,1.83-1.85.32-.86.27-1.78-.16-2.6l-.45-.87c-.36-.69-.29-1.52.18-2.13.47-.62,1.25-.91,2.01-.75l5.93,1.26c.64.13,1.29,0,1.83-.36.54-.37.89-.92,1-1.57.15-.88-.21-1.76-.93-2.29-3.07-2.27-6.85-3.35-10.66-3.03l-7.17.59c-.07,0-.14,0-.21,0-.16,0-16.35-.38-24.17,1.55-1.02.25-2.05-.33-2.38-1.32-.33-.99.17-2.07,1.14-2.47,17.16-7.09,20.88-10.06,21.02-10.18.08-.06.17-.13.26-.18l6.17-3.71c3.27-1.97,5.71-5.05,6.88-8.69.27-.85.05-1.77-.58-2.4-.46-.46-1.07-.7-1.73-.69-.65.02-1.25.29-1.69.78l-4.07,4.49c-.52.57-1.33.79-2.06.57-.74-.23-1.28-.86-1.4-1.62l-.14-.96c-.13-.91-.63-1.69-1.39-2.2-.77-.51-1.68-.66-2.57-.43l-.45.12c-1.09.28-1.96,1.13-2.27,2.22l-1.93,6.78c-.22.78-.89,1.35-1.7,1.44-.81.1-1.59-.32-1.98-1.03l-.26-.48s0,0,0,0c-.44-.81-1.22-1.37-2.14-1.52-.16-.03-.33-.04-.49-.04Z"/>
    </g>
    <path class="cls-3" d="m17.09,39.39c-.68,0-1.34-.35-1.72-.97-.57-.95-.26-2.17.68-2.74.27-.16,6.68-3.96,12.96-2.42,1.07.26,1.73,1.35,1.47,2.42-.26,1.07-1.34,1.73-2.42,1.47-4.62-1.13-9.9,1.93-9.95,1.96-.32.19-.68.29-1.03.29Z"/>
    <path class="cls-3" d="m41.6,63.56c-.63,0-1.26-.3-1.65-.86-1.19-1.72-3.09-3.74-4.02-4-1.06-.3-1.68-1.4-1.39-2.46.3-1.06,1.4-1.69,2.46-1.39,2.81.79,5.68,4.79,6.23,5.58.63.91.4,2.15-.51,2.78-.35.24-.74.35-1.14.35Z"/>
    <path class="cls-3" d="m55.07,46.36c-.27,0-.54-.06-.81-.17l-.57-.25c-1.01-.45-1.47-1.63-1.02-2.64.45-1.01,1.63-1.46,2.64-1.02l.57.25c1.01.45,1.47,1.63,1.02,2.64-.33.75-1.06,1.19-1.83,1.19Z"/>
    <path class="cls-3" d="m16.69,64.9c-.27,0-.54-.06-.81-.17l-.57-.25c-1.01-.45-1.47-1.63-1.02-2.64.45-1.01,1.63-1.46,2.64-1.02l.57.25c1.01.45,1.47,1.63,1.02,2.64-.33.75-1.06,1.19-1.83,1.19Z"/>
    <path class="cls-3" d="m38.04,27.64c-.27,0-.54-.06-.81-.17l-.57-.25c-1.01-.45-1.47-1.63-1.02-2.64.45-1.01,1.63-1.46,2.64-1.02l.57.25c1.01.45,1.47,1.63,1.02,2.64-.33.75-1.06,1.19-1.83,1.19Z"/>
  </g>
</svg>