<?xml version="1.0" encoding="UTF-8"?>
<svg id="flatten_icons" data-name="flatten icons" xmlns="http://www.w3.org/2000/svg" viewBox="0 0 112 112">
  <defs>
    <style>
      .cls-1 {
        fill: none;
      }

      .cls-1, .cls-2, .cls-3, .cls-4, .cls-5, .cls-6 {
        stroke-width: 0px;
      }

      .cls-2 {
        fill: #aad681;
      }

      .cls-3 {
        fill: #b74656;
      }

      .cls-4 {
        fill: #fff;
      }

      .cls-5 {
        fill: #ea5c67;
      }

      .cls-6 {
        fill: #004241;
      }
    </style>
  </defs>
  <rect class="cls-1" width="112" height="112"/>
  <g>
    <g>
      <g>
        <circle class="cls-3" cx="39" cy="78.2" r="18.12"/>
        <path class="cls-5" d="m47.98,70.37c0-3.74-1.13-7.21-3.07-10.09-2.21-.96-4.65-1.5-7.22-1.5-10.01,0-18.12,8.11-18.12,18.12,0,3.74,1.13,7.21,3.07,10.09,2.21.96,4.65,1.5,7.22,1.5,10.01,0,18.12-8.11,18.12-18.12Z"/>
        <path class="cls-6" d="m39,98.33c-11.1,0-20.12-9.03-20.12-20.12s9.03-20.12,20.12-20.12,20.12,9.03,20.12,20.12-9.03,20.12-20.12,20.12Zm0-36.25c-8.89,0-16.12,7.23-16.12,16.12s7.23,16.12,16.12,16.12,16.12-7.23,16.12-16.12-7.23-16.12-16.12-16.12Z"/>
      </g>
      <g>
        <circle class="cls-3" cx="87.88" cy="68.56" r="18.12"/>
        <path class="cls-5" d="m96.86,60.72c0-3.74-1.13-7.21-3.07-10.09-2.21-.96-4.65-1.5-7.22-1.5-10.01,0-18.12,8.11-18.12,18.12,0,3.74,1.13,7.21,3.07,10.09,2.21.96,4.65,1.5,7.22,1.5,10.01,0,18.12-8.11,18.12-18.12Z"/>
        <path class="cls-6" d="m87.88,88.68c-11.1,0-20.12-9.03-20.12-20.12s9.03-20.12,20.12-20.12,20.12,9.03,20.12,20.12-9.03,20.12-20.12,20.12Zm0-36.25c-8.89,0-16.12,7.23-16.12,16.12s7.23,16.12,16.12,16.12,16.12-7.23,16.12-16.12-7.23-16.12-16.12-16.12Z"/>
      </g>
      <path class="cls-6" d="m36.89,67.83h0c-1.1,0-2-.89-2-2s.2-27.2,17.9-49.39c.44-.56,1.15-.84,1.85-.73.7.1,1.3.57,1.57,1.23.12.31,12.49,30.73,27.35,40.09.93.59,1.21,1.82.63,2.76-.59.93-1.82,1.21-2.76.63-13.12-8.26-23.86-30.42-27.56-38.78-14.77,20.48-14.98,43.95-14.98,44.19,0,1.1-.9,2-2,2Z"/>
      <g>
        <path class="cls-2" d="m54.03,17.55S27.62,9.17,6,27.83c0,0,30.17,17.89,48.03-10.28Z"/>
        <path class="cls-6" d="m26.98,35.37c-11.95,0-21.82-5.71-22-5.82-.55-.33-.92-.9-.97-1.54-.06-.64.2-1.27.69-1.69C26.91,7.15,53.52,15.28,54.64,15.64c.59.19,1.06.64,1.27,1.22s.14,1.23-.19,1.76c-8.31,13.1-19.19,16.75-28.74,16.75Zm-17.32-7.93c2.94,1.34,8.06,3.28,13.98,3.84,11.2,1.05,20.32-3.14,27.12-12.47-6.74-1.38-25.04-3.56-41.1,8.63Z"/>
      </g>
    </g>
    <path class="cls-4" d="m28.92,79.2c-1.1,0-2-.9-2-2,0-4.83,3.62-8.07,3.77-8.21.83-.73,2.09-.65,2.82.18.73.83.65,2.08-.17,2.82-.06.06-2.42,2.25-2.42,5.22,0,1.1-.9,2-2,2Z"/>
    <path class="cls-4" d="m78.12,73.92c-.86,0-1.66-.56-1.92-1.43-1.33-4.48,0-7.88.06-8.03.41-1.02,1.58-1.52,2.6-1.11,1.02.41,1.51,1.57,1.11,2.59-.05.12-.85,2.35.06,5.41.31,1.06-.29,2.17-1.35,2.49-.19.06-.38.08-.57.08Z"/>
  </g>
</svg>