<svg xmlns="http://www.w3.org/2000/svg" id="flatten_icons" data-name="flatten icons" viewBox="0 0 112 112"><defs><style>.cls-2,.cls-3{stroke-width:0}.cls-2{fill:#c59878}.cls-3{fill:#e4c8a7}</style></defs><g id="chaise"><path id="area" d="M0 0h112v112H0z" style="fill:none;stroke-width:0"/><path d="M80.18 110h8.73l-4.47-42.02c.95-.69 1.57-1.8 1.57-3.06v-4.51c0-3.29-2.12-5.96-4.74-5.96H30.88c-2.62 0-4.74 2.67-4.74 5.96v4.51c0 1.2.57 2.25 1.43 2.94l-4.48 42.13h8.73l3.71-26.23v14.08h5.48l1.3-29.13h27.2l1.3 29.13h5.48l1.38-5.47 2.49 17.62Z" class="cls-2"/><path d="M81.27 54.45H30.88c-2.07 0-3.84 1.67-4.48 4.01-.27.98.45 1.96 1.47 1.96h7.89c.4 0 .79.16 1.08.45L40 64.04c.6.6 1.56.6 2.16 0l3.27-3.27c.42-.42 1.04-.56 1.6-.35l5.61 2.05c.25.09.52.12.78.07l5.37-.92c.08-.01.17-.02.26-.02h11.36c.33 0 .66-.11.92-.31l4.56-3.46c.27-.2.59-.31.92-.31h4.41c1.96 0 2.07-3.02.11-3.05h-.05Z" class="cls-3"/><path d="m80.73 2.02-1.06.1a251.6 251.6 0 0 1-47.85 0l-1.06-.1c-2.84-.27-5.28 2.32-5.28 5.61v10.1c0 2.93 1.94 5.36 4.47 5.61l1.87.18c15.92 1.52 31.93 1.52 47.85 0l1.87-.18c2.53-.24 4.47-2.68 4.47-5.61V7.63c0-3.29-2.44-5.88-5.28-5.61" class="cls-2"/><path d="M86.01 10.4V7.63c0-3.29-2.44-5.88-5.28-5.61l-1.06.1a251.6 251.6 0 0 1-47.85 0l-1.06-.1c-2.84-.27-5.28 2.32-5.28 5.61l18.99 6.98c1.28.47 2.66.4 3.91-.19l1.7-.81c2.57-1.23 5.54-.13 7.01 2.6 1.04 1.92 2.87 3.09 4.83 3.09h3.45c1.59 0 3.17-.4 4.61-1.16l12.75-6.76L86 10.4Z" class="cls-3"/><path d="m90.9 109.79-4.36-41.02a5.76 5.76 0 0 0 1.47-3.84v-4.51c0-4.39-3.02-7.96-6.74-7.96h-4.74l4.07-27.03 1.13-.11c3.58-.34 6.28-3.61 6.28-7.6V7.63c0-2.3-.92-4.45-2.52-5.9C84.1.46 82.33-.14 80.54.04l-1.06.1a249.3 249.3 0 0 1-47.47 0l-1.06-.1c-1.8-.18-3.56.43-4.95 1.69-1.6 1.45-2.52 3.6-2.52 5.9v10.1c0 3.99 2.7 7.25 6.28 7.6l1.85.18 4.06 26.96h-4.8c-3.72 0-6.74 3.57-6.74 7.96v4.51c0 1.41.51 2.7 1.34 3.7l-4.38 41.16c-.06.56.12 1.13.5 1.55s.92.66 1.49.66h8.73c1 0 1.84-.73 1.98-1.72l1.48-10.46c.08.01.17.03.25.03H41c1.07 0 1.95-.84 2-1.91l1.22-27.22h23.37l1.22 27.22c.05 1.07.93 1.91 2 1.91h5.48c.14 0 .28-.02.41-.04l1.48 10.48c.14.99.98 1.72 1.98 1.72h8.73c.57 0 1.11-.24 1.49-.66s.56-.98.5-1.55ZM44.77 52.45h-5.05l-4.01-26.61c2.49.2 4.99.37 7.48.49l1.57 26.12Zm13.3-25.83c2.31-.02 4.61-.07 6.92-.16l-1.56 25.99h-5.35V26.62Zm10.94-.33c2.5-.13 5-.31 7.49-.51l-4.02 26.68h-5.05zm-41.52-8.57V7.63c0-1.17.44-2.25 1.21-2.94.35-.32.92-.68 1.66-.68.07 0 .15 0 .22.01l1.06.1c16 1.53 32.23 1.53 48.23 0l1.06-.1c.85-.08 1.49.32 1.88.67.77.7 1.21 1.77 1.21 2.94v10.1c0 1.88-1.17 3.47-2.66 3.62l-1.87.18a249.3 249.3 0 0 1-47.47 0l-1.86-.18c-1.49-.14-2.66-1.73-2.66-3.62Zm26.59 8.9v25.83h-5.3l-1.56-25.97c2.29.08 4.57.13 6.86.14m-23.99 81.37h-4.77l3.97-37.33c.21.02.42.04.64.04h5.44zm9.02-12.16h-1.57V83.89l1.87-13.2h.82l-1.12 25.13Zm35.19 0h-1.57L71.61 70.7h.99l1.7 12.03zM72.28 66.7H29.92c-.98 0-1.79-.8-1.79-1.79V60.4c0-2.15 1.25-3.96 2.74-3.96h50.37c1.49 0 2.74 1.81 2.74 3.96v4.51c0 .98-.8 1.79-1.79 1.79h-9.95Zm9.64 41.29L76.64 70.7h5.59c.17 0 .33-.01.49-.02l3.97 37.31z" style="stroke-width:0;fill:#004241"/></g></svg>