<?xml version="1.0" encoding="UTF-8"?>
<svg id="flatten_icons" data-name="flatten icons" xmlns="http://www.w3.org/2000/svg" viewBox="0 0 112 112">
  <defs>
    <style>
      .cls-1 {
        fill: none;
      }

      .cls-1, .cls-2, .cls-3, .cls-4, .cls-5 {
        stroke-width: 0px;
      }

      .cls-2 {
        fill: #dbba82;
      }

      .cls-3 {
        fill: #ede5b4;
      }

      .cls-4 {
        fill: #efe8c7;
      }

      .cls-5 {
        fill: #004241;
      }
    </style>
  </defs>
  <rect class="cls-1" width="112" height="112"/>
  <g>
    <path class="cls-4" d="m45.97,81.87s9.84,1.53,10.03,9.99c.19,8.46-.49,17.59,11.93,18.12s19.09-9.41,14.14-18.12-7.56-19.34-7.56-19.34l-26.49-2.25-2.05,11.6Z"/>
    <path class="cls-2" d="m72.09,111.74c-.1,0-.21,0-.32-.02-7.04-1.12-8.75-11.93-8.92-13.16-.15-1.09.61-2.1,1.7-2.26,1.1-.16,2.1.61,2.26,1.7.33,2.36,2.08,9.2,5.58,9.76,1.09.17,1.83,1.2,1.66,2.29-.16.98-1.01,1.69-1.97,1.69Z"/>
    <path class="cls-5" d="m68.87,112c-.34,0-.68,0-1.02-.02-13.52-.58-13.68-10.51-13.81-18.49,0-.53-.02-1.06-.03-1.59-.15-6.71-8.26-8.04-8.34-8.06-.53-.08-1.01-.38-1.32-.81s-.44-.98-.34-1.51l2.05-11.6c.18-1.02,1.11-1.73,2.14-1.65l26.49,2.25c.85.07,1.57.68,1.77,1.51.03.1,2.61,10.47,7.36,18.83,2.56,4.51,2.55,9.5-.01,13.7-2.87,4.7-8.4,7.43-14.93,7.43Zm-20.6-31.64c4.09,1.24,9.58,4.64,9.74,11.46.01.54.02,1.07.03,1.61.15,9.03.68,14.16,9.98,14.56,5.5.24,10.12-1.82,12.37-5.5,1.79-2.92,1.77-6.44-.05-9.64-4.02-7.07-6.5-15.23-7.39-18.45l-23.27-1.98-1.4,7.94Z"/>
    <g>
      <path class="cls-2" d="m27.54,3.98c-8.59,3.11-9.54,27.04-7.03,42.89s-1.22,38.23,12.76,38.23,16.78-9.32,29.84-9.32,25.18-2.8,28.91-12.12c3.73-9.32-8.39-32.64-19.58-40.1C61.24,16.1,50.71-4.41,27.54,3.98Z"/>
      <path class="cls-3" d="m20.99,46.82c-.45,0-.9-.2-1.2-.59-.5-.66-.37-1.6.29-2.1l6.16-4.68c.18-.16.33-.3.46-.42.11-.1.21-.18.28-.25.02-.19.02-.57.02-.76,0-.09,0-.18.02-.27l.61-3.34c-.06-2.08-1.49-3.85-3.52-4.33l-4.45-1.06c-.81-.19-1.3-1-1.11-1.81.19-.81,1-1.3,1.81-1.11l4.45,1.06c3.43.82,5.82,3.85,5.82,7.38,0,.09,0,.18-.02.27l-.61,3.36c0,1.59-.15,2.09-1.3,3.11-.13.12-.28.25-.46.42-.04.04-.08.07-.12.1l-6.22,4.73c-.27.21-.59.31-.91.31Zm8.14-12.29h0,0Z"/>
      <path class="cls-3" d="m67.93,77.14c-.83,0-1.5-.67-1.5-1.5v-8.37c0-.24-.13-.47-.35-.59l-13.5-7.44c-2.42-1.33-3.92-3.88-3.92-6.64v-1.2c0-2.53-2.06-4.58-4.58-4.58h-6.66c-2.26,0-4.38-.99-5.82-2.73l-3.62-4.34c-.53-.64-.44-1.58.19-2.11.64-.53,1.58-.44,2.11.19l3.62,4.34c.87,1.05,2.16,1.65,3.52,1.65h6.66c4.18,0,7.58,3.4,7.58,7.58v1.2c0,1.67.91,3.21,2.37,4.01l13.5,7.44c1.17.64,1.9,1.88,1.9,3.21v8.37c0,.83-.67,1.5-1.5,1.5Z"/>
      <path class="cls-3" d="m40.73,63.86c-.26,0-.52-.07-.76-.21l-6.56-3.88c-1.04-.61-2.26-.79-3.43-.5l-8.01,1.98c-.8.2-1.62-.29-1.82-1.1-.2-.8.29-1.62,1.1-1.82l8.01-1.98c1.94-.48,3.96-.18,5.67.83l6.56,3.88c.71.42.95,1.34.53,2.05-.28.47-.78.74-1.29.74Z"/>
      <path class="cls-3" d="m32.03,58.72c-.1,0-.21-.01-.31-.03-.81-.17-1.33-.97-1.15-1.78l2.54-11.9c.17-.81.97-1.33,1.78-1.15.81.17,1.33.97,1.15,1.78l-2.54,11.9c-.15.71-.77,1.19-1.47,1.19Z"/>
      <path class="cls-3" d="m50.16,52.9c-.83,0-1.5-.67-1.5-1.5v-12.96c0-2.41,1.72-4.47,4.09-4.9l8.1-1.47c2.18-.4,3.76-2.29,3.76-4.51v-9.29c0-.83.67-1.5,1.5-1.5s1.5.67,1.5,1.5v9.29c0,3.67-2.62,6.8-6.22,7.46l-8.1,1.47c-.94.17-1.63.99-1.63,1.95v12.96c0,.83-.67,1.5-1.5,1.5Z"/>
      <path class="cls-3" d="m41.29,18.74c-1.56,0-3.12-.49-4.44-1.45l-4.07-2.94c-.79-.57-1.79-.86-2.74-.87l-8.41.1c-.8,0-1.51-.65-1.52-1.48-.01-.83.65-1.51,1.48-1.52l8.41-.1c1.62-.03,3.23.49,4.54,1.44l4.07,2.94c1.4,1.01,3.22,1.15,4.76.37l11.96-6.07c.74-.38,1.64-.08,2.02.66.38.74.08,1.64-.66,2.02l-11.96,6.07c-1.09.55-2.27.83-3.44.83Z"/>
      <path class="cls-3" d="m32.03,13.46c-.27,0-.54-.07-.78-.22-.71-.43-.93-1.36-.5-2.06l6.09-9.96c.43-.71,1.36-.93,2.06-.5.71.43.93,1.36.5,2.06l-6.09,9.96c-.28.46-.78.72-1.28.72Z"/>
      <path class="cls-3" d="m26.08,83.33c-.5,0-.98-.25-1.27-.7-.44-.7-.24-1.63.46-2.07l11.83-7.52c1.33-.85,2.12-2.29,2.12-3.87v-5.55c0-1.3.65-2.5,1.74-3.21l8.07-5.28c.15-.1.29-.21.43-.32l14.7-12.3c1.15-.97,1.75-2.42,1.63-3.89l-5.53-3.86c-.68-.47-.85-1.41-.37-2.09.47-.68,1.41-.85,2.09-.37l6.06,4.23c.31.22.53.55.61.92.57,2.74-.41,5.56-2.56,7.36l-14.7,12.3c-.23.19-.47.37-.71.53l-8.07,5.28c-.24.16-.38.42-.38.7v5.55c0,2.61-1.31,5-3.51,6.4l-11.83,7.52c-.25.16-.53.23-.8.23Z"/>
      <path class="cls-3" d="m88.13,45.05c-.05,0-.11,0-.17,0l-20.2-2.22c-.82-.09-1.42-.83-1.33-1.66s.83-1.42,1.66-1.33l20.2,2.22c.82.09,1.42.83,1.33,1.66-.08.77-.73,1.34-1.49,1.34Z"/>
      <path class="cls-3" d="m67.93,67.49c-.5,0-.99-.25-1.28-.71-.44-.7-.22-1.63.48-2.07l12.77-7.92c.25-.16.37-.46.29-.74l-3.61-13.22c-.22-.8.25-1.62,1.05-1.84.8-.22,1.62.25,1.84,1.05l3.61,13.21c.43,1.55-.23,3.23-1.6,4.08l-12.77,7.92c-.25.15-.52.23-.79.23Z"/>
      <path class="cls-3" d="m92.01,65.16c-.28,0-.56-.08-.81-.24l-9.95-6.44c-.7-.45-.89-1.38-.44-2.07.45-.69,1.38-.89,2.07-.44l9.95,6.44c.7.45.89,1.38.44,2.07-.29.44-.77.68-1.26.68Z"/>
      <path class="cls-3" d="m52.06,80.01c-.24,0-.48-.06-.7-.17l-11.33-5.99c-.73-.39-1.01-1.29-.62-2.03.39-.73,1.29-1.01,2.03-.62l11.33,5.99c.73.39,1.01,1.29.62,2.03-.27.51-.79.8-1.33.8Z"/>
      <path class="cls-3" d="m29.13,36.03c-.51,0-1.01-.26-1.29-.73-.43-.71-.2-1.63.51-2.06l7.56-4.55c2.04-1.23,3.31-3.47,3.31-5.86v-4.58c0-.83.67-1.5,1.5-1.5s1.5.67,1.5,1.5v4.58c0,3.43-1.83,6.66-4.77,8.43l-7.56,4.55c-.24.15-.51.21-.77.21Z"/>
      <path class="cls-3" d="m43.56,39.52c-2.48,0-4.81-1.44-5.87-3.76l-2.36-5.15c-.35-.75-.01-1.64.74-1.99.76-.34,1.64-.01,1.99.74l2.36,5.15c.68,1.48,2.32,2.29,3.9,1.92l5.48-1.26,3.36-5.74c.71-1.85.51-3.95-.53-5.64l-5.38-8.71c-.44-.7-.22-1.63.49-2.06.7-.43,1.63-.22,2.06.49l5.38,8.71c1.56,2.52,1.83,5.67.72,8.43-.03.07-.06.13-.1.2l-3.75,6.4c-.21.36-.56.61-.96.7l-6.11,1.4c-.48.11-.96.16-1.43.16Z"/>
      <path class="cls-5" d="m33.27,87.1c-12.33,0-13.55-14.57-14.28-23.28-.08-1.02.21-1.91.45-2.63.13-.39.28-.84.27-1.05-.02-.01-.19-.3-.31-.49-.36-.6-.82-1.34-.88-2.29-.12-1.76-.27-3.8-.45-5.77-.13-1.37.48-2.5.98-3.41.19-.34.46-.86.48-1.05-.06-.34-.33-.92-.59-1.49-.42-.89-.89-1.9-1.01-3.05-1.34-12.4-1.2-36.82,8.93-40.49,18.57-6.72,29.63,4.02,38.51,12.66,2.85,2.77,5.54,5.38,8.17,7.14,11.64,7.76,24.57,31.91,20.33,42.5-3.55,8.88-13.9,13.38-30.76,13.38-5.88,0-9.52,2.08-13.37,4.28-4.14,2.37-8.83,5.05-16.47,5.05ZM37.95,4.03c-2.97,0-6.19.56-9.73,1.84h0c-4.74,1.71-8.5,16.08-6.32,36.3.05.49.36,1.15.66,1.79.36.78.77,1.66.92,2.61.22,1.41-.41,2.58-.92,3.52-.19.35-.51.94-.51,1.15.19,2,.33,4.07.46,5.86.02.01.19.3.31.49.36.6.82,1.34.88,2.29.07,1.01-.23,1.89-.46,2.6-.12.37-.28.83-.26,1.03,1.2,14.3,3.99,19.61,10.3,19.61s10.42-2.2,14.49-4.52c4.13-2.36,8.41-4.81,15.35-4.81,15.06,0,24.17-3.66,27.05-10.87,3.19-7.97-8.08-30.52-18.83-37.69-2.94-1.96-5.76-4.7-8.74-7.6-6.65-6.46-14-13.6-24.64-13.6Zm-10.41-.04h0,0Z"/>
    </g>
  </g>
</svg>