<?xml version="1.0" encoding="UTF-8"?>
<svg id="flatten_icons" data-name="flatten icons" xmlns="http://www.w3.org/2000/svg" viewBox="0 0 112 112">
  <defs>
    <style>
      .cls-1 {
        fill: none;
      }

      .cls-1, .cls-2, .cls-3, .cls-4, .cls-5 {
        stroke-width: 0px;
      }

      .cls-2 {
        fill: #c49469;
      }

      .cls-3 {
        fill: #aa735b;
      }

      .cls-4 {
        fill: #efd3b9;
      }

      .cls-5 {
        fill: #004241;
      }
    </style>
  </defs>
  <rect class="cls-1" width="112" height="112"/>
  <g>
    <path class="cls-2" d="m96,56c0,20.7-16.78,37.48-37.48,37.48s-35.17-7.66-41.57-27.64c-6.4-19.98,20.87-47.32,41.57-47.32s37.48,16.78,37.48,37.48Z"/>
    <path class="cls-4" d="m47.67,21.02s-13.46,3.59-17.05,9.42c-3.59,5.83-.9,13.46,2.69,14.36,1.89.47,5.28,2.57,8.07,4.44,2.67,1.8,6.23,1.45,8.51-.83h0c1.44-1.44,3.44-2.15,5.46-1.93l2.9.31c5.01.53,8.8-4.43,6.98-9.12l-.8-2.06c-.61-1.59-.6-3.34.03-4.92l.62-1.56c1.88-4.7-1.91-9.71-6.95-9.19l-10.46,1.09Z"/>
    <path class="cls-3" d="m44.67,74.66c-5.06,0-9.78-.91-14.16-2.56,6.34,8.63,15.16,14.58,26.18,14.58,17.26,0,31.25-13.99,31.25-31.25,0-3.88-.71-7.59-2-11.01-5.53,17.53-21.92,30.24-41.28,30.24Z"/>
    <path class="cls-5" d="m58.52,95.48c-7.49,0-26.07-1.33-36.73-13.62-5.89-6.79-8.12-15.59-6.61-26.14,3.14-21.98,22.18-39.2,43.35-39.2s39.48,17.71,39.48,39.48-17.71,39.48-39.48,39.48Zm0-74.96c-19.22,0-36.52,15.71-39.39,35.76-1.33,9.35.57,17.07,5.68,22.95,6.65,7.67,19.25,12.24,33.71,12.24,19.56,0,35.48-15.92,35.48-35.48s-15.92-35.48-35.48-35.48Z"/>
  </g>
</svg>