<svg xmlns="http://www.w3.org/2000/svg" data-name="flatten icons" viewBox="0 0 112 112"><path d="M0 0h112v112H0z" style="fill:none;stroke-width:0"/><path d="M96 56c0 20.7-16.78 37.48-37.48 37.48s-35.17-7.66-41.57-27.64 20.87-47.32 41.57-47.32S96 35.3 96 56" style="stroke-width:0;fill:#c49469"/><path d="M47.67 21.02s-13.46 3.59-17.05 9.42-.9 13.46 2.69 14.36c1.89.47 5.28 2.57 8.07 4.44a6.714 6.714 0 0 0 8.51-.83 6.69 6.69 0 0 1 5.46-1.93l2.9.31c5.01.53 8.8-4.43 6.98-9.12l-.8-2.06a6.74 6.74 0 0 1 .03-4.92l.62-1.56c1.88-4.7-1.91-9.71-6.95-9.19l-10.46 1.09Z" style="stroke-width:0;fill:#efd3b9"/><path d="M44.67 74.66c-5.06 0-9.78-.91-14.16-2.56 6.34 8.63 15.16 14.58 26.18 14.58 17.26 0 31.25-13.99 31.25-31.25 0-3.88-.71-7.59-2-11.01-5.53 17.53-21.92 30.24-41.28 30.24Z" style="stroke-width:0;fill:#aa735b"/><path d="M58.52 95.48c-7.49 0-26.07-1.33-36.73-13.62-5.89-6.79-8.12-15.59-6.61-26.14 3.14-21.98 22.18-39.2 43.35-39.2S98.01 34.23 98.01 56 80.3 95.48 58.53 95.48Zm0-74.96C39.3 20.52 22 36.23 19.13 56.28c-1.33 9.35.57 17.07 5.68 22.95 6.65 7.67 19.25 12.24 33.71 12.24C78.08 91.47 94 75.55 94 55.99S78.08 20.51 58.52 20.51Z" style="stroke-width:0;fill:#004241"/></svg>