<svg xmlns="http://www.w3.org/2000/svg" id="flatten_icons" data-name="flatten icons" viewBox="0 0 112 112"><defs><style>.cls-2{fill:none;stroke:#004241;stroke-linecap:round;stroke-linejoin:round;stroke-width:4px}</style></defs><path d="M0 0h112v112H0z" style="fill:none;stroke-width:0"/><path d="m22.72 14.07 2.56 11.13v74.24s13.3 3.7 33.69 3.02 31.76-6.5 31.76-6.5l-4-7.01 1.84-16.77V20.05l-.87-5.97S71.06 9.28 54.09 8.3s-31.36 5.78-31.36 5.78Z" style="stroke-width:0;fill:#d2d9db"/><path d="M33.69 25.21v11.98c0 2.35 1.5 4.46 3.75 5.15 3.68 1.14 10.28 1.65 20.79 1.73 21.98.18 26.01-4.03 26.01-4.03V22L61.9 25.02zm0 25.94v11.98c0 2.35 1.5 4.46 3.75 5.15 3.68 1.14 10.28 1.65 20.79 1.73 21.98.18 26.01-4.03 26.01-4.03V47.94L61.9 50.96zm0 25.95v11.98c0 2.35 1.5 4.46 3.75 5.15 3.68 1.14 10.28 1.65 20.79 1.73 21.98.18 26.01-4.03 26.01-4.03V73.89L61.9 76.91z" style="stroke-width:0;fill:#e26f6b"/><ellipse cx="56" cy="16.59" class="cls-2" rx="34.8" ry="8.61"/><path d="M25.28 22v17.47c-2.6 1.21-4.08 2.58-4.08 4.05 0 4.76 15.58 8.61 34.8 8.61s34.8-3.86 34.8-8.61c0-1.46-1.48-2.84-4.08-4.05V22" class="cls-2"/><path d="M25.28 47.63V65.1c-2.6 1.21-4.08 2.58-4.08 4.05 0 4.76 15.58 8.61 34.8 8.61s34.8-3.86 34.8-8.61c0-1.46-1.48-2.84-4.08-4.05V47.63" class="cls-2"/><path d="M25.28 73.89v17.47c-2.6 1.21-4.08 2.58-4.08 4.05 0 4.76 15.58 8.61 34.8 8.61s34.8-3.86 34.8-8.61c0-1.46-1.48-2.84-4.08-4.05V73.89M40.01 16.82h1.17" class="cls-2"/></svg>