<?xml version="1.0" encoding="UTF-8"?>
<svg id="flatten_icons" data-name="flatten icons" xmlns="http://www.w3.org/2000/svg" viewBox="0 0 112 112">
  <defs>
    <style>
      .cls-1 {
        fill: none;
      }

      .cls-1, .cls-2, .cls-3, .cls-4 {
        stroke-width: 0px;
      }

      .cls-2 {
        fill: #d2e3ec;
      }

      .cls-3 {
        fill: #90bdcc;
      }

      .cls-4 {
        fill: #004241;
      }
    </style>
  </defs>
  <rect class="cls-1" width="112" height="112"/>
  <g>
    <path class="cls-3" d="m45.21,102.87c12.33,2.31,28.7-1.89,34.86-5.56,1.44-.86,2.58-2.51,3.47-4.53,1.41-.4,2.69-1.36,3.74-3.51.43-.87,1.11-1,1.9-.71,0-.16.01-.32.01-.48,0-.85-.04-1.7-.09-2.54h0s4.06-9.49,2.01-21.91c-2.05-12.42-10.15-18.96-11.98-23.68-1.84-4.72-2.28-12.26-2.28-12.26,0,0-6.3,3.73-7.38,12.26-1.08,8.53-.67,10.35-.67,10.35,0,0-12.74-16.53-14.7-22.62-1.96-6.09-2.77-14.55-.72-18.97,0,0-6.09,3.56-11.11,10.39-5.02,6.83-3.35,20.95-2.3,26.64.84,4.6,2.3,11.74.83,15.73-.68,1.26-1.85,2.22-3.76,3.4-2.94,1.81-5.04.94-6.25,0-2.21-2.2-4.62-8.98-4.62-8.98l1.12-4.9s-7.84,9.9-7.16,18.65c.68,8.75,3.02,17.33,3.02,17.33l.53-.93c2.53,4.37,7.34,11.9,10.03,11.22"/>
    <path class="cls-2" d="m52.51,49.15c-3.57-8.34-12.63-7.86-10.23-30.03-5.02,6.83-3.35,20.95-2.3,26.64.84,4.6,2.3,11.74.83,15.73-.68,1.26-1.85,2.22-3.76,3.4-2.94,1.81-5.04.94-6.25,0-2.21-2.2-4.62-8.98-4.62-8.98l1.12-4.9s-7.84,9.9-7.16,18.65c.68,8.75,3.02,17.33,3.02,17.33l.53-.93c2.53,4.37,7.64,9.72,10.03,11.22,5.08,3.21,7.07,5.99,20.39,5.97-5.22-11.91-4.07-25.35-1.59-35.72,0,0,3.57-10.04,0-18.38Z"/>
    <path class="cls-2" d="m50.49,81.33s-.27,4.98,2.25,7.26c4.01,3.61,12.55,2.09,11.51-8.17-1.05-10.26,3.29-13.68,3.29-13.68,0,0,.22,10.6,5.63,16.11,5.4,5.51,6.2,9.6,2.74,16.13-3.46,6.53-25.49,4.49-25.49,4.49"/>
    <path class="cls-4" d="m55.37,105.38c-5.85,0-11.64-.97-17.26-2.9h0c-8.2-2.81-14.63-9.18-17.66-17.48-.16-.44-.31-.87-.45-1.31-3.98-12.52-2.13-24.12,5.65-35.45.53-.78,1.52-1.11,2.41-.81.89.3,1.48,1.16,1.44,2.1-.05,1.13-.13,2.17-.2,3.15-.14,1.9-.26,3.53-.13,5.07.28,3.28,2.3,5.56,5.02,5.68,2.88.13,4.78-1.66,5.08-4.77.38-3.96,0-7.89-1.05-11.05-3.82-11.45-2.99-21.52,2.48-29.93,1.94-2.98,5.49-7.25,11.39-10.63l.18-.11c.77-.47,1.76-.41,2.46.17.7.57.96,1.52.64,2.36-4.03,10.7.67,18.76,6.29,26.76,1.75,2.49,3.44,4.98,5.21,7.59.77-10.04,3.91-13.45,8.57-17.69.66-.6,1.62-.72,2.4-.31.79.41,1.23,1.27,1.11,2.15-.97,7.16,2.53,12.28,6.23,17.69.57.83,1.13,1.66,1.68,2.49,6.72,10.19,8.84,22.38,5.84,33.45-2.36,8.68-8.16,15.71-15.91,19.28-5.05,2.33-10.75,3.77-16.96,4.29-1.49.12-2.98.19-4.46.19Zm-15.9-6.89c6.49,2.22,13.22,3.06,20.01,2.5,5.71-.48,10.94-1.8,15.54-3.92,6.61-3.05,11.57-9.09,13.6-16.56,2.73-10.05.85-20.71-5.29-30.02-.54-.82-1.09-1.62-1.64-2.43-3.1-4.54-6.29-9.2-6.99-15.17-2.47,3.13-3.93,7.46-3.79,17.52.01.93-.59,1.76-1.47,2.04-.89.28-1.86-.05-2.38-.82-1-1.47-1.98-2.9-2.93-4.31-2.04-3-3.96-5.84-5.94-8.65-5.09-7.26-9.8-15.13-8.3-24.99-6.22,5.13-13.48,15.24-7.68,32.6,1.59,4.76,1.56,9.59,1.25,12.79-.51,5.37-4.32,8.8-9.47,8.59-4.85-.22-8.56-4.13-9.04-9.51-3.32,7.8-3.62,15.81-.93,24.27.12.38.25.77.39,1.15,2.58,7.09,8.07,12.53,15.06,14.93h0Z"/>
  </g>
</svg>