<svg xmlns="http://www.w3.org/2000/svg" id="flatten_icons" data-name="flatten icons" viewBox="0 0 112 112"><defs><style>.cls-5{stroke-width:0;fill:#004241}</style></defs><g id="chaussure-cuir"><path d="M0 0h112v112H0z" style="fill:none;stroke-width:0"/><path d="M83.34 58.95s2.48 11.5 7.92 15.93 21.4 14.36 11.65 23.26c0 0-17.05-1-26.51-7.1s-32.44-32.1-32.44-32.1l-9.44-8.01 15.33-5.81 33.48 13.82Z" style="stroke-width:0;fill:#bb9278"/><path d="M102.91 100.15h-.12c-.72-.04-17.68-1.1-27.47-7.41-9.37-6.04-30.91-30.26-32.76-32.35l-9.33-7.92a1.995 1.995 0 0 1 .58-3.39l15.33-5.81c.48-.18 1-.17 1.47.02L84.1 57.11c.61.25 1.05.78 1.19 1.43.02.11 2.4 10.87 7.23 14.8.63.52 1.42 1.11 2.28 1.77 5.13 3.9 12.88 9.79 13.19 16.53.13 2.92-1.12 5.61-3.73 7.99-.37.34-.85.52-1.35.52m-64.5-48.53 6.85 5.81c.07.06.14.13.21.2.23.26 22.9 25.86 32.02 31.74 7.72 4.98 21.15 6.42 24.67 6.71 1.3-1.38 1.9-2.78 1.83-4.27-.22-4.87-7.35-10.29-11.61-13.53-.91-.69-1.73-1.31-2.39-1.85-4.96-4.05-7.58-12.96-8.36-16.02L49.82 47.29 38.4 51.62Z" class="cls-5"/><path d="M14.66 28.24c6.41-15.82 21.3-20.12 21.3-20.12s2.05 10.47 12.44 16.23c10.39 5.75 26.25 1.77 26.25 1.77s8.42 21.18 10.41 30.8L74.83 69.11s-5.02-7.7-14.05-13.85-17.83-3.67-17.83-3.67" style="stroke-width:0;fill:#dbbf9d"/><path d="M74.83 71.1h-.12c-.63-.04-1.21-.37-1.56-.9-.05-.07-4.94-7.46-13.5-13.29-8.09-5.52-15.84-3.48-16.17-3.39-1.06.29-2.16-.33-2.46-1.39-.29-1.06.32-2.16 1.38-2.46.4-.11 9.81-2.66 19.5 3.94 6.41 4.37 10.84 9.45 13.03 12.26l7.95-9.48c-1.88-8.1-7.59-23.08-9.49-27.95-4.54.89-16.98 2.64-25.98-2.34-8.18-4.53-11.56-11.71-12.8-15.35-4.03 1.72-13.49 6.81-18.12 18.24a1.996 1.996 0 0 1-2.6 1.1 1.996 1.996 0 0 1-1.1-2.6C19.5 10.96 34.75 6.38 35.4 6.19c.54-.15 1.12-.08 1.6.21s.81.77.92 1.32c.02.09 2.04 9.66 11.45 14.86 9.59 5.31 24.64 1.62 24.79 1.58.98-.24 1.98.27 2.35 1.2.35.87 8.5 21.46 10.51 31.13.12.6-.03 1.22-.43 1.69L76.36 70.37c-.38.45-.94.71-1.53.71Z" class="cls-5"/><path d="m13.11 29.33-6.83 8.14c-.42.5-.35 1.24.15 1.66l22.5 18.88c.5.42 1.24.35 1.66-.15l2.29-2.73c.42-.5 1.16-.56 1.66-.15 3.48 2.9 16.08 13.67 21.54 22.27 6.01 9.46 31.42 26.22 42.64 26.63 1.08.04 2.11-.42 2.8-1.25l2.17-2.58c.6-.71.16-1.8-.76-1.9-5.47-.6-20.32-3.85-37.96-21.14-1.9-1.86-3.61-3.91-5.12-6.11-3.11-4.55-10.36-14.2-21-22.87-11.69-9.52-20.29-16.91-23.21-19.44a1.42 1.42 0 0 0-2.02.16l-.49.58Z" style="stroke-width:0;fill:#f2dec8"/><path d="M98.83 105.89h-.2c-11.82-.43-38-17.71-44.26-27.56-5-7.87-16.26-17.71-20.5-21.27l-1.76 2.1c-.54.65-1.31 1.05-2.16 1.12-.85.08-1.67-.19-2.32-.73L5.14 40.66a3.184 3.184 0 0 1-.39-4.48l7.32-8.73c.59-.71 1.43-1.14 2.35-1.21s1.81.22 2.51.82c3.11 2.69 11.59 9.98 23.16 19.4 10.71 8.72 18 18.34 21.39 23.3 1.44 2.1 3.08 4.05 4.87 5.81 17.16 16.81 31.44 19.99 36.78 20.58 1.16.13 2.15.88 2.59 1.96s.24 2.32-.51 3.21l-2.17 2.58a5.44 5.44 0 0 1-4.2 1.96ZM33.77 52.72c.72 0 1.44.24 2.03.73 3.74 3.11 16.36 13.94 21.95 22.73 5.7 8.97 30.36 25.32 41.03 25.71.44 0 .9-.18 1.2-.53l1.19-1.42c-6.65-1.05-20.98-5.2-37.61-21.49a43 43 0 0 1-5.37-6.41c-3.27-4.78-10.3-14.05-20.62-22.45-11.11-9.04-19.38-16.13-22.81-19.1l-.11.13-6.3 7.51 21.24 17.82 1.76-2.1c.63-.75 1.53-1.13 2.44-1.13Zm35.36-14.93c-.9 0-1.71-.61-1.94-1.52-.27-1.07.38-2.16 1.46-2.42l7.98-1.99c1.07-.26 2.16.39 2.42 1.46.27 1.07-.38 2.16-1.46 2.42l-7.98 1.99c-.16.04-.33.06-.49.06Zm3.28 8.43c-.9 0-1.71-.61-1.94-1.52-.27-1.07.38-2.16 1.46-2.42l7.98-1.99c1.07-.27 2.16.39 2.42 1.46.27 1.07-.38 2.16-1.46 2.42l-7.98 1.99c-.16.04-.33.06-.49.06Zm2.94 8.72c-.9 0-1.71-.61-1.94-1.52-.27-1.07.38-2.16 1.46-2.42l7.98-1.99c1.07-.27 2.16.39 2.42 1.46.27 1.07-.38 2.16-1.46 2.42l-7.98 1.99c-.16.04-.33.06-.49.06Z" class="cls-5"/></g></svg>