<?xml version="1.0" encoding="UTF-8"?>
<svg id="flatten_icons" data-name="flatten icons" xmlns="http://www.w3.org/2000/svg" viewBox="0 0 112 112">
  <defs>
    <style>
      .cls-1 {
        fill: none;
      }

      .cls-1, .cls-2, .cls-3, .cls-4, .cls-5, .cls-6 {
        stroke-width: 0px;
      }

      .cls-2 {
        fill: #86c1e7;
      }

      .cls-3 {
        fill: #f1f0e8;
      }

      .cls-4 {
        fill: #eb706b;
      }

      .cls-5 {
        fill: #004241;
      }

      .cls-6 {
        fill: #014241;
      }
    </style>
  </defs>
  <g id="basket">
    <g>
      <g>
        <g>
          <path class="cls-2" d="m40.03,6.52c-5,1.54-20.74,7.75-26.41,26.18,0,0,18.4,13.95,29.55,28.37,11.15,14.42,47.52,44.08,59.59,41.68,0,0,8.56-6.03-2.17-19.17s-16.12-46.87-24.36-55.87c0,0-4.19-5.31-10.97.64-6.77,5.94-17.33-1.1-20.54-5.01-7.2-8.79-.39-11.9-1.49-15.25-.43-1.31-1.89-1.97-3.2-1.56Z"/>
          <path class="cls-5" d="m101.32,104.87c-15.08,0-49.83-29.78-59.73-42.58-10.86-14.05-28.99-27.86-29.17-28-.67-.51-.95-1.38-.7-2.18C17.7,12.68,34.45,6.15,39.45,4.61h0c2.38-.73,4.93.54,5.69,2.85.61,1.83-.12,3.44-.76,4.86-1.06,2.35-2.16,4.79,1.9,9.75,1.97,2.4,7.12,6.14,11.93,6.53,2.29.19,4.17-.39,5.74-1.76,2.76-2.43,5.56-3.52,8.28-3.28,3.22.29,5.12,2.37,5.51,2.84,4.19,4.62,7.55,14.74,11.09,25.45,3.71,11.19,7.91,23.86,13.3,30.47,4.43,5.43,6.37,10.47,5.75,15-.64,4.67-3.83,6.97-3.97,7.07-.23.16-.49.27-.76.33-.57.11-1.19.17-1.83.17ZM15.97,31.98c4.22,3.3,19.07,15.3,28.79,27.87,11.73,15.17,46.23,42.19,57.15,41.01.56-.53,1.75-1.9,2.03-4.17.42-3.32-1.28-7.41-4.89-11.84-5.86-7.17-10-19.66-14-31.74-3.42-10.32-6.65-20.08-10.29-24.05-.03-.04-.06-.07-.09-.11-.03-.03-1.08-1.27-2.85-1.41-1.59-.12-3.34.65-5.23,2.31-2.39,2.1-5.32,3.02-8.7,2.74-6.38-.53-12.4-5.18-14.7-7.99-5.64-6.88-3.72-11.13-2.45-13.93.37-.82.72-1.6.61-1.95-.08-.24-.42-.37-.72-.28-4.4,1.36-18.92,7-24.66,23.55Z"/>
        </g>
        <g>
          <path class="cls-4" d="m62.48,30.03c-6.59,2.48-14.95-3.29-17.74-6.69-7.2-8.79-.39-11.9-1.49-15.25-.43-1.3-1.89-1.97-3.2-1.57-2.98.92-9.78,3.5-16,9.35l.22.18s13.03,13.62,4.28,29.35h0c4.98,4.64,10.34,10.12,14.63,15.67,4.12,5.33,11.68,12.74,20.19,19.84l6.63-1.81s5.85-12.51-3.65-24.61c-8.82-11.24-6.6-16.99-3.87-24.47Z"/>
          <path class="cls-6" d="m63.37,82.91c-.46,0-.92-.16-1.28-.46-8.68-7.24-16.34-14.78-20.49-20.15-3.65-4.73-8.5-9.92-14.41-15.43-.67-.63-.83-1.63-.38-2.43,7.67-13.8-2.84-25.76-3.91-26.92l-.13-.11c-.44-.37-.7-.9-.71-1.48-.02-.57.21-1.12.63-1.51,6.37-5.99,13.25-8.71,16.78-9.8,2.37-.73,4.92.55,5.69,2.85.61,1.83-.12,3.44-.76,4.86-1.06,2.35-2.16,4.79,1.9,9.75,2.68,3.27,10.15,8.1,15.49,6.09.73-.28,1.56-.1,2.11.45.56.55.74,1.37.47,2.11l-.08.22c-2.65,7.27-4.4,12.07,3.65,22.32,10.13,12.92,4.14,26.13,3.88,26.69-.25.53-.72.93-1.29,1.08l-6.63,1.81c-.17.05-.35.07-.53.07ZM31.02,44.98c5.57,5.27,10.19,10.27,13.74,14.87,3.86,5,10.96,12,19.09,18.86l4.66-1.27c1.03-2.82,3.62-12.33-3.74-21.7-8.14-10.38-7.46-16.68-5.34-23.11-6.59.21-13.53-4.7-16.25-8.02-5.64-6.88-3.72-11.13-2.45-13.93.37-.82.72-1.6.61-1.95-.08-.24-.42-.38-.71-.28-2.37.73-8.19,2.87-13.78,7.6,3.03,3.9,10.61,15.65,4.16,28.94Z"/>
        </g>
        <g>
          <path class="cls-3" d="m100.59,83.57c-.47-.58-.93-1.2-1.39-1.85,0,0-8,2.96-16.56-4.22-8.56-7.18-36.87-13.3-36.87-13.3h0c13.37,15.17,45.73,40.78,56.99,38.54,0,0,8.56-6.03-2.17-19.17Z"/>
          <path class="cls-5" d="m101.36,104.87c-13.74,0-44.56-25.14-57.08-39.35-.57-.65-.66-1.59-.22-2.33.44-.75,1.3-1.13,2.15-.94,1.18.25,28.89,6.3,37.73,13.72,7.58,6.36,14.51,3.9,14.58,3.88.86-.32,1.82-.01,2.34.74.44.63.87,1.21,1.29,1.73h0c4.43,5.43,6.37,10.48,5.75,15-.64,4.67-3.83,6.97-3.97,7.07-.23.16-.49.27-.76.33-.56.11-1.16.17-1.8.17Zm-49.54-37.17c14.98,15.07,40.81,34.17,50.09,33.15.56-.53,1.75-1.9,2.03-4.17.42-3.32-1.28-7.41-4.89-11.84-.22-.27-.44-.55-.66-.84-2.97.6-9.84,1.06-17.02-4.97-5.64-4.73-20.8-9.1-29.54-11.33Z"/>
        </g>
        <g>
          <path class="cls-3" d="m43.17,61.07c-2.67-3.45-5.67-10.63-8.82-13.85-10-10.21-19.97-16.75-19.97-16.75-4.89,0-6.27,4.49-7.68,6.67-1.25,1.94-.8,4.53,1.01,5.97,7.62,6.07,28.24,21.09,35.25,29.7,3.74,4.59,10.95,11.86,18.96,17.67,8.02,5.8,16.84,10.14,23.8,12.85,13.93,5.43,17.04-.59,17.04-.59-12.07,2.4-48.44-27.25-59.59-41.68Z"/>
          <path class="cls-5" d="m95.81,107.6c-3.08,0-6.69-.8-10.81-2.41-4.98-1.94-14.76-6.23-24.25-13.09-8.39-6.08-15.66-13.51-19.34-18.02-5.44-6.68-19.54-17.52-28.87-24.69-2.41-1.85-4.51-3.47-6.07-4.71-2.64-2.1-3.26-5.8-1.44-8.62.22-.35.44-.76.69-1.2,1.29-2.39,3.45-6.38,8.67-6.38.39,0,.77.11,1.1.33.41.27,10.26,6.77,20.3,17.02,1.99,2.04,3.81,5.29,5.56,8.43,1.22,2.18,2.36,4.24,3.41,5.59h0c11.48,14.85,44.77,41.04,56.42,41.05.43,0,.83-.04,1.2-.11.75-.15,1.53.15,1.99.76.46.61.53,1.44.18,2.12-.12.23-1.25,2.26-4.45,3.31-1.28.42-2.71.63-4.28.63ZM13.82,32.5c-2.24.23-3.29,1.86-4.59,4.26-.29.54-.57,1.04-.84,1.47-.7,1.08-.45,2.5.57,3.32,1.54,1.23,3.62,2.83,6.01,4.67,9.48,7.29,23.81,18.3,29.54,25.34,3.52,4.33,10.51,11.46,18.58,17.31,9.13,6.61,18.55,10.73,23.35,12.61,3.56,1.39,6.3,1.97,8.39,2.11-16.89-5.87-44.58-30.07-53.25-41.28h0c-1.23-1.59-2.45-3.77-3.74-6.09-1.62-2.91-3.31-5.93-4.93-7.58-8.45-8.62-16.94-14.64-19.11-16.12Z"/>
        </g>
        <path class="cls-5" d="m71.36,40.79c-.9,0-1.71-.61-1.94-1.52-.27-1.07.39-2.16,1.46-2.42l7.98-1.99c1.07-.26,2.16.39,2.42,1.46s-.39,2.16-1.46,2.42l-7.98,1.99c-.16.04-.32.06-.48.06Z"/>
        <path class="cls-5" d="m74.64,49.22c-.9,0-1.71-.61-1.94-1.52-.27-1.07.39-2.16,1.46-2.42l7.98-1.99c1.07-.27,2.16.39,2.42,1.46s-.39,2.16-1.46,2.42l-7.98,1.99c-.16.04-.32.06-.48.06Z"/>
        <path class="cls-5" d="m77.58,57.94c-.9,0-1.71-.61-1.94-1.52-.27-1.07.39-2.16,1.46-2.42l7.98-1.99c1.07-.26,2.16.39,2.42,1.46.27,1.07-.39,2.16-1.46,2.42l-7.98,1.99c-.16.04-.32.06-.48.06Z"/>
      </g>
      <g>
        <circle class="cls-3" cx="44.57" cy="40.01" r="6.15"/>
        <path class="cls-5" d="m44.57,48.16c-4.49,0-8.15-3.65-8.15-8.15s3.65-8.15,8.15-8.15,8.15,3.65,8.15,8.15-3.65,8.15-8.15,8.15Zm0-12.29c-2.29,0-4.15,1.86-4.15,4.15s1.86,4.15,4.15,4.15,4.15-1.86,4.15-4.15-1.86-4.15-4.15-4.15Z"/>
      </g>
    </g>
    <rect class="cls-1" width="112" height="112"/>
  </g>
</svg>