<?xml version="1.0" encoding="UTF-8"?>
<svg id="flatten_icons" data-name="flatten icons" xmlns="http://www.w3.org/2000/svg" viewBox="0 0 112 112">
  <defs>
    <style>
      .cls-1, .cls-2 {
        fill: none;
      }

      .cls-1, .cls-3, .cls-4 {
        stroke-width: 0px;
      }

      .cls-2 {
        stroke: #004241;
        stroke-linecap: round;
        stroke-linejoin: round;
        stroke-width: 4px;
      }

      .cls-3 {
        fill: #e26f6b;
      }

      .cls-4 {
        fill: #d2d9db;
      }
    </style>
  </defs>
  <rect class="cls-1" width="112" height="112"/>
  <g>
    <path class="cls-4" d="m22.72,14.07l2.56,11.13v74.24s13.3,3.7,33.69,3.02c20.39-.68,31.76-6.5,31.76-6.5l-4-7.01,1.84-16.77V20.05l-.87-5.97s-16.64-4.8-33.61-5.78-31.36,5.78-31.36,5.78Z"/>
    <path class="cls-3" d="m33.69,25.21v11.98c0,2.35,1.5,4.46,3.75,5.15,3.68,1.14,10.28,1.65,20.79,1.73,21.98.18,26.01-4.03,26.01-4.03v-18.04l-22.34,3.02-28.21.19Z"/>
    <path class="cls-3" d="m33.69,51.15v11.98c0,2.35,1.5,4.46,3.75,5.15,3.68,1.14,10.28,1.65,20.79,1.73,21.98.18,26.01-4.03,26.01-4.03v-18.04l-22.34,3.02-28.21.19Z"/>
    <path class="cls-3" d="m33.69,77.1v11.98c0,2.35,1.5,4.46,3.75,5.15,3.68,1.14,10.28,1.65,20.79,1.73,21.98.18,26.01-4.03,26.01-4.03v-18.04l-22.34,3.02-28.21.19Z"/>
    <ellipse class="cls-2" cx="56" cy="16.59" rx="34.8" ry="8.61"/>
    <path class="cls-2" d="m25.28,22v17.47c-2.6,1.21-4.08,2.58-4.08,4.05,0,4.76,15.58,8.61,34.8,8.61s34.8-3.86,34.8-8.61c0-1.46-1.48-2.84-4.08-4.05v-17.47"/>
    <path class="cls-2" d="m25.28,47.63v17.47c-2.6,1.21-4.08,2.58-4.08,4.05,0,4.76,15.58,8.61,34.8,8.61s34.8-3.86,34.8-8.61c0-1.46-1.48-2.84-4.08-4.05v-17.47"/>
    <path class="cls-2" d="m25.28,73.89v17.47c-2.6,1.21-4.08,2.58-4.08,4.05,0,4.76,15.58,8.61,34.8,8.61s34.8-3.86,34.8-8.61c0-1.46-1.48-2.84-4.08-4.05v-17.47"/>
    <line class="cls-2" x1="40.01" y1="16.82" x2="41.18" y2="16.82"/>
  </g>
</svg>