<?xml version="1.0" encoding="UTF-8"?>
<svg id="flatten_icons" xmlns="http://www.w3.org/2000/svg" viewBox="0 0 112 112">
  <defs>
    <style>
      .cls-1 {
        fill: none;
      }

      .cls-2 {
        fill: #bc8553;
      }

      .cls-3 {
        fill: #edb964;
      }

      .cls-4 {
        fill: #004241;
      }

      .cls-5 {
        fill: #eee;
      }
    </style>
  </defs>
  <g id="chausson">
    <rect class="cls-1" width="112" height="112"/>
    <g>
      <path class="cls-3" d="M9.53,75.2s-2.88-2.86-2.49-8.63,4.67-19.33,24.52-33.27,45.06-15.59,54.83-13.6c9.77,1.98,15.68,11.28,17.39,26,.19,1.65,1.28,3.29,1.22,4.94s-1.24,3.29-1.52,4.93c-.35,2.02,1.15,4.02.46,5.99s-2.64,3.07-3.71,5.05c-.9,1.67-.91,5.34-2.05,6.95-1.23,1.74-4.63,1.41-6.13,3.05s-1.23,5.39-3.06,6.97c-1.4,1.21-4.91.36-6.46,1.49-1.35.98-1.84,3.92-3.47,4.76s-5.43-.43-7.31.23-2.99,3.28-5.15,3.75-4.32-1.24-6.6-1.03-4.78,2.31-7.26,2.23c-2-.06-4.03-1.24-6.1-1.51s-4.19.35-6.31-.15-4.22-3.14-6.34-3.88c-1.79-.63-3.59.67-5.38-.15-2.06-.94-4.12-3.02-6.16-4.23-4.43-2.62-8.78-5.89-12.93-9.88Z"/>
      <path class="cls-4" d="M52.87,97c-.07,0-.13,0-.2,0-1.38-.04-2.65-.46-3.88-.87-.86-.29-1.67-.55-2.42-.65-.73-.1-1.54-.05-2.4,0-1.24.07-2.64.16-4.11-.19-1.53-.36-2.84-1.38-4.11-2.36-.85-.66-1.74-1.34-2.43-1.59-.37-.13-.93-.04-1.58.06-1.1.18-2.47.4-3.96-.28-1.39-.63-2.67-1.63-3.92-2.59-.85-.66-1.66-1.29-2.43-1.74-4.72-2.79-9.19-6.21-13.3-10.16,0,0-.02-.01-.02-.02-.14-.14-3.52-3.58-3.08-10.18.28-4.17,2.94-19.02,25.36-34.77,21.17-14.87,47.13-15.81,56.38-13.93,7.36,1.49,16.62,7.52,18.98,27.73.06.5.27,1.1.5,1.74.37,1.03.78,2.2.74,3.5-.04,1.29-.52,2.45-.95,3.47-.27.64-.52,1.24-.6,1.74-.09.51.08,1.2.27,1.94.3,1.22.68,2.74.11,4.37-.54,1.53-1.51,2.57-2.37,3.49-.57.61-1.1,1.18-1.46,1.84-.27.49-.48,1.6-.67,2.57-.32,1.65-.64,3.35-1.52,4.58-1.04,1.47-2.7,1.95-4.17,2.36-.83.24-1.77.51-2.12.88-.4.44-.66,1.46-.91,2.44-.41,1.61-.88,3.44-2.32,4.69-1.23,1.06-2.93,1.17-4.44,1.27-.7.04-1.86.12-2.15.33-.23.17-.65.99-.9,1.47-.61,1.2-1.38,2.7-2.84,3.45-1.37.7-3.13.54-4.84.38-.94-.09-2.23-.21-2.72-.04-.46.16-.99.71-1.55,1.29-.93.96-2.09,2.15-3.85,2.53-1.62.34-3.1-.11-4.4-.52-.9-.28-1.74-.54-2.43-.48-.74.07-1.65.48-2.62.92-1.39.62-2.95,1.33-4.68,1.33ZM45.42,91.42c.48,0,.97.02,1.48.09,1.12.15,2.15.49,3.15.82,1,.33,1.94.64,2.74.67.88.05,1.97-.46,3.11-.97,1.23-.55,2.5-1.12,3.9-1.25,1.48-.13,2.81.28,3.98.64.92.28,1.79.56,2.39.43.56-.12,1.17-.74,1.81-1.4.82-.84,1.75-1.8,3.1-2.28,1.31-.46,2.89-.31,4.42-.17.84.08,2.25.21,2.65.04.3-.16.8-1.12,1.09-1.7.52-1.01,1.1-2.16,2.11-2.89,1.23-.89,2.83-1,4.25-1.08.67-.04,1.8-.11,2.09-.31.48-.42.77-1.55,1.05-2.65.35-1.39.76-2.98,1.83-4.15,1.11-1.21,2.63-1.65,3.97-2.03.75-.21,1.77-.51,2-.83.37-.52.64-1.91.85-3.02.27-1.38.52-2.68,1.07-3.72.6-1.11,1.38-1.94,2.06-2.67.7-.75,1.26-1.35,1.52-2.09.18-.5,0-1.24-.22-2.08-.26-1.06-.56-2.25-.33-3.59.16-.94.53-1.82.85-2.59.32-.77.62-1.5.64-2.05.02-.54-.24-1.27-.51-2.03-.28-.78-.59-1.66-.7-2.61-1.15-9.84-4.82-22.04-15.8-24.27-8.35-1.7-33.37-.71-53.28,13.28-21.51,15.11-23.49,29.12-23.67,31.77-.31,4.57,1.72,6.87,1.91,7.08,3.88,3.73,8.1,6.95,12.54,9.57.98.58,1.93,1.31,2.84,2.02,1.06.82,2.16,1.67,3.13,2.11.36.17.87.1,1.66-.03.99-.16,2.21-.36,3.55.11,1.3.46,2.45,1.34,3.55,2.2.93.72,1.89,1.46,2.58,1.63.89.21,1.89.15,2.95.09.55-.03,1.1-.07,1.68-.07Z"/>
    </g>
    <g>
      <path class="cls-3" d="M14.95,72.53c-1.31-4.17-2.44-9.64,4.14-8.99,1.37.14,2.95.58,4.77,1.2s4.68-.98,7.03-.18c1.64.56,5.52,4.3,7.45,4.83,2.9.8,5.96-.89,9.59-.43s4.94,2.24,9.4,2.01c2.55-.13,5.19-2.94,7.64-3.49,3.04-.68,5.85.81,8.63-.37,2.46-1.04,2.91-4.16,5.08-5.48,2.3-1.4,6.29-1,8.18-2.58,1.57-1.32,1.68-3.07,2.08-4.69.28-1.15,1.06-2.11,2.11-2.66,3.94-2.05,3.38-4.55,3.5-6.78"/>
      <path class="cls-4" d="M14.95,74.53c-.85,0-1.64-.55-1.91-1.4-1.06-3.38-1.88-7.17.14-9.65,1.26-1.55,3.31-2.19,6.11-1.92,1.72.17,3.6.75,5.21,1.29.36.12,1.31-.05,2.08-.19,1.43-.26,3.21-.59,4.96,0,1.06.36,2.35,1.34,3.85,2.48,1.12.85,2.82,2.14,3.49,2.32,1.09.3,2.38.08,3.88-.17,1.6-.27,3.4-.57,5.42-.32,1.72.21,2.99.69,4.11,1.1,1.46.54,2.72,1.01,4.94.9.89-.05,2.11-.8,3.3-1.53,1.27-.78,2.58-1.59,4.01-1.91,1.69-.38,3.25-.22,4.63-.08,1.4.14,2.6.26,3.65-.18.75-.32,1.28-1.15,1.9-2.12.71-1.12,1.52-2.38,2.93-3.23,1.4-.85,3.06-1.15,4.66-1.43,1.32-.24,2.68-.48,3.27-.97.74-.62.93-1.4,1.22-2.73.06-.3.13-.61.2-.9.42-1.7,1.56-3.14,3.13-3.96,2.36-1.23,2.37-2.32,2.4-4.14,0-.33.01-.66.03-.98.06-1.1,1-1.93,2.11-1.89,1.1.06,1.95,1.01,1.89,2.11-.02.27-.02.54-.02.81-.03,2.11-.08,5.29-4.55,7.62-.55.29-.95.79-1.09,1.37-.06.26-.12.52-.17.78-.33,1.53-.73,3.43-2.56,4.96-1.41,1.18-3.3,1.52-5.13,1.85-1.24.22-2.53.45-3.29.92-.61.37-1.08,1.11-1.63,1.97-.81,1.27-1.82,2.84-3.71,3.64-2,.85-3.92.65-5.62.48-1.18-.12-2.3-.24-3.36,0-.77.17-1.79.8-2.78,1.41-1.54.95-3.28,2.02-5.19,2.12-3.05.16-4.9-.53-6.54-1.14-1.01-.37-1.96-.73-3.21-.88-1.44-.18-2.81.05-4.27.3-1.8.3-3.66.62-5.61.08-1.41-.39-3.08-1.65-4.85-2.99-.9-.69-2.27-1.72-2.72-1.88-.76-.26-1.87-.06-2.95.14-1.34.25-2.73.5-4.07.04-1.98-.67-3.28-1-4.33-1.1-1.31-.13-2.26.04-2.61.46-.42.52-.67,1.98.57,5.93.33,1.05-.26,2.18-1.31,2.51-.2.06-.4.09-.6.09Z"/>
    </g>
    <g>
      <path class="cls-2" d="M72.56,85.01c.68,0,1.18-.69,1.04-1.41-1.18-5.92-3.65-10.11-6.16-9.91-2.91.23-4.83,6.27-4.48,13.74.04.76.7,1.29,1.38,1.11,2.79-.74,4.85-3.53,8.23-3.54Z"/>
      <path class="cls-2" d="M84.81,76.14c.77-3.37,1.95-3.02,3.91-3.76.7-.27,1.01-1.33.66-2.22-1.15-2.93-2.01-5.8-4.93-4.57-2.18.92-2.37,3.66-2.09,10.05.03.61.19,2.27.35,3.65.08.72.82.95,1.07.33.4-1.01.74-2.19,1.03-3.47Z"/>
      <path class="cls-2" d="M32.22,83.77c1.22-.22,2.24-.07,3.13.27.76.3,1.58-.27,1.49-1.08-.61-5.98-2.45-10.33-4.62-10.33s-3.89,4.06-4.56,9.72c-.06.54.3,1.04.83,1.17,1.26.31,2.58.46,3.73.25Z"/>
      <path class="cls-2" d="M49.41,88.96c.55.28,1.16.46,1.8.57.83.14,1.56-.54,1.51-1.38-.4-7.42-2.53-13.09-5.1-13.09-2.36,0-4.35,4.78-4.97,11.31-.07.73.47,1.38,1.2,1.44,1.83.13,3.81.26,5.55,1.15Z"/>
    </g>
    <path class="cls-5" d="M32.39,41.49c6.37-6.23,20.81-12.4,29.18-12.01,0,0,10.5.74,14.46,6.21,0,0,1.19,1.46-1.09,1.4-1.87-.05-6.21-3.04-11.66-3.69-1.18-.14-1.61,1.52-.5,1.95,1.46.57,3.51,1.32,6.96,3.14,6.81,3.6,1.66,4.18-5.14,2.19-4.77-1.39-9.07-2.02-12.36-1.94-1.59.04-1.96,2.27-.46,2.82,1.7.63,3.58,1.44,5.1,2.98,3.72,3.75.31,3.28-4.93.86s-9.68-1.63-14.21-.84-9.86,1.34-5.35-3.08Z"/>
    <path class="cls-2" d="M64.53,54.74c4.3,1.65,3.38,5.28,1.48,5.28s-8.15-4.88-13.69-5.28.62,1.86,2.72,3.37c1.22.88,1.8,2.9,1.83,4.59.01,1.02,1.08,1.71,2.07,1.32,2.25-.88,5.48-1.88,8.35-1.76,5.06.2,3.79-3.22,6.96-4.15s9.08-2.35,9.29-4.38-4.53-4.47-8.39-5.48-7.87-2.23-11.04-2.23,2.93,1.63,6.74,3.25,6.33,6.49,2.43,6.39-9.19-3.14-11.09-3.55-1.89,1.02,2.33,2.64Z"/>
    <ellipse class="cls-2" cx="92.08" cy="37.67" rx="2.04" ry="2.03"/>
  </g>
</svg>