<?xml version="1.0" encoding="UTF-8"?>
<svg id="flatten_icons" data-name="flatten icons" xmlns="http://www.w3.org/2000/svg" viewBox="0 0 112 112">
  <defs>
    <style>
      .cls-1 {
        fill: none;
      }

      .cls-1, .cls-2, .cls-3 {
        stroke-width: 0px;
      }

      .cls-2 {
        fill: #d2d9db;
      }

      .cls-3 {
        fill: #004241;
      }
    </style>
  </defs>
  <rect class="cls-1" width="112" height="112"/>
  <g>
    <path class="cls-3" d="m15.3,42.79h-5.48c-3.89,0-7.06-3.17-7.06-7.06s3.17-7.06,7.06-7.06h5.48c2.53,0,4.1,2.71,4.1,7.06s-1.57,7.06-4.1,7.06Zm-5.48-10.12c-1.69,0-3.06,1.37-3.06,3.06s1.37,3.06,3.06,3.06h5.08c.68-1.18.68-4.94,0-6.12h-5.08Z"/>
    <path class="cls-2" d="m43.77,45.54v-16.23h-10.75v-9.79l-2.73-3.24c-2.41,1.05-4.09,3.45-4.09,6.25v66.95c0,2.21,1.05,4.16,2.68,5.41l4.14-1.82v-10.77h10.75v-11.69h-10.75v-25.06h10.75Z"/>
    <path class="cls-2" d="m98.6,94.85l3.93-2.16V19.82l-3.01-3.59c-2.25,1.11-3.81,3.43-3.81,6.11v66.95c0,2.3,1.14,4.33,2.88,5.56Z"/>
    <path class="cls-2" d="m67.35,45.54v-16.23h-11.57v-10.32l-3.04-2.55c-2.24,1.12-3.78,3.42-3.78,6.09v66.95c0,3.02,1.97,5.58,4.69,6.47l2.13-1.38v-12.28h11.57v-11.69h-11.57v-25.06h11.57Z"/>
    <path class="cls-2" d="m89.08,45.54v-16.23h-10.1v-9.91l-3.39-2.78c-2.05,1.18-3.43,3.38-3.43,5.91v66.95c0,2.8,1.69,5.2,4.1,6.25l2.72-1.9v-11.53h10.1v-11.69h-10.1v-25.06h10.1Z"/>
    <path class="cls-3" d="m72.93,98.29c-.08,0-.16,0-.24,0-4.88-.13-8.84-4.34-8.84-9.41v-3.05c0-1.4-1.14-2.53-2.54-2.53s-2.54,1.14-2.54,2.53v3.38c0,2.48-.98,4.79-2.76,6.52-1.78,1.72-4.11,2.64-6.6,2.56-4.85-.15-8.8-4.35-8.8-9.37v-3.08c0-1.4-1.14-2.53-2.53-2.53s-2.54,1.14-2.54,2.53v3.38c0,2.48-.98,4.79-2.76,6.52-1.78,1.72-4.12,2.64-6.6,2.56-4.85-.15-8.8-4.35-8.8-9.37V22.79c0-2.48.98-4.79,2.76-6.52,1.78-1.73,4.14-2.63,6.6-2.56,4.85.15,8.8,4.35,8.8,9.37v2.33c0,.72.29,1.39.83,1.88.54.49,1.23.72,1.96.65,1.28-.12,2.28-1.32,2.28-2.72v-2.43c0-2.48.98-4.79,2.76-6.52,1.78-1.72,4.12-2.64,6.6-2.56,4.85.15,8.8,4.35,8.8,9.37v2.33c0,.72.29,1.39.83,1.88.54.49,1.23.72,1.96.65,1.28-.12,2.28-1.32,2.28-2.72v-2.43c0-2.47.97-4.78,2.74-6.5,1.77-1.72,4.1-2.64,6.58-2.57,4.88.13,8.84,4.34,8.84,9.41v2.3c0,.72.29,1.39.83,1.88.53.49,1.23.72,1.96.65,1.28-.12,2.28-1.32,2.28-2.72v-2.11c0-5.06,3.97-9.28,8.84-9.41h0c2.49-.06,4.81.85,6.58,2.57,1.77,1.72,2.74,4.03,2.74,6.5v66.42c0,2.47-.97,4.78-2.74,6.5-1.77,1.72-4.1,2.64-6.58,2.57-4.88-.12-8.84-4.34-8.84-9.41v-3.05c0-1.4-1.14-2.53-2.54-2.53s-2.54,1.14-2.54,2.53v3.38c0,2.47-.97,4.78-2.74,6.5-1.71,1.67-3.95,2.58-6.33,2.58Zm-11.62-19c3.6,0,6.54,2.93,6.54,6.53v3.05c0,2.91,2.22,5.34,4.95,5.41,1.39.05,2.69-.48,3.68-1.44.99-.96,1.54-2.26,1.54-3.64v-3.38c0-3.6,2.93-6.53,6.53-6.53s6.54,2.93,6.54,6.53v3.05c0,2.91,2.22,5.34,4.95,5.41,1.38.05,2.69-.48,3.68-1.44.99-.96,1.54-2.26,1.54-3.64V22.79c0-1.38-.55-2.67-1.54-3.64-.99-.96-2.31-1.49-3.68-1.44h0c-2.73.07-4.95,2.5-4.95,5.41v2.11c0,3.44-2.59,6.38-5.9,6.7-1.84.18-3.67-.43-5.03-1.67-1.36-1.24-2.14-3-2.14-4.84v-2.3c0-2.91-2.22-5.34-4.95-5.41-1.39-.05-2.69.48-3.68,1.44-.99.96-1.54,2.26-1.54,3.64v2.43c0,3.44-2.59,6.38-5.9,6.7-1.84.18-3.67-.43-5.03-1.67-1.36-1.24-2.14-3-2.14-4.84v-2.33c0-2.88-2.21-5.29-4.92-5.38-1.38-.04-2.7.47-3.7,1.43-1,.97-1.54,2.26-1.54,3.65v2.43c0,3.44-2.59,6.38-5.9,6.7-1.84.18-3.67-.43-5.03-1.67-1.36-1.24-2.14-3-2.14-4.84v-2.33c0-2.88-2.21-5.29-4.92-5.38-1.39-.04-2.7.47-3.7,1.43-1,.97-1.54,2.26-1.54,3.65v66.12c0,2.88,2.21,5.29,4.92,5.38,1.38.03,2.7-.47,3.7-1.43,1-.97,1.54-2.26,1.54-3.65v-3.38c0-3.6,2.93-6.53,6.54-6.53s6.53,2.93,6.53,6.53v3.08c0,2.88,2.21,5.29,4.92,5.38,1.38.03,2.7-.47,3.7-1.43,1-.97,1.54-2.26,1.54-3.65v-3.38c0-3.6,2.93-6.53,6.54-6.53ZM95.98,15.71h0,0Zm-11.43,57.46c-3.6,0-6.54-2.93-6.54-6.53v-15.29c0-3.44,2.59-6.38,5.9-6.7,1.84-.18,3.67.43,5.03,1.67,1.36,1.24,2.14,3,2.14,4.84v15.49c0,3.6-2.93,6.53-6.54,6.53Zm0-24.56c-.08,0-.17,0-.26.01-1.28.12-2.28,1.32-2.28,2.72v15.29c0,1.4,1.14,2.53,2.53,2.53s2.54-1.14,2.54-2.53v-15.49c0-.72-.29-1.39-.83-1.88-.47-.43-1.07-.66-1.7-.66Zm-23.23,24.56c-3.6,0-6.54-2.93-6.54-6.53v-15.29c0-3.44,2.59-6.38,5.9-6.7,1.84-.18,3.67.43,5.03,1.67,1.36,1.24,2.14,3,2.14,4.84v15.49c0,3.6-2.93,6.53-6.54,6.53Zm0-24.56c-.08,0-.17,0-.26.01-1.28.12-2.28,1.32-2.28,2.72v15.29c0,1.4,1.14,2.53,2.54,2.53s2.54-1.14,2.54-2.53v-15.49c0-.72-.29-1.39-.83-1.88-.47-.43-1.07-.66-1.7-.66Zm-23.23,24.56c-3.6,0-6.54-2.93-6.54-6.53v-15.29c0-3.44,2.59-6.38,5.9-6.7,1.83-.18,3.67.43,5.03,1.67,1.36,1.24,2.14,3,2.14,4.84v15.49c0,3.6-2.93,6.53-6.53,6.53Zm0-24.56c-.08,0-.17,0-.26.01-1.28.12-2.28,1.32-2.28,2.72v15.29c0,1.4,1.14,2.53,2.54,2.53s2.53-1.14,2.53-2.53v-15.49c0-.72-.29-1.39-.83-1.88-.47-.43-1.07-.66-1.7-.66Z"/>
    <path class="cls-3" d="m33.55,87.83c-1.1,0-2-.9-2-2V25.42c0-1.1.9-2,2-2s2,.9,2,2v60.41c0,1.1-.9,2-2,2Z"/>
    <path class="cls-3" d="m42.62,87.83c-1.1,0-2-.9-2-2V25.42c0-1.1.9-2,2-2s2,.9,2,2v60.41c0,1.1-.9,2-2,2Z"/>
    <path class="cls-3" d="m56.78,87.83c-1.1,0-2-.9-2-2V25.42c0-1.1.9-2,2-2s2,.9,2,2v60.41c0,1.1-.9,2-2,2Z"/>
    <path class="cls-3" d="m65.85,87.83c-1.1,0-2-.9-2-2V25.42c0-1.1.9-2,2-2s2,.9,2,2v60.41c0,1.1-.9,2-2,2Z"/>
    <path class="cls-3" d="m80.01,87.83c-1.1,0-2-.9-2-2V25.42c0-1.1.9-2,2-2s2,.9,2,2v60.41c0,1.1-.9,2-2,2Z"/>
    <path class="cls-3" d="m89.08,87.83c-1.1,0-2-.9-2-2V25.42c0-1.1.9-2,2-2s2,.9,2,2v60.41c0,1.1-.9,2-2,2Z"/>
  </g>
</svg>