<svg xmlns="http://www.w3.org/2000/svg" id="flatten_icons" data-name="flatten icons" viewBox="0 0 112 112"><defs><style>.cls-2,.cls-3,.cls-4,.cls-5{stroke-width:0}.cls-2{fill:#c2e4a5}.cls-3{fill:#8dbd76}.cls-4{fill:#f1f0e8}.cls-5{fill:#004241}</style></defs><g id="chaussure-coton"><path d="M40.04 10.56S51.48 18.22 53 27.12s11.76 13.44 11.76 13.44l-.86 9.96-30.78-24.73 6.91-15.23Z" class="cls-3"/><path d="M63.91 52.52c-.45 0-.89-.15-1.25-.44L31.88 27.35c-.71-.57-.95-1.55-.57-2.39l6.91-15.23a1.994 1.994 0 0 1 2.93-.84c.5.33 12.17 8.25 13.82 17.89 1.32 7.71 10.51 11.91 10.6 11.95.78.35 1.25 1.15 1.18 2l-.86 9.96a1.994 1.994 0 0 1-2 1.83ZM35.6 25.21l26.64 21.4.42-4.87c-3.01-1.64-10.27-6.35-11.63-14.28-1-5.85-7.04-11.31-10.19-13.81z" class="cls-5"/><path d="M13.06 29.56S9.5 32.48 7 35.09c-1.26 1.32-1.34 3.3-.16 4.34 4.83 4.26 17.23 15.13 20.9 17.71l3.76-.47s4.93 2.66 11.46 9.4c5.21 5.38 11.29 14.39 17.78 19.16C76.3 96.67 89.62 103.2 98.57 101c0 0 12.86-10.15-5.05-25.09 0 0-11.83-18.55-15.66-32.25 0 0-2.89-5.94-9.31-3.78s-11.46 3.05-22.53-6.5c-6.78-5.86-1.9-14.79-5.98-22.83 0 0-14.05 3.85-26.99 19Z" class="cls-2"/><path d="M94.9 103.43c-8.6 0-20.23-5.46-35.35-16.58-4.4-3.23-8.6-8.31-12.32-12.79-2.02-2.44-3.93-4.75-5.72-6.59-5-5.17-9.05-7.86-10.45-8.72l-3.08.38c-.49.06-.99-.06-1.4-.35C22.85 56.16 10.6 45.42 5.5 40.93c-.92-.81-1.46-1.96-1.51-3.24-.06-1.44.5-2.89 1.55-3.98 2.3-2.41 5.4-5.01 6.1-5.59C24.79 12.8 38.91 8.79 39.5 8.63c.92-.25 1.88.18 2.31 1.02 1.98 3.89 2.07 7.93 2.15 11.5.1 4.46.18 7.98 3.35 10.72 10.34 8.93 14.56 8.14 20.58 6.12 6.4-2.15 10.48 2.2 11.75 4.81.05.11.09.22.13.34C83.23 55.55 93.6 72.33 95.02 74.6c6.71 5.66 10.07 11.42 9.99 17.12-.09 6.74-5.02 10.7-5.23 10.87-.22.18-.48.3-.76.37-1.29.32-2.68.48-4.14.48ZM31.5 54.68c.33 0 .66.08.95.24.21.11 5.28 2.89 11.94 9.77 1.89 1.95 3.85 4.32 5.92 6.82 3.74 4.51 7.6 9.18 11.6 12.12 16.12 11.85 28.13 17.08 35.71 15.55.87-.84 3.38-3.57 3.41-7.57.04-4.49-2.92-9.25-8.8-14.15-.16-.13-.29-.29-.41-.46-.49-.76-11.92-18.78-15.84-32.58-.44-.8-2.55-4.06-6.81-2.63-6.95 2.34-12.78 3.21-24.47-6.88-4.51-3.9-4.63-8.86-4.74-13.66-.07-2.86-.13-5.59-1.04-8.19-3.98 1.5-14.54 6.31-24.36 17.8-.08.09-.16.17-.25.25-.03.03-3.5 2.88-5.88 5.37-.29.31-.46.7-.44 1.05 0 .13.04.3.16.41 3.74 3.3 15.79 13.88 20.12 17.13l2.97-.37c.08-.01.16-.02.25-.02ZM13.06 29.56" class="cls-5"/><path d="M79.7 74.68c-2.45 0-4.88-.77-7.18-2.3-1.82-1.21-3.75-2.64-5.79-4.15-6.11-4.51-14.47-10.69-17.4-8-.81.75-2.08.69-2.83-.12s-.69-2.08.12-2.83c5.37-4.92 14.07 1.52 22.48 7.74 2 1.48 3.89 2.88 5.63 4.03 2.57 1.71 5.23 2.07 7.89 1.08 1.03-.39 2.19.14 2.57 1.17s-.14 2.19-1.17 2.57c-1.44.54-2.89.8-4.33.8Z" class="cls-3"/><path d="M98.57 101.01s12.86-10.15-5.05-25.09c0 0-.05-.07-.14-.22-3.2 2.16-7.59 6.06-13.32 13.09-1.78 2.19-3.17 4.29-4.24 6.31 9.07 5.03 16.85 7.36 22.74 5.91Z" class="cls-4"/><path d="M94.85 103.44c-5.44 0-12.03-2.18-19.99-6.59a2.01 2.01 0 0 1-.8-2.69c1.18-2.22 2.68-4.45 4.46-6.63 5.05-6.2 9.68-10.73 13.75-13.48.45-.3 1-.41 1.53-.3.51.11.96.41 1.25.84 6.71 5.66 10.07 11.42 10 17.12-.09 6.74-5.02 10.7-5.23 10.87-.22.18-.48.3-.76.37-1.32.32-2.72.49-4.2.49Zm-16.27-9.13c7.97 4.17 14.37 5.81 19.05 4.86.88-.84 3.38-3.58 3.41-7.57.03-4.23-2.6-8.71-7.83-13.32-3.44 2.59-7.33 6.54-11.59 11.77a38 38 0 0 0-3.04 4.26" class="cls-5"/><path d="M35.61 12.26c-5.17 2.33-14.1 7.4-22.56 17.3 0 0-3.56 2.92-6.06 5.54-1.26 1.32-1.34 3.3-.16 4.34 2.1 1.85 5.63 4.96 9.26 8.08 2.76-.78 5.81-2.59 9.1-5.96C39.98 26.4 35.6 12.27 35.6 12.27Z" class="cls-2"/><path d="M16.1 49.52c-.47 0-.94-.17-1.31-.49-3.63-3.13-7.17-6.24-9.27-8.1-.92-.81-1.46-1.96-1.51-3.24-.06-1.44.5-2.89 1.55-3.98 2.3-2.41 5.4-5.01 6.1-5.58 8.4-9.79 17.22-15.02 23.14-17.69.52-.24 1.12-.23 1.65 0 .52.24.92.69 1.09 1.24.19.62 4.5 15.49-10.9 31.27-3.27 3.35-6.63 5.54-9.98 6.49-.18.05-.36.08-.55.08ZM34.12 15.2c-4.9 2.51-12.41 7.31-19.55 15.66-.08.09-.16.17-.25.25-.03.03-3.5 2.88-5.88 5.37-.29.31-.46.7-.44 1.05 0 .13.04.3.16.41 1.93 1.7 5.07 4.46 8.38 7.33 2.36-.9 4.79-2.61 7.22-5.11 10.4-10.67 10.83-20.57 10.36-24.96" class="cls-5"/><path d="M13.06 29.56S9.5 32.48 7 35.1c-1.26 1.32-1.34 3.3-.16 4.34 4.83 4.26 17.23 15.13 20.9 17.71 0 0 6.52 4.73 13.05 11.47C46 74 54.25 80.47 60.74 85.24c15.56 11.44 28.88 17.97 37.83 15.77 0 0 3.21-2.53 4.19-6.93l-.7-.06s-14.9 1.24-31.39-11.69C54.88 69.95 51.21 61.52 37.78 51.58c-11.34-8.39-17.63-13.13-24.72-22.02" class="cls-4"/><path d="M94.9 103.43c-8.6 0-20.23-5.46-35.35-16.58-5.04-3.71-14.38-10.83-20.2-16.84-6.33-6.54-12.72-11.2-12.78-11.24-3.7-2.6-15.96-13.34-21.05-17.83-.92-.81-1.46-1.96-1.51-3.24-.06-1.44.5-2.89 1.55-3.98 2.55-2.67 6.09-5.58 6.24-5.7.41-.34.95-.5 1.48-.44s1.02.32 1.35.74c6.78 8.51 12.69 13.03 24.34 21.66 6.83 5.06 11.18 9.71 15.78 14.64s9.35 10.02 17.16 16.15c15.61 12.24 29.86 11.29 30 11.27h.34l.7.06c.57.05 1.09.35 1.43.81s.46 1.05.34 1.61c-1.12 5.03-4.75 7.94-4.9 8.07-.22.18-.48.3-.76.37-1.29.32-2.68.48-4.14.48ZM12.79 32.4c-1.23 1.06-2.97 2.63-4.35 4.07-.29.31-.46.7-.44 1.05 0 .13.04.3.16.41 3.94 3.47 17.07 15 20.73 17.58.3.21 6.76 4.93 13.33 11.71 5.62 5.8 14.75 12.77 19.7 16.4 16.12 11.85 28.12 17.08 35.71 15.55.5-.47 1.52-1.56 2.31-3.14-4.94-.16-17.21-1.7-30.52-12.14-8.05-6.31-12.91-11.52-17.62-16.56-4.47-4.79-8.69-9.31-15.23-14.15C26.19 45.5 19.69 40.69 12.78 32.4Z" class="cls-5"/><ellipse cx="71.85" cy="45.62" class="cls-5" rx="2.12" ry="2.21" transform="rotate(-49.48 71.852 45.62)"/><ellipse cx="75.92" cy="54.67" class="cls-5" rx="2.12" ry="2.21" transform="rotate(-49.48 75.93 54.668)"/><ellipse cx="80.37" cy="63.64" class="cls-5" rx="2.12" ry="2.21" transform="rotate(-49.48 80.375 63.635)"/><path d="M64.56 58.04c-.76 0-1.49-.43-1.82-1.17s-1.46-2.62-7.24-4.12c-7.43-1.92-14.57-8.84-14.87-9.13-.79-.77-.81-2.04-.03-2.83.77-.79 2.04-.81 2.83-.04.07.06 6.7 6.47 13.08 8.12 7.7 2 9.67 5.9 9.87 6.33a1.997 1.997 0 0 1-1.82 2.83Z" class="cls-3"/><path d="M0 0h112v112H0z" style="fill:none;stroke-width:0"/></g></svg>