<svg xmlns="http://www.w3.org/2000/svg" id="flatten_icons" data-name="flatten icons" viewBox="0 0 112 112"><defs><style>.cls-3{stroke-width:0;fill:#004241}</style></defs><path d="M0 0h112v112H0z" style="fill:none;stroke-width:0"/><path d="M15.3 42.79H9.82c-3.89 0-7.06-3.17-7.06-7.06s3.17-7.06 7.06-7.06h5.48c2.53 0 4.1 2.71 4.1 7.06s-1.57 7.06-4.1 7.06M9.82 32.67a3.06 3.06 0 1 0 0 6.12h5.08c.68-1.18.68-4.94 0-6.12z" class="cls-3"/><path d="M43.77 45.54V29.31H33.02v-9.79l-2.73-3.24a6.81 6.81 0 0 0-4.09 6.25v66.95c0 2.21 1.05 4.16 2.68 5.41l4.14-1.82V82.3h10.75V70.61H33.02V45.55h10.75ZM98.6 94.85l3.93-2.16V19.82l-3.01-3.59a6.82 6.82 0 0 0-3.81 6.11v66.95c0 2.3 1.14 4.33 2.88 5.56ZM67.35 45.54V29.31H55.78V18.99l-3.04-2.55c-2.24 1.12-3.78 3.42-3.78 6.09v66.95c0 3.02 1.97 5.58 4.69 6.47l2.13-1.38V82.29h11.57V70.6H55.78V45.54zm21.73 0V29.31h-10.1V19.4l-3.39-2.78a6.81 6.81 0 0 0-3.43 5.91v66.95c0 2.8 1.69 5.2 4.1 6.25l2.72-1.9V82.3h10.1V70.61h-10.1V45.55h10.1Z" style="stroke-width:0;fill:#d2d9db"/><path d="M72.93 98.29h-.24c-4.88-.13-8.84-4.34-8.84-9.41v-3.05c0-1.4-1.14-2.53-2.54-2.53s-2.54 1.14-2.54 2.53v3.38c0 2.48-.98 4.79-2.76 6.52-1.78 1.72-4.11 2.64-6.6 2.56-4.85-.15-8.8-4.35-8.8-9.37v-3.08c0-1.4-1.14-2.53-2.53-2.53s-2.54 1.14-2.54 2.53v3.38c0 2.48-.98 4.79-2.76 6.52-1.78 1.72-4.12 2.64-6.6 2.56-4.85-.15-8.8-4.35-8.8-9.37V22.79c0-2.48.98-4.79 2.76-6.52a9.04 9.04 0 0 1 6.6-2.56c4.85.15 8.8 4.35 8.8 9.37v2.33c0 .72.29 1.39.83 1.88s1.23.72 1.96.65c1.28-.12 2.28-1.32 2.28-2.72v-2.43c0-2.48.98-4.79 2.76-6.52 1.78-1.72 4.12-2.64 6.6-2.56 4.85.15 8.8 4.35 8.8 9.37v2.33c0 .72.29 1.39.83 1.88s1.23.72 1.96.65c1.28-.12 2.28-1.32 2.28-2.72v-2.43c0-2.47.97-4.78 2.74-6.5a9 9 0 0 1 6.58-2.57c4.88.13 8.84 4.34 8.84 9.41v2.3c0 .72.29 1.39.83 1.88.53.49 1.23.72 1.96.65 1.28-.12 2.28-1.32 2.28-2.72v-2.11c0-5.06 3.97-9.28 8.84-9.41 2.49-.06 4.81.85 6.58 2.57a9 9 0 0 1 2.74 6.5v66.42c0 2.47-.97 4.78-2.74 6.5a9 9 0 0 1-6.58 2.57c-4.88-.12-8.84-4.34-8.84-9.41v-3.05c0-1.4-1.14-2.53-2.54-2.53s-2.54 1.14-2.54 2.53v3.38c0 2.47-.97 4.78-2.74 6.5a9 9 0 0 1-6.33 2.58Zm-11.62-19c3.6 0 6.54 2.93 6.54 6.53v3.05c0 2.91 2.22 5.34 4.95 5.41 1.39.05 2.69-.48 3.68-1.44s1.54-2.26 1.54-3.64v-3.38c0-3.6 2.93-6.53 6.53-6.53s6.54 2.93 6.54 6.53v3.05c0 2.91 2.22 5.34 4.95 5.41 1.38.05 2.69-.48 3.68-1.44s1.54-2.26 1.54-3.64V22.79c0-1.38-.55-2.67-1.54-3.64-.99-.96-2.31-1.49-3.68-1.44-2.73.07-4.95 2.5-4.95 5.41v2.11c0 3.44-2.59 6.38-5.9 6.7-1.84.18-3.67-.43-5.03-1.67s-2.14-3-2.14-4.84v-2.3c0-2.91-2.22-5.34-4.95-5.41-1.39-.05-2.69.48-3.68 1.44s-1.54 2.26-1.54 3.64v2.43c0 3.44-2.59 6.38-5.9 6.7-1.84.18-3.67-.43-5.03-1.67s-2.14-3-2.14-4.84v-2.33c0-2.88-2.21-5.29-4.92-5.38-1.38-.04-2.7.47-3.7 1.43-1 .97-1.54 2.26-1.54 3.65v2.43c0 3.44-2.59 6.38-5.9 6.7-1.84.18-3.67-.43-5.03-1.67s-2.14-3-2.14-4.84v-2.33c0-2.88-2.21-5.29-4.92-5.38-1.39-.04-2.7.47-3.7 1.43-1 .97-1.54 2.26-1.54 3.65v66.12c0 2.88 2.21 5.29 4.92 5.38 1.38.03 2.7-.47 3.7-1.43 1-.97 1.54-2.26 1.54-3.65v-3.38c0-3.6 2.93-6.53 6.54-6.53s6.53 2.93 6.53 6.53v3.08c0 2.88 2.21 5.29 4.92 5.38 1.38.03 2.7-.47 3.7-1.43 1-.97 1.54-2.26 1.54-3.65v-3.38c0-3.6 2.93-6.53 6.54-6.53Zm23.24-6.12c-3.6 0-6.54-2.93-6.54-6.53V51.35c0-3.44 2.59-6.38 5.9-6.7 1.84-.18 3.67.43 5.03 1.67s2.14 3 2.14 4.84v15.49c0 3.6-2.93 6.53-6.54 6.53Zm0-24.56c-.08 0-.17 0-.26.01-1.28.12-2.28 1.32-2.28 2.72v15.29c0 1.4 1.14 2.53 2.53 2.53s2.54-1.14 2.54-2.53V51.14c0-.72-.29-1.39-.83-1.88-.47-.43-1.07-.66-1.7-.66ZM61.32 73.17c-3.6 0-6.54-2.93-6.54-6.53V51.35c0-3.44 2.59-6.38 5.9-6.7 1.84-.18 3.67.43 5.03 1.67s2.14 3 2.14 4.84v15.49c0 3.6-2.93 6.53-6.54 6.53Zm0-24.56c-.08 0-.17 0-.26.01-1.28.12-2.28 1.32-2.28 2.72v15.29c0 1.4 1.14 2.53 2.54 2.53s2.54-1.14 2.54-2.53V51.14c0-.72-.29-1.39-.83-1.88-.47-.43-1.07-.66-1.7-.66ZM38.09 73.17c-3.6 0-6.54-2.93-6.54-6.53V51.35c0-3.44 2.59-6.38 5.9-6.7a6.54 6.54 0 0 1 7.17 6.51v15.49c0 3.6-2.93 6.53-6.53 6.53Zm0-24.56c-.08 0-.17 0-.26.01-1.28.12-2.28 1.32-2.28 2.72v15.29a2.535 2.535 0 0 0 5.07 0V51.14c0-.72-.29-1.39-.83-1.88-.47-.43-1.07-.66-1.7-.66Z" class="cls-3"/><path d="M33.55 87.83c-1.1 0-2-.9-2-2V25.42c0-1.1.9-2 2-2s2 .9 2 2v60.41c0 1.1-.9 2-2 2m9.07 0c-1.1 0-2-.9-2-2V25.42c0-1.1.9-2 2-2s2 .9 2 2v60.41c0 1.1-.9 2-2 2m14.16 0c-1.1 0-2-.9-2-2V25.42c0-1.1.9-2 2-2s2 .9 2 2v60.41c0 1.1-.9 2-2 2m9.07 0c-1.1 0-2-.9-2-2V25.42c0-1.1.9-2 2-2s2 .9 2 2v60.41c0 1.1-.9 2-2 2m14.16 0c-1.1 0-2-.9-2-2V25.42c0-1.1.9-2 2-2s2 .9 2 2v60.41c0 1.1-.9 2-2 2m9.07 0c-1.1 0-2-.9-2-2V25.42c0-1.1.9-2 2-2s2 .9 2 2v60.41c0 1.1-.9 2-2 2" class="cls-3"/></svg>