<?xml version="1.0" encoding="UTF-8"?>
<svg id="flatten_icons" xmlns="http://www.w3.org/2000/svg" viewBox="0 0 112 112">
  <defs>
    <style>
      .cls-1 {
        fill: none;
      }

      .cls-2 {
        fill: #f2cd8c;
      }

      .cls-3 {
        fill: #f2e2c4;
      }

      .cls-4 {
        fill: #d1a47c;
      }

      .cls-5 {
        fill: #7c503e;
      }

      .cls-6 {
        fill: #a36f55;
      }

      .cls-7 {
        fill: #e8b782;
      }

      .cls-8 {
        fill: #e28430;
      }

      .cls-9 {
        fill: #aad681;
      }

      .cls-10 {
        fill: #004241;
      }

      .cls-11 {
        fill: #ea6359;
      }

      .cls-12 {
        fill: #fce1b1;
      }
    </style>
  </defs>
  <g id="cheeseburger">
    <g>
      <g>
        <path class="cls-7" d="M10.51,68.76v9.6c0,12.15,20.15,22,45,22s45-9.85,45-22v-9.6H10.51"/>
        <path class="cls-10" d="M55.51,102.37c-26.35,0-47-10.54-47-24v-9.6c0-1.1.9-2,2-2h90c1.1,0,2,.9,2,2v9.6c0,13.46-20.65,24-47,24ZM12.51,70.76v7.6c0,10.84,19.69,20,43,20s43-9.16,43-20v-7.6H12.51Z"/>
      </g>
      <g>
        <ellipse class="cls-3" cx="55.51" cy="68.76" rx="45" ry="22"/>
        <path class="cls-10" d="M55.51,92.76c-26.35,0-47-10.54-47-24s20.65-24,47-24,47,10.54,47,24-20.65,24-47,24ZM55.51,48.76c-23.31,0-43,9.16-43,20s19.69,20,43,20,43-9.16,43-20-19.69-20-43-20Z"/>
      </g>
      <g>
        <path class="cls-8" d="M13.83,69.04l21.88,20.34c1.65,1.76,2.56,4.09,2.56,6.5v7.56c0,2.51,2.03,4.54,4.54,4.54h.05c2.51,0,4.54-2.03,4.54-4.54v-3.41c0-3.97,2.46-7.52,6.17-8.92l26.03-9.79c6.11-2.3,12.38-4.12,18.77-5.45l4.89-1.02c2.03-.42,2.88-2.85,1.56-4.45l-9.63-11.62-81.35,10.26Z"/>
        <path class="cls-10" d="M42.85,109.98c-3.65,0-6.59-2.93-6.59-6.54v-7.56c0-1.89-.7-3.7-1.98-5.09l-21.82-20.29c-.57-.53-.78-1.34-.54-2.08.24-.74.88-1.27,1.65-1.37l81.35-10.26c.68-.08,1.35.18,1.79.71l9.63,11.62c1.07,1.29,1.38,3.01.83,4.6s-1.87,2.74-3.51,3.08l-4.88,1.02c-6.26,1.31-12.48,3.11-18.47,5.37l-26.03,9.79c-2.92,1.1-4.88,3.93-4.88,7.04v3.41c0,3.61-2.93,6.54-6.54,6.54ZM18.32,70.49l18.74,17.43s.07.07.1.1c2,2.14,3.1,4.94,3.1,7.87v7.56c0,1.4,1.14,2.54,2.54,2.54s2.59-1.14,2.59-2.54v-3.41c0-4.77,3-9.11,7.47-10.79l26.03-9.79c6.18-2.33,12.6-4.19,19.06-5.54l4.88-1.02c.36-.08.5-.34.56-.49s.1-.44-.13-.73l-8.93-10.78-76.01,9.59Z"/>
      </g>
      <g>
        <path class="cls-6" d="M100.51,59.78c0,15.28-20.15,22-45,22s-45-5.17-45-22,20.15-22,45-22,45,6.72,45,22Z"/>
        <path class="cls-10" d="M55.51,83.78c-31.19,0-47-8.08-47-24s15.81-24,47-24c29.43,0,47,8.97,47,24s-17.57,24-47,24ZM55.51,39.78c-28.53,0-43,6.73-43,20s14.47,20,43,20c26.93,0,43-7.48,43-20s-16.07-20-43-20Z"/>
      </g>
      <g>
        <path class="cls-9" d="M108.86,45.18c-1.34-4.78-7.31-7.27-13.33-5.58,0,0-.01,0-.02,0-1.14.32-2.37.35-3.47-.12-4.41-1.88-10.27-1.63-15.69,1.13-3.65,1.86-6.49,4.56-8.28,7.55-.98,1.64-2.74,2.71-4.65,2.63-1.39-.06-2.86.11-4.33.52-.87.24-1.69.56-2.46.94-2.02,1.01-4.45.49-6.06-1.09-2.16-2.11-4.98-3.84-8.28-4.89-2.26-.72-4.52-1.04-6.68-1.03-1.65.01-3.25-.66-4.24-1.98-1.92-2.56-4.89-4.7-8.53-5.85-7.72-2.45-15.52.4-17.41,6.38-1.9,5.98,2.82,12.81,10.54,15.26.97.31,1.95.53,2.92.68,1.65.25,3.09,1.3,3.85,2.8,2.03,4.01,6.14,7.5,11.48,9.2,6.46,2.05,12.97.94,16.98-2.41,1.37-1.15,3.27-1.45,4.96-.86,2.3.81,5.05.92,7.82.14,1.68-.47,3.18-1.22,4.44-2.16,1.44-1.07,3.35-1.27,5.03-.65,4.33,1.6,9.9,1.24,15.06-1.4,2.73-1.39,4.99-3.25,6.72-5.35.82-1,2.03-1.6,3.31-1.77.62-.09,1.24-.21,1.87-.39,6.02-1.7,9.81-6.94,8.46-11.72Z"/>
        <path class="cls-10" d="M40.77,74.78c-2.34,0-4.77-.37-7.16-1.13-5.68-1.81-10.3-5.52-12.66-10.2-.47-.92-1.35-1.57-2.36-1.72-1.08-.16-2.17-.41-3.23-.75-8.76-2.78-14.07-10.76-11.84-17.77,1.11-3.49,3.86-6.2,7.74-7.62,3.7-1.36,8.03-1.38,12.18-.06,3.9,1.24,7.28,3.57,9.53,6.56.56.75,1.53,1.2,2.63,1.18,2.42.02,4.9.36,7.3,1.12,3.48,1.11,6.62,2.96,9.07,5.37,1.06,1.03,2.57,1.32,3.77.73.89-.44,1.83-.8,2.8-1.08,1.64-.46,3.31-.66,4.95-.59,1.11.03,2.21-.59,2.85-1.66,2.07-3.45,5.21-6.32,9.08-8.3,5.75-2.94,12.25-3.38,17.38-1.19.75.32,1.57.2,2.14.04,3.37-.95,6.82-.79,9.76.43,3.09,1.29,5.25,3.61,6.07,6.52s.19,6.01-1.77,8.73c-1.86,2.58-4.73,4.51-8.07,5.46-.69.2-1.41.35-2.13.45-.85.12-1.57.49-2.04,1.06-1.95,2.37-4.49,4.4-7.35,5.86-5.44,2.78-11.67,3.34-16.67,1.49-1.09-.4-2.29-.26-3.15.38-1.51,1.12-3.22,1.95-5.09,2.48-3.05.86-6.25.8-9.02-.18-1.05-.37-2.2-.17-3.01.5-3.08,2.57-7.25,3.91-11.71,3.91ZM17.28,38.54c-1.63,0-3.2.26-4.63.79-2.7.99-4.58,2.79-5.31,5.08-1.56,4.92,2.58,10.63,9.24,12.75.86.27,1.73.48,2.6.61,2.29.34,4.29,1.79,5.34,3.87,1.85,3.67,5.7,6.73,10.3,8.19,5.56,1.77,11.49.96,15.1-2.04,1.89-1.58,4.53-2.04,6.9-1.21,2,.7,4.35.74,6.61.1,1.4-.39,2.68-1.01,3.79-1.84,1.96-1.45,4.54-1.79,6.92-.92,3.96,1.46,9,.98,13.46-1.3,2.38-1.21,4.48-2.89,6.08-4.84,1.11-1.35,2.73-2.23,4.58-2.49.54-.08,1.08-.19,1.59-.33,2.48-.7,4.58-2.1,5.92-3.95,1.23-1.71,1.65-3.59,1.17-5.3h0c-.48-1.71-1.82-3.1-3.76-3.91-2.1-.88-4.63-.98-7.11-.28-1.71.49-3.37.41-4.81-.2-4.05-1.73-9.28-1.33-13.99,1.08-3.16,1.61-5.81,4.03-7.47,6.8-1.4,2.33-3.87,3.71-6.45,3.6-1.22-.05-2.47.1-3.7.45-.73.21-1.44.48-2.11.81-2.72,1.35-6.08.77-8.35-1.45-2.01-1.97-4.6-3.5-7.49-4.41-2-.64-4.02-.95-6.06-.93-2.36,0-4.54-1.02-5.86-2.77-1.75-2.33-4.43-4.16-7.54-5.15-1.66-.53-3.34-.79-4.96-.79Z"/>
      </g>
      <g>
        <ellipse class="cls-11" cx="33.32" cy="54.66" rx="15.61" ry="12.36"/>
        <path class="cls-10" d="M33.32,69.02c-9.71,0-17.61-6.44-17.61-14.36s7.9-14.36,17.61-14.36,17.61,6.44,17.61,14.36-7.9,14.36-17.61,14.36ZM33.32,44.3c-7.5,0-13.61,4.65-13.61,10.36s6.1,10.36,13.61,10.36,13.61-4.65,13.61-10.36-6.1-10.36-13.61-10.36Z"/>
      </g>
      <g>
        <path class="cls-2" d="M100.51,37.01c0,12.15-20.15,22-45,22S10.51,49.16,10.51,37.01,19.98,5.01,55.51,5.01c37.42,0,45,19.85,45,32Z"/>
        <path class="cls-10" d="M55.51,61.01c-26.35,0-47-10.54-47-24C8.51,24.39,18.41,3.01,55.51,3.01c43.61,0,47,26.02,47,34,0,13.46-20.65,24-47,24ZM55.51,7.01C13.71,7.01,12.51,33.94,12.51,37.01c0,10.84,19.69,20,43,20s43-9.16,43-20c0-7.04-3.1-30-43-30Z"/>
      </g>
      <ellipse class="cls-5" cx="72.31" cy="73.89" rx="2.9" ry="2.41"/>
      <ellipse class="cls-5" cx="55.29" cy="76.14" rx="1.99" ry="1.57"/>
      <ellipse class="cls-5" cx="17.78" cy="67.2" rx="1.99" ry="1.57"/>
      <path class="cls-4" d="M82.74,19.54c-.07.28-.12.56-.14.85-.55,6.79,1.65,10.65-4.78,15.48-6.43,4.84-27.85,6.77-40.37,4.29-4.66-.92-8.89-.74-12.36-.14-2.44.42-2.83,3.74-.58,4.76,7.61,3.44,18.58,5.6,30.79,5.6s23.16-2.16,30.77-5.59c1.82-.82,3.43-2.09,4.53-3.76.93-1.41,1.43-2.9,1.43-4.44,0-5.07-2.03-11.86-9.28-17.06Z"/>
      <path class="cls-12" d="M41.52,16.44c0,2.26-1.84,3.1-4.1,3.1s-4.1-.84-4.1-3.1,1.84-3.1,4.1-3.1,4.1.84,4.1,3.1Z"/>
      <path class="cls-12" d="M59.51,17.22c-1.05,2-3.07,1.89-5.07.84s-3.24-2.64-2.19-4.65,3.07-1.89,5.07-.84,3.24,2.64,2.19,4.65Z"/>
      <path class="cls-12" d="M76.04,21.58c-.73,2.14-2.74,2.34-4.88,1.61s-3.61-2.11-2.88-4.26,2.74-2.34,4.88-1.61,3.61,2.11,2.88,4.26Z"/>
      <path class="cls-12" d="M59.61,30.86c0,2.26-1.84,3.1-4.1,3.1s-4.1-.84-4.1-3.1,1.84-4.1,4.1-4.1,4.1,1.84,4.1,4.1Z"/>
      <path class="cls-12" d="M36.64,27.19c1.9,1.23,1.6,3.23.37,5.13s-2.93,2.98-4.83,1.75-2.44-3.77-1.2-5.67,3.77-2.44,5.67-1.2Z"/>
    </g>
    <rect class="cls-1" x="0" width="112" height="112"/>
  </g>
</svg>