<?xml version="1.0" encoding="UTF-8"?>
<svg id="flatten_icons" data-name="flatten icons" xmlns="http://www.w3.org/2000/svg" viewBox="0 0 112 112">
  <defs>
    <style>
      .cls-1 {
        fill: none;
      }

      .cls-1, .cls-2, .cls-3, .cls-4, .cls-5, .cls-6 {
        stroke-width: 0px;
      }

      .cls-2 {
        fill: #d8ebf0;
      }

      .cls-3 {
        fill: #b3e3f0;
      }

      .cls-4 {
        fill: #80bac7;
      }

      .cls-5 {
        fill: #e9e9da;
      }

      .cls-6 {
        fill: #004241;
      }
    </style>
  </defs>
  <g id="chemise-coton">
    <rect class="cls-1" width="112" height="112"/>
    <g>
      <g>
        <path class="cls-2" d="m39.74,10.08s5.42-4.08,16.26-4.08,16.26,4.08,16.26,4.08v15.3h-32.52v-15.3Z"/>
        <path class="cls-6" d="m72.26,27.38h-32.52c-1.1,0-2-.9-2-2v-15.3c0-.63.29-1.22.8-1.6.24-.18,6.09-4.48,17.46-4.48s17.22,4.3,17.46,4.48c.5.38.8.97.8,1.6v15.3c0,1.1-.9,2-2,2Zm-30.52-4h28.52v-12.19c-1.79-1-6.57-3.19-14.26-3.19s-12.49,2.17-14.26,3.18v12.2Z"/>
      </g>
      <g>
        <path class="cls-3" d="m94.18,26.03l-9.51-2.86c-18.7-5.63-38.65-5.63-57.35,0l-9.51,2.86c-4.54,1.37-7.65,5.54-7.65,10.28v62.46c0,3.99,3.23,7.22,7.22,7.22h77.21c3.99,0,7.22-3.23,7.22-7.22v-62.46c0-4.74-3.11-8.92-7.65-10.28Z"/>
        <path class="cls-6" d="m94.6,108H17.4c-5.08,0-9.22-4.14-9.22-9.22v-62.46c0-5.66,3.64-10.57,9.07-12.2l9.51-2.86c19.13-5.76,39.37-5.76,58.5,0l9.51,2.86c5.42,1.63,9.07,6.53,9.07,12.2v62.46c0,5.08-4.14,9.22-9.22,9.22ZM56,20.94c-9.45,0-18.91,1.38-28.1,4.15l-9.51,2.86c-3.72,1.12-6.22,4.48-6.22,8.37v62.46c0,2.88,2.34,5.22,5.22,5.22h77.21c2.88,0,5.22-2.34,5.22-5.22v-62.46c0-3.89-2.5-7.25-6.22-8.37l-9.51-2.86c-9.19-2.76-18.65-4.15-28.1-4.15Z"/>
      </g>
      <g>
        <rect class="cls-2" x="49.21" y="43.68" width="13.59" height="62.32"/>
        <path class="cls-6" d="m62.79,108h-13.59c-1.1,0-2-.9-2-2v-62.32c0-1.1.9-2,2-2h13.59c1.1,0,2,.9,2,2v62.32c0,1.1-.9,2-2,2Zm-11.59-4h9.59v-58.32h-9.59v58.32Z"/>
      </g>
      <g>
        <path class="cls-2" d="m72.74,70.96h21.63v23.77c0,1.76-1.43,3.2-3.2,3.2h-15.23c-1.76,0-3.2-1.43-3.2-3.2v-23.77h0Z"/>
        <path class="cls-6" d="m91.17,99.93h-15.23c-2.87,0-5.2-2.33-5.2-5.2v-23.77c0-1.1.9-2,2-2h21.63c1.1,0,2,.9,2,2v23.77c0,2.87-2.33,5.2-5.2,5.2Zm-16.43-26.97v21.77c0,.66.54,1.2,1.2,1.2h15.23c.66,0,1.2-.54,1.2-1.2v-21.77h-17.63Z"/>
      </g>
      <g>
        <path class="cls-4" d="m75.73,20.94c-12.38-2.5-25.11-2.64-37.53-.39,2.24,9.95,7.22,19.59,17.79,23.13,0,0,12.14-6.91,19.73-22.74Z"/>
        <path class="cls-6" d="m56,45.68c-.21,0-.43-.03-.63-.1-9.75-3.26-16.17-11.53-19.11-24.58-.12-.53-.02-1.09.28-1.54.3-.45.77-.77,1.31-.86,12.71-2.31,25.58-2.18,38.28.39.6.12,1.12.52,1.39,1.07.28.55.28,1.2.01,1.76-7.77,16.21-20.03,23.32-20.55,23.61-.3.17-.65.26-.99.26Zm-15.34-23.52c2.68,10.01,7.75,16.5,15.1,19.31,2.52-1.66,10.88-7.75,16.98-19.06-10.65-1.86-21.42-1.94-32.08-.25Z"/>
      </g>
      <g>
        <path class="cls-2" d="m56,43.68l-14.77,11.3s-12.82-9.78-10.68-32.72l9.2-12.18s-.48,20.11,16.26,33.6Z"/>
        <path class="cls-6" d="m41.23,56.99c-.43,0-.85-.14-1.21-.41-.56-.43-13.68-10.73-11.46-34.5.03-.37.17-.72.39-1.02l9.2-12.18c.52-.69,1.44-.97,2.25-.68.82.29,1.36,1.07,1.34,1.94,0,.19-.22,19.32,15.51,32,.48.39.75.97.75,1.58,0,.61-.3,1.19-.79,1.56l-14.77,11.3c-.36.27-.79.41-1.21.41Zm-8.74-33.98c-1.43,17.23,5.97,26.48,8.85,29.37l11.48-8.79c-10.5-9.47-13.7-21.3-14.67-28.09l-5.66,7.5Z"/>
      </g>
      <g>
        <path class="cls-2" d="m56,43.68l14.77,11.3s12.82-9.78,10.68-32.72l-9.2-12.18s.48,20.11-16.26,33.6Z"/>
        <path class="cls-6" d="m70.77,56.99c-.43,0-.86-.14-1.21-.41l-14.77-11.3c-.49-.37-.78-.95-.79-1.56,0-.61.27-1.2.75-1.58,15.79-12.72,15.52-31.81,15.51-32-.02-.87.52-1.65,1.34-1.94.82-.28,1.73,0,2.25.68l9.2,12.18c.22.3.36.65.39,1.02,2.22,23.77-10.9,34.07-11.46,34.5-.36.27-.79.41-1.21.41Zm-11.59-13.39l11.49,8.79c2.9-2.88,10.29-12.02,8.84-29.38l-5.66-7.5c-.97,6.8-4.16,18.62-14.67,28.09Z"/>
      </g>
      <path class="cls-6" d="m56,58.11c-1.1,0-2-.9-2-2s.9-2.01,2-2.01,2,.88,2,1.99v.02c0,1.1-.9,2-2,2Z"/>
      <path class="cls-6" d="m56,78.46c-1.1,0-2-.9-2-2s.9-2.01,2-2.01,2,.88,2,1.99v.02c0,1.1-.9,2-2,2Z"/>
      <path class="cls-6" d="m56,98.8c-1.1,0-2-.9-2-2s.9-2.01,2-2.01,2,.88,2,1.99v.02c0,1.1-.9,2-2,2Z"/>
      <rect class="cls-5" x="50.84" y="23.28" width="11.09" height="5.1" rx="1.57" ry="1.57"/>
    </g>
  </g>
</svg>