<?xml version="1.0" encoding="UTF-8"?>
<svg id="flatten_icons" data-name="flatten icons" xmlns="http://www.w3.org/2000/svg" viewBox="0 0 112 112">
  <defs>
    <style>
      .cls-1 {
        fill: none;
      }

      .cls-1, .cls-2, .cls-3, .cls-4, .cls-5, .cls-6 {
        stroke-width: 0px;
      }

      .cls-2 {
        fill: #797389;
      }

      .cls-3 {
        fill: #a6a3af;
      }

      .cls-4 {
        fill: #8e889b;
      }

      .cls-5 {
        fill: #e9e9da;
      }

      .cls-6 {
        fill: #004241;
      }
    </style>
  </defs>
  <g id="chemise-viscose">
    <g>
      <g>
        <path class="cls-4" d="m39.74,10.08s5.42-4.08,16.26-4.08,16.26,4.08,16.26,4.08v15.3h-32.52v-15.3Z"/>
        <path class="cls-6" d="m72.26,27.38h-32.52c-1.1,0-2-.9-2-2v-15.3c0-.63.29-1.22.8-1.6.24-.18,6.09-4.48,17.46-4.48s17.22,4.3,17.46,4.48c.5.38.8.97.8,1.6v15.3c0,1.1-.9,2-2,2Zm-30.52-4h28.52v-12.19c-1.79-1-6.57-3.19-14.26-3.19s-12.49,2.17-14.26,3.18v12.2Z"/>
      </g>
      <g>
        <path class="cls-4" d="m94.18,26.03l-9.51-2.86c-18.7-5.63-38.65-5.63-57.35,0l-9.51,2.86c-4.54,1.37-7.65,5.54-7.65,10.28v62.46c0,3.99,3.23,7.22,7.22,7.22h77.21c3.99,0,7.22-3.23,7.22-7.22v-62.46c0-4.74-3.11-8.92-7.65-10.28Z"/>
        <path class="cls-6" d="m94.6,108H17.4c-5.08,0-9.22-4.14-9.22-9.22v-62.46c0-5.66,3.64-10.57,9.07-12.2l9.51-2.86c19.13-5.76,39.37-5.76,58.5,0l9.51,2.86c5.42,1.63,9.07,6.53,9.07,12.2v62.46c0,5.08-4.14,9.22-9.22,9.22ZM56,20.94c-9.45,0-18.91,1.38-28.1,4.15l-9.51,2.86c-3.72,1.12-6.22,4.48-6.22,8.37v62.46c0,2.88,2.34,5.22,5.22,5.22h77.21c2.88,0,5.22-2.34,5.22-5.22v-62.46c0-3.89-2.5-7.25-6.22-8.37l-9.51-2.86c-9.19-2.76-18.65-4.15-28.1-4.15Z"/>
      </g>
      <g>
        <rect class="cls-3" x="49.21" y="43.68" width="13.59" height="62.32"/>
        <path class="cls-6" d="m62.79,108h-13.59c-1.1,0-2-.9-2-2v-62.32c0-1.1.9-2,2-2h13.59c1.1,0,2,.9,2,2v62.32c0,1.1-.9,2-2,2Zm-11.59-4h9.59v-58.32h-9.59v58.32Z"/>
      </g>
      <g>
        <path class="cls-2" d="m75.73,20.94c-12.38-2.5-25.11-2.64-37.53-.39,2.24,9.95,7.22,19.59,17.79,23.13,0,0,12.14-6.91,19.73-22.74Z"/>
        <path class="cls-6" d="m56,45.68c-.21,0-.43-.03-.63-.1-9.75-3.26-16.17-11.53-19.11-24.58-.12-.53-.02-1.09.28-1.54.3-.45.77-.77,1.31-.86,12.7-2.31,25.58-2.18,38.28.39.6.12,1.12.52,1.39,1.07.28.55.28,1.2.01,1.76-7.77,16.21-20.03,23.32-20.55,23.61-.3.17-.65.26-.99.26Zm-15.34-23.52c2.68,10.01,7.75,16.5,15.1,19.31,2.52-1.66,10.88-7.75,16.98-19.06-10.65-1.86-21.42-1.94-32.08-.25Z"/>
      </g>
      <g>
        <path class="cls-3" d="m56,43.68l-19.08,14.6s-4.66-17.66-6.37-36.02l9.2-12.18s-.48,20.11,16.26,33.6Z"/>
        <path class="cls-6" d="m36.92,60.28c-.22,0-.44-.04-.65-.11-.63-.22-1.12-.74-1.29-1.38-.05-.18-4.72-18.03-6.43-36.34-.05-.5.09-.99.39-1.39l9.2-12.18c.52-.69,1.44-.97,2.25-.68.82.29,1.36,1.07,1.34,1.94,0,.19-.22,19.32,15.51,32,.48.39.75.97.75,1.58s-.3,1.19-.79,1.56l-19.08,14.6c-.35.27-.78.41-1.21.41Zm-4.31-37.44c1.31,13.36,4.17,26.35,5.51,31.99l14.69-11.24c-10.5-9.47-13.7-21.3-14.67-28.09l-5.54,7.34Z"/>
      </g>
      <g>
        <path class="cls-3" d="m56,43.68l19.73,12.43s2.98-14.03,5.72-33.85l-9.2-12.18s.48,20.11-16.26,33.6Z"/>
        <path class="cls-6" d="m75.73,58.11c-.37,0-.74-.1-1.07-.31l-19.73-12.43c-.55-.34-.89-.93-.93-1.58-.04-.65.24-1.27.74-1.67,15.79-12.72,15.52-31.81,15.51-32-.02-.87.52-1.65,1.34-1.94.82-.28,1.73,0,2.25.68l9.2,12.18c.32.42.46.96.38,1.48-2.72,19.66-5.72,33.85-5.75,33.99-.13.64-.58,1.17-1.18,1.43-.25.11-.51.16-.78.16Zm-16.37-14.68l14.99,9.44c.98-4.96,3.05-16.06,5.01-30.07l-5.51-7.3c-.96,6.76-4.13,18.49-14.49,27.93Z"/>
      </g>
      <path class="cls-6" d="m56,58.11c-1.1,0-2-.9-2-2s.9-2.01,2-2.01,2,.88,2,1.99v.02c0,1.1-.9,2-2,2Z"/>
      <path class="cls-6" d="m56,78.46c-1.1,0-2-.9-2-2s.9-2.01,2-2.01,2,.88,2,1.99v.02c0,1.1-.9,2-2,2Z"/>
      <path class="cls-6" d="m56,98.8c-1.1,0-2-.9-2-2s.9-2.01,2-2.01,2,.88,2,1.99v.02c0,1.1-.9,2-2,2Z"/>
      <path class="cls-6" d="m74.12,108c-.7,0-1.38-.37-1.75-1.03-.54-.96-.19-2.18.77-2.72.15-.08,13.37-7.79,18.02-29.83.23-1.08,1.28-1.77,2.37-1.54,1.08.23,1.77,1.29,1.54,2.37-5.06,23.95-19.38,32.16-19.99,32.49-.31.17-.64.25-.97.25Z"/>
      <rect class="cls-5" x="50.12" y="24.32" width="11.76" height="5.4" rx="1.57" ry="1.57"/>
    </g>
    <rect class="cls-1" width="112" height="112"/>
  </g>
</svg>