<svg xmlns="http://www.w3.org/2000/svg" id="flatten_icons" data-name="flatten icons" viewBox="0 0 112 112"><defs><style>.cls-3,.cls-4,.cls-6{stroke-width:0}.cls-3{fill:#a6a3af}.cls-4{fill:#8e889b}.cls-6{fill:#004241}</style></defs><g id="chemise-viscose"><path d="M39.74 10.08S45.16 6 56 6s16.26 4.08 16.26 4.08v15.3H39.74z" class="cls-4"/><path d="M72.26 27.38H39.74c-1.1 0-2-.9-2-2v-15.3c0-.63.29-1.22.8-1.6C38.78 8.3 44.63 4 56 4s17.22 4.3 17.46 4.48c.5.38.8.97.8 1.6v15.3c0 1.1-.9 2-2 2m-30.52-4h28.52V11.19C68.47 10.19 63.69 8 56 8s-12.49 2.17-14.26 3.18z" class="cls-6"/><path d="m94.18 26.03-9.51-2.86a99.5 99.5 0 0 0-57.35 0l-9.51 2.86a10.74 10.74 0 0 0-7.65 10.28v62.46c0 3.99 3.23 7.22 7.22 7.22h77.21c3.99 0 7.22-3.23 7.22-7.22V36.31c0-4.74-3.11-8.92-7.65-10.28Z" class="cls-4"/><path d="M94.6 108H17.4c-5.08 0-9.22-4.14-9.22-9.22V36.32c0-5.66 3.64-10.57 9.07-12.2l9.51-2.86c19.13-5.76 39.37-5.76 58.5 0l9.51 2.86c5.42 1.63 9.07 6.53 9.07 12.2v62.46c0 5.08-4.14 9.22-9.22 9.22ZM56 20.94c-9.45 0-18.91 1.38-28.1 4.15l-9.51 2.86a8.685 8.685 0 0 0-6.22 8.37v62.46c0 2.88 2.34 5.22 5.22 5.22H94.6c2.88 0 5.22-2.34 5.22-5.22V36.32c0-3.89-2.5-7.25-6.22-8.37l-9.51-2.86a97.7 97.7 0 0 0-28.1-4.15Z" class="cls-6"/><path d="M49.21 43.68H62.8V106H49.21z" class="cls-3"/><path d="M62.79 108H49.2c-1.1 0-2-.9-2-2V43.68c0-1.1.9-2 2-2h13.59c1.1 0 2 .9 2 2V106c0 1.1-.9 2-2 2m-11.59-4h9.59V45.68H51.2z" class="cls-6"/><path d="M75.73 20.94a99.7 99.7 0 0 0-37.53-.39c2.24 9.95 7.22 19.59 17.79 23.13 0 0 12.14-6.91 19.73-22.74Z" style="stroke-width:0;fill:#797389"/><path d="M56 45.68c-.21 0-.43-.03-.63-.1C45.62 42.32 39.2 34.05 36.26 21a1.99 1.99 0 0 1 1.59-2.4c12.7-2.31 25.58-2.18 38.28.39.6.12 1.12.52 1.39 1.07.28.55.28 1.2.01 1.76-7.77 16.21-20.03 23.32-20.55 23.61-.3.17-.65.26-.99.26ZM40.66 22.16c2.68 10.01 7.75 16.5 15.1 19.31 2.52-1.66 10.88-7.75 16.98-19.06a97.3 97.3 0 0 0-32.08-.25" class="cls-6"/><path d="m56 43.68-19.08 14.6s-4.66-17.66-6.37-36.02l9.2-12.18s-.48 20.11 16.26 33.6Z" class="cls-3"/><path d="M36.92 60.28a2.03 2.03 0 0 1-1.94-1.49c-.05-.18-4.72-18.03-6.43-36.34-.05-.5.09-.99.39-1.39l9.2-12.18c.52-.69 1.44-.97 2.25-.68.82.29 1.36 1.07 1.34 1.94 0 .19-.22 19.32 15.51 32 .48.39.75.97.75 1.58s-.3 1.19-.79 1.56l-19.08 14.6c-.35.27-.78.41-1.21.41Zm-4.31-37.44c1.31 13.36 4.17 26.35 5.51 31.99l14.69-11.24c-10.5-9.47-13.7-21.3-14.67-28.09l-5.54 7.34Z" class="cls-6"/><path d="m56 43.68 19.73 12.43s2.98-14.03 5.72-33.85l-9.2-12.18s.48 20.11-16.26 33.6Z" class="cls-3"/><path d="M75.73 58.11c-.37 0-.74-.1-1.07-.31L54.93 45.37a1.99 1.99 0 0 1-.93-1.58c-.04-.65.24-1.27.74-1.67 15.79-12.72 15.52-31.81 15.51-32-.02-.87.52-1.65 1.34-1.94.82-.28 1.73 0 2.25.68l9.2 12.18c.32.42.46.96.38 1.48-2.72 19.66-5.72 33.85-5.75 33.99a2.01 2.01 0 0 1-1.96 1.59ZM59.36 43.43l14.99 9.44c.98-4.96 3.05-16.06 5.01-30.07l-5.51-7.3c-.96 6.76-4.13 18.49-14.49 27.93M56 58.11c-1.1 0-2-.9-2-2s.9-2.01 2-2.01 2 .88 2 1.99v.02c0 1.1-.9 2-2 2m0 20.35c-1.1 0-2-.9-2-2s.9-2.01 2-2.01 2 .88 2 1.99v.02c0 1.1-.9 2-2 2m0 20.34c-1.1 0-2-.9-2-2s.9-2.01 2-2.01 2 .88 2 1.99v.02c0 1.1-.9 2-2 2m18.12 9.2a2.005 2.005 0 0 1-.98-3.75c.15-.08 13.37-7.79 18.02-29.83a1.993 1.993 0 0 1 2.37-1.54c1.08.23 1.77 1.29 1.54 2.37-5.06 23.95-19.38 32.16-19.99 32.49-.31.17-.64.25-.97.25Z" class="cls-6"/><rect width="11.76" height="5.4" x="50.12" y="24.32" rx="1.57" ry="1.57" style="stroke-width:0;fill:#e9e9da"/><path d="M0 0h112v112H0z" style="fill:none;stroke-width:0"/></g></svg>