<svg xmlns="http://www.w3.org/2000/svg" id="flatten_icons" data-name="flatten icons" viewBox="0 0 112 112"><defs><style>.cls-2,.cls-3,.cls-4{stroke-width:0}.cls-2{fill:#f2efdf}.cls-3{fill:#bbdd80}.cls-4{fill:#004241}</style></defs><path d="M0 0h112v112H0z" style="fill:none;stroke-width:0"/><path d="M90.09 90.33s8.32 4.59 13.61.59c6.3-4.78 6.08-8.36 6.3-11.85.09-1.51-.67-6.25-2.87-7.91s-9.63 3.68-9.63 3.68-14.51 11.37-7.4 15.5Z" class="cls-2"/><path d="M98.37 94.55c-4.69 0-8.99-2.33-9.25-2.47-.01 0-.03-.01-.04-.02-2.27-1.32-2.85-3.15-2.94-4.46-.07-1.02.09-6.49 10.11-14.34 3.29-2.37 9.13-5.92 12.07-3.7 3.07 2.32 3.77 7.95 3.66 9.63l-.04.66c-.18 3.4-.41 7.63-7.05 12.67-2.01 1.52-4.31 2.04-6.53 2.04Zm-7.3-5.97c.4.21 7.35 3.82 11.42.74 5.16-3.91 5.3-6.59 5.47-9.69l.04-.69c.08-1.29-.69-4.98-1.99-6.12-1.06-.09-4.5 1.58-7.35 3.63-3.62 2.84-8.71 8.14-8.52 10.87.03.37.16.8.94 1.27Zm15.01-15.75" class="cls-4"/><path d="M41.58 71.3c4.04 5.69 4.97 12.64 3.13 18.85-.38 1.29-.18 5.01.29 6.29 1.82 4.93-6.71 10.23-8.51 11.51-3.39 2.41-7.27-2.53-11.14-2.26-7.33.51-14.75-2.69-19.32-9.12-6.98-9.82-4.68-23.43 5.14-30.41s23.43-4.68 30.41 5.14" class="cls-3"/><path d="M34.46 110.62c-1.84 0-3.6-.88-5.13-1.64-1.35-.67-2.75-1.37-3.84-1.29-8.36.58-16.24-3.14-21.09-9.96C.72 92.55-.73 86.24.33 79.97s4.5-11.75 9.68-15.44c5.18-3.68 11.49-5.13 17.76-4.07s11.75 4.5 15.44 9.68c4.27 6.01 5.51 13.51 3.42 20.58-.25.83-.09 4.12.25 5.03 2.21 6-5.72 11.42-8.7 13.46-.21.15-.39.27-.53.37-1.07.76-2.14 1.04-3.19 1.04m-8.8-6.94c2 0 3.83.91 5.45 1.72 2.25 1.12 3.33 1.54 4.21.92.15-.11.35-.25.59-.41 6.89-4.72 7.72-7.38 7.21-8.78-.59-1.59-.86-5.77-.33-7.55 1.75-5.89.71-12.13-2.84-17.12-3.06-4.31-7.63-7.17-12.84-8.06-5.22-.88-10.47.32-14.78 3.39s-7.17 7.63-8.05 12.84.32 10.46 3.39 14.78c4.03 5.68 10.59 8.77 17.55 8.29.15-.01.3-.02.45-.02Z" class="cls-4"/><path d="M35.26 97.47c-1.05 0-1.93-.81-1.99-1.88-.31-4.97-4.09-7.04-10.28-9.84-3.92-1.77-6.43-4.12-8.44-6-1.28-1.19-2.38-2.23-3.58-2.9-2.54-1.43-6.3.26-6.34.28a1.999 1.999 0 1 1-1.7-3.62c.23-.11 5.64-2.59 10-.14 1.62.91 2.95 2.15 4.35 3.46 1.99 1.86 4.05 3.78 7.36 5.28 5.69 2.58 12.14 5.5 12.62 13.23.07 1.1-.77 2.05-1.87 2.12h-.13Z" class="cls-4"/><path d="M24.93 85.28c-.71 0-1.39-.38-1.76-1.04-5.11-9.34 3.1-22.19 3.45-22.73.6-.93 1.84-1.19 2.76-.59.93.6 1.19 1.84.59 2.76-.07.11-7.26 11.39-3.3 18.63.53.97.17 2.18-.8 2.71-.3.17-.63.25-.96.25Z" class="cls-4"/><circle cx="85.47" cy="68.52" r="21.81" class="cls-3"/><path d="M85.47 92.32a23.75 23.75 0 0 1-16.72-6.85c-4.53-4.46-7.05-10.43-7.09-16.79s2.39-12.36 6.86-16.88c9.22-9.35 24.32-9.45 33.67-.23s9.45 24.32.23 33.67c-4.65 4.72-10.8 7.08-16.95 7.08m0-43.6c-5.12 0-10.24 1.97-14.11 5.89-3.71 3.77-5.74 8.76-5.7 14.05a19.7 19.7 0 0 0 5.9 13.97c7.78 7.67 20.34 7.58 28.01-.2s7.58-20.34-.19-28.01c-3.85-3.8-8.88-5.7-13.91-5.7" class="cls-4"/><path d="M99.36 86.59c-.2 0-.41-.03-.61-.1a2.003 2.003 0 0 1-1.3-2.51s.32-1.62-.64-5.62c-1.17-4.85-5.25-6.22-11.83-7.91-4.16-1.07-7.04-2.94-9.35-4.44-1.47-.95-2.73-1.78-4.03-2.23-2.3-.81-5.25.72-6.2 1.38-.91.63-2.15.41-2.78-.5-.63-.9-.42-2.15.49-2.78.21-.14 5.1-3.54 9.82-1.88 1.75.62 3.27 1.61 4.89 2.66 2.28 1.48 4.64 3.02 8.17 3.92 6.05 1.55 12.91 3.31 14.73 10.84 1.25 5.17.69 7.38.57 7.77-.27.85-1.06 1.39-1.91 1.39Z" class="cls-4"/><path d="M86.46 70.62c-.59 0-1.17-.26-1.56-.75-6.63-8.29-.81-23.25-.56-23.88a1.99 1.99 0 0 1 2.59-1.12 1.99 1.99 0 0 1 1.12 2.59c-.05.13-5.22 13.43-.03 19.91a2 2 0 0 1-1.56 3.25" class="cls-4"/><path d="M46.67 46.93c-.79 1.21-2.92 2.59-4.44 3.47-1.16.67-2.49.96-3.82.85-1.72-.14-4.1-.53-5.61-1.59-2.58-1.82-4.55-5.15-4.4-7.73s.76-6.64.76-6.64l17.51 11.65Z" class="cls-2"/><path d="M38.96 53.27c-.24 0-.48 0-.72-.03-2.88-.23-5.09-.89-6.6-1.95-3.23-2.28-5.43-6.26-5.24-9.48.16-2.64.75-6.65.78-6.82.1-.68.54-1.25 1.17-1.53.62-.28 1.35-.22 1.92.16l17.51 11.65c.92.61 1.17 1.84.56 2.76-.3.46-1.2 1.84-5.11 4.11-1.3.75-2.76 1.14-4.26 1.14Zm-8.24-14.55a66 66 0 0 0-.32 3.32c-.11 1.81 1.52 4.55 3.55 5.98.87.62 2.56 1.06 4.62 1.23.94.08 1.86-.13 2.65-.59.94-.54 1.68-1.03 2.26-1.46l-12.77-8.49Z" class="cls-4"/><circle cx="48.5" cy="25.19" r="21.81" class="cls-3"/><path d="M48.47 48.99c-5 0-10.04-1.57-14.33-4.81-10.47-7.92-12.54-22.88-4.62-33.35C37.43.36 52.39-1.71 62.86 6.21s12.54 22.88 4.62 33.35C62.8 45.74 55.67 49 48.46 49Zm.05-43.6c-6 0-11.93 2.71-15.82 7.85-6.59 8.71-4.86 21.16 3.85 27.75s21.16 4.86 27.75-3.85 4.86-21.16-3.85-27.75c-3.57-2.7-7.76-4-11.93-4m17.37 32.96" class="cls-4"/><path d="M38.54 43.3c-2.65 0-4.35-.25-4.46-.27-1.09-.16-1.84-1.18-1.68-2.28s1.18-1.85 2.28-1.68c.03 0 3.46.5 8.1-.01 7.95-.87 9.18-6.04 10.05-13.25.38-3.17-.24-5.74-.83-8.22-.56-2.33-1.09-4.52-.61-6.79.5-2.38-1.4-5.11-2.17-5.97-.74-.82-.68-2.08.13-2.82s2.07-.69 2.82.12c.17.19 4.17 4.6 3.14 9.49-.29 1.39.12 3.08.59 5.03.62 2.56 1.39 5.75.92 9.63-.7 5.79-1.87 15.47-13.59 16.75-1.75.19-3.33.25-4.68.25Z" class="cls-4"/><path d="M54.95 26.01c-.5 0-1-.18-1.38-.56-.8-.76-.82-2.03-.06-2.83 6.18-6.43 14.36-3.6 17.83-1.21.91.63 1.13 1.88.51 2.78-.63.91-1.87 1.13-2.78.51-.32-.22-7.33-4.88-12.67.68-.39.41-.92.61-1.44.61Z" class="cls-4"/><path d="M36.49 107.95c1.8-1.28 10.33-6.58 8.51-11.51-.17-.46-.3-1.23-.39-2.09l-9.36 1.12s.73 2.75-2.32 5.75c-2.77 2.72-5.65 3.88-6.92 4.29-.42.14-.67.19-.67.19 3.86-.27 7.75 4.66 11.14 2.26Z" class="cls-2"/><path d="M34.46 110.62c-1.84 0-3.6-.88-5.13-1.64-1.35-.67-2.76-1.38-3.84-1.29-1.05.06-1.97-.67-2.12-1.71s.53-2.01 1.55-2.24c.03 0 .2-.05.49-.14 1.01-.33 3.63-1.35 6.13-3.81 2.1-2.07 1.79-3.79 1.77-3.87-.15-.56-.04-1.13.29-1.61s.85-.76 1.42-.83l9.36-1.12a2.01 2.01 0 0 1 2.23 1.79c.09.92.21 1.43.27 1.59 2.21 6-5.72 11.42-8.7 13.47-.21.15-.39.27-.53.37-1.06.76-2.14 1.04-3.19 1.04m-3.48-5.29s.09.05.14.07c2.25 1.12 3.33 1.55 4.21.92.15-.11.35-.25.59-.41 6.89-4.72 7.72-7.38 7.21-8.78a6 6 0 0 1-.17-.56l-5.68.68c-.2 1.45-.9 3.4-2.93 5.4-1.13 1.12-2.29 2-3.37 2.69Z" class="cls-4"/></svg>