<?xml version="1.0" encoding="UTF-8"?>
<svg id="flatten_icons" data-name="flatten icons" xmlns="http://www.w3.org/2000/svg" viewBox="0 0 112 112">
  <defs>
    <style>
      .cls-1 {
        fill: none;
      }

      .cls-1, .cls-2, .cls-3, .cls-4, .cls-5, .cls-6 {
        stroke-width: 0px;
      }

      .cls-2 {
        fill: #d6ceae;
      }

      .cls-3 {
        fill: #aad681;
      }

      .cls-4 {
        fill: #92bf62;
      }

      .cls-5 {
        fill: #efe8c7;
      }

      .cls-6 {
        fill: #004241;
      }
    </style>
  </defs>
  <rect class="cls-1" width="112" height="112"/>
  <g>
    <g>
      <g>
        <path class="cls-5" d="m99.39,60.01c2.94-2.91,2.86-7.66.19-10.81-.96-1.13-1.82-1.79-2.61-2.14-1.3-.59-2-1.94-1.87-3.37.02-.27.04-.54.04-.82,0-3.3-1.73-6.2-4.33-7.85.64-1.6.84-3.43.37-5.35-.79-3.3-3.53-5.89-6.87-6.49-3.04-.55-5.86.48-7.79,2.39-.08-5.07-4.21-9.15-9.29-9.15-2.61,0-4.96,1.08-6.65,2.8-1.08-3.95-4.68-6.85-8.96-6.85-2.05,0-3.94.66-5.47,1.79s-3.56,1.61-5.34.88c-.99-.41-2.1-.6-3.27-.5-2.32.2-4.37,1.67-5.49,3.71-.3.54-.51,1.07-.65,1.59-.43,1.59-1.47,2.98-2.96,3.67-1.15.54-2.42,1.62-3.88,3.67-.59.83-.94,1.83-.94,2.84,0,.74.12,1.44.33,2.11-.1,0-.2-.02-.3-.02-5.94,0-10.76,4.82-10.76,10.76,0,1.52.31,2.96.88,4.26.63,1.46.38,3.09-.56,4.38-.83,1.14-1.31,2.54-1.31,4.06,0,2.89,1.76,5.37,4.28,6.43l29.9,37.62h27.19l23.69-38.14c.89-.24,1.72-.77,2.43-1.48Z"/>
        <path class="cls-6" d="m73.27,101.63h-27.19c-.61,0-1.19-.28-1.57-.76L14.91,63.62c-3.06-1.5-5.01-4.61-5.01-8.05,0-1.89.58-3.7,1.69-5.23.55-.76.68-1.64.34-2.41-.69-1.6-1.05-3.3-1.05-5.06,0-6.35,4.66-11.63,10.74-12.6,0-.08,0-.17,0-.25,0-1.4.46-2.82,1.31-4.01,1.54-2.16,3.07-3.58,4.66-4.32.9-.42,1.58-1.29,1.88-2.38.19-.69.47-1.38.83-2.04,1.5-2.71,4.14-4.48,7.07-4.73,1.45-.12,2.87.09,4.2.65,1,.41,2.27.18,3.39-.64,1.94-1.42,4.24-2.17,6.65-2.17,4.1,0,7.8,2.23,9.78,5.66,1.74-1.05,3.74-1.62,5.83-1.62,4.94,0,9.19,3.24,10.7,7.71,2.04-1.01,4.37-1.34,6.73-.92,4.09.74,7.49,3.95,8.46,8,.41,1.69.41,3.41.02,5.06,2.52,2.13,3.99,5.25,3.99,8.61,0,.33-.02.67-.04.99-.05.61.22,1.15.7,1.36,1.15.52,2.23,1.39,3.32,2.67,3.41,4.03,3.27,9.98-.31,13.53-.78.77-1.62,1.34-2.51,1.71l-23.32,37.54c-.36.59-1.01.94-1.7.94Zm-26.23-4h25.11l23.1-37.19c.27-.43.69-.74,1.18-.88.51-.14,1.05-.47,1.55-.97,0,0,0,0,0,0,2.11-2.09,2.15-5.65.07-8.1-.68-.81-1.32-1.35-1.9-1.61-2.06-.92-3.25-3.03-3.04-5.37.02-.21.03-.42.03-.64,0-2.51-1.27-4.81-3.4-6.16-.81-.52-1.14-1.54-.78-2.43.53-1.33.63-2.72.29-4.14-.61-2.53-2.73-4.54-5.28-5-2.24-.4-4.44.27-6.02,1.84-.57.56-1.42.74-2.16.43-.74-.3-1.23-1.02-1.25-1.82-.06-3.96-3.34-7.18-7.29-7.18-1.98,0-3.83.78-5.22,2.2-.5.51-1.24.72-1.93.54-.69-.18-1.24-.72-1.43-1.41-.86-3.17-3.76-5.38-7.03-5.38-1.56,0-3.04.48-4.29,1.4-2.26,1.65-4.98,2.07-7.29,1.11-.74-.3-1.52-.42-2.33-.35-1.57.13-3.07,1.16-3.91,2.68-.21.38-.37.76-.47,1.14-.6,2.23-2.08,4.04-4.05,4.97-.94.44-1.99,1.45-3.1,3.02-.37.52-.57,1.11-.57,1.68,0,.51.08,1.01.24,1.5.2.62.08,1.29-.31,1.81-.39.52-1.02.84-1.66.8h-.22s0-.01,0-.01c-4.86,0-8.79,3.93-8.79,8.76,0,1.2.24,2.37.72,3.47.9,2.07.61,4.44-.77,6.34-.61.85-.93,1.84-.93,2.89,0,2.01,1.2,3.81,3.05,4.58.31.13.58.34.79.6l29.3,36.87Z"/>
      </g>
      <path class="cls-3" d="m46.08,99.63l-13.65-.15c-12.74-.17-24.06-8.82-26.87-21.25-.1-.45-.19-.9-.27-1.35l-3.29-18.79,19.7,4.45c11.68,2.64,20.3,12.26,21.86,23.87.5,3.71,1.13,7.41,2,11.05l.52,2.16Z"/>
      <path class="cls-4" d="m46.08,99.63l-13.65-.15c-12.74-.17-24.06-8.82-26.87-21.25-.1-.45-.19-.9-.27-1.35l-3.29-18.79s9.49,28.14,41.49,38.72c1.28.42,2.27,1.45,2.58,2.76v.05Z"/>
      <path class="cls-6" d="m46.08,101.63h-.02l-13.65-.15c-13.97-.19-25.81-9.56-28.8-22.81-.11-.48-.2-.96-.29-1.44L.03,58.44c-.12-.66.11-1.33.59-1.79.48-.46,1.17-.65,1.82-.5l19.7,4.45c12.31,2.78,21.72,13.05,23.4,25.55.55,4.12,1.2,7.67,1.97,10.85l.52,2.16c.14.6,0,1.23-.38,1.71-.38.48-.96.75-1.56.75ZM4.49,60.7l2.78,15.83c.07.42.16.84.25,1.25,2.54,11.25,13.03,19.53,24.94,19.69l11.08.12c-.77-3.23-1.41-6.81-1.96-10.92-1.46-10.85-9.62-19.77-20.32-22.18l-16.77-3.79Z"/>
      <path class="cls-6" d="m57.54,42.38c-.92,0-1.75-.64-1.95-1.57-1.25-5.66,1.85-8.96,4.49-10.39.1-2.25,1.17-5.37,4.83-7.29,6.72-3.52,12.56.64,12.8.82.89.65,1.09,1.9.44,2.79-.65.89-1.89,1.09-2.79.44-.18-.12-4.13-2.86-8.6-.51-3.1,1.63-2.7,4.32-2.64,4.62.19,1-.4,2.01-1.37,2.31-.71.23-4.29,1.67-3.26,6.35.24,1.08-.44,2.15-1.52,2.38-.14.03-.29.05-.43.05Z"/>
      <path class="cls-6" d="m96.97,49.05c-.37,0-.74-.1-1.07-.31-4.16-2.64-9.64-.67-9.7-.65-.64.24-1.36.13-1.9-.28-.54-.41-.84-1.07-.79-1.75.03-.73-.17-3.26-4.32-3.69-.77-.08-4.66-.25-5.57,4.23-.22,1.08-1.27,1.79-2.34,1.58-1.08-.21-1.79-1.24-1.59-2.32.54-2.88,3.31-8.14,9.91-7.46,4.69.49,6.78,3.01,7.54,5.32,2.63-.52,7.03-.81,10.9,1.65.93.59,1.21,1.83.62,2.76-.38.6-1.03.93-1.69.93Z"/>
      <path class="cls-6" d="m74.99,61.58c-.4,0-.81-.12-1.16-.37-.9-.64-1.11-1.89-.47-2.79.76-1.07,1.16-2.33,1.16-3.64,0-3.46-2.82-6.28-6.28-6.28-1.2,0-2.37.35-3.39,1-.56.36-1.26.42-1.87.15-.61-.26-1.05-.81-1.17-1.47-.55-2.97-3.15-5.12-6.17-5.12-3.46,0-6.28,2.82-6.28,6.28,0,.15.01.31.02.46.05.62-.19,1.23-.65,1.64-.46.42-1.08.6-1.69.49-.29-.05-.56-.08-.82-.08-1.73,0-3.3.96-4.09,2.5-.51.98-1.71,1.37-2.69.86-.98-.51-1.37-1.71-.86-2.69,1.37-2.65,3.96-4.38,6.89-4.63.71-4.98,5-8.83,10.18-8.83,4.08,0,7.69,2.4,9.33,5.97,1.05-.35,2.15-.54,3.27-.54,5.67,0,10.28,4.61,10.28,10.28,0,2.15-.66,4.21-1.91,5.96-.39.55-1.01.84-1.63.84Z"/>
      <path class="cls-6" d="m32.04,36.86c-.4,0-.8-.12-1.15-.37-5.15-3.62-11.01-1.53-11.07-1.5-1.04.38-2.19-.15-2.57-1.19-.38-1.04.15-2.19,1.18-2.57.32-.12,7.92-2.83,14.76,1.99.9.64,1.12,1.88.48,2.79-.39.55-1.01.85-1.64.85Z"/>
      <path class="cls-6" d="m32.74,36.86c-.29,0-.59-.06-.87-.2-.99-.48-1.41-1.68-.92-2.67,1.5-3.09,4.69-5.08,8.12-5.08,2.8,0,5.4,1.27,7.12,3.48.68.87.52,2.13-.35,2.81-.87.68-2.13.52-2.81-.35-.96-1.23-2.4-1.94-3.96-1.94-1.94,0-3.67,1.08-4.52,2.83-.35.71-1.06,1.13-1.8,1.13Z"/>
      <path class="cls-6" d="m57.31,79.71c-.23,0-.46-.04-.68-.12-4.33-1.57-6.59-6.37-5.02-10.7.76-2.1,2.29-3.78,4.31-4.73,1.93-.9,4.08-1.04,6.09-.39,2.7-4.82,8.58-7.13,13.93-5.2,3.11,1.13,5.59,3.54,6.8,6.63.4,1.03-.11,2.19-1.13,2.59-1.03.4-2.19-.11-2.59-1.14-.79-2.01-2.4-3.59-4.43-4.32-3.89-1.41-8.18.61-9.59,4.5l-.07.24c-.19.6-.66,1.08-1.25,1.28-.59.21-1.25.12-1.77-.23-.31-.21-.63-.37-.95-.49-1.1-.4-2.28-.34-3.33.15s-1.85,1.37-2.25,2.46c-.82,2.26.36,4.76,2.62,5.58,1.04.38,1.58,1.52,1.2,2.56-.29.81-1.06,1.32-1.88,1.32Z"/>
      <path class="cls-3" d="m65.92,99.63l13.65-.15c12.74-.17,24.06-8.82,26.87-21.25.1-.45.19-.9.27-1.35l3.29-18.79-19.7,4.45c-11.68,2.64-20.3,12.26-21.86,23.87-.5,3.71-1.13,7.41-2,11.05l-.52,2.16Z"/>
      <path class="cls-4" d="m65.92,99.63l13.65-.15c12.74-.17,24.06-8.82,26.87-21.25.1-.45.19-.9.27-1.35l3.29-18.79s-9.49,28.14-41.49,38.72c-1.28.42-2.27,1.45-2.58,2.76v.05Z"/>
      <path class="cls-6" d="m65.92,101.63c-.61,0-1.18-.28-1.56-.75-.38-.48-.52-1.12-.38-1.71l.52-2.16c.77-3.19,1.41-6.74,1.97-10.85,1.68-12.5,11.09-22.77,23.4-25.55l19.7-4.45c.65-.14,1.34.04,1.82.5.48.46.71,1.13.59,1.79l-3.29,18.79c-.08.48-.18.97-.29,1.44-2.99,13.24-14.83,22.62-28.79,22.81l-13.65.15h-.02Zm41.59-40.92l-16.77,3.79c-10.69,2.42-18.86,11.33-20.32,22.18-.55,4.11-1.2,7.69-1.96,10.92l11.08-.12c11.91-.16,22.4-8.44,24.94-19.69.09-.41.18-.83.25-1.25l2.78-15.84Z"/>
    </g>
    <circle class="cls-2" cx="26.17" cy="45.83" r="2.12"/>
    <circle class="cls-2" cx="71.72" cy="34.88" r="2.12"/>
    <circle class="cls-2" cx="53.16" cy="87.5" r="2.12"/>
    <circle class="cls-2" cx="51.97" cy="57.19" r="3.05"/>
  </g>
</svg>