<svg xmlns="http://www.w3.org/2000/svg" id="flatten_icons" data-name="flatten icons" viewBox="0 0 112 112"><defs><style>.cls-2,.cls-3,.cls-4,.cls-6{stroke-width:0}.cls-2{fill:#d6ceae}.cls-3{fill:#aad681}.cls-4{fill:#92bf62}.cls-6{fill:#004241}</style></defs><path d="M0 0h112v112H0z" style="fill:none;stroke-width:0"/><path d="M99.39 60.01c2.94-2.91 2.86-7.66.19-10.81-.96-1.13-1.82-1.79-2.61-2.14-1.3-.59-2-1.94-1.87-3.37.02-.27.04-.54.04-.82 0-3.3-1.73-6.2-4.33-7.85.64-1.6.84-3.43.37-5.35-.79-3.3-3.53-5.89-6.87-6.49-3.04-.55-5.86.48-7.79 2.39-.08-5.07-4.21-9.15-9.29-9.15-2.61 0-4.96 1.08-6.65 2.8-1.08-3.95-4.68-6.85-8.96-6.85-2.05 0-3.94.66-5.47 1.79s-3.56 1.61-5.34.88c-.99-.41-2.1-.6-3.27-.5-2.32.2-4.37 1.67-5.49 3.71-.3.54-.51 1.07-.65 1.59-.43 1.59-1.47 2.98-2.96 3.67-1.15.54-2.42 1.62-3.88 3.67-.59.83-.94 1.83-.94 2.84 0 .74.12 1.44.33 2.11-.1 0-.2-.02-.3-.02-5.94 0-10.76 4.82-10.76 10.76 0 1.52.31 2.96.88 4.26.63 1.46.38 3.09-.56 4.38a6.86 6.86 0 0 0-1.31 4.06c0 2.89 1.76 5.37 4.28 6.43l29.9 37.62h27.19l23.69-38.14c.89-.24 1.72-.77 2.43-1.48Z" style="stroke-width:0;fill:#efe8c7"/><path d="M73.27 101.63H46.08c-.61 0-1.19-.28-1.57-.76l-29.6-37.25a8.95 8.95 0 0 1-5.01-8.05c0-1.89.58-3.7 1.69-5.23.55-.76.68-1.64.34-2.41-.69-1.6-1.05-3.3-1.05-5.06 0-6.35 4.66-11.63 10.74-12.6v-.25c0-1.4.46-2.82 1.31-4.01 1.54-2.16 3.07-3.58 4.66-4.32.9-.42 1.58-1.29 1.88-2.38.19-.69.47-1.38.83-2.04 1.5-2.71 4.14-4.48 7.07-4.73a8.85 8.85 0 0 1 4.2.65c1 .41 2.27.18 3.39-.64 1.94-1.42 4.24-2.17 6.65-2.17 4.1 0 7.8 2.23 9.78 5.66 1.74-1.05 3.74-1.62 5.83-1.62 4.94 0 9.19 3.24 10.7 7.71 2.04-1.01 4.37-1.34 6.73-.92 4.09.74 7.49 3.95 8.46 8 .41 1.69.41 3.41.02 5.06 2.52 2.13 3.99 5.25 3.99 8.61 0 .33-.02.67-.04.99-.05.61.22 1.15.7 1.36 1.15.52 2.23 1.39 3.32 2.67 3.41 4.03 3.27 9.98-.31 13.53-.78.77-1.62 1.34-2.51 1.71l-23.32 37.54c-.36.59-1.01.94-1.7.94Zm-26.23-4h25.11l23.1-37.19c.27-.43.69-.74 1.18-.88.51-.14 1.05-.47 1.55-.97 2.11-2.09 2.15-5.65.07-8.1-.68-.81-1.32-1.35-1.9-1.61-2.06-.92-3.25-3.03-3.04-5.37a7.26 7.26 0 0 0-3.37-6.8 2 2 0 0 1-.78-2.43c.53-1.33.63-2.72.29-4.14-.61-2.53-2.73-4.54-5.28-5-2.24-.4-4.44.27-6.02 1.84-.57.56-1.42.74-2.16.43-.74-.3-1.23-1.02-1.25-1.82-.06-3.96-3.34-7.18-7.29-7.18-1.98 0-3.83.78-5.22 2.2-.5.51-1.24.72-1.93.54s-1.24-.72-1.43-1.41a7.306 7.306 0 0 0-7.03-5.38c-1.56 0-3.04.48-4.29 1.4-2.26 1.65-4.98 2.07-7.29 1.11-.74-.3-1.52-.42-2.33-.35-1.57.13-3.07 1.16-3.91 2.68a5 5 0 0 0-.47 1.14c-.6 2.23-2.08 4.04-4.05 4.97-.94.44-1.99 1.45-3.1 3.02-.37.52-.57 1.11-.57 1.68q0 .765.24 1.5c.2.62.08 1.29-.31 1.81s-1.02.84-1.66.8h-.22v-.01c-4.86 0-8.79 3.93-8.79 8.76 0 1.2.24 2.37.72 3.47.9 2.07.61 4.44-.77 6.34-.61.85-.93 1.84-.93 2.89 0 2.01 1.2 3.81 3.05 4.58.31.13.58.34.79.6l29.3 36.87Z" class="cls-6"/><path d="m46.08 99.63-13.65-.15c-12.74-.17-24.06-8.82-26.87-21.25q-.15-.675-.27-1.35L2 58.09l19.7 4.45a28.36 28.36 0 0 1 21.86 23.87c.5 3.71 1.13 7.41 2 11.05l.52 2.16Z" class="cls-3"/><path d="m46.08 99.63-13.65-.15c-12.74-.17-24.06-8.82-26.87-21.25q-.15-.675-.27-1.35L2 58.09s9.49 28.14 41.49 38.72c1.28.42 2.27 1.45 2.58 2.76v.05Z" class="cls-4"/><path d="M46.08 101.63h-.02l-13.65-.15c-13.97-.19-25.81-9.56-28.8-22.81-.11-.48-.2-.96-.29-1.44L.03 58.44c-.12-.66.11-1.33.59-1.79s1.17-.65 1.82-.5l19.7 4.45c12.31 2.78 21.72 13.05 23.4 25.55.55 4.12 1.2 7.67 1.97 10.85l.52 2.16a1.99 1.99 0 0 1-1.94 2.46ZM4.49 60.7l2.78 15.83c.07.42.16.84.25 1.25 2.54 11.25 13.03 19.53 24.94 19.69l11.08.12c-.77-3.23-1.41-6.81-1.96-10.92-1.46-10.85-9.62-19.77-20.32-22.18zm53.05-18.32c-.92 0-1.75-.64-1.95-1.57-1.25-5.66 1.85-8.96 4.49-10.39.1-2.25 1.17-5.37 4.83-7.29 6.72-3.52 12.56.64 12.8.82a1.998 1.998 0 0 1-2.35 3.23c-.18-.12-4.13-2.86-8.6-.51-3.1 1.63-2.7 4.32-2.64 4.62.19 1-.4 2.01-1.37 2.31-.71.23-4.29 1.67-3.26 6.35.24 1.08-.44 2.15-1.52 2.38-.14.03-.29.05-.43.05m39.43 6.67c-.37 0-.74-.1-1.07-.31-4.16-2.64-9.64-.67-9.7-.65-.64.24-1.36.13-1.9-.28s-.84-1.07-.79-1.75c.03-.73-.17-3.26-4.32-3.69-.77-.08-4.66-.25-5.57 4.23-.22 1.08-1.27 1.79-2.34 1.58a1.994 1.994 0 0 1-1.59-2.32c.54-2.88 3.31-8.14 9.91-7.46 4.69.49 6.78 3.01 7.54 5.32 2.63-.52 7.03-.81 10.9 1.65a2 2 0 0 1-1.07 3.69Z" class="cls-6"/><path d="M74.99 61.58a2.001 2.001 0 0 1-1.63-3.16 6.25 6.25 0 0 0 1.16-3.64 6.29 6.29 0 0 0-6.28-6.28c-1.2 0-2.37.35-3.39 1-.56.36-1.26.42-1.87.15-.61-.26-1.05-.81-1.17-1.47a6.27 6.27 0 0 0-6.17-5.12 6.29 6.29 0 0 0-6.28 6.28c0 .15.01.31.02.46.05.62-.19 1.23-.65 1.64-.46.42-1.08.6-1.69.49-.29-.05-.56-.08-.82-.08-1.73 0-3.3.96-4.09 2.5-.51.98-1.71 1.37-2.69.86a1.995 1.995 0 0 1-.86-2.69c1.37-2.65 3.96-4.38 6.89-4.63.71-4.98 5-8.83 10.18-8.83 4.08 0 7.69 2.4 9.33 5.97 1.05-.35 2.15-.54 3.27-.54 5.67 0 10.28 4.61 10.28 10.28 0 2.15-.66 4.21-1.91 5.96-.39.55-1.01.84-1.63.84ZM32.04 36.86c-.4 0-.8-.12-1.15-.37-5.15-3.62-11.01-1.53-11.07-1.5a2.004 2.004 0 0 1-1.39-3.76c.32-.12 7.92-2.83 14.76 1.99.9.64 1.12 1.88.48 2.79-.39.55-1.01.85-1.64.85Z" class="cls-6"/><path d="M32.74 36.86a1.992 1.992 0 0 1-1.79-2.87c1.5-3.09 4.69-5.08 8.12-5.08 2.8 0 5.4 1.27 7.12 3.48.68.87.52 2.13-.35 2.81s-2.13.52-2.81-.35a5 5 0 0 0-3.96-1.94c-1.94 0-3.67 1.08-4.52 2.83-.35.71-1.06 1.13-1.8 1.13Zm24.57 42.85c-.23 0-.46-.04-.68-.12-4.33-1.57-6.59-6.37-5.02-10.7.76-2.1 2.29-3.78 4.31-4.73a8.3 8.3 0 0 1 6.09-.39c2.7-4.82 8.58-7.13 13.93-5.2 3.11 1.13 5.59 3.54 6.8 6.63.4 1.03-.11 2.19-1.13 2.59-1.03.4-2.19-.11-2.59-1.14a7.5 7.5 0 0 0-4.43-4.32c-3.89-1.41-8.18.61-9.59 4.5l-.07.24c-.19.6-.66 1.08-1.25 1.28-.59.21-1.25.12-1.77-.23a4.32 4.32 0 0 0-4.28-.34 4.35 4.35 0 0 0-2.25 2.46c-.82 2.26.36 4.76 2.62 5.58 1.04.38 1.58 1.52 1.2 2.56a2 2 0 0 1-1.88 1.32Z" class="cls-6"/><path d="m65.92 99.63 13.65-.15c12.74-.17 24.06-8.82 26.87-21.25q.15-.675.27-1.35L110 58.09l-19.7 4.45a28.36 28.36 0 0 0-21.86 23.87c-.5 3.71-1.13 7.41-2 11.05l-.52 2.16Z" class="cls-3"/><path d="m65.92 99.63 13.65-.15c12.74-.17 24.06-8.82 26.87-21.25q.15-.675.27-1.35L110 58.09s-9.49 28.14-41.49 38.72c-1.28.42-2.27 1.45-2.58 2.76v.05Z" class="cls-4"/><path d="M65.92 101.63c-.61 0-1.18-.28-1.56-.75-.38-.48-.52-1.12-.38-1.71l.52-2.16c.77-3.19 1.41-6.74 1.97-10.85 1.68-12.5 11.09-22.77 23.4-25.55l19.7-4.45c.65-.14 1.34.04 1.82.5s.71 1.13.59 1.79l-3.29 18.79c-.08.48-.18.97-.29 1.44-2.99 13.24-14.83 22.62-28.79 22.81l-13.65.15h-.02Zm41.59-40.92L90.74 64.5c-10.69 2.42-18.86 11.33-20.32 22.18-.55 4.11-1.2 7.69-1.96 10.92l11.08-.12c11.91-.16 22.4-8.44 24.94-19.69.09-.41.18-.83.25-1.25l2.78-15.84Z" class="cls-6"/><circle cx="26.17" cy="45.83" r="2.12" class="cls-2"/><circle cx="71.72" cy="34.88" r="2.12" class="cls-2"/><circle cx="53.16" cy="87.5" r="2.12" class="cls-2"/><circle cx="51.97" cy="57.19" r="3.05" class="cls-2"/></svg>