<?xml version="1.0" encoding="UTF-8"?>
<svg id="flatten_icons" data-name="flatten icons" xmlns="http://www.w3.org/2000/svg" viewBox="0 0 112 112">
  <defs>
    <style>
      .cls-1 {
        fill: none;
      }

      .cls-1, .cls-2, .cls-3, .cls-4 {
        stroke-width: 0px;
      }

      .cls-2 {
        fill: #aad681;
      }

      .cls-3 {
        fill: #92bf62;
      }

      .cls-4 {
        fill: #004241;
      }
    </style>
  </defs>
  <rect class="cls-1" width="112" height="112"/>
  <g>
    <g>
      <path class="cls-2" d="m102.64,56.97c0,25.8-20.91,46.71-46.71,46.71S9.22,82.77,9.22,56.97c0-18.63,10.9-34.71,26.68-42.21,2.62-1.25,6.76-5.45,9.62-6.2,3.77-.98,6.34,1.7,10.42,1.7,2.18,0,7.43-1.99,9.55-1.94,10.59.25,7.93,4.98,12.77,7.62,14.53,7.92,24.38,23.33,24.38,41.04Z"/>
      <path class="cls-4" d="m55.93,105.68c-26.86,0-48.71-21.85-48.71-48.71,0-18.7,10.92-35.98,27.82-44.01.91-.43,2.25-1.46,3.54-2.44,2.16-1.65,4.38-3.35,6.43-3.88,2.7-.7,4.9.06,6.84.73,1.35.47,2.62.91,4.08.91.81,0,2.7-.5,4.21-.9,2.07-.55,4.02-1.09,5.39-1.04,7.32.17,9.31,2.37,11.16,5.23.7,1.08,1.25,1.94,2.52,2.63,15.68,8.55,25.43,24.95,25.43,42.8,0,26.86-21.85,48.71-48.71,48.71ZM47.19,10.35c-.38,0-.77.05-1.17.15-1.27.33-3.26,1.85-5.01,3.19-1.52,1.17-2.97,2.27-4.25,2.88-15.51,7.38-25.53,23.24-25.53,40.4,0,24.65,20.06,44.71,44.71,44.71s44.71-20.06,44.71-44.71c0-16.38-8.94-31.43-23.34-39.28-2.16-1.18-3.16-2.72-3.97-3.97-1.23-1.9-2.12-3.27-7.9-3.41-.81,0-2.72.5-4.27.91-2,.53-3.9,1.04-5.23,1.04-2.13,0-3.86-.6-5.39-1.12-1.23-.43-2.28-.79-3.35-.79Z"/>
    </g>
    <path class="cls-2" d="m52.17,77.08s4.52-5.18,10.2-5.73c2.36-.22,4.23-2.1,4.31-4.47.13-3.99,1.01-9.3,4.42-12.05,3.22-2.59,6.35-4.12,8.54-4.98,1.97-.77,3.65-2.11,4.93-3.78,3.18-4.13,10.16-11.31,20-10.9,13.78.56,2.12,65.47-44.36,68.31-35.26-11.22-8.04-26.4-8.04-26.4Z"/>
    <path class="cls-3" d="m43.15,93.14s-.06-.03-.08-.04c1.87,3.48,6.83,7.1,17.15,10.39,34.38-2.1,49.7-38.15,49.78-57.01-9.32,22.61-32.33,49.38-66.85,46.67Z"/>
    <path class="cls-4" d="m60.21,105.48c-.21,0-.41-.03-.61-.09-12.46-3.96-18.81-8.84-19.42-14.91-.78-7.79,8.85-13.87,10.71-14.97,1.08-1.15,5.59-5.6,11.28-6.14,1.38-.13,2.46-1.23,2.5-2.54.15-4.4,1.16-10.31,5.17-13.54,3.46-2.79,6.84-4.41,9.06-5.29,1.56-.61,2.97-1.7,4.08-3.14,3.5-4.55,10.98-12.14,21.67-11.68,2.17.09,7.23,1.51,7.34,12.78.19,19.03-15.2,57.29-51.66,59.52-.04,0-.08,0-.12,0Zm-7.07-26.65h0c-2.66,1.49-9.47,6.42-8.98,11.26.42,4.14,6.05,8.07,16.29,11.37,18.31-1.26,29.72-12.45,36.07-21.65,8.59-12.42,11.54-25.98,11.46-33.82-.05-5.28-1.43-8.74-3.51-8.83-8.88-.38-15.3,6.19-18.33,10.13-1.55,2.02-3.56,3.55-5.79,4.42-1.96.77-4.95,2.21-8.01,4.68-2.21,1.78-3.51,5.53-3.68,10.56-.11,3.32-2.74,6.07-6.12,6.39-4.79.46-8.85,5.01-8.89,5.05-.15.17-.33.32-.53.43Zm-.98-1.75h0,0Z"/>
    <g>
      <path class="cls-2" d="m15.94,28.26s5.95-11.13,13.82-18c7.87-6.87,14.06,7.75,13.78,13.1s13.78,3.66,15.19,14.05"/>
      <path class="cls-4" d="m58.73,39.41c-.99,0-1.84-.73-1.98-1.73-.65-4.8-4.67-6.41-8.57-7.97-3.2-1.28-6.83-2.74-6.64-6.45.16-3.1-2.56-10.66-6.24-12.45-.86-.42-2.23-.77-4.23.96-7.5,6.54-13.32,17.33-13.38,17.44-.52.97-1.73,1.34-2.71.82-.97-.52-1.34-1.73-.82-2.71.25-.47,6.21-11.54,14.27-18.57,2.72-2.37,5.78-2.92,8.6-1.55,5.56,2.71,8.7,12.2,8.49,16.26-.04.85,2.08,1.7,4.13,2.53,4.25,1.7,10.08,4.04,11.04,11.15.15,1.09-.62,2.1-1.71,2.25-.09.01-.18.02-.27.02Z"/>
    </g>
    <g>
      <path class="cls-2" d="m96.37,33.62s-2.2-11.83-10.08-18.7c-7.87-6.87-16.71,9.55-16.43,14.9.28,5.34-11.25,6.11-15.19,10.09,0,0-4.12,3.82-6.04,10.37-.64,2.19-2.92,3.39-5.14,2.87-2.41-.57-5.38-.57-7.6,1.7"/>
      <path class="cls-4" d="m35.9,56.84c-.51,0-1.01-.19-1.4-.57-.79-.77-.8-2.04-.02-2.83,2.33-2.37,5.61-3.15,9.48-2.24,1.22.28,2.43-.37,2.76-1.49,2.05-6.99,6.42-11.1,6.6-11.27,1.83-1.85,4.87-3.02,7.81-4.15,3.2-1.23,6.83-2.62,6.74-4.37-.24-4.6,4.68-14.81,10.75-17.76,3.13-1.52,6.32-1.08,8.99,1.25,8.3,7.25,10.63,19.33,10.73,19.85.2,1.09-.51,2.13-1.6,2.33-1.09.2-2.13-.51-2.33-1.6-.03-.15-2.2-11.26-9.42-17.56-1.48-1.29-2.9-1.5-4.61-.67-4.65,2.26-8.66,10.97-8.51,13.96.24,4.65-4.82,6.59-9.3,8.31-2.55.98-5.19,1.99-6.47,3.29-.09.09-3.81,3.63-5.54,9.53-.93,3.16-4.23,5.03-7.51,4.25-2.47-.58-4.4-.19-5.72,1.15-.39.4-.91.6-1.43.6Z"/>
    </g>
    <path class="cls-2" d="m60.21,103.48c8.22-.69-9.92-9.81-8.21-21.7,1.46-10.15-4.07-16.3-11.72-19.36s-2.55-4.58-5.09-20.88c-1.91-12.22-10.6-12.8-14.83-12.32-1.55.17-3.1-.15-4.43-.96-4.51-2.75-12.89-5.65-13.85,5.18,0,0-.73,6.51,2.08,26.2s26.31,46.34,56.05,43.84Z"/>
    <path class="cls-3" d="m55.45,92.89c-3.8-.27-7.52-.93-11.13-1.92-1.39-.38-2.37-1.75-2.13-3.17.06-.38.06-.78-.02-1.19-.25-1.24-1.27-2.24-2.51-2.46-2.01-.36-3.76,1.17-3.76,3.11,0,.28.05.55.12.81-14.88-6.36-26.84-17.9-31.93-29.09.03.22.06.43.09.65,2.81,19.69,26.31,46.34,56.05,43.84,5.38-.45-.52-4.51-4.77-10.59Z"/>
    <path class="cls-4" d="m56.29,105.65c-29.18,0-51.32-26.3-54.1-45.72C-.63,40.21.07,33.5.1,33.22c.39-4.37,1.97-7.3,4.69-8.68,4.38-2.21,9.98.67,12.19,2.02.94.57,2.03.8,3.17.68,13.53-1.53,16.45,10.33,17.03,14,1.03,6.6.84,10.9.72,13.75-.18,4.17-.18,4.25,3.14,5.58,9.78,3.91,14.38,11.55,12.95,21.5-.79,5.5,3.61,10.59,6.82,14.31,2.53,2.94,4.21,4.88,3.35,6.98-.76,1.86-3.02,2.05-3.77,2.12-1.38.12-2.74.17-4.09.17ZM8.41,27.72c-.67,0-1.29.12-1.82.38-1.41.71-2.25,2.57-2.52,5.51-.01.1-.65,6.7,2.07,25.74,2.68,18.76,24.92,44.45,53.7,42.15-.54-.74-1.39-1.72-2.07-2.51-3.5-4.06-8.8-10.2-7.75-17.5,1.46-10.18-4.89-14.98-10.48-17.21-5.72-2.29-5.86-4.56-5.65-9.47.12-2.85.29-6.76-.68-12.96-1.53-9.8-7.71-11.2-12.63-10.64-1.99.23-4.01-.21-5.69-1.24-1.97-1.2-4.47-2.25-6.48-2.25Z"/>
    <circle class="cls-3" cx="17.84" cy="57.46" r="4.5"/>
    <circle class="cls-3" cx="81.39" cy="73.72" r="3.17"/>
    <circle class="cls-3" cx="64.64" cy="48.52" r="3.17"/>
  </g>
</svg>