<?xml version="1.0" encoding="UTF-8"?>
<svg id="flatten_icons" data-name="flatten icons" xmlns="http://www.w3.org/2000/svg" viewBox="0 0 112 112">
  <defs>
    <style>
      .cls-1 {
        fill: none;
      }

      .cls-1, .cls-2, .cls-3, .cls-4, .cls-5, .cls-6 {
        stroke-width: 0px;
      }

      .cls-2 {
        fill: #f2de2a;
      }

      .cls-3 {
        fill: #aad681;
      }

      .cls-4 {
        fill: #fff;
      }

      .cls-5 {
        fill: #ffe948;
      }

      .cls-6 {
        fill: #004241;
      }
    </style>
  </defs>
  <rect class="cls-1" width="112" height="112"/>
  <g>
    <g>
      <path class="cls-3" d="m45.59,24.5S50.1-.44,93.1,7.05c0,0-24.27,23.01-47.51,17.46Z"/>
      <path class="cls-6" d="m53.02,27.35c-2.73,0-5.37-.3-7.9-.91-1.03-.25-1.69-1.26-1.5-2.3.05-.29,1.34-7.03,8.34-12.73,9.1-7.42,23.06-9.55,41.49-6.34.74.13,1.35.67,1.57,1.39.22.72.01,1.51-.54,2.03-.25.24-6.35,5.98-15.44,11.1-9.1,5.13-17.95,7.75-26.02,7.75Zm-4.87-4.38c16.46,2.66,33.39-9.07,40.32-14.61-30.01-3.92-38.29,9.51-40.32,14.61Z"/>
    </g>
    <path class="cls-5" d="m50.06,19.41c-1.65-.69-3.54-.91-5.51-.47-3.51.78-6.25,3.7-6.83,7.25-.14.87-.16,1.71-.07,2.52.44,3.9-.23,7.86-1.54,11.56-4.48,12.66-1.48,28.61,9.04,41.14,14.79,17.62,38.82,21.79,53.68,9.32s14.91-36.86.12-54.48c-10.53-12.54-25.73-18.26-38.98-16.02-3.33.56-6.79.5-9.91-.81Z"/>
    <path class="cls-2" d="m105.72,46.78l-10.05,8.19c-.99.81-1.32,2.19-.81,3.36l1.1,2.48c1.04,2.35-1.31,4.76-3.69,3.79l-2.15-.88c-1.87-.77-3.93.61-3.93,2.63v2.84c0,2.02-2.04,3.4-3.92,2.64l-1.64-.66c-1.65-.67-3.49.32-3.86,2.06l-1.51,7.23c-.53,2.55-3.93,3.11-5.25.86l-.33-.56c-.88-1.51-2.91-1.88-4.27-.76h0c-1.86,1.53-4.66.2-4.66-2.2v-.5c0-2.12-2.23-3.49-4.12-2.55l-2.4,1.2c-1.61.81-3.56-.07-4.03-1.81l-.51-1.9c-.36-1.35-1.65-2.24-3.03-2.1l-8.24.82c1.73,3.64,3.95,7.16,6.71,10.45,14.79,17.62,38.82,21.79,53.68,9.32,12.06-10.12,14.36-28.1,6.89-43.94Z"/>
    <path class="cls-6" d="m78.45,99.92c-2.24,0-4.52-.2-6.83-.6-10.6-1.84-20.55-7.75-28-16.63-10.7-12.74-14.3-29.25-9.39-43.09,1.33-3.75,1.81-7.34,1.44-10.67-.11-1.01-.08-2.04.08-3.07.71-4.36,4.08-7.92,8.37-8.88,2.29-.51,4.61-.31,6.72.58h0c2.44,1.03,5.4,1.26,8.8.68,14.49-2.45,30.14,3.95,40.84,16.71,7.46,8.88,11.55,19.7,11.52,30.46-.02,10.89-4.25,20.42-11.89,26.84-6,5.03-13.52,7.66-21.66,7.66ZM46.59,20.71c-.53,0-1.07.06-1.6.18-2.71.6-4.84,2.86-5.29,5.62-.11.67-.13,1.33-.05,1.98.44,3.93-.11,8.12-1.65,12.45-4.43,12.51-1.1,27.52,8.69,39.18,6.85,8.16,15.95,13.58,25.62,15.26,9.55,1.66,18.51-.54,25.24-6.19,6.73-5.65,10.44-14.09,10.46-23.78.02-9.82-3.74-19.72-10.59-27.88-9.8-11.67-24.02-17.55-37.11-15.33-4.16.71-7.87.39-11.02-.94-.85-.36-1.76-.54-2.69-.54Z"/>
    <g>
      <path class="cls-3" d="m87.38,89.35s4.83,2.75,11.45,1.38"/>
      <path class="cls-6" d="m95.1,93.11c-5.08,0-8.53-1.92-8.71-2.02-.96-.55-1.3-1.77-.75-2.73.54-.96,1.76-1.29,2.72-.75.09.05,4.36,2.35,10.06,1.16,1.08-.23,2.14.47,2.37,1.55.23,1.08-.47,2.14-1.55,2.37-1.46.3-2.85.43-4.13.43Z"/>
    </g>
    <path class="cls-4" d="m75.98,34.22c-.42,0-.85-.13-1.21-.41-4.65-3.53-13.1-2.55-15.96-1.87-3.52.83-7.87.05-8.05.02-1.09-.2-1.81-1.24-1.61-2.33.2-1.09,1.24-1.8,2.33-1.61.1.02,3.75.65,6.42.02.5-.12,12.21-2.79,19.29,2.58.88.67,1.05,1.92.38,2.8-.39.52-.99.79-1.59.79Z"/>
    <path class="cls-5" d="m63.55,76.09s-2.84,30.26-30.33,30.26S2,76.09,2,76.09"/>
    <path class="cls-4" d="m8.78,77.01c1.89,7.26,7.74,21.77,24.36,21.77s22.07-14.51,23.75-21.77H8.78Z"/>
    <g>
      <path class="cls-5" d="m40.73,79.76l7.25,5.45c.99.74,2.41.36,2.92-.77.99-2.21,1.56-4.3,1.89-5.81.26-1.2-.65-2.33-1.88-2.33h-9.03c-1.84,0-2.63,2.35-1.15,3.46Z"/>
      <path class="cls-5" d="m30.31,82.58l-8.34,7.66c-.92.84-.8,2.33.24,3.02,2.28,1.52,5.07,2.62,8.49,2.98,1.12.12,2.09-.79,2.09-1.92v-10.65c0-1.28-1.52-1.95-2.47-1.09Z"/>
      <path class="cls-5" d="m37.4,81.44c-.5-.41-1.25-.02-1.19.63l1.13,11.56c.12,1.25,1.4,2.04,2.59,1.62,2.51-.89,4.54-2.25,6.2-3.84.81-.78.73-2.11-.14-2.83l-8.6-7.14Z"/>
      <path class="cls-5" d="m27.92,79.7c1.39-1.15.57-3.4-1.22-3.4h-11.98c-1.25,0-2.17,1.17-1.87,2.38.47,1.87,1.34,4.63,2.9,7.4.74,1.31,2.49,1.64,3.65.67,3.1-2.56,8.52-7.06,8.52-7.06Z"/>
    </g>
    <path class="cls-6" d="m33.23,108.36C4.3,108.36.05,76.66.02,76.34c-.07-.57.11-1.14.49-1.57.38-.43.93-.67,1.5-.67h61.55c.56,0,1.1.24,1.48.65.38.42.56.97.51,1.53-.03.32-3.35,32.08-32.32,32.08Zm-28.82-30.26c.6,2.71,1.94,7.51,4.7,12.24,5.42,9.31,13.54,14.03,24.13,14.03s18.59-4.74,23.72-14.09c2.6-4.74,3.78-9.5,4.28-12.17H4.4Z"/>
    <path class="cls-4" d="m81.42,38.63c-.54,0-1.04-.21-1.42-.59-.38-.38-.58-.88-.58-1.41s.21-1.04.58-1.42c.75-.74,2.08-.74,2.83,0,.37.38.59.89.59,1.42s-.21,1.03-.59,1.41c-.38.38-.88.59-1.41.59Z"/>
  </g>
</svg>