<?xml version="1.0" encoding="UTF-8"?>
<svg id="flatten_icons" data-name="flatten icons" xmlns="http://www.w3.org/2000/svg" viewBox="0 0 112 112">
  <defs>
    <style>
      .cls-1 {
        fill: none;
      }

      .cls-1, .cls-2, .cls-3, .cls-4, .cls-5, .cls-6 {
        stroke-width: 0px;
      }

      .cls-2 {
        fill: #f3cf49;
      }

      .cls-3 {
        fill: #f2f7f8;
      }

      .cls-4 {
        fill: #e26f6b;
      }

      .cls-5 {
        fill: #8dbc76;
      }

      .cls-6 {
        fill: #004241;
      }
    </style>
  </defs>
  <g id="cle-usb">
    <rect class="cls-1" width="112" height="112"/>
    <g>
      <g>
        <rect class="cls-3" x="63.34" y="58.93" width="29.49" height="29.49" transform="translate(62.07 -32.48) rotate(38.09)"/>
        <path class="cls-6" d="m80.6,96.38c-.44,0-.88-.15-1.23-.43l-23.21-18.19c-.87-.68-1.02-1.94-.34-2.81l18.19-23.21c.68-.87,1.94-1.02,2.81-.34l23.21,18.19c.42.33.69.81.75,1.33.06.53-.08,1.06-.41,1.47l-18.19,23.21c-.33.42-.81.69-1.33.75-.08,0-.16.01-.24.01Zm-20.4-20.53l20.06,15.72,15.72-20.06-20.06-15.72-15.72,20.06Z"/>
      </g>
      <g>
        <path class="cls-2" d="m26.4,27.29h44.88c2.2,0,3.98,1.78,3.98,3.98v33.6c0,2.2-1.78,3.98-3.98,3.98H26.4c-6.28,0-11.38-5.1-11.38-11.38v-18.79c0-6.28,5.1-11.38,11.38-11.38Z" transform="translate(39.26 -17.61) rotate(38.09)"/>
        <path class="cls-6" d="m55.34,83.39c-1.29,0-2.59-.41-3.68-1.27h0l-35.32-27.68c-2.81-2.21-4.6-5.37-5.03-8.92-.43-3.55.55-7.05,2.75-9.87l11.59-14.79c2.21-2.81,5.37-4.6,8.92-5.03,3.55-.43,7.05.55,9.87,2.75l35.32,27.68c1.26.99,2.06,2.4,2.25,3.99.19,1.59-.24,3.15-1.23,4.41l-20.72,26.44c-1.18,1.5-2.94,2.29-4.71,2.29Zm-1.21-4.42c.86.67,2.1.52,2.78-.34l20.72-26.44c.33-.42.47-.93.41-1.46s-.33-.99-.74-1.32l-35.32-27.68c-1.97-1.55-4.43-2.23-6.92-1.93-2.49.3-4.71,1.55-6.26,3.53l-11.59,14.79c-1.55,1.97-2.23,4.43-1.93,6.92s1.55,4.71,3.53,6.26l35.32,27.68Z"/>
      </g>
      <g>
        <line class="cls-3" x1="81.05" y1="69.89" x2="83.45" y2="71.77"/>
        <path class="cls-6" d="m83.45,73.77c-.43,0-.87-.14-1.23-.43l-2.4-1.88c-.87-.68-1.02-1.94-.34-2.81.68-.87,1.94-1.02,2.81-.34l2.4,1.88c.87.68,1.02,1.94.34,2.81-.39.5-.98.77-1.58.77Z"/>
      </g>
      <g>
        <line class="cls-3" x1="75.13" y1="77.45" x2="77.53" y2="79.33"/>
        <path class="cls-6" d="m77.53,81.33c-.43,0-.87-.14-1.23-.43l-2.4-1.88c-.87-.68-1.02-1.94-.34-2.81.68-.87,1.94-1.02,2.81-.34l2.4,1.88c.87.68,1.02,1.94.34,2.81-.39.5-.98.77-1.58.77Z"/>
      </g>
      <g>
        <path class="cls-4" d="m57.95,31.72l-14.97-11.73c-4.83-3.78-11.81-2.94-15.59,1.89l-9.56,12.2s19.21,21.01,40.12-2.36Z"/>
        <path class="cls-6" d="m36.98,44.75c-11.96,0-20.28-8.94-20.63-9.32-.66-.72-.7-1.81-.1-2.58l9.56-12.2c2.16-2.76,5.26-4.5,8.74-4.93,3.48-.42,6.91.54,9.66,2.69l14.97,11.73c.44.34.71.85.76,1.4.05.55-.13,1.1-.5,1.51-6.91,7.72-14.42,11.66-22.33,11.7-.04,0-.09,0-.13,0Zm-16.46-10.87c2.51,2.22,8.69,6.87,16.46,6.87.05,0,.09,0,.14,0,6.19-.05,12.19-3.01,17.88-8.81l-13.25-10.38c-1.91-1.5-4.3-2.17-6.71-1.87-2.41.29-4.57,1.51-6.07,3.42l-8.45,10.78Z"/>
      </g>
      <g>
        <path class="cls-5" d="m68.85,66.65s-19.65-19.16-34.93-.98l18.96,14.86c1.74,1.37,4.26,1.06,5.63-.68l10.34-13.2Z"/>
        <path class="cls-6" d="m55.34,83.38c-1.3,0-2.6-.42-3.7-1.28l-18.96-14.86c-.43-.33-.7-.83-.76-1.37s.11-1.08.46-1.49c4.5-5.36,9.83-8.22,15.81-8.52,11.73-.57,21.63,8.95,22.05,9.35.73.71.81,1.86.18,2.67l-10.35,13.2c-1.18,1.51-2.95,2.3-4.73,2.3Zm-18.5-17.96l17.27,13.54c.42.33.95.48,1.48.41.53-.06,1.01-.33,1.34-.75l9.18-11.71c-2.89-2.36-10.04-7.46-17.73-7.05-4.24.21-8.11,2.08-11.54,5.56Z"/>
      </g>
    </g>
  </g>
</svg>