<svg xmlns="http://www.w3.org/2000/svg" id="flatten_icons" data-name="flatten icons" viewBox="0 0 112 112"><defs><style>.cls-3,.cls-6{stroke-width:0}.cls-3{fill:#f2f7f8}.cls-6{fill:#004241}</style></defs><g id="cle-usb"><path d="M0 0h112v112H0z" style="fill:none;stroke-width:0"/><path d="m75.567 52.975 23.21 18.192-18.192 23.21-23.21-18.192z" class="cls-3"/><path d="M80.6 96.38c-.44 0-.88-.15-1.23-.43L56.16 77.76a2.003 2.003 0 0 1-.34-2.81l18.19-23.21c.68-.87 1.94-1.02 2.81-.34l23.21 18.19c.42.33.69.81.75 1.33.06.53-.08 1.06-.41 1.47L82.18 95.6c-.33.42-.81.69-1.33.75-.08 0-.16.01-.24.01ZM60.2 75.85l20.06 15.72 15.72-20.06-20.06-15.72z" class="cls-6"/><path d="M26.4 27.29h44.88c2.2 0 3.98 1.78 3.98 3.98v33.6c0 2.2-1.78 3.98-3.98 3.98H26.4c-6.28 0-11.38-5.1-11.38-11.38V38.68c0-6.28 5.1-11.38 11.38-11.38Z" style="stroke-width:0;fill:#f3cf49" transform="rotate(38.09 45.136 48.06)"/><path d="M55.34 83.39c-1.29 0-2.59-.41-3.68-1.27L16.34 54.44c-2.81-2.21-4.6-5.37-5.03-8.92s.55-7.05 2.75-9.87l11.59-14.79c2.21-2.81 5.37-4.6 8.92-5.03s7.05.55 9.87 2.75l35.32 27.68c1.26.99 2.06 2.4 2.25 3.99s-.24 3.15-1.23 4.41L60.06 81.1a5.99 5.99 0 0 1-4.71 2.29Zm-1.21-4.42c.86.67 2.1.52 2.78-.34l20.72-26.44c.33-.42.47-.93.41-1.46s-.33-.99-.74-1.32L41.98 21.73a9.3 9.3 0 0 0-6.92-1.93c-2.49.3-4.71 1.55-6.26 3.53L17.21 38.12c-1.55 1.97-2.23 4.43-1.93 6.92s1.55 4.71 3.53 6.26l35.32 27.68Z" class="cls-6"/><path d="m81.05 69.89 2.4 1.88" class="cls-3"/><path d="M83.45 73.77c-.43 0-.87-.14-1.23-.43l-2.4-1.88a2.003 2.003 0 0 1-.34-2.81c.68-.87 1.94-1.02 2.81-.34l2.4 1.88a2.003 2.003 0 0 1-1.24 3.58" class="cls-6"/><path d="m75.13 77.45 2.4 1.88" class="cls-3"/><path d="M77.53 81.33c-.43 0-.87-.14-1.23-.43l-2.4-1.88a2.003 2.003 0 0 1-.34-2.81c.68-.87 1.94-1.02 2.81-.34l2.4 1.88a2.003 2.003 0 0 1-1.24 3.58" class="cls-6"/><path d="M57.95 31.72 42.98 19.99c-4.83-3.78-11.81-2.94-15.59 1.89l-9.56 12.2s19.21 21.01 40.12-2.36" style="stroke-width:0;fill:#e26f6b"/><path d="M36.98 44.75c-11.96 0-20.28-8.94-20.63-9.32-.66-.72-.7-1.81-.1-2.58l9.56-12.2c2.16-2.76 5.26-4.5 8.74-4.93 3.48-.42 6.91.54 9.66 2.69l14.97 11.73c.44.34.71.85.76 1.4s-.13 1.1-.5 1.51c-6.91 7.72-14.42 11.66-22.33 11.7zM20.52 33.88c2.51 2.22 8.69 6.87 16.46 6.87h.14c6.19-.05 12.19-3.01 17.88-8.81L41.75 21.56a9 9 0 0 0-6.71-1.87 9.06 9.06 0 0 0-6.07 3.42l-8.45 10.78Z" class="cls-6"/><path d="M68.85 66.65s-19.65-19.16-34.93-.98l18.96 14.86a4.01 4.01 0 0 0 5.63-.68z" style="stroke-width:0;fill:#8dbc76"/><path d="M55.34 83.38c-1.3 0-2.6-.42-3.7-1.28L32.68 67.24c-.43-.33-.7-.83-.76-1.37s.11-1.08.46-1.49c4.5-5.36 9.83-8.22 15.81-8.52 11.73-.57 21.63 8.95 22.05 9.35.73.71.81 1.86.18 2.67l-10.35 13.2a6 6 0 0 1-4.73 2.3m-18.5-17.96 17.27 13.54c.42.33.95.48 1.48.41.53-.06 1.01-.33 1.34-.75l9.18-11.71c-2.89-2.36-10.04-7.46-17.73-7.05-4.24.21-8.11 2.08-11.54 5.56" class="cls-6"/></g></svg>