<?xml version="1.0" encoding="UTF-8"?>
<svg id="flatten_icons" data-name="flatten icons" xmlns="http://www.w3.org/2000/svg" viewBox="0 0 112 112">
  <defs>
    <style>
      .cls-1 {
        fill: none;
      }

      .cls-1, .cls-2, .cls-3, .cls-4, .cls-5, .cls-6 {
        stroke-width: 0px;
      }

      .cls-2 {
        fill: #aad681;
      }

      .cls-3 {
        fill: #fff;
      }

      .cls-4 {
        fill: #e57e38;
      }

      .cls-5 {
        fill: #f28840;
      }

      .cls-6 {
        fill: #004241;
      }
    </style>
  </defs>
  <rect class="cls-1" width="112" height="112"/>
  <g>
    <path class="cls-5" d="m90.65,64.01c1.65,11.86-3.31,21.18-12.54,26.84-1.04.64-3.36,4.75-4.32,5.58-4.19,3.61-7.96,3.61-11.94,3.56-3.38-.04-6.84-3.55-10.07-3.16-15.71,1.9-28.45-8.72-30.47-23.17-2.44-17.52,11.99-27.52,31.13-30.19,19.15-2.67,35.74,2.83,38.2,20.52Z"/>
    <path class="cls-4" d="m78.11,90.85c9.23-5.66,14.19-14.98,12.54-26.84-.45-3.2-1.36-6-2.66-8.43-.82-1.53-2.88-1.88-4.21-.76l-6.33,5.31c-1,.84-1.28,2.26-.68,3.41l2.49,4.82c1.06,2.05-.69,4.43-2.97,4.02l-6.14-1.12c-2.06-.38-3.79,1.58-3.15,3.58l.09.28c.65,2.04-1.16,4.02-3.25,3.56l-3.12-.69c-1.51-.33-3,.63-3.32,2.14h0c-.52,2.42-3.7,3.01-5.05.93l-.7-1.07c-.9-1.39-2.81-1.69-4.09-.64l-6.01,4.91c-1.46,1.2-3.67.62-4.35-1.14l-.94-2.42c-.66-1.68-2.72-2.3-4.19-1.26l-4.68,3.29c-1.31.92-1.57,2.74-.59,4,5.55,7.15,14.62,11.35,24.98,10.09,3.23-.39,6.68,3.12,10.07,3.16,3.98.04,7.75.04,11.94-3.56.96-.83,3.28-4.94,4.32-5.58Z"/>
    <path class="cls-6" d="m63.06,102c-.42,0-.83,0-1.23,0-2.07-.02-4-.98-5.71-1.82-1.54-.76-3-1.49-4.1-1.35-16.38,1.98-30.44-8.71-32.69-24.88-2.35-16.86,10.23-29.29,32.84-32.44,10.42-1.45,19.58-.48,26.49,2.8,7.89,3.75,12.72,10.47,13.97,19.43h0c1.7,12.22-3.08,22.45-13.47,28.82-.3.25-1.26,1.67-1.84,2.52-.98,1.44-1.62,2.35-2.22,2.87-4.32,3.71-8.38,4.06-12.04,4.06Zm-10.78-7.2c2.01,0,3.91.94,5.6,1.78,1.45.72,2.83,1.4,3.98,1.41,3.73.05,6.95.08,10.62-3.08.26-.25,1.02-1.36,1.52-2.09,1.31-1.92,2.16-3.13,3.06-3.68,8.95-5.49,13.07-14.32,11.6-24.86h0c-1.07-7.67-5.01-13.18-11.72-16.37-6.21-2.95-14.58-3.79-24.22-2.45-20.47,2.85-31.47,13.29-29.43,27.93,1.94,13.95,14.09,23.17,28.25,21.46.25-.03.5-.04.75-.04Z"/>
    <path class="cls-6" d="m47.96,49.75c-.89,0-1.7-.6-1.93-1.5-.01-.04-1.11-4.13-3.82-8.17-3.47-5.16-7.86-7.85-13.05-7.98-1.1-.03-1.98-.95-1.95-2.05.03-1.09.92-1.95,2-1.95.02,0,.03,0,.05,0,15.59.39,20.44,18.38,20.64,19.15.28,1.07-.36,2.16-1.43,2.44-.17.04-.34.06-.5.06Z"/>
    <g>
      <path class="cls-2" d="m40.91,33.88s4.16-15.42,35.11-21.88c0,0-2.07,20.8-35.11,21.88Z"/>
      <path class="cls-6" d="m40.91,35.88c-.61,0-1.19-.28-1.57-.76-.39-.5-.53-1.15-.36-1.76.18-.68,4.84-16.68,36.64-23.32.62-.13,1.27.04,1.75.47.47.43.72,1.05.65,1.69-.02.23-2.65,22.55-37.04,23.68-.02,0-.04,0-.07,0Zm32.36-21.21c-13.3,3.25-20.77,8.19-24.76,11.89-2.1,1.95-3.46,3.75-4.32,5.13,20.82-1.66,27.19-11.92,29.08-17.02Z"/>
    </g>
    <path class="cls-6" d="m51.77,98.84c-1.02,0-1.89-.78-1.99-1.81-.1-1.1.7-2.08,1.8-2.18.1,0,10.52-1.04,15.93-4.32.94-.57,2.17-.27,2.75.67.57.94.27,2.17-.67,2.75-6.19,3.76-17.16,4.83-17.62,4.88-.06,0-.13,0-.19,0Z"/>
    <path class="cls-6" d="m48.08,56c-4.27,0-6.26-2.44-6.37-2.58-.69-.87-.54-2.12.33-2.81.85-.68,2.09-.54,2.78.29.13.15,2.12,2.2,7.08.29,1.03-.4,2.19.12,2.58,1.15s-.12,2.19-1.15,2.58c-2.03.78-3.78,1.07-5.25,1.07Z"/>
    <path class="cls-3" d="m29.21,69.3c-.08,0-.16,0-.24-.01-1.1-.13-1.88-1.13-1.75-2.22.86-7.25,6.62-9.47,6.86-9.56,1.04-.38,2.19.14,2.57,1.18.38,1.03-.14,2.17-1.16,2.57-.19.07-3.73,1.55-4.3,6.29-.12,1.02-.98,1.76-1.98,1.76Z"/>
  </g>
</svg>