<?xml version="1.0" encoding="UTF-8"?>
<svg id="flatten_icons" data-name="flatten icons" xmlns="http://www.w3.org/2000/svg" viewBox="0 0 112 112">
  <defs>
    <style>
      .cls-1 {
        fill: none;
      }

      .cls-1, .cls-2, .cls-3, .cls-4 {
        stroke-width: 0px;
      }

      .cls-2 {
        fill: #d3d9dc;
      }

      .cls-3 {
        fill: #a5b6bc;
      }

      .cls-4 {
        fill: #004241;
      }
    </style>
  </defs>
  <g id="clim">
    <g id="area">
      <rect class="cls-1" width="112" height="112"/>
    </g>
    <g id="clim-2" data-name="clim">
      <g>
        <path class="cls-2" d="m39.25-11.62h29.07c4.79,0,8.67,3.89,8.67,8.67v74.65c0,4.79-3.89,8.67-8.67,8.67h-29.07c-2.35,0-4.25-1.91-4.25-4.25V-7.36c0-2.35,1.91-4.25,4.25-4.25Z" transform="translate(21.62 90.38) rotate(-90)"/>
        <path class="cls-4" d="m97.75,57.38H14.25c-3.45,0-6.25-2.8-6.25-6.25v-29.07c0-5.89,4.79-10.67,10.67-10.67h74.65c5.89,0,10.67,4.79,10.67,10.67v29.07c0,3.45-2.8,6.25-6.25,6.25ZM18.67,15.38c-3.68,0-6.67,2.99-6.67,6.67v29.07c0,1.24,1.01,2.25,2.25,2.25h83.5c1.24,0,2.25-1.01,2.25-2.25v-29.07c0-3.68-2.99-6.67-6.67-6.67H18.67Z"/>
      </g>
      <g>
        <path class="cls-3" d="m48.04,9.78h10.32c3.09,0,5.6,2.51,5.6,5.6v64.07c0,3.09-2.51,5.6-5.6,5.6h-10.32V9.78h0Z" transform="translate(8.58 103.42) rotate(-90)"/>
        <path class="cls-4" d="m93.64,57.38H18.36c-1.1,0-2-.9-2-2v-10.32c0-4.19,3.41-7.6,7.6-7.6h64.07c4.19,0,7.6,3.41,7.6,7.6v10.32c0,1.1-.9,2-2,2Zm-73.28-4h71.28v-8.32c0-1.99-1.62-3.6-3.6-3.6H23.96c-1.99,0-3.6,1.62-3.6,3.6v8.32Z"/>
      </g>
      <path class="cls-4" d="m92.6,49.18H19.4c-1.1,0-2-.9-2-2s.9-2,2-2h73.19c1.1,0,2,.9,2,2s-.9,2-2,2Z"/>
      <path class="cls-4" d="m46.6,33.79c-1.1,0-2-.9-2-2v-3.37c0-1.1.9-2,2-2s2,.9,2,2v3.37c0,1.1-.9,2-2,2Z"/>
      <path class="cls-4" d="m56,33.79c-1.1,0-2-.9-2-2v-3.37c0-1.1.9-2,2-2s2,.9,2,2v3.37c0,1.1-.9,2-2,2Z"/>
      <path class="cls-4" d="m65.4,33.79c-1.1,0-2-.9-2-2v-3.37c0-1.1.9-2,2-2s2,.9,2,2v3.37c0,1.1-.9,2-2,2Z"/>
      <path class="cls-4" d="m56,104.36c-1.1,0-2-.9-2-2v-38.43c0-1.1.9-2,2-2s2,.9,2,2v38.43c0,1.1-.9,2-2,2Z"/>
      <path class="cls-4" d="m40.22,96.9c-3.89,0-7.05-3.16-7.05-7.05,0-2.24,1.08-4.37,2.89-5.69.89-.65,2.14-.46,2.79.43.65.89.46,2.14-.43,2.79-.8.58-1.25,1.48-1.25,2.47,0,1.68,1.37,3.05,3.05,3.05,2.41,0,4.38-1.96,4.38-4.38v-24.59c0-1.1.9-2,2-2s2,.9,2,2v24.59c0,4.62-3.76,8.38-8.38,8.38Z"/>
      <path class="cls-4" d="m71.78,96.9c-4.62,0-8.38-3.76-8.38-8.38v-24.59c0-1.1.9-2,2-2s2,.9,2,2v24.59c0,2.41,1.96,4.38,4.38,4.38,1.68,0,3.05-1.37,3.05-3.05,0-1.18-.66-2.23-1.72-2.74-.99-.48-1.41-1.68-.92-2.67.48-.99,1.68-1.41,2.67-.92,2.41,1.17,3.97,3.66,3.97,6.34,0,3.89-3.16,7.05-7.05,7.05Z"/>
    </g>
  </g>
</svg>