<svg xmlns="http://www.w3.org/2000/svg" id="flatten_icons" data-name="flatten icons" viewBox="0 0 112 112"><defs><style>.cls-4{stroke-width:0;fill:#004241}</style></defs><g id="clim"><path id="area" d="M0 0h112v112H0z" style="fill:none;stroke-width:0"/><g id="clim-2" data-name="clim"><path d="M39.25-11.62h29.07c4.79 0 8.67 3.89 8.67 8.67V71.7c0 4.79-3.89 8.67-8.67 8.67H39.25c-2.35 0-4.25-1.91-4.25-4.25V-7.36c0-2.35 1.91-4.25 4.25-4.25Z" style="stroke-width:0;fill:#d3d9dc" transform="rotate(-90 56 34.38)"/><path d="M97.75 57.38h-83.5c-3.45 0-6.25-2.8-6.25-6.25V22.06c0-5.89 4.79-10.67 10.67-10.67h74.65c5.89 0 10.67 4.79 10.67 10.67v29.07c0 3.45-2.8 6.25-6.25 6.25Zm-79.08-42c-3.68 0-6.67 2.99-6.67 6.67v29.07c0 1.24 1.01 2.25 2.25 2.25h83.5c1.24 0 2.25-1.01 2.25-2.25V22.05c0-3.68-2.99-6.67-6.67-6.67z" class="cls-4"/><path d="M48.04 9.78h10.32c3.09 0 5.6 2.51 5.6 5.6v64.07c0 3.09-2.51 5.6-5.6 5.6H48.04z" style="stroke-width:0;fill:#a5b6bc" transform="rotate(-90 56 47.42)"/><path d="M93.64 57.38H18.36c-1.1 0-2-.9-2-2V45.06c0-4.19 3.41-7.6 7.6-7.6h64.07c4.19 0 7.6 3.41 7.6 7.6v10.32c0 1.1-.9 2-2 2Zm-73.28-4h71.28v-8.32c0-1.99-1.62-3.6-3.6-3.6H23.96c-1.99 0-3.6 1.62-3.6 3.6z" class="cls-4"/><path d="M92.6 49.18H19.4c-1.1 0-2-.9-2-2s.9-2 2-2h73.19c1.1 0 2 .9 2 2s-.9 2-2 2Zm-46-15.39c-1.1 0-2-.9-2-2v-3.37c0-1.1.9-2 2-2s2 .9 2 2v3.37c0 1.1-.9 2-2 2m9.4 0c-1.1 0-2-.9-2-2v-3.37c0-1.1.9-2 2-2s2 .9 2 2v3.37c0 1.1-.9 2-2 2m9.4 0c-1.1 0-2-.9-2-2v-3.37c0-1.1.9-2 2-2s2 .9 2 2v3.37c0 1.1-.9 2-2 2M56 104.36c-1.1 0-2-.9-2-2V63.93c0-1.1.9-2 2-2s2 .9 2 2v38.43c0 1.1-.9 2-2 2M40.22 96.9c-3.89 0-7.05-3.16-7.05-7.05 0-2.24 1.08-4.37 2.89-5.69a1.997 1.997 0 0 1 2.36 3.22 3.01 3.01 0 0 0-1.25 2.47c0 1.68 1.37 3.05 3.05 3.05 2.41 0 4.38-1.96 4.38-4.38V63.93c0-1.1.9-2 2-2s2 .9 2 2v24.59c0 4.62-3.76 8.38-8.38 8.38m31.56 0c-4.62 0-8.38-3.76-8.38-8.38V63.93c0-1.1.9-2 2-2s2 .9 2 2v24.59c0 2.41 1.96 4.38 4.38 4.38 1.68 0 3.05-1.37 3.05-3.05 0-1.18-.66-2.23-1.72-2.74a1.99 1.99 0 0 1-.92-2.67c.48-.99 1.68-1.41 2.67-.92a7.09 7.09 0 0 1 3.97 6.34c0 3.89-3.16 7.05-7.05 7.05Z" class="cls-4"/></g></g></svg>