<svg xmlns="http://www.w3.org/2000/svg" width="20" height="24" fill="none"><path fill="#FFDC49" d="M13.452 10.697c1.413-.997 2.33-2.59 2.33-4.39 0-3.025-2.59-5.479-5.787-5.479C6.8.828 4.21 3.282 4.21 6.307c0 1.8.917 3.389 2.33 4.39-1.835 1.093-3.057 3.017-3.057 5.218v6.315h13.022v-6.315c0-2.201-1.222-4.13-3.056-5.218z"/><path fill="#004241" d="M16.509 23.057H3.492c-.479 0-.87-.373-.87-.828v-6.314c0-2.053.935-3.96 2.544-5.28-1.17-1.163-1.822-2.69-1.822-4.329C3.344 2.83 6.33 0 10 0s6.657 2.83 6.657 6.306c0 1.639-.652 3.17-1.822 4.328 1.613 1.32 2.544 3.224 2.544 5.28v6.315c0 .455-.392.828-.87.828M4.357 21.4h11.282v-5.486c0-1.842-.99-3.534-2.647-4.52a.83.83 0 0 1-.41-.67.82.82 0 0 1 .353-.699c1.261-.89 1.983-2.247 1.983-3.724 0-2.565-2.205-4.651-4.918-4.651S5.083 3.737 5.083 6.302c0 1.477.722 2.835 1.983 3.724.23.162.36.426.352.7a.83.83 0 0 1-.409.67c-1.656.985-2.648 2.677-2.648 4.518v5.487z"/><path fill="#9FDECF" d="M19.13 23.174c0-4.776-4.087-8.649-9.13-8.649S.87 18.398.87 23.174"/><path fill="#004241" d="M19.13 24c-.478 0-.87-.372-.87-.827 0-4.312-3.704-7.82-8.26-7.82-4.557 0-8.26 3.508-8.26 7.82 0 .455-.392.828-.87.828-.479 0-.87-.373-.87-.828 0-5.226 4.487-9.476 10-9.476s10 4.25 10 9.476c0 .455-.391.828-.87.828"/><path fill="#FFDC49" d="M14.774 23.173c0-2.495-2.139-4.523-4.773-4.523s-4.774 2.024-4.774 4.523"/><path fill="#004241" d="M14.774 24c-.478 0-.87-.372-.87-.827 0-2.036-1.752-3.696-3.904-3.696s-3.904 1.656-3.904 3.696c0 .455-.392.827-.87.827s-.87-.372-.87-.827c0-2.95 2.53-5.35 5.644-5.35 3.113 0 5.643 2.4 5.643 5.35 0 .455-.39.827-.87.827"/><path fill="#FFDC49" d="m2.356 19.518 1.087-.253c1.048-.244 1.783-1.134 1.783-2.151v-.981c0-.348-.296-.63-.661-.63h-1.63c-1.079 0-1.892.92-1.705 1.925L1.521 19c.07.373.457.609.84.518z"/><path fill="#004241" d="M2.195 20.364c-.3 0-.6-.083-.852-.24a1.48 1.48 0 0 1-.682-.981L.369 17.57a2.37 2.37 0 0 1 .565-2.01 2.65 2.65 0 0 1 1.996-.886h1.63c.844 0 1.531.654 1.531 1.456v.981c0 1.407-1.004 2.624-2.443 2.959l-1.087.252a1.6 1.6 0 0 1-.37.041zm.74-4.035a.87.87 0 0 0-.666.294.76.76 0 0 0-.187.658l.257 1.386.9-.211c.656-.153 1.117-.708 1.117-1.35v-.777H2.93z"/><path fill="#FFDC49" d="m17.79 19.518-1.087-.253c-1.047-.244-1.782-1.134-1.782-2.151v-.981c0-.348.296-.63.66-.63h1.631c1.079 0 1.892.92 1.704 1.925L18.627 19c-.07.373-.457.609-.84.518z"/><path fill="#004241" d="M17.952 20.364a1.6 1.6 0 0 1-.37-.042l-1.087-.252c-1.439-.335-2.443-1.552-2.443-2.959v-.98c0-.803.687-1.457 1.53-1.457h1.63c.774 0 1.5.323 1.996.885.492.559.7 1.291.566 2.011l-.292 1.573a1.47 1.47 0 0 1-.682.98 1.63 1.63 0 0 1-.853.24zm-2.161-4.035v.778c0 .641.46 1.196 1.117 1.349l.9.21.257-1.385a.76.76 0 0 0-.187-.658.88.88 0 0 0-.665-.294h-1.427z"/></svg>