<?xml version="1.0" encoding="UTF-8"?>
<svg id="outline_icons" xmlns="http://www.w3.org/2000/svg" viewBox="0 0 112 112">
  <defs>
    <style>
      .cls-1 {
        fill: none;
      }

      .cls-2 {
        fill: #ce8b4e;
      }

      .cls-3 {
        fill: #eac178;
      }

      .cls-4 {
        fill: #87634b;
      }

      .cls-5 {
        fill: #004241;
      }
    </style>
  </defs>
  <g id="cookies">
    <g>
      <path class="cls-3" d="M106,38.52c0,14.62-8.28,24.43-38.52,26.47-21.23,1.43-38.52-11.85-38.52-26.47s16.8-25.61,38.52-26.47c24.81-.98,38.52,11.85,38.52,26.47Z"/>
      <path class="cls-5" d="M64.42,67.09c-11.07,0-21.69-3.86-28.92-10.62-5.51-5.15-8.55-11.53-8.55-17.95,0-15.57,17.01-27.54,40.44-28.47,13.66-.54,25.25,3.05,32.6,10.12,5.16,4.96,8,11.47,8,18.34,0,17.81-12.46,26.58-40.39,28.46-1.06.07-2.13.11-3.19.11ZM70.08,14c-.83,0-1.67.02-2.52.05-20.87.83-36.6,11.35-36.6,24.47,0,5.3,2.59,10.64,7.28,15.03,7.12,6.66,18.01,10.19,29.11,9.44,32.22-2.17,36.66-13.04,36.66-24.47,0-5.85-2.34-11.2-6.77-15.46-6.12-5.88-15.69-9.06-27.15-9.06Z"/>
    </g>
    <g>
      <path class="cls-3" d="M86.1,75.66c1.64,14.14-14.41,25.6-44.67,23.94-21.25-1.17-36.94-16.46-35.32-30.98,1.63-14.52,19.53-23.39,41.2-21.6,24.76,2.04,37.1,14.13,38.78,28.64Z"/>
      <path class="cls-5" d="M47.21,101.76c-1.91,0-3.87-.05-5.89-.17-12.2-.67-23.68-6.03-30.71-14.35-4.89-5.78-7.2-12.48-6.48-18.85,1.73-15.47,19.96-25.31,43.36-23.37,23.45,1.94,38.62,13.3,40.6,30.4h0c.64,5.55-1.15,10.75-5.18,15.03-6.93,7.36-19.48,11.3-35.7,11.3ZM41.89,48.79c-18.31,0-32.45,8.15-33.79,20.05-.59,5.27,1.38,10.89,5.56,15.82,6.34,7.49,16.76,12.33,27.88,12.94,17.62.97,31.63-2.63,38.45-9.88,3.2-3.4,4.62-7.49,4.12-11.83h0c-.84-7.23-6.11-24.33-36.96-26.88-1.79-.15-3.55-.22-5.27-.22Z"/>
    </g>
    <g>
      <path class="cls-3" d="M106,38.52c0,14.62-8.22,26.47-38.52,26.47-24.65,0-38.52-11.85-38.52-26.47"/>
      <path class="cls-5" d="M67.48,66.99c-27.99,0-40.52-14.3-40.52-28.47,0-1.1.9-2,2-2s2,.9,2,2c0,14.63,14.68,24.47,36.52,24.47,24.92,0,36.52-7.77,36.52-24.47,0-1.1.9-2,2-2s2,.9,2,2c0,19.16-13.25,28.47-40.52,28.47Z"/>
    </g>
    <path class="cls-2" d="M44.1,51.94c-2.26,1.12-4.73-.97-4.22-3.52.28-1.36.79-2.77,1.7-3.98,2.29-3.05,5.14-4.71,6.22-5.27.29-.15.49-.41.56-.74l1.97-8.54c.08-.36.34-.66.67-.79l1.31-.5c.71-.27,1.45.3,1.43,1.08l-.36,12.46c-.02.66.51,1.19,1.14,1.15l9.29-.65c.8-.06,1.37.79,1.05,1.56l-.8,1.91c-.17.41-.55.67-.98.67h-10.45s-.07,0-.11,0l-5.05-.53c-.47-.05-.91.23-1.09.68l-1.76,4.43c-.1.26-.29.46-.53.58h0Z"/>
    <path class="cls-2" d="M36.67,71.12c2.03-1.46,1.61-4.74-.73-5.56-1.28-.45-2.72-.7-4.2-.49-3.67.54-3.3,2.47-4.31,3.17-.27.18-3.76.04-4.06-.06l-8.04-2.52c-.34-.11-.72-.03-.99.21l-1.07.94c-.58.51-.49,1.46.18,1.84l3.34,1.89c.36.21.78.29,1.19.23l1.79-.25c1.12-.16,2.14.71,2.22,1.89h0c.05.7.43,1.33,1.02,1.66l.91.51c.55.31.73,1.06.38,1.61l-5.21,8.07c-.45.69-.03,1.64.76,1.73l1.98.24c.42.05.83-.16,1.05-.55l5.26-9.45s.03-.07.05-.1l2.1-4.83c.19-.45.65-.71,1.11-.64l4.54.64c.26.04.53-.03.75-.19h0Z"/>
    <path class="cls-2" d="M100.5,43.43l-4.36-3.01c-.14-.1-.3-.15-.46-.17l-6.58-.72c-.28-.03-.53-.18-.7-.41l-3.23-4.3c-.3-.39-.81-.52-1.25-.31l-.21.1c-.5.25-.72.86-.51,1.39l2.9,7.27c.17.44.06.94-.29,1.24l-2.67,2.34c-.07.06-.15.11-.23.15l-4.41,2.12c-.4.19-.63.62-.6,1.07l.4,4.72c.05.56.49.98,1.03.98h.85c.42,0,.8-.27.96-.68l.7-1.84c.08-.2.21-.38.39-.5l3.04-2.09c.1-.07.22-.12.34-.15l6.02-1.41c.58-.13.93-.75.77-1.34l-.65-2.44c-.18-.68.3-1.36.98-1.37l4.89-.08c.25,0,.49.09.68.26l.98.87c.47.42,1.19.31,1.53-.24h0c.31-.5.17-1.16-.3-1.48Z"/>
    <g>
      <path class="cls-4" d="M60.62,27.81c0,2.75-2.96,4.99-6.61,4.99s-6.61-2.23-6.61-4.99,2.96-6.08,6.61-6.08,6.61,3.33,6.61,6.08Z"/>
      <path class="cls-5" d="M54,34.8c-4.75,0-8.61-3.13-8.61-6.99s3.76-8.08,8.61-8.08,8.61,4.35,8.61,8.08-3.86,6.99-8.61,6.99ZM54,23.73c-2.55,0-4.61,2.47-4.61,4.08s2.16,2.99,4.61,2.99,4.61-1.4,4.61-2.99-2.07-4.08-4.61-4.08Z"/>
    </g>
    <g>
      <path class="cls-4" d="M100.96,21.93c0,2.75-2.96,4.99-6.61,4.99s-6.61-2.23-6.61-4.99,2.96-6.08,6.61-6.08,6.61,3.33,6.61,6.08Z"/>
      <path class="cls-5" d="M94.35,28.91c-4.75,0-8.61-3.13-8.61-6.99s3.76-8.08,8.61-8.08,8.61,4.35,8.61,8.08-3.86,6.99-8.61,6.99ZM94.35,17.84c-2.55,0-4.61,2.47-4.61,4.08s2.16,2.99,4.61,2.99,4.61-1.4,4.61-2.99-2.07-4.08-4.61-4.08Z"/>
    </g>
    <g>
      <path class="cls-4" d="M84.51,42.52c0,2.75-2.96,4.99-6.61,4.99s-6.61-2.23-6.61-4.99,2.96-6.08,6.61-6.08,6.61,3.33,6.61,6.08Z"/>
      <path class="cls-5" d="M77.9,49.51c-4.75,0-8.61-3.13-8.61-6.99s3.76-8.08,8.61-8.08,8.61,4.35,8.61,8.08-3.86,6.99-8.61,6.99ZM77.9,38.43c-2.55,0-4.61,2.47-4.61,4.08s2.16,2.99,4.61,2.99,4.61-1.4,4.61-2.99-2.07-4.08-4.61-4.08Z"/>
    </g>
    <g>
      <path class="cls-4" d="M28.21,55.53c0,2.75-2.96,4.99-6.61,4.99s-6.61-2.23-6.61-4.99,2.96-6.08,6.61-6.08,6.61,3.33,6.61,6.08Z"/>
      <path class="cls-5" d="M21.6,62.52c-4.75,0-8.61-3.13-8.61-6.99s3.76-8.08,8.61-8.08,8.61,4.35,8.61,8.08-3.86,6.99-8.61,6.99ZM21.6,51.45c-2.55,0-4.61,2.47-4.61,4.08s2.16,2.99,4.61,2.99,4.61-1.4,4.61-2.99-2.07-4.08-4.61-4.08Z"/>
    </g>
    <g>
      <path class="cls-4" d="M51.2,85.3c0,2.75-2.96,4.99-6.61,4.99s-6.61-2.23-6.61-4.99,2.96-6.08,6.61-6.08,6.61,3.33,6.61,6.08Z"/>
      <path class="cls-5" d="M44.59,92.29c-4.75,0-8.61-3.13-8.61-6.99s3.76-8.08,8.61-8.08,8.61,4.35,8.61,8.08-3.86,6.99-8.61,6.99ZM44.59,81.22c-2.55,0-4.61,2.47-4.61,4.08s2.16,2.99,4.61,2.99,4.61-1.4,4.61-2.99-2.07-4.08-4.61-4.08Z"/>
    </g>
    <g>
      <path class="cls-4" d="M78.18,79.77c0,2.75-2.96,4.99-6.61,4.99s-6.61-2.23-6.61-4.99,2.96-6.08,6.61-6.08,6.61,3.33,6.61,6.08Z"/>
      <path class="cls-5" d="M71.56,86.76c-4.75,0-8.61-3.13-8.61-6.99s3.76-8.08,8.61-8.08,8.61,4.35,8.61,8.08-3.86,6.99-8.61,6.99ZM71.56,75.68c-2.55,0-4.61,2.47-4.61,4.08s2.16,2.99,4.61,2.99,4.61-1.4,4.61-2.99-2.07-4.08-4.61-4.08Z"/>
    </g>
    <ellipse class="cls-2" cx="56.5" cy="73.97" rx="2.49" ry="2.61"/>
    <ellipse class="cls-2" cx="74.18" cy="23.16" rx="2.49" ry="2.61"/>
    <ellipse class="cls-2" cx="63.47" cy="55.48" rx="2.49" ry="2.61"/>
    <ellipse class="cls-2" cx="43.61" cy="71.36" rx="2.49" ry="2.61"/>
    <g>
      <path class="cls-3" d="M92.56,91.71l-1.02,1.75c-.73,1.26-.25,2.89,1.05,3.54l3.5,1.77c.83.42,1.82.37,2.58-.17,1.17-.83,2.72-2.29,2.97-4.32.29-2.36-4-3.41-6.5-3.81-1.04-.17-2.06.33-2.59,1.24Z"/>
      <path class="cls-5" d="M97.27,101.06c-.7,0-1.41-.16-2.07-.5l-3.5-1.77c-1.11-.56-1.95-1.57-2.3-2.76-.35-1.19-.2-2.5.43-3.57l1.02-1.75c.94-1.62,2.81-2.51,4.64-2.21,7.21,1.18,8.42,3.93,8.16,6.03-.33,2.73-2.25,4.61-3.8,5.71-.76.54-1.66.82-2.57.82ZM94.75,92.44c-.18,0-.36.1-.46.27h0l-1.02,1.75c-.1.17-.08.32-.05.43s.1.24.27.33l3.5,1.77c.18.09.38.08.52-.02.72-.51,1.93-1.54,2.13-2.85-.25-.31-1.5-1.14-4.83-1.68-.03,0-.05,0-.08,0ZM92.56,91.71h0,0Z"/>
    </g>
    <g>
      <path class="cls-3" d="M9.41,97.59l-.71.74c-.84.87-.93,2.23-.2,3.2l1.44,1.93c.47.63,1.21,1,1.99,1h1.46c1.5,0,2.66-1.33,2.46-2.81l-.23-1.7c-.11-.81-.62-1.52-1.35-1.88l-1.95-.98c-.97-.48-2.14-.28-2.89.5Z"/>
      <path class="cls-5" d="M13.38,106.46h-1.46c-1.41,0-2.75-.68-3.6-1.81l-1.44-1.93c-1.31-1.76-1.16-4.19.37-5.78l.71-.74h0c1.37-1.42,3.47-1.78,5.23-.9l1.95.97c1.33.66,2.24,1.93,2.44,3.4l.23,1.7c.18,1.28-.21,2.58-1.06,3.55s-2.08,1.53-3.38,1.53ZM10.85,98.98l-.71.74c-.16.17-.18.43-.04.62l1.44,1.93c.09.12.23.19.38.19h1.46c.18,0,.3-.09.36-.16s.14-.2.11-.38l-.23-1.7c-.02-.16-.12-.29-.26-.36l-1.95-.97c-.19-.09-.41-.06-.56.1Z"/>
    </g>
    <g>
      <path class="cls-3" d="M16.03,38.24l.7-.88c.82-1.04.7-2.43-.3-3.29l-1.98-1.69c-.64-.55-1.56-.79-2.46-.64l-1.68.27c-1.73.28-2.84,1.85-2.36,3.32l.55,1.68c.26.8.96,1.42,1.87,1.66l2.41.62c1.2.31,2.51-.12,3.25-1.05Z"/>
      <path class="cls-5" d="M13.56,41.39c-.43,0-.86-.05-1.29-.16l-2.41-.62c-1.57-.41-2.79-1.52-3.27-2.97l-.55-1.68c-.39-1.19-.23-2.51.44-3.61.75-1.22,2.02-2.07,3.5-2.31l1.68-.27c1.5-.24,2.99.16,4.08,1.1l1.97,1.69c1.81,1.55,2.06,4.15.57,6.04l-.7.88c-.96,1.22-2.48,1.91-4.04,1.91ZM12.53,33.69c-.07,0-.14,0-.21.02l-1.68.27c-.32.05-.59.22-.73.44-.1.16-.07.25-.05.29l.55,1.68c.05.15.23.28.47.34l2.41.62c.43.11.93-.04,1.18-.35,0,0,0,0,0,0l.7-.88c.24-.3.04-.47-.03-.53l-1.98-1.69c-.15-.13-.38-.2-.63-.2Z"/>
    </g>
    <rect class="cls-1" width="112" height="112"/>
  </g>
</svg>