<?xml version="1.0" encoding="UTF-8"?>
<svg id="flatten_icons" data-name="flatten icons" xmlns="http://www.w3.org/2000/svg" viewBox="0 0 112 112">
  <defs>
    <style>
      .cls-1 {
        fill: none;
      }

      .cls-1, .cls-2, .cls-3, .cls-4, .cls-5 {
        stroke-width: 0px;
      }

      .cls-2 {
        fill: #d8936c;
      }

      .cls-3 {
        fill: #eda87a;
      }

      .cls-4 {
        fill: #fbe4ac;
      }

      .cls-5 {
        fill: #004241;
      }
    </style>
  </defs>
  <rect class="cls-1" width="112" height="112"/>
  <g>
    <path class="cls-3" d="m79.93,31.75c.23-1.63.29-3.32.17-5.04-.82-11.91-11.23-19.3-23.14-20.12-14.12-.97-25.11,7.92-25.11,21.83,0,1.19.09,2.36.25,3.5,1.51,10.44-.68,21.08-5.54,30.44-2.72,5.23-4.08,11.28-3.63,17.67,1.18,16.73,11.44,29.97,32.54,29.97s33.7-13.64,33.7-32.38c0-5.57-1.37-10.82-3.8-15.43-4.91-9.32-6.87-20-5.43-30.44Z"/>
    <path class="cls-2" d="m85.36,62.19c-4.91-9.32-6.87-20-5.43-30.44.23-1.64.29-3.32.17-5.04-.32-4.62-2.08-8.55-4.81-11.69,1.2,5.18,2.46,13.74.2,17.37-4.16,6.67-9.46,18.23-.34,27.13,10.13,9.88,12.53,37.94-12.86,41.97-19.17,3.04-31.3-9.12-38.55-15.63,2.97,13.88,13.14,24.15,31.72,24.15,21.1,0,33.7-13.64,33.7-32.38,0-5.57-1.37-10.82-3.8-15.43Z"/>
    <path class="cls-5" d="m55.46,112c-20.22,0-33.13-11.9-34.53-31.83-.46-6.52.87-13,3.85-18.74,4.9-9.43,6.74-19.54,5.34-29.23-.18-1.25-.27-2.52-.27-3.78,0-6.84,2.56-13,7.19-17.33,5.07-4.73,12.19-7.03,20.06-6.49,13.9.96,24.18,9.99,25,21.98.13,1.83.06,3.67-.18,5.46-1.36,9.87.49,20.25,5.22,29.23,2.64,5.01,4.03,10.67,4.03,16.37,0,20.56-14.35,34.38-35.7,34.38Zm-.6-103.49c-5.96,0-11.26,1.92-15.09,5.5-3.88,3.62-5.92,8.6-5.92,14.41,0,1.07.08,2.15.23,3.21,1.53,10.53-.46,21.47-5.75,31.65-2.64,5.08-3.82,10.83-3.41,16.61,1.26,17.87,12.4,28.11,30.54,28.11,19.26,0,31.7-11.93,31.7-30.38,0-5.05-1.24-10.06-3.57-14.5-5.12-9.71-7.12-20.95-5.64-31.64h0c.21-1.52.26-3.08.16-4.63-.58-8.4-7.38-17.3-21.29-18.26-.66-.04-1.31-.07-1.96-.07Z"/>
    <g>
      <path class="cls-4" d="m51.98,6.49l1.26-4.49h5.66l5.41,1.72v4.68c0,1.04-.71,1.94-1.72,2.17-1.59.37-3.93.75-5.43.3-1.37-.41-2.96-1.21-4.11-1.84-.91-.5-1.35-1.56-1.07-2.56Z"/>
      <path class="cls-5" d="m58.84,13.08c-.86,0-1.61-.1-2.25-.29-1.24-.37-2.76-1.05-4.49-2-1.73-.95-2.57-2.94-2.03-4.85h0l1.26-4.49c.24-.86,1.03-1.46,1.93-1.46h5.66c.21,0,.41.03.61.09l5.41,1.72c.83.26,1.39,1.04,1.39,1.91v4.68c0,1.98-1.34,3.68-3.27,4.12-1.6.37-3.01.55-4.2.55Zm-4.93-6.06c-.03.11.01.21.1.26,1.47.81,2.76,1.39,3.72,1.67.81.24,2.45.12,4.41-.33.1-.02.17-.12.17-.23v-3.22l-3.72-1.18h-3.83l-.85,3.02Z"/>
    </g>
    <path class="cls-5" d="m40.59,95.67c-.9,0-1.72-.61-1.94-1.53-4.41-18.23-.74-25.29,2.21-30.96.77-1.48,1.43-2.75,1.87-4.1,1.68-5.15.77-16.25.23-22.88-.14-1.7-.26-3.16-.31-4.23-.31-5.98,3.06-11.42,3.2-11.65.59-.93,1.82-1.22,2.76-.63.93.59,1.22,1.82.63,2.75-.05.08-2.84,4.64-2.6,9.32.05,1.04.17,2.45.3,4.11.6,7.38,1.51,18.53-.42,24.44-.54,1.66-1.31,3.14-2.13,4.71-2.64,5.08-5.93,11.4-1.87,28.17.26,1.07-.4,2.16-1.47,2.42-.16.04-.32.06-.47.06Z"/>
    <path class="cls-5" d="m72.6,95.67c-.2,0-.4-.03-.6-.09-1.05-.33-1.64-1.45-1.31-2.5.52-1.66.96-3.26,1.31-4.78.75-3.23,1.14-6.21,1.15-8.85,0-1.1.9-1.99,2-1.99h0c1.1,0,2,.9,1.99,2.01-.01,2.94-.43,6.22-1.25,9.74-.37,1.61-.84,3.32-1.39,5.07-.27.86-1.06,1.41-1.91,1.41Z"/>
    <path class="cls-5" d="m73.97,73.63c-.84,0-1.62-.53-1.9-1.37-.95-2.84-2.38-4.98-3.77-7.04-1.06-1.58-2.06-3.06-2.76-4.74-2.52-6.01-1.34-17.22-.56-24.65.17-1.65.32-3.08.39-4.09.3-4.55-3.26-9.05-3.3-9.09-.69-.86-.56-2.12.3-2.81.86-.69,2.11-.56,2.81.3.19.23,4.59,5.74,4.18,11.87-.07,1.09-.23,2.55-.4,4.24-.69,6.59-1.85,17.62.27,22.68.56,1.32,1.41,2.59,2.39,4.06,1.46,2.18,3.12,4.65,4.24,8.01.35,1.05-.22,2.18-1.27,2.53-.21.07-.42.1-.63.1Z"/>
    <circle class="cls-2" cx="30.44" cy="79.98" r="2.17"/>
    <path class="cls-5" d="m51.9,75.39c-1.1,0-2-.9-2-2v-.99c0-1.1.9-2,2-2s2,.9,2,2v.99c0,1.1-.9,2-2,2Z"/>
    <path class="cls-5" d="m64.32,91.98c-.09,0-.19,0-.29-.02-1.09-.16-1.85-1.17-1.7-2.26l.14-.99c.16-1.09,1.17-1.85,2.26-1.7,1.09.16,1.85,1.17,1.7,2.26l-.14.99c-.14,1-1,1.72-1.98,1.72Z"/>
  </g>
</svg>