<?xml version="1.0" encoding="UTF-8"?>
<svg id="flatten_icons" data-name="flatten icons" xmlns="http://www.w3.org/2000/svg" viewBox="0 0 112 112">
  <defs>
    <style>
      .cls-1 {
        fill: none;
      }

      .cls-1, .cls-2, .cls-3, .cls-4, .cls-5, .cls-6 {
        stroke-width: 0px;
      }

      .cls-2 {
        fill: #579660;
      }

      .cls-3 {
        fill: #d3ddba;
      }

      .cls-4 {
        fill: #aad681;
      }

      .cls-5 {
        fill: #004241;
      }

      .cls-6 {
        fill: #67a367;
      }
    </style>
  </defs>
  <rect class="cls-1" width="112" height="112"/>
  <g>
    <g>
      <path class="cls-4" d="m12,30.69l-4.19,2.59c-.2-.32-2.73-14.42-2.73-14.42,0-.28-.06-.56-.17-.82l-2.76-6.2c-.58-1.31.35-2.81,1.77-2.81h1.4c.6,0,1.16-.28,1.53-.76l2.68-3.49c.62-.8,1.73-1,2.57-.45l2.51,1.63c.86.56,2,.34,2.61-.5h0c.91-1.27,2.83-1.01,3.38.46l2.12,5.7c.08.21.19.4.33.57l3.03,3.7c.39.47.54,1.1.41,1.7l-.52,2.45c-.12.57-.48,1.05-.98,1.33l-15.62,8.53c-.89.49,3.21,1.67,2.66.8Z"/>
      <path class="cls-5" d="m7.81,35.29c-.65,0-1.29-.33-1.66-.93-.26-.42-.41-.65-3.01-15.14-.02-.12-.03-.24-.03-.36L.35,12.67c-.55-1.24-.45-2.67.27-3.82s1.95-1.83,3.29-1.83h1.4l2.66-3.48c1.24-1.62,3.47-2.01,5.17-.9l2.5,1.63c.81-1.18,2.21-1.79,3.64-1.6,1.42.2,2.62,1.17,3.13,2.54l2.12,5.7,3.02,3.69c.77.94,1.08,2.22.82,3.42l-.52,2.45c-.24,1.15-.97,2.12-1.98,2.68l-12.13,6.62c.4.75.35,1.65-.13,2.32-.41.58-.98.83-1.54.9l-3.25,2.01c-.32.2-.67.29-1.02.29Zm-.77-16.65c.49,2.74,1.16,6.39,1.7,9.29l15.28-8.34.51-2.43-3.02-3.67c-.28-.34-.5-.72-.65-1.14l-2.13-5.7c-1.16,1.7-3.47,2.15-5.2,1.02l-2.5-1.63-2.64,3.49c-.75.97-1.87,1.53-3.07,1.53h-1.4l2.79,6.16c.2.45.32.94.35,1.44Z"/>
    </g>
    <path class="cls-2" d="m20.12,17.48c-17.61,2.04-14.85,23.47-.98,38.4,13.86,14.93,23.52,15.8,38.59,34.57,15.07,18.77,34.42,23.66,47.65,8.84,11.03-12.36,1.39-34.79-17.33-37.61-18.71-2.81-33.56-10.06-41.39-21.24-7.83-11.19-11.99-24.65-26.54-22.97Z"/>
    <path class="cls-6" d="m105.37,99.29c11.03-12.36,1.39-34.79-17.33-37.61s-33.56-10.06-41.38-21.24c-1.4-2-2.68-4.07-3.93-6.12-.35.38-.57.89-.55,1.47l.46,14.34c.04,1.11.92,1.98,2,1.98h2.11c.79,0,1.51.47,1.83,1.21l4.05,9.24c.32.74,1.04,1.21,1.83,1.21h12.4c.3,0,.59.07.86.2l9.7,4.72c.94.46,2.06.1,2.59-.81.74-1.28,2.52-1.36,3.36-.14l4.62,6.69c.05.07.09.14.13.22l1.65,3.16c.66,1.27-.13,2.83-1.52,3l-3.38.43c-1.78.23-2.4,2.55-.97,3.66l1.71,1.34c.67.52.94,1.42.7,2.24l-1.14,3.76c-.27.89.08,1.85.85,2.35l1.13.72c.69.44,1.05,1.26.91,2.08l-.59,3.57c-.17,1.02.43,2.01,1.4,2.31l8.1,2.5c2.98-1.43,5.81-3.57,8.4-6.47Z"/>
    <path class="cls-3" d="m107.57,79.52l-3.93-2.54c-2.05-1.33-4.74-.88-6.28,1.04-.7.87-1.08,1.97-1.08,3.1v1.13c0,1.42-.6,2.77-1.65,3.7l-1.83,1.63c-1.05.93-1.65,2.28-1.65,3.7v5.83c0,2.27,1.52,4.24,3.68,4.77l2.96.72c.36.09.74.13,1.11.13h2.84c1.25-1,2.47-2.15,3.63-3.45,4.34-4.87,5.47-11.29,4.11-17.47l-.27-.51c-.39-.73-.95-1.34-1.64-1.79Z"/>
    <path class="cls-5" d="m87.24,110c-.23,0-.45,0-.68,0-10.35-.28-21.13-6.76-30.37-18.26-8.26-10.29-14.69-14.97-21.51-19.92-5.28-3.84-10.75-7.82-16.99-14.54C8.19,47.02,3.73,33.75,6.85,24.99c1.36-3.81,4.72-8.56,13.05-9.52h0c12.81-1.48,18.48,7.86,23.96,16.89,1.39,2.29,2.83,4.67,4.4,6.9,7.26,10.38,21.49,17.63,40.07,20.42,10.24,1.54,18.75,8.67,22.22,18.62,2.85,8.18,1.46,16.53-3.72,22.34-5.47,6.13-12.23,9.35-19.58,9.35ZM20.34,19.48h0c-5.08.59-8.37,2.91-9.79,6.89-2.58,7.26,1.63,19.09,10.01,28.12,5.98,6.44,11.05,10.13,16.42,14.03,6.72,4.89,13.67,9.94,22.27,20.65,8.5,10.58,18.24,16.55,27.43,16.79,6.52.18,12.33-2.53,17.25-8.03,4.18-4.68,5.27-11.51,2.92-18.27-2.93-8.41-10.42-14.69-19.08-15.99-19.93-3-34.7-10.63-42.7-22.06-1.64-2.35-3.12-4.77-4.54-7.12-5.5-9.05-9.84-16.2-20.18-15.01Z"/>
    <g>
      <path class="cls-2" d="m14.24,31.49s2.75,6.43,5.45,9.83"/>
      <path class="cls-5" d="m19.69,43.33c-.57,0-1.14-.25-1.53-.74-2.84-3.57-5.61-10.02-5.73-10.29-.44-1.02.02-2.21,1.01-2.65,1-.45,2.16.02,2.59,1.04.03.06,2.68,6.22,5.17,9.37.69.86.56,2.13-.29,2.83-.36.3-.8.45-1.24.45Z"/>
    </g>
    <g>
      <line class="cls-2" x1="26.5" y1="47.69" x2="29.14" y2="50.48"/>
      <path class="cls-5" d="m29.14,52.5c-.51,0-1.03-.21-1.42-.61l-2.64-2.79c-.76-.8-.73-2.08.05-2.85.78-.77,2.03-.75,2.78.05l2.64,2.79c.76.8.73,2.08-.05,2.85-.38.38-.88.57-1.37.57Z"/>
    </g>
    <g>
      <line class="cls-2" x1="14.59" y1="5.96" x2="16.96" y2="10.83"/>
      <path class="cls-5" d="m16.96,12.84c-.72,0-1.42-.41-1.76-1.12l-2.37-4.87c-.49-1-.09-2.21.88-2.7.97-.49,2.16-.09,2.64.9l2.37,4.87c.49,1,.09,2.21-.88,2.7-.28.14-.58.21-.88.21Z"/>
    </g>
    <g>
      <line class="cls-2" x1="6.83" y1="8.27" x2="7.81" y2="11.99"/>
      <path class="cls-5" d="m7.81,14.01c-.87,0-1.66-.59-1.9-1.49l-.98-3.72c-.28-1.07.34-2.18,1.39-2.47,1.05-.3,2.13.35,2.41,1.42l.98,3.72c.28,1.07-.34,2.18-1.39,2.47-.17.05-.34.07-.51.07Z"/>
    </g>
    <path class="cls-4" d="m27.68,28.28c-.42,0-.85-.14-1.21-.43-1.07-.85-1.81-1.14-1.81-1.14-1.01-.38-1.54-1.53-1.18-2.57.36-1.04,1.46-1.59,2.48-1.23.21.07,1.36.51,2.94,1.77.86.68,1.01,1.95.34,2.83-.39.51-.97.78-1.55.78Z"/>
  </g>
</svg>