<?xml version="1.0" encoding="UTF-8"?>
<svg id="flatten_icons" data-name="flatten icons" xmlns="http://www.w3.org/2000/svg" viewBox="0 0 112 112">
  <defs>
    <style>
      .cls-1 {
        fill: none;
      }

      .cls-1, .cls-2, .cls-3, .cls-4 {
        stroke-width: 0px;
      }

      .cls-2 {
        fill: #73cc64;
      }

      .cls-3 {
        fill: #aad681;
      }

      .cls-4 {
        fill: #004241;
      }
    </style>
  </defs>
  <rect class="cls-1" y="0" width="112" height="112"/>
  <g>
    <g>
      <path class="cls-2" d="m61.03,17.37c2.51,8.9-3.38,15.62-12.27,18.13s-17.43-.14-19.94-9.04,1.72-21.51,10.61-24.02,19.09,6.03,21.6,14.93Z"/>
      <path class="cls-4" d="m42.56,38.41c-7.66,0-13.62-4.14-15.67-11.4-1.35-4.79-.94-10.66,1.1-15.7,2.27-5.62,6.14-9.45,10.89-10.79,4.75-1.34,10.05-.09,14.93,3.5,4.37,3.23,7.79,8.02,9.14,12.81,2.62,9.27-2.87,17.55-13.66,20.59-2.34.66-4.61.98-6.74.98Zm.09-34.4c-.91,0-1.8.12-2.68.36-7.64,2.16-11.46,13.65-9.23,21.55,2.43,8.6,10.93,9.5,17.47,7.66,6.54-1.85,13.32-7.06,10.89-15.66-1.97-6.99-9.46-13.91-16.45-13.91Z"/>
    </g>
    <path class="cls-4" d="m54.92,87.18c-.07,0-.13,0-.2,0-1.1-.11-1.9-1.09-1.79-2.19,2.48-24.64-2.33-39.98-4.52-45.43-1.34-3.36-2.55-6.91-3.59-10.55l-3.15-11.09c-.3-1.06.31-2.17,1.38-2.47,1.06-.3,2.17.31,2.47,1.38l3.15,11.09c1,3.51,2.16,6.93,3.45,10.16,2.85,7.11,7.26,22.72,4.78,47.32-.1,1.03-.97,1.8-1.99,1.8Z"/>
    <path class="cls-4" d="m46,27.83c-.3,0-.6-.07-.89-.21l-8.54-4.23c-.99-.49-1.39-1.69-.9-2.68.49-.99,1.69-1.39,2.68-.9l7.13,3.53,6.06-7.26c.71-.85,1.97-.96,2.82-.25s.96,1.97.25,2.82l-7.07,8.47c-.39.47-.96.72-1.54.72Z"/>
    <g>
      <path class="cls-3" d="m98.11,45.9c-2.61,8.87-11.17,11.42-20.04,8.82-8.87-2.61-14.68-9.39-12.07-18.26,2.61-8.87,12.9-17.3,21.76-14.69,8.87,2.61,12.95,15.27,10.35,24.13Z"/>
      <path class="cls-4" d="m84.47,57.69c-2.22,0-4.57-.35-6.97-1.06-4.98-1.47-8.93-4.07-11.4-7.54-2.74-3.83-3.44-8.4-2.03-13.2,1.4-4.78,4.88-9.53,9.28-12.71,4.92-3.54,10.23-4.73,14.96-3.34,4.73,1.39,8.56,5.27,10.77,10.91,1.99,5.06,2.33,10.93.93,15.71h0c-1.41,4.8-4.47,8.26-8.85,10.01-2.05.82-4.31,1.22-6.7,1.22Zm-.07-34.4c-6.96,0-14.45,6.8-16.49,13.73-1.07,3.63-.58,6.91,1.44,9.75,1.92,2.69,5.22,4.83,9.28,6.03,4.06,1.2,7.99,1.18,11.06-.04,3.24-1.29,5.42-3.78,6.49-7.42h0c1.16-3.95.86-8.86-.81-13.12-1.75-4.47-4.66-7.5-8.18-8.53-.91-.27-1.85-.39-2.79-.39Z"/>
    </g>
    <path class="cls-4" d="m56.85,102.06c-.43,0-.86-.14-1.23-.42-.87-.68-1.03-1.93-.35-2.81,14.66-18.84,19.04-33.69,20.35-40.87.65-3.55,1.51-7.2,2.58-10.84l3.23-11.07c.31-1.06,1.42-1.67,2.48-1.36,1.06.31,1.67,1.42,1.36,2.48l-3.23,11.07c-1.02,3.51-1.86,7.02-2.48,10.44-1.37,7.54-5.94,23.1-21.13,42.61-.39.51-.98.77-1.58.77Z"/>
    <path class="cls-4" d="m80.89,47.06c-.68,0-1.33-.35-1.71-.96l-4.98-8.13c-.58-.94-.28-2.17.66-2.75.94-.58,2.17-.28,2.75.66l4.15,6.78,8.99-2.92c1.05-.34,2.18.23,2.52,1.28.34,1.05-.23,2.18-1.28,2.52l-10.49,3.41c-.2.07-.41.1-.62.1Z"/>
    <g>
      <path class="cls-3" d="m42.51,49.97c6.98,6.06,5.75,14.91-.31,21.89s-14.64,9.45-21.63,3.39c-6.98-6.06-10.37-18.92-4.32-25.9,6.06-6.98,19.27-5.44,26.25.62Z"/>
      <path class="cls-4" d="m29.24,80.69c-3.58,0-6.98-1.33-9.98-3.93-3.76-3.26-6.64-8.39-7.7-13.72-1.18-5.94-.05-11.27,3.18-15,3.23-3.73,8.35-5.61,14.4-5.27,5.43.3,10.91,2.42,14.67,5.68,3.78,3.28,5.66,7.5,5.42,12.21-.21,4.25-2.12,8.58-5.53,12.5-3.4,3.92-7.41,6.43-11.6,7.24-.97.19-1.93.28-2.88.28Zm-1.42-33.92c-3.96,0-7.7,1.19-10.05,3.9-2.41,2.77-3.22,6.89-2.28,11.6.89,4.49,3.28,8.78,6.4,11.48,2.86,2.48,6.05,3.4,9.47,2.74,3.25-.63,6.56-2.74,9.34-5.93,2.77-3.2,4.39-6.78,4.56-10.08.17-3.48-1.19-6.5-4.05-8.99-3.4-2.95-8.56-4.71-13.38-4.71Z"/>
    </g>
    <path class="cls-4" d="m74.63,112c-.95,0-1.8-.69-1.97-1.66-6.23-35.93-44.95-48.78-45.34-48.91-1.05-.34-1.63-1.46-1.29-2.52.34-1.05,1.46-1.63,2.51-1.29.41.13,41.42,13.68,48.06,52.03.19,1.09-.54,2.12-1.63,2.31-.12.02-.23.03-.34.03Z"/>
    <path class="cls-4" d="m25.13,68.44c-.84,0-1.62-.53-1.9-1.37-.35-1.05.22-2.18,1.27-2.53l9.35-3.12v-7.09c0-1.1.9-2,2-2s2,.9,2,2v8.53c0,.86-.55,1.62-1.37,1.9l-10.72,3.57c-.21.07-.42.1-.63.1Z"/>
  </g>
</svg>