<?xml version="1.0" encoding="UTF-8"?>
<svg id="outline_icons" xmlns="http://www.w3.org/2000/svg" viewBox="0 0 112 112">
  <defs>
    <style>
      .cls-1 {
        fill: none;
      }

      .cls-2 {
        fill: #f48260;
      }

      .cls-3 {
        fill: #e07055;
      }

      .cls-4 {
        fill: #fff;
      }

      .cls-5 {
        fill: #004241;
      }
    </style>
  </defs>
  <g id="crevette">
    <g>
      <g>
        <path class="cls-2" d="M35.39,71.42s-2-5.72-.68-11.34c0,0-13.48-.83-16.83-11.08,0,0-5.15,3.26-5.32,14.21s4.45,12.42,4.45,12.42l9.1,2.65,9.28-6.85Z"/>
        <path class="cls-5" d="M26.11,80.27c-.19,0-.38-.03-.56-.08l-9.1-2.65c-.67-.21-6.08-2.28-5.89-14.38.19-11.9,6-15.72,6.25-15.87.52-.33,1.17-.4,1.75-.19.58.21,1.03.67,1.22,1.26,2.88,8.82,14.94,9.7,15.06,9.71.59.04,1.13.33,1.48.81s.48,1.08.34,1.65c-1.17,4.96.6,10.18.62,10.23.29.83,0,1.75-.7,2.27l-9.28,6.85c-.35.26-.77.39-1.19.39ZM17.68,73.74l8.04,2.34,7.37-5.44c-.47-1.84-1.1-5.21-.69-8.84-3.77-.65-11.37-2.73-15.11-9.25-1.21,1.81-2.63,5.12-2.72,10.69-.13,8.53,2.79,10.33,3.12,10.5ZM17.69,73.74s.02,0,.02,0c0,0,0,0-.02,0Z"/>
      </g>
      <g>
        <path class="cls-2" d="M41.67,79.83s-5.76-6.17-6.28-8.42-9.28,4.87-18.38,4.21c0,0,1.08,14.58,17.54,18.03"/>
        <path class="cls-5" d="M34.55,95.66c-.14,0-.27-.01-.41-.04-17.72-3.72-19.11-19.68-19.12-19.84-.04-.58.17-1.15.58-1.56.41-.41.98-.62,1.56-.58,4.76.35,9.5-1.68,12.95-3.17,2.89-1.24,4.48-1.92,5.92-1.19.67.34,1.14.94,1.31,1.7.25,1.04,3.25,4.79,5.79,7.5.75.81.71,2.07-.1,2.83-.81.75-2.07.71-2.83-.1-1.22-1.31-4.81-5.26-6.23-8-.65.24-1.53.61-2.29.94-3.08,1.32-7.5,3.22-12.28,3.5.99,3.86,4.36,11.71,15.56,14.07,1.08.23,1.77,1.29,1.55,2.37-.2.94-1.03,1.59-1.96,1.59Z"/>
      </g>
      <g>
        <path class="cls-2" d="M52.22,88.13s15.43-8.3,18.9-6.87,5.25,7.14,2.2,11.07c0,0,2.27,4.98,1.09,8.79-.87,2.79-4.04,4.14-6.76,3.08l-19.55-7.61"/>
        <path class="cls-5" d="M69.55,106.56c-.9,0-1.8-.17-2.65-.5l-19.55-7.6c-1.03-.4-1.54-1.56-1.14-2.59.4-1.03,1.56-1.54,2.59-1.14l19.55,7.6c.85.33,1.81.29,2.62-.1.74-.36,1.27-.96,1.5-1.71.78-2.51-.46-6.17-1-7.37-.3-.67-.21-1.47.24-2.05,1.07-1.38,1.41-3.19.94-4.96-.39-1.45-1.27-2.61-2.32-3.04-1.62-.46-9.5,2.64-17.19,6.78-.97.52-2.19.16-2.71-.81-.52-.97-.16-2.19.81-2.71,4.89-2.63,16.68-8.57,20.61-6.95,2.21.91,3.95,3.04,4.66,5.71.69,2.59.33,5.24-.97,7.45.69,1.87,1.8,5.75.75,9.15-.56,1.82-1.84,3.28-3.59,4.12-.99.48-2.08.72-3.17.72Z"/>
      </g>
      <g>
        <path class="cls-2" d="M50.93,87.52c.84.71,1.29,1.77,1.23,2.87-.17,3.03-.83,8.79-3.37,9.32-3.47.72-17.6-4.27-17.82-5.58s7.76-8.64,9.87-12.88c1.86-3.74,4.53,1.62,10.09,6.26Z"/>
        <path class="cls-5" d="M47.98,101.78c-4.86,0-15.25-3.83-17.63-5.46-.51-.35-1.2-.92-1.36-1.85-.25-1.5.75-2.71,4.25-6.67,2.15-2.43,4.82-5.46,5.8-7.43.68-1.37,1.62-2.15,2.79-2.33,2.12-.32,3.8,1.43,6.12,3.85,1.22,1.28,2.61,2.72,4.25,4.1,1.32,1.1,2.04,2.79,1.95,4.52-.39,6.9-2.01,10.55-4.96,11.17-.35.07-.75.11-1.21.11ZM33.56,93.57c3.33,1.63,12.63,4.65,14.82,4.19.44-.23,1.5-2.37,1.78-7.47.03-.47-.17-.93-.52-1.23h0c-1.81-1.52-3.34-3.11-4.57-4.4-.84-.88-1.85-1.93-2.49-2.42-1.24,2.43-3.95,5.5-6.34,8.21-.88.99-1.97,2.23-2.68,3.12Z"/>
      </g>
      <g>
        <path class="cls-2" d="M47.29,48.99s-6.12,9.26-12.57,11.08c-6.45,1.82-18.61-2.95-16.83-13.06s8.08-15.94,15.63-16.4c7.55-.46,11.45,2.16,13.78,8.18.97,2.49,1.16,8.59,0,10.2Z"/>
        <path class="cls-5" d="M31.74,62.45c-4.15,0-8.8-1.67-11.89-4.46-3.3-2.98-4.69-7-3.93-11.32,1.86-10.59,8.56-17.51,17.48-18.05,8.17-.5,13.04,2.42,15.77,9.45.98,2.53,1.57,9.49-.21,12.05-.46.69-6.71,9.91-13.68,11.88-1.09.31-2.29.46-3.52.46ZM35.15,32.56c-.49,0-.99.02-1.52.05-6.97.42-12.25,6.08-13.78,14.75-.53,3,.37,5.58,2.67,7.66,3.38,3.06,8.58,3.99,11.65,3.12,4.69-1.32,9.85-7.86,11.45-10.26.01-.02.02-.04.04-.05.62-1.05.59-6.19-.23-8.31-1.91-4.92-4.85-6.95-10.27-6.95Z"/>
      </g>
      <g>
        <line class="cls-2" x1="73.31" y1="92.33" x2="53.28" y2="93"/>
        <path class="cls-5" d="M53.28,95c-1.07,0-1.96-.85-2-1.93-.04-1.1.83-2.03,1.93-2.07l20.03-.67c1.11-.04,2.03.83,2.07,1.93.04,1.1-.83,2.03-1.93,2.07l-20.03.67s-.05,0-.07,0Z"/>
      </g>
      <g>
        <path class="cls-2" d="M36.98,41.8c-2.4-4.88-.86-10.9,3.71-13.85,2.99-1.93,7.21-3.33,12.91-2.6,14.04,1.8,15.58,4.39,25.84.75,0,0,1.71,12.89-6.64,17.97-7.49,4.55-27.39,14.88-35.82-2.27Z"/>
        <path class="cls-5" d="M51.82,53.34c-1.9,0-3.76-.23-5.56-.76-4.81-1.41-8.54-4.74-11.08-9.9h0c-2.89-5.87-.98-12.93,4.43-16.41,4.07-2.62,8.86-3.6,14.25-2.9,4.11.53,7.19,1.13,9.67,1.61,5.99,1.16,8.47,1.65,15.25-.76.57-.2,1.2-.14,1.71.18s.86.84.94,1.44c.08.58,1.78,14.25-7.59,19.94-6.05,3.67-14.28,7.55-22.02,7.55ZM38.78,40.92c2.05,4.17,4.86,6.73,8.61,7.82,8.15,2.38,18.77-2.97,24.38-6.38,5.1-3.09,5.83-9.89,5.82-13.55-6.1,1.79-9.38,1.15-14.82.09-2.42-.47-5.43-1.05-9.41-1.57-4.43-.57-8.32.2-11.57,2.3-3.7,2.38-4.99,7.24-3,11.29h0Z"/>
      </g>
      <path class="cls-5" d="M62.71,37.65c-.54,0-1.04-.21-1.42-.59-.09-.09-.17-.19-.25-.3-.07-.11-.13-.23-.18-.35-.05-.12-.09-.24-.11-.37-.03-.13-.04-.26-.04-.39,0-.53.21-1.04.58-1.42.47-.46,1.16-.67,1.81-.54.13.02.25.06.37.11s.24.11.35.18c.11.08.21.16.3.25.38.38.59.89.59,1.42,0,.13-.01.26-.04.39-.02.13-.06.25-.11.37-.05.12-.11.24-.19.35-.07.11-.15.21-.25.3-.38.38-.88.59-1.41.59Z"/>
      <path class="cls-5" d="M90.03,38.6c-5.59,0-10.81-2.48-11.17-2.66-.99-.48-1.41-1.68-.93-2.67s1.68-1.41,2.67-.93h0c.12.06,11.85,5.6,16.62-.97,2.82-3.87,3.34-9.48,1.27-13.62-.82-1.65-2.79-4.42-6.76-4.48-2.68-.06-6.42,1.5-10.39,3.13-9.08,3.73-21.52,8.85-33.68.08-.9-.65-1.1-1.9-.45-2.79.65-.9,1.9-1.1,2.79-.45,10.36,7.47,20.7,3.22,29.82-.53,4.55-1.87,8.5-3.48,11.98-3.43,4.44.08,8.19,2.52,10.27,6.7,2.75,5.51,2.1,12.65-1.61,17.76-2.72,3.74-6.66,4.87-10.43,4.87Z"/>
      <path class="cls-5" d="M79.44,32.61c-1.02,0-1.89-.78-1.99-1.82-.1-1.1.71-2.07,1.81-2.17,2.12-.2,8.02-1.49,9.75-4.99,1.09-2.2.49-5.19-1.78-8.87-4.43-7.17-10.83-5.02-22.72-.25-7.78,3.12-16.6,6.61-26.27,6.56-6.56-.06-12.23-.34-16.84-.83-1.1-.12-1.9-1.1-1.78-2.2.12-1.1,1.1-1.89,2.2-1.78,4.48.47,10.02.75,16.46.81,8.86.04,17.31-3.29,24.74-6.27,10.91-4.37,21.21-8.5,27.61,1.87,3.06,4.95,3.71,9.24,1.95,12.77-3.1,6.21-12.56,7.14-12.96,7.18-.06,0-.12,0-.18,0Z"/>
      <path class="cls-5" d="M60.72,69.94c-.71,0-1.39-.37-1.75-1.04l-3.25-5.91-14.47-5.83c-1.02-.41-1.52-1.58-1.11-2.6.41-1.02,1.58-1.52,2.6-1.11l15.13,6.09c.43.17.78.49,1.01.89l3.6,6.54c.53.97.18,2.18-.79,2.72-.31.17-.64.25-.96.25Z"/>
      <path class="cls-5" d="M52.46,73.42c-.33,0-.67-.08-.98-.26l-6.13-3.47s-.09-.05-.14-.08l-11.62-7.87c-.91-.62-1.15-1.86-.53-2.78.62-.91,1.86-1.15,2.78-.53l11.55,7.83,6.06,3.43c.96.54,1.3,1.76.75,2.73-.37.65-1.05,1.01-1.74,1.01Z"/>
      <path class="cls-5" d="M45.42,77.9c-.27,0-.55-.06-.82-.17l-10.03-4.48c-1.01-.45-1.46-1.63-1.01-2.64.45-1.01,1.63-1.46,2.64-1.01l10.03,4.48c1.01.45,1.46,1.63,1.01,2.64-.33.74-1.06,1.18-1.83,1.18Z"/>
      <path class="cls-4" d="M24.96,49.02c-.22,0-.45-.04-.67-.12-1.04-.37-1.58-1.51-1.22-2.55,1.6-4.5,3.39-6.33,3.59-6.52.79-.77,2.06-.75,2.83.04.76.79.75,2.04-.02,2.81-.06.06-1.38,1.49-2.63,5.01-.29.82-1.06,1.33-1.88,1.33Z"/>
      <path class="cls-4" d="M19.88,68.68c-1.09,0-1.98-.87-2-1.96-.05-2.35.46-3.99.52-4.17.34-1.05,1.47-1.63,2.52-1.29,1.05.34,1.63,1.46,1.29,2.51-.01.04-.36,1.22-.33,2.88.02,1.1-.86,2.02-1.96,2.04h-.04Z"/>
      <path class="cls-4" d="M44.69,36.27c-.43,0-.86-.14-1.22-.42-.87-.67-1.03-1.93-.36-2.81,2.73-3.53,7.37-2.93,7.56-2.91,1.09.15,1.86,1.16,1.71,2.25-.15,1.09-1.14,1.84-2.24,1.71-.09-.01-2.58-.27-3.87,1.39-.39.51-.99.78-1.58.78Z"/>
      <path class="cls-3" d="M52.59,47.56c-2.85,0-6.17-.8-9.23-3.54-.82-.74-.89-2-.16-2.82.74-.82,2-.89,2.82-.16,5.2,4.65,11.65,1.46,11.93,1.32.98-.5,2.19-.11,2.69.87.5.98.12,2.18-.86,2.69-.21.11-3.26,1.65-7.2,1.65Z"/>
    </g>
    <rect class="cls-1" width="112" height="112"/>
  </g>
</svg>