<?xml version="1.0" encoding="UTF-8"?>
<svg id="flatten_icons" xmlns="http://www.w3.org/2000/svg" viewBox="0 0 112 112">
  <defs>
    <style>
      .cls-1 {
        fill: none;
      }

      .cls-2 {
        fill: #a5713d;
      }

      .cls-3 {
        fill: #edb964;
      }

      .cls-4 {
        fill: #004241;
      }

      .cls-5 {
        fill: #eee;
      }
    </style>
  </defs>
  <g id="croissant">
    <g>
      <g>
        <path class="cls-3" d="M58.21,27.57s24.46-7.57,46.9,20.55c3.94,4.94,1.35,12.78-4.54,12.7-7.43-.11-16.44.7-24.16,4.1"/>
        <path class="cls-4" d="M76.41,66.93c-.77,0-1.5-.45-1.83-1.2-.44-1.01.01-2.19,1.02-2.64,6.76-2.98,15.18-4.4,25-4.27.02,0,.04,0,.07,0,2.16,0,3.24-1.54,3.7-2.46.9-1.84,1-4.71-.82-6.99-21.25-26.63-43.81-20.17-44.76-19.88-1.05.32-2.17-.27-2.5-1.33-.32-1.05.27-2.17,1.32-2.5,1.05-.33,26.03-7.65,49.06,21.21,2.52,3.16,3.03,7.67,1.28,11.25-1.45,2.95-4.17,4.7-7.29,4.7-.04,0-.08,0-.12,0-9.23-.13-17.1,1.19-23.33,3.93-.26.12-.54.17-.81.17Z"/>
      </g>
      <g>
        <path class="cls-3" d="M63.37,29.25s22.75,11.31,23.69,30.89c.58,12.07-8.45,12.8-17.55,12.8"/>
        <path class="cls-4" d="M69.51,74.93c-1.1,0-2-.9-2-2s.9-2,2-2c5.33,0,10.76-.24,13.48-3.1,1.56-1.64,2.24-4.13,2.07-7.6-.87-18.15-22.37-29.09-22.59-29.2-.99-.49-1.39-1.69-.9-2.68.49-.99,1.69-1.39,2.68-.9.24.12,6,3.01,11.95,8.42,8,7.27,12.44,15.62,12.85,24.17.22,4.56-.85,8.11-3.17,10.55-3.82,4-10.18,4.34-16.38,4.34Z"/>
      </g>
      <g>
        <path class="cls-3" d="M14.44,71.38s-5.69-12.9,0-27.2c4.71-11.83,8.72-17.36,22.89-20.72,9.9-2.35,21.09-1.58,29.03,4.79,6.38,5.12,7.99,22.87,8.79,31.28,1.58,16.69-2.19,17.66-13.26,22.6-11.07,4.94-22.83.63-27.27-7.71-4.44-8.34-20.18-3.04-20.18-3.04Z"/>
        <path class="cls-4" d="M52.18,86.27c-8.63,0-15.99-4.65-19.32-10.91-3.53-6.64-17.64-2.14-17.78-2.09-.98.33-2.05-.14-2.47-1.09-.25-.56-5.96-13.84-.03-28.75,5.01-12.59,9.5-18.42,24.29-21.93,11.92-2.83,23.13-.94,30.75,5.17,6.96,5.59,8.61,22.99,9.5,32.34l.03.31c1.58,16.63-2.16,19.17-13.19,24.06l-1.24.55c-3.59,1.6-7.16,2.31-10.53,2.31ZM24.46,67.72c4.62,0,9.52,1.23,11.93,5.76,4.74,8.91,16.5,10.47,24.69,6.82l1.25-.56c9.87-4.38,12.22-5.42,10.83-20.03l-.03-.31c-.71-7.5-2.37-25.07-8.02-29.6-6.65-5.34-16.61-6.94-27.32-4.4-13.72,3.25-17.09,8.45-21.5,19.51-4.18,10.5-1.84,20.25-.62,24.02,1.99-.52,5.31-1.21,8.78-1.21Z"/>
      </g>
      <g>
        <path class="cls-3" d="M19.12,54.18c-3.27,4.43-10.54,15.24-13.83,27.72-1.62,6.16,3.7,11.78,9.06,9.63,9.19-3.69,22.58-8.24,32.92-8.39,3.09-.05,5.49-3.03,5.09-6.49-1.25-10.75-6.6-29.8-29.13-25.19-1.61.33-3.07,1.3-4.12,2.72Z"/>
        <path class="cls-4" d="M11.99,94c-2.01,0-3.98-.75-5.62-2.19-2.84-2.5-4.02-6.59-3.01-10.41,3.41-12.93,11.03-24.17,14.15-28.4h0c1.35-1.83,3.24-3.07,5.32-3.5,8.07-1.65,14.83-.56,20.09,3.25,7.83,5.67,10.54,16,11.43,23.67.27,2.31-.43,4.61-1.9,6.29-1.35,1.54-3.17,2.4-5.14,2.43-9.98.15-23.02,4.57-32.2,8.25-1.02.41-2.07.61-3.11.61ZM29.74,52.76c-1.91,0-3.95.22-6.1.66-1.11.23-2.15.92-2.91,1.95h0c-2.98,4.04-10.27,14.77-13.5,27.04-.62,2.37.08,4.88,1.79,6.4,1.34,1.18,3.01,1.5,4.59.86,9.49-3.81,23.04-8.38,33.63-8.53.82-.01,1.6-.39,2.2-1.07.73-.84,1.08-2,.94-3.19-.8-6.87-3.14-16.07-9.8-20.89-2.97-2.15-6.6-3.23-10.84-3.23ZM19.12,54.18h0,0Z"/>
      </g>
      <path class="cls-2" d="M22.24,79.23c1.71-2.15,2.8-4.2,3.12-6.15.21-1.31,1.78-1.91,2.85-1.12l3.63,2.68c1.28.94,3.07-.1,2.88-1.67-.21-1.71-.61-3.78-1.36-5.82-.61-1.66,1.35-3.1,2.77-2.06,2.93,2.15,6.23,5.31,8.37,9.61,0,0,1.41,2.32-2.65,2.64-2.53.2-11.36,2.81-17.67,4.76-1.71.53-3.05-1.47-1.94-2.87Z"/>
      <path class="cls-2" d="M57.63,73.26l.35-.82c.51-1.2.65-2.53.38-3.81-1.03-4.85-4.14-17.24-10.03-23.21-1.13-1.15-.04-3.05,1.51-2.62,1.91.53,3.75,1.41,5.02,2.85s2.53,3.28,3.74,5.2c.95,1.51,3.29.51,2.83-1.22-1.09-4.06-2.72-8.59-5.07-11.88-1.01-1.42.76-3.19,2.17-2.17,1.7,1.22,3.41,3.07,4.82,5.83,4.77,9.37,5.48,25.4,3.54,29.23-1.12,2.21-4.49,3.84-7.15,4.84-1.37.51-2.68-.87-2.1-2.21Z"/>
      <path class="cls-5" d="M25.55,40.21c-1.29.27-2.25-1.22-1.46-2.28,2.93-3.93,6.93-7.46,14.39-8.69s9.78-1.07,10.61-.94c.21.03.4.11.57.23l1.82,1.24c.72.49.37,1.62-.5,1.62h-4.02c-.93,0-1.23,1.24-.41,1.67.03.02.07.03.1.05.87.46.48,1.78-.5,1.67-3.67-.41-9.41-.77-12.87.48,0,0-.28,1.94,3.95,2.12.39.02.75.25.93.59h0c.43.79-.19,1.74-1.09,1.67-2.58-.2-7.14-.35-11.52.56Z"/>
      <circle class="cls-2" cx="94.35" cy="51.01" r="3.01"/>
      <circle class="cls-5" cx="24.94" cy="60.55" r="3.13"/>
    </g>
    <rect class="cls-1" width="112" height="112"/>
  </g>
</svg>