<?xml version="1.0" encoding="UTF-8"?>
<svg id="flatten_icons" data-name="flatten icons" xmlns="http://www.w3.org/2000/svg" viewBox="0 0 112 112">
  <defs>
    <style>
      .cls-1 {
        fill: none;
      }

      .cls-1, .cls-2, .cls-3, .cls-4, .cls-5 {
        stroke-width: 0px;
      }

      .cls-2 {
        fill: #845332;
      }

      .cls-3 {
        fill: #e0af73;
      }

      .cls-4 {
        fill: #b2754b;
      }

      .cls-5 {
        fill: #004241;
      }
    </style>
  </defs>
  <rect class="cls-1" width="112" height="112"/>
  <g>
    <path class="cls-4" d="m43.68,75.69c2.96-7.6,7.96-15.94,13.17-19.83,1.59-1.19,3.14-2.42,4.55-3.81,4.32-4.25,12.87-12.41,16.02-13.48,4.29-1.46,16.44-2.92,25.73-3.65,9.29-.73,6.43,5.83,6.43,10.94s-2.14,12.4-5,17.5c-2.38,4.25-10.72,13.57-17.57,16.56-2.81,1.23-5.48,2.78-7.78,4.84-5.59,5.02-16.51,12.85-28.31,10.61-3.52-.67-5.66-3.19-6.96-5.94-2.04-4.32-2.01-9.3-.28-13.74Z"/>
    <path class="cls-2" d="m109.6,37.37c-.08.82-.15,1.63-.15,2.41,0,5.11-2.14,12.4-5,17.5-2.38,4.25-10.72,13.57-17.57,16.56-2.81,1.23-5.48,2.78-7.78,4.84-5.59,5.02-16.51,12.85-28.31,10.61-3.52-.67-5.66-3.19-6.96-5.94-.56-1.19-.96-2.43-1.22-3.69-.51,3.31-.11,6.71,1.34,9.78,1.3,2.76,3.44,5.28,6.96,5.94,11.8,2.24,22.72-5.59,28.31-10.61,2.3-2.06,4.97-3.61,7.78-4.84,6.85-2.99,15.19-12.31,17.57-16.56,2.86-5.11,5-12.4,5-17.5,0-2.89.92-6.26.02-8.49Z"/>
    <path class="cls-5" d="m55.12,97.77c-1.51,0-3.03-.13-4.58-.43-3.64-.69-6.54-3.13-8.39-7.05-2.2-4.65-2.32-10.24-.33-15.32h0c2.76-7.08,7.85-16.24,13.84-20.7,1.25-.93,2.88-2.19,4.34-3.64,8.48-8.36,14.12-13.05,16.78-13.95,5.09-1.73,18.88-3.17,26.22-3.75,3.41-.26,5.8.35,7.3,1.88,2.11,2.16,1.78,5.38,1.49,8.22-.1,1.01-.2,1.96-.2,2.84,0,5.35-2.16,12.95-5.26,18.48-2.35,4.19-11.01,14.15-18.52,17.42-2.93,1.28-5.3,2.75-7.25,4.5-5.06,4.54-14.6,11.52-25.44,11.52Zm-9.58-21.35c-1.59,4.07-1.5,8.5.23,12.16,1.3,2.76,3.16,4.38,5.52,4.83,11,2.09,21.39-5.45,26.61-10.13,2.27-2.04,4.99-3.73,8.32-5.18,6.43-2.8,14.42-11.76,16.62-15.71,2.75-4.91,4.75-11.86,4.75-16.53,0-1.08.11-2.18.22-3.24.21-2.06.43-4.2-.37-5.01-.59-.61-2.06-.85-4.12-.69-9.57.75-21.32,2.21-25.24,3.55-1.52.52-6.32,4.2-15.26,13.01-1.64,1.62-3.41,2.99-4.76,3.99-4.38,3.26-9.29,10.7-12.5,18.95h0Z"/>
    <path class="cls-5" d="m58.75,86.58c-.81,0-1.57-.49-1.87-1.29-.39-1.03.13-2.19,1.17-2.58,4.07-1.54,9.05-4.06,9.98-5.46,2.31-3.45,7.97-7.38,13.09-7.72,1.1-.07,2.06.76,2.13,1.86.07,1.1-.76,2.05-1.86,2.13-4.07.27-8.52,3.69-10.03,5.95-2.12,3.17-10.28,6.36-11.89,6.97-.23.09-.47.13-.71.13Z"/>
    <path class="cls-5" d="m68.12,70.42c-.36,0-.72-.1-1.05-.3-.94-.58-1.23-1.81-.65-2.75.56-.9,5.65-8.87,11.67-9.93,4.46-.78,7.5-4.52,7.53-4.56.69-.86,1.95-1,2.81-.32.86.69,1.01,1.94.33,2.8-.16.2-3.98,4.96-9.97,6.01-3.62.63-7.69,6.06-8.96,8.09-.38.61-1.03.95-1.7.95Z"/>
    <path class="cls-5" d="m50.62,81.61c-.34,0-.69-.09-1-.27-.96-.55-1.28-1.78-.73-2.73.84-1.44,5.2-8.72,9.03-10.45,1.01-.46,2.19,0,2.65,1,.46,1.01,0,2.19-1,2.65-1.96.89-5.4,5.69-7.22,8.81-.37.64-1.04,1-1.73,1Z"/>
    <path class="cls-5" d="m102.81,53.34c-.82,0-1.58-.5-1.88-1.31-.38-1.03.15-2.17,1.18-2.56.23-.09,4.88-1.98,5.91-8.69.17-1.09,1.19-1.84,2.28-1.67,1.09.17,1.84,1.19,1.67,2.28-1.41,9.14-8.19,11.72-8.48,11.83-.23.08-.46.12-.69.12Z"/>
    <path class="cls-4" d="m13.56,79.61C1.87,77.68-.18,62.91,3.97,54.13s3.84-19.92,7.99-24.37,12.47-13.99,19.82-13.99,11.83,7.63,11.83,16.21-5.75,15.58-6.07,25.11-6.07,19.02-10.23,20.95-6.39,2.78-13.75,1.56Z"/>
    <path class="cls-2" d="m43.12,27.14c-.02.12-.03.23-.06.35-1.62,8.43-8.59,14.23-10.7,23.54-2.11,9.31-9.55,17.55-13.99,18.68-4.45,1.13-6.8,1.54-13.8-1.02-.78-.29-1.5-.63-2.17-1.02,1.12,5.8,4.64,10.88,11.16,11.96,7.35,1.22,9.59.37,13.75-1.56,4.16-1.94,9.91-11.42,10.23-20.95.32-9.54,6.07-16.53,6.07-25.11,0-1.67-.17-3.3-.5-4.85Z"/>
    <path class="cls-5" d="m19.28,82.18c-1.65,0-3.59-.18-6.05-.59-4.81-.8-8.57-3.55-10.89-7.97-3.08-5.88-3.16-14.06-.18-20.34,1.8-3.81,2.72-8.09,3.6-12.23,1.13-5.27,2.1-9.83,4.74-12.65l.87-.93c4.74-5.12,12.67-13.69,20.42-13.69s13.83,7.66,13.83,18.21c0,4.64-1.54,8.82-3.03,12.86-1.42,3.86-2.9,7.86-3.05,12.32-.34,10.11-6.29,20.33-11.39,22.7-3.01,1.4-5.2,2.31-8.87,2.31ZM31.79,17.77c-6,0-13.47,8.07-17.48,12.41l-.88.95c-1.88,2.01-2.79,6.26-3.75,10.76-.89,4.16-1.9,8.87-3.9,13.1-2.42,5.13-2.38,12.03.11,16.78,1.74,3.31,4.43,5.29,8,5.88h0c7.06,1.17,8.9.31,12.58-1.4,3.45-1.61,8.78-10.38,9.08-19.21.17-5.1,1.76-9.41,3.29-13.57,1.43-3.88,2.78-7.55,2.78-11.48,0-7.06-3.38-14.21-9.83-14.21Z"/>
    <path class="cls-3" d="m63.42,56.81s11.83-11.53,14.23-12.84,11.59-3.43,15.75-3.67,10.71-1.71,9.4,0c-.94,1.23-4.82,3.34-6.93,4.43-.87.45-1.47,1.29-1.61,2.25l-.03.22c-.35,2.41-3.28,3.44-5.08,1.79h0c-1.13-1.03-2.85-1.07-4.03-.09l-4.71,3.94c-.38.32-.84.54-1.33.65l-15.67,3.31Z"/>
    <path class="cls-3" d="m30.22,20.64c-5.79-.18-13.66,8.7-14.01,10.97-.17,1.07-.81,2.9-1.43,4.53-.53,1.38.74,2.78,2.18,2.39l3.15-.85c1.5-.4,2.79,1.13,2.12,2.52l-2.37,4.97c-.3.63-.21,1.38.24,1.92l1.52,1.84c1.01,1.22,3,.66,3.21-.91l.5-3.7c.1-.74.65-1.34,1.38-1.52l5.62-1.35c.9-.21,1.49-1.06,1.38-1.97l-.95-8.04c-.14-1.16.85-2.14,2.02-2.01l1.44.17c1.23.14,2.24-.94,2-2.15-.53-2.67-2.29-6.64-8-6.82Z"/>
    <path class="cls-5" d="m11.31,75.04c-.83,0-1.61-.52-1.89-1.35-2.48-7.26-.24-16.8,1.61-19.66,1.01-1.56,1.12-4.79,1.08-5.8-.04-1.1.82-2.03,1.92-2.08,1.1-.09,2.03.82,2.08,1.92.02.53.15,5.24-1.72,8.12-1.34,2.08-3.19,10.35-1.19,16.2.36,1.04-.2,2.18-1.25,2.54-.21.07-.43.11-.65.11Z"/>
    <path class="cls-5" d="m23.01,70.42c-1.1,0-2-.9-2-2v-2.62c0-2.21.57-4.4,1.66-6.33l2.05-3.63c.54-.96,1.76-1.3,2.72-.76.96.54,1.3,1.76.76,2.72l-2.05,3.63c-.75,1.33-1.15,2.84-1.15,4.37v2.62c0,1.1-.9,2-2,2Z"/>
  </g>
</svg>