<svg xmlns="http://www.w3.org/2000/svg" id="outline_icons" data-name="outline icons" viewBox="0 0 112 112"><defs><style>.cls-2,.cls-6{stroke-width:0}.cls-2{fill:#888295}.cls-6{fill:#004241}</style></defs><g id="disque-ext"><path d="M0 0h112v112H0z" style="fill:none;stroke-width:0"/><path d="M17.56 22.14h77.17a9.27 9.27 0 0 1 9.27 9.27v49.17a9.27 9.27 0 0 1-9.27 9.27H17.56A9.56 9.56 0 0 1 8 80.29V31.71a9.56 9.56 0 0 1 9.56-9.56Z" class="cls-2"/><path d="M17.56 22.14h77.17a9.27 9.27 0 0 1 9.27 9.27v35.84a9.27 9.27 0 0 1-9.27 9.27H17.56A9.56 9.56 0 0 1 8 66.96V31.71a9.56 9.56 0 0 1 9.56-9.56Z" style="stroke-width:0;fill:#8e889a"/><path d="M94.73 91.86H17.56C11.18 91.86 6 86.67 6 80.3V31.71c0-6.38 5.19-11.56 11.56-11.56h77.17c6.21 0 11.27 5.06 11.27 11.27v49.17c0 6.21-5.06 11.27-11.27 11.27M17.56 24.14c-4.17 0-7.56 3.39-7.56 7.56v48.59c0 4.17 3.39 7.56 7.56 7.56h77.17c4.01 0 7.27-3.26 7.27-7.27V31.42c0-4.01-3.26-7.27-7.27-7.27H17.56Z" class="cls-6"/><circle cx="22.46" cy="35" r="5.05" style="stroke-width:0;fill:#aae38a"/><path d="M22.46 42.06c-3.89 0-7.05-3.16-7.05-7.05s3.17-7.05 7.05-7.05 7.05 3.16 7.05 7.05-3.17 7.05-7.05 7.05m0-10.11c-1.68 0-3.05 1.37-3.05 3.05s1.37 3.05 3.05 3.05 3.05-1.37 3.05-3.05-1.37-3.05-3.05-3.05" class="cls-6"/><path d="M94.73 22.14a9.27 9.27 0 0 1 9.27 9.27v49.17a9.27 9.27 0 0 1-9.27 9.27 9.56 9.56 0 0 1-9.56-9.56V31.71a9.56 9.56 0 0 1 9.56-9.56Z" style="stroke-width:0;fill:#bfc8d0"/><path d="M94.73 91.86c-6.38 0-11.56-5.19-11.56-11.56V31.71c0-6.38 5.19-11.56 11.56-11.56S106 25.21 106 31.42v49.17c0 6.21-5.06 11.27-11.27 11.27m0-67.71c-4.17 0-7.56 3.39-7.56 7.56V80.3c0 4.17 3.39 7.56 7.56 7.56S102 84.6 102 80.59V31.42c0-4.01-3.26-7.27-7.27-7.27" class="cls-6"/><path d="M94.58 78.53c-1.1 0-2-.9-2-2v-6.28c0-1.1.9-2 2-2s2 .9 2 2v6.28c0 1.1-.9 2-2 2" class="cls-6"/><circle cx="50.26" cy="56" r="23.74" class="cls-2"/><path d="M47.63 33.22h-10.5c-1.1 0-2-.9-2-2s.9-2 2-2h10.5c1.1 0 2 .9 2 2s-.9 2-2 2m-5.25 7.57h-5.25c-1.1 0-2-.9-2-2s.9-2 2-2h5.25c1.1 0 2 .9 2 2s-.9 2-2 2" class="cls-6"/></g></svg>