<?xml version="1.0" encoding="UTF-8"?>
<svg id="outline_icons" data-name="outline icons" xmlns="http://www.w3.org/2000/svg" viewBox="0 0 112 112">
  <defs>
    <style>
      .cls-1 {
        fill: none;
      }

      .cls-1, .cls-2, .cls-3, .cls-4, .cls-5, .cls-6 {
        stroke-width: 0px;
      }

      .cls-2 {
        fill: #888295;
      }

      .cls-3 {
        fill: #aae38a;
      }

      .cls-4 {
        fill: #bfc8d0;
      }

      .cls-5 {
        fill: #8e889a;
      }

      .cls-6 {
        fill: #004241;
      }
    </style>
  </defs>
  <g id="disque-ext">
    <rect class="cls-1" width="112" height="112"/>
    <g>
      <g>
        <path class="cls-2" d="m17.56,22.14h77.17c5.12,0,9.27,4.15,9.27,9.27v49.17c0,5.12-4.15,9.27-9.27,9.27H17.56c-5.28,0-9.56-4.28-9.56-9.56V31.71c0-5.28,4.28-9.56,9.56-9.56Z"/>
        <path class="cls-5" d="m17.56,22.14h77.17c5.12,0,9.27,4.15,9.27,9.27v35.84c0,5.12-4.15,9.27-9.27,9.27H17.56c-5.28,0-9.56-4.28-9.56-9.56V31.71c0-5.28,4.28-9.56,9.56-9.56Z"/>
        <path class="cls-6" d="m94.73,91.86H17.56c-6.38,0-11.56-5.19-11.56-11.56V31.71c0-6.38,5.19-11.56,11.56-11.56h77.17c6.21,0,11.27,5.06,11.27,11.27v49.17c0,6.21-5.06,11.27-11.27,11.27ZM17.56,24.14c-4.17,0-7.56,3.39-7.56,7.56v48.59c0,4.17,3.39,7.56,7.56,7.56h77.17c4.01,0,7.27-3.26,7.27-7.27V31.42c0-4.01-3.26-7.27-7.27-7.27H17.56Z"/>
        <g>
          <circle class="cls-3" cx="22.46" cy="35" r="5.05"/>
          <path class="cls-6" d="m22.46,42.06c-3.89,0-7.05-3.16-7.05-7.05s3.17-7.05,7.05-7.05,7.05,3.16,7.05,7.05-3.17,7.05-7.05,7.05Zm0-10.11c-1.68,0-3.05,1.37-3.05,3.05s1.37,3.05,3.05,3.05,3.05-1.37,3.05-3.05-1.37-3.05-3.05-3.05Z"/>
        </g>
        <g>
          <path class="cls-4" d="m94.73,22.14h0c5.12,0,9.27,4.15,9.27,9.27v49.17c0,5.12-4.15,9.27-9.27,9.27h0c-5.28,0-9.56-4.28-9.56-9.56V31.71c0-5.28,4.28-9.56,9.56-9.56Z"/>
          <path class="cls-6" d="m94.73,91.86c-6.38,0-11.56-5.19-11.56-11.56V31.71c0-6.38,5.19-11.56,11.56-11.56s11.27,5.06,11.27,11.27v49.17c0,6.21-5.06,11.27-11.27,11.27Zm0-67.71c-4.17,0-7.56,3.39-7.56,7.56v48.59c0,4.17,3.39,7.56,7.56,7.56s7.27-3.26,7.27-7.27V31.42c0-4.01-3.26-7.27-7.27-7.27Z"/>
        </g>
        <path class="cls-6" d="m94.58,78.53c-1.1,0-2-.9-2-2v-6.28c0-1.1.9-2,2-2s2,.9,2,2v6.28c0,1.1-.9,2-2,2Z"/>
      </g>
      <circle class="cls-2" cx="50.26" cy="56" r="23.74"/>
      <path class="cls-6" d="m47.63,33.22h-10.5c-1.1,0-2-.9-2-2s.9-2,2-2h10.5c1.1,0,2,.9,2,2s-.9,2-2,2Z"/>
      <path class="cls-6" d="m42.38,40.79h-5.25c-1.1,0-2-.9-2-2s.9-2,2-2h5.25c1.1,0,2,.9,2,2s-.9,2-2,2Z"/>
    </g>
  </g>
</svg>