<svg xmlns="http://www.w3.org/2000/svg" id="flatten_icons" viewBox="0 0 112 112"><defs><style>.cls-4{fill:#fff}.cls-6{fill:#acccd1}.cls-7{fill:#004241}</style></defs><g id="dorade"><path id="pommedeterre" d="M0 0h112v112H0z" style="fill:none"/><path d="M72.41 59.58s.39 2.94 2.26 4.52 3.91 6.59 3.91 6.59 6.9-9.22-1.59-14.67" class="cls-6"/><path d="M78.58 72.69c-.08 0-.17 0-.26-.02-.72-.09-1.33-.56-1.6-1.23-.77-1.89-2.32-4.95-3.35-5.81-2.4-2.02-2.91-5.41-2.96-5.79-.14-1.1.63-2.1 1.72-2.24 1.1-.13 2.1.62 2.24 1.72.09.61.54 2.39 1.57 3.25.99.83 1.93 2.26 2.71 3.65.44-1.26.73-2.74.47-4.19-.32-1.72-1.37-3.13-3.21-4.32-.93-.6-1.2-1.83-.6-2.76s1.83-1.2 2.76-.6c2.8 1.8 4.48 4.15 4.99 6.99.97 5.34-2.72 10.35-2.88 10.56-.38.51-.98.8-1.6.8Z" class="cls-7"/><path d="M44.44 72.47s-2.05 2.33-.5 4.09 8.91 5.48 10.33 4.57 4.82-10.83 4.82-10.83" class="cls-6"/><path d="M53.69 83.22c-3.69 0-10.05-3.97-11.25-5.33-1.87-2.12-1.05-4.97.5-6.73.73-.83 1.99-.91 2.82-.18s.91 1.98.19 2.81c-.19.22-.79 1.14-.51 1.46 1.08 1.22 6 3.69 7.82 4 .88-1.41 2.65-5.84 3.93-9.58.36-1.05 1.49-1.6 2.54-1.25 1.04.36 1.6 1.5 1.24 2.54-3.62 10.58-5.13 11.54-5.63 11.86-.44.28-1.01.41-1.66.41Z" class="cls-7"/><path d="m34.27 58.37-5.02 2.56s-3.95-7.04-3.58-11.71c0 0 7.6-5.46 11.41-5.11" class="cls-6"/><path d="M29.25 62.93c-.7 0-1.38-.37-1.75-1.02-.43-.77-4.23-7.72-3.83-12.85.05-.59.35-1.12.83-1.47 1.37-.98 8.42-5.88 12.76-5.48 1.1.1 1.91 1.07 1.81 2.17a1.99 1.99 0 0 1-2.17 1.81c-1.92-.17-6.28 2.18-9.24 4.17.13 2.51 1.43 5.79 2.46 7.97l3.24-1.65a2.004 2.004 0 0 1 1.82 3.57l-5.02 2.56c-.29.15-.6.22-.91.22" class="cls-7"/><path d="m40.35 37.89-7.63.93s3.03-1.66 1.63-4.92c0 0 4.45-2.5 3.83-6.23 0 0 4.13-3.54 2.73-6.18 0 0 11.08-.46 15.66 2.29" class="cls-6"/><path d="M32.72 40.82c-.86 0-1.63-.55-1.9-1.39-.29-.91.1-1.91.94-2.37.51-.3 1.33-1.04.76-2.38-.4-.94-.03-2.03.86-2.53.02-.01 3.21-1.91 2.83-4.15a2 2 0 0 1 .67-1.85c1.31-1.14 2.62-3.05 2.27-3.72-.32-.61-.31-1.34.03-1.93.34-.6.97-.98 1.65-1 1.19-.05 11.82-.39 16.77 2.57.95.57 1.25 1.8.69 2.74-.57.95-1.8 1.26-2.74.69-2.7-1.62-8.68-2.01-12.39-2.04-.33 2.11-1.91 4.01-2.9 5.01-.04 2.73-1.87 4.94-3.58 6.28.08.55.07 1.08 0 1.58l3.45-.42c1.1-.13 2.09.65 2.23 1.74.13 1.1-.65 2.09-1.74 2.23l-7.63.93c-.08 0-.16.01-.24.01Z" class="cls-7"/><path d="m11.77 75.26 10.13 4.22 5.06 13.78s4.62-1.02 5.85-4.54-1.58-13.57 5.71-15.82 16.29.22 25.63-5.56c8.09-5.01 29.82-25.77 32-44.66 0 0 .53-5.98-18.19-4.69S45.68 28.55 38.7 40.46s-2.07 21.74-7.35 26.93-16.19-.15-19.59 7.87Z" style="fill:#bfdbd9"/><path d="M26.96 95.25c-.82 0-1.58-.51-1.88-1.31l-4.76-12.95-9.33-3.88a2.005 2.005 0 0 1-1.07-2.63c2.38-5.62 7.8-6 12.16-6.31 3.12-.22 6.07-.43 7.87-2.2 1.95-1.91 2.13-4.83 2.39-8.87.31-4.88.7-10.94 4.64-17.65C45 25.78 59.88 17.24 77.83 16c9.66-.67 15.99.46 18.82 3.34 1.58 1.61 1.52 3.21 1.5 3.52C95.9 42.39 73.68 63.8 65.21 69.04c-6.31 3.91-12.44 4.3-17.84 4.64-2.98.19-5.79.37-8.26 1.13-3.53 1.09-3.85 4.67-3.91 9.62-.02 1.95-.04 3.63-.5 4.95-1.58 4.52-7.08 5.78-7.31 5.83-.14.03-.29.05-.43.05ZM14.72 74.32l7.96 3.31c.52.21.92.63 1.11 1.16l4.38 11.92c1.1-.53 2.33-1.4 2.77-2.65.25-.71.26-2.22.28-3.68.06-4.52.14-11.35 6.73-13.39 2.92-.9 5.97-1.1 9.19-1.3 5.17-.33 10.52-.67 15.98-4.05 3.93-2.43 11.16-8.7 17.73-16.69 5.42-6.6 12.12-16.51 13.32-26.31-.28-1.02-3.69-3.5-16.04-2.65-16.61 1.15-30.34 8.98-37.67 21.49-3.45 5.89-3.79 11.2-4.1 15.88-.28 4.36-.54 8.48-3.58 11.46-2.85 2.8-6.85 3.09-10.39 3.34-3.55.25-6.07.53-7.65 2.17Zm79.44-51.63" class="cls-7"/><path d="M86.26 40.96c-5.91 0-10.53-1.48-13.75-4.42-4.36-3.98-4.42-9.15-4.42-9.37a2 2 0 0 1 2-2c1.1 0 1.99.89 2 1.99 0 .18.1 3.72 3.17 6.47 3 2.69 7.8 3.76 14.28 3.17 1.11-.08 2.07.71 2.17 1.81s-.71 2.07-1.81 2.17c-1.27.12-2.48.17-3.65.17ZM81.15 25.7c-.53 0-1.03-.21-1.41-.59a1.99 1.99 0 0 1 0-2.83c.74-.74 2.08-.75 2.83 0a2.02 2.02 0 0 1 .54 1.81c-.02.13-.06.25-.11.37s-.11.24-.18.34c-.08.11-.16.22-.25.31-.38.38-.88.59-1.42.59" class="cls-7"/><path d="M42.77 53.14c-.09 0-.18 0-.28-.02a2.007 2.007 0 0 1-1.71-2.26c2.04-14.64 15.7-20.17 16.28-20.4 1.03-.4 2.19.1 2.59 1.13s-.1 2.19-1.13 2.59c-.21.08-12.08 4.99-13.78 17.23a2 2 0 0 1-1.98 1.72Z" class="cls-4"/><path d="M95.38 28.84c-.11 0-.21 0-.32-.03l-6.82-1.09c-.66-.11-1.22-.54-1.5-1.14a1.99 1.99 0 0 1 .12-1.88l3.97-6.41c.58-.94 1.81-1.23 2.75-.65s1.23 1.81.65 2.75l-2.39 3.85 3.85.62c1.09.17 1.83 1.2 1.66 2.29-.16.98-1.01 1.68-1.97 1.68Z" class="cls-7"/><path d="M51.22 57.6c-.07 0-.14.02-.21.02a2.883 2.883 0 0 0-2.89-2.91c-1.17 0-2.26.75-2.68 1.84-.35.92-.2 1.84.25 2.56-.8.58-1.25 1.61-.95 2.73.23.82.9 1.48 1.73 1.7 1.39.36 2.65-.45 3.03-1.65.59.56 1.45.85 2.37.61.84-.22 1.54-.91 1.75-1.75a2.5 2.5 0 0 0-2.41-3.15Zm8.22-15.81c-.67-.28-1.31-.23-1.86-.01-.37-.93-1.27-1.62-2.41-1.58-.83.02-1.61.5-2.04 1.22-.4.67-.43 1.35-.25 1.96-.04 0-.07-.01-.1-.01a2.5 2.5 0 0 0-2.41 3.15c.22.84.9 1.53 1.74 1.74a2.5 2.5 0 0 0 3.16-2.41c0-.24-.04-.47-.11-.68.36.02.7-.04 1.02-.17.36.93 1.26 1.58 2.32 1.58 1.55 0 2.77-1.41 2.44-3.02-.16-.79-.74-1.46-1.49-1.77Zm7.06 9.51c-.1-.25-.25-.46-.4-.66.38-.14.71-.34.98-.61.77.8 1.99 1.1 3.08.65a2.8 2.8 0 0 0 1.23-4.18c-.51-.75-1.4-1.2-2.3-1.2-.82 0-1.46.32-1.93.78a2.79 2.79 0 0 0-3.18-.61c-.85.38-1.45 1.22-1.59 2.14-.13.87.14 1.58.58 2.14-.04.01-.08.02-.11.03m5.39-16.47c-.86-.4-1.74-.29-2.42.15-.52-.34-1.16-.52-1.87-.45-.95.09-1.82.71-2.22 1.58-.82 1.77.26 3.69 2.03 4.01.92.17 1.82-.14 2.46-.74a2.498 2.498 0 0 0 3.43-2.51c-.06-.87-.61-1.67-1.4-2.04Z" style="fill:#d8d5c0"/><path d="M54.18 55.54a2.004 2.004 0 0 1-1.4-3.44c2.2-2.14 6.18-2.61 10.39-3.11 2.95-.35 6.29-.75 7.55-1.74 1.1-.86 1.03-2.12.64-2.94-.21-.44-1.08-1.85-3.35-1.33-1.08.24-2.15-.42-2.4-1.5s.42-2.15 1.5-2.4c3.38-.78 6.46.59 7.85 3.49 1.31 2.74.59 5.95-1.76 7.81-2.15 1.7-5.75 2.12-9.56 2.58-3.21.38-6.84.81-8.08 2-.39.38-.89.56-1.39.56Z" class="cls-7"/><path d="M72.24 106.03c-6.92-3.12-5.32-17.06-4.09-21.37 1.16-4.06 27.23-4.39 35.41.58.81.5 1.29 1.36 1.29 2.27.02 2.98 0 10.32-.69 14.75-.89 5.66-24.5 7.09-31.91 3.76Z" style="fill:#efece4"/><path d="M79.84 109.15c-1.06 0-1.95-.83-2-1.91s-.2-3.82-1.75-7.49c-1.89-4.49-4.9-6.76-8.94-6.77-1.1 0-2-.9-2-2s.9-2 2-2c10.96.01 14.4 11.83 14.68 18.07.05 1.1-.8 2.04-1.91 2.09h-.09Z" class="cls-4"/><path d="M91.17 108.19c-1.06 0-1.95-.83-2-1.91 0-.06-.29-5.72-2.61-11.24-2.92-6.98-7.63-10.52-13.98-10.52-1.1 0-2-.9-2-2s.9-2 2-2c15.36.02 20.18 16.74 20.58 25.58.05 1.1-.8 2.04-1.91 2.09h-.09Zm12.19-2.46c-.6 0-1.2-.27-1.59-.79-.34-.44-8.26-11-8.17-22.63 0-1.1.94-2.02 2.02-1.99 1.1 0 1.99.91 1.98 2.01-.08 10.25 7.28 20.09 7.36 20.19.67.88.49 2.13-.38 2.8-.36.27-.79.41-1.21.41Z" class="cls-4"/><path d="M81.85 109.51c-4.1 0-7.85-.5-10.43-1.66-3.26-1.47-5.63-5.05-6.67-10.08-1.01-4.89-.68-11.62 1.92-14.46 3.34-3.65 15.22-5.89 24.93-4.7 7.48.91 12.67 3.67 15 7.96 1.67 3.07 3.37 12.88-1.06 17.15-3.37 3.25-14.43 5.8-23.7 5.8Zm-8.79-5.31c6.65 2.99 25.94.26 29.7-3.37 2.57-2.48 1.54-10.13.32-12.36-1.67-3.06-5.92-5.16-11.97-5.9-9.42-1.15-19.53 1.29-21.49 3.43-1.09 1.19-1.98 5.94-.95 10.95.76 3.69 2.36 6.33 4.39 7.24Z" class="cls-7"/></g></svg>