<?xml version="1.0" encoding="UTF-8"?>
<svg id="flatten_icons" data-name="flatten icons" xmlns="http://www.w3.org/2000/svg" viewBox="0 0 112 112">
  <defs>
    <style>
      .cls-1 {
        fill: none;
      }

      .cls-1, .cls-2, .cls-3, .cls-4, .cls-5 {
        stroke-width: 0px;
      }

      .cls-2 {
        fill: #cad4d9;
      }

      .cls-3 {
        fill: #a6e1f0;
      }

      .cls-4 {
        fill: #fff;
      }

      .cls-5 {
        fill: #004241;
      }
    </style>
  </defs>
  <g id="eau">
    <g>
      <g>
        <path class="cls-3" d="m110,92.74c0,7.73-6.27,14-14,14s-14-6.27-14-14,6.73-21.18,14-25.44c6.56,3.45,14,17.71,14,25.44Z"/>
        <path class="cls-5" d="m96,108.74c-8.82,0-16-7.18-16-16,0-8.27,6.92-22.43,14.99-27.16.6-.35,1.33-.37,1.94-.04,7.48,3.93,15.07,19.15,15.07,27.21,0,8.82-7.18,16-16,16Zm.03-39.08c-6.32,4.52-12.03,16.39-12.03,23.08s5.38,12,12,12,12-5.38,12-12c0-6.99-6.47-19.22-11.97-23.08Z"/>
      </g>
      <g>
        <path class="cls-2" d="m87.16,38.22v15.75h17.4v-16.23c0-18.48-14.98-32.48-33.46-32.48s-33.46,14.98-33.46,33.46v68.02h17.4V39.2c0-8.87,7.19-16.06,16.06-16.06s16.06,6.21,16.06,15.08Z"/>
        <path class="cls-5" d="m55.04,108.74h-17.4c-1.1,0-2-.9-2-2V38.72c0-19.55,15.91-35.46,35.46-35.46s35.46,15.14,35.46,34.48v16.23c0,1.1-.9,2-2,2h-17.4c-1.1,0-2-.9-2-2v-15.75c0-7.46-6.04-13.08-14.06-13.08s-14.06,6.31-14.06,14.06v67.54c0,1.1-.9,2-2,2Zm-15.4-4h13.4V39.2c0-9.96,8.1-18.06,18.06-18.06s18.06,7.34,18.06,17.08v13.75h13.4v-14.23c0-17.09-13.82-30.48-31.46-30.48s-31.46,14.11-31.46,31.46v66.02Z"/>
      </g>
      <path class="cls-5" d="m104.55,46.57h-17.4c-1.1,0-2-.9-2-2s.9-2,2-2h17.4c1.1,0,2,.9,2,2s-.9,2-2,2Z"/>
      <g>
        <g>
          <path class="cls-2" d="m24.9,96.33v10.41h30.11v-15.19c0-3.14-2.24-5.82-5.33-6.38l-42.94-7.79c-2.23-.4-4.35,1.11-4.69,3.35h0c-.31,2.02.96,3.95,2.93,4.48l14.32,3.83c3.3.88,5.6,3.88,5.6,7.3Z"/>
          <path class="cls-5" d="m55,108.74h-30.11c-1.1,0-2-.9-2-2v-10.41c0-2.51-1.69-4.72-4.12-5.36l-14.32-3.83c-2.97-.79-4.85-3.68-4.39-6.71.25-1.62,1.12-3.04,2.45-3.99s2.96-1.32,4.57-1.02l42.94,7.79c4.04.73,6.97,4.25,6.97,8.35v15.19c0,1.1-.9,2-2,2Zm-28.11-4h26.11v-13.19c0-2.17-1.55-4.03-3.69-4.42l-42.94-7.79c-.54-.1-1.08.02-1.53.34-.45.32-.74.79-.82,1.34-.15,1.02.48,1.99,1.47,2.25l14.31,3.83c4.17,1.12,7.09,4.91,7.09,9.23v8.41Z"/>
        </g>
        <g>
          <line class="cls-2" x1="19.29" y1="89.03" x2="36.72" y2="92.02"/>
          <path class="cls-5" d="m36.72,94.02c-.11,0-.23,0-.34-.03l-17.42-2.99c-1.09-.19-1.82-1.22-1.63-2.31.19-1.09,1.23-1.82,2.31-1.63l17.42,2.99c1.09.19,1.82,1.22,1.63,2.31-.17.97-1.01,1.66-1.97,1.66Z"/>
        </g>
      </g>
      <circle class="cls-4" cx="100.31" cy="91.59" r="2.56"/>
    </g>
    <rect class="cls-1" width="112" height="112"/>
  </g>
</svg>