<svg xmlns="http://www.w3.org/2000/svg" id="flatten_icons" data-name="flatten icons" viewBox="0 0 112 112"><defs><style>.cls-2,.cls-5{stroke-width:0}.cls-2{fill:#cad4d9}.cls-5{fill:#004241}</style></defs><g id="eau"><path d="M110 92.74c0 7.73-6.27 14-14 14s-14-6.27-14-14 6.73-21.18 14-25.44c6.56 3.45 14 17.71 14 25.44" style="stroke-width:0;fill:#a6e1f0"/><path d="M96 108.74c-8.82 0-16-7.18-16-16 0-8.27 6.92-22.43 14.99-27.16.6-.35 1.33-.37 1.94-.04C104.41 69.47 112 84.69 112 92.75c0 8.82-7.18 16-16 16Zm.03-39.08C89.71 74.18 84 86.05 84 92.74s5.38 12 12 12 12-5.38 12-12c0-6.99-6.47-19.22-11.97-23.08" class="cls-5"/><path d="M87.16 38.22v15.75h17.4V37.74c0-18.48-14.98-32.48-33.46-32.48S37.64 20.24 37.64 38.72v68.02h17.4V39.2c0-8.87 7.19-16.06 16.06-16.06s16.06 6.21 16.06 15.08" class="cls-2"/><path d="M55.04 108.74h-17.4c-1.1 0-2-.9-2-2V38.72c0-19.55 15.91-35.46 35.46-35.46s35.46 15.14 35.46 34.48v16.23c0 1.1-.9 2-2 2h-17.4c-1.1 0-2-.9-2-2V38.22c0-7.46-6.04-13.08-14.06-13.08S57.04 31.45 57.04 39.2v67.54c0 1.1-.9 2-2 2m-15.4-4h13.4V39.2c0-9.96 8.1-18.06 18.06-18.06s18.06 7.34 18.06 17.08v13.75h13.4V37.74c0-17.09-13.82-30.48-31.46-30.48S39.64 21.37 39.64 38.72z" class="cls-5"/><path d="M104.55 46.57h-17.4c-1.1 0-2-.9-2-2s.9-2 2-2h17.4c1.1 0 2 .9 2 2s-.9 2-2 2" class="cls-5"/><path d="M24.9 96.33v10.41h30.11V91.55c0-3.14-2.24-5.82-5.33-6.38L6.74 77.38a4.02 4.02 0 0 0-4.69 3.35c-.31 2.02.96 3.95 2.93 4.48l14.32 3.83c3.3.88 5.6 3.88 5.6 7.3Z" class="cls-2"/><path d="M55 108.74H24.89c-1.1 0-2-.9-2-2V96.33c0-2.51-1.69-4.72-4.12-5.36L4.45 87.14a6 6 0 0 1-4.39-6.71c.25-1.62 1.12-3.04 2.45-3.99s2.96-1.32 4.57-1.02l42.94 7.79c4.04.73 6.97 4.25 6.97 8.35v15.19c0 1.1-.9 2-2 2Zm-28.11-4H53V91.55c0-2.17-1.55-4.03-3.69-4.42L6.37 79.34c-.54-.1-1.08.02-1.53.34s-.74.79-.82 1.34c-.15 1.02.48 1.99 1.47 2.25L19.8 87.1c4.17 1.12 7.09 4.91 7.09 9.23z" class="cls-5"/><path d="m19.29 89.03 17.43 2.99" class="cls-2"/><path d="M36.72 94.02c-.11 0-.23 0-.34-.03L18.96 91a1.996 1.996 0 0 1-1.63-2.31 2 2 0 0 1 2.31-1.63l17.42 2.99c1.09.19 1.82 1.22 1.63 2.31-.17.97-1.01 1.66-1.97 1.66" class="cls-5"/><circle cx="100.31" cy="91.59" r="2.56" style="stroke-width:0;fill:#fff"/><path d="M0 0h112v112H0z" style="fill:none;stroke-width:0"/></g></svg>