<?xml version="1.0" encoding="UTF-8"?>
<svg id="flatten_icons" data-name="flatten icons" xmlns="http://www.w3.org/2000/svg" viewBox="0 0 112 112">
  <defs>
    <style>
      .cls-1 {
        fill: none;
      }

      .cls-1, .cls-2, .cls-3, .cls-4, .cls-5, .cls-6 {
        stroke-width: 0px;
      }

      .cls-2 {
        fill: #52c3e8;
      }

      .cls-3 {
        fill: #b2e2ef;
      }

      .cls-4 {
        fill: #a6e1f0;
      }

      .cls-5 {
        fill: #fff;
      }

      .cls-6 {
        fill: #004241;
      }
    </style>
  </defs>
  <g id="eaubouteille">
    <rect class="cls-1" width="112" height="112"/>
    <g id="eau-bouteille">
      <g>
        <path class="cls-2" d="m63.78,2h11.28c1.59,0,2.88,1.29,2.88,2.88v7.64h-17.04v-7.64c0-1.59,1.29-2.88,2.88-2.88Z"/>
        <path class="cls-6" d="m77.95,14.52h-17.04c-1.1,0-2-.9-2-2v-7.65C58.9,2.19,61.09,0,63.78,0h11.28C77.76,0,79.95,2.19,79.95,4.88v7.65c0,1.1-.9,2-2,2Zm-15.04-4h13.04v-5.65c0-.49-.4-.88-.88-.88h-11.28c-.49,0-.88.39-.88.88v5.65Z"/>
      </g>
      <path class="cls-3" d="m69.42,12.41h0c-2.64,0-5.17,1.11-6.95,3.06l-9.87,10.79c-2.94,3.21-4.72,7.28-5.12,11.58-.1,1.1.26,2.2.98,3.04h0c.65.75.66,1.87.02,2.63l-.6.72c-.31.37-.47.83-.47,1.31v15.34c0,.57.24,1.11.65,1.49h0c.84.77.88,2.09.08,2.91l-.16.17c-.37.38-.57.89-.57,1.42v6.42c0,.53.21,1.04.57,1.42l.36.38c.71.74.77,1.89.13,2.69l-.62.77c-.29.36-.45.81-.45,1.27v20.77c0,5.2,4.22,9.42,9.42,9.42h25.19c5.2,0,9.42-4.22,9.42-9.42v-20.77c0-.46-.16-.91-.45-1.27l-.59-.73c-.65-.82-.58-1.99.17-2.73l.26-.25c.39-.38.61-.91.61-1.45v-6.42c0-.51-.19-1-.54-1.38l-.43-.47c-.69-.75-.72-1.91-.06-2.69l.55-.64c.31-.37.48-.83.48-1.31v-14.59c0-.46-.16-.91-.45-1.27l-.73-.91c-.59-.74-.6-1.79-.01-2.53l.25-.32c.65-.82.95-1.86.86-2.9-.37-4.34-2.17-8.45-5.13-11.68l-9.87-10.79c-1.78-1.95-4.31-3.06-6.95-3.06Z"/>
      <path class="cls-2" d="m52.61,26.27c-2.94,3.21-4.72,7.28-5.12,11.58-.1,1.1.26,2.2.98,3.04.65.75.66,1.87.02,2.63l-.6.72c-.31.37-.47.83-.47,1.31v15.34c0,.57.24,1.11.65,1.49.84.77.88,2.09.08,2.91l-.16.17c-.37.38-.57.89-.57,1.42v6.42c0,.53.21,1.04.57,1.42l.36.38c.71.74.77,1.89.13,2.69l-.62.77c-.29.36-.45.81-.45,1.27v20.77c0,5.2,4.22,9.42,9.42,9.42h16.98c-8.14-1.5-14.77-3.64-15.72-9.22-1.57-9.22,2.89-18.97,0-23.89-2.89-4.92,0-11.84,0-11.84,0,0-3.06-9.26-1.76-13.23,1.3-3.97.9-6.62.07-13.01s6.08-23.33,6.08-23.33l-9.87,10.79Z"/>
      <path class="cls-6" d="m90.27,44.76h-32.18c-1.1,0-2-.9-2-2s.9-2,2-2h32.18c1.1,0,2,.9,2,2s-.9,2-2,2Z"/>
      <path class="cls-6" d="m90.47,65.89h-26.16c-1.1,0-2-.9-2-2s.9-2,2-2h26.16c1.1,0,2,.9,2,2s-.9,2-2,2Z"/>
      <path class="cls-6" d="m90.41,78.89h-14.72c-1.1,0-2-.9-2-2s.9-2,2-2h14.72c1.1,0,2,.9,2,2s-.9,2-2,2Z"/>
      <path class="cls-6" d="m64.31,78.89h-15.84c-1.1,0-2-.9-2-2s.9-2,2-2h15.84c1.1,0,2,.9,2,2s-.9,2-2,2Z"/>
      <path class="cls-6" d="m55.65,65.89h-7.5c-1.1,0-2-.9-2-2s.9-2,2-2h7.5c1.1,0,2,.9,2,2s-.9,2-2,2Z"/>
      <path class="cls-5" d="m80.68,36.83c-.67,0-1.33-.34-1.71-.95-2.57-4.18-10.86-12.27-10.95-12.36-.79-.77-.81-2.04-.04-2.83s2.04-.81,2.83-.04c.35.35,8.73,8.53,11.56,13.13.58.94.29,2.17-.66,2.75-.33.2-.69.3-1.05.3Z"/>
      <path class="cls-5" d="m83.05,58.92c-1.1,0-2-.9-2-2v-8.07c0-1.1.9-2,2-2s2,.9,2,2v8.07c0,1.1-.9,2-2,2Z"/>
      <path class="cls-5" d="m77.14,104.16h-1.45c-1.1,0-2-.9-2-2s.9-2,2-2h1.45c2.16,0,3.91-1.75,3.91-3.91v-11.21c0-1.1.9-2,2-2s2,.9,2,2v11.21c0,4.36-3.55,7.91-7.91,7.91Z"/>
      <path class="cls-6" d="m82.02,112h-25.19c-6.3,0-11.42-5.12-11.42-11.42v-20.77c0-.91.31-1.81.89-2.52l.62-.77-.37-.42c-.73-.75-1.14-1.75-1.14-2.81v-6.42c0-1.05.4-2.05,1.14-2.81l.16-.17c-.82-.81-1.3-1.89-1.3-3.01v-15.34c0-.94.33-1.86.94-2.59l.6-.72c-1.07-1.29-1.6-2.94-1.45-4.57.43-4.72,2.43-9.25,5.63-12.75l9.87-10.79c2.16-2.36,5.23-3.71,8.43-3.71s6.27,1.35,8.43,3.71l9.87,10.79c3.23,3.53,5.23,8.09,5.64,12.86.13,1.56-.32,3.09-1.28,4.31l-.25.32.73.95c.57.71.89,1.61.89,2.52v14.59c0,.95-.34,1.88-.95,2.6l-.54.64.43.51c.69.75,1.07,1.72,1.07,2.73v6.42c0,1.08-.44,2.13-1.21,2.88l-.26.25.58.78c.57.71.89,1.61.89,2.52v20.77c0,6.3-5.12,11.42-11.42,11.42Zm-12.6-97.59c-2.08,0-4.07.88-5.48,2.41l-9.87,10.79c-2.61,2.86-4.25,6.56-4.6,10.42-.05.56.13,1.12.5,1.55,1.29,1.5,1.31,3.7.04,5.22l-.6.72v15.36c.81.77,1.27,1.78,1.3,2.88.03,1.1-.37,2.13-1.14,2.92l-.16.17v6.44s.36.4.36.4c1.41,1.46,1.52,3.75.25,5.33l-.62.77v20.79c0,4.09,3.32,7.42,7.41,7.42h25.19c4.09,0,7.42-3.33,7.42-7.42v-20.77l-.6-.75c-1.3-1.63-1.16-3.95.33-5.41l.26-.25v-6.44s-.43-.49-.43-.49c-1.38-1.49-1.42-3.79-.11-5.34l.54-.64v-14.61s-.73-.93-.73-.93c-1.18-1.47-1.19-3.53-.02-5.02l.25-.32c.33-.42.49-.95.44-1.49-.34-3.89-1.97-7.62-4.61-10.5l-9.87-10.79c-1.4-1.53-3.4-2.41-5.48-2.41Z"/>
      <g>
        <g>
          <path class="cls-4" d="m54.68,92.2c0,9.42-7.64,17.06-17.06,17.06s-17.06-7.64-17.06-17.06,8.2-25.81,17.06-31c7.99,4.21,17.06,21.58,17.06,31Z"/>
          <path class="cls-6" d="m37.62,111.27c-10.51,0-19.06-8.55-19.06-19.06,0-9.97,8.33-27.03,18.05-32.72.6-.35,1.33-.37,1.94-.04,8.99,4.73,18.13,23.05,18.13,32.77,0,10.51-8.55,19.06-19.06,19.06Zm.03-47.71c-7.9,5.46-15.1,20.32-15.1,28.65s6.76,15.06,15.06,15.06,15.06-6.76,15.06-15.06c0-8.73-8.17-24.06-15.03-28.65Z"/>
        </g>
        <circle class="cls-5" cx="42.87" cy="90.8" r="3.12"/>
      </g>
    </g>
  </g>
</svg>