<svg xmlns="http://www.w3.org/2000/svg" id="flatten_icons" data-name="flatten icons" viewBox="0 0 112 112"><defs><style>.cls-2,.cls-5,.cls-6{stroke-width:0}.cls-2{fill:#52c3e8}.cls-5{fill:#fff}.cls-6{fill:#004241}</style></defs><g id="eaubouteille"><path d="M0 0h112v112H0z" style="fill:none;stroke-width:0"/><g id="eau-bouteille"><path d="M63.78 2h11.28a2.88 2.88 0 0 1 2.88 2.88v7.64H60.9V4.88A2.88 2.88 0 0 1 63.78 2" class="cls-2"/><path d="M77.95 14.52H60.91c-1.1 0-2-.9-2-2V4.87C58.9 2.19 61.09 0 63.78 0h11.28c2.7 0 4.89 2.19 4.89 4.88v7.65c0 1.1-.9 2-2 2Zm-15.04-4h13.04V4.87c0-.49-.4-.88-.88-.88H63.79c-.49 0-.88.39-.88.88z" class="cls-6"/><path d="M69.42 12.41c-2.64 0-5.17 1.11-6.95 3.06L52.6 26.26a19.85 19.85 0 0 0-5.12 11.58c-.1 1.1.26 2.2.98 3.04.65.75.66 1.87.02 2.63l-.6.72c-.31.37-.47.83-.47 1.31v15.34c0 .57.24 1.11.65 1.49.84.77.88 2.09.08 2.91l-.16.17c-.37.38-.57.89-.57 1.42v6.42c0 .53.21 1.04.57 1.42l.36.38c.71.74.77 1.89.13 2.69l-.62.77c-.29.36-.45.81-.45 1.27v20.77c0 5.2 4.22 9.42 9.42 9.42h25.19c5.2 0 9.42-4.22 9.42-9.42V79.82c0-.46-.16-.91-.45-1.27l-.59-.73c-.65-.82-.58-1.99.17-2.73l.26-.25c.39-.38.61-.91.61-1.45v-6.42c0-.51-.19-1-.54-1.38l-.43-.47a2.04 2.04 0 0 1-.06-2.69l.55-.64c.31-.37.48-.83.48-1.31V45.89c0-.46-.16-.91-.45-1.27l-.73-.91a2.03 2.03 0 0 1-.01-2.53l.25-.32c.65-.82.95-1.86.86-2.9a19.78 19.78 0 0 0-5.13-11.68l-9.87-10.79a9.42 9.42 0 0 0-6.95-3.06Z" style="stroke-width:0;fill:#b2e2ef"/><path d="M52.61 26.27a19.85 19.85 0 0 0-5.12 11.58c-.1 1.1.26 2.2.98 3.04.65.75.66 1.87.02 2.63l-.6.72c-.31.37-.47.83-.47 1.31v15.34c0 .57.24 1.11.65 1.49.84.77.88 2.09.08 2.91l-.16.17c-.37.38-.57.89-.57 1.42v6.42c0 .53.21 1.04.57 1.42l.36.38c.71.74.77 1.89.13 2.69l-.62.77c-.29.36-.45.81-.45 1.27v20.77c0 5.2 4.22 9.42 9.42 9.42h16.98c-8.14-1.5-14.77-3.64-15.72-9.22-1.57-9.22 2.89-18.97 0-23.89s0-11.84 0-11.84-3.06-9.26-1.76-13.23.9-6.62.07-13.01 6.08-23.33 6.08-23.33l-9.87 10.79Z" class="cls-2"/><path d="M90.27 44.76H58.09c-1.1 0-2-.9-2-2s.9-2 2-2h32.18c1.1 0 2 .9 2 2s-.9 2-2 2m.2 21.13H64.31c-1.1 0-2-.9-2-2s.9-2 2-2h26.16c1.1 0 2 .9 2 2s-.9 2-2 2m-.06 13H75.69c-1.1 0-2-.9-2-2s.9-2 2-2h14.72c1.1 0 2 .9 2 2s-.9 2-2 2m-26.1 0H48.47c-1.1 0-2-.9-2-2s.9-2 2-2h15.84c1.1 0 2 .9 2 2s-.9 2-2 2m-8.66-13h-7.5c-1.1 0-2-.9-2-2s.9-2 2-2h7.5c1.1 0 2 .9 2 2s-.9 2-2 2" class="cls-6"/><path d="M80.68 36.83c-.67 0-1.33-.34-1.71-.95-2.57-4.18-10.86-12.27-10.95-12.36-.79-.77-.81-2.04-.04-2.83s2.04-.81 2.83-.04c.35.35 8.73 8.53 11.56 13.13.58.94.29 2.17-.66 2.75-.33.2-.69.3-1.05.3Zm2.37 22.09c-1.1 0-2-.9-2-2v-8.07c0-1.1.9-2 2-2s2 .9 2 2v8.07c0 1.1-.9 2-2 2m-5.91 45.24h-1.45c-1.1 0-2-.9-2-2s.9-2 2-2h1.45a3.91 3.91 0 0 0 3.91-3.91V85.04c0-1.1.9-2 2-2s2 .9 2 2v11.21c0 4.36-3.55 7.91-7.91 7.91" class="cls-5"/><path d="M82.02 112H56.83c-6.3 0-11.42-5.12-11.42-11.42V79.81c0-.91.31-1.81.89-2.52l.62-.77-.37-.42a4 4 0 0 1-1.14-2.81v-6.42c0-1.05.4-2.05 1.14-2.81l.16-.17c-.82-.81-1.3-1.89-1.3-3.01V45.54c0-.94.33-1.86.94-2.59l.6-.72c-1.07-1.29-1.6-2.94-1.45-4.57.43-4.72 2.43-9.25 5.63-12.75L61 14.12c2.16-2.36 5.23-3.71 8.43-3.71s6.27 1.35 8.43 3.71l9.87 10.79c3.23 3.53 5.23 8.09 5.64 12.86.13 1.56-.32 3.09-1.28 4.31l-.25.32.73.95c.57.71.89 1.61.89 2.52v14.59c0 .95-.34 1.88-.95 2.6l-.54.64.43.51c.69.75 1.07 1.72 1.07 2.73v6.42c0 1.08-.44 2.13-1.21 2.88l-.26.25.58.78c.57.71.89 1.61.89 2.52v20.77c0 6.3-5.12 11.42-11.42 11.42Zm-12.6-97.59c-2.08 0-4.07.88-5.48 2.41l-9.87 10.79a17.96 17.96 0 0 0-4.6 10.42c-.05.56.13 1.12.5 1.55 1.29 1.5 1.31 3.7.04 5.22l-.6.72v15.36a4.1 4.1 0 0 1 1.3 2.88c.03 1.1-.37 2.13-1.14 2.92l-.16.17v6.44l.36.4a4.04 4.04 0 0 1 .25 5.33l-.62.77v20.79c0 4.09 3.32 7.42 7.41 7.42H82c4.09 0 7.42-3.33 7.42-7.42V79.81l-.6-.75a4.027 4.027 0 0 1 .33-5.41l.26-.25v-6.44l-.43-.49c-1.38-1.49-1.42-3.79-.11-5.34l.54-.64V45.88l-.73-.93a4.015 4.015 0 0 1-.02-5.02l.25-.32c.33-.42.49-.95.44-1.49a17.92 17.92 0 0 0-4.61-10.5l-9.87-10.79a7.45 7.45 0 0 0-5.48-2.41Z" class="cls-6"/><path d="M54.68 92.2c0 9.42-7.64 17.06-17.06 17.06s-17.06-7.64-17.06-17.06 8.2-25.81 17.06-31c7.99 4.21 17.06 21.58 17.06 31" style="stroke-width:0;fill:#a6e1f0"/><path d="M37.62 111.27c-10.51 0-19.06-8.55-19.06-19.06 0-9.97 8.33-27.03 18.05-32.72.6-.35 1.33-.37 1.94-.04 8.99 4.73 18.13 23.05 18.13 32.77 0 10.51-8.55 19.06-19.06 19.06Zm.03-47.71c-7.9 5.46-15.1 20.32-15.1 28.65s6.76 15.06 15.06 15.06 15.06-6.76 15.06-15.06c0-8.73-8.17-24.06-15.03-28.65Z" class="cls-6"/><circle cx="42.87" cy="90.8" r="3.12" class="cls-5"/></g></g></svg>