<svg xmlns="http://www.w3.org/2000/svg" id="flatten_icons" data-name="flatten icons" viewBox="0 0 112 112"><defs><style>.cls-2,.cls-3,.cls-4,.cls-7{stroke-width:0}.cls-2{fill:#7a5c72}.cls-3{fill:#e2bb88}.cls-4{fill:#e090b8}.cls-7{fill:#004241}</style></defs><path d="M0 0h112v112H0z" style="fill:none;stroke-width:0"/><path d="M32.4 30.5s3.5 11.13-7.59 21.67-12.84 26.94-5.84 36.32c7.01 9.37 27.44 3.51 33.28-17.57 5.84-21.09-18.72-55.06-18.72-55.06S26.56 8.25 32.4 30.5" class="cls-3"/><path d="M16.67 84.46c.62 1.45 1.38 2.8 2.3 4.03 7.01 9.37 27.44 3.51 33.28-17.57.45-1.62.72-14.38.83-16.13C41.77 84.7 28.05 87.25 16.67 84.46" style="stroke-width:0;fill:#d3987f"/><path d="M28.46 94.81c-4.61 0-8.61-1.81-11.09-5.13-8-10.7-5.28-28.18 6.06-38.96 9.99-9.49 7.18-19.22 7.06-19.63 0-.02-.02-.06-.02-.08-3.49-13.3-2.71-16.83-.48-18.05 1.77-.96 3.75.17 5.01 1.55l.15.18c1.03 1.42 25.05 35 19.03 56.77-2.54 9.17-9.88 20.71-22.2 23.03-1.2.23-2.38.34-3.52.34Zm5.87-64.86c.3 1.02 3.44 12.66-8.14 23.67-8.69 8.26-13.02 23.76-5.61 33.67 2.19 2.93 6.08 4.11 10.66 3.25 6.57-1.24 15.51-7.26 19.09-20.16 5.27-19.05-16.17-50.17-18.26-53.13-.05 1.52.24 5.01 2.26 12.7" class="cls-7"/><path d="M30.2 17.99a2 2 0 0 1-1.83-1.2c-.15-.34-1.4-3.42.19-6.31 1.13-2.05 3.31-3.34 6.49-3.83 6.77-1.05 7.72-2.55 9.62-5.54l.12-.19c.59-.93 1.83-1.21 2.76-.62s1.21 1.83.62 2.76l-.12.18c-2.37 3.74-4.24 6.1-12.39 7.36-1.29.2-2.95.67-3.59 1.79-.68 1.2-.03 2.8-.03 2.82a2 2 0 0 1-1.85 2.77Z" class="cls-7"/><path d="M33.53 17.86c-.07 0-.14 0-.21-.01a2 2 0 0 1-1.78-2.2c.03-.29.26-1.78 1.81-2.8 1.63-1.07 4.03-1.13 7.12-.16 1.05.33 1.64 1.45 1.31 2.51a2.004 2.004 0 0 1-2.51 1.31c-2.7-.84-3.66-.42-3.78-.27-.18.94-1.01 1.62-1.96 1.62M9.99 97.69c-1.91 0-3.33-.75-3.85-2.06a2.003 2.003 0 0 1 3.44-1.97c.44.08 1.43.01 2.3-.41.32-.16.87-.48.99-.95 1.04-3.91 5.19-5.6 5.36-5.67 1.02-.41 2.19.09 2.6 1.12.41 1.02-.09 2.18-1.11 2.59-.69.28-2.55 1.37-2.98 2.98-.74 2.79-3.69 4.19-6.28 4.35-.16 0-.31.01-.46.01Zm4.81 8.55c-1.01 0-1.88-.76-1.99-1.79-.11-1.1.68-2.08 1.78-2.2 1.27-.13 2.5-3.17 2.38-5.12-.21-3.33 3.19-6.26 3.58-6.58a2 2 0 0 1 2.82.26 2 2 0 0 1-.26 2.82c-.93.78-2.2 2.35-2.14 3.25.2 3.11-1.62 8.9-5.96 9.35-.07 0-.14.01-.21.01m13.51 0c-.55 0-1.09-.22-1.48-.66-2.36-2.62-1.58-5.01-.67-7.79l.08-.25c.38-1.16-.97-2.63-1.48-3.06a2.02 2.02 0 0 1-.71-1.72c.06-.65.43-1.24 1.01-1.56 20.48-11.5 16.6-36.92 16.56-37.17a2.002 2.002 0 0 1 3.95-.65c.04.27 4.07 26.69-16.46 40.04.95 1.45 1.59 3.35.94 5.36l-.08.25c-.88 2.69-.9 3.05-.17 3.86.74.82.68 2.08-.14 2.82-.38.35-.86.52-1.34.52Z" class="cls-7"/><path d="M20.6 91.77c-1.04 0-1.91-.8-1.99-1.85-1.69-22.06 8.45-31.31 8.88-31.69.83-.73 2.09-.65 2.82.17s.66 2.08-.16 2.82c-.06.05-2.31 2.14-4.35 6.61-1.9 4.18-4 11.35-3.2 21.79a2.01 2.01 0 0 1-1.84 2.15h-.15Z" class="cls-7"/><path d="M72.44 67.52S88.04 53.09 91.04 46c3-7.1 7.15-10.88 12.96-11.07 0 0-9.09 4.02-8.69 11.07.4 7.06 2.75 7.71 2.75 13.48.55 10.33-12.35 20.82-12.35 20.82z" class="cls-3"/><path d="M85.71 82.3c-.5 0-1-.19-1.39-.56L71.05 68.96c-.4-.38-.62-.91-.61-1.46 0-.55.24-1.07.64-1.45 4.25-3.93 15.79-15.34 18.12-20.83 3.41-8.06 8.23-12.08 14.74-12.29.95-.02 1.8.62 2.01 1.55s-.27 1.89-1.14 2.27c-.07.03-7.82 3.56-7.5 9.13.18 3.26.81 5.01 1.42 6.7.65 1.8 1.32 3.66 1.33 6.85.55 11.2-12.53 21.97-13.09 22.42-.37.3-.82.45-1.26.45M75.34 67.53l10.43 10.05c3.13-2.89 10.68-10.67 10.29-18v-.11c0-2.52-.48-3.85-1.09-5.54-.67-1.87-1.44-3.98-1.65-7.83 0-.09 0-.19-.01-.28-.14.31-.28.62-.42.95-2.59 6.11-13.46 16.85-17.54 20.76Z" class="cls-7"/><path d="M82.91 59.48S60.42 74.56 55.37 88.23s.46 21.73 8.26 21.73 28.92-9.76 34.43-50.48c0 0-1.8-10.57-15.15 0" style="stroke-width:0;fill:#f4ece4"/><path d="M53.55 95.69s5.75 10.82 17.45 6.34c9.25-3.54 24.31-24.11 24.31-24.11s-15.99 31.54-28.19 32.04c-12.18.5-13.97-3.8-13.57-14.27" class="cls-4"/><path d="M41.76 49.53c-.93 0-1.76-.65-1.96-1.59l-.63-3.05a1.99 1.99 0 0 1 1.55-2.36 1.99 1.99 0 0 1 2.36 1.55l.63 3.05a1.99 1.99 0 0 1-1.96 2.4Zm21.87 62.43c-4 0-7.43-1.76-9.65-4.94-3.24-4.65-3.41-11.57-.49-19.48 5.12-13.87 26.62-28.58 28.24-29.67 5.58-4.4 10.18-5.95 13.68-4.61 3.83 1.47 4.59 5.71 4.62 5.89.03.2.04.4.01.6-5.79 42.83-28.25 52.21-36.41 52.21m29.14-55.17c-1.57 0-4.26.81-8.62 4.26-.04.03-.08.06-.13.09-.22.15-22.02 14.88-26.78 27.78-2.42 6.55-2.41 12.31.02 15.8 1.45 2.08 3.71 3.23 6.37 3.23 6.69 0 26.94-8.9 32.4-48.38-.17-.59-.71-2.09-2.07-2.6-.29-.11-.68-.19-1.19-.19Zm-9.86 2.69" class="cls-7"/><path d="M60.85 91.09s-1.2 7.54 5.78 7.08 19.08-17.86 19.08-17.86-10.1 19.76-18.54 21.4-9.57-2.88-6.32-10.61Z" class="cls-4"/><path d="M64.75 104.66c-1.7 0-3.19-.44-4.39-1.33-1.85-1.39-3.71-4.42-2.01-11.01 2.96-11.52 19.72-22.24 20.44-22.69.93-.59 2.17-.31 2.76.62s.31 2.17-.62 2.76c-.16.1-16.14 10.33-18.7 20.31-.88 3.42-.68 5.9.54 6.82 1.45 1.08 4.64.5 7.94-1.47 5.85-3.48 16.83-23.83 18.36-34.02a1.997 1.997 0 0 1 2.27-1.68c1.09.16 1.85 1.18 1.68 2.27C91.41 76 80.25 97.64 72.75 102.1c-2.86 1.7-5.62 2.56-8 2.56" class="cls-2"/><path d="M68.5 96.86c-.48 0-.88-.08-1.16-.17-1.43-.45-2.88-1.93-2.69-4.73.29-4.29 7.36-9.84 9.52-11.44a2 2 0 0 1 2.8.42 2 2 0 0 1-.42 2.8c-3.73 2.77-7.8 6.84-7.91 8.5-.02.29 0 .49.03.61.54-.15 2.02-1.02 3.89-4.11a2.01 2.01 0 0 1 2.75-.68c.94.57 1.25 1.8.68 2.75-3.07 5.07-5.81 6.06-7.48 6.06Zm.22-3.87" class="cls-2"/></svg>