<svg xmlns="http://www.w3.org/2000/svg" id="flatten_icons" data-name="flatten icons" viewBox="0 0 112 112"><defs><style>.cls-3,.cls-4,.cls-5{stroke-width:0}.cls-3{fill:#8ed4ea}.cls-4{fill:#8e889a}.cls-5{fill:#004241}</style></defs><g id="ecran"><path d="M0 0h112v112H0z" style="fill:none;stroke-width:0"/><path d="M44 92.98h24c6.61 0 11.97 5.36 11.97 11.97a5.54 5.54 0 0 1-5.54 5.54H37.57a5.54 5.54 0 0 1-5.54-5.54c0-6.61 5.36-11.97 11.97-11.97" class="cls-4"/><path d="M74.43 112.5H37.57c-4.16 0-7.54-3.38-7.54-7.54 0-7.7 6.27-13.97 13.97-13.97h24c7.7 0 13.97 6.27 13.97 13.97 0 4.16-3.38 7.54-7.54 7.54M44 94.99c-5.5 0-9.97 4.47-9.97 9.97 0 1.95 1.59 3.54 3.54 3.54h36.86c1.95 0 3.54-1.59 3.54-3.54 0-5.5-4.47-9.97-9.97-9.97z" class="cls-5"/><rect width="11.08" height="26.21" x="50.46" y="74.33" class="cls-4" rx="5.54" ry="5.54"/><path d="M56 102.55c-4.16 0-7.54-3.38-7.54-7.54V79.88c0-4.16 3.38-7.54 7.54-7.54s7.54 3.38 7.54 7.54v15.13c0 4.16-3.38 7.54-7.54 7.54m0-26.21c-1.95 0-3.54 1.59-3.54 3.54v15.13c0 1.95 1.59 3.54 3.54 3.54s3.54-1.59 3.54-3.54V79.88c0-1.95-1.59-3.54-3.54-3.54" class="cls-5"/><rect width="108" height="77.23" x="2" y="1.5" class="cls-3" rx="8.75" ry="8.75"/><path d="M101.25 80.73h-90.5C4.82 80.73 0 75.91 0 69.98V10.25C0 4.33 4.82-.5 10.75-.5h90.5C107.18-.5 112 4.32 112 10.25v59.73c0 5.93-4.82 10.75-10.75 10.75M10.75 3.5C7.03 3.5 4 6.53 4 10.25v59.73c0 3.72 3.03 6.75 6.75 6.75h90.5c3.72 0 6.75-3.03 6.75-6.75V10.25c0-3.72-3.03-6.75-6.75-6.75z" class="cls-5"/><path d="M11.46 59.19V14.65c0-2.03 1.64-3.67 3.67-3.67h71.02c2.03 0 3.67 1.64 3.67 3.67a94.59 94.59 0 0 1-70.44 46.41l-3.72.45c-2.39.26-4.21-.16-4.21-2.32Z" style="stroke-width:0;fill:#b7e7f1"/><path d="M101.25 80.73h-90.5C4.82 80.73 0 75.91 0 69.98V10.25C0 4.33 4.82-.5 10.75-.5h90.5C107.18-.5 112 4.32 112 10.25v59.73c0 5.93-4.82 10.75-10.75 10.75M10.75 3.5C7.03 3.5 4 6.53 4 10.25v59.73c0 3.72 3.03 6.75 6.75 6.75h90.5c3.72 0 6.75-3.03 6.75-6.75V10.25c0-3.72-3.03-6.75-6.75-6.75z" class="cls-5"/><path d="M61.26 25.8H24.97c-1.1 0-2-.9-2-2s.9-2 2-2h36.28c1.1 0 2 .9 2 2s-.9 2-2 2ZM48.64 38.46H24.98c-1.1 0-2-.9-2-2s.9-2 2-2h23.66c1.1 0 2 .9 2 2s-.9 2-2 2" class="cls-3"/></g></svg>