<?xml version="1.0" encoding="UTF-8"?>
<svg id="flatten_icons" data-name="flatten icons" xmlns="http://www.w3.org/2000/svg" viewBox="0 0 112 112">
  <defs>
    <style>
      .cls-1 {
        fill: none;
      }

      .cls-1, .cls-2, .cls-3, .cls-4, .cls-5 {
        stroke-width: 0px;
      }

      .cls-2 {
        fill: #b7e7f1;
      }

      .cls-3 {
        fill: #8ed4ea;
      }

      .cls-4 {
        fill: #8e889a;
      }

      .cls-5 {
        fill: #004241;
      }
    </style>
  </defs>
  <g id="ecran">
    <rect class="cls-1" width="112" height="112"/>
    <g>
      <g>
        <path class="cls-4" d="m44,92.98h24c6.61,0,11.97,5.36,11.97,11.97h0c0,3.06-2.48,5.54-5.54,5.54h-36.86c-3.06,0-5.54-2.48-5.54-5.54h0c0-6.61,5.36-11.97,11.97-11.97Z"/>
        <path class="cls-5" d="m74.43,112.5h-36.86c-4.16,0-7.54-3.38-7.54-7.54,0-7.7,6.27-13.97,13.97-13.97h24c7.7,0,13.97,6.27,13.97,13.97,0,4.16-3.38,7.54-7.54,7.54Zm-30.43-17.51c-5.5,0-9.97,4.47-9.97,9.97,0,1.95,1.59,3.54,3.54,3.54h36.86c1.95,0,3.54-1.59,3.54-3.54,0-5.5-4.47-9.97-9.97-9.97h-24Z"/>
      </g>
      <g>
        <rect class="cls-4" x="50.46" y="74.33" width="11.08" height="26.21" rx="5.54" ry="5.54"/>
        <path class="cls-5" d="m56,102.55c-4.16,0-7.54-3.38-7.54-7.54v-15.13c0-4.16,3.38-7.54,7.54-7.54s7.54,3.38,7.54,7.54v15.13c0,4.16-3.38,7.54-7.54,7.54Zm0-26.21c-1.95,0-3.54,1.59-3.54,3.54v15.13c0,1.95,1.59,3.54,3.54,3.54s3.54-1.59,3.54-3.54v-15.13c0-1.95-1.59-3.54-3.54-3.54Z"/>
      </g>
      <g>
        <rect class="cls-3" x="2" y="1.5" width="108" height="77.23" rx="8.75" ry="8.75"/>
        <path class="cls-5" d="m101.25,80.73H10.75c-5.93,0-10.75-4.82-10.75-10.75V10.25C0,4.33,4.82-.5,10.75-.5h90.5c5.93,0,10.75,4.82,10.75,10.75v59.73c0,5.93-4.82,10.75-10.75,10.75ZM10.75,3.5c-3.72,0-6.75,3.03-6.75,6.75v59.73c0,3.72,3.03,6.75,6.75,6.75h90.5c3.72,0,6.75-3.03,6.75-6.75V10.25c0-3.72-3.03-6.75-6.75-6.75H10.75Z"/>
      </g>
      <path class="cls-2" d="m11.46,59.19V14.65c0-2.03,1.64-3.67,3.67-3.67h71.02c2.03,0,3.67,1.64,3.67,3.67h0c-14.9,25.66-40.98,42.85-70.44,46.41l-3.72.45c-2.39.26-4.21-.16-4.21-2.32Z"/>
      <path class="cls-5" d="m101.25,80.73H10.75c-5.93,0-10.75-4.82-10.75-10.75V10.25C0,4.33,4.82-.5,10.75-.5h90.5c5.93,0,10.75,4.82,10.75,10.75v59.73c0,5.93-4.82,10.75-10.75,10.75ZM10.75,3.5c-3.72,0-6.75,3.03-6.75,6.75v59.73c0,3.72,3.03,6.75,6.75,6.75h90.5c3.72,0,6.75-3.03,6.75-6.75V10.25c0-3.72-3.03-6.75-6.75-6.75H10.75Z"/>
      <path class="cls-3" d="m61.26,25.8H24.97c-1.1,0-2-.9-2-2s.9-2,2-2h36.28c1.1,0,2,.9,2,2s-.9,2-2,2Z"/>
      <path class="cls-3" d="m48.64,38.46h-23.66c-1.1,0-2-.9-2-2s.9-2,2-2h23.66c1.1,0,2,.9,2,2s-.9,2-2,2Z"/>
    </g>
  </g>
</svg>