<svg xmlns="http://www.w3.org/2000/svg" id="flatten_icons" data-name="flatten icons" viewBox="0 0 112 112"><defs><style>.cls-6,.cls-7{stroke-width:0}.cls-6{fill:#e7edef}.cls-7{fill:#004241}</style></defs><g id="lave-linge"><path id="area" d="M0 0h112v112H0z" style="fill:none;stroke-width:0"/><g id="lavel-linge"><rect width="82.87" height="98.84" x="14.57" y="6.58" rx="3.37" ry="3.37" style="stroke-width:0;fill:#d3d9dc"/><path d="M94.07 107.42H17.93c-2.96 0-5.37-2.41-5.37-5.37V9.95c0-2.96 2.41-5.37 5.37-5.37h76.13c2.96 0 5.37 2.41 5.37 5.37v92.11c0 2.96-2.41 5.37-5.37 5.37ZM17.93 8.58c-.75 0-1.37.61-1.37 1.37v92.11c0 .75.61 1.37 1.37 1.37h76.13c.75 0 1.37-.61 1.37-1.37V9.95c0-.75-.61-1.37-1.37-1.37z" class="cls-7"/><path d="M22.89 6.58h29.67v15.8H22.89z" class="cls-6"/><path d="M52.56 24.38H22.89c-1.1 0-2-.9-2-2V6.58c0-1.1.9-2 2-2h29.67c1.1 0 2 .9 2 2v15.8c0 1.1-.9 2-2 2m-27.67-4h25.67V8.58H24.89z" class="cls-7"/><circle cx="65.55" cy="17.39" r="4.99" class="cls-6"/><path d="M65.55 24.38c-3.85 0-6.99-3.13-6.99-6.99a6.99 6.99 0 1 1 6.99 6.99m0-9.98c-1.65 0-2.99 1.34-2.99 2.99s1.34 2.99 2.99 2.99 2.99-1.34 2.99-2.99-1.34-2.99-2.99-2.99" class="cls-7"/><circle cx="85.22" cy="17.39" r="4.99" class="cls-6"/><path d="M85.22 24.38c-1.79 0-3.58-.68-4.94-2.04-2.73-2.72-2.73-7.16 0-9.88 2.72-2.72 7.16-2.72 9.88 0 2.73 2.72 2.73 7.16 0 9.88a6.97 6.97 0 0 1-4.94 2.04m0-9.97c-.77 0-1.53.29-2.11.87a2.99 2.99 0 0 0 0 4.23 2.99 2.99 0 0 0 4.23 0 2.983 2.983 0 0 0-2.11-5.1Z" class="cls-7"/><path d="M15.03 88.77h12.62c3.47 0 6.29 2.82 6.29 6.29v9.01" class="cls-6"/><path d="M33.94 106.07c-1.1 0-2-.9-2-2v-9.01a4.29 4.29 0 0 0-4.29-4.29H15.03c-1.1 0-2-.9-2-2s.9-2 2-2h12.62c4.57 0 8.29 3.72 8.29 8.29v9.01c0 1.1-.9 2-2 2" class="cls-7"/><circle cx="56" cy="61.41" r="29.7" class="cls-6"/><path d="M56 93.11c-17.48 0-31.7-14.22-31.7-31.7s14.22-31.7 31.7-31.7 31.7 14.22 31.7 31.7-14.22 31.7-31.7 31.7m0-59.4c-15.27 0-27.7 12.43-27.7 27.7s12.43 27.7 27.7 27.7 27.7-12.43 27.7-27.7-12.43-27.7-27.7-27.7" class="cls-7"/><circle cx="56" cy="61.41" r="20.32" style="stroke-width:0;fill:#8ed5eb"/><path d="M56 83.73c-12.31 0-22.32-10.01-22.32-22.32S43.69 39.09 56 39.09 78.32 49.1 78.32 61.41 68.31 83.73 56 83.73m0-40.65c-10.1 0-18.32 8.22-18.32 18.32S45.9 79.72 56 79.72 74.32 71.5 74.32 61.4 66.1 43.08 56 43.08" class="cls-7"/><path d="M66.7 63.41c-1.1 0-2-.9-2-2 0-4.8-3.9-8.7-8.7-8.7-1.1 0-2-.9-2-2s.9-2 2-2c7 0 12.7 5.7 12.7 12.7 0 1.1-.9 2-2 2" style="stroke-width:0;fill:#fff"/><path d="M59.35 71.04c-7.05-.92-12.6-6.82-13.13-13.9-.08-1.11-.04-2.19.1-3.24.23-1.64-1.88-2.44-2.82-1.08-2.02 2.92-3.04 6.57-2.56 10.49.83 6.84 6.37 12.36 13.21 13.17 3.95.47 7.64-.59 10.57-2.65 1.35-.95.53-3.06-1.11-2.81-1.37.21-2.8.23-4.26.04Z" style="stroke-width:0;fill:#6bc3d8"/></g></g></svg>