<svg xmlns="http://www.w3.org/2000/svg" id="flatten_icons" data-name="flatten icons" viewBox="0 0 112 112"><defs><style>.cls-4{stroke-width:0;fill:#004241}</style></defs><g id="enceinte"><path d="M0 0h112v112H0z" style="fill:none;stroke-width:0"/><path d="M82.06 23.36c-1-7.04-11.42-12.57-24.13-12.57S34.81 16.33 33.8 23.36h-.09v64.16c0 7.56 10.84 13.69 24.21 13.69s24.21-6.13 24.21-13.69V23.36h-.09Z" style="stroke-width:0;fill:#8e889a"/><path d="M57.94 103.21c-14.7 0-26.21-6.89-26.21-15.69V23.36c0-.33.08-.63.22-.9 1.63-7.84 12.63-13.67 26-13.67s24.37 5.83 26 13.67c.14.27.22.58.22.9v64.17c0 8.8-11.51 15.69-26.21 15.69ZM35.73 23.94v63.58c0 6.33 10.17 11.69 22.21 11.69s22.21-5.35 22.21-11.69V23.94c-.03-.1-.05-.19-.07-.29-.85-5.99-10.79-10.86-22.14-10.86S36.65 17.66 35.8 23.65c-.02.1-.04.2-.07.3Z" class="cls-4"/><path d="M57.94 35.81c-1.1 0-2-.9-2-2s.9-2 2-2c7.7 0 13.45-2.96 13.45-5.61s-5.75-5.61-13.45-5.61-13.45 2.96-13.45 5.61c0 1.19 1.27 2.53 3.41 3.59a2.002 2.002 0 0 1-1.77 3.59c-3.64-1.79-5.64-4.34-5.64-7.17 0-5.48 7.5-9.61 17.45-9.61s17.45 4.13 17.45 9.61-7.5 9.61-17.45 9.61Z" class="cls-4"/><circle cx="49.7" cy="84.39" r="4.54" style="stroke-width:0;fill:#89ddec"/><path d="M49.71 90.93c-3.61 0-6.54-2.93-6.54-6.54s2.93-6.54 6.54-6.54 6.54 2.93 6.54 6.54-2.93 6.54-6.54 6.54m0-9.08c-1.4 0-2.54 1.14-2.54 2.54s1.14 2.54 2.54 2.54 2.54-1.14 2.54-2.54-1.14-2.54-2.54-2.54" class="cls-4"/><circle cx="5.71" cy="46.76" r="3.71" class="cls-4"/><path d="M5.7 52.48c-1.17 0-2.3-.36-3.27-1.04a5.67 5.67 0 0 1-2.34-3.69c-.26-1.5.08-3.02.95-4.27a5.67 5.67 0 0 1 3.69-2.34c1.5-.26 3.02.08 4.27.95 1.25.88 2.08 2.19 2.34 3.69a5.72 5.72 0 0 1-4.65 6.61q-.495.09-.99.09m.02-7.43c-.1 0-.2 0-.3.03-.45.08-.84.33-1.11.7s-.36.83-.29 1.28c.08.45.33.84.7 1.11.38.26.83.36 1.28.29.93-.16 1.55-1.05 1.39-1.98-.08-.45-.33-.84-.7-1.11-.29-.21-.63-.31-.98-.31Z" class="cls-4"/><circle cx="19.8" cy="44.3" r="3.71" class="cls-4"/><path d="M19.8 50.02c-2.72 0-5.14-1.96-5.62-4.73a5.72 5.72 0 0 1 8.92-5.66c1.25.88 2.08 2.19 2.34 3.69s-.08 3.02-.95 4.27a5.67 5.67 0 0 1-3.69 2.34c-.33.06-.66.09-.98.09Zm0-7.43c-.1 0-.2 0-.3.03-.93.16-1.55 1.05-1.39 1.98s1.06 1.55 1.98 1.39c.45-.08.84-.33 1.11-.7s.36-.83.29-1.28c-.08-.45-.33-.84-.7-1.11-.29-.21-.63-.31-.98-.31Zm29.91 32.13c-.14 0-.27-.01-.4-.04-.12-.03-.25-.06-.37-.11a2.4 2.4 0 0 1-.35-.19c-.11-.07-.21-.15-.3-.25-.37-.37-.59-.88-.59-1.41s.22-1.05.59-1.42q.135-.135.3-.24c.11-.08.23-.14.35-.19s.25-.09.37-.11c.26-.05.53-.05.79 0 .12.02.25.06.37.11s.24.11.34.19c.11.07.22.15.31.24.37.38.58.89.58 1.42s-.21 1.04-.58 1.41c-.09.1-.2.18-.31.25-.1.07-.22.14-.34.19s-.25.08-.37.11c-.13.03-.26.04-.39.04m0-6.07a2.03 2.03 0 0 1-1.67-.89c-.07-.11-.13-.23-.18-.35s-.09-.24-.12-.37c-.02-.13-.04-.26-.04-.39a2.03 2.03 0 0 1 .89-1.67c.11-.07.23-.13.35-.18s.25-.09.37-.11c.26-.05.53-.05.79 0 .12.02.25.06.37.11s.24.11.34.18c.11.08.22.16.31.25a2.02 2.02 0 0 1 .43 2.18c-.05.12-.11.24-.18.35-.08.11-.16.21-.25.3s-.2.18-.31.25c-.1.07-.22.13-.34.18s-.25.09-.37.12c-.13.02-.26.04-.39.04" class="cls-4"/><path d="M9.37 48.12c-.95 0-1.8-.69-1.97-1.66L4.35 29c-.09-.52.03-1.06.33-1.49a2 2 0 0 1 1.29-.82l14.09-2.46c.52-.09 1.06.03 1.49.33.43.31.73.77.82 1.29l3.04 17.46c.19 1.09-.54 2.12-1.63 2.31-1.09.2-2.12-.54-2.31-1.63l-2.7-15.49-10.15 1.77 2.7 15.49a1.996 1.996 0 0 1-1.98 2.34Z" class="cls-4"/><circle cx="95.59" cy="63.22" r="3.71" class="cls-4"/><path d="M95.6 68.94c-.17 0-.34 0-.5-.02-1.52-.13-2.9-.85-3.88-2.02a5.7 5.7 0 0 1-1.32-4.17c.27-3.14 3.03-5.46 6.19-5.2 1.52.13 2.9.85 3.88 2.02s1.45 2.65 1.32 4.17-.85 2.9-2.02 3.88a5.68 5.68 0 0 1-3.66 1.34Zm-.01-7.43c-.88 0-1.63.67-1.71 1.56-.04.46.1.9.4 1.25a1.72 1.72 0 0 0 2.41.21c.35-.29.56-.71.6-1.16a1.695 1.695 0 0 0-1.55-1.85h-.15Z" class="cls-4"/><path d="M99.29 65.54h-.18c-1.1-.1-1.91-1.07-1.82-2.17l1.54-17.66c.1-1.1 1.04-1.91 2.17-1.82 4.23.37 7.9 3.02 9.57 6.92l1.27 2.95a2 2 0 0 1-1.05 2.63c-1.02.44-2.19-.03-2.63-1.05l-1.27-2.95a7.48 7.48 0 0 0-4.28-4.07l-1.34 15.4a2 2 0 0 1-1.99 1.83Z" class="cls-4"/></g></svg>