<svg xmlns="http://www.w3.org/2000/svg" id="flatten_icons" data-name="flatten icons" viewBox="0 0 112 112"><defs><style>.cls-4,.cls-5{stroke-width:0}.cls-4{fill:#f4f0df}.cls-5{fill:#004241}</style></defs><path d="M0 0h112v112H0z" style="fill:none;stroke-width:0"/><path d="m18.68 31-.57-17.16 13.37 4.03s31.21 19.51 46.36 36.46-1.18 38.53-4.58 37.75S54.2 79.27 39.11 65.45 18.67 31.01 18.67 31.01Z" style="stroke-width:0;fill:#bddb9c"/><path d="M73.44 94.09c-.21 0-.42-.02-.63-.07-4.37-1-21.65-14.83-35.06-27.1-15.35-14.06-20.8-34.55-21.02-35.41-.04-.14-.06-.29-.06-.44l-.56-17.16c-.02-.64.27-1.26.78-1.65s1.18-.51 1.8-.33l13.37 4.03c.17.05.33.12.48.22 1.28.8 31.63 19.86 46.79 36.82 12.33 13.79 4.83 29.18 2.24 33.56-.78 1.31-4.64 7.54-8.13 7.54ZM20.67 30.7c.6 2.14 6.12 20.74 19.8 33.27 15.72 14.4 29.86 24.92 32.99 26.07 1.42-.71 5.73-5.54 7.73-12.64 1.6-5.67 2.05-14.04-4.83-21.74C62.25 39.87 33.49 21.5 30.65 19.71l-10.44-3.14.47 14.14Z" class="cls-5"/><path d="M75.23 97.91s5.44 6.92 10.73 6.01c5.28-.91 13.64-10.21 14.86-13.28 2.35-5.91-.64-10.16-11.06-12.37S75.23 97.91 75.23 97.91" class="cls-4"/><path d="M84.97 106c-5.74 0-10.72-6.11-11.31-6.86-.36-.45-.5-1.04-.39-1.61.12-.61 2.92-15.11 10.04-19.85 2.14-1.42 4.45-1.89 6.87-1.37 6.62 1.4 10.69 3.68 12.44 6.95 1.25 2.33 1.27 5.06.06 8.11-1.37 3.44-10.16 13.44-16.38 14.52-.45.08-.89.11-1.33.11m-7.58-8.64c1.71 1.9 5.28 5.08 8.23 4.59 4.41-.76 12.3-9.43 13.34-12.05.77-1.93.81-3.48.14-4.75-1.13-2.11-4.5-3.82-9.75-4.93-1.35-.28-2.6-.03-3.82.79-4.4 2.93-7.19 12.06-8.14 16.35" class="cls-5"/><path d="M30.76 8c-3.86 14.11-2.01 30.01 5.2 44.45 4.37 8.75 10.11 18.2 17.18 25.7C71.29 97.38 86.35 90 91.73 85.19c5.37-4.8 8.55-19.79-6.55-36.69C70.08 31.61 40.9 20.21 30.76 8" class="cls-4"/><path d="M77.28 92.7c-7.61 0-16.5-3.56-25.58-13.18-6.26-6.63-12.15-15.44-17.52-26.17-7.45-14.92-9.35-31.21-5.34-45.87.2-.72.78-1.27 1.51-1.43s1.48.1 1.96.68c4.56 5.49 13.51 11.04 22.99 16.91 10.87 6.73 23.19 14.37 31.38 23.54 8.81 9.86 11.1 18.54 11.46 24.08.42 6.36-1.52 12.27-5.06 15.43a23.6 23.6 0 0 1-15.79 6.02ZM31.85 12.07c-2.56 12.76-.51 26.64 5.9 39.49 5.19 10.39 10.86 18.87 16.85 25.22 18.97 20.09 33.15 9.29 35.8 6.92 1.98-1.77 4.14-6.02 3.74-12.19-.32-4.91-2.4-12.66-10.45-21.67-7.81-8.74-19.87-16.21-30.5-22.8-8.24-5.1-16.09-9.97-21.33-14.96Z" class="cls-5"/><path d="M93.95 82.35s.02-5.44-9.7-13.26-24.13-1.3-39.45-11.1-23.22-22.4-34.37-31.82c0 0 1.19 8.77 11.09 25.96 6.93 12.03 16.54 35.16 32.09 43.53 14.97 8.06 31.46 3.43 40.34-13.32Z" class="cls-4"/><path d="M68.11 101.54c-5.14 0-10.37-1.38-15.44-4.11-13.18-7.09-22.16-24.15-28.72-36.61-1.48-2.81-2.88-5.47-4.16-7.69C9.81 35.8 8.5 26.82 8.45 26.44c-.11-.82.29-1.62 1.02-2.02s1.62-.31 2.25.22c4.36 3.68 8.14 7.74 12.14 12.04 6.28 6.74 12.77 13.71 22.02 19.62 7.62 4.87 14.88 5.48 21.89 6.07 6.49.54 12.63 1.06 17.73 5.16 10.18 8.19 10.45 14.17 10.45 14.83 0 .32-.08.64-.23.93-4.61 8.69-11.3 14.58-19.35 17.02-2.7.82-5.47 1.23-8.27 1.23Zm-53.8-69.06c1.53 4.23 4.23 10.47 8.94 18.66 1.32 2.29 2.73 4.97 4.23 7.82 6.32 12 14.97 28.44 27.08 34.95 6.88 3.7 14.02 4.59 20.65 2.58 6.84-2.08 12.59-7.09 16.67-14.51-.29-1.31-1.73-5.57-8.89-11.32-4.15-3.34-9.43-3.78-15.56-4.29-7.15-.6-15.26-1.28-23.72-6.68-9.67-6.19-16.34-13.34-22.79-20.27-2.24-2.4-4.4-4.72-6.62-6.93Zm79.64 49.87" class="cls-5"/><path d="m19.13 25.44 10.11 4.83" class="cls-4"/><path d="M29.24 32.27a1.9 1.9 0 0 1-.86-.2l-10.11-4.84c-1-.48-1.42-1.67-.94-2.67S19 23.14 20 23.62l10.11 4.84c1 .48 1.42 1.67.94 2.67-.34.72-1.06 1.14-1.81 1.14" class="cls-5"/><path d="M67.34 90.3c-14.7 0-25.43-17.19-25.9-17.96a2 2 0 1 1 3.41-2.09c.11.18 10.99 17.57 24.29 15.94 1.1-.13 2.09.65 2.23 1.74.13 1.1-.65 2.09-1.74 2.23-.77.09-1.53.14-2.28.14Z" style="stroke-width:0;fill:#fff"/></svg>