<svg xmlns="http://www.w3.org/2000/svg" id="flatten_icons" data-name="flatten icons" viewBox="0 0 112 112"><defs><style>.cls-2,.cls-3,.cls-5{stroke-width:0}.cls-2{fill:#579660}.cls-3{fill:#aad681}.cls-5{fill:#004241}</style></defs><path d="M0 0h112v112H0z" style="fill:none;stroke-width:0"/><path d="m71.21 73.65-11.19-5.16s-6.11-12.56-6.11-13.03 16.03-6.47 17.29-6.59 9.89 3.56 9.89 3.56l5.75 12.65 9.82 24.89-11.67 2.39z" class="cls-3"/><path d="m88.78 86.73 13.02 15.95s3.49 0 4.67-2.12-12.93-16.02-12.93-16.02z" class="cls-3"/><path d="M101.8 104.68c-.6 0-1.17-.27-1.55-.74L87.23 87.99a2.007 2.007 0 0 1 .71-3.09l4.76-2.19a2 2 0 0 1 2.24.39c15.2 14.98 13.94 17.22 13.27 18.43-1.71 3.05-5.94 3.14-6.42 3.14Zm-9.84-17.21 10.71 13.12c.59-.1 1.28-.3 1.71-.63-1.04-2.14-6.28-8.01-11.27-13.02z" class="cls-5"/><path d="M91.38 103.59s2.02 2.15 5.38 0-8.34-27.35-14.42-30.71" class="cls-3"/><path d="M93.87 106.54c-1.87 0-3.28-.87-3.95-1.58-.76-.8-.72-2.07.09-2.83.79-.74 2.03-.72 2.79.05.23.21 1.04.75 2.56-.09.56-3.79-8.67-24.52-13.99-27.46a1.99 1.99 0 0 1-.78-2.72c.54-.97 1.75-1.32 2.72-.78 6.26 3.46 15.83 23.92 16.04 30.46.06 1.77-.45 3.01-1.51 3.68-1.45.93-2.79 1.27-3.96 1.27Z" class="cls-5"/><path d="M72.94 78.29c6.23 4.78 13.27 26.3 13.27 26.3s2.81.81 5.17-1-7.76-23.32-14.8-28.02" class="cls-3"/><path d="M87.75 106.76c-1.19 0-2.02-.23-2.09-.25-.64-.18-1.14-.67-1.35-1.3-1.9-5.82-7.88-21.73-12.58-25.34a1.994 1.994 0 0 1-.37-2.8c.67-.88 1.93-1.04 2.8-.37 5.87 4.51 11.86 21.12 13.55 26.07.57-.01 1.31-.09 2.03-.49-.08-3.81-8.42-21.14-14.27-25.05-.92-.61-1.17-1.86-.55-2.77s1.86-1.16 2.77-.55c6.78 4.53 15.84 22.54 16.03 28.36.04 1.32-.33 2.3-1.12 2.91-1.67 1.28-3.49 1.59-4.85 1.59Z" class="cls-5"/><path d="M71.2 26.81s-1.16-7.87 3.01-9.58 3.54-3.17 6.93-5.09 7.22 3.24 5.86 6.23-3.43 7.63-5.93 9.69c-2.51 2.06.74 5.53.22 7.44s-2.39 5.38-4.77 5.45-5.47-2.87-5.47-2.87l.15-11.28Z" class="cls-3"/><path d="M76.44 42.96c-3.02 0-6.16-2.85-6.77-3.43-.4-.38-.63-.92-.62-1.47l.14-11.13c-.2-1.52-.97-9.41 4.26-11.55 1.93-.79 2.52-1.42 3.34-2.28.72-.76 1.61-1.7 3.36-2.7 2.07-1.17 4.58-.78 6.54 1.02 1.99 1.82 3.35 5.08 2.12 7.78l-.14.32c-1.5 3.29-3.56 7.8-6.34 10.09-.35.29-.35.69.31 2.53.46 1.25.93 2.55.57 3.89-.51 1.89-2.69 6.81-6.64 6.93h-.15Zm-3.37-5.77c1.07.87 2.53 1.77 3.36 1.77h.03c.88-.03 2.4-2.11 2.9-3.97 0-.2-.28-.97-.46-1.48-.65-1.8-1.74-4.81.9-6.99 2.06-1.7 3.98-5.89 5.24-8.66l.15-.32c.32-.69-.12-2.2-1.19-3.17-.47-.44-1.18-.87-1.87-.48-1.23.69-1.78 1.28-2.42 1.96-.94.99-2 2.12-4.73 3.24-2.04.83-2.09 5.37-1.79 7.44.01.1.02.21.02.31l-.13 10.36Z" class="cls-5"/><path d="M84.99 69.52s9.41 22.51 19.49 22.85c0 0 3.36-3.02 1.34-5.04s-6.71-.76-15.98-18.83" class="cls-3"/><path d="M104.48 94.37h-.07c-4.88-.16-9.98-4.36-15.15-12.48-3.66-5.75-6.02-11.37-6.12-11.6-.43-1.02.05-2.19 1.07-2.62s2.19.05 2.62 1.07c.02.05 2.35 5.58 5.83 11.04 3.94 6.17 7.82 9.84 11.04 10.49.48-.6.81-1.23.76-1.46-.26-.27-.69-.49-1.23-.77-2.84-1.44-7.59-3.86-15.18-18.63-.5-.98-.12-2.19.87-2.69.98-.51 2.19-.12 2.69.87 6.99 13.62 11.18 15.75 13.43 16.89.79.4 1.53.78 2.19 1.44.83.83 1.26 1.88 1.23 3.03-.06 2.46-2.22 4.52-2.65 4.91-.37.33-.84.51-1.34.51Z" class="cls-5"/><path d="M54.52 22.11s1.47-6.41 2.53-10.24 7.12-6.41 10.92.57c3.79 6.98 1.73 11.17 4.98 13.32 3.25 2.16 8.87 5.87 8.87 11.02s1.44 18.52-6.35 19.56-13.53-3.9-13.53-3.9l-9.66-13.68z" class="cls-2"/><path d="M73.3 58.49c-7.3 0-12.42-4.32-12.66-4.53-.12-.11-.24-.23-.33-.36l-9.66-13.68a2 2 0 0 1-.35-1.42l2.24-16.65c0-.06.02-.12.03-.18.06-.26 1.49-6.49 2.55-10.32.76-2.75 3.29-4.9 6.15-5.23 1.57-.18 5.52-.02 8.45 5.37 2.02 3.71 2.52 6.74 2.89 8.95.38 2.3.58 3.09 1.44 3.67 3.44 2.29 9.77 6.48 9.77 12.68 0 .6.02 1.32.04 2.11.18 6.39.51 18.28-8.12 19.43-.83.11-1.65.16-2.44.16m-9.89-7.43c.94.72 5.72 4.12 11.8 3.3 4.45-.59 4.87-7.73 4.66-15.35-.02-.84-.04-1.59-.04-2.22 0-4.05-4.97-7.35-7.94-9.32-2.43-1.61-2.81-3.93-3.22-6.37-.36-2.15-.76-4.58-2.45-7.69-1.26-2.32-2.85-3.49-4.48-3.31-1.26.14-2.42 1.12-2.75 2.32-.97 3.5-2.31 9.28-2.49 10.06l-2.12 15.78 9.05 12.81Z" class="cls-5"/><path d="M88.01 63.52s-4.47-7.97-3.02-14.5 9.32-2.85 15.17-6.36c5.86-3.52 9.99-14.53 9.75-21.7-.25-7.17 1.42-13.35-3.37-13.6s-14.6-.71-15.51 5.09c-.9 5.79-8.32 7.15-9.81 12.41s-3.76 14.54 0 19.35c0 0-2.08 2.82-1.73 8.24.36 5.42 3.9 12.65 3.9 12.65" class="cls-3"/><path d="M83.4 67.09c-.74 0-1.45-.41-1.8-1.12-.15-.31-3.72-7.65-4.1-13.39-.26-4.01.66-6.79 1.38-8.28-3.12-5.43-1.3-13.91.42-19.98.88-3.1 3.3-5.04 5.45-6.74 2.12-1.69 3.95-3.15 4.31-5.43 1.19-7.62 12.68-7.03 17.58-6.77 5.61.29 5.45 5.88 5.3 10.81-.04 1.52-.09 3.09-.03 4.72.27 7.89-4.25 19.6-10.72 23.48-2.77 1.67-5.78 1.93-8.42 2.17-3.99.35-5.33.66-5.83 2.91-1.05 4.75 1.67 11.06 2.81 13.09.54.96.2 2.18-.77 2.72-.96.54-2.18.2-2.72-.77-.2-.35-4.82-8.72-3.23-15.91 1.18-5.31 5.73-5.71 9.38-6.03 2.33-.21 4.73-.42 6.72-1.61 5.14-3.08 9-13.41 8.78-19.91-.06-1.76-.01-3.47.03-4.98.17-5.79-.17-6.63-1.51-6.7-3.5-.18-12.79-.66-13.43 3.4-.6 3.83-3.35 6.01-5.77 7.95-1.91 1.52-3.56 2.83-4.09 4.7-.92 3.28-3.74 13.24-.35 17.58.55.71.57 1.7.03 2.42-.05.08-1.64 2.4-1.34 6.92.33 4.95 3.66 11.83 3.7 11.9a2 2 0 0 1-.92 2.67c-.28.14-.58.2-.88.2Z" class="cls-5"/><path d="M59.87 65.09s8.5-2.29 6.4-11.97c-2.11-9.68-10.74-13.26-12.42-22.52S43.78 16.71 36.6 13.76s-9.07-.42-9.91 2.74 1.96 12.99-.28 12.5 0 16.13 0 16.13l19.6 18.4 13.86 1.57Z" class="cls-2"/><path d="M59.87 67.09c-.08 0-.15 0-.23-.01l-13.86-1.57c-.43-.05-.83-.23-1.14-.53l-19.6-18.4c-.33-.31-.55-.74-.61-1.19-2.1-15.6-.39-17.18.25-17.77q.285-.27.63-.42c0-1.02-.21-2.81-.36-4.09-.33-2.78-.64-5.41-.19-7.13.41-1.55 1.23-3.75 3.49-4.87 2.19-1.08 5.17-.82 9.12.8 7.02 2.88 16.56 7.92 18.45 18.33.75 4.15 3.14 7.11 5.67 10.24 2.75 3.41 5.59 6.93 6.74 12.22 1.98 9.13-4.26 13.37-7.83 14.33-.17.04-.34.07-.52.07Zm-12.98-5.48 12.78 1.45c1.42-.51 6.12-2.72 4.64-9.51-.95-4.36-3.37-7.37-5.94-10.55-2.73-3.39-5.56-6.89-6.49-12.04-1.53-8.39-9.37-12.61-16.04-15.35-3.64-1.5-5.21-1.21-5.82-.91-.42.21-.95.66-1.4 2.32-.26.98.06 3.67.29 5.63.5 4.22.7 6.48-.67 7.72-.22.2-.47.36-.75.47-.29 2.13.13 8.11.8 13.33l18.59 17.46ZM25.97 30.94" class="cls-5"/><path d="M69.95 72.2c-1.94 1.31-2.06 1.6-1.96 4.13.06 1.37 4.75 4.73 6.28 4.38 3.09-.72 9.38-7.75 15.89-9.75 2.05-.63 2.94-3.06 1.74-4.84-.94-1.4-2.22-2.59-3.9-2.59-4.65 0-12.12 4.65-18.06 8.68Z" style="stroke-width:0;fill:#e58989"/><path d="M74.04 82.73c-1.8 0-3.92-1.39-5.1-2.29-2.86-2.18-2.92-3.57-2.94-4.03-.13-3.07.2-4.08 2.83-5.87 6.58-4.46 14.01-9.03 19.19-9.03 1.47 0 3.63.6 5.56 3.48a5.12 5.12 0 0 1 .57 4.62 5.2 5.2 0 0 1-3.39 3.25c-3.39 1.04-6.94 3.76-9.8 5.95-2.51 1.92-4.49 3.44-6.23 3.84-.22.05-.45.08-.69.08m-4.06-6.75c.59.87 3.02 2.55 3.98 2.74.96-.32 2.87-1.78 4.57-3.08 3.11-2.38 6.98-5.34 11.05-6.59.53-.16.73-.59.8-.76.07-.21.16-.63-.13-1.06-.52-.78-1.33-1.71-2.23-1.71-4.65 0-13.58 6.06-16.94 8.34-.23.16-.95.64-1.06.82-.06.17-.04.85-.03 1.31Zm-.07-.12" class="cls-5"/><path d="M66.76 72.65s-5.6-2.53-15.68-4.16c-6.96-1.12-11.44 4.62-25.04 1.85s-14.7-9.39-18.01-16.01-3.31-18.38-5.51-24.99c0 0-2.94-6.62 5.15-6.98 8.09-.37 14.7 1.1 18.74 6.62 4.04 5.51 4.82 5.51 13.99 7.35s10 8.25 10.69 10.92c.54 2.12 2.51 9.61 1.49 13.18-.33 1.15.28 2.59 1.47 2.7 4.29.38 14.74 6.71 17.16 7.91" class="cls-2"/><path d="M66.76 74.66c-.27 0-.55-.06-.82-.18-.05-.02-5.53-2.45-15.18-4-2.39-.39-4.5.2-7.17.95-4.19 1.17-9.4 2.63-17.95.88-12.77-2.61-15.52-8.65-18.18-14.49-.39-.86-.78-1.72-1.22-2.59-2.06-4.12-2.88-9.79-3.68-15.27-.55-3.75-1.06-7.3-1.92-9.91-.29-.7-1.43-3.84.23-6.53 1.2-1.95 3.46-3.01 6.7-3.16 6.23-.28 15.13.18 20.45 7.43 3.45 4.71 3.61 4.74 11.91 6.4l.85.17c9.76 1.96 11.39 8.84 12.08 11.79q.075.33.15.6l.04.15c1.11 4.32 2.47 10.48 1.44 14.07-.02.05-.01.12 0 .18 3.56.45 9.48 3.6 15.25 6.8 1.04.58 1.87 1.04 2.36 1.28a1.998 1.998 0 1 1-1.78 3.58c-.39-.19-.97-.51-1.7-.91.19.48.19 1.04-.04 1.56-.33.74-1.06 1.18-1.82 1.18Zm-17.53-8.3c.7 0 1.42.05 2.17.17 5.99.97 10.43 2.24 13.13 3.15-3.72-2-8.44-4.35-10.67-4.55-1.07-.1-2.01-.66-2.64-1.58a4.4 4.4 0 0 1-.58-3.67c.39-1.35.45-4.53-1.47-11.97l-.04-.16c-.05-.21-.11-.43-.16-.67-.69-2.92-1.73-7.33-8.98-8.78l-.85-.17c-8.46-1.69-9.98-2-14.35-7.96-3.23-4.4-8.49-6.19-17.04-5.8-1.78.08-3.01.53-3.47 1.26-.57.92-.13 2.46.07 2.93.02.05.05.12.06.17.99 2.96 1.53 6.71 2.11 10.68.75 5.17 1.53 10.51 3.3 14.05.45.91.87 1.82 1.28 2.72 2.55 5.6 4.56 10.03 15.34 12.22 7.61 1.55 12.1.29 16.07-.82 2.23-.62 4.36-1.22 6.72-1.22" class="cls-5"/><path d="M29.09 12.92s8.56 3.53 8.56 5.35-.12 6.43 3.52 6.91c3.64.49 6.55 3.15 6.55 5.21s2.55 6.79 9.34 8.37c0 0-1.33-6.06-1.09-11.52S48.21 11.6 39.36 10.99c-6.78-.46-10.25 1.93-10.25 1.93Z" class="cls-3"/><path d="M57.05 40.77c-.15 0-.3-.02-.45-.05-7.51-1.74-10.89-7.08-10.89-10.31 0-.77-1.87-2.84-4.81-3.23-5.06-.67-5.25-6.27-5.25-8.47-.86-.84-4.11-2.6-7.32-3.92-.68-.28-1.15-.91-1.23-1.64s.25-1.44.86-1.86c.17-.11 4.13-2.78 11.52-2.27 4.47.31 9.22 2.83 13.04 6.94 3.5 3.75 5.58 8.12 5.43 11.4-.23 5.14 1.03 10.94 1.05 11 .15.67-.06 1.37-.55 1.85-.38.38-.89.58-1.41.58Zm-22.6-27.58c5.19 2.72 5.19 4.32 5.19 5.08v.17c0 3.21.51 4.58 1.78 4.75 4.41.59 8.28 3.95 8.28 7.2 0 .95 1.24 3.64 4.78 5.37-.34-2.33-.67-5.54-.53-8.61.18-4.1-6.83-13.62-14.75-14.17-1.87-.13-3.46-.02-4.76.2Zm1.34 5.67h.01zm39.5 50.94c-.61 0-1.22-.28-1.61-.81-1.91-2.57-7.14-5.94-9-7.02a2 2 0 0 1-.59-.52c-5.81-7.7-11.43-6.99-11.48-6.99-1.09.19-2.12-.55-2.3-1.64s.55-2.12 1.64-2.3c.32-.06 7.82-1.2 15.1 8.2 1.51.91 7.38 4.55 9.86 7.89a2 2 0 0 1-1.61 3.19Zm10.96-26.83c-.57 0-1.13-.24-1.52-.71-.71-.84-.61-2.1.23-2.82.12-.1 11.51-9.9 12.55-19.58.03-.22.56-4.13 1.2-6.18a2.004 2.004 0 0 1 2.51-1.31c1.05.33 1.64 1.45 1.31 2.51-.45 1.44-.91 4.44-1.05 5.47-1.21 11.23-13.41 21.71-13.93 22.15-.38.32-.84.48-1.29.48Z" class="cls-5"/><path d="M90.75 38.19c-.68 0-1.35-.35-1.74-.96-.88-1.4-1.4-6.11-1.67-9.81-.08-1.1.74-2.06 1.85-2.14 1.1-.09 2.06.74 2.14 1.84.24 3.25.75 7.26 1.11 8.05.59.93.29 2.13-.64 2.72-.32.2-.68.3-1.04.3Z" class="cls-5"/><path d="M94.06 35.11c-1.07 0-1.96-.85-2-1.93-.04-1.1.83-2.03 1.93-2.07 1.09-.04 4.49-.5 5.68-2.03.68-.87 1.94-1.02 2.81-.34s1.02 1.94.34 2.81c-2.56 3.27-8.08 3.54-8.7 3.56h-.07ZM79.17 67.88c-.9 0-1.72-.61-1.94-1.53-.47-1.91-3.07-6.11-4.6-8.31-.63-.91-.41-2.15.5-2.78s2.15-.41 2.78.5c.45.64 4.41 6.39 5.21 9.65a2.013 2.013 0 0 1-1.94 2.48Z" class="cls-5"/><path d="M5 42.74c.66 4.29 1.49 8.51 3.03 11.6 3.31 6.62 4.41 13.23 18.01 16.01 10.89 2.22 15.93-1.02 21.08-1.82-.03 0-.05-.02-.08-.03-3.87-1.17-9.88-4.22-11.72-7.88-1.83-3.66-7.66-.39-12.08-.92C12.85 58.45 4.99 42.74 4.99 42.74Z" class="cls-3"/><path d="M33.16 73.12c-2.19 0-4.67-.23-7.52-.81-12.77-2.61-15.52-8.65-18.18-14.49-.39-.86-.78-1.72-1.22-2.59-1.7-3.39-2.55-7.87-3.22-12.19a2.001 2.001 0 0 1 3.77-1.2c.07.15 7.5 14.77 16.69 15.87 1.32.16 2.95-.13 4.54-.4 3.24-.56 7.27-1.25 9.09 2.41 1.36 2.71 6.41 5.62 10.51 6.86.05.02.14.05.19.07a2.02 2.02 0 0 1 1.27 2.09c-.1.9-.77 1.62-1.66 1.76-1.21.19-2.48.55-3.83.92-2.79.78-6.04 1.69-10.44 1.69Zm-23.4-19.8s.04.09.06.13c.45.91.87 1.82 1.28 2.72 2.55 5.6 4.56 10.03 15.34 12.22 6.56 1.34 10.81.59 14.4-.36-2.95-1.59-5.95-3.81-7.3-6.52-.43-.86-1.78-.78-4.84-.25-1.78.31-3.8.66-5.69.43-5.26-.63-9.83-4.42-13.25-8.37" class="cls-5"/></svg>