<svg xmlns="http://www.w3.org/2000/svg" id="flatten_icons" data-name="flatten icons" viewBox="0 0 112 112"><defs><style>.cls-2,.cls-3,.cls-4{stroke-width:0}.cls-2{fill:#aad681}.cls-3{fill:#f4f0df}.cls-4{fill:#004241}</style></defs><path d="M0 0h112v112H0z" style="fill:none;stroke-width:0"/><path d="m99.7 41.87-9.73-4.84-6.36 12.78c-2.98 5.99-8.58 10.14-15.11 11.57-4.17.91-8.38 2.75-12.12 5.03-3.73-2.29-7.94-4.12-12.12-5.03-6.53-1.43-12.13-5.59-15.11-11.57l-6.36-12.78-9.73 4.84 7.83 15.75c2.44 4.9 3.02 10.58 1.37 15.8-2.63 8.3-1.13 18.64 2.31 24.81 5.3 9.51 14.43 11.78 31.13 11.78.24 0 .46-.02.68-.03.23 0 .45.03.68.03 16.7 0 25.83-2.26 31.13-11.78 3.44-6.18 4.93-16.51 2.31-24.81-1.65-5.22-1.07-10.89 1.37-15.8z" class="cls-3"/><path d="M57.07 112c-.19 0-.37 0-.55-.02h-.26c-.18.01-.36.02-.55.02-16.3 0-26.91-2.09-32.88-12.8-4.06-7.29-5.08-18.14-2.47-26.39 1.47-4.65 1.03-9.73-1.25-14.3l-7.83-15.75c-.24-.47-.27-1.02-.11-1.53.17-.5.53-.92 1.01-1.15l9.73-4.84c.99-.49 2.19-.09 2.68.9l6.36 12.78c2.66 5.35 7.67 9.18 13.75 10.51 3.83.84 7.85 2.44 11.69 4.66 3.84-2.22 7.86-3.82 11.69-4.66 6.08-1.33 11.09-5.16 13.75-10.51l6.36-12.78c.49-.99 1.69-1.39 2.68-.9l9.73 4.84c.48.24.84.65 1.01 1.15s.13 1.05-.11 1.53l-7.83 15.75c-2.28 4.58-2.72 9.66-1.25 14.3 2.61 8.25 1.59 19.1-2.47 26.39-5.97 10.71-16.57 12.8-32.88 12.8m-.68-4.03h.38c.1.02.21.03.31.03 17.49 0 24.9-2.71 29.38-10.75 3.01-5.4 4.71-15.12 2.15-23.23-1.78-5.64-1.26-11.78 1.48-17.29l6.94-13.96-6.15-3.06-5.47 10.99c-3.2 6.44-9.21 11.04-16.47 12.63-3.75.82-7.73 2.48-11.5 4.78-.64.39-1.45.39-2.09 0-3.77-2.31-7.75-3.96-11.5-4.78-7.27-1.59-13.27-6.2-16.47-12.63l-5.47-10.99-6.15 3.06 6.94 13.96c2.74 5.51 3.27 11.65 1.48 17.29-2.57 8.12-.86 17.83 2.15 23.23C30.81 105.29 38.22 108 55.71 108c.11 0 .21 0 .31-.01h.29s.05-.02.08-.02" class="cls-4"/><path d="M63.31 39.78V23.24H52.44v15.04c0 10.26-3.98 20.01-10.76 27.71-5.9 6.7-9.68 16.36-9.68 24.43 0 13.93 11.29 19.57 25.23 19.57s25.23-5.64 25.23-19.57c0-8.01-3.73-17.59-9.55-24.28-6.33-7.28-9.58-16.73-9.58-26.37Z" class="cls-3"/><path d="M57.23 112C40.18 112 30 103.94 30 90.43c0-8.61 4-18.72 10.18-25.75 6.62-7.52 10.26-16.89 10.26-26.39V23.25c0-1.1.9-2 2-2h10.87c1.1 0 2 .9 2 2v16.54c0 9.41 3.23 18.31 9.09 25.05 6.1 7.02 10.05 17.07 10.05 25.6 0 13.51-10.18 21.57-27.23 21.57Zm-2.78-86.76v13.04c0 10.47-4 20.78-11.25 29.03-5.49 6.25-9.19 15.53-9.19 23.11 0 6.56 3.02 17.57 23.23 17.57s23.23-11.01 23.23-17.57c0-7.62-3.56-16.64-9.06-22.97-6.5-7.47-10.07-17.3-10.07-27.68V25.23h-6.87Z" class="cls-4"/><path d="M41.51 84.99s.67 22.09 21.96 24.6" class="cls-3"/><path d="M63.48 111.58c-.08 0-.16 0-.24-.01-22.74-2.68-23.72-26.29-23.73-26.52a2 2 0 0 1 1.94-2.06c1.09-.08 2.02.83 2.06 1.93.03.83.91 20.41 20.2 22.68 1.1.13 1.88 1.12 1.75 2.22a2 2 0 0 1-1.98 1.77Z" class="cls-4"/><path d="M57.22 59.54s3.32 11.03 9.37 16.51c6.06 5.48 8.07 18.46 1.15 23.65" class="cls-3"/><path d="M67.75 101.69c-.61 0-1.21-.28-1.6-.8-.66-.88-.48-2.14.4-2.8 2.13-1.6 3.39-4.35 3.54-7.75.22-4.77-1.77-10.04-4.84-12.81-6.4-5.79-9.81-16.94-9.95-17.42-.32-1.06.28-2.17 1.34-2.49s2.17.28 2.49 1.34c.03.11 3.24 10.57 8.8 15.6 3.95 3.58 6.43 9.99 6.15 15.96-.21 4.62-2.04 8.44-5.14 10.77-.36.27-.78.4-1.2.4Z" class="cls-4"/><path d="M52.49 39.78v-28.8h10.82v28.8" class="cls-2"/><path d="M63.31 41.78c-1.1 0-2-.9-2-2v-26.8h-6.82v26.8c0 1.1-.9 2-2 2s-2-.9-2-2v-28.8c0-1.1.9-2 2-2h10.82c1.1 0 2 .9 2 2v28.8c0 1.1-.9 2-2 2" class="cls-4"/><path d="M16.07 47.92 4.19 25.38l11.88-6.35 11.3 27.19" class="cls-2"/><path d="M16.07 49.92a2 2 0 0 1-1.77-1.07L2.42 26.31a2.01 2.01 0 0 1 .83-2.7l11.88-6.35a1.99 1.99 0 0 1 2.79 1l11.3 27.18a1.997 1.997 0 1 1-3.69 1.53L15.08 21.82l-8.19 4.37 10.96 20.78c.52.98.14 2.19-.84 2.7-.3.16-.62.23-.93.23Z" class="cls-4"/><path d="m83.61 49.81 11.53-26.32 12.67 3.61-15.94 30.52" class="cls-2"/><path d="M91.87 59.62c-.31 0-.63-.07-.92-.23a2 2 0 0 1-.85-2.7l14.81-28.34-8.63-2.46-10.83 24.72a2 2 0 0 1-2.63 1.03 2 2 0 0 1-1.03-2.63L93.32 22.7a2 2 0 0 1 2.38-1.12l12.67 3.61c.58.17 1.05.58 1.29 1.13s.21 1.18-.06 1.72L93.65 58.55a2 2 0 0 1-1.77 1.07ZM52.49 36.23c-.73 0-1.44-.4-1.79-1.11l-10.55-21.1-5.01-1.09a2.007 2.007 0 0 1-1.53-2.38c.23-1.08 1.3-1.77 2.38-1.53l5.94 1.29c.59.13 1.09.52 1.36 1.06l10.98 21.95c.49.99.09 2.19-.89 2.68-.29.14-.59.21-.89.21Zm10.82-10.99a1.992 1.992 0 0 1-1.79-2.87L71.84 1.13c.48-.99 1.68-1.41 2.67-.92.99.48 1.41 1.68.92 2.67L65.11 24.12c-.35.71-1.06 1.13-1.8 1.13Z" class="cls-4"/><path d="M78.08 10.39h-7.54c-.87 0-1.64-.56-1.9-1.39l-2.06-6.39c-.34-1.05.24-2.18 1.29-2.52s2.18.24 2.52 1.29l1.61 5h6.08c1.1 0 2 .9 2 2s-.9 2-2 2Zm7.65 36.56c-.92 0-1.75-.64-1.95-1.58l-2-9.22-3.96-4.03c-.77-.79-.76-2.05.02-2.83.79-.77 2.05-.76 2.83.02l4.37 4.44c.27.27.45.61.53.98l2.13 9.79c.23 1.08-.45 2.14-1.53 2.38-.14.03-.29.05-.43.05ZM16.07 21.03q-.24 0-.48-.06a1.994 1.994 0 0 1-1.46-2.42l1.7-6.89-4.11-3.74c-.82-.74-.88-2.01-.13-2.83.74-.82 2.01-.88 2.83-.13l4.99 4.54c.54.49.77 1.25.6 1.96l-1.98 8.05c-.22.91-1.04 1.52-1.94 1.52Z" class="cls-4"/><path d="M83.61 37.16c-.1 0-.2 0-.31-.02a2 2 0 0 1-1.67-2.28l1.01-6.54a2 2 0 0 1 3.95.61l-1.01 6.54c-.15.99-1 1.7-1.97 1.7ZM18.05 12.98c-.38 0-.77-.11-1.11-.34a1.99 1.99 0 0 1-.55-2.77l3.04-4.54c.61-.92 1.85-1.16 2.77-.55s1.17 1.86.55 2.77l-3.04 4.54a2 2 0 0 1-1.67.89Zm23.46 1.3a1.9 1.9 0 0 1-.86-.2c-1-.48-1.42-1.67-.94-2.67l3.4-7.08c.48-1 1.67-1.42 2.67-.94s1.42 1.67.94 2.67l-3.4 7.08c-.34.72-1.06 1.13-1.8 1.13Zm6.01 12.01c-.09 0-.18 0-.26-.02l-6.01-.79a1.995 1.995 0 0 1-1.72-2.24c.15-1.1 1.15-1.87 2.25-1.72l6.01.79c1.09.14 1.87 1.15 1.72 2.24a1.995 1.995 0 0 1-1.98 1.74Z" class="cls-4"/></svg>