<?xml version="1.0" encoding="UTF-8"?>
<svg id="flatten_icons" data-name="flatten icons" xmlns="http://www.w3.org/2000/svg" viewBox="0 0 112 112">
  <defs>
    <style>
      .cls-1 {
        fill: none;
      }

      .cls-1, .cls-2, .cls-3, .cls-4, .cls-5, .cls-6 {
        stroke-width: 0px;
      }

      .cls-2 {
        fill: #57a6cb;
      }

      .cls-3 {
        fill: #d3e7ee;
      }

      .cls-4 {
        fill: #fff;
      }

      .cls-5 {
        fill: #ed706b;
      }

      .cls-6 {
        fill: #004241;
      }
    </style>
  </defs>
  <g id="ferry">
    <g id="area">
      <rect class="cls-1" width="112" height="112"/>
    </g>
    <g id="see">
      <path class="cls-3" d="m6.84,63.23h97.39c2.93,0,5.3,2.38,5.3,5.3v16.61c0,12-9.74,21.74-21.74,21.74H23.27c-12,0-21.74-9.74-21.74-21.74v-16.61c0-2.93,2.38-5.3,5.3-5.3Z"/>
      <path class="cls-4" d="m26.45,88.05c-1.66,0-3.33-.56-4.62-1.67l-.4-.35c-1.1-.94-2.94-.94-4.04,0-.84.72-2.1.62-2.82-.22-.72-.84-.62-2.1.22-2.82,2.59-2.23,6.66-2.22,9.25,0l.4.35c1.08.92,2.96.92,4.04,0l.13-.11c2.59-2.22,6.65-2.22,9.25,0,1.09.94,2.94.94,4.04,0l.37-.32c2.59-2.22,6.66-2.22,9.25,0,.84.72.93,1.98.21,2.82-.72.84-1.98.93-2.82.21-1.09-.94-2.94-.94-4.04,0l-.37.32c-2.59,2.22-6.65,2.22-9.25,0-1.09-.94-2.94-.94-4.04,0l-.13.11c-1.3,1.11-2.96,1.67-4.62,1.67Z"/>
      <path class="cls-4" d="m69.39,99.48c-1.66,0-3.33-.56-4.62-1.67l-.41-.35c-1.1-.94-2.94-.94-4.04,0-.84.72-2.1.62-2.82-.22-.72-.84-.62-2.1.22-2.82,2.59-2.23,6.66-2.22,9.25,0l.4.35c1.1.94,2.95.94,4.04,0l.13-.11c2.59-2.22,6.65-2.23,9.25,0,1.09.94,2.94.94,4.04,0l.37-.32c2.59-2.22,6.65-2.23,9.25,0,.84.72.93,1.98.21,2.82-.72.84-1.98.94-2.82.22-1.09-.94-2.94-.94-4.04,0l-.37.32c-2.59,2.22-6.66,2.23-9.25,0-1.07-.92-2.96-.92-4.04,0l-.13.11c-1.3,1.11-2.96,1.67-4.62,1.67Z"/>
    </g>
    <g id="boat">
      <path class="cls-2" d="m86.07,73.24h4.56c3.89,0,7.52-1.97,9.64-5.23l9.26-20.15H6.32l.43,16.59c.2,4.91,4.24,8.79,9.16,8.79h62.97"/>
      <polyline class="cls-3" points="11.69 47.86 11.69 36.83 20.57 27.32 54.24 27.32 54.24 20.15 72.61 20.15 87.76 35.3 91.69 47.86"/>
      <path class="cls-4" d="m90.63,73.24c3.89,0,7.52-1.97,9.64-5.23l4.22-9.19-.86-.38s-17.68-4.01-38.04,3.27c-2.9,1.04-5.97,1.53-9.06,1.53H6.72s.03,1.21.03,1.21c.2,4.91,4.24,8.79,9.16,8.79h74.72Z"/>
      <path class="cls-6" d="m90.63,75.24h-4.56c-1.1,0-2-.9-2-2s.9-2,2-2h4.56c3.18,0,6.12-1.57,7.89-4.21l7.9-17.17H8.38l.38,14.54c.16,3.83,3.3,6.85,7.16,6.85h62.97c1.1,0,2,.9,2,2s-.9,2-2,2H15.91c-6.01,0-10.91-4.71-11.15-10.71l-.43-16.62c-.01-.54.19-1.06.57-1.45.38-.39.89-.6,1.43-.6h103.21c.68,0,1.32.35,1.68.92.37.57.42,1.3.13,1.91l-9.26,20.15c-.04.09-.09.17-.14.25-2.5,3.85-6.73,6.14-11.32,6.14Z"/>
      <path class="cls-6" d="m91.69,49.86c-.85,0-1.64-.55-1.91-1.4l-3.79-12.09-14.21-14.21h-15.55v5.17c0,1.1-.9,2-2,2H21.43l-7.74,8.29v10.24c0,1.1-.9,2-2,2s-2-.9-2-2v-11.03c0-.51.19-1,.54-1.37l8.88-9.5c.38-.4.91-.63,1.46-.63h31.67v-5.17c0-1.1.9-2,2-2h18.38c.53,0,1.04.21,1.41.59l15.14,15.14c.23.23.4.51.49.82l3.93,12.56c.33,1.05-.26,2.18-1.31,2.51-.2.06-.4.09-.6.09Z"/>
      <path class="cls-6" d="m20.57,38.83h-8.88c-1.1,0-2-.9-2-2s.9-2,2-2h8.88c1.1,0,2,.9,2,2s-.9,2-2,2Z"/>
      <path class="cls-6" d="m37.53,38.83h-8.88c-1.1,0-2-.9-2-2s.9-2,2-2h8.88c1.1,0,2,.9,2,2s-.9,2-2,2Z"/>
      <path class="cls-6" d="m54.16,38.83h-8.88c-1.1,0-2-.9-2-2s.9-2,2-2h8.88c1.1,0,2,.9,2,2s-.9,2-2,2Z"/>
      <path class="cls-6" d="m70.55,38.83h-8.88c-1.1,0-2-.9-2-2s.9-2,2-2h8.88c1.1,0,2,.9,2,2s-.9,2-2,2Z"/>
      <path class="cls-6" d="m87.76,38.83h-10.84c-1.1,0-2-.9-2-2s.9-2,2-2h10.84c1.1,0,2,.9,2,2s-.9,2-2,2Z"/>
      <path class="cls-6" d="m56.54,65.23H6.75c-1.1,0-2-.9-2-2s.9-2,2-2h49.78c2.94,0,5.76-.48,8.38-1.41,20.67-7.39,38.41-3.5,39.15-3.33,1.08.24,1.75,1.31,1.51,2.39-.24,1.08-1.31,1.75-2.39,1.51-.17-.04-17.39-3.78-36.92,3.2-3.06,1.09-6.33,1.65-9.73,1.65Z"/>
      <g>
        <polyline class="cls-4" points="37.35 25.79 34.23 8.41 22.04 8.41 22.04 25.63"/>
        <path class="cls-6" d="m37.34,27.79c-.95,0-1.79-.68-1.97-1.65l-2.82-15.74h-8.52v15.22c0,1.1-.9,2-2,2s-2-.9-2-2V8.41c0-1.1.9-2,2-2h12.2c.97,0,1.8.69,1.97,1.65l3.11,17.38c.19,1.09-.53,2.13-1.62,2.32-.12.02-.24.03-.35.03Z"/>
      </g>
      <path class="cls-6" d="m44.14,27.79c-1.1,0-2-.9-2-2v-5.85c0-1.1.9-2,2-2s2,.9,2,2v5.85c0,1.1-.9,2-2,2Z"/>
      <g>
        <polygon class="cls-5" points="35.47 15.29 34.23 8.41 22.04 8.41 22.04 15.29 35.47 15.29"/>
        <path class="cls-6" d="m35.47,17.29h-13.43c-1.1,0-2-.9-2-2v-6.88c0-1.1.9-2,2-2h12.2c.97,0,1.8.69,1.97,1.65l1.23,6.88c.1.58-.05,1.18-.43,1.64-.38.45-.94.72-1.53.72Zm-11.43-4h9.04l-.52-2.88h-8.52v2.88Z"/>
      </g>
      <path class="cls-6" d="m94.4,23.48c-.51,0-1.02-.2-1.41-.59l-4.94-4.94c-.78-.78-.78-2.05,0-2.83.78-.78,2.05-.78,2.83,0l3.53,3.53,6.09-6.09c.78-.78,2.05-.78,2.83,0s.78,2.05,0,2.83l-7.5,7.5c-.39.39-.9.59-1.41.59Z"/>
    </g>
  </g>
</svg>