<svg xmlns="http://www.w3.org/2000/svg" id="flatten_icons" data-name="flatten icons" viewBox="0 0 112 112"><defs><style>.cls-3,.cls-4,.cls-6{stroke-width:0}.cls-3{fill:#d3e7ee}.cls-4{fill:#fff}.cls-6{fill:#004241}</style></defs><g id="ferry"><path id="area" d="M0 0h112v112H0z" style="fill:none;stroke-width:0"/><g id="see"><path d="M6.84 63.23h97.39c2.93 0 5.3 2.38 5.3 5.3v16.61c0 12-9.74 21.74-21.74 21.74H23.27c-12 0-21.74-9.74-21.74-21.74V68.53c0-2.93 2.38-5.3 5.3-5.3Z" class="cls-3"/><path d="M26.45 88.05c-1.66 0-3.33-.56-4.62-1.67l-.4-.35c-1.1-.94-2.94-.94-4.04 0-.84.72-2.1.62-2.82-.22s-.62-2.1.22-2.82c2.59-2.23 6.66-2.22 9.25 0l.4.35c1.08.92 2.96.92 4.04 0l.13-.11c2.59-2.22 6.65-2.22 9.25 0 1.09.94 2.94.94 4.04 0l.37-.32c2.59-2.22 6.66-2.22 9.25 0 .84.72.93 1.98.21 2.82s-1.98.93-2.82.21c-1.09-.94-2.94-.94-4.04 0l-.37.32c-2.59 2.22-6.65 2.22-9.25 0-1.09-.94-2.94-.94-4.04 0l-.13.11c-1.3 1.11-2.96 1.67-4.62 1.67Zm42.94 11.43c-1.66 0-3.33-.56-4.62-1.67l-.41-.35c-1.1-.94-2.94-.94-4.04 0-.84.72-2.1.62-2.82-.22s-.62-2.1.22-2.82c2.59-2.23 6.66-2.22 9.25 0l.4.35c1.1.94 2.95.94 4.04 0l.13-.11c2.59-2.22 6.65-2.23 9.25 0 1.09.94 2.94.94 4.04 0l.37-.32c2.59-2.22 6.65-2.23 9.25 0 .84.72.93 1.98.21 2.82s-1.98.94-2.82.22c-1.09-.94-2.94-.94-4.04 0l-.37.32c-2.59 2.22-6.66 2.23-9.25 0-1.07-.92-2.96-.92-4.04 0l-.13.11c-1.3 1.11-2.96 1.67-4.62 1.67" class="cls-4"/></g><g id="boat"><path d="M86.07 73.24h4.56c3.89 0 7.52-1.97 9.64-5.23l9.26-20.15H6.32l.43 16.59c.2 4.91 4.24 8.79 9.16 8.79h62.97" style="stroke-width:0;fill:#57a6cb"/><path d="M11.69 47.86V36.83l8.88-9.51h33.67v-7.17h18.37L87.76 35.3l3.93 12.56" class="cls-3"/><path d="M90.63 73.24c3.89 0 7.52-1.97 9.64-5.23l4.22-9.19-.86-.38s-17.68-4.01-38.04 3.27c-2.9 1.04-5.97 1.53-9.06 1.53H6.72l.03 1.21c.2 4.91 4.24 8.79 9.16 8.79z" class="cls-4"/><path d="M90.63 75.24h-4.56c-1.1 0-2-.9-2-2s.9-2 2-2h4.56c3.18 0 6.12-1.57 7.89-4.21l7.9-17.17H8.38l.38 14.54c.16 3.83 3.3 6.85 7.16 6.85h62.97c1.1 0 2 .9 2 2s-.9 2-2 2H15.91C9.9 75.25 5 70.54 4.76 64.54l-.43-16.62c-.01-.54.19-1.06.57-1.45s.89-.6 1.43-.6h103.21c.68 0 1.32.35 1.68.92.37.57.42 1.3.13 1.91l-9.26 20.15c-.04.09-.09.17-.14.25a13.44 13.44 0 0 1-11.32 6.14" class="cls-6"/><path d="M91.69 49.86c-.85 0-1.64-.55-1.91-1.4l-3.79-12.09-14.21-14.21H56.23v5.17c0 1.1-.9 2-2 2h-32.8l-7.74 8.29v10.24c0 1.1-.9 2-2 2s-2-.9-2-2V36.83c0-.51.19-1 .54-1.37l8.88-9.5c.38-.4.91-.63 1.46-.63h31.67v-5.17c0-1.1.9-2 2-2h18.38c.53 0 1.04.21 1.41.59l15.14 15.14c.23.23.4.51.49.82l3.93 12.56c.33 1.05-.26 2.18-1.31 2.51q-.3.09-.6.09Z" class="cls-6"/><path d="M20.57 38.83h-8.88c-1.1 0-2-.9-2-2s.9-2 2-2h8.88c1.1 0 2 .9 2 2s-.9 2-2 2m16.96 0h-8.88c-1.1 0-2-.9-2-2s.9-2 2-2h8.88c1.1 0 2 .9 2 2s-.9 2-2 2m16.63 0h-8.88c-1.1 0-2-.9-2-2s.9-2 2-2h8.88c1.1 0 2 .9 2 2s-.9 2-2 2m16.39 0h-8.88c-1.1 0-2-.9-2-2s.9-2 2-2h8.88c1.1 0 2 .9 2 2s-.9 2-2 2m17.21 0H76.92c-1.1 0-2-.9-2-2s.9-2 2-2h10.84c1.1 0 2 .9 2 2s-.9 2-2 2m-31.22 26.4H6.75c-1.1 0-2-.9-2-2s.9-2 2-2h49.78c2.94 0 5.76-.48 8.38-1.41 20.67-7.39 38.41-3.5 39.15-3.33 1.08.24 1.75 1.31 1.51 2.39a1.996 1.996 0 0 1-2.39 1.51c-.17-.04-17.39-3.78-36.92 3.2-3.06 1.09-6.33 1.65-9.73 1.65Z" class="cls-6"/><path d="M37.35 25.79 34.23 8.41H22.04v17.22" class="cls-4"/><path d="M37.34 27.79c-.95 0-1.79-.68-1.97-1.65L32.55 10.4h-8.52v15.22c0 1.1-.9 2-2 2s-2-.9-2-2V8.41c0-1.1.9-2 2-2h12.2c.97 0 1.8.69 1.97 1.65l3.11 17.38a2 2 0 0 1-1.97 2.35m6.8 0c-1.1 0-2-.9-2-2v-5.85c0-1.1.9-2 2-2s2 .9 2 2v5.85c0 1.1-.9 2-2 2" class="cls-6"/><path d="m35.47 15.29-1.24-6.88H22.04v6.88z" style="stroke-width:0;fill:#ed706b"/><path d="M35.47 17.29H22.04c-1.1 0-2-.9-2-2V8.41c0-1.1.9-2 2-2h12.2c.97 0 1.8.69 1.97 1.65l1.23 6.88c.1.58-.05 1.18-.43 1.64-.38.45-.94.72-1.53.72Zm-11.43-4h9.04l-.52-2.88h-8.52zM94.4 23.48c-.51 0-1.02-.2-1.41-.59l-4.94-4.94c-.78-.78-.78-2.05 0-2.83s2.05-.78 2.83 0l3.53 3.53 6.09-6.09c.78-.78 2.05-.78 2.83 0s.78 2.05 0 2.83l-7.5 7.5c-.39.39-.9.59-1.41.59Z" class="cls-6"/></g></g></svg>