<svg xmlns="http://www.w3.org/2000/svg" id="outline_icons" viewBox="0 0 112 112"><defs><style>.cls-2{fill:#f4f4ea}.cls-4{fill:#eaeada}.cls-5{fill:#aad681}.cls-6{fill:#004241}</style></defs><g id="feta"><path d="M0 0h112v112H0z" style="fill:none"/><path d="M43.41 64.46 11.82 45.43V29.29l31.59 19.03z" class="cls-4"/><path d="M43.41 66.46c-.36 0-.71-.1-1.03-.29L10.8 47.14c-.6-.36-.97-1.01-.97-1.71V29.28c0-.72.39-1.39 1.02-1.74s1.4-.34 2.02.03L44.45 46.6c.6.36.97 1.01.97 1.71v16.15c0 .72-.39 1.39-1.02 1.74-.31.17-.65.26-.98.26ZM13.82 44.3 41.4 60.92V49.44L13.82 32.82z" class="cls-6"/><path d="m11.82 28.97 56.77-15.11 31.59 19.35-56.77 15.11-31.59-19.03" class="cls-2"/><path d="M43.41 50.32c-.36 0-.72-.1-1.03-.29L10.79 31a1.99 1.99 0 0 1-.96-1.87 1.99 1.99 0 0 1 1.48-2.09l56.77-15.1a2 2 0 0 1 1.56.23l31.58 19.35a1.995 1.995 0 0 1-.53 3.63l-56.77 15.1c-.17.05-.34.07-.51.07M16.53 29.78l27.19 16.38 51.44-13.69-26.87-16.46-51.75 13.77Z" class="cls-6"/><path d="M100.18 48.72V33.21L43.41 48.32v16.14l19.25-5.12z" class="cls-2"/><path d="M43.41 66.46c-.44 0-.87-.14-1.22-.41-.49-.38-.78-.96-.78-1.59V48.31c0-.91.61-1.7 1.49-1.93l56.77-15.1a2.004 2.004 0 0 1 2.51 1.94v15.51c0 .9-.59 1.68-1.46 1.92L63.2 61.27 43.92 66.4c-.17.05-.34.07-.51.07Zm2-16.61v12.01l16.74-4.45 36.03-10.2v-11.4zm54.77-1.13" class="cls-6"/><path d="m21.68 60.34 16.44-4.38 13.01 8.17L34.7 68.5l-13.02-7.84" class="cls-2"/><path d="M34.7 70.5c-.36 0-.72-.1-1.03-.29l-13.02-7.84a1.99 1.99 0 0 1-.96-1.87 1.99 1.99 0 0 1 1.48-2.09l16.44-4.37c.54-.14 1.11-.06 1.58.24l13.02 8.16c.67.42 1.03 1.21.92 1.99-.12.79-.69 1.43-1.46 1.63l-16.44 4.37c-.17.05-.34.07-.51.07Zm-8.32-9.35L35 66.34l11.17-2.97-8.38-5.26z" class="cls-6"/><path d="M51.13 64.13 34.7 68.5v16.15l16.43-4.38z" class="cls-2"/><path d="M34.7 86.65c-.44 0-.87-.14-1.22-.41-.49-.38-.78-.96-.78-1.59V68.5c0-.91.61-1.7 1.49-1.93l16.44-4.37a2.004 2.004 0 0 1 2.51 1.94v16.15c0 .91-.61 1.7-1.49 1.93l-16.44 4.37c-.17.05-.34.07-.51.07Zm2-16.61v12.01l12.44-3.31V66.73z" class="cls-6"/><path d="M21.68 60.66V76.8l13.02 7.85V68.5z" class="cls-4"/><path d="M34.7 86.65c-.36 0-.71-.1-1.03-.29l-13.02-7.84c-.6-.36-.97-1.01-.97-1.71V60.66c0-.72.39-1.39 1.02-1.74s1.4-.34 2.02.03l13.02 7.84c.6.36.97 1.01.97 1.71v16.15c0 .72-.39 1.39-1.02 1.74-.31.17-.65.26-.98.26ZM23.68 75.67l9.02 5.43V69.62l-9.02-5.43z" class="cls-6"/><path d="m57.74 53.64 16.67-3.41 12.52 8.91-16.66 3.41-12.54-8.59" class="cls-2"/><path d="M70.27 64.55c-.4 0-.79-.12-1.13-.35L56.6 55.61c-.65-.44-.95-1.2-.85-1.93-.02-.95.64-1.8 1.6-2l16.66-3.41c.55-.11 1.11 0 1.56.33l12.52 8.91c.65.46.96 1.26.8 2.04s-.78 1.39-1.56 1.55l-16.66 3.41c-.13.03-.27.04-.4.04m-7.88-9.82 8.3 5.69 11.33-2.32-8.06-5.74-11.57 2.36Z" class="cls-6"/><path d="m86.93 59.14-16.66 3.41-.95 16.12 16.67-3.41z" class="cls-2"/><path d="M69.32 80.67c-.48 0-.94-.17-1.31-.49-.47-.41-.72-1.01-.69-1.63l.94-16.12c.05-.9.71-1.66 1.6-1.84l16.66-3.41a2.004 2.004 0 0 1 2.4 2.08l-.94 16.12c-.05.9-.71 1.66-1.6 1.84l-16.66 3.41c-.13.03-.27.04-.4.04m2.85-16.47-.7 11.99 12.61-2.58.7-11.99z" class="cls-6"/><path d="m57.73 53.96-.94 16.12 12.53 8.59.95-16.12z" class="cls-4"/><path d="M69.32 80.67c-.4 0-.79-.12-1.13-.35l-12.54-8.59c-.58-.4-.91-1.07-.87-1.77l.94-16.12a2 2 0 0 1 3.13-1.53l12.54 8.59c.58.4.91 1.07.87 1.77l-.94 16.12a2 2 0 0 1-2 1.88m-10.47-11.6 8.69 5.95.67-11.46-8.69-5.95z" class="cls-6"/><path d="m56.8 73.76 16.67-3.41 12.52 8.91-16.67 3.41-12.53-8.59" class="cls-2"/><path d="M69.32 84.67c-.4 0-.79-.12-1.13-.35l-12.54-8.59c-.65-.44-.95-1.2-.85-1.93-.02-.95.64-1.81 1.6-2l16.66-3.41c.54-.11 1.11 0 1.56.33l12.52 8.91c.65.46.96 1.26.8 2.04s-.78 1.39-1.56 1.55l-16.66 3.41c-.13.03-.27.04-.4.04m-7.87-9.82 8.3 5.69 11.33-2.32-8.06-5.74z" class="cls-6"/><path d="m85.99 79.26-16.67 3.41-.94 16.12 16.67-3.41z" class="cls-2"/><path d="M68.38 100.79c-.48 0-.94-.17-1.31-.49-.47-.41-.72-1.01-.69-1.63l.94-16.12c.05-.9.71-1.66 1.6-1.84l16.66-3.41a2.004 2.004 0 0 1 2.4 2.08l-.94 16.12c-.05.9-.71 1.66-1.6 1.84l-16.66 3.41c-.13.03-.27.04-.4.04m2.85-16.47-.7 11.99 12.61-2.58.7-11.99z" class="cls-6"/><path d="m56.79 74.08-.95 16.12 12.54 8.59.94-16.12z" class="cls-4"/><path d="M68.38 100.79c-.4 0-.79-.12-1.13-.35l-12.54-8.59c-.58-.4-.91-1.07-.87-1.77l.94-16.12a2 2 0 0 1 3.13-1.53l12.54 8.59c.58.4.91 1.07.87 1.77l-.94 16.12a2 2 0 0 1-2 1.88m-10.47-11.6 8.69 5.95.67-11.46-8.69-5.95z" class="cls-6"/><ellipse cx="36.42" cy="61.25" class="cls-5" rx="1.72" ry=".98"/><ellipse cx="73.93" cy="76.51" class="cls-5" rx="1.29" ry=".73"/><ellipse cx="78.96" cy="66.32" class="cls-5" rx="1.72" ry="1.96"/><rect width="2.07" height="4.46" x="62.33" y="83.91" rx="1.04" ry="1.04" style="fill:#7b9b5a" transform="rotate(-27.8 63.376 86.14)"/><rect width="2.07" height="5.12" x="42.75" y="71.83" class="cls-5" rx="1.04" ry="1.04" transform="rotate(-135 43.78 74.385)"/></g></svg>