<?xml version="1.0" encoding="UTF-8"?>
<svg id="outline_icons" xmlns="http://www.w3.org/2000/svg" viewBox="0 0 112 112">
  <defs>
    <style>
      .cls-1 {
        fill: none;
      }

      .cls-2 {
        fill: #f4f4ea;
      }

      .cls-3 {
        fill: #7b9b5a;
      }

      .cls-4 {
        fill: #eaeada;
      }

      .cls-5 {
        fill: #aad681;
      }

      .cls-6 {
        fill: #004241;
      }
    </style>
  </defs>
  <g id="feta">
    <rect class="cls-1" width="112" height="112"/>
    <g>
      <polygon class="cls-4" points="43.41 64.46 11.82 45.43 11.82 29.29 43.41 48.32 43.41 64.46"/>
      <path class="cls-6" d="M43.41,66.46c-.36,0-.71-.1-1.03-.29l-31.58-19.03c-.6-.36-.97-1.01-.97-1.71v-16.15c0-.72.39-1.39,1.02-1.74.63-.35,1.4-.34,2.02.03l31.58,19.03c.6.36.97,1.01.97,1.71v16.15c0,.72-.39,1.39-1.02,1.74-.31.17-.65.26-.98.26ZM13.82,44.3l27.58,16.62v-11.48l-27.58-16.62v11.48Z"/>
    </g>
    <g>
      <polyline class="cls-2" points="11.82 28.97 68.59 13.86 100.18 33.21 43.41 48.32 11.82 29.29"/>
      <path class="cls-6" d="M43.41,50.32c-.36,0-.72-.1-1.03-.29L10.79,31c-.67-.4-1.02-1.14-.96-1.87-.08-.95.53-1.84,1.48-2.09l56.77-15.1c.53-.14,1.09-.06,1.56.23l31.58,19.35c.68.42,1.05,1.2.93,1.99-.12.79-.69,1.44-1.46,1.64l-56.77,15.1c-.17.05-.34.07-.51.07ZM16.53,29.78l27.19,16.38,51.44-13.69-26.87-16.46-51.75,13.77Z"/>
    </g>
    <g>
      <polygon class="cls-2" points="100.18 48.72 100.18 33.21 43.41 48.32 43.41 64.46 62.66 59.34 100.18 48.72"/>
      <path class="cls-6" d="M43.41,66.46c-.44,0-.87-.14-1.22-.41-.49-.38-.78-.96-.78-1.59v-16.15c0-.91.61-1.7,1.49-1.93l56.77-15.1c.6-.16,1.24-.03,1.73.35.49.38.78.96.78,1.59v15.51c0,.9-.59,1.68-1.46,1.92l-37.52,10.62-19.28,5.13c-.17.05-.34.07-.51.07ZM45.41,49.85v12.01l16.74-4.45,36.03-10.2v-11.4l-52.77,14.04ZM100.18,48.72h0,0Z"/>
    </g>
    <g>
      <polyline class="cls-2" points="21.68 60.34 38.12 55.96 51.13 64.13 34.7 68.5 21.68 60.66"/>
      <path class="cls-6" d="M34.7,70.5c-.36,0-.72-.1-1.03-.29l-13.02-7.84c-.67-.4-1.02-1.14-.96-1.87-.08-.95.53-1.84,1.48-2.09l16.44-4.37c.54-.14,1.11-.06,1.58.24l13.02,8.16c.67.42,1.03,1.21.92,1.99-.12.79-.69,1.43-1.46,1.63l-16.44,4.37c-.17.05-.34.07-.51.07ZM26.38,61.15l8.62,5.19,11.17-2.97-8.38-5.26-11.41,3.04Z"/>
    </g>
    <g>
      <polygon class="cls-2" points="51.13 64.13 34.7 68.5 34.7 84.65 51.13 80.27 51.13 64.13"/>
      <path class="cls-6" d="M34.7,86.65c-.44,0-.87-.14-1.22-.41-.49-.38-.78-.96-.78-1.59v-16.15c0-.91.61-1.7,1.49-1.93l16.44-4.37c.6-.16,1.24-.03,1.73.35.49.38.78.96.78,1.59v16.15c0,.91-.61,1.7-1.49,1.93l-16.44,4.37c-.17.05-.34.07-.51.07ZM36.7,70.04v12.01l12.44-3.31v-12.01l-12.44,3.31Z"/>
    </g>
    <g>
      <polygon class="cls-4" points="21.68 60.66 21.68 76.8 34.7 84.65 34.7 68.5 21.68 60.66"/>
      <path class="cls-6" d="M34.7,86.65c-.36,0-.71-.1-1.03-.29l-13.02-7.84c-.6-.36-.97-1.01-.97-1.71v-16.15c0-.72.39-1.39,1.02-1.74.63-.35,1.4-.34,2.02.03l13.02,7.84c.6.36.97,1.01.97,1.71v16.15c0,.72-.39,1.39-1.02,1.74-.31.17-.65.26-.98.26ZM23.68,75.67l9.02,5.43v-11.48l-9.02-5.43v11.48Z"/>
    </g>
    <g>
      <polyline class="cls-2" points="57.74 53.64 74.41 50.23 86.93 59.14 70.27 62.55 57.73 53.96"/>
      <path class="cls-6" d="M70.27,64.55c-.4,0-.79-.12-1.13-.35l-12.54-8.59c-.65-.44-.95-1.2-.85-1.93-.02-.95.64-1.8,1.6-2l16.66-3.41c.55-.11,1.11,0,1.56.33l12.52,8.91c.65.46.96,1.26.8,2.04-.16.78-.78,1.39-1.56,1.55l-16.66,3.41c-.13.03-.27.04-.4.04ZM62.39,54.73l8.3,5.69,11.33-2.32-8.06-5.74-11.57,2.36Z"/>
    </g>
    <g>
      <polygon class="cls-2" points="86.93 59.14 70.27 62.55 69.32 78.67 85.99 75.26 86.93 59.14"/>
      <path class="cls-6" d="M69.32,80.67c-.48,0-.94-.17-1.31-.49-.47-.41-.72-1.01-.69-1.63l.94-16.12c.05-.9.71-1.66,1.6-1.84l16.66-3.41c.61-.12,1.24.04,1.71.45.47.41.72,1.01.69,1.63l-.94,16.12c-.05.9-.71,1.66-1.6,1.84l-16.66,3.41c-.13.03-.27.04-.4.04ZM72.17,64.2l-.7,11.99,12.61-2.58.7-11.99-12.61,2.58Z"/>
    </g>
    <g>
      <polygon class="cls-4" points="57.73 53.96 56.79 70.08 69.32 78.67 70.27 62.55 57.73 53.96"/>
      <path class="cls-6" d="M69.32,80.67c-.4,0-.79-.12-1.13-.35l-12.54-8.59c-.58-.4-.91-1.07-.87-1.77l.94-16.12c.04-.72.47-1.36,1.12-1.68.65-.32,1.42-.26,2.01.15l12.54,8.59c.58.4.91,1.07.87,1.77l-.94,16.12c-.04.72-.47,1.36-1.12,1.68-.28.14-.58.2-.88.2ZM58.85,69.07l8.69,5.95.67-11.46-8.69-5.95-.67,11.46Z"/>
    </g>
    <g>
      <polyline class="cls-2" points="56.8 73.76 73.47 70.35 85.99 79.26 69.32 82.67 56.79 74.08"/>
      <path class="cls-6" d="M69.32,84.67c-.4,0-.79-.12-1.13-.35l-12.54-8.59c-.65-.44-.95-1.2-.85-1.93-.02-.95.64-1.81,1.6-2l16.66-3.41c.54-.11,1.11,0,1.56.33l12.52,8.91c.65.46.96,1.26.8,2.04-.16.78-.78,1.39-1.56,1.55l-16.66,3.41c-.13.03-.27.04-.4.04ZM61.45,74.85l8.3,5.69,11.33-2.32-8.06-5.74-11.57,2.37Z"/>
    </g>
    <g>
      <polygon class="cls-2" points="85.99 79.26 69.32 82.67 68.38 98.79 85.05 95.38 85.99 79.26"/>
      <path class="cls-6" d="M68.38,100.79c-.48,0-.94-.17-1.31-.49-.47-.41-.72-1.01-.69-1.63l.94-16.12c.05-.9.71-1.66,1.6-1.84l16.66-3.41c.61-.12,1.24.04,1.71.45.47.41.72,1.01.69,1.63l-.94,16.12c-.05.9-.71,1.66-1.6,1.84l-16.66,3.41c-.13.03-.27.04-.4.04ZM71.23,84.32l-.7,11.99,12.61-2.58.7-11.99-12.61,2.58Z"/>
    </g>
    <g>
      <polygon class="cls-4" points="56.79 74.08 55.84 90.2 68.38 98.79 69.32 82.67 56.79 74.08"/>
      <path class="cls-6" d="M68.38,100.79c-.4,0-.79-.12-1.13-.35l-12.54-8.59c-.58-.4-.91-1.07-.87-1.77l.94-16.12c.04-.72.47-1.36,1.12-1.68.65-.32,1.42-.26,2.01.15l12.54,8.59c.58.4.91,1.07.87,1.77l-.94,16.12c-.04.72-.47,1.36-1.12,1.68-.28.14-.58.2-.88.2ZM57.91,89.19l8.69,5.95.67-11.46-8.69-5.95-.67,11.46Z"/>
    </g>
    <ellipse class="cls-5" cx="36.42" cy="61.25" rx="1.72" ry=".98"/>
    <ellipse class="cls-5" cx="73.93" cy="76.51" rx="1.29" ry=".73"/>
    <ellipse class="cls-5" cx="78.96" cy="66.32" rx="1.72" ry="1.96"/>
    <rect class="cls-3" x="62.33" y="83.91" width="2.07" height="4.46" rx="1.04" ry="1.04" transform="translate(-32.86 39.5) rotate(-27.8)"/>
    <rect class="cls-5" x="42.75" y="71.83" width="2.07" height="5.12" rx="1.04" ry="1.04" transform="translate(22.14 157.94) rotate(-135)"/>
  </g>
</svg>