<?xml version="1.0" encoding="UTF-8"?>
<svg id="flatten_icons" data-name="flatten icons" xmlns="http://www.w3.org/2000/svg" viewBox="0 0 112 112">
  <defs>
    <style>
      .cls-1 {
        fill: none;
      }

      .cls-1, .cls-2, .cls-3, .cls-4, .cls-5, .cls-6 {
        stroke-width: 0px;
      }

      .cls-2 {
        fill: #af79bc;
      }

      .cls-3 {
        fill: #aad681;
      }

      .cls-4 {
        fill: #8660a0;
      }

      .cls-5 {
        fill: #805889;
      }

      .cls-6 {
        fill: #004241;
      }
    </style>
  </defs>
  <rect class="cls-1" width="112" height="112"/>
  <g>
    <g>
      <path class="cls-3" d="m47.8,23.1s1.34-2.54,0-8.32c-1.34-5.78,6.76-6.38,6.76-6.38h1.93c1.6,0,2.91,1.25,2.99,2.84.2,4.13.67,11.72,1.58,15.62,1.3,5.53-8.3,3.48-8.3,3.48l-4.96-7.25Z"/>
      <path class="cls-6" d="m56.31,32.73c-1.82,0-3.43-.31-3.97-.42-.5-.11-.94-.4-1.23-.83l-4.96-7.25c-.41-.6-.46-1.37-.14-2.02.05-.12.93-2.29-.16-6.98-.46-1.97-.13-3.78.95-5.25,2.28-3.09,7.07-3.53,7.61-3.57.05,0,.1,0,.15,0h1.93c2.67,0,4.86,2.08,4.99,4.75.2,4.09.66,11.52,1.53,15.26.54,2.31-.28,3.75-1.06,4.54-1.37,1.4-3.63,1.77-5.63,1.77Zm-2.38-4.2c2.1.32,4.54.25,5.15-.38.15-.16.08-.59.02-.83-.95-4.05-1.43-11.75-1.63-15.98-.03-.53-.46-.94-.99-.94h-1.84c-.95.09-3.64.61-4.62,1.95-.24.33-.52.88-.27,1.97.98,4.23.65,7,.27,8.47l3.92,5.74Z"/>
    </g>
    <path class="cls-2" d="m92.59,66.97c3.97,21.63-16.39,36.62-36.62,36.62s-40.3-10.62-36.62-36.62c1.42-10.01,8.46-17.83,15.08-24.46,3.76-3.76,12.21-11.11,13.37-19.41.71-5.03,3.8-4.17,8.17-4.17,2.36,0,4.3,2.31,4.33,4.81.09,6.8,11.16,13.65,16.03,18.04,7.44,6.7,14.3,14.57,16.25,25.19Z"/>
    <path class="cls-4" d="m92.59,66.97c-.78-4.25-2.36-8.05-4.43-11.52,0,.02,0,.04.01.06,4.4,23.95-18.16,40.55-40.55,40.55-7.92,0-15.81-1.48-22.53-4.65,6.97,8.45,18.9,12.18,30.88,12.18,20.22,0,40.59-14.99,36.62-36.62Z"/>
    <path class="cls-6" d="m55.97,105.59c-13.49,0-25.14-4.5-31.96-12.35-5.93-6.83-8.17-15.76-6.64-26.55,1.51-10.69,8.87-18.82,15.65-25.59.41-.41.87-.86,1.38-1.35,3.92-3.81,10.48-10.19,11.42-16.92.86-6.13,5.11-6.01,8.52-5.92.52.01,1.06.03,1.62.03,3.38,0,6.28,3.11,6.33,6.78.06,4.35,6.57,9.5,11.33,13.26,1.5,1.19,2.92,2.31,4.04,3.32,6.72,6.06,14.72,14.53,16.88,26.31h0c1.67,9.1-.57,17.66-6.49,24.76-7.31,8.77-19.61,14.22-32.1,14.22Zm-3.12-84.71c-2.37,0-2.77.37-3.06,2.5-1.13,8.08-8.31,15.06-12.6,19.23-.49.48-.94.92-1.34,1.31-6.32,6.32-13.18,13.86-14.52,23.33-1.36,9.59.56,17.45,5.7,23.37,6.06,6.97,16.6,10.97,28.94,10.97,11.33,0,22.45-4.9,29.02-12.78,5.13-6.16,7.08-13.58,5.63-21.47h0c-1.93-10.54-8.98-18.08-15.62-24.07-1.03-.92-2.4-2.01-3.85-3.15-5.69-4.5-12.76-10.09-12.85-16.34-.02-1.46-1.15-2.84-2.33-2.84-.6,0-1.18-.02-1.73-.03-.52-.01-.98-.02-1.39-.02Z"/>
    <path class="cls-5" d="m41.74,90.18c-.73,0-1.44-.4-1.79-1.11-11-22.01-.38-40.18.07-40.94.57-.95,1.8-1.25,2.74-.69.95.57,1.25,1.79.69,2.74-.11.19-9.91,17.12.07,37.09.49.99.09,2.19-.89,2.68-.29.14-.59.21-.89.21Z"/>
    <path class="cls-5" d="m61.18,95.5c-.24,0-.48-.04-.72-.14-1.03-.4-1.54-1.56-1.14-2.59,9.64-24.9-2.77-46.83-2.9-47.04-.55-.96-.23-2.18.73-2.73s2.18-.23,2.73.72c.56.96,13.53,23.75,3.17,50.5-.31.79-1.06,1.28-1.87,1.28Z"/>
    <path class="cls-5" d="m76.32,92.4c-.37,0-.73-.1-1.07-.31-.93-.59-1.21-1.83-.62-2.76,9.83-15.56-.36-32.64-.47-32.81-.57-.94-.28-2.17.66-2.75.94-.58,2.17-.28,2.75.66.48.78,11.62,19.34.44,37.04-.38.6-1.03.93-1.69.93Z"/>
  </g>
</svg>