<svg xmlns="http://www.w3.org/2000/svg" id="flatten_icons" data-name="flatten icons" viewBox="0 0 112 112"><defs><style>.cls-2,.cls-5,.cls-8,.cls-9{stroke-width:0}.cls-2{fill:#817a91}.cls-5{fill:#8e889b}.cls-8{fill:#e7edef}.cls-9{fill:#004241}</style></defs><g id="four-electrique"><path id="area" d="M0 0h112v112H0z" style="fill:none;stroke-width:0"/><g id="four"><rect width="82.87" height="92.71" x="6.81" y="6.76" rx="3.37" ry="3.37" style="stroke-width:0;fill:#d3d9dc"/><path d="M86.31 101.48H10.18c-2.96 0-5.37-2.41-5.37-5.37V10.13c0-2.96 2.41-5.37 5.37-5.37h76.13c2.96 0 5.37 2.41 5.37 5.37v85.98c0 2.96-2.41 5.37-5.37 5.37M10.18 8.76c-.75 0-1.37.61-1.37 1.37v85.98c0 .75.61 1.37 1.37 1.37h76.13c.75 0 1.37-.61 1.37-1.37V10.13c0-.75-.61-1.37-1.37-1.37z" class="cls-9"/><path d="M16.98 32.09h62.53v43.85H16.98z" class="cls-2"/><path d="M79.51 77.94H16.98c-1.1 0-2-.9-2-2V32.09c0-1.1.9-2 2-2h62.53c1.1 0 2 .9 2 2v43.85c0 1.1-.9 2-2 2m-60.53-4h58.53V34.09H18.98z" class="cls-9"/><path d="M58.28 14.61h22.35v9.98H58.28z" class="cls-2"/><path d="M80.62 26.59H58.27c-1.1 0-2-.9-2-2v-9.98c0-1.1.9-2 2-2h22.35c1.1 0 2 .9 2 2v9.98c0 1.1-.9 2-2 2m-20.35-4h18.35v-5.98H60.27z" class="cls-9"/><path d="M9.69 99.48h14.39v5.76H9.69z" class="cls-5"/><path d="M24.08 107.24H9.69c-1.1 0-2-.9-2-2v-5.76c0-1.1.9-2 2-2h14.39c1.1 0 2 .9 2 2v5.76c0 1.1-.9 2-2 2m-12.39-4h10.39v-1.76H11.69z" class="cls-9"/><path d="M72.09 99.48h14.39v5.76H72.09z" class="cls-5"/><path d="M86.48 107.24H72.09c-1.1 0-2-.9-2-2v-5.76c0-1.1.9-2 2-2h14.39c1.1 0 2 .9 2 2v5.76c0 1.1-.9 2-2 2m-12.39-4h10.39v-1.76H74.09z" class="cls-9"/><circle cx="20.86" cy="19.6" r="4.99" class="cls-8"/><path d="M20.86 26.59c-3.85 0-6.99-3.14-6.99-6.99s3.13-6.99 6.99-6.99a6.99 6.99 0 0 1 0 13.98m0-9.98c-1.65 0-2.99 1.34-2.99 2.99s1.34 2.99 2.99 2.99 2.99-1.34 2.99-2.99-1.34-2.99-2.99-2.99" class="cls-9"/><circle cx="40.53" cy="19.6" r="4.99" class="cls-8"/><path d="M40.53 26.58c-1.79 0-3.58-.68-4.94-2.04-2.72-2.72-2.72-7.16 0-9.88s7.16-2.72 9.88 0c1.32 1.32 2.05 3.08 2.05 4.94s-.73 3.62-2.05 4.94a6.97 6.97 0 0 1-4.94 2.04m0-9.97c-.77 0-1.53.29-2.11.87a3.006 3.006 0 0 0 0 4.23 3.006 3.006 0 0 0 4.23 0c.56-.56.88-1.31.88-2.11s-.31-1.55-.88-2.11c-.58-.58-1.35-.87-2.11-.87Z" class="cls-9"/><path d="M48.56 69.07c15.28 0 28.03-5.48 30.95-12.75v-6.37c-.55-1.36-1.44-2.65-2.62-3.86H20.23c-2.08 2.12-3.25 4.51-3.25 7.04 0 8.8 14.14 15.94 31.58 15.94" style="stroke-width:0;fill:#ce6b57"/><path d="M48.46 59.6c10.69 0 19.61-3.25 21.65-7.56v-3.77c-.38-.8-1-1.57-1.83-2.29H28.65c-1.45 1.26-2.27 2.68-2.27 4.18 0 5.22 9.89 9.45 22.09 9.45Z" style="stroke-width:0;fill:#e8836b"/><path d="M16.98 32.09h62.53v14H16.98z" class="cls-8"/><path d="M79.51 48.09H16.98c-1.1 0-2-.9-2-2v-14c0-1.1.9-2 2-2h62.53c1.1 0 2 .9 2 2v14c0 1.1-.9 2-2 2m-60.53-4h58.53v-10H18.98z" class="cls-9"/><path d="M72.09 41.07H25.82c-1.1 0-2-.9-2-2s.9-2 2-2h46.27c1.1 0 2 .9 2 2s-.9 2-2 2" class="cls-9"/><path d="M79.51 77.94H16.98c-1.1 0-2-.9-2-2V32.09c0-1.1.9-2 2-2h62.53c1.1 0 2 .9 2 2v43.85c0 1.1-.9 2-2 2m-60.53-4h58.53V34.09H18.98z" class="cls-9"/><path d="M103.67 52.28H81.53c-1.05 0-1.78-1.03-1.43-2.02l9.5-27.21c.54-1.55-1.41-2.74-2.54-1.55L49.28 61.39c-.92.97-.23 2.56 1.1 2.56h22.14c1.05 0 1.78 1.03 1.43 2.02l-9.5 27.21c-.54 1.55 1.41 2.74 2.54 1.55l37.78-39.89c.92-.97.23-2.56-1.1-2.56" style="stroke-width:0;fill:#fdda49"/><path d="M65.89 97.22c-.63 0-1.26-.17-1.84-.52-1.43-.87-2.04-2.58-1.49-4.17l9.28-26.57H50.37a3.51 3.51 0 0 1-3.23-2.13c-.56-1.29-.29-2.79.68-3.81L85.6 20.13a3.48 3.48 0 0 1 4.39-.58c1.43.87 2.04 2.58 1.49 4.17L82.2 50.29h21.47c1.41 0 2.68.84 3.23 2.13.56 1.29.29 2.79-.68 3.81L68.44 96.12c-.69.73-1.61 1.11-2.55 1.11Zm-14.4-35.26h21.03a3.517 3.517 0 0 1 3.32 4.68l-8.76 25.1 35.47-37.46H81.52a3.517 3.517 0 0 1-3.32-4.68l8.76-25.1zm-14.86 3.41H26.08c-1.1 0-2-.9-2-2s.9-2 2-2h10.55c1.1 0 2 .9 2 2s-.9 2-2 2" class="cls-9"/></g></g></svg>