<?xml version="1.0" encoding="UTF-8"?>
<svg id="flatten_icons" data-name="flatten icons" xmlns="http://www.w3.org/2000/svg" viewBox="0 0 112 112">
  <defs>
    <style>
      .cls-1 {
        fill: none;
      }

      .cls-1, .cls-2, .cls-3, .cls-4, .cls-5, .cls-6, .cls-7, .cls-8, .cls-9 {
        stroke-width: 0px;
      }

      .cls-2 {
        fill: #817a91;
      }

      .cls-3 {
        fill: #d3d9dc;
      }

      .cls-4 {
        fill: #ce6b57;
      }

      .cls-5 {
        fill: #8e889b;
      }

      .cls-6 {
        fill: #fdda49;
      }

      .cls-7 {
        fill: #e8836b;
      }

      .cls-8 {
        fill: #e7edef;
      }

      .cls-9 {
        fill: #004241;
      }
    </style>
  </defs>
  <g id="four-electrique">
    <g id="area">
      <rect class="cls-1" width="112" height="112"/>
    </g>
    <g id="four">
      <g>
        <rect class="cls-3" x="6.81" y="6.76" width="82.87" height="92.71" rx="3.37" ry="3.37"/>
        <path class="cls-9" d="m86.31,101.48H10.18c-2.96,0-5.37-2.41-5.37-5.37V10.13c0-2.96,2.41-5.37,5.37-5.37h76.13c2.96,0,5.37,2.41,5.37,5.37v85.98c0,2.96-2.41,5.37-5.37,5.37ZM10.18,8.76c-.75,0-1.37.61-1.37,1.37v85.98c0,.75.61,1.37,1.37,1.37h76.13c.75,0,1.37-.61,1.37-1.37V10.13c0-.75-.61-1.37-1.37-1.37H10.18Z"/>
      </g>
      <g>
        <rect class="cls-2" x="16.98" y="32.09" width="62.53" height="43.85"/>
        <path class="cls-9" d="m79.51,77.94H16.98c-1.1,0-2-.9-2-2v-43.85c0-1.1.9-2,2-2h62.53c1.1,0,2,.9,2,2v43.85c0,1.1-.9,2-2,2Zm-60.53-4h58.53v-39.85H18.98v39.85Z"/>
      </g>
      <g>
        <rect class="cls-2" x="58.28" y="14.61" width="22.35" height="9.98"/>
        <path class="cls-9" d="m80.62,26.59h-22.35c-1.1,0-2-.9-2-2v-9.98c0-1.1.9-2,2-2h22.35c1.1,0,2,.9,2,2v9.98c0,1.1-.9,2-2,2Zm-20.35-4h18.35v-5.98h-18.35v5.98Z"/>
      </g>
      <g>
        <rect class="cls-5" x="9.69" y="99.48" width="14.39" height="5.76"/>
        <path class="cls-9" d="m24.08,107.24h-14.39c-1.1,0-2-.9-2-2v-5.76c0-1.1.9-2,2-2h14.39c1.1,0,2,.9,2,2v5.76c0,1.1-.9,2-2,2Zm-12.39-4h10.39v-1.76h-10.39v1.76Z"/>
      </g>
      <g>
        <rect class="cls-5" x="72.09" y="99.48" width="14.39" height="5.76"/>
        <path class="cls-9" d="m86.48,107.24h-14.39c-1.1,0-2-.9-2-2v-5.76c0-1.1.9-2,2-2h14.39c1.1,0,2,.9,2,2v5.76c0,1.1-.9,2-2,2Zm-12.39-4h10.39v-1.76h-10.39v1.76Z"/>
      </g>
      <g>
        <circle class="cls-8" cx="20.86" cy="19.6" r="4.99"/>
        <path class="cls-9" d="m20.86,26.59c-3.85,0-6.99-3.14-6.99-6.99s3.13-6.99,6.99-6.99,6.99,3.13,6.99,6.99-3.13,6.99-6.99,6.99Zm0-9.98c-1.65,0-2.99,1.34-2.99,2.99s1.34,2.99,2.99,2.99,2.99-1.34,2.99-2.99-1.34-2.99-2.99-2.99Z"/>
      </g>
      <g>
        <circle class="cls-8" cx="40.53" cy="19.6" r="4.99"/>
        <path class="cls-9" d="m40.53,26.58c-1.79,0-3.58-.68-4.94-2.04-2.72-2.72-2.72-7.16,0-9.88s7.16-2.72,9.88,0h0c1.32,1.32,2.05,3.08,2.05,4.94s-.73,3.62-2.05,4.94c-1.36,1.36-3.15,2.04-4.94,2.04Zm0-9.97c-.77,0-1.53.29-2.11.87-1.16,1.17-1.16,3.06,0,4.23,1.17,1.16,3.06,1.16,4.23,0,.56-.56.88-1.31.88-2.11s-.31-1.55-.88-2.11h0c-.58-.58-1.35-.87-2.11-.87Z"/>
      </g>
      <path class="cls-4" d="m48.56,69.07c15.28,0,28.03-5.48,30.95-12.75v-6.37c-.55-1.36-1.44-2.65-2.62-3.86H20.23c-2.08,2.12-3.25,4.51-3.25,7.04,0,8.8,14.14,15.94,31.58,15.94Z"/>
      <path class="cls-7" d="m48.46,59.6c10.69,0,19.61-3.25,21.65-7.56v-3.77c-.38-.8-1-1.57-1.83-2.29H28.65c-1.45,1.26-2.27,2.68-2.27,4.18,0,5.22,9.89,9.45,22.09,9.45Z"/>
      <g>
        <rect class="cls-8" x="16.98" y="32.09" width="62.53" height="14"/>
        <path class="cls-9" d="m79.51,48.09H16.98c-1.1,0-2-.9-2-2v-14c0-1.1.9-2,2-2h62.53c1.1,0,2,.9,2,2v14c0,1.1-.9,2-2,2Zm-60.53-4h58.53v-10H18.98v10Z"/>
      </g>
      <path class="cls-9" d="m72.09,41.07H25.82c-1.1,0-2-.9-2-2s.9-2,2-2h46.27c1.1,0,2,.9,2,2s-.9,2-2,2Z"/>
      <path class="cls-9" d="m79.51,77.94H16.98c-1.1,0-2-.9-2-2v-43.85c0-1.1.9-2,2-2h62.53c1.1,0,2,.9,2,2v43.85c0,1.1-.9,2-2,2Zm-60.53-4h58.53v-39.85H18.98v39.85Z"/>
      <g>
        <path class="cls-6" d="m103.67,52.28h-22.14c-1.05,0-1.78-1.03-1.43-2.02l9.5-27.21c.54-1.55-1.41-2.74-2.54-1.55l-37.78,39.89c-.92.97-.23,2.56,1.1,2.56h22.14c1.05,0,1.78,1.03,1.43,2.02l-9.5,27.21c-.54,1.55,1.41,2.74,2.54,1.55l37.78-39.89c.92-.97.23-2.56-1.1-2.56Z"/>
        <path class="cls-9" d="m65.89,97.22c-.63,0-1.26-.17-1.84-.52-1.43-.87-2.04-2.58-1.49-4.17l9.28-26.57h-21.47c-1.41,0-2.68-.84-3.23-2.13-.56-1.29-.29-2.79.68-3.81l37.78-39.89c1.15-1.22,2.96-1.46,4.39-.58,1.43.87,2.04,2.58,1.49,4.17l-9.28,26.57h21.47c1.41,0,2.68.84,3.23,2.13.56,1.29.29,2.79-.68,3.81l-37.78,39.89c-.69.73-1.61,1.11-2.55,1.11Zm-14.4-35.26h21.03c1.14,0,2.21.55,2.87,1.48.66.93.83,2.12.45,3.2l-8.76,25.1,35.47-37.46h-21.03c-1.14,0-2.21-.55-2.87-1.48s-.83-2.12-.45-3.2l8.76-25.1-35.47,37.46Zm52.18-7.68h0,0Z"/>
      </g>
      <path class="cls-9" d="m36.63,65.37h-10.55c-1.1,0-2-.9-2-2s.9-2,2-2h10.55c1.1,0,2,.9,2,2s-.9,2-2,2Z"/>
    </g>
  </g>
</svg>