<?xml version="1.0" encoding="UTF-8"?>
<svg id="flatten_icons" data-name="flatten icons" xmlns="http://www.w3.org/2000/svg" viewBox="0 0 112 112">
  <defs>
    <style>
      .cls-1 {
        fill: none;
      }

      .cls-1, .cls-2, .cls-3, .cls-4, .cls-5 {
        stroke-width: 0px;
      }

      .cls-2 {
        fill: #aad681;
      }

      .cls-3 {
        fill: #e5554e;
      }

      .cls-4 {
        fill: #f4ece4;
      }

      .cls-5 {
        fill: #004241;
      }
    </style>
  </defs>
  <rect class="cls-1" width="112" height="112"/>
  <g>
    <path class="cls-3" d="m34.61,36.94c-22.02,12.16-1.87,36.93,4.95,42.52,7.38,6.05,13.34,24.54,27.15,24.54,19.51,0,15.58-17.23,17.5-30.76,1.92-13.53,9.45-35.43-8.64-39.71-26.03-6.15-40.97,3.41-40.97,3.41Z"/>
    <path class="cls-4" d="m34.61,39.38c-2.24,1.24-4.03,2.61-5.45,4.08.21-.03,6.3-.9,11.8-2,5.6-1.12,11.57,11.57,13.07,8.58,1.49-2.98,1.49-6.47,4.48-4.54,2.99,1.93,5.6,4.58,6.35,1.2.75-3.38,0-6.14,3.73-5.32,3.73.82,7-5.41,7-5.41-26.03-6.15-40.97,3.41-40.97,3.41Z"/>
    <path class="cls-5" d="m66.72,106c-10.36,0-16.65-9.2-21.71-16.59-2.33-3.4-4.52-6.61-6.71-8.41-5.37-4.4-16.75-18.21-15.62-30.59.58-6.39,4.26-11.5,10.92-15.2,1.23-.77,16.46-9.77,42.44-3.63,17.17,4.06,13.78,22.12,11.31,35.31-.44,2.36-.86,4.6-1.15,6.63-.37,2.6-.52,5.43-.66,8.17-.6,11.39-1.29,24.31-18.82,24.31Zm-8.02-72.51c-14.65,0-22.9,5.07-23.01,5.14-.03.02-.07.04-.11.06-5.46,3.02-8.47,7.08-8.92,12.09-1.01,11.01,10.04,23.74,14.18,27.13,2.63,2.16,4.99,5.6,7.48,9.24,4.76,6.96,10.16,14.85,18.41,14.85,13.07,0,14.15-7.8,14.82-20.52.15-2.82.3-5.74.7-8.52.3-2.12.73-4.39,1.18-6.8,2.92-15.58,4.17-27.73-8.3-30.68-6.12-1.45-11.62-1.99-16.43-1.99Zm-24.08,3.45h0,0Z"/>
    <g>
      <path class="cls-2" d="m49.3,35.76c-1.36.15-12.79-.23-16.93-4.29-1.64-1.61-2.51-3.22-2.95-4.63-.68-2.15.79-4.39,3.03-4.68l3.06-.4c1.51-.2,2.75-1.32,3.09-2.8l1.86-8.12c.59-2.56,3.6-3.68,5.72-2.13l8.44,6.2c1.37,1,3.24.94,4.53-.16l4.23-3.6c2.14-1.83,5.46-.64,5.96,2.13l.94,5.16c.32,1.74,1.83,3,3.59,3h0c3.56,0,5.02,4.58,2.12,6.63-4.79,3.38-10.37,6.76-13.38,6.67-5.46-.17-13.18,1.02-13.31,1.03Z"/>
      <path class="cls-5" d="m48.56,37.78c-3.28,0-13.26-.63-17.59-4.88-1.67-1.64-2.83-3.47-3.46-5.45-.5-1.58-.27-3.28.62-4.69.91-1.42,2.38-2.36,4.05-2.58l3.06-.4c.68-.09,1.24-.6,1.4-1.27l1.86-8.12c.43-1.86,1.75-3.37,3.54-4.03,1.79-.66,3.78-.39,5.32.74l8.44,6.2c.62.46,1.46.43,2.05-.07l4.23-3.6c1.56-1.33,3.64-1.71,5.57-1.02,1.93.69,3.29,2.3,3.66,4.31l.94,5.16c.14.79.83,1.36,1.63,1.36,2.51,0,4.63,1.55,5.39,3.95.76,2.39-.07,4.87-2.12,6.31-10.17,7.17-13.5,7.07-14.6,7.03-4.55-.14-10.97.72-12.83,1l-.2.03s0,0-.01,0h0c-.16.02-.49.03-.95.03Zm.74-2.02h0,0Zm-.21-1.99l.21,1.99-.21-1.99Zm-5.06-23.77c-.26,0-.47.06-.59.11-.25.09-.85.4-1.04,1.18l-1.86,8.12c-.53,2.29-2.45,4.04-4.78,4.34l-3.06.4c-.49.06-.93.34-1.2.76-.15.24-.37.72-.18,1.33.43,1.35,1.25,2.63,2.44,3.81,3.4,3.34,13.78,3.87,15.29,3.73h.08c2.49-.37,8.78-1.2,13.53-1.05.94.04,3.98-.53,12.16-6.3.91-.64.7-1.57.61-1.83-.09-.27-.46-1.16-1.58-1.16-2.73,0-5.07-1.95-5.56-4.64l-.94-5.16c-.15-.85-.8-1.16-1.07-1.26-.27-.1-.97-.26-1.63.3l-4.23,3.6c-2,1.71-4.89,1.81-7.01.25l-8.44-6.2c-.34-.25-.68-.32-.96-.32Z"/>
    </g>
    <g>
      <path class="cls-2" d="m35.51,21.76s7.9.42,9.39,3.4"/>
      <path class="cls-5" d="m44.91,27.16c-.73,0-1.44-.4-1.79-1.11-.55-1.1-4.53-2.12-7.71-2.3-1.1-.06-1.95-1-1.89-2.11.06-1.1,1-1.94,2.1-1.89,2.13.11,9.21.77,11.08,4.5.49.99.09,2.19-.89,2.68-.29.14-.59.21-.89.21Z"/>
    </g>
    <g>
      <path class="cls-2" d="m61.24,25.16s2.96-5.08,12.63-3.73"/>
      <path class="cls-5" d="m61.24,27.16c-.34,0-.69-.09-1.01-.27-.95-.56-1.28-1.78-.72-2.74.15-.25,3.77-6.23,14.64-4.7,1.09.15,1.86,1.16,1.7,2.26-.15,1.09-1.17,1.86-2.26,1.7-8.11-1.14-10.6,2.72-10.63,2.76-.37.64-1.04.99-1.73.99Z"/>
    </g>
    <g>
      <path class="cls-2" d="m59.15,14.75s-4.78,3.97-5.08,7.15"/>
      <path class="cls-5" d="m54.07,23.89c-.06,0-.13,0-.19,0-1.1-.11-1.91-1.08-1.8-2.18.36-3.8,4.89-7.75,5.8-8.5.85-.71,2.11-.59,2.81.26.71.85.59,2.11-.26,2.82-1.72,1.44-4.22,4.19-4.37,5.8-.1,1.03-.97,1.81-1.99,1.81Z"/>
    </g>
    <g>
      <line class="cls-2" x1="39.48" y1="56.86" x2="40.7" y2="58.08"/>
      <path class="cls-5" d="m40.7,60.08c-.51,0-1.02-.2-1.41-.59l-1.22-1.22c-.78-.78-.78-2.05,0-2.83s2.05-.78,2.83,0l1.22,1.22c.78.78.78,2.05,0,2.83-.39.39-.9.59-1.41.59Z"/>
    </g>
    <g>
      <line class="cls-2" x1="51.76" y1="75.47" x2="52.98" y2="76.69"/>
      <path class="cls-5" d="m52.98,78.69c-.51,0-1.02-.2-1.41-.59l-1.22-1.22c-.78-.78-.78-2.05,0-2.83.78-.78,2.05-.78,2.83,0l1.22,1.22c.78.78.78,2.05,0,2.83-.39.39-.9.59-1.41.59Z"/>
    </g>
    <g>
      <line class="cls-2" x1="73.62" y1="62.64" x2="73.03" y2="64.53"/>
      <path class="cls-5" d="m73.03,66.53c-.2,0-.4-.03-.6-.09-1.05-.33-1.64-1.45-1.31-2.51l.59-1.89c.33-1.05,1.45-1.64,2.51-1.31,1.05.33,1.64,1.45,1.31,2.51l-.59,1.89c-.27.85-1.06,1.4-1.91,1.4Z"/>
    </g>
    <path class="cls-5" d="m66.46,80.45c-1.1,0-2-.9-2-2v-1.42c0-1.1.9-2,2-2s2,.9,2,2v1.42c0,1.1-.9,2-2,2Z"/>
    <g>
      <line class="cls-2" x1="68.76" y1="92.03" x2="68.78" y2="93.25"/>
      <path class="cls-5" d="m68.77,95.25c-1.09,0-1.99-.88-2-1.98v-1.22c-.03-1.1.86-2.01,1.96-2.02,1.06-.04,2.01.87,2.02,1.98v1.22c.03,1.1-.86,2.01-1.96,2.02h-.02Z"/>
    </g>
    <g>
      <line class="cls-2" x1="56.59" y1="59.06" x2="56.61" y2="60.28"/>
      <path class="cls-5" d="m56.61,62.28c-1.09,0-1.99-.88-2-1.98l-.02-1.22c-.01-1.1.87-2.01,1.98-2.02,1.11.02,2.01.87,2.02,1.98l.02,1.22c.01,1.1-.87,2.01-1.98,2.02h-.03Z"/>
    </g>
    <g>
      <line class="cls-2" x1="75.57" y1="47.45" x2="75.59" y2="48.67"/>
      <path class="cls-5" d="m75.59,50.67c-1.09,0-1.99-.88-2-1.98l-.02-1.22c-.01-1.1.87-2.01,1.98-2.02,1.12-.04,2.01.87,2.02,1.98l.02,1.22c.01,1.1-.87,2.01-1.98,2.02h-.03Z"/>
    </g>
  </g>
</svg>