<svg xmlns="http://www.w3.org/2000/svg" id="flatten_icons" data-name="flatten icons" viewBox="0 0 112 112"><defs><style>.cls-2,.cls-5{stroke-width:0}.cls-2{fill:#aad681}.cls-5{fill:#004241}</style></defs><path d="M0 0h112v112H0z" style="fill:none;stroke-width:0"/><path d="M34.61 36.94c-22.02 12.16-1.87 36.93 4.95 42.52C46.94 85.51 52.9 104 66.71 104c19.51 0 15.58-17.23 17.5-30.76s9.45-35.43-8.64-39.71c-26.03-6.15-40.97 3.41-40.97 3.41Z" style="stroke-width:0;fill:#e5554e"/><path d="M34.61 39.38c-2.24 1.24-4.03 2.61-5.45 4.08.21-.03 6.3-.9 11.8-2 5.6-1.12 11.57 11.57 13.07 8.58 1.49-2.98 1.49-6.47 4.48-4.54s5.6 4.58 6.35 1.2 0-6.14 3.73-5.32 7-5.41 7-5.41c-26.03-6.15-40.97 3.41-40.97 3.41Z" style="stroke-width:0;fill:#f4ece4"/><path d="M66.72 106c-10.36 0-16.65-9.2-21.71-16.59-2.33-3.4-4.52-6.61-6.71-8.41-5.37-4.4-16.75-18.21-15.62-30.59.58-6.39 4.26-11.5 10.92-15.2 1.23-.77 16.46-9.77 42.44-3.63 17.17 4.06 13.78 22.12 11.31 35.31-.44 2.36-.86 4.6-1.15 6.63-.37 2.6-.52 5.43-.66 8.17-.6 11.39-1.29 24.31-18.82 24.31M58.7 33.49c-14.65 0-22.9 5.07-23.01 5.14-.03.02-.07.04-.11.06-5.46 3.02-8.47 7.08-8.92 12.09-1.01 11.01 10.04 23.74 14.18 27.13 2.63 2.16 4.99 5.6 7.48 9.24C53.08 94.11 58.48 102 66.73 102c13.07 0 14.15-7.8 14.82-20.52.15-2.82.3-5.74.7-8.52.3-2.12.73-4.39 1.18-6.8 2.92-15.58 4.17-27.73-8.3-30.68-6.12-1.45-11.62-1.99-16.43-1.99m-24.08 3.45" class="cls-5"/><path d="M49.3 35.76c-1.36.15-12.79-.23-16.93-4.29-1.64-1.61-2.51-3.22-2.95-4.63-.68-2.15.79-4.39 3.03-4.68l3.06-.4c1.51-.2 2.75-1.32 3.09-2.8l1.86-8.12c.59-2.56 3.6-3.68 5.72-2.13l8.44 6.2c1.37 1 3.24.94 4.53-.16l4.23-3.6c2.14-1.83 5.46-.64 5.96 2.13l.94 5.16c.32 1.74 1.83 3 3.59 3 3.56 0 5.02 4.58 2.12 6.63-4.79 3.38-10.37 6.76-13.38 6.67-5.46-.17-13.18 1.02-13.31 1.03Z" class="cls-2"/><path d="M48.56 37.78c-3.28 0-13.26-.63-17.59-4.88-1.67-1.64-2.83-3.47-3.46-5.45a5.59 5.59 0 0 1 .62-4.69 5.68 5.68 0 0 1 4.05-2.58l3.06-.4c.68-.09 1.24-.6 1.4-1.27l1.86-8.12a5.63 5.63 0 0 1 3.54-4.03 5.66 5.66 0 0 1 5.32.74l8.44 6.2c.62.46 1.46.43 2.05-.07l4.23-3.6a5.59 5.59 0 0 1 5.57-1.02c1.93.69 3.29 2.3 3.66 4.31l.94 5.16c.14.79.83 1.36 1.63 1.36 2.51 0 4.63 1.55 5.39 3.95.76 2.39-.07 4.87-2.12 6.31-10.17 7.17-13.5 7.07-14.6 7.03-4.55-.14-10.97.72-12.83 1l-.2.03h-.01c-.16.02-.49.03-.95.03Zm.53-4.01.21 1.99zM44.03 10c-.26 0-.47.06-.59.11-.25.09-.85.4-1.04 1.18l-1.86 8.12c-.53 2.29-2.45 4.04-4.78 4.34l-3.06.4c-.49.06-.93.34-1.2.76-.15.24-.37.72-.18 1.33.43 1.35 1.25 2.63 2.44 3.81 3.4 3.34 13.78 3.87 15.29 3.73h.08c2.49-.37 8.78-1.2 13.53-1.05.94.04 3.98-.53 12.16-6.3.91-.64.7-1.57.61-1.83-.09-.27-.46-1.16-1.58-1.16a5.65 5.65 0 0 1-5.56-4.64l-.94-5.16c-.15-.85-.8-1.16-1.07-1.26s-.97-.26-1.63.3l-4.23 3.6c-2 1.71-4.89 1.81-7.01.25l-8.44-6.2a1.6 1.6 0 0 0-.96-.32Z" class="cls-5"/><path d="M35.51 21.76s7.9.42 9.39 3.4" class="cls-2"/><path d="M44.91 27.16c-.73 0-1.44-.4-1.79-1.11-.55-1.1-4.53-2.12-7.71-2.3a2.003 2.003 0 0 1 .21-4c2.13.11 9.21.77 11.08 4.5.49.99.09 2.19-.89 2.68-.29.14-.59.21-.89.21Z" class="cls-5"/><path d="M61.24 25.16s2.96-5.08 12.63-3.73" class="cls-2"/><path d="M61.24 27.16c-.34 0-.69-.09-1.01-.27a2.006 2.006 0 0 1-.72-2.74c.15-.25 3.77-6.23 14.64-4.7 1.09.15 1.86 1.16 1.7 2.26a2 2 0 0 1-2.26 1.7c-8.11-1.14-10.6 2.72-10.63 2.76-.37.64-1.04.99-1.73.99Z" class="cls-5"/><path d="M59.15 14.75s-4.78 3.97-5.08 7.15" class="cls-2"/><path d="M54.07 23.89h-.19a1.997 1.997 0 0 1-1.8-2.18c.36-3.8 4.89-7.75 5.8-8.5.85-.71 2.11-.59 2.81.26a2 2 0 0 1-.26 2.82c-1.72 1.44-4.22 4.19-4.37 5.8-.1 1.03-.97 1.81-1.99 1.81Z" class="cls-5"/><path d="m39.48 56.86 1.22 1.22" class="cls-2"/><path d="M40.7 60.08c-.51 0-1.02-.2-1.41-.59l-1.22-1.22c-.78-.78-.78-2.05 0-2.83s2.05-.78 2.83 0l1.22 1.22a2.004 2.004 0 0 1-1.41 3.42Z" class="cls-5"/><path d="m51.76 75.47 1.22 1.22" class="cls-2"/><path d="M52.98 78.69c-.51 0-1.02-.2-1.41-.59l-1.22-1.22c-.78-.78-.78-2.05 0-2.83s2.05-.78 2.83 0l1.22 1.22a2.004 2.004 0 0 1-1.41 3.42Z" class="cls-5"/><path d="m73.62 62.64-.59 1.89" class="cls-2"/><path d="M73.03 66.53q-.3 0-.6-.09a2.004 2.004 0 0 1-1.31-2.51l.59-1.89a2.004 2.004 0 0 1 2.51-1.31c1.05.33 1.64 1.45 1.31 2.51l-.59 1.89a2.01 2.01 0 0 1-1.91 1.4m-6.57 13.92c-1.1 0-2-.9-2-2v-1.42c0-1.1.9-2 2-2s2 .9 2 2v1.42c0 1.1-.9 2-2 2" class="cls-5"/><path d="m68.76 92.03.02 1.22" class="cls-2"/><path d="M68.77 95.25c-1.09 0-1.99-.88-2-1.98v-1.22c-.03-1.1.86-2.01 1.96-2.02 1.06-.04 2.01.87 2.02 1.98v1.22c.03 1.1-.86 2.01-1.96 2.02z" class="cls-5"/><path d="m56.59 59.06.02 1.22" class="cls-2"/><path d="M56.61 62.28c-1.09 0-1.99-.88-2-1.98l-.02-1.22a2 2 0 0 1 1.98-2.02c1.11.02 2.01.87 2.02 1.98l.02 1.22a2 2 0 0 1-1.98 2.02h-.03Z" class="cls-5"/><path d="m75.57 47.45.02 1.22" class="cls-2"/><path d="M75.59 50.67c-1.09 0-1.99-.88-2-1.98l-.02-1.22a2 2 0 0 1 1.98-2.02c1.12-.04 2.01.87 2.02 1.98l.02 1.22a2 2 0 0 1-1.98 2.02h-.03Z" class="cls-5"/></svg>