<?xml version="1.0" encoding="UTF-8"?>
<svg id="flatten_icons" data-name="flatten icons" xmlns="http://www.w3.org/2000/svg" viewBox="0 0 112 112">
  <defs>
    <style>
      .cls-1 {
        fill: none;
      }

      .cls-1, .cls-2, .cls-3, .cls-4, .cls-5 {
        stroke-width: 0px;
      }

      .cls-2 {
        fill: #c14269;
      }

      .cls-3 {
        fill: #aad681;
      }

      .cls-4 {
        fill: #e589af;
      }

      .cls-5 {
        fill: #004241;
      }
    </style>
  </defs>
  <rect class="cls-1" y="0" width="112" height="112"/>
  <g>
    <g>
      <path class="cls-3" d="m36.54,55.78s-.4-14.47-2.37-19.82c-1.48-4.01-4.32-5.58-5.87-8.67-.85-1.7-2.71-2.63-4.57-2.3l-6.31,1.13,4.52-3.94c1.59-1.38,2.55-5.34,2.67-7.44l-2.63-5.22,6.11-3.42s3.62,4.43,5.69,9.24c2.07,4.81,5.41,9.73,5.41,9.73l10.77-2.86-7.12,9.17,7.85,11.5"/>
      <path class="cls-5" d="m36.54,57.78c-1.08,0-1.97-.86-2-1.95-.11-3.93-.72-15.05-2.24-19.18-.72-1.95-1.83-3.24-3.01-4.6-.98-1.14-2-2.32-2.77-3.87-.45-.91-1.43-1.4-2.43-1.22l-6.31,1.13c-.89.16-1.77-.29-2.16-1.1-.39-.81-.19-1.78.49-2.37l4.52-3.94c.85-.74,1.72-3.51,1.94-5.54l-2.38-4.71c-.48-.96-.13-2.12.81-2.65l6.11-3.42c.85-.47,1.91-.27,2.53.48.15.19,3.82,4.7,5.98,9.71,1.38,3.2,3.38,6.51,4.46,8.21l9.37-2.49c.83-.22,1.71.11,2.18.83.47.72.44,1.65-.09,2.33l-6.23,8.02,7.03,10.29c.62.91.39,2.16-.52,2.78-.91.62-2.16.39-2.78-.52l-7.85-11.5c-.49-.72-.46-1.67.07-2.35l3.49-4.49-5.04,1.34c-.82.22-1.69-.11-2.17-.81-.14-.21-3.47-5.14-5.59-10.06-1.28-2.97-3.22-5.83-4.39-7.43l-2.92,1.64,1.77,3.51c.16.31.23.67.21,1.02-.08,1.45-.75,5.7-2.65,8.09,2.53-.22,4.99,1.15,6.14,3.45.55,1.1,1.33,2,2.22,3.04,1.29,1.5,2.76,3.21,3.73,5.83,2.06,5.59,2.47,19.85,2.49,20.46.03,1.1-.84,2.02-1.94,2.05-.02,0-.04,0-.06,0Z"/>
    </g>
    <g>
      <path class="cls-2" d="m73.05,34.54c-3.28-3.76-8.99-4.15-12.75-.87-1.68,1.47-2.69,3.42-2.99,5.47-3.33-3.35-8.73-3.59-12.34-.45-3.27,2.85-3.99,7.52-1.98,11.17-3.34-2.49-8.07-2.41-11.33.44-3.34,2.91-4.02,7.73-1.84,11.41-1.7.23-3.36.93-4.75,2.14-3.76,3.28-4.15,8.99-.87,12.75,1.68,1.93,4,2.97,6.37,3.08-.15,2.17.53,4.4,2.08,6.18,2.2,2.52,5.56,3.43,8.59,2.63-.18,2.21.49,4.49,2.06,6.29,2.47,2.84,6.41,3.63,9.71,2.26-.09,2.1.59,4.23,2.08,5.94,3.09,3.55,8.47,3.91,12.02.82,1.13-.99,1.94-2.21,2.41-3.53.27.46.58.91.95,1.32,3.09,3.55,8.47,3.91,12.02.82,1.68-1.47,2.64-3.45,2.86-5.51,2.07.06,4.16-.62,5.84-2.08,3.55-3.09,3.91-8.47.82-12.02-.12-.14-.25-.26-.38-.39,0,0,.01-.01.02-.02,3.55-3.09,3.91-8.47.82-12.02-1.66-1.9-3.98-2.88-6.32-2.91,1.15-2.87.69-6.27-1.48-8.76-1.34-1.53-3.1-2.47-4.96-2.79,1.68-3.04,1.38-6.93-1.03-9.7-1.1-1.26-2.49-2.11-3.99-2.56,1.13-3.01.62-6.53-1.65-9.12Z"/>
      <path class="cls-5" d="m61.53,107.9c-.24,0-.49,0-.73-.03-2.8-.19-5.36-1.46-7.21-3.58-1.18-1.36-1.98-2.97-2.35-4.7-3.48.51-7.05-.75-9.44-3.5-1.33-1.53-2.18-3.37-2.47-5.32-3.1.09-6.09-1.2-8.18-3.6-1.43-1.64-2.29-3.63-2.53-5.74-2.29-.5-4.35-1.71-5.92-3.52-4-4.59-3.52-11.57,1.07-15.57.98-.85,2.09-1.52,3.29-1.98-1.27-4.09-.06-8.65,3.29-11.57,2.67-2.33,6.25-3.16,9.57-2.46-.24-3.38,1.07-6.82,3.74-9.14,3.56-3.1,8.61-3.52,12.57-1.34.65-1.4,1.58-2.66,2.76-3.68,2.22-1.94,5.06-2.89,8.01-2.69,2.94.2,5.63,1.54,7.56,3.76h0c2.24,2.57,3.14,5.98,2.54,9.25,1.17.6,2.23,1.43,3.1,2.43,2.35,2.69,3.12,6.38,2.19,9.73,1.45.62,2.75,1.56,3.8,2.76,2.05,2.35,2.92,5.41,2.48,8.41,2.05.52,3.91,1.65,5.32,3.27,1.85,2.12,2.76,4.83,2.56,7.63-.15,2.15-.93,4.16-2.25,5.81,2.94,4.33,2.25,10.3-1.8,13.82-1.56,1.36-3.46,2.21-5.49,2.49-.55,1.97-1.65,3.74-3.21,5.1-4.05,3.53-10.07,3.4-13.96-.12-.42.54-.89,1.05-1.41,1.5-1.93,1.68-4.36,2.59-6.9,2.59Zm-8.52-12.86c.4,0,.8.12,1.14.36.56.39.88,1.04.86,1.72-.07,1.68.5,3.29,1.59,4.55,1.14,1.31,2.73,2.1,4.47,2.22,1.73.11,3.42-.45,4.73-1.59.83-.73,1.47-1.66,1.84-2.7.26-.73.93-1.24,1.7-1.31.77-.06,1.52.31,1.91.99.22.37.46.71.73,1.02,2.36,2.71,6.49,2.99,9.19.63,1.23-1.08,2.01-2.57,2.19-4.21.11-1.04,1-1.82,2.05-1.79,1.66.06,3.24-.52,4.47-1.59,2.71-2.36,2.99-6.49.63-9.19-.06-.07-.13-.14-.2-.21l-.1-.1c-.39-.39-.6-.93-.58-1.49.02-.55.28-1.08.7-1.44.01-.01.03-.03.05-.04,1.28-1.13,2.06-2.71,2.18-4.43.12-1.74-.45-3.42-1.59-4.73-1.21-1.39-2.98-2.2-4.84-2.23-.66,0-1.27-.34-1.64-.89-.37-.55-.44-1.24-.19-1.85.92-2.29.48-4.86-1.13-6.71-.99-1.14-2.3-1.88-3.79-2.13-.64-.11-1.18-.52-1.46-1.11-.28-.58-.26-1.26.05-1.83,1.31-2.39,1-5.37-.79-7.42-.81-.93-1.86-1.6-3.05-1.96-.53-.16-.97-.53-1.22-1.03-.25-.5-.28-1.07-.08-1.59.91-2.43.42-5.15-1.28-7.11h0c-1.23-1.42-2.95-2.27-4.82-2.4-1.87-.12-3.69.48-5.1,1.72-1.25,1.09-2.08,2.6-2.33,4.26-.11.75-.64,1.37-1.36,1.6-.72.24-1.51.05-2.04-.49-2.6-2.62-6.82-2.77-9.6-.35-2.48,2.16-3.13,5.82-1.54,8.7.45.82.27,1.85-.44,2.47-.71.62-1.75.66-2.51.1-2.63-1.96-6.34-1.82-8.82.34-2.56,2.23-3.16,5.96-1.43,8.88.34.58.37,1.29.08,1.89-.29.6-.87,1.02-1.54,1.11-1.37.18-2.65.76-3.7,1.67-2.92,2.55-3.23,7-.68,9.93,1.27,1.45,3.03,2.3,4.96,2.4.54.03,1.04.27,1.4.67.36.4.54.93.5,1.47-.12,1.74.45,3.42,1.59,4.73,1.63,1.88,4.15,2.65,6.57,2.01.63-.16,1.3-.01,1.79.4.5.42.76,1.05.71,1.7-.14,1.77.42,3.48,1.58,4.81,1.85,2.12,4.83,2.81,7.43,1.73.25-.1.51-.16.77-.16Z"/>
    </g>
    <circle class="cls-4" cx="31.09" cy="70" r="3.71"/>
    <circle class="cls-4" cx="37.74" cy="57.14" r="3.71"/>
    <circle class="cls-4" cx="42.66" cy="77.63" r="3.71"/>
    <circle class="cls-4" cx="61.28" cy="75.35" r="3.71"/>
    <circle class="cls-4" cx="71.94" cy="82.04" r="3.71"/>
    <circle class="cls-4" cx="83.24" cy="76.35" r="3.71"/>
    <circle class="cls-4" cx="75.38" cy="94.58" r="3.71"/>
    <circle class="cls-4" cx="83.99" cy="87.53" r="3.71"/>
    <circle class="cls-4" cx="75.61" cy="66.62" r="3.71"/>
    <circle class="cls-4" cx="53.19" cy="86.17" r="3.71"/>
    <circle class="cls-4" cx="61.94" cy="94.1" r="3.71"/>
    <circle class="cls-4" cx="46.92" cy="66.06" r="3.71"/>
    <circle class="cls-4" cx="59.37" cy="60.81" r="3.71"/>
    <circle class="cls-4" cx="70.8" cy="53.1" r="3.71"/>
    <circle class="cls-4" cx="52.05" cy="47.75" r="3.71"/>
    <circle class="cls-4" cx="66.21" cy="42.17" r="3.71"/>
  </g>
</svg>