<svg xmlns="http://www.w3.org/2000/svg" id="flatten_icons" data-name="flatten icons" viewBox="0 0 112 112"><defs><style>.cls-5,.cls-6{stroke-width:0}.cls-5{fill:#fff}.cls-6{fill:#004241}</style></defs><path d="M0 0h112v112H0z" style="fill:none;stroke-width:0"/><circle cx="23" cy="56" r="6" class="cls-5"/><path d="M23 64c-4.41 0-8-3.59-8-8s3.59-8 8-8 8 3.59 8 8-3.59 8-8 8m0-12c-2.21 0-4 1.79-4 4s1.79 4 4 4 4-1.79 4-4-1.79-4-4-4" class="cls-6"/><circle cx="94" cy="36" r="8" class="cls-5"/><path d="M94 46c-5.51 0-10-4.49-10-10s4.49-10 10-10 10 4.49 10 10-4.49 10-10 10m0-16c-3.31 0-6 2.69-6 6s2.69 6 6 6 6-2.69 6-6-2.69-6-6-6" class="cls-6"/><path d="M95.89 78.07V78c0-17.67-13.87-32-30.98-32-15.47 0-28.28 11.71-30.61 27.01-1.86-.65-3.84-1.02-5.91-1.02-10.16 0-18.4 8.51-18.4 19s8.24 19 18.4 19H94.5c8.56 0 15.49-7.16 15.49-16 0-8.35-6.2-15.2-14.11-15.93Z" class="cls-5"/><path d="M94.51 112H28.4C17.15 112 8 102.58 8 91s9.15-21 20.4-21c1.45 0 2.91.16 4.34.49 3.36-15.47 16.55-26.48 32.17-26.48 17.65 0 32.1 14.36 32.94 32.34 8.18 1.61 14.14 8.9 14.14 17.66 0 9.93-7.85 18-17.49 18ZM28.4 73.99c-9.04 0-16.4 7.63-16.4 17s7.36 17 16.4 17h66.11c7.44 0 13.49-6.28 13.49-14 0-7.3-5.28-13.29-12.29-13.94a2 2 0 0 1-1.82-1.99v-.12c0-16.5-13-29.95-28.98-29.95-14.36 0-26.4 10.64-28.63 25.31-.09.59-.44 1.11-.95 1.41-.51.31-1.13.37-1.69.17-1.72-.6-3.48-.91-5.25-.91Z" class="cls-6"/><path d="M95.89 78.07V78c0-2.46-.28-4.85-.79-7.15-5.66-6.39-13.81-10.4-22.86-10.4-15.47 0-28.28 11.71-30.61 27.01-1.86-.65-3.84-1.02-5.91-1.02-10.16 0-18.4 8.51-18.4 19 0 .25.03.49.04.74 3.08 2.39 6.89 3.82 11.03 3.82H94.5c8.56 0 15.49-7.16 15.49-16 0-8.35-6.2-15.2-14.11-15.93Z" style="stroke-width:0;fill:#dddbd9"/><path d="M94.51 112H28.4C17.15 112 8 102.58 8 91s9.15-21 20.4-21c1.45 0 2.91.16 4.34.49 3.36-15.47 16.55-26.48 32.17-26.48 17.65 0 32.1 14.36 32.94 32.34 8.18 1.61 14.14 8.9 14.14 17.66 0 9.93-7.85 18-17.49 18ZM28.4 73.99c-9.04 0-16.4 7.63-16.4 17s7.36 17 16.4 17h66.11c7.44 0 13.49-6.28 13.49-14 0-7.3-5.28-13.29-12.29-13.94a2 2 0 0 1-1.82-1.99v-.12c0-16.5-13-29.95-28.98-29.95-14.36 0-26.4 10.64-28.63 25.31-.09.59-.44 1.11-.95 1.41-.51.31-1.13.37-1.69.17-1.72-.6-3.48-.91-5.25-.91Z" class="cls-6"/><rect width="52" height="32" x="2" y="2" rx="6.38" ry="6.38" style="stroke-width:0;fill:#e26f6b"/><path d="M47.62 4C50.04 4 52 5.96 52 8.38v19.23c0 2.42-1.96 4.38-4.38 4.38H8.38C5.96 31.99 4 30.03 4 27.61V8.38C4 5.96 5.96 4 8.38 4h39.23m0-4H8.38C3.76 0 0 3.76 0 8.38v19.23c0 4.62 3.76 8.38 8.38 8.38h39.23c4.62 0 8.38-3.76 8.38-8.38V8.38c0-4.62-3.76-8.38-8.38-8.38" class="cls-6"/><path d="M8.37 4H20v28H8.37C5.96 32 4 30.04 4 27.63V8.37C4 5.96 5.96 4 8.37 4" style="stroke-width:0;fill:#3e5f9b"/><path d="M20 4h16v28H20z" class="cls-5"/></svg>