<?xml version="1.0" encoding="UTF-8"?>
<svg id="flatten_icons" data-name="flatten icons" xmlns="http://www.w3.org/2000/svg" viewBox="0 0 112 112">
  <defs>
    <style>
      .cls-1 {
        fill: none;
      }

      .cls-1, .cls-2, .cls-3, .cls-4, .cls-5, .cls-6, .cls-7, .cls-8, .cls-9 {
        stroke-width: 0px;
      }

      .cls-2 {
        fill: #f6e4af;
      }

      .cls-3 {
        fill: #e26f6b;
      }

      .cls-4 {
        fill: #dd7957;
      }

      .cls-5 {
        fill: #ce694a;
      }

      .cls-6 {
        fill: #ffdb49;
      }

      .cls-7 {
        fill: #fff;
      }

      .cls-8 {
        fill: #e5a376;
      }

      .cls-9 {
        fill: #004241;
      }
    </style>
  </defs>
  <rect class="cls-1" width="112" height="112"/>
  <g>
    <g>
      <polygon class="cls-8" points="9.99 105.72 10.88 98.47 97.27 98.47 98.16 105.72 9.99 105.72"/>
      <path class="cls-9" d="m98.16,107.72H9.99c-.57,0-1.12-.25-1.5-.67-.38-.43-.56-1-.49-1.57l.89-7.25c.12-1,.97-1.76,1.98-1.76h86.39c1.01,0,1.86.75,1.98,1.76l.89,7.25c.07.57-.11,1.14-.49,1.57-.38.43-.92.67-1.5.67Zm-85.91-4h83.65l-.4-3.25H12.65l-.4,3.25Z"/>
    </g>
    <g>
      <path class="cls-4" d="m98.76,47.47c-1.54-6.96-10.14-7.56-13.51-3.33,0,0-5.53-5.45-11.36,0,0,0-6.14-4.54-10.13-.61,0,0-6.95-3.57-9.91.23-2.96-3.8-9.91-.23-9.91-.23-3.99-3.93-10.13.61-10.13.61-5.83-5.45-11.36,0-11.36,0-3.38-4.24-11.97-3.63-13.51,3.33-1.54,6.96,4.23,5.45,4.23,5.45,2.68.61,3.31,6.35,3.31,6.35l.46,19.9h73.84l.46-19.9s.62-5.74,3.31-6.35c0,0,5.77,1.51,4.23-5.45Z"/>
      <path class="cls-9" d="m90.77,81.16H16.93c-1.09,0-1.97-.87-2-1.95l-.45-19.81c-.24-2-.99-3.91-1.54-4.41-1.11.15-3.2.17-4.73-1.3-1.47-1.42-1.88-3.65-1.22-6.65.82-3.72,3.5-6.45,7.16-7.29,3.01-.7,6.18,0,8.44,1.75,2.66-1.75,7.01-3,11.35.16,4.41-2.65,8.11-1.81,10.27-.44,2.75-1.14,6.77-1.94,9.64-.12,2.87-1.82,6.89-1.02,9.65.12,2.16-1.37,5.86-2.21,10.27.44,4.34-3.16,8.69-1.91,11.35-.16,2.26-1.75,5.43-2.44,8.44-1.75,3.66.85,6.33,3.57,7.16,7.29h0c.66,3,.25,5.23-1.22,6.65-1.53,1.47-3.62,1.45-4.73,1.3-.55.5-1.3,2.41-1.54,4.41l-.45,19.81c-.02,1.09-.91,1.95-2,1.95Zm-71.89-4h69.93l.41-17.95c0-.06,0-.11.01-.17.13-1.2.97-7.21,4.85-8.08.31-.07.64-.06.95.02.48.12,1.37.12,1.68-.18.28-.27.46-1.19.08-2.9h0c-.67-3.03-2.89-3.97-4.15-4.26-2.22-.51-4.62.21-5.85,1.75-.35.44-.88.72-1.44.75-.57.04-1.12-.17-1.52-.57-.42-.41-4.33-3.93-8.59.04-.71.66-1.78.72-2.55.15-.04-.03-4.82-3.46-7.54-.79-.62.61-1.55.75-2.32.35-1.42-.72-5.84-2.34-7.42-.32-.76.98-2.4.98-3.16,0-1.57-2.02-5.99-.4-7.42.32-.77.39-1.7.25-2.31-.36-2.72-2.68-7.49.76-7.54.79-.77.57-1.85.5-2.55-.15-4.25-3.97-8.17-.44-8.6-.03-.41.39-.96.6-1.52.56-.56-.04-1.09-.3-1.44-.74-1.23-1.54-3.63-2.26-5.85-1.75-1.26.29-3.48,1.23-4.15,4.26-.38,1.71-.19,2.63.08,2.9.31.3,1.2.3,1.7.18.3-.07.63-.08.93-.01,3.88.88,4.73,6.89,4.85,8.08,0,.06,0,.11.01.17l.41,17.95Z"/>
    </g>
    <g>
      <path class="cls-4" d="m13.93,62.98c-6.51-1.05-7.93,2.99-7.93,6.57,0,2.25,1.17,4.24,2.94,5.4v23.49h11.39v-29.16c0-3.48-2.91-5.75-6.4-6.31Z"/>
      <path class="cls-9" d="m20.33,100.45h-11.39c-1.1,0-2-.9-2-2v-22.5c-1.86-1.6-2.94-3.92-2.94-6.39,0-3.08.93-5.5,2.7-7.01,1.8-1.54,4.34-2.05,7.55-1.54h0c4.83.78,8.08,4.11,8.08,8.28v29.16c0,1.1-.9,2-2,2Zm-9.39-4h7.39v-27.16c0-2.64-2.54-3.99-4.72-4.34h0c-2-.32-3.45-.11-4.32.64-1.07.91-1.29,2.66-1.29,3.96,0,1.5.76,2.89,2.04,3.73.56.37.9,1,.9,1.67v21.49Z"/>
    </g>
    <g>
      <path class="cls-4" d="m94.45,62.98c6.51-1.05,7.93,2.99,7.93,6.57,0,2.25-1.17,4.24-2.94,5.4v23.49h-11.39v-29.16c0-3.48,2.91-5.75,6.4-6.31Z"/>
      <path class="cls-9" d="m99.44,100.45h-11.39c-1.1,0-2-.9-2-2v-29.16c0-4.18,3.25-7.51,8.08-8.28,3.21-.52,5.75,0,7.55,1.54,1.76,1.5,2.7,3.93,2.7,7.01,0,2.47-1.08,4.79-2.94,6.39v22.5c0,1.1-.9,2-2,2Zm-9.39-4h7.39v-21.49c0-.67.34-1.3.9-1.67,1.28-.84,2.04-2.23,2.04-3.73,0-1.31-.22-3.05-1.29-3.96-.87-.74-2.33-.95-4.32-.64h0c-2.18.35-4.72,1.69-4.72,4.34v27.16Zm4.4-33.47h0,0Z"/>
    </g>
    <g>
      <rect class="cls-4" x="8.94" y="91.19" width="89.95" height="7.27"/>
      <path class="cls-9" d="m98.89,100.45H8.94c-1.1,0-2-.9-2-2v-7.27c0-1.1.9-2,2-2h89.95c1.1,0,2,.9,2,2v7.27c0,1.1-.9,2-2,2Zm-87.95-4h85.95v-3.27H10.94v3.27Z"/>
    </g>
    <g>
      <path class="cls-4" d="m15.06,74.2h28.1c5.93,0,10.75,4.82,10.75,10.75v6.24H15.06c-3.38,0-6.12-2.74-6.12-6.12v-4.75c0-3.38,2.74-6.12,6.12-6.12Z"/>
      <path class="cls-9" d="m53.91,93.19H15.06c-4.48,0-8.12-3.64-8.12-8.12v-4.75c0-4.48,3.64-8.12,8.12-8.12h28.1c7.03,0,12.75,5.72,12.75,12.75v6.24c0,1.1-.9,2-2,2Zm-38.85-16.99c-2.27,0-4.12,1.85-4.12,4.12v4.75c0,2.27,1.85,4.12,4.12,4.12h36.85v-4.24c0-4.83-3.93-8.75-8.75-8.75H15.06Z"/>
    </g>
    <g>
      <path class="cls-4" d="m64.67,74.2h28.1c3.38,0,6.12,2.74,6.12,6.12v4.75c0,3.38-2.74,6.12-6.12,6.12h-38.85v-6.24c0-5.93,4.82-10.75,10.75-10.75Z"/>
      <path class="cls-9" d="m92.77,93.19h-38.85c-1.1,0-2-.9-2-2v-6.24c0-7.03,5.72-12.75,12.75-12.75h28.1c4.48,0,8.12,3.64,8.12,8.12v4.75c0,4.48-3.64,8.12-8.12,8.12Zm-36.85-4h36.85c2.27,0,4.12-1.85,4.12-4.12v-4.75c0-2.27-1.85-4.12-4.12-4.12h-28.1c-4.83,0-8.75,3.93-8.75,8.75v4.24Z"/>
    </g>
    <path class="cls-5" d="m38.46,65.4c-.56,0-1.12-.24-1.52-.69l-3.04-3.53-3.26,3.57c-.74.82-2.01.87-2.83.13-.82-.75-.87-2.01-.13-2.83l4.78-5.24c.39-.42.91-.67,1.51-.65.57,0,1.11.26,1.49.69l4.52,5.24c.72.84.63,2.1-.21,2.82-.38.33-.84.49-1.31.49Z"/>
    <path class="cls-5" d="m58.29,65.4c-.56,0-1.12-.24-1.52-.69l-3.04-3.53-3.26,3.57c-.75.82-2.01.87-2.83.13-.82-.75-.87-2.01-.13-2.83l4.78-5.24c.39-.42.91-.67,1.51-.65.57,0,1.11.26,1.49.69l4.52,5.24c.72.84.63,2.1-.21,2.82-.38.33-.84.49-1.31.49Z"/>
    <path class="cls-5" d="m78.98,65.4c-.56,0-1.12-.24-1.52-.69l-3.04-3.53-3.26,3.57c-.74.82-2.01.87-2.83.13-.82-.75-.87-2.01-.13-2.83l4.78-5.24c.39-.42.91-.67,1.51-.65.57,0,1.11.26,1.49.69l4.52,5.24c.72.84.63,2.1-.21,2.82-.38.33-.84.49-1.31.49Z"/>
  </g>
  <g>
    <polygon class="cls-7" points="64 66.71 70.73 105.97 98.86 105.97 106 66.71 64 66.71"/>
    <path class="cls-9" d="m98.86,107.97h-28.13c-.97,0-1.81-.7-1.97-1.66l-6.73-39.27c-.1-.58.06-1.18.44-1.63.38-.45.94-.71,1.53-.71h42c.59,0,1.16.26,1.54.72.38.46.54,1.06.43,1.64l-7.14,39.27c-.17.95-1,1.64-1.97,1.64Zm-26.44-4h24.77l6.41-35.27h-37.23l6.05,35.27Z"/>
  </g>
  <polygon class="cls-3" points="71.73 66.71 76.87 105.97 83.07 105.97 79.87 66.71 71.73 66.71"/>
  <polygon class="cls-3" points="98.91 66.71 93.78 105.97 87.57 105.97 90.78 66.71 98.91 66.71"/>
  <path class="cls-9" d="m98.86,107.97h-28.13c-.97,0-1.81-.7-1.97-1.66l-6.73-39.27c-.1-.58.06-1.18.44-1.63.38-.45.94-.71,1.53-.71h42c.59,0,1.16.26,1.54.72.38.46.54,1.06.43,1.64l-7.14,39.27c-.17.95-1,1.64-1.97,1.64Zm-26.44-4h24.77l6.41-35.27h-37.23l6.05,35.27Z"/>
  <g>
    <path class="cls-2" d="m68.59,66.71s-.76-5.82,1.4-7.42c1.03-.76,1.74-1.84,2.16-3.04.58-1.69,1.97-3.49,5.26-3.17,0,0,1.66-3.98,5.67-2.93,1.6.42,2.64,1.18,3.32,1.94.77.87,1.85,1.42,3,1.65.57.11,1.3.4,2.25.98,1.2.74,2.14,1.61,2.86,2.43,1.18,1.34,3.04,1.79,4.79,1.41,1.04-.23,2.18-.12,3.07.86,2.23,2.45-.62,7.29-.62,7.29h-33.14Z"/>
    <path class="cls-9" d="m101.73,68.71h-33.14c-1,0-1.85-.74-1.98-1.74-.22-1.64-.69-7.16,2.19-9.29.65-.48,1.15-1.2,1.46-2.08.96-2.79,3.11-4.4,6-4.54,1.25-1.81,3.71-3.79,7.33-2.84,1.77.47,3.22,1.32,4.3,2.55.44.5,1.11.86,1.88,1.01.88.17,1.84.58,2.91,1.24,1.22.76,2.34,1.7,3.31,2.81.64.72,1.73,1.02,2.86.77,1.96-.43,3.72.09,4.97,1.47,3.14,3.44,0,9.03-.38,9.65-.36.61-1.01.98-1.72.98Zm-31.28-4h30.04c.58-1.36,1.05-3.2.38-3.94-.14-.16-.38-.42-1.17-.25-2.55.56-5.13-.23-6.72-2.05-.71-.81-1.52-1.5-2.41-2.05-.85-.53-1.35-.68-1.58-.72-1.63-.32-3.09-1.13-4.11-2.28-.55-.62-1.33-1.07-2.33-1.33-2.26-.59-3.21,1.52-3.32,1.77-.34.81-1.17,1.3-2.04,1.22-1.72-.17-2.67.38-3.17,1.83-.57,1.65-1.56,3.04-2.86,4-.46.34-.74,2-.72,3.81Z"/>
  </g>
  <g>
    <path class="cls-6" d="m21.09,13.67h0c0-3.16,1.14-6.05,3.02-8.3-.39-.04-.79-.06-1.19-.06h0c-7.14,0-12.93,5.79-12.93,12.93h0c0,7.14,5.79,12.93,12.93,12.93h0c3.98,0,7.54-1.8,9.91-4.63-6.58-.6-11.74-6.13-11.74-12.87Z"/>
    <path class="cls-9" d="m22.92,33.17c-8.23,0-14.93-6.7-14.93-14.93S14.68,3.31,22.92,3.31c.46,0,.92.03,1.37.07.74.07,1.38.54,1.67,1.23.28.69.16,1.48-.32,2.05-1.64,1.96-2.55,4.45-2.55,7.01,0,5.69,4.27,10.36,9.92,10.88.74.07,1.38.54,1.67,1.23.28.69.16,1.48-.32,2.05-2.85,3.4-7.02,5.35-11.45,5.35Zm-2.54-25.56c-4.8,1.15-8.39,5.48-8.39,10.63,0,6.03,4.9,10.93,10.93,10.93,2.03,0,3.98-.56,5.67-1.59-5.62-2.17-9.5-7.58-9.5-13.92,0-2.1.45-4.16,1.29-6.06Z"/>
  </g>
</svg>