<?xml version="1.0" encoding="UTF-8"?>
<svg id="flatten_icons" xmlns="http://www.w3.org/2000/svg" viewBox="0 0 112 112">
  <defs>
    <style>
      .cls-1 {
        fill: none;
      }

      .cls-2 {
        fill: #eac781;
      }

      .cls-3 {
        fill: #efe79a;
      }

      .cls-4 {
        fill: #d1a579;
      }

      .cls-5 {
        fill: #004241;
      }
    </style>
  </defs>
  <g id="frites">
    <g>
      <g>
        <rect class="cls-2" x="8" y="27.16" width="9.75" height="71.95"/>
        <path class="cls-5" d="M17.75,101.11H8c-1.1,0-2-.9-2-2V27.16c0-1.1.9-2,2-2h9.75c1.1,0,2,.9,2,2v71.95c0,1.1-.9,2-2,2ZM10,97.11h5.75V29.16h-5.75v67.95Z"/>
      </g>
      <g>
        <path class="cls-2" d="M45.64,20.77l2.8-9.6,8.04.08c9.32.09,18.59,1.54,27.52,4.29l10.06,3.1-2.8,9.6-9.88-3.05c-8.74-2.7-17.8-4.14-26.93-4.29l-8.81-.14Z"/>
        <path class="cls-5" d="M91.26,30.25c-.2,0-.4-.03-.59-.09l-9.88-3.05c-8.56-2.64-17.43-4.05-26.37-4.2l-8.81-.14c-.62,0-1.21-.31-1.58-.81-.37-.5-.48-1.15-.31-1.75l2.8-9.6c.25-.85,1.03-1.44,1.92-1.44h.02l8.04.08c9.52.09,18.97,1.57,28.09,4.38l10.06,3.1c1.04.32,1.64,1.42,1.33,2.47l-2.8,9.6c-.15.51-.5.95-.97,1.2-.29.16-.62.24-.95.24ZM48.3,18.82l6.18.1c9.32.15,18.57,1.62,27.49,4.37l7.94,2.45,1.68-5.76-8.18-2.52c-8.75-2.7-17.81-4.11-26.95-4.2l-6.53-.07-1.64,5.63Z"/>
      </g>
      <g>
        <polygon class="cls-4" points="106 49.3 105.37 59.3 64.96 56.61 65.59 46.61 106 49.3"/>
        <path class="cls-5" d="M105.37,61.3s-.09,0-.13,0l-40.41-2.69c-1.1-.07-1.93-1.02-1.86-2.12l.63-10c.03-.53.28-1.03.68-1.38.4-.35.92-.54,1.45-.49l40.41,2.69c1.1.07,1.93,1.02,1.86,2.12l-.63,10c-.03.53-.28,1.03-.68,1.38-.37.32-.84.5-1.32.5ZM67.08,54.75l36.42,2.43.38-6.01-36.42-2.42-.38,6.01Z"/>
      </g>
      <g>
        <polygon class="cls-4" points="36.7 96.42 28.99 92.61 56.24 34.33 63.95 38.14 36.7 96.42"/>
        <path class="cls-5" d="M36.7,98.42c-.3,0-.61-.07-.89-.21l-7.71-3.81c-.98-.48-1.39-1.65-.93-2.64l27.25-58.28c.23-.49.64-.86,1.15-1.04.51-.18,1.07-.14,1.55.09l7.71,3.81c.98.48,1.39,1.65.93,2.64l-27.25,58.28c-.23.49-.64.86-1.15,1.04-.21.08-.44.11-.66.11ZM31.63,91.68l4.13,2.04,25.55-54.66-4.13-2.04-25.55,54.66Z"/>
      </g>
      <g>
        <polygon class="cls-2" points="37.24 85.26 27.48 85.26 27.48 44.71 23.19 12.21 32.94 10 37.24 46.89 37.24 85.26"/>
        <path class="cls-5" d="M37.24,87.26h-9.75c-1.1,0-2-.9-2-2v-40.42l-4.28-32.37c-.14-1.02.53-1.98,1.54-2.21l9.75-2.21c.55-.13,1.13-.01,1.6.32.46.33.77.84.83,1.4l4.29,36.89c0,.08.01.15.01.23v38.37c0,1.1-.9,2-2,2ZM29.48,83.26h5.75v-36.25l-4.02-34.57-5.8,1.31,4.06,30.69c.01.09.02.17.02.26v38.55Z"/>
      </g>
      <g>
        <polygon class="cls-2" points="62.31 102 53.86 96.99 75.45 58.56 80.2 32.17 88.65 37.18 83.61 64.07 62.31 102"/>
        <path class="cls-5" d="M62.31,104c-.36,0-.71-.09-1.02-.28l-8.45-5.01c-.93-.55-1.25-1.75-.72-2.7l21.42-38.13,4.7-26.06c.12-.65.54-1.19,1.14-1.46.6-.27,1.29-.24,1.85.1l8.45,5.01c.72.43,1.1,1.26.95,2.09l-5.04,26.89c-.04.21-.12.42-.22.61l-21.3,37.93c-.26.47-.71.81-1.23.95-.17.05-.34.07-.52.07ZM56.56,96.26l5,2.97,20.14-35.86,4.72-25.19-4.77-2.83-4.25,23.56c-.04.22-.12.43-.22.62l-20.63,36.72Z"/>
      </g>
      <g>
        <polygon class="cls-3" points="48.09 63.05 53.51 54.72 90.15 79.9 84.73 88.23 48.09 63.05"/>
        <path class="cls-5" d="M84.73,90.23c-.4,0-.8-.12-1.13-.35l-36.64-25.18c-.89-.61-1.14-1.83-.54-2.74l5.42-8.33c.29-.45.76-.77,1.29-.87.53-.1,1.08,0,1.52.31l36.64,25.18c.89.61,1.14,1.83.54,2.74l-5.42,8.33c-.29.45-.76.77-1.29.87-.13.03-.26.04-.39.04ZM50.83,62.51l33.34,22.91,3.24-4.98-33.35-22.91-3.24,4.98Z"/>
      </g>
    </g>
    <rect class="cls-1" width="112" height="112"/>
  </g>
</svg>