<?xml version="1.0" encoding="UTF-8"?>
<svg id="flatten_icons" xmlns="http://www.w3.org/2000/svg" viewBox="0 0 112 112">
  <defs>
    <style>
      .cls-1 {
        fill: none;
      }

      .cls-2 {
        fill: #f7bc46;
      }

      .cls-3 {
        fill: #f4d553;
      }

      .cls-4 {
        fill: #004241;
      }

      .cls-5 {
        fill: #f9eaac;
      }
    </style>
  </defs>
  <g id="fromagepatedure">
    <rect class="cls-1" x="0" width="112" height="112"/>
    <g>
      <rect class="cls-5" x="12" y="47.37" width="88" height="45.71"/>
      <path class="cls-3" d="M12,46.92s4.51-23.63,38.97-28l49.03,28H12Z"/>
      <g>
        <ellipse class="cls-3" cx="36.4" cy="77.28" rx="7.4" ry="7.05"/>
        <path class="cls-4" d="M36.4,86.33c-5.19,0-9.4-4.06-9.4-9.05s4.22-9.05,9.4-9.05,9.4,4.06,9.4,9.05-4.22,9.05-9.4,9.05ZM36.4,72.23c-2.98,0-5.4,2.27-5.4,5.05s2.42,5.05,5.4,5.05,5.4-2.27,5.4-5.05-2.42-5.05-5.4-5.05Z"/>
      </g>
      <g>
        <path class="cls-3" d="M100,66.18c-1.56-1.17-3.52-1.87-5.66-1.87-5.07,0-9.19,3.92-9.19,8.75s4.11,8.75,9.19,8.75c2.14,0,4.1-.7,5.66-1.87v-13.77Z"/>
        <path class="cls-4" d="M94.34,83.81c-6.17,0-11.19-4.82-11.19-10.75s5.02-10.75,11.19-10.75c2.5,0,4.88.78,6.86,2.27.51.38.8.97.8,1.6v13.77c0,.63-.3,1.22-.8,1.6-1.98,1.48-4.35,2.26-6.86,2.26ZM94.34,66.31c-3.96,0-7.19,3.03-7.19,6.75s3.22,6.75,7.19,6.75c1.31,0,2.55-.32,3.66-.95v-11.61c-1.11-.62-2.35-.95-3.66-.95Z"/>
      </g>
      <g>
        <path class="cls-3" d="M55.34,52.4c0,3.89,3.31,7.05,7.4,7.05s7.4-3.16,7.4-7.05c0-1.97-.85-3.75-2.22-5.03h-10.37c-1.37,1.28-2.22,3.06-2.22,5.03Z"/>
        <path class="cls-4" d="M62.75,61.45c-5.19,0-9.4-4.06-9.4-9.05,0-2.46,1.01-4.77,2.85-6.49.37-.35.86-.54,1.37-.54h10.37c.51,0,1,.19,1.37.54,1.84,1.72,2.85,4.03,2.85,6.49,0,4.99-4.22,9.05-9.4,9.05ZM58.43,49.37c-.7.87-1.08,1.92-1.08,3.03,0,2.79,2.42,5.05,5.4,5.05s5.4-2.27,5.4-5.05c0-1.1-.38-2.16-1.08-3.03h-8.64Z"/>
      </g>
      <path class="cls-2" d="M49.96,19.07C16.44,23.77,12,46.92,12,46.92h27.26c-1.48-2.88-2.54-5.95-2.86-9.12-.98-9.58,7.11-15.54,13.57-18.73Z"/>
      <path class="cls-4" d="M100,48.92H12c-.6,0-1.16-.27-1.54-.73-.38-.46-.54-1.06-.42-1.65.19-1.02,5.19-25.11,40.68-29.61.43-.06.87.03,1.24.25l49.03,28c.79.45,1.17,1.37.94,2.25-.23.88-1.03,1.49-1.93,1.49ZM14.67,44.92h77.79l-41.9-23.93c-25.93,3.51-33.77,18.11-35.89,23.93Z"/>
      <path class="cls-4" d="M100,95.08H12c-1.1,0-2-.9-2-2v-45.71c0-1.1.9-2,2-2h88c1.1,0,2,.9,2,2v45.71c0,1.1-.9,2-2,2ZM14,91.08h84v-41.71H14v41.71Z"/>
    </g>
  </g>
</svg>