<svg xmlns="http://www.w3.org/2000/svg" id="flatten_icons" viewBox="0 0 112 112"><defs><style>.cls-3{fill:#f4d553}.cls-4{fill:#004241}</style></defs><g id="fromagepatedure"><path d="M0 0h112v112H0z" style="fill:none"/><path d="M12 47.37h88v45.71H12z" style="fill:#f9eaac"/><path d="M12 46.92s4.51-23.63 38.97-28l49.03 28z" class="cls-3"/><ellipse cx="36.4" cy="77.28" class="cls-3" rx="7.4" ry="7.05"/><path d="M36.4 86.33c-5.19 0-9.4-4.06-9.4-9.05s4.22-9.05 9.4-9.05 9.4 4.06 9.4 9.05-4.22 9.05-9.4 9.05m0-14.1c-2.98 0-5.4 2.27-5.4 5.05s2.42 5.05 5.4 5.05 5.4-2.27 5.4-5.05-2.42-5.05-5.4-5.05" class="cls-4"/><path d="M100 66.18a9.4 9.4 0 0 0-5.66-1.87c-5.07 0-9.19 3.92-9.19 8.75s4.11 8.75 9.19 8.75c2.14 0 4.1-.7 5.66-1.87V66.17Z" class="cls-3"/><path d="M94.34 83.81c-6.17 0-11.19-4.82-11.19-10.75s5.02-10.75 11.19-10.75c2.5 0 4.88.78 6.86 2.27.51.38.8.97.8 1.6v13.77c0 .63-.3 1.22-.8 1.6-1.98 1.48-4.35 2.26-6.86 2.26m0-17.5c-3.96 0-7.19 3.03-7.19 6.75s3.22 6.75 7.19 6.75c1.31 0 2.55-.32 3.66-.95V67.25a7.45 7.45 0 0 0-3.66-.95Z" class="cls-4"/><path d="M55.34 52.4c0 3.89 3.31 7.05 7.4 7.05s7.4-3.16 7.4-7.05c0-1.97-.85-3.75-2.22-5.03H57.55c-1.37 1.28-2.22 3.06-2.22 5.03Z" class="cls-3"/><path d="M62.75 61.45c-5.19 0-9.4-4.06-9.4-9.05 0-2.46 1.01-4.77 2.85-6.49.37-.35.86-.54 1.37-.54h10.37c.51 0 1 .19 1.37.54 1.84 1.72 2.85 4.03 2.85 6.49 0 4.99-4.22 9.05-9.4 9.05Zm-4.32-12.08a4.8 4.8 0 0 0-1.08 3.03c0 2.79 2.42 5.05 5.4 5.05s5.4-2.27 5.4-5.05c0-1.1-.38-2.16-1.08-3.03z" class="cls-4"/><path d="M49.96 19.07C16.44 23.77 12 46.92 12 46.92h27.26c-1.48-2.88-2.54-5.95-2.86-9.12-.98-9.58 7.11-15.54 13.57-18.73Z" style="fill:#f7bc46"/><path d="M100 48.92H12c-.6 0-1.16-.27-1.54-.73s-.54-1.06-.42-1.65c.19-1.02 5.19-25.11 40.68-29.61.43-.06.87.03 1.24.25l49.03 28c.79.45 1.17 1.37.94 2.25a2 2 0 0 1-1.93 1.49m-85.33-4h77.79l-41.9-23.93C24.63 24.5 16.79 39.1 14.67 44.92" class="cls-4"/><path d="M100 95.08H12c-1.1 0-2-.9-2-2V47.37c0-1.1.9-2 2-2h88c1.1 0 2 .9 2 2v45.71c0 1.1-.9 2-2 2m-86-4h84V49.37H14z" class="cls-4"/></g></svg>