<svg xmlns="http://www.w3.org/2000/svg" id="flatten_icons" viewBox="0 0 112 112"><defs><style>.cls-5{fill:#004241}.cls-6{fill:#71d1c6}</style></defs><g id="fromagebleu"><path d="M0 0h112v112H0z" style="fill:none"/><path d="M12 47.37h88v45.71H12z" style="fill:#f7f5eb"/><path d="M100 95.08H12c-1.1 0-2-.9-2-2V47.37c0-1.1.9-2 2-2h88c1.1 0 2 .9 2 2v45.71c0 1.1-.9 2-2 2m-86-4h84V49.37H14z" class="cls-5"/><path d="M12 46.92s4.51-23.63 38.97-28l49.03 28z" style="fill:#a7d8d8"/><path d="M100 48.92H12c-.6 0-1.16-.27-1.54-.73s-.54-1.06-.42-1.65c.19-1.02 5.19-25.11 40.68-29.61.43-.05.87.03 1.24.25l49.03 28c.79.45 1.17 1.37.94 2.25a2 2 0 0 1-1.93 1.49m-85.33-4h77.79l-41.9-23.93C24.63 24.5 16.79 39.1 14.67 44.92" class="cls-5"/><path d="M49.96 19.07C16.44 23.77 12 46.92 12 46.92h27.26c-1.48-2.88-2.54-5.95-2.86-9.12-.98-9.58 7.11-15.54 13.57-18.73Z" style="fill:#9bbfc4"/><path d="M100 48.92H12c-.6 0-1.16-.27-1.54-.73s-.54-1.06-.42-1.65c.19-1.02 5.19-25.11 40.68-29.61.43-.05.87.03 1.24.25l49.03 28c.79.45 1.17 1.37.94 2.25a2 2 0 0 1-1.93 1.49m-85.33-4h77.79l-41.9-23.93C24.63 24.5 16.79 39.1 14.67 44.92" class="cls-5"/><path d="M100 95.08H12c-1.1 0-2-.9-2-2V47.37c0-1.1.9-2 2-2h88c1.1 0 2 .9 2 2v45.71c0 1.1-.9 2-2 2m-86-4h84V49.37H14z" class="cls-5"/><path d="m37.35 70.23 6.76-6.76 6.76 6.76-6.76 6.76z" class="cls-6"/><path d="M44.11 78.99c-.51 0-1.02-.2-1.41-.59l-6.76-6.76c-.78-.78-.78-2.05 0-2.83l6.76-6.76c.75-.75 2.08-.75 2.83 0l6.76 6.76a1.983 1.983 0 0 1 0 2.82l-6.76 6.76c-.39.39-.9.59-1.41.59Zm-3.93-8.76 3.93 3.93 3.93-3.93-3.93-3.93z" class="cls-5"/><path d="M22.24 91.08 29 84.32l6.76 6.76" class="cls-6"/><path d="M22.24 93.08a2.004 2.004 0 0 1-1.41-3.42l6.76-6.76c.75-.75 2.08-.75 2.83 0l6.76 6.76c.78.78.78 2.05 0 2.83s-2.05.78-2.83 0L29 87.14l-5.35 5.35c-.39.39-.9.59-1.41.59" class="cls-5"/><path d="m66.065 62.966 8.132-8.131 8.131 8.131-8.131 8.132z" class="cls-6"/><path d="M74.19 73.1c-.51 0-1.02-.2-1.41-.59l-8.13-8.13c-.78-.78-.78-2.05 0-2.83l8.13-8.13c.78-.78 2.05-.78 2.83 0l8.13 8.13c.78.78.78 2.05 0 2.83l-8.13 8.13c-.39.39-.9.59-1.41.59Zm-5.3-10.13 5.3 5.3 5.3-5.3-5.3-5.3z" class="cls-5"/><path d="m87.104 77.702 6.222-6.222 6.223 6.222-6.223 6.223z" class="cls-6"/><path d="M93.32 85.93c-.53 0-1.04-.21-1.41-.59l-6.22-6.22a1.983 1.983 0 0 1 0-2.82l6.22-6.22c.78-.78 2.05-.78 2.83 0l6.22 6.22c.78.78.78 2.05 0 2.83l-6.22 6.22c-.38.38-.88.59-1.41.59Zm-3.4-8.22 3.39 3.39 3.39-3.39-3.39-3.39z" class="cls-5"/><path d="m58.95 49.29-6.22 6.23-6.22-6.23" class="cls-6"/><path d="M52.73 57.52c-.51 0-1.02-.2-1.41-.59l-6.22-6.22c-.78-.78-.78-2.05 0-2.83s2.05-.78 2.83 0l4.81 4.81 4.81-4.81c.78-.78 2.05-.78 2.83 0s.78 2.05 0 2.83l-6.22 6.22c-.39.39-.9.59-1.41.59Z" class="cls-5"/><path d="m50.87 89.22 3.86 3.86h4.44l3.86-3.86-6.08-6.08z" class="cls-6"/><path d="M59.17 95.08h-4.44c-.53 0-1.04-.21-1.41-.59l-3.86-3.86c-.78-.78-.78-2.05 0-2.83l6.08-6.08c.78-.78 2.05-.78 2.83 0l6.08 6.08a1.983 1.983 0 0 1 0 2.82l-3.86 3.86c-.38.38-.88.59-1.41.59Zm-3.61-4h2.78l1.86-1.86-3.25-3.25-3.25 3.25z" class="cls-5"/><path d="M12 62.04v7.45l5 5 8.72-8.73L17 57.04z" class="cls-6"/><path d="M17 76.49c-.51 0-1.02-.2-1.41-.59l-5-5c-.38-.38-.59-.88-.59-1.41v-7.44c0-.53.21-1.04.59-1.41l5-5c.78-.78 2.05-.78 2.83 0l8.72 8.72a1.983 1.983 0 0 1 0 2.82l-8.72 8.72c-.39.39-.9.59-1.41.59Zm-3-7.83 3 3 5.89-5.89L17 59.88l-3 3z" class="cls-5"/></g></svg>