<?xml version="1.0" encoding="UTF-8"?>
<svg id="flatten_icons" xmlns="http://www.w3.org/2000/svg" viewBox="0 0 112 112">
  <defs>
    <style>
      .cls-1 {
        fill: none;
      }

      .cls-2 {
        fill: #a7d8d8;
      }

      .cls-3 {
        fill: #9bbfc4;
      }

      .cls-4 {
        fill: #f7f5eb;
      }

      .cls-5 {
        fill: #004241;
      }

      .cls-6 {
        fill: #71d1c6;
      }
    </style>
  </defs>
  <g id="fromagebleu">
    <rect class="cls-1" width="112" height="112"/>
    <g>
      <g>
        <rect class="cls-4" x="12" y="47.37" width="88" height="45.71"/>
        <path class="cls-5" d="M100,95.08H12c-1.1,0-2-.9-2-2v-45.71c0-1.1.9-2,2-2h88c1.1,0,2,.9,2,2v45.71c0,1.1-.9,2-2,2ZM14,91.08h84v-41.71H14v41.71Z"/>
      </g>
      <g>
        <path class="cls-2" d="M12,46.92s4.51-23.63,38.97-28l49.03,28H12Z"/>
        <path class="cls-5" d="M100,48.92H12c-.6,0-1.16-.27-1.54-.73-.38-.46-.54-1.06-.42-1.65.19-1.02,5.19-25.11,40.68-29.61.43-.05.87.03,1.24.25l49.03,28c.79.45,1.17,1.37.94,2.25-.23.88-1.03,1.49-1.93,1.49ZM14.67,44.92h77.79l-41.9-23.93c-25.93,3.51-33.77,18.11-35.89,23.93Z"/>
      </g>
      <path class="cls-3" d="M49.96,19.07C16.44,23.77,12,46.92,12,46.92h27.26c-1.48-2.88-2.54-5.95-2.86-9.12-.98-9.58,7.11-15.54,13.57-18.73Z"/>
      <path class="cls-5" d="M100,48.92H12c-.6,0-1.16-.27-1.54-.73-.38-.46-.54-1.06-.42-1.65.19-1.02,5.19-25.11,40.68-29.61.43-.05.87.03,1.24.25l49.03,28c.79.45,1.17,1.37.94,2.25-.23.88-1.03,1.49-1.93,1.49ZM14.67,44.92h77.79l-41.9-23.93c-25.93,3.51-33.77,18.11-35.89,23.93Z"/>
      <path class="cls-5" d="M100,95.08H12c-1.1,0-2-.9-2-2v-45.71c0-1.1.9-2,2-2h88c1.1,0,2,.9,2,2v45.71c0,1.1-.9,2-2,2ZM14,91.08h84v-41.71H14v41.71Z"/>
      <g>
        <rect class="cls-6" x="39.33" y="65.45" width="9.56" height="9.56" transform="translate(-36.74 51.76) rotate(-45)"/>
        <path class="cls-5" d="M44.11,78.99c-.51,0-1.02-.2-1.41-.59l-6.76-6.76c-.78-.78-.78-2.05,0-2.83l6.76-6.76c.75-.75,2.08-.75,2.83,0l6.76,6.76c.38.38.59.88.59,1.41s-.21,1.04-.59,1.41l-6.76,6.76c-.39.39-.9.59-1.41.59ZM40.18,70.23l3.93,3.93,3.93-3.93-3.93-3.93-3.93,3.93Z"/>
      </g>
      <g>
        <polyline class="cls-6" points="22.24 91.08 29 84.32 35.76 91.08"/>
        <path class="cls-5" d="M22.24,93.08c-.51,0-1.02-.2-1.41-.59-.78-.78-.78-2.05,0-2.83l6.76-6.76c.75-.75,2.08-.75,2.83,0l6.76,6.76c.78.78.78,2.05,0,2.83-.78.78-2.05.78-2.83,0l-5.35-5.35-5.35,5.35c-.39.39-.9.59-1.41.59Z"/>
      </g>
      <g>
        <rect class="cls-6" x="68.44" y="57.22" width="11.5" height="11.5" transform="translate(-22.79 70.9) rotate(-45)"/>
        <path class="cls-5" d="M74.19,73.1c-.51,0-1.02-.2-1.41-.59l-8.13-8.13c-.78-.78-.78-2.05,0-2.83l8.13-8.13c.78-.78,2.05-.78,2.83,0l8.13,8.13c.78.78.78,2.05,0,2.83l-8.13,8.13c-.39.39-.9.59-1.41.59ZM68.89,62.97l5.3,5.3,5.3-5.3-5.3-5.3-5.3,5.3Z"/>
      </g>
      <g>
        <rect class="cls-6" x="88.92" y="73.31" width="8.8" height="8.8" transform="translate(-27.61 88.74) rotate(-45)"/>
        <path class="cls-5" d="M93.32,85.93c-.53,0-1.04-.21-1.41-.59l-6.22-6.22c-.38-.38-.59-.88-.59-1.41s.21-1.04.59-1.41l6.22-6.22c.78-.78,2.05-.78,2.83,0l6.22,6.22c.78.78.78,2.05,0,2.83l-6.22,6.22c-.38.38-.88.59-1.41.59ZM89.92,77.71l3.39,3.39,3.39-3.39-3.39-3.39-3.39,3.39Z"/>
      </g>
      <g>
        <polyline class="cls-6" points="58.95 49.29 52.73 55.52 46.51 49.29"/>
        <path class="cls-5" d="M52.73,57.52c-.51,0-1.02-.2-1.41-.59l-6.22-6.22c-.78-.78-.78-2.05,0-2.83.78-.78,2.05-.78,2.83,0l4.81,4.81,4.81-4.81c.78-.78,2.05-.78,2.83,0,.78.78.78,2.05,0,2.83l-6.22,6.22c-.39.39-.9.59-1.41.59Z"/>
      </g>
      <g>
        <polygon class="cls-6" points="50.87 89.22 54.73 93.08 59.17 93.08 63.03 89.22 56.95 83.14 50.87 89.22"/>
        <path class="cls-5" d="M59.17,95.08h-4.44c-.53,0-1.04-.21-1.41-.59l-3.86-3.86c-.78-.78-.78-2.05,0-2.83l6.08-6.08c.78-.78,2.05-.78,2.83,0l6.08,6.08c.38.38.59.88.59,1.41s-.21,1.04-.59,1.41l-3.86,3.86c-.38.38-.88.59-1.41.59ZM55.56,91.08h2.78l1.86-1.86-3.25-3.25-3.25,3.25,1.86,1.86Z"/>
      </g>
      <g>
        <polygon class="cls-6" points="12 62.04 12 69.49 17 74.49 25.72 65.76 17 57.04 12 62.04"/>
        <path class="cls-5" d="M17,76.49c-.51,0-1.02-.2-1.41-.59l-5-5c-.38-.38-.59-.88-.59-1.41v-7.44c0-.53.21-1.04.59-1.41l5-5c.78-.78,2.05-.78,2.83,0l8.72,8.72c.38.38.59.88.59,1.41s-.21,1.04-.59,1.41l-8.72,8.72c-.39.39-.9.59-1.41.59ZM14,68.66l3,3,5.89-5.89-5.89-5.89-3,3v5.78Z"/>
      </g>
    </g>
  </g>
</svg>