<?xml version="1.0" encoding="UTF-8"?>
<svg id="outline_icons" xmlns="http://www.w3.org/2000/svg" viewBox="0 0 112 112">
  <defs>
    <style>
      .cls-1 {
        fill: none;
      }

      .cls-2 {
        fill: #f9ecb9;
      }

      .cls-3 {
        fill: #fff;
      }

      .cls-4 {
        fill: #ddc9b1;
      }

      .cls-5 {
        fill: #004241;
      }
    </style>
  </defs>
  <g id="fromagepatemolle">
    <rect class="cls-1" width="112" height="112"/>
    <g>
      <g>
        <path class="cls-4" d="M103.54,57.89c0-21.47-21.49-38.87-48-38.87S7.54,36.42,7.54,57.89v15.87c0,4.17,3.35,7.55,7.47,7.55h81.05c4.13,0,7.47-3.38,7.47-7.55v-15.87Z"/>
        <path class="cls-5" d="M96.07,83.3H15.01c-5.22,0-9.47-4.28-9.47-9.55v-15.87c0-22.53,22.43-40.87,50-40.87s50,18.33,50,40.87v15.87c0,5.27-4.25,9.55-9.47,9.55ZM55.54,21.02c-25.36,0-46,16.54-46,36.87v15.87c0,3.06,2.46,5.55,5.47,5.55h81.05c3.02,0,5.47-2.49,5.47-5.55v-15.87c0-20.33-20.64-36.87-46-36.87Z"/>
      </g>
      <path class="cls-2" d="M97.65,81.3h-11.77c-2.88,0-5.62,1.23-7.54,3.39l-4.4,4.94c-3.96,4.44-10.83,4.53-14.9.2l-1.8-1.92c-3.54-3.76-9.3-4.27-13.42-1.16h0c-3.56,2.68-8.43,2.71-12.02.08l-4.86-3.56c-1.73-1.27-3.82-1.95-5.96-1.95h-7.54c-3.26,0-5.89-2.67-5.89-5.95v-11.51c0-3.29,2.64-5.95,5.89-5.95h84.21c3.26,0,5.89,2.67,5.89,5.95v11.51c0,3.29-2.64,5.95-5.89,5.95Z"/>
      <path class="cls-3" d="M57.86,73.83c-2.8,0-5.6-1.13-7.94-3.38-.79-.77-.82-2.03-.05-2.83.77-.8,2.03-.82,2.83-.05,3.12,3.01,7.15,3.02,10.28.04l3.67-3.51c.8-.76,2.06-.73,2.83.07.76.8.73,2.06-.07,2.83l-3.67,3.51c-2.32,2.22-5.1,3.32-7.88,3.32Z"/>
      <path class="cls-5" d="M66.4,95.02c-3.32,0-6.53-1.39-8.82-3.83l-1.8-1.92c-2.84-3.02-7.46-3.42-10.76-.94-4.29,3.23-10.08,3.26-14.41.09l-4.86-3.56c-1.4-1.02-3.05-1.57-4.78-1.57h-7.54c-4.35,0-7.9-3.57-7.9-7.95v-11.51c0-4.39,3.54-7.95,7.9-7.95h84.21c4.35,0,7.9,3.57,7.9,7.95v11.51c0,4.39-3.54,7.95-7.9,7.95h-11.77c-2.3,0-4.5.99-6.05,2.72l-4.4,4.94c-2.26,2.53-5.5,4.01-8.88,4.06-.05,0-.1,0-.15,0ZM49.86,82.71c3.24,0,6.45,1.3,8.82,3.82l1.8,1.92c1.58,1.68,3.73,2.6,6.01,2.56,2.29-.03,4.4-1,5.94-2.72l4.4-4.94c2.3-2.58,5.59-4.06,9.03-4.06h11.77c2.15,0,3.9-1.77,3.9-3.95v-11.51c0-2.18-1.75-3.95-3.9-3.95H13.44c-2.15,0-3.9,1.77-3.9,3.95v11.51c0,2.18,1.75,3.95,3.9,3.95h7.54c2.58,0,5.05.81,7.14,2.34l4.86,3.56c2.89,2.12,6.77,2.1,9.64-.06,2.17-1.63,4.72-2.43,7.26-2.43Z"/>
      <path class="cls-5" d="M78.34,86.69c-.45,0-.89-.15-1.27-.45-.85-.7-.98-1.96-.28-2.81,1.04-1.28,10.44-12.47,18.42-12.63,1.14-.03,2.02.85,2.04,1.96.02,1.1-.85,2.02-1.96,2.04-5.23.11-12.9,8.1-15.41,11.17-.4.48-.97.73-1.55.73Z"/>
    </g>
  </g>
</svg>