<?xml version="1.0" encoding="UTF-8"?>
<svg id="outline_icons" xmlns="http://www.w3.org/2000/svg" viewBox="0 0 112 112">
  <defs>
    <style>
      .cls-1 {
        fill: none;
      }

      .cls-2 {
        fill: #3b71b2;
      }

      .cls-3 {
        fill: #cae8ef;
      }

      .cls-4 {
        fill: #fff;
      }

      .cls-5 {
        fill: #f2ccd6;
      }

      .cls-6 {
        fill: #5482d3;
      }

      .cls-7 {
        fill: #004241;
      }
    </style>
  </defs>
  <g id="fromagblanc">
    <rect class="cls-1" width="112" height="112"/>
    <g>
      <g>
        <path class="cls-3" d="M94.07,87.89c0,6.67-14.64,16.11-38.07,16.11s-38.07-9.43-38.07-16.11l-4.36-55.92h84.86l-4.36,55.92Z"/>
        <path class="cls-7" d="M56,106c-23.54,0-39.96-9.48-40.07-18.02l-4.35-55.85c-.04-.56.15-1.1.53-1.51.38-.41.91-.64,1.47-.64h84.86c.56,0,1.09.23,1.47.64.38.41.57.96.53,1.51l-4.35,55.85c-.11,8.54-16.53,18.02-40.07,18.02ZM15.73,33.97l4.19,53.76c0,.05,0,.1,0,.16,0,4.79,12.73,14.11,36.07,14.11s36.07-9.32,36.07-14.11c0-.05,0-.1,0-.16l4.19-53.76H15.73Z"/>
      </g>
      <g>
        <path class="cls-2" d="M99.95,20.52l2.05,9.96c0,7.24-20.59,13.1-46,13.1s-46-5.87-46-13.1l2.05-9.96h87.91"/>
        <path class="cls-7" d="M56,45.58c-12.47,0-24.21-1.39-33.07-3.91-9.76-2.78-14.93-6.65-14.93-11.19,0-.14.01-.27.04-.4l2.05-9.96c.19-.93,1.01-1.6,1.96-1.6h87.91c.95,0,1.77.67,1.96,1.6l2.05,9.96c.03.13.04.27.04.4,0,4.54-5.16,8.41-14.93,11.19-8.86,2.52-20.61,3.91-33.07,3.91ZM12.01,30.65c.4,4.62,17.06,10.94,43.99,10.94s43.6-6.31,43.99-10.94l-1.67-8.13H13.68l-1.67,8.13Z"/>
      </g>
      <g>
        <g>
          <g>
            <path class="cls-4" d="M34.3,57.06c2.88,6.45,1.98,8,1.98,8,0,0-6.61.78-7.46,4.38,0,0,4.56,2.36,7.46,1.53"/>
            <path class="cls-7" d="M34.9,73.15c-3.17,0-6.56-1.7-7.01-1.93-.81-.42-1.24-1.34-1.03-2.24.85-3.58,5.03-5.04,7.47-5.6-.15-.96-.6-2.69-1.86-5.51-.45-1.01,0-2.19,1.01-2.64,1.01-.45,2.19,0,2.64,1.01,2.73,6.1,2.53,8.71,1.88,9.82-.32.54-.87.91-1.5.98-1.41.17-3.36.72-4.6,1.51,1.33.44,2.85.77,3.81.49,1.06-.3,2.17.31,2.47,1.37.3,1.06-.31,2.17-1.37,2.47-.61.18-1.27.25-1.93.25Z"/>
          </g>
          <g>
            <path class="cls-4" d="M52.26,70.81s4.25-.16,7.54-1.45c0,0-2.71-4.89-6.27-4.6"/>
            <path class="cls-7" d="M52.25,72.81c-1.07,0-1.95-.85-2-1.92-.04-1.1.82-2.03,1.92-2.08.03,0,2.06-.09,4.29-.56-.84-.86-1.84-1.56-2.78-1.49-1.1.09-2.07-.73-2.16-1.83s.73-2.07,1.83-2.16c4.72-.39,7.85,5,8.19,5.62.28.5.33,1.11.13,1.65s-.62.97-1.15,1.18c-3.57,1.39-8.01,1.58-8.19,1.58-.03,0-.05,0-.08,0Z"/>
          </g>
          <g>
            <path class="cls-4" d="M36.27,65.06h15.98v16.92c0,1.82-1.48,3.3-3.3,3.3h-9.38c-1.82,0-3.3-1.48-3.3-3.3v-16.92h0Z"/>
            <path class="cls-7" d="M48.95,87.28h-9.38c-2.92,0-5.3-2.38-5.3-5.3v-16.92c0-1.1.9-2,2-2h15.98c1.1,0,2,.9,2,2v16.92c0,2.92-2.38,5.3-5.3,5.3ZM38.27,67.06v14.92c0,.72.58,1.3,1.3,1.3h9.38c.72,0,1.3-.58,1.3-1.3v-14.92h-11.98Z"/>
          </g>
          <path class="cls-7" d="M52.05,67.11c-.89,0-1.72-.62-1.96-1.53-.13-.47-.63-3.13,1.81-9.26.41-1.03,1.57-1.53,2.6-1.12,1.03.41,1.53,1.57,1.12,2.6-1.94,4.87-1.64,6.82-1.64,6.84.29,1.07-.36,2.12-1.42,2.4-.17.04-.33.07-.5.07Z"/>
        </g>
        <g>
          <path class="cls-5" d="M36.27,76.77h15.98v5.21c0,1.82-1.48,3.3-3.3,3.3h-9.38c-1.82,0-3.3-1.48-3.3-3.3v-5.21h0Z"/>
          <path class="cls-7" d="M48.95,87.28h-9.38c-2.92,0-5.3-2.38-5.3-5.3v-5.21c0-1.1.9-2,2-2h15.98c1.1,0,2,.9,2,2v5.21c0,2.92-2.38,5.3-5.3,5.3ZM38.27,78.77v3.21c0,.72.58,1.3,1.3,1.3h9.38c.72,0,1.3-.58,1.3-1.3v-3.21h-11.98Z"/>
        </g>
      </g>
      <g>
        <ellipse class="cls-6" cx="56" cy="20.52" rx="43.95" ry="12.52"/>
        <path class="cls-7" d="M56,35.04c-11.92,0-23.15-1.33-31.63-3.74-9.37-2.67-14.33-6.4-14.33-10.78s4.95-8.11,14.33-10.78c8.48-2.41,19.71-3.74,31.63-3.74s23.15,1.33,31.63,3.74c9.37,2.67,14.33,6.4,14.33,10.78s-4.95,8.11-14.33,10.78c-8.48,2.41-19.71,3.74-31.63,3.74ZM56,10c-25.99,0-41.95,6.13-41.95,10.52s15.96,10.52,41.95,10.52,41.95-6.13,41.95-10.52-15.96-10.52-41.95-10.52Z"/>
      </g>
      <g>
        <path class="cls-6" d="M86.4,62.04c-4.15,1.13-9.08,2.04-14.53,2.64"/>
        <path class="cls-7" d="M71.86,66.68c-1.01,0-1.87-.76-1.99-1.78-.12-1.1.67-2.09,1.77-2.21,5.32-.59,10.11-1.46,14.23-2.58,1.07-.29,2.17.34,2.46,1.4.29,1.07-.34,2.17-1.4,2.46-4.32,1.18-9.31,2.09-14.84,2.7-.07,0-.15.01-.22.01Z"/>
      </g>
      <g>
        <path class="cls-6" d="M80.68,72.13c-2.73.53-5.69.97-8.81,1.32"/>
        <path class="cls-7" d="M71.86,75.44c-1.01,0-1.87-.76-1.99-1.78-.12-1.1.67-2.09,1.77-2.21,3.05-.34,5.96-.77,8.65-1.29,1.08-.21,2.13.5,2.34,1.58.21,1.08-.5,2.13-1.58,2.34-2.8.54-5.82.99-8.97,1.34-.07,0-.15.01-.22.01Z"/>
      </g>
    </g>
  </g>
</svg>