<svg xmlns="http://www.w3.org/2000/svg" id="flatten_icons" data-name="flatten icons" viewBox="0 0 112 112"><defs><style>.cls-4,.cls-8{stroke-width:0}.cls-4{fill:#b5597e}.cls-8{fill:#004241}</style></defs><path d="M0 0h112v112H0z" style="fill:none;stroke-width:0"/><path d="M110 52.73c0 16.51-16.59 29.89-33.1 29.89S44.6 69.24 44.6 52.73s15.79-33.1 32.3-33.1S110 36.22 110 52.73" style="stroke-width:0;fill:#bf4c5d"/><path d="M105.97 38.32C103.62 52.98 88.38 64.3 73.2 64.3c-11.42 0-22.5-6.41-28.24-15.82-.22 1.41-.35 2.84-.35 4.26 0 16.51 15.79 29.89 32.3 29.89s33.1-13.38 33.1-29.89c0-4.95-1.5-9.9-4.03-14.41Z" style="stroke-width:0;fill:#a04052"/><path d="M76.9 84.62c-18.27 0-34.3-14.9-34.3-31.89s16.99-35.1 34.3-35.1S112 35.02 112 52.73 93.47 84.62 76.9 84.62m0-62.99c-15.29 0-30.3 15.4-30.3 31.1 0 14.86 14.16 27.89 30.3 27.89 14.68 0 31.1-11.93 31.1-27.89s-15.69-31.1-31.1-31.1" class="cls-8"/><path d="M74.13 69.34c0 18.21-18.3 32.96-36.51 32.96S2 87.55 2 69.34s17.42-36.51 35.62-36.51 36.51 18.3 36.51 36.51" style="stroke-width:0;fill:#ea5e7c"/><path d="M37.62 104.31C17.58 104.31 0 87.97 0 69.34s18.63-38.5 37.62-38.5 38.51 19.07 38.51 38.51-20.33 34.96-38.51 34.96m0-69.47C20.65 34.84 4 51.93 4 69.35c0 16.5 15.71 30.96 33.62 30.96 16.29 0 34.51-13.24 34.51-30.96S54.72 34.84 37.62 34.84" class="cls-8"/><path d="M68.38 69.06c0 15.3-15.38 27.71-30.69 27.71S7.75 84.36 7.75 69.06s14.64-30.69 29.94-30.69 30.69 15.38 30.69 30.69" style="stroke-width:0;fill:#f4f0df"/><path d="M63.99 68.85c0 13.09-13.16 23.7-26.24 23.7s-25.61-10.61-25.61-23.7 12.52-26.24 25.61-26.24 26.24 13.16 26.24 26.24" style="stroke-width:0;fill:#f4d553"/><circle cx="40.17" cy="49.17" r="2.54" class="cls-4"/><circle cx="26.4" cy="54.43" r="2.54" class="cls-4"/><circle cx="28.94" cy="81.42" r="2.54" class="cls-4"/><circle cx="35.45" cy="65.13" r="2.54" class="cls-4"/><circle cx="46.75" cy="69.12" r="2.54" class="cls-4"/><circle cx="20.58" cy="69.12" r="2.54" class="cls-4"/><circle cx="51.58" cy="57.79" r="2.54" class="cls-4"/><circle cx="41.57" cy="85.58" r="2.54" class="cls-4"/><circle cx="56.5" cy="76.82" r="2.54" class="cls-4"/><path d="M82.47 28.72a2 2 0 0 1-2-2c0-.56.11-13.85 9.4-18.79a2 2 0 0 1 2.71.83 2 2 0 0 1-.83 2.71c-7.16 3.81-7.28 15.15-7.28 15.26 0 1.1-.9 2-2 2Z" class="cls-8"/></svg>