<?xml version="1.0" encoding="UTF-8"?>
<svg id="flatten_icons" data-name="flatten icons" xmlns="http://www.w3.org/2000/svg" viewBox="0 0 112 112">
  <defs>
    <style>
      .cls-1 {
        fill: none;
      }

      .cls-1, .cls-2, .cls-3, .cls-4, .cls-5, .cls-6, .cls-7, .cls-8 {
        stroke-width: 0px;
      }

      .cls-2 {
        fill: #f4d553;
      }

      .cls-3 {
        fill: #bf4c5d;
      }

      .cls-4 {
        fill: #b5597e;
      }

      .cls-5 {
        fill: #a04052;
      }

      .cls-6 {
        fill: #ea5e7c;
      }

      .cls-7 {
        fill: #f4f0df;
      }

      .cls-8 {
        fill: #004241;
      }
    </style>
  </defs>
  <rect class="cls-1" width="112" height="112"/>
  <g>
    <path class="cls-3" d="m110,52.73c0,16.51-16.59,29.89-33.1,29.89s-32.3-13.38-32.3-29.89,15.79-33.1,32.3-33.1,33.1,16.59,33.1,33.1Z"/>
    <path class="cls-5" d="m105.97,38.32c-2.35,14.66-17.59,25.98-32.77,25.98-11.42,0-22.5-6.41-28.24-15.82-.22,1.41-.35,2.84-.35,4.26,0,16.51,15.79,29.89,32.3,29.89s33.1-13.38,33.1-29.89c0-4.95-1.5-9.9-4.03-14.41Z"/>
    <path class="cls-8" d="m76.9,84.62c-18.27,0-34.3-14.9-34.3-31.89s16.99-35.1,34.3-35.1,35.1,17.39,35.1,35.1-18.53,31.89-35.1,31.89Zm0-62.99c-15.29,0-30.3,15.4-30.3,31.1,0,14.86,14.16,27.89,30.3,27.89,14.68,0,31.1-11.93,31.1-27.89s-15.69-31.1-31.1-31.1Z"/>
    <g>
      <path class="cls-6" d="m74.13,69.34c0,18.21-18.3,32.96-36.51,32.96S2,87.55,2,69.34s17.42-36.51,35.62-36.51,36.51,18.3,36.51,36.51Z"/>
      <path class="cls-8" d="m37.62,104.31C17.58,104.31,0,87.97,0,69.34S18.63,30.84,37.62,30.84s38.51,19.07,38.51,38.51-20.33,34.96-38.51,34.96Zm0-69.47c-16.97,0-33.62,17.09-33.62,34.51,0,16.5,15.71,30.96,33.62,30.96,16.29,0,34.51-13.24,34.51-30.96s-17.41-34.51-34.51-34.51Z"/>
    </g>
    <path class="cls-7" d="m68.38,69.06c0,15.3-15.38,27.71-30.69,27.71s-29.94-12.41-29.94-27.71,14.64-30.69,29.94-30.69,30.69,15.38,30.69,30.69Z"/>
    <path class="cls-2" d="m63.99,68.85c0,13.09-13.16,23.7-26.24,23.7s-25.61-10.61-25.61-23.7,12.52-26.24,25.61-26.24,26.24,13.16,26.24,26.24Z"/>
    <circle class="cls-4" cx="40.17" cy="49.17" r="2.54"/>
    <circle class="cls-4" cx="26.4" cy="54.43" r="2.54"/>
    <circle class="cls-4" cx="28.94" cy="81.42" r="2.54"/>
    <circle class="cls-4" cx="35.45" cy="65.13" r="2.54"/>
    <circle class="cls-4" cx="46.75" cy="69.12" r="2.54"/>
    <circle class="cls-4" cx="20.58" cy="69.12" r="2.54"/>
    <circle class="cls-4" cx="51.58" cy="57.79" r="2.54"/>
    <circle class="cls-4" cx="41.57" cy="85.58" r="2.54"/>
    <circle class="cls-4" cx="56.5" cy="76.82" r="2.54"/>
    <path class="cls-8" d="m82.47,28.72h0c-1.1,0-2-.89-2-2,0-.56.11-13.85,9.4-18.79.98-.52,2.19-.15,2.71.83.52.98.15,2.19-.83,2.71-7.16,3.81-7.28,15.15-7.28,15.26,0,1.1-.9,2-2,2Z"/>
  </g>
</svg>