<svg xmlns="http://www.w3.org/2000/svg" id="flatten_icons" data-name="flatten icons" viewBox="0 0 112 112"><defs><style>.cls-4,.cls-5,.cls-7{stroke-width:0}.cls-4{fill:#bababa}.cls-5{fill:#919191}.cls-7{fill:#004241}</style></defs><path d="M0 0h112v112H0z" style="fill:none;stroke-width:0"/><path d="M56.12 38.23c10.29 0 18.65 8.35 18.65 18.65v23.89H37.48V56.88c0-10.29 8.35-18.65 18.65-18.65Z" class="cls-4"/><path d="M74.77 82.76H37.48c-1.1 0-2-.9-2-2V56.87c0-11.38 9.26-20.65 20.65-20.65s20.65 9.26 20.65 20.65v23.89c0 1.1-.9 2-2 2Zm-35.29-4h33.29V56.87c0-9.18-7.47-16.65-16.65-16.65s-16.65 7.47-16.65 16.65v21.89Z" class="cls-7"/><path d="M40.36 48.73 51.68 76.8l-4.96-42.56L37.47 9.6l-.75 26.38z" class="cls-4"/><path d="M51.68 78.8c-.8 0-1.54-.48-1.85-1.25L38.51 49.48c-.03-.06-.05-.13-.07-.2L34.8 36.53c-.06-.2-.08-.4-.08-.61l.75-26.38c.03-.96.73-1.76 1.67-1.92s1.87.38 2.2 1.27l9.24 24.65c.06.15.1.31.11.47l4.96 42.56a1.994 1.994 0 0 1-1.99 2.23Zm-9.43-30.72 5.72 14.18-3.21-27.54-5.58-14.87-.45 15.88 3.53 12.35Z" class="cls-7"/><path d="m72.41 48.73-6.36-1.12V34.24L75.3 9.6l1.54 23.6z" class="cls-4"/><path d="M72.41 50.73c-.12 0-.23 0-.35-.03l-6.36-1.12c-.96-.17-1.65-1-1.65-1.97V34.25c0-.24.04-.48.13-.7L73.42 8.9c.33-.88 1.23-1.42 2.17-1.28.93.14 1.64.91 1.7 1.85l1.55 23.6c.02.23 0 .46-.07.68l-4.43 15.53c-.25.87-1.04 1.45-1.92 1.45Zm-4.36-4.8 2.93.52 3.84-13.46L73.9 19l-5.85 15.61z" class="cls-7"/><path d="m53.33 44.82-.05-11.17L64.41 6.89l1.35 28.17-5.25 11.76z" class="cls-5"/><path d="M60.51 48.82c-.18 0-.36-.02-.54-.07l-7.18-2a1.99 1.99 0 0 1-1.46-1.92l-.05-11.17q0-.405.15-.78L62.56 6.12c.36-.86 1.27-1.36 2.19-1.2s1.61.94 1.65 1.88l1.34 28.16c.02.31-.04.62-.17.91l-5.25 11.76c-.33.74-1.05 1.19-1.83 1.19Zm-5.19-5.52 4.06 1.13 4.35-9.75-.9-18.79-7.55 18.17.04 9.25Z" class="cls-7"/><path d="m34.77 68.06-10.51-8.04-9.52-24.04 22.73 19.05 11.74 23.24z" class="cls-4"/><path d="M49.21 80.27c-.4 0-.81-.12-1.15-.37L33.62 69.69s-.04-.03-.06-.04l-10.51-8.04c-.29-.22-.51-.51-.64-.85l-9.52-24.04c-.34-.85-.05-1.82.69-2.36s1.75-.5 2.46.09L38.78 53.5c.21.17.38.39.5.63l11.74 23.24a2.005 2.005 0 0 1-1.79 2.91ZM35.96 66.45 43.8 72l-7.93-15.7L19.5 42.58l6.41 16.19 10.04 7.68Z" class="cls-7"/><path d="m38.07 55.87-8.73-9.61-4.58-25.19 14.5 18.76 9.95 36.97z" class="cls-4"/><path d="M49.21 78.8c-.72 0-1.41-.39-1.77-1.06L36.42 57.03l-8.57-9.42c-.25-.28-.42-.62-.49-.99l-4.58-25.19c-.17-.91.31-1.81 1.15-2.18s1.83-.13 2.4.6l14.5 18.76c.16.21.28.45.35.7l9.95 36.97a2.002 2.002 0 0 1-1.93 2.52ZM31.2 45.34l8.35 9.19c.11.12.21.26.29.41l2.86 5.38-5.27-19.58-9.24-11.95 3.01 16.56Z" class="cls-7"/><path d="m73.37 80.76 10.41-35.07 3.39-19.95-12.4 14.74-11.29 37.89z" class="cls-5"/><path d="M73.38 82.77c-.16 0-.31-.02-.47-.06l-9.9-2.39a2.004 2.004 0 0 1-1.44-2.52l11.29-37.89c.08-.26.21-.51.39-.72l12.41-14.74a1.998 1.998 0 0 1 3.5 1.62l-3.39 19.95c-.01.08-.03.16-.05.23L75.31 81.33c-.26.87-1.05 1.43-1.92 1.43ZM66 76.93l6 1.45 9.83-33.14 2.14-12.58-7.41 8.8-10.57 35.47Z" class="cls-7"/><path d="m71.45 80.3 20.68-27.7 5.13-16.62-13.48 9.71-18.1 33.21z" class="cls-4"/><path d="M71.45 82.3c-.16 0-.31-.02-.47-.06l-5.77-1.4c-.6-.15-1.11-.56-1.36-1.13s-.23-1.22.07-1.77l18.1-33.21c.14-.26.34-.49.59-.67l13.48-9.71c.7-.5 1.64-.5 2.34 0s1 1.39.74 2.21l-5.14 16.62c-.07.22-.17.42-.31.61l-20.68 27.7c-.38.51-.98.8-1.6.8Zm-2.77-4.73 1.95.47 19.68-26.36 3.27-10.6-8.27 5.96-16.64 30.53Z" class="cls-7"/><path d="m49.8 43.23-3.71-10.65 1.86-28.53L58.47 30.6 55.3 51.77z" class="cls-4"/><path d="M55.3 53.77c-.67 0-1.31-.34-1.68-.92l-5.5-8.54c-.09-.13-.16-.28-.21-.43L44.2 33.22c-.09-.25-.12-.52-.11-.79L45.94 3.9c.06-.93.76-1.7 1.68-1.85s1.83.37 2.17 1.24l10.52 26.55c.13.33.17.68.12 1.03l-3.17 21.17c-.12.82-.74 1.48-1.56 1.66-.14.03-.28.04-.42.04Zm-3.69-11.42 2.5 3.88 2.3-15.39-7.05-17.78-1.25 19.25 3.5 10.05Z" class="cls-7"/><path d="m46.72 34.24-.63 21 5.59 23.13h5.71l1.08-22.07z" class="cls-5"/><path d="M57.39 80.37h-5.71c-.92 0-1.73-.63-1.94-1.53l-5.59-23.13c-.04-.17-.06-.35-.06-.53l.62-21c.03-.91.66-1.68 1.54-1.89a2 2 0 0 1 2.22 1.01l11.75 22.06c.17.32.25.68.23 1.04l-1.08 22.07c-.05 1.07-.93 1.9-2 1.9Zm-4.14-4h2.23l.96-19.62-7.95-14.93-.39 13.21 5.16 21.34Z" class="cls-7"/><path d="M57.39 78.37 57 52.05l8.76-16.99 3.06 13.87-5.34 29.44z" class="cls-4"/><path d="M63.48 80.37h-6.09c-1.09 0-1.98-.88-2-1.97l-.4-26.32c0-.33.07-.65.22-.95l8.76-16.99c.39-.75 1.19-1.18 2.04-1.07.84.11 1.51.73 1.69 1.55l3.06 13.88c.06.26.06.53.01.79l-5.34 29.44c-.17.95-1 1.64-1.97 1.64Zm-4.12-4h2.45l4.97-27.4L65 40.9l-5.99 11.62.36 23.85Z" class="cls-7"/><path d="M32.06 68.06h.93c2.47 0 4.48 2.01 4.48 4.48V97.3h-9.9V72.54c0-2.47 2.01-4.48 4.48-4.48Z" class="cls-4"/><path d="M37.47 99.3h-9.9c-1.1 0-2-.9-2-2V72.54c0-3.57 2.91-6.48 6.48-6.48h.93c3.57 0 6.48 2.91 6.48 6.48V97.3c0 1.1-.9 2-2 2Zm-7.9-4h5.9V72.54a2.48 2.48 0 0 0-2.48-2.48h-.93a2.48 2.48 0 0 0-2.48 2.48V95.3Z" class="cls-7"/><path d="M74.83 97.3H37.48V80.76l5.61-1.22a56.5 56.5 0 0 1 25.99.49l5.75 1.48v15.78Z" class="cls-4"/><path d="M74.83 99.3H37.48c-1.1 0-2-.9-2-2V80.76a2 2 0 0 1 1.58-1.95l5.61-1.22a58.7 58.7 0 0 1 26.91.51l5.75 1.48c.88.23 1.5 1.02 1.5 1.94V97.3c0 1.1-.9 2-2 2m-35.35-4h33.35V83.07l-4.25-1.09c-8.15-2.1-16.82-2.26-25.07-.47l-4.03.87z" class="cls-7"/><path d="M29.24 88.39h7.07a4.98 4.98 0 0 1 4.98 4.98v3.93H24.25v-3.93a4.98 4.98 0 0 1 4.98-4.98Z" class="cls-4"/><path d="M41.3 99.3H24.26c-1.1 0-2-.9-2-2v-3.93c0-3.85 3.13-6.98 6.98-6.98h7.07c3.85 0 6.98 3.13 6.98 6.98v3.93c0 1.1-.9 2-2 2Zm-15.04-4H39.3v-1.93c0-1.65-1.34-2.98-2.98-2.98h-7.07c-1.65 0-2.98 1.34-2.98 2.98v1.93Z" class="cls-7"/><path d="M79.25 68.06h.93c2.47 0 4.48 2.01 4.48 4.48V97.3h-9.9V72.54c0-2.47 2.01-4.48 4.48-4.48Z" class="cls-4"/><path d="M84.66 99.3h-9.9c-1.1 0-2-.9-2-2V72.54c0-3.57 2.91-6.48 6.48-6.48h.93c3.57 0 6.48 2.91 6.48 6.48V97.3c0 1.1-.9 2-2 2Zm-7.9-4h5.9V72.54a2.48 2.48 0 0 0-2.48-2.48h-.93a2.48 2.48 0 0 0-2.48 2.48V95.3Z" class="cls-7"/><path d="M76.43 88.39h7.07a4.98 4.98 0 0 1 4.98 4.98v3.93H71.44v-3.93a4.98 4.98 0 0 1 4.98-4.98Z" class="cls-4"/><path d="M88.48 99.3H71.44c-1.1 0-2-.9-2-2v-3.93c0-3.85 3.13-6.98 6.98-6.98h7.07c3.85 0 6.98 3.13 6.98 6.98v3.93c0 1.1-.9 2-2 2Zm-15.04-4h13.04v-1.93c0-1.65-1.34-2.98-2.98-2.98h-7.07c-1.65 0-2.98 1.34-2.98 2.98v1.93Z" class="cls-7"/><path d="M69.98 85.21v1.51s1.47 1.8 1.47 7.02H47.69v-3.03c0-.31.13-.6.37-.82l3.14-2.88c.57-.52 1.51-.45 1.98.14.56.7 1.75.63 2.2-.13l.89-1.51c.28-.47.86-.71 1.43-.59l4.14.84c.22.05.46.04.67-.03l5.76-1.63c.84-.24 1.69.33 1.69 1.12ZM29.57 72.64v4.16l4.74-4.16zm53.1 0v4.16l-4.73-4.16z" class="cls-5"/><path d="M17.41 97.79h78.26v10.17H17.41z" class="cls-4"/><path d="M95.67 109.95H17.41c-1.1 0-2-.9-2-2V97.78c0-1.1.9-2 2-2h78.26c1.1 0 2 .9 2 2v10.17c0 1.1-.9 2-2 2m-76.26-4h74.26v-6.17H19.41z" class="cls-7"/><path d="m66.05 68.69 6.74 39.26h28.13l7.13-39.26z" style="stroke-width:0;fill:#fff"/><path d="M100.92 109.95H72.79c-.97 0-1.81-.7-1.97-1.66l-6.73-39.27c-.1-.58.06-1.18.44-1.63s.94-.71 1.53-.71h42a2 2 0 0 1 1.97 2.36l-7.14 39.27c-.17.95-1 1.64-1.97 1.64m-26.44-4h24.77l6.41-35.27H68.43z" class="cls-7"/><path d="m73.78 68.69 5.14 39.26h6.2l-3.2-39.26zm27.19 0-5.14 39.26h-6.2l3.2-39.26z" style="stroke-width:0;fill:#e26f6b"/><path d="M100.92 109.95H72.79c-.97 0-1.81-.7-1.97-1.66l-6.73-39.27c-.1-.58.06-1.18.44-1.63s.94-.71 1.53-.71h42a2 2 0 0 1 1.97 2.36l-7.14 39.27c-.17.95-1 1.64-1.97 1.64m-26.44-4h24.77l6.41-35.27H68.43z" class="cls-7"/><path d="M70.64 68.69s-.76-5.82 1.4-7.42c1.03-.76 1.74-1.84 2.16-3.04.58-1.69 1.97-3.49 5.26-3.17 0 0 1.66-3.98 5.67-2.93 1.6.42 2.64 1.18 3.32 1.94.77.87 1.85 1.42 3 1.65.57.11 1.3.4 2.25.98 1.2.74 2.14 1.61 2.86 2.43 1.18 1.34 3.04 1.79 4.79 1.41 1.04-.23 2.18-.12 3.07.86 2.23 2.45-.62 7.29-.62 7.29H70.66Z" style="stroke-width:0;fill:#f6e4af"/><path d="M103.78 70.69H70.64c-1 0-1.85-.74-1.98-1.74-.22-1.64-.69-7.16 2.19-9.29.65-.48 1.15-1.2 1.46-2.08.96-2.79 3.11-4.4 6-4.54 1.25-1.81 3.71-3.79 7.33-2.84 1.77.47 3.22 1.32 4.3 2.54.44.5 1.11.86 1.88 1.01.88.17 1.84.58 2.91 1.24 1.23.76 2.34 1.7 3.31 2.81.64.72 1.73 1.02 2.86.77 1.96-.43 3.72.09 4.97 1.47 3.14 3.44 0 9.03-.38 9.65-.36.61-1.01.98-1.72.98Zm-31.28-4h30.04c.58-1.36 1.05-3.2.38-3.94-.14-.16-.39-.42-1.17-.25-2.55.56-5.13-.23-6.72-2.05-.71-.81-1.52-1.5-2.41-2.05-.85-.53-1.35-.68-1.58-.72-1.63-.32-3.09-1.13-4.11-2.28-.55-.62-1.34-1.07-2.33-1.33-2.26-.59-3.21 1.52-3.32 1.77-.34.81-1.17 1.3-2.04 1.22-1.72-.17-2.67.38-3.17 1.83-.57 1.65-1.56 3.04-2.86 4-.46.34-.74 2-.72 3.81Z" class="cls-7"/></svg>