<?xml version="1.0" encoding="UTF-8"?>
<svg id="flatten_icons" data-name="flatten icons" xmlns="http://www.w3.org/2000/svg" viewBox="0 0 112 112">
  <defs>
    <style>
      .cls-1 {
        fill: none;
      }

      .cls-1, .cls-2, .cls-3, .cls-4, .cls-5, .cls-6, .cls-7 {
        stroke-width: 0px;
      }

      .cls-2 {
        fill: #f6e4af;
      }

      .cls-3 {
        fill: #e26f6b;
      }

      .cls-4 {
        fill: #bababa;
      }

      .cls-5 {
        fill: #919191;
      }

      .cls-6 {
        fill: #fff;
      }

      .cls-7 {
        fill: #004241;
      }
    </style>
  </defs>
  <rect class="cls-1" width="112" height="112"/>
  <g>
    <g>
      <g>
        <path class="cls-4" d="m56.12,38.23h0c10.29,0,18.65,8.35,18.65,18.65v23.89h-37.29v-23.89c0-10.29,8.35-18.65,18.65-18.65Z"/>
        <path class="cls-7" d="m74.77,82.76h-37.29c-1.1,0-2-.9-2-2v-23.89c0-11.38,9.26-20.65,20.65-20.65s20.65,9.26,20.65,20.65v23.89c0,1.1-.9,2-2,2Zm-35.29-4h33.29v-21.89c0-9.18-7.47-16.65-16.65-16.65s-16.65,7.47-16.65,16.65v21.89Z"/>
      </g>
      <g>
        <polygon class="cls-4" points="40.36 48.73 51.68 76.8 46.72 34.24 37.47 9.6 36.72 35.98 40.36 48.73"/>
        <path class="cls-7" d="m51.68,78.8c-.8,0-1.54-.48-1.85-1.25l-11.32-28.07c-.03-.06-.05-.13-.07-.2l-3.64-12.75c-.06-.2-.08-.4-.08-.61l.75-26.38c.03-.96.73-1.76,1.67-1.92.94-.16,1.87.38,2.2,1.27l9.24,24.65c.06.15.1.31.11.47l4.96,42.56c.12,1-.52,1.92-1.49,2.17-.17.04-.33.06-.5.06Zm-9.43-30.72l5.72,14.18-3.21-27.54-5.58-14.87-.45,15.88,3.53,12.35Z"/>
      </g>
      <g>
        <polygon class="cls-4" points="72.41 48.73 66.05 47.61 66.05 34.24 75.3 9.6 76.84 33.2 72.41 48.73"/>
        <path class="cls-7" d="m72.41,50.73c-.12,0-.23,0-.35-.03l-6.36-1.12c-.96-.17-1.65-1-1.65-1.97v-13.36c0-.24.04-.48.13-.7l9.24-24.65c.33-.88,1.23-1.42,2.17-1.28.93.14,1.64.91,1.7,1.85l1.55,23.6c.02.23,0,.46-.07.68l-4.43,15.53c-.25.87-1.04,1.45-1.92,1.45Zm-4.36-4.8l2.93.52,3.84-13.46-.92-13.99-5.85,15.61v11.32Z"/>
      </g>
      <g>
        <polygon class="cls-5" points="53.33 44.82 53.28 33.65 64.41 6.89 65.76 35.06 60.51 46.82 53.33 44.82"/>
        <path class="cls-7" d="m60.51,48.82c-.18,0-.36-.02-.54-.07l-7.18-2c-.86-.24-1.46-1.02-1.46-1.92l-.05-11.17c0-.27.05-.53.15-.78l11.13-26.76c.36-.86,1.27-1.36,2.19-1.2.92.16,1.61.94,1.65,1.88l1.34,28.16c.02.31-.04.62-.17.91l-5.25,11.76c-.33.74-1.05,1.19-1.83,1.19Zm-5.19-5.52l4.06,1.13,4.35-9.75-.9-18.79-7.55,18.17.04,9.25Z"/>
      </g>
      <g>
        <polygon class="cls-4" points="34.77 68.06 24.26 60.02 14.74 35.98 37.47 55.03 49.21 78.27 34.77 68.06"/>
        <path class="cls-7" d="m49.21,80.27c-.4,0-.81-.12-1.15-.37l-14.44-10.21s-.04-.03-.06-.04l-10.51-8.04c-.29-.22-.51-.51-.64-.85l-9.52-24.04c-.34-.85-.05-1.82.69-2.36.74-.54,1.75-.5,2.46.09l22.74,19.05c.21.17.38.39.5.63l11.74,23.24c.41.82.22,1.82-.48,2.42-.37.32-.84.49-1.31.49Zm-13.25-13.82l7.84,5.55-7.93-15.7-16.37-13.72,6.41,16.19,10.04,7.68Z"/>
      </g>
      <g>
        <polygon class="cls-4" points="38.07 55.87 29.34 46.26 24.76 21.07 39.26 39.83 49.21 76.8 38.07 55.87"/>
        <path class="cls-7" d="m49.21,78.8c-.72,0-1.41-.39-1.77-1.06l-11.02-20.71-8.57-9.42c-.25-.28-.42-.62-.49-.99l-4.58-25.19c-.17-.91.31-1.81,1.15-2.18.84-.37,1.83-.13,2.4.6l14.5,18.76c.16.21.28.45.35.7l9.95,36.97c.26.98-.25,2.01-1.2,2.38-.24.09-.49.14-.73.14Zm-18.01-33.46l8.35,9.19c.11.12.21.26.29.41l2.86,5.38-5.27-19.58-9.24-11.95,3.01,16.56Z"/>
      </g>
      <g>
        <polygon class="cls-5" points="73.37 80.76 83.78 45.69 87.17 25.74 74.77 40.48 63.48 78.37 73.37 80.76"/>
        <path class="cls-7" d="m73.38,82.77c-.16,0-.31-.02-.47-.06l-9.9-2.39c-.53-.13-.99-.47-1.26-.95s-.34-1.04-.18-1.57l11.29-37.89c.08-.26.21-.51.39-.72l12.41-14.74c.58-.69,1.55-.91,2.37-.53.82.38,1.28,1.26,1.13,2.15l-3.39,19.95c-.01.08-.03.16-.05.23l-10.41,35.08c-.26.87-1.05,1.43-1.92,1.43Zm-7.38-5.84l6,1.45,9.83-33.14,2.14-12.58-7.41,8.8-10.57,35.47Z"/>
      </g>
      <g>
        <polygon class="cls-4" points="71.45 80.3 92.13 52.6 97.26 35.98 83.78 45.69 65.68 78.9 71.45 80.3"/>
        <path class="cls-7" d="m71.45,82.3c-.16,0-.31-.02-.47-.06l-5.77-1.4c-.6-.15-1.11-.56-1.36-1.13s-.23-1.22.07-1.77l18.1-33.21c.14-.26.34-.49.59-.67l13.48-9.71c.7-.5,1.64-.5,2.34,0,.7.5,1,1.39.74,2.21l-5.14,16.62c-.07.22-.17.42-.31.61l-20.68,27.7c-.38.51-.98.8-1.6.8Zm-2.77-4.73l1.95.47,19.68-26.36,3.27-10.6-8.27,5.96-16.64,30.53Z"/>
      </g>
      <g>
        <polygon class="cls-4" points="49.8 43.23 46.09 32.58 47.95 4.05 58.47 30.6 55.3 51.77 49.8 43.23"/>
        <path class="cls-7" d="m55.3,53.77c-.67,0-1.31-.34-1.68-.92l-5.5-8.54c-.09-.13-.16-.28-.21-.43l-3.71-10.66c-.09-.25-.12-.52-.11-.79l1.85-28.53c.06-.93.76-1.7,1.68-1.85.92-.15,1.83.37,2.17,1.24l10.52,26.55c.13.33.17.68.12,1.03l-3.17,21.17c-.12.82-.74,1.48-1.56,1.66-.14.03-.28.04-.42.04Zm-3.69-11.42l2.5,3.88,2.3-15.39-7.05-17.78-1.25,19.25,3.5,10.05Z"/>
      </g>
      <g>
        <polygon class="cls-5" points="46.72 34.24 46.09 55.24 51.68 78.37 57.39 78.37 58.47 56.3 46.72 34.24"/>
        <path class="cls-7" d="m57.39,80.37h-5.71c-.92,0-1.73-.63-1.94-1.53l-5.59-23.13c-.04-.17-.06-.35-.06-.53l.62-21c.03-.91.66-1.68,1.54-1.89.88-.21,1.79.21,2.22,1.01l11.75,22.06c.17.32.25.68.23,1.04l-1.08,22.07c-.05,1.07-.93,1.9-2,1.9Zm-4.14-4h2.23l.96-19.62-7.95-14.93-.39,13.21,5.16,21.34Z"/>
      </g>
      <g>
        <polygon class="cls-4" points="57.39 78.37 57 52.05 65.76 35.06 68.82 48.93 63.48 78.37 57.39 78.37"/>
        <path class="cls-7" d="m63.48,80.37h-6.09c-1.09,0-1.98-.88-2-1.97l-.4-26.32c0-.33.07-.65.22-.95l8.76-16.99c.39-.75,1.19-1.18,2.04-1.07.84.11,1.51.73,1.69,1.55l3.06,13.88c.06.26.06.53.01.79l-5.34,29.44c-.17.95-1,1.64-1.97,1.64Zm-4.12-4h2.45l4.97-27.4-1.78-8.07-5.99,11.62.36,23.85Z"/>
      </g>
      <g>
        <path class="cls-4" d="m32.06,68.06h.93c2.47,0,4.48,2.01,4.48,4.48v24.76h-9.9v-24.76c0-2.47,2.01-4.48,4.48-4.48Z"/>
        <path class="cls-7" d="m37.47,99.3h-9.9c-1.1,0-2-.9-2-2v-24.76c0-3.57,2.91-6.48,6.48-6.48h.93c3.57,0,6.48,2.91,6.48,6.48v24.76c0,1.1-.9,2-2,2Zm-7.9-4h5.9v-22.76c0-1.37-1.11-2.48-2.48-2.48h-.93c-1.37,0-2.48,1.11-2.48,2.48v22.76Z"/>
      </g>
      <g>
        <path class="cls-4" d="m74.83,97.3h-37.35v-16.54l5.61-1.22c8.57-1.86,17.52-1.69,25.99.49l5.75,1.48v15.78Z"/>
        <path class="cls-7" d="m74.83,99.3h-37.35c-1.1,0-2-.9-2-2v-16.54c0-.94.66-1.75,1.58-1.95l5.61-1.22c8.85-1.92,18.16-1.74,26.91.51l5.75,1.48c.88.23,1.5,1.02,1.5,1.94v15.78c0,1.1-.9,2-2,2Zm-35.35-4h33.35v-12.23l-4.25-1.09c-8.15-2.1-16.82-2.26-25.07-.47l-4.03.87v12.92Z"/>
      </g>
      <g>
        <path class="cls-4" d="m29.24,88.39h7.07c2.75,0,4.98,2.23,4.98,4.98v3.93h-17.04v-3.93c0-2.75,2.23-4.98,4.98-4.98Z"/>
        <path class="cls-7" d="m41.3,99.3h-17.04c-1.1,0-2-.9-2-2v-3.93c0-3.85,3.13-6.98,6.98-6.98h7.07c3.85,0,6.98,3.13,6.98,6.98v3.93c0,1.1-.9,2-2,2Zm-15.04-4h13.04v-1.93c0-1.65-1.34-2.98-2.98-2.98h-7.07c-1.65,0-2.98,1.34-2.98,2.98v1.93Z"/>
      </g>
      <g>
        <path class="cls-4" d="m79.25,68.06h.93c2.47,0,4.48,2.01,4.48,4.48v24.76h-9.9v-24.76c0-2.47,2.01-4.48,4.48-4.48Z"/>
        <path class="cls-7" d="m84.66,99.3h-9.9c-1.1,0-2-.9-2-2v-24.76c0-3.57,2.91-6.48,6.48-6.48h.93c3.57,0,6.48,2.91,6.48,6.48v24.76c0,1.1-.9,2-2,2Zm-7.9-4h5.9v-22.76c0-1.37-1.11-2.48-2.48-2.48h-.93c-1.37,0-2.48,1.11-2.48,2.48v22.76Z"/>
      </g>
      <g>
        <path class="cls-4" d="m76.43,88.39h7.07c2.75,0,4.98,2.23,4.98,4.98v3.93h-17.04v-3.93c0-2.75,2.23-4.98,4.98-4.98Z"/>
        <path class="cls-7" d="m88.48,99.3h-17.04c-1.1,0-2-.9-2-2v-3.93c0-3.85,3.13-6.98,6.98-6.98h7.07c3.85,0,6.98,3.13,6.98,6.98v3.93c0,1.1-.9,2-2,2Zm-15.04-4h13.04v-1.93c0-1.65-1.34-2.98-2.98-2.98h-7.07c-1.65,0-2.98,1.34-2.98,2.98v1.93Z"/>
      </g>
      <path class="cls-5" d="m69.98,85.21v1.51s1.47,1.8,1.47,7.02h-23.76v-3.03c0-.31.13-.6.37-.82l3.14-2.88c.57-.52,1.51-.45,1.98.14h0c.56.7,1.75.63,2.2-.13l.89-1.51c.28-.47.86-.71,1.43-.59l4.14.84c.22.05.46.04.67-.03l5.76-1.63c.84-.24,1.69.33,1.69,1.12Z"/>
      <polygon class="cls-5" points="29.57 72.64 29.57 76.8 34.31 72.64 29.57 72.64"/>
      <polygon class="cls-5" points="82.67 72.64 82.67 76.8 77.94 72.64 82.67 72.64"/>
    </g>
    <g>
      <rect class="cls-4" x="17.41" y="97.79" width="78.26" height="10.17"/>
      <path class="cls-7" d="m95.67,109.95H17.41c-1.1,0-2-.9-2-2v-10.17c0-1.1.9-2,2-2h78.26c1.1,0,2,.9,2,2v10.17c0,1.1-.9,2-2,2Zm-76.26-4h74.26v-6.17H19.41v6.17Z"/>
    </g>
  </g>
  <g>
    <polygon class="cls-6" points="66.05 68.69 72.79 107.95 100.92 107.95 108.05 68.69 66.05 68.69"/>
    <path class="cls-7" d="m100.92,109.95h-28.13c-.97,0-1.81-.7-1.97-1.66l-6.73-39.27c-.1-.58.06-1.18.44-1.63.38-.45.94-.71,1.53-.71h42c.59,0,1.16.26,1.54.72.38.46.54,1.06.43,1.64l-7.14,39.27c-.17.95-1,1.64-1.97,1.64Zm-26.44-4h24.77l6.41-35.27h-37.23l6.05,35.27Z"/>
  </g>
  <polygon class="cls-3" points="73.78 68.69 78.92 107.95 85.12 107.95 81.92 68.69 73.78 68.69"/>
  <polygon class="cls-3" points="100.97 68.69 95.83 107.95 89.63 107.95 92.83 68.69 100.97 68.69"/>
  <path class="cls-7" d="m100.92,109.95h-28.13c-.97,0-1.81-.7-1.97-1.66l-6.73-39.27c-.1-.58.06-1.18.44-1.63.38-.45.94-.71,1.53-.71h42c.59,0,1.16.26,1.54.72.38.46.54,1.06.43,1.64l-7.14,39.27c-.17.95-1,1.64-1.97,1.64Zm-26.44-4h24.77l6.41-35.27h-37.23l6.05,35.27Z"/>
  <g>
    <path class="cls-2" d="m70.64,68.69s-.76-5.82,1.4-7.42c1.03-.76,1.74-1.84,2.16-3.04.58-1.69,1.97-3.49,5.26-3.17,0,0,1.66-3.98,5.67-2.93,1.6.42,2.64,1.18,3.32,1.94.77.87,1.85,1.42,3,1.65.57.11,1.3.4,2.25.98,1.2.74,2.14,1.61,2.86,2.43,1.18,1.34,3.04,1.79,4.79,1.41,1.04-.23,2.18-.12,3.07.86,2.23,2.45-.62,7.29-.62,7.29h-33.14Z"/>
    <path class="cls-7" d="m103.78,70.69h-33.14c-1,0-1.85-.74-1.98-1.74-.22-1.64-.69-7.16,2.19-9.29.65-.48,1.15-1.2,1.46-2.08.96-2.79,3.11-4.4,6-4.54,1.25-1.81,3.71-3.79,7.33-2.84,1.77.47,3.22,1.32,4.3,2.54.44.5,1.11.86,1.88,1.01.88.17,1.84.58,2.91,1.24,1.23.76,2.34,1.7,3.31,2.81.64.72,1.73,1.02,2.86.77,1.96-.43,3.72.09,4.97,1.47,3.14,3.44,0,9.03-.38,9.65-.36.61-1.01.98-1.72.98Zm-31.28-4h30.04c.58-1.36,1.05-3.2.38-3.94-.14-.16-.39-.42-1.17-.25-2.55.56-5.13-.23-6.72-2.05-.71-.81-1.52-1.5-2.41-2.05-.85-.53-1.35-.68-1.58-.72-1.63-.32-3.09-1.13-4.11-2.28-.55-.62-1.34-1.07-2.33-1.33-2.26-.59-3.21,1.52-3.32,1.77-.34.81-1.17,1.3-2.04,1.22-1.72-.17-2.67.38-3.17,1.83-.57,1.65-1.56,3.04-2.86,4-.46.34-.74,2-.72,3.81Z"/>
  </g>
</svg>