<svg xmlns="http://www.w3.org/2000/svg" id="flatten_icons" data-name="flatten icons" viewBox="0 0 112 112"><defs><style>.cls-2,.cls-4,.cls-7{stroke-width:0}.cls-2{fill:#f47373}.cls-4{fill:#e5554e}.cls-7{fill:#004241}</style></defs><path d="M0 0h112v112H0z" style="fill:none;stroke-width:0"/><circle cx="39.68" cy="58.37" r="37.68" class="cls-4"/><path d="M71.84 38.74c.4 2.28.63 4.63.63 7.03 0 22.19-17.99 40.18-40.18 40.18-9.65 0-18.5-3.4-25.42-9.07 6.47 11.44 18.73 19.17 32.81 19.17 20.81 0 37.68-16.87 37.68-37.68 0-7.19-2.02-13.91-5.51-19.63Z" style="stroke-width:0;fill:#d14343"/><path d="M39.68 98.04C17.8 98.04 0 80.25 0 58.37s17.8-39.68 39.68-39.68 39.68 17.8 39.68 39.68-17.8 39.68-39.68 39.68Zm0-75.35C20 22.69 4 38.7 4 58.37s16 35.68 35.68 35.68 35.68-16 35.68-35.68-16.01-35.68-35.68-35.68" class="cls-7"/><path d="M13.2 38.72c.47-3.38-1.82-4.96-1.82-4.96l-6.51-5.13c-.93-.73-.39-2.22.78-2.2l6.87.13c1.37.03 2.49-1.08 2.49-2.44v-5.27c0-1.01 1.16-1.59 1.97-.98l4.24 3.18c.64.48 1.57.23 1.87-.52l2.86-6.97c.46-1.13 2.12-.96 2.35.24l2.29 11.96s1 3.27 4.06 3.27" class="cls-4"/><path d="M13.21 40.72c-.09 0-.18 0-.27-.02a2.003 2.003 0 0 1-1.71-2.25c.29-2.11-.96-3.04-.97-3.04l-.1-.07-6.51-5.13a3.22 3.22 0 0 1-1.04-3.62 3.23 3.23 0 0 1 3.04-2.15h.06l6.87.13c.15 0 .26-.07.32-.13s.13-.16.13-.32v-5.27c0-1.23.68-2.34 1.78-2.89s2.4-.43 3.38.3l3.44 2.58 2.48-6.04a3.21 3.21 0 0 1 3.31-1.99c1.43.14 2.58 1.19 2.85 2.61l2.26 11.82c.14.37.75 1.78 2.12 1.78 1.1 0 2 .9 2 2s-.9 2-2 2c-3.59 0-5.44-2.94-5.97-4.68-.02-.07-.04-.14-.05-.21l-1.8-9.42-1.88 4.57a3.22 3.22 0 0 1-2.13 1.89c-.97.27-1.99.07-2.79-.53l-3.01-2.25v3.73c0 1.2-.47 2.33-1.33 3.17s-2 1.26-3.2 1.27l-4.57-.09 4.67 3.68c1.23.88 3.09 3.26 2.6 6.84-.14 1-1 1.73-1.98 1.73" class="cls-7"/><path d="M15.48 67.01c-.88 0-1.69-.59-1.93-1.48-.1-.39-2.49-9.61 2.45-16.72.63-.91 1.88-1.13 2.78-.5.91.63 1.13 1.88.5 2.78-3.87 5.57-1.89 13.33-1.87 13.41.28 1.07-.35 2.16-1.42 2.44-.17.05-.34.07-.51.07" style="stroke-width:0;fill:#fff"/><path d="M110 61.53c0 20.81-16.87 37.68-37.68 37.68S34.64 82.34 34.64 61.53l6.72-.17c0 17.09 13.86 30.95 30.95 30.95s30.95-13.86 30.95-30.95l6.72.17Z" style="stroke-width:0;fill:#ede5b4"/><path d="M72.32 101.21c-21.88 0-39.68-17.8-39.68-39.68 0-1.08.87-1.97 1.95-2l6.72-.17c.55-.05 1.06.19 1.45.57s.6.89.6 1.43c0 15.96 12.99 28.95 28.95 28.95s28.95-12.99 28.95-28.95c0-.54.22-1.05.6-1.43.39-.38.92-.59 1.45-.57l6.72.17c1.08.03 1.95.91 1.95 2 0 21.88-17.8 39.68-39.68 39.68ZM36.7 63.48c1.02 18.77 16.61 33.73 35.62 33.73s34.61-14.96 35.62-33.73l-2.73-.07c-1.06 17.22-15.41 30.9-32.89 30.9s-31.83-13.68-32.89-30.9z" class="cls-7"/><path d="m34.65 61.53 6.72-.17c0 17.09 13.86 30.95 30.95 30.95s30.95-13.86 30.95-30.95l6.72.17" class="cls-4"/><path d="M72.32 94.32c-17.48 0-31.83-13.68-32.89-30.9l-4.74.12a2 2 0 1 1-.1-4l6.72-.17c.55-.05 1.06.19 1.45.57s.6.89.6 1.43c0 15.96 12.99 28.95 28.95 28.95s28.95-12.99 28.95-28.95c0-.54.22-1.05.6-1.43.39-.38.92-.59 1.45-.57l6.72.17a2 2 0 0 1-.05 4h-.05l-4.74-.12c-1.06 17.22-15.41 30.9-32.89 30.9Z" class="cls-7"/><circle cx="47.82" cy="64.2" r="6.45" class="cls-2"/><path d="M47.82 72.65c-4.66 0-8.45-3.79-8.45-8.45s3.79-8.45 8.45-8.45 8.45 3.79 8.45 8.45-3.79 8.45-8.45 8.45m0-12.89c-2.45 0-4.45 2-4.45 4.45s1.99 4.45 4.45 4.45 4.45-2 4.45-4.45-2-4.45-4.45-4.45" class="cls-7"/><circle cx="55.29" cy="76.64" r="6.45" class="cls-2"/><path d="M55.29 85.08c-4.66 0-8.45-3.79-8.45-8.45s3.79-8.45 8.45-8.45 8.45 3.79 8.45 8.45-3.79 8.45-8.45 8.45m0-12.89c-2.45 0-4.45 2-4.45 4.45s1.99 4.45 4.45 4.45 4.45-2 4.45-4.45-2-4.45-4.45-4.45" class="cls-7"/><circle cx="68.18" cy="64.2" r="6.45" class="cls-2"/><path d="M68.18 72.65c-4.66 0-8.45-3.79-8.45-8.45s3.79-8.45 8.45-8.45 8.45 3.79 8.45 8.45-3.79 8.45-8.45 8.45m0-12.89c-2.45 0-4.45 2-4.45 4.45s1.99 4.45 4.45 4.45 4.45-2 4.45-4.45-2-4.45-4.45-4.45" class="cls-7"/><circle cx="72.32" cy="83.08" r="6.45" class="cls-2"/><path d="M72.32 91.53c-4.66 0-8.45-3.79-8.45-8.45s3.79-8.45 8.45-8.45 8.45 3.79 8.45 8.45-3.79 8.45-8.45 8.45m0-12.89c-2.45 0-4.45 2-4.45 4.45s1.99 4.45 4.45 4.45 4.45-2 4.45-4.45-2-4.45-4.45-4.45" class="cls-7"/><circle cx="82.57" cy="67.81" r="6.45" class="cls-4"/><path d="M82.57 76.26c-4.66 0-8.45-3.79-8.45-8.45s3.79-8.45 8.45-8.45 8.45 3.79 8.45 8.45-3.79 8.45-8.45 8.45m0-12.89c-2.45 0-4.45 1.99-4.45 4.45s1.99 4.45 4.45 4.45 4.45-2 4.45-4.45-2-4.45-4.45-4.45" class="cls-7"/><circle cx="95.47" cy="64.2" r="6.45" class="cls-4"/><path d="M95.47 72.65c-4.66 0-8.45-3.79-8.45-8.45s3.79-8.45 8.45-8.45 8.45 3.79 8.45 8.45-3.79 8.45-8.45 8.45m0-12.89c-2.45 0-4.45 2-4.45 4.45s1.99 4.45 4.45 4.45 4.45-2 4.45-4.45-2-4.45-4.45-4.45" class="cls-7"/><circle cx="85.22" cy="80.29" r="6.45" class="cls-2"/><path d="M85.22 88.73c-4.66 0-8.45-3.79-8.45-8.45s3.79-8.45 8.45-8.45 8.45 3.79 8.45 8.45-3.79 8.45-8.45 8.45m0-12.89c-2.45 0-4.45 2-4.45 4.45s1.99 4.45 4.45 4.45 4.45-1.99 4.45-4.45-2-4.45-4.45-4.45" class="cls-7"/><circle cx="78.77" cy="54.92" r="6.45" class="cls-2"/><path d="M78.77 63.37c-4.66 0-8.45-3.79-8.45-8.45s3.79-8.45 8.45-8.45 8.45 3.79 8.45 8.45-3.79 8.45-8.45 8.45m0-12.89c-2.45 0-4.45 2-4.45 4.45s2 4.45 4.45 4.45 4.45-2 4.45-4.45-1.99-4.45-4.45-4.45" class="cls-7"/></svg>