<?xml version="1.0" encoding="UTF-8"?>
<svg id="flatten_icons" data-name="flatten icons" xmlns="http://www.w3.org/2000/svg" viewBox="0 0 112 112">
  <defs>
    <style>
      .cls-1 {
        fill: none;
      }

      .cls-1, .cls-2, .cls-3, .cls-4, .cls-5, .cls-6 {
        stroke-width: 0px;
      }

      .cls-2 {
        fill: #aad681;
      }

      .cls-3 {
        fill: #b74656;
      }

      .cls-4 {
        fill: #fff;
      }

      .cls-5 {
        fill: #ea5c67;
      }

      .cls-6 {
        fill: #004241;
      }
    </style>
  </defs>
  <rect class="cls-1" width="112" height="112"/>
  <g>
    <g>
      <g>
        <path class="cls-2" d="m44.6,46.36s8.44-39.7,46.45-25.96c0,0-5.28,40.18-46.45,25.96Z"/>
        <path class="cls-6" d="m60.86,51.41c-5.16,0-10.81-1.05-16.91-3.16-.95-.33-1.51-1.32-1.3-2.31.16-.76,4.12-18.68,18.56-26.7,8.51-4.73,18.78-4.97,30.53-.72.88.32,1.43,1.21,1.3,2.14-.1.73-2.51,18.04-16.06,26.41-4.68,2.89-10.06,4.34-16.12,4.34Zm-13.84-6.36c11.26,3.54,20.61,3.08,27.83-1.37,9.7-5.98,13.01-17.7,13.92-21.95-9.92-3.26-18.53-2.92-25.6.99-10.39,5.76-14.82,17.84-16.15,22.33Z"/>
      </g>
      <g>
        <ellipse class="cls-5" cx="76.76" cy="57.25" rx="16.04" ry="17.27" transform="translate(-14.25 87.03) rotate(-54.83)"/>
        <path class="cls-3" d="m60.5,51.82c.25.65.54,1.3.88,1.95,4.43,8.28,14.67,11.94,22.87,8.19,4.22-1.93,7.07-5.46,8.24-9.56,3.03,7.81-.14,16.38-7.7,19.85-8.2,3.76-18.44.09-22.87-8.19-2.15-4.02-2.52-8.38-1.42-12.23Z"/>
        <path class="cls-6" d="m78.25,75.52c-3.03,0-6.18-.65-9.13-1.95-4.49-1.97-7.8-5.2-9.09-8.85-3.53-10.05-.23-18.81,8.63-22.87,9.59-4.39,19.99-1.17,24.71,7.66,2.88,5.39,3.59,10.58,2.03,15.02-1.46,4.16-4.76,7.38-9.83,9.55-2.23.96-4.74,1.43-7.33,1.43Zm-.96-31.6c-2.28,0-4.65.51-6.96,1.57-7.01,3.21-9.39,9.74-6.52,17.91h0c.92,2.61,3.44,4.99,6.92,6.51,4.41,1.93,9.49,2.12,13.27.5,3.99-1.72,6.56-4.14,7.63-7.2,1.48-4.24-.15-8.76-1.78-11.81-2.57-4.81-7.33-7.48-12.56-7.48Z"/>
      </g>
      <g>
        <ellipse class="cls-5" cx="35.87" cy="44.18" rx="18.07" ry="16.73"/>
        <path class="cls-3" d="m18.62,39.25c.25.66.53,1.31.87,1.95,4.46,8.27,15.31,11.62,24.24,7.49,4.6-2.13,7.77-5.82,9.18-10.04,2.98,7.84-.73,16.68-8.97,20.49-8.93,4.13-19.78.77-24.24-7.49-2.16-4.01-2.41-8.43-1.08-12.4Z"/>
        <path class="cls-6" d="m36.13,62.69c-3.32,0-6.72-.68-9.79-2.04-4.31-1.91-7.34-4.87-8.52-8.35h0c-3.43-10.08.37-19.09,9.91-23.5,10.36-4.79,21.33-1.86,26.08,6.95,2.78,5.15,3.43,10.21,1.9,14.65-1.56,4.53-5.25,8.09-10.96,10.58-2.61,1.14-5.59,1.71-8.62,1.71Zm-14.53-11.68c.81,2.37,3.12,4.55,6.35,5.98,4.81,2.13,10.78,2.25,15.19.32,4.64-2.02,7.59-4.79,8.77-8.21,1.46-4.23-.09-8.56-1.64-11.44-3.72-6.9-12.51-9.09-20.88-5.22-7.75,3.58-10.59,10.35-7.8,18.58h0Z"/>
      </g>
      <g>
        <circle class="cls-5" cx="40.89" cy="76.42" r="18.07"/>
        <path class="cls-3" d="m27.83,63.95c-.09.75-.16,1.5-.16,2.27,0,9.98,8.09,18.07,18.07,18.07,5.14,0,9.77-2.15,13.06-5.6-1.12,8.91-8.7,15.8-17.91,15.8-9.98,0-18.07-8.09-18.07-18.07,0-4.84,1.92-9.23,5.02-12.47Z"/>
        <path class="cls-6" d="m40.89,96.49c-11.07,0-20.07-9-20.07-20.07s8.44-18.38,20.07-18.38,20.07,7.73,20.07,18.38-9,20.07-20.07,20.07Zm0-34.45c-9.46,0-16.07,5.91-16.07,14.38s7.21,16.07,16.07,16.07,16.07-7.21,16.07-16.07-6.61-14.38-16.07-14.38Z"/>
      </g>
    </g>
    <path class="cls-4" d="m27.52,42.55c-.28,0-.56-.06-.83-.18-1.01-.46-1.45-1.64-.99-2.65,1.13-2.5,4.52-3.85,5.19-4.1,1.04-.38,2.19.15,2.57,1.19.38,1.04-.15,2.18-1.18,2.57h0c-1.02.38-2.61,1.29-2.94,2-.33.74-1.06,1.17-1.82,1.17Z"/>
    <path class="cls-4" d="m34.22,71.6c-.42,0-.84-.13-1.21-.41-.88-.67-1.05-1.92-.39-2.8,1.66-2.19,5.26-2.76,5.97-2.85,1.1-.15,2.1.63,2.24,1.72.14,1.09-.62,2.1-1.72,2.24-1.08.15-2.83.68-3.3,1.3-.39.52-.99.79-1.6.79Z"/>
    <path class="cls-4" d="m72.13,53.48c-.42,0-.85-.13-1.21-.41-.88-.67-1.05-1.92-.39-2.8,1.66-2.18,5.26-2.76,5.96-2.85,1.09-.14,2.1.62,2.25,1.72.14,1.09-.62,2.1-1.72,2.24-1.08.15-2.83.68-3.3,1.3-.39.52-.99.79-1.6.79Z"/>
  </g>
</svg>