<?xml version="1.0" encoding="UTF-8"?>
<svg id="flatten_icons" data-name="flatten icons" xmlns="http://www.w3.org/2000/svg" viewBox="0 0 112 112">
  <defs>
    <style>
      .cls-1 {
        fill: none;
      }

      .cls-1, .cls-2, .cls-3, .cls-4 {
        stroke-width: 0px;
      }

      .cls-2 {
        fill: #aad681;
      }

      .cls-3 {
        fill: #9ec96f;
      }

      .cls-4 {
        fill: #004241;
      }
    </style>
  </defs>
  <rect class="cls-1" width="112" height="112"/>
  <g>
    <path class="cls-4" d="m46.51,17.68c-.06,0-.11,0-.17,0-1.1-.09-1.92-1.06-1.83-2.16.6-7.25-7.51-11.71-7.59-11.75-.97-.52-1.34-1.74-.81-2.71.52-.97,1.74-1.34,2.71-.81.43.23,10.5,5.77,9.68,15.6-.09,1.04-.96,1.83-1.99,1.83Z"/>
    <g>
      <path class="cls-3" d="m28.51,23.49s-5.97,7.67-5.36,17.28c.61,9.61,3.9,11.97,3.8,20.31-.11,8.91,5.1,13.16,5.94,17.22s.51,10.82,2.82,16.69c1.44,3.65,1.48,9.45,1.31,13.3-.07,1.61,1.83,2.32,2.84,1.07,1.79-2.2,5.15-4.9,6.47-12.25,2.42-13.48-.93-14.73-1.45-19.72s.24-13.53-4.27-18.5c-2.85-3.14-3.45-13.27-3.43-20.94.01-9.27-8.68-14.47-8.68-14.47Z"/>
      <path class="cls-4" d="m38.6,112c-.43,0-.86-.08-1.28-.24-1.47-.56-2.37-1.96-2.29-3.56.25-5.5-.17-9.94-1.17-12.48-1.63-4.14-2.03-8.66-2.35-12.29-.16-1.78-.31-3.46-.57-4.73-.23-1.1-.97-2.41-1.84-3.91-1.78-3.12-4.23-7.39-4.15-13.74.05-3.97-.73-6.45-1.62-9.31-.87-2.79-1.86-5.95-2.17-10.85-.65-10.25,5.52-18.3,5.78-18.63.62-.8,1.74-1.01,2.61-.49.39.24,9.66,5.9,9.65,16.19-.02,10.24,1.07,17.57,2.91,19.59,4.06,4.47,4.35,11.27,4.57,16.23.05,1.25.11,2.42.21,3.4.13,1.23.47,2.22.86,3.37,1.05,3.05,2.37,6.86.56,16.91-1.21,6.77-4.11,10.01-6.02,12.16-.32.35-.61.68-.87,1-.73.89-1.75,1.38-2.82,1.38ZM29.02,26.33c-1.57,2.6-4.27,8.06-3.88,14.31.28,4.42,1.15,7.21,2,9.91.96,3.06,1.86,5.94,1.81,10.55-.06,5.26,1.89,8.68,3.62,11.7.99,1.73,1.92,3.36,2.28,5.09.31,1.5.47,3.29.64,5.19.31,3.55.67,7.58,2.09,11.18,1.41,3.57,1.61,8.82,1.49,12.97.08-.09.15-.17.23-.26,1.81-2.03,4.05-4.55,5.07-10.2,1.62-9.03.54-12.15-.41-14.9-.44-1.26-.89-2.57-1.06-4.26-.11-1.1-.17-2.33-.23-3.64-.2-4.6-.45-10.32-3.54-13.72-2.64-2.91-3.97-10.41-3.95-22.29,0-5.76-3.91-9.79-6.16-11.63Z"/>
    </g>
    <g>
      <path class="cls-2" d="m46.55,15.77s-3.91,7.71,0,15.98,9.97,9.92,11.63,17.63,9.37,9.92,11.57,13.22,4.24,9.37,8.46,13.77,2.49,14.88,2.49,14.88c0,0,8.21-3.59,8.21-16.48s-6-12.67-8.22-16.89-6.89-12.67-10.45-14.89-7.02-8.81-9.68-15.57c-3.21-8.17-14.01-11.65-14.01-11.65Z"/>
      <path class="cls-4" d="m80.69,93.24c-.44,0-.87-.14-1.23-.42-.58-.45-.87-1.18-.75-1.9.43-2.64.92-10.16-1.96-13.17-2.98-3.12-4.94-6.98-6.51-10.08-.76-1.51-1.48-2.93-2.17-3.96-.55-.82-1.83-1.75-3.2-2.73-3.13-2.25-7.41-5.33-8.66-11.18-.79-3.69-2.7-5.75-5.12-8.36-2.09-2.26-4.46-4.81-6.36-8.83-4.28-9.05-.15-17.39.02-17.74.45-.88,1.46-1.3,2.4-1,.48.15,11.73,3.87,15.25,12.82,3.01,7.64,6.24,12.96,8.87,14.61,2.92,1.83,6.57,6.95,11.16,15.65.48.92,1.27,1.6,2.26,2.46,2.61,2.27,6.19,5.38,6.19,15.36,0,14.04-9.02,18.14-9.41,18.31-.26.11-.53.17-.8.17ZM47.69,18.36c-.79,2.5-1.74,7.44.67,12.52,1.64,3.46,3.69,5.68,5.68,7.82,2.5,2.7,5.08,5.48,6.1,10.24.93,4.34,4.2,6.7,7.09,8.78,1.67,1.2,3.24,2.33,4.19,3.76.82,1.23,1.59,2.75,2.41,4.37,1.53,3.02,3.26,6.44,5.83,9.13,2.9,3.03,3.46,8.08,3.41,11.84,1.86-2.17,3.84-5.92,3.84-12.05,0-8.16-2.45-10.28-4.82-12.34-1.15-1-2.34-2.04-3.18-3.62-5.49-10.43-8.45-13.33-9.73-14.12-3.49-2.18-7.02-7.75-10.48-16.54-2.09-5.31-8.02-8.48-11-9.78Z"/>
    </g>
    <path class="cls-4" d="m28.51,25.49c-.08,0-.15,0-.23-.01-1.1-.13-1.88-1.12-1.76-2.21h0c.01-.1.95-9.78-3.92-11.04-1.07-.28-1.71-1.37-1.44-2.44.28-1.07,1.37-1.71,2.44-1.44,8.31,2.14,6.95,14.82,6.89,15.36-.12,1.02-.98,1.77-1.98,1.77Z"/>
    <path class="cls-4" d="m30.68,57.49c-.14,0-.27-.01-.41-.04-3.73-.78-6.21-4.16-6.48-4.54-.64-.9-.42-2.15.48-2.79.9-.64,2.15-.42,2.78.47.49.69,2.18,2.55,4.04,2.94,1.08.23,1.77,1.29,1.55,2.37-.2.94-1.03,1.59-1.96,1.59Z"/>
    <path class="cls-4" d="m37.07,82.64c-3.1,0-5.12-2.92-5.83-4.69-.41-1.02.08-2.19,1.11-2.6,1.02-.42,2.18.08,2.6,1.1.29.71,1.24,2.26,2.17,2.19,1.11-.04,2.04.8,2.09,1.9.05,1.1-.8,2.04-1.9,2.09-.08,0-.16,0-.24,0Z"/>
    <g>
      <path class="cls-2" d="m68.95,61.65s3.87,1.05,5.43.49"/>
      <path class="cls-4" d="m73.11,64.3c-1.85,0-3.92-.51-4.68-.72-1.07-.29-1.7-1.39-1.41-2.45.29-1.07,1.39-1.7,2.45-1.41,1.68.45,3.7.71,4.24.53,1.04-.33,2.18.22,2.53,1.25.35,1.03-.16,2.15-1.19,2.51-.56.2-1.23.27-1.95.27Z"/>
    </g>
    <g>
      <path class="cls-2" d="m68.95,42s-3.39-.71-4.51,0"/>
      <path class="cls-4" d="m64.44,44c-.66,0-1.31-.33-1.69-.93-.59-.93-.32-2.17.62-2.76,1.57-1,4.43-.6,5.99-.27,1.08.23,1.77,1.29,1.55,2.37-.23,1.08-1.28,1.77-2.36,1.55-1.19-.25-2.65-.35-3.11-.22-.31.18-.65.26-.99.26Zm.96-.25h0Zm.11-.06s0,0,0,0c0,0,0,0,0,0Z"/>
    </g>
  </g>
</svg>