<?xml version="1.0" encoding="UTF-8"?>
<svg id="flatten_icons" xmlns="http://www.w3.org/2000/svg" viewBox="0 0 112 112">
  <defs>
    <style>
      .cls-1 {
        fill: none;
      }

      .cls-2 {
        fill: #c9655d;
      }

      .cls-3 {
        fill: #b75853;
      }

      .cls-4 {
        fill: #af5c58;
      }

      .cls-5 {
        fill: #c4524d;
      }

      .cls-6 {
        fill: #004241;
      }
    </style>
  </defs>
  <g id="haricotsrouges">
    <rect class="cls-1" width="112" height="112"/>
    <g>
      <g>
        <path class="cls-2" d="M44.18,50.32s-1.27,12.58,9.97,16.41"/>
        <path class="cls-6" d="M54.15,68.72c-.21,0-.43-.04-.65-.11-10.08-3.43-11.81-13.6-11.31-18.5.11-1.1,1.09-1.9,2.19-1.79,1.1.11,1.9,1.09,1.79,2.19-.04.46-.93,11.06,8.62,14.32,1.05.36,1.6,1.49,1.25,2.54-.28.83-1.06,1.36-1.89,1.36Z"/>
      </g>
      <g>
        <path class="cls-2" d="M54.15,74.88c-.87,0-1.76-.14-2.63-.44-13.74-4.68-16.12-18.37-15.45-24.95.45-4.48,4.46-7.76,8.94-7.29,4.45.45,7.7,4.4,7.3,8.85-.08,1.08-.2,6.36,4.47,7.96,4.27,1.45,6.54,6.09,5.09,10.35-1.16,3.39-4.33,5.53-7.72,5.53Z"/>
        <path class="cls-6" d="M54.15,76.88h0c-1.11,0-2.21-.18-3.28-.55-14.94-5.09-17.52-19.92-16.8-27.04.27-2.71,1.59-5.14,3.7-6.86,2.1-1.71,4.75-2.5,7.44-2.22,5.51.56,9.59,5.5,9.09,11.01-.08,1.07-.08,4.79,3.12,5.88,5.3,1.81,8.15,7.59,6.34,12.89-1.4,4.12-5.27,6.88-9.61,6.89ZM44.16,44.16c-1.4,0-2.75.48-3.86,1.38-1.28,1.04-2.08,2.52-2.24,4.16-.61,6.04,1.55,18.58,14.11,22.86.65.22,1.32.33,1.98.33,2.64,0,4.98-1.68,5.83-4.18,1.09-3.21-.63-6.72-3.84-7.81-4.7-1.6-6.09-6.21-5.82-9.99.31-3.38-2.17-6.38-5.51-6.71-.22-.02-.43-.03-.64-.03Z"/>
      </g>
    </g>
    <g>
      <g>
        <path class="cls-4" d="M83.05,83.71s10.4-8.12,5.18-19.36"/>
        <path class="cls-6" d="M83.05,85.71c-.59,0-1.18-.26-1.58-.77-.68-.87-.53-2.12.34-2.8h0c.37-.29,9.07-7.32,4.6-16.94-.47-1-.03-2.19.97-2.66,1-.47,2.19-.03,2.66.97,4.66,10.03-1.73,18.63-5.76,21.78-.37.29-.8.42-1.23.42Z"/>
      </g>
      <g>
        <path class="cls-4" d="M94.38,58.46c.63.66,1.16,1.43,1.57,2.3,6.39,13.74-2.22,25.41-7.66,29.66-3.71,2.89-9.07,2.24-11.95-1.47-2.87-3.68-2.24-8.99,1.4-11.89.87-.73,4.94-4.44,2.77-9.11-1.98-4.27-.13-9.33,4.13-11.31,3.39-1.58,7.29-.73,9.74,1.83Z"/>
        <path class="cls-6" d="M83.07,94.23c-.44,0-.88-.03-1.32-.08-2.79-.35-5.27-1.76-6.98-3.97-3.53-4.52-2.75-11.11,1.73-14.68.88-.73,3.72-3.44,2.21-6.71-1.18-2.55-1.31-5.4-.34-8.04.96-2.64,2.9-4.74,5.44-5.93,4.08-1.9,8.92-.99,12.03,2.26t0,0c.8.83,1.45,1.79,1.94,2.84,6.92,14.88-2.37,27.49-8.24,32.08-1.87,1.46-4.12,2.23-6.45,2.23ZM88.23,57.83c-.93,0-1.87.2-2.75.61-1.58.73-2.78,2.04-3.37,3.67-.6,1.63-.52,3.4.21,4.98,2.17,4.66-.29,8.99-3.31,11.5-2.81,2.24-3.29,6.32-1.1,9.12,1.06,1.37,2.6,2.24,4.32,2.46,1.73.22,3.45-.26,4.82-1.33,5.01-3.91,12.94-14.64,7.08-27.24-.31-.66-.71-1.25-1.2-1.76-1.26-1.31-2.97-2.01-4.71-2.01Z"/>
      </g>
    </g>
    <g>
      <g>
        <path class="cls-3" d="M34.67,94.7s-.7-12.04-11.86-13.95"/>
        <path class="cls-6" d="M34.66,96.7c-1.05,0-1.93-.82-1.99-1.88-.03-.45-.79-10.49-10.2-12.1-1.09-.19-1.82-1.22-1.63-2.31.19-1.09,1.22-1.82,2.31-1.63,10.07,1.72,13.25,11.09,13.52,15.8.06,1.1-.78,2.05-1.88,2.11-.04,0-.08,0-.12,0Z"/>
      </g>
      <g>
        <path class="cls-3" d="M21.57,73.07c.82-.13,1.68-.13,2.54.02,13.65,2.34,17.95,14.87,18.31,21.17.25,4.29-3.03,7.98-7.32,8.22-4.26.25-7.92-2.98-8.21-7.23-.09-1.03-.77-6.02-5.41-6.82-4.24-.72-7.08-4.75-6.36-8.98.58-3.37,3.24-5.86,6.44-6.37Z"/>
        <path class="cls-6" d="M34.66,104.48c-5.08,0-9.39-3.97-9.75-9.1-.09-1-.63-4.45-3.75-4.98-2.58-.44-4.83-1.86-6.33-3.99-1.51-2.13-2.1-4.73-1.66-7.3.71-4.13,3.96-7.35,8.09-8.01h0c1.06-.17,2.13-.16,3.2.02,14.89,2.55,19.58,16.17,19.97,23.02.15,2.62-.73,5.13-2.47,7.09-1.74,1.95-4.13,3.1-6.73,3.24-.19.01-.38.02-.57.02ZM21.89,75.04h0c-2.44.39-4.37,2.3-4.78,4.74-.26,1.52.09,3.05.98,4.31.89,1.26,2.22,2.1,3.74,2.36,4.72.81,6.74,4.98,7.07,8.61.22,3.18,2.95,5.59,6.1,5.41,1.54-.08,2.95-.76,3.97-1.91,1.03-1.16,1.55-2.64,1.46-4.19-.33-5.75-4.24-17.19-16.66-19.31-.63-.11-1.27-.11-1.89-.01Z"/>
      </g>
    </g>
    <g>
      <g>
        <path class="cls-5" d="M69.46,34.46s11.48,6.5,19.86-2.62"/>
        <path class="cls-6" d="M78.27,38.69c-4,0-7.61-1.26-9.8-2.5-.96-.54-1.3-1.76-.75-2.73.54-.96,1.76-1.3,2.72-.76h0c.41.23,10.23,5.58,17.41-2.23.75-.81,2.01-.87,2.83-.12.81.75.87,2.01.12,2.83-3.81,4.15-8.38,5.51-12.53,5.51Z"/>
      </g>
      <g>
        <path class="cls-5" d="M97.12,35.26c-.37.83-.87,1.62-1.53,2.33-10.25,11.16-24.32,7.68-30.33,4.27-4.09-2.32-5.54-7.53-3.21-11.61,2.3-4.06,7.44-5.51,11.52-3.26,1,.53,6,2.87,9.48-.93,3.18-3.46,8.57-3.69,12.03-.51,2.76,2.53,3.46,6.46,2.04,9.7Z"/>
        <path class="cls-6" d="M78.42,47.19c-5.79,0-10.99-1.8-14.14-3.59-2.45-1.39-4.21-3.65-4.96-6.36-.75-2.71-.39-5.54,1-7.97,2.82-4.99,9.21-6.79,14.23-4.02,1.01.53,4.61,2.12,7.04-.53,1.9-2.07,4.49-3.27,7.3-3.39,2.81-.11,5.49.86,7.56,2.76,3.32,3.04,4.33,7.86,2.52,11.98h0c-.46,1.05-1.1,2.02-1.88,2.88-5.71,6.22-12.51,8.25-18.65,8.25ZM69.47,27.95c-2.28,0-4.49,1.19-5.68,3.29-.86,1.51-1.08,3.26-.62,4.93.46,1.68,1.56,3.08,3.07,3.95,5.53,3.13,18.47,6.35,27.88-3.88.49-.53.88-1.13,1.17-1.78h0c1.12-2.55.5-5.54-1.56-7.42-1.28-1.18-2.94-1.78-4.68-1.71-1.74.07-3.34.82-4.52,2.1-3.47,3.78-8.42,3.17-11.89,1.34-1.01-.56-2.09-.82-3.17-.82ZM97.12,35.26h0,0Z"/>
      </g>
    </g>
    <g>
      <g>
        <path class="cls-2" d="M47.76,17.71s-11.96-2.75-17.01,7.6"/>
        <path class="cls-6" d="M30.75,27.32c-.29,0-.59-.06-.88-.2-.99-.48-1.41-1.68-.92-2.67,4.54-9.32,14.58-9.75,19.25-8.68,1.08.25,1.75,1.32,1.5,2.4-.25,1.08-1.32,1.74-2.39,1.5-.45-.1-10.49-2.23-14.76,6.53-.35.71-1.06,1.12-1.8,1.12Z"/>
      </g>
      <g>
        <path class="cls-2" d="M22.9,24.33c.11-.84.35-1.68.74-2.48,6.18-12.67,19.64-13.29,25.9-11.85,4.26.98,6.93,5.24,5.94,9.49-.97,4.23-5.17,6.88-9.4,5.96-1.04-.21-6.1-.96-8.2,3.34-1.92,3.93-6.66,5.56-10.59,3.65-3.13-1.52-4.8-4.84-4.39-8.11Z"/>
        <path class="cls-6" d="M30.75,35.24c-1.49,0-2.96-.34-4.34-1.01-3.82-1.86-6.02-5.94-5.5-10.15h0c.14-1.08.45-2.12.93-3.11,6.73-13.8,21.35-14.48,28.14-12.92,2.59.6,4.79,2.17,6.19,4.42,1.4,2.25,1.84,4.9,1.24,7.47-1.21,5.27-6.5,8.61-11.78,7.46-1.01-.2-4.55-.65-5.98,2.26-1.16,2.38-3.18,4.17-5.68,5.03-1.06.36-2.15.54-3.24.54ZM24.88,24.57h0c-.32,2.51,1,4.95,3.28,6.06,1.42.69,3.03.79,4.52.28,1.49-.51,2.7-1.58,3.39-3,2.13-4.36,6.76-5.14,10.39-4.43,3.19.69,6.34-1.3,7.07-4.44.36-1.54.09-3.12-.74-4.46-.84-1.35-2.15-2.28-3.7-2.64-5.72-1.32-18.03-.76-23.65,10.78-.29.59-.47,1.21-.56,1.85Z"/>
      </g>
    </g>
  </g>
</svg>