<svg xmlns="http://www.w3.org/2000/svg" id="flatten_icons" viewBox="0 0 112 112"><defs><style>.cls-2{fill:#c9655d}.cls-3{fill:#b75853}.cls-4{fill:#af5c58}.cls-5{fill:#c4524d}.cls-6{fill:#004241}</style></defs><g id="haricotsrouges"><path d="M0 0h112v112H0z" style="fill:none"/><path d="M44.18 50.32s-1.27 12.58 9.97 16.41" class="cls-2"/><path d="M54.15 68.72c-.21 0-.43-.04-.65-.11-10.08-3.43-11.81-13.6-11.31-18.5a1.999 1.999 0 1 1 3.98.4c-.04.46-.93 11.06 8.62 14.32a2.004 2.004 0 0 1-.64 3.9Z" class="cls-6"/><path d="M54.15 74.88c-.87 0-1.76-.14-2.63-.44-13.74-4.68-16.12-18.37-15.45-24.95.45-4.48 4.46-7.76 8.94-7.29 4.45.45 7.7 4.4 7.3 8.85-.08 1.08-.2 6.36 4.47 7.96 4.27 1.45 6.54 6.09 5.09 10.35a8.17 8.17 0 0 1-7.72 5.53Z" class="cls-2"/><path d="M54.15 76.88c-1.11 0-2.21-.18-3.28-.55-14.94-5.09-17.52-19.92-16.8-27.04.27-2.71 1.59-5.14 3.7-6.86 2.1-1.71 4.75-2.5 7.44-2.22 5.51.56 9.59 5.5 9.09 11.01-.08 1.07-.08 4.79 3.12 5.88 5.3 1.81 8.15 7.59 6.34 12.89a10.17 10.17 0 0 1-9.61 6.89m-9.99-32.72c-1.4 0-2.75.48-3.86 1.38a6.1 6.1 0 0 0-2.24 4.16c-.61 6.04 1.55 18.58 14.11 22.86.65.22 1.32.33 1.98.33 2.64 0 4.98-1.68 5.83-4.18 1.09-3.21-.63-6.72-3.84-7.81-4.7-1.6-6.09-6.21-5.82-9.99.31-3.38-2.17-6.38-5.51-6.71-.22-.02-.43-.03-.64-.03Z" class="cls-6"/><path d="M83.05 83.71s10.4-8.12 5.18-19.36" class="cls-4"/><path d="M83.05 85.71c-.59 0-1.18-.26-1.58-.77-.68-.87-.53-2.12.34-2.8.37-.29 9.07-7.32 4.6-16.94a2.003 2.003 0 0 1 3.63-1.69c4.66 10.03-1.73 18.63-5.76 21.78-.37.29-.8.42-1.23.42" class="cls-6"/><path d="M94.38 58.46c.63.66 1.16 1.43 1.57 2.3 6.39 13.74-2.22 25.41-7.66 29.66-3.71 2.89-9.07 2.24-11.95-1.47-2.87-3.68-2.24-8.99 1.4-11.89.87-.73 4.94-4.44 2.77-9.11-1.98-4.27-.13-9.33 4.13-11.31 3.39-1.58 7.29-.73 9.74 1.83Z" class="cls-4"/><path d="M83.07 94.23c-.44 0-.88-.03-1.32-.08-2.79-.35-5.27-1.76-6.98-3.97-3.53-4.52-2.75-11.11 1.73-14.68.88-.73 3.72-3.44 2.21-6.71-1.18-2.55-1.31-5.4-.34-8.04.96-2.64 2.9-4.74 5.44-5.93a10.513 10.513 0 0 1 13.97 5.1C104.7 74.8 95.41 87.41 89.54 92a10.43 10.43 0 0 1-6.45 2.23Zm5.16-36.4c-.93 0-1.87.2-2.75.61a6.44 6.44 0 0 0-3.37 3.67c-.6 1.63-.52 3.4.21 4.98 2.17 4.66-.29 8.99-3.31 11.5-2.81 2.24-3.29 6.32-1.1 9.12a6.46 6.46 0 0 0 4.32 2.46c1.73.22 3.45-.26 4.82-1.33 5.01-3.91 12.94-14.64 7.08-27.24-.31-.66-.71-1.25-1.2-1.76a6.54 6.54 0 0 0-4.71-2.01Z" class="cls-6"/><path d="M34.67 94.7s-.7-12.04-11.86-13.95" class="cls-3"/><path d="M34.66 96.7c-1.05 0-1.93-.82-1.99-1.88-.03-.45-.79-10.49-10.2-12.1a1.996 1.996 0 0 1-1.63-2.31 1.996 1.996 0 0 1 2.31-1.63c10.07 1.72 13.25 11.09 13.52 15.8a2 2 0 0 1-1.88 2.11h-.12Z" class="cls-6"/><path d="M21.57 73.07c.82-.13 1.68-.13 2.54.02 13.65 2.34 17.95 14.87 18.31 21.17.25 4.29-3.03 7.98-7.32 8.22a7.773 7.773 0 0 1-8.21-7.23c-.09-1.03-.77-6.02-5.41-6.82-4.24-.72-7.08-4.75-6.36-8.98a7.78 7.78 0 0 1 6.44-6.37Z" class="cls-3"/><path d="M34.66 104.48c-5.08 0-9.39-3.97-9.75-9.1-.09-1-.63-4.45-3.75-4.98a9.68 9.68 0 0 1-6.33-3.99 9.72 9.72 0 0 1-1.66-7.3 9.78 9.78 0 0 1 8.09-8.01 9.8 9.8 0 0 1 3.2.02c14.89 2.55 19.58 16.17 19.97 23.02.15 2.62-.73 5.13-2.47 7.09a9.66 9.66 0 0 1-6.73 3.24c-.19.01-.38.02-.57.02ZM21.89 75.04c-2.44.39-4.37 2.3-4.78 4.74-.26 1.52.09 3.05.98 4.31s2.22 2.1 3.74 2.36c4.72.81 6.74 4.98 7.07 8.61.22 3.18 2.95 5.59 6.1 5.41 1.54-.08 2.95-.76 3.97-1.91a5.76 5.76 0 0 0 1.46-4.19c-.33-5.75-4.24-17.19-16.66-19.31a5.7 5.7 0 0 0-1.89-.01Z" class="cls-6"/><path d="M69.46 34.46s11.48 6.5 19.86-2.62" class="cls-5"/><path d="M78.27 38.69c-4 0-7.61-1.26-9.8-2.5-.96-.54-1.3-1.76-.75-2.73.54-.96 1.76-1.3 2.72-.76.41.23 10.23 5.58 17.41-2.23.75-.81 2.01-.87 2.83-.12.81.75.87 2.01.12 2.83-3.81 4.15-8.38 5.51-12.53 5.51" class="cls-6"/><path d="M97.12 35.26c-.37.83-.87 1.62-1.53 2.33-10.25 11.16-24.32 7.68-30.33 4.27-4.09-2.32-5.54-7.53-3.21-11.61a8.517 8.517 0 0 1 11.52-3.26c1 .53 6 2.87 9.48-.93 3.18-3.46 8.57-3.69 12.03-.51 2.76 2.53 3.46 6.46 2.04 9.7Z" class="cls-5"/><path d="M78.42 47.19c-5.79 0-10.99-1.8-14.14-3.59a10.48 10.48 0 0 1-4.96-6.36 10.37 10.37 0 0 1 1-7.97c2.82-4.99 9.21-6.79 14.23-4.02 1.01.53 4.61 2.12 7.04-.53 1.9-2.07 4.49-3.27 7.3-3.39 2.81-.11 5.49.86 7.56 2.76a10.51 10.51 0 0 1 .64 14.86c-5.71 6.22-12.51 8.25-18.65 8.25Zm-8.95-19.24c-2.28 0-4.49 1.19-5.68 3.29a6.44 6.44 0 0 0-.62 4.93 6.54 6.54 0 0 0 3.07 3.95c5.53 3.13 18.47 6.35 27.88-3.88.49-.53.88-1.13 1.17-1.78 1.12-2.55.5-5.54-1.56-7.42a6.46 6.46 0 0 0-4.68-1.71 6.46 6.46 0 0 0-4.52 2.1c-3.47 3.78-8.42 3.17-11.89 1.34a6.5 6.5 0 0 0-3.17-.82m27.65 7.31" class="cls-6"/><path d="M47.76 17.71s-11.96-2.75-17.01 7.6" class="cls-2"/><path d="M30.75 27.32a1.992 1.992 0 0 1-1.8-2.87c4.54-9.32 14.58-9.75 19.25-8.68a2 2 0 0 1-.89 3.9c-.45-.1-10.49-2.23-14.76 6.53-.35.71-1.06 1.12-1.8 1.12" class="cls-6"/><path d="M22.9 24.33c.11-.84.35-1.68.74-2.48C29.82 9.18 43.28 8.56 49.54 10c4.26.98 6.93 5.24 5.94 9.49-.97 4.23-5.17 6.88-9.4 5.96-1.04-.21-6.1-.96-8.2 3.34a7.93 7.93 0 0 1-10.59 3.65c-3.13-1.52-4.8-4.84-4.39-8.11" class="cls-2"/><path d="M30.75 35.24c-1.49 0-2.96-.34-4.34-1.01a9.93 9.93 0 0 1-5.5-10.15c.14-1.08.45-2.12.93-3.11C28.57 7.17 43.19 6.49 49.98 8.05a9.86 9.86 0 0 1 6.19 4.42c1.4 2.25 1.84 4.9 1.24 7.47-1.21 5.27-6.5 8.61-11.78 7.46-1.01-.2-4.55-.65-5.98 2.26a9.85 9.85 0 0 1-5.68 5.03c-1.06.36-2.15.54-3.24.54Zm-5.87-10.67c-.32 2.51 1 4.95 3.28 6.06 1.42.69 3.03.79 4.52.28s2.7-1.58 3.39-3c2.13-4.36 6.76-5.14 10.39-4.43 3.19.69 6.34-1.3 7.07-4.44.36-1.54.09-3.12-.74-4.46a5.88 5.88 0 0 0-3.7-2.64c-5.72-1.32-18.03-.76-23.65 10.78-.29.59-.47 1.21-.56 1.85" class="cls-6"/></g></svg>