<svg xmlns="http://www.w3.org/2000/svg" id="outline_icons" data-name="outline icons" viewBox="0 0 112 112"><defs><style>.cls-12,.cls-3,.cls-4,.cls-5,.cls-8,.cls-9{stroke-width:0}.cls-3{fill:#6f5472}.cls-4{fill:#827773}.cls-5{fill:#98d2e2}.cls-8{fill:#fff}.cls-9{fill:#ef706b}.cls-12{fill:#004241}</style></defs><path d="M53.4 15.78h3.27c24.98 0 45.26 20.28 45.26 45.26v44.99c0 1.22-.99 2.21-2.21 2.21H10.34a2.21 2.21 0 0 1-2.21-2.21V61.04c0-24.98 20.28-45.26 45.26-45.26Z" style="stroke-width:0;fill:#f2eacc"/><path d="M55.82 106.46H38.86l-8.18-14.98 22.57-23.01 23.6 21.23-9.21 16.76z" style="stroke-width:0;fill:#e8e7df"/><path d="M67.64 108.46H38.85c-.73 0-1.4-.4-1.76-1.04l-8.18-14.98a2 2 0 0 1 .33-2.36L51.8 67.07c.75-.76 1.97-.8 2.77-.09l23.6 21.23c.69.62.86 1.64.42 2.45l-9.2 16.76c-.35.64-1.02 1.04-1.75 1.04m-27.6-4h26.42l7.87-14.33-21-18.89-20.19 20.58z" class="cls-12"/><path d="M62.64 106.46H47.13l2.22-13.41h11.07z" class="cls-9"/><path d="M62.64 108.46H47.13c-.59 0-1.15-.26-1.53-.71s-.54-1.04-.45-1.62l2.22-13.4c.16-.96.99-1.67 1.97-1.67H60.4c.98 0 1.81.71 1.97 1.67l2.22 13.4c.1.58-.07 1.17-.45 1.62s-.94.71-1.53.71Zm-13.15-4h10.79l-1.56-9.4h-7.67z" class="cls-12"/><path d="m78.1 84.26-19.7 22.2H100s-2.43-14.25-21.9-22.2" class="cls-3"/><path d="M100 108.46H58.4c-.79 0-1.5-.46-1.82-1.18s-.19-1.56.33-2.15l19.7-22.2c.56-.63 1.47-.84 2.25-.52 20.27 8.27 23.01 23.09 23.12 23.71.1.58-.06 1.18-.44 1.63s-.94.71-1.53.71Zm-37.15-4h34.48c-1.51-3.99-6.02-12.21-18.69-17.79z" class="cls-12"/><path d="m31.78 84.26 19.7 22.2H9.88s2.43-14.25 21.9-22.2" class="cls-3"/><path d="M51.48 108.46H9.88a1.994 1.994 0 0 1-1.97-2.34c.11-.63 2.84-15.44 23.12-23.71.79-.32 1.69-.11 2.25.52l19.7 22.2c.52.59.65 1.43.33 2.15s-1.04 1.18-1.82 1.18Zm-38.93-4h34.48L31.24 86.67c-12.67 5.58-17.18 13.79-18.69 17.79" class="cls-12"/><path d="M33.17 106.46s-14.32-5.69-15.22-13.4S22.5 79.77 33.48 80.1c0 0-1.55 3.4.54 6.68s17.46 19.68 17.46 19.68z" class="cls-4"/><path d="M51.48 108.46H33.17c-.25 0-.5-.05-.74-.14-.15-.06-3.81-1.52-7.62-3.99-5.43-3.51-8.4-7.22-8.85-11.04-.48-4.06.58-7.63 3.05-10.33 3.1-3.38 8.13-5.05 14.53-4.86.67.02 1.28.37 1.64.94.35.57.4 1.28.12 1.89-.04.08-1.05 2.49.4 4.78 1.63 2.56 12.99 14.86 17.24 19.38a2 2 0 0 1-1.46 3.37m-17.92-4h13.32c-4.7-5.07-12.96-14.1-14.55-16.6-1.31-2.05-1.5-4.13-1.36-5.73-4.01.24-7.09 1.45-9.01 3.53-1.66 1.81-2.36 4.29-2.03 7.16.61 5.18 9.73 10.02 13.63 11.64" class="cls-12"/><path d="M38.08 75.83c-10.37 10.77-3.41 17.85-3.41 17.85l11.74-7.67 7.66-6.43z" class="cls-8"/><path d="M34.67 95.68c-.52 0-1.04-.2-1.43-.6-2.88-2.93-5.88-11.01 3.39-20.64.49-.51 1.21-.72 1.9-.56l15.99 3.75a1.998 1.998 0 0 1 .83 3.48l-7.66 6.44c-.06.05-.13.1-.19.14l-11.74 7.67c-.33.22-.72.33-1.09.33Zm4.08-17.64c-5.57 6.24-4.6 10.77-3.54 12.9l10-6.53 4.51-3.79-10.97-2.57Z" class="cls-12"/><rect width="14.94" height="10.92" x="47.42" y="82.13" class="cls-9" rx="4.72" ry="4.72"/><path d="M57.63 95.05h-5.49c-3.71 0-6.72-3.02-6.72-6.72v-1.47c0-3.71 3.02-6.72 6.72-6.72h5.49c3.71 0 6.72 3.02 6.72 6.72v1.47c0 3.71-3.02 6.72-6.72 6.72m-5.49-10.92c-1.5 0-2.72 1.22-2.72 2.72v1.47c0 1.5 1.22 2.72 2.72 2.72h5.49c1.5 0 2.72-1.22 2.72-2.72v-1.47c0-1.5-1.22-2.72-2.72-2.72z" class="cls-12"/><path d="M76.43 106.46s14.32-5.69 15.22-13.4S87.1 79.77 76.12 80.1c0 0 1.55 3.4-.54 6.68s-17.46 19.68-17.46 19.68z" class="cls-4"/><path d="M76.43 108.46H58.12c-.8 0-1.52-.47-1.84-1.21s-.17-1.58.38-2.16c4.24-4.52 15.6-16.82 17.24-19.38 1.46-2.29.44-4.7.4-4.8a2.05 2.05 0 0 1 .14-1.88c.35-.56.96-.92 1.62-.94 6.41-.2 11.43 1.48 14.53 4.86 2.47 2.69 3.53 6.27 3.05 10.33-.45 3.82-3.43 7.54-8.85 11.04-3.81 2.46-7.47 3.93-7.62 3.99-.23.09-.49.14-.74.14Zm-13.71-4h13.32c3.9-1.62 13.02-6.45 13.63-11.64.34-2.87-.36-5.35-2.03-7.16-1.91-2.09-5-3.29-9.01-3.53.14 1.6-.06 3.68-1.36 5.73-1.6 2.51-9.85 11.53-14.55 16.6" class="cls-12"/><path id="area" d="M0 0h112v112H0z" style="fill:none;stroke-width:0"/><path d="M71.81 75.83c13.21 12.05 1.53 17.85 1.53 17.85l-9.86-7.67-7.66-6.43z" class="cls-8"/><path d="M73.33 95.68c-.44 0-.87-.14-1.23-.42l-9.86-7.67-7.71-6.48c-.58-.49-.83-1.26-.66-2 .18-.74.75-1.31 1.49-1.48l15.99-3.75c.64-.15 1.32.02 1.8.47 5.14 4.69 7.45 9.19 6.86 13.39-.72 5.16-5.58 7.63-5.79 7.73-.28.14-.59.21-.89.21M60.16 80.61l4.6 3.87 8.68 6.75c.98-.75 2.35-2.13 2.61-4.08.35-2.58-1.32-5.73-4.84-9.13l-11.06 2.59Z" class="cls-12"/><path d="M80.1 44.73c-.76.15-1.45.31-2.07.47-.92-13.46-5.31-24.45-22.85-24.45-26.78 0-21.92 10.98-22.84 24.41-.51-.14-1.05-.28-1.65-.43-6.01-1.47-5.68 5.36-4.61 10.17.73 3.3 2.16 4.99 4.55 6.01 1.5.64 2.56 2.03 2.96 3.61 2.66 10.41 9.18 17.62 21.59 17.62S74.06 75 76.74 64.67c.43-1.64 1.57-3.07 3.16-3.66 2.55-.93 4.05-3.69 4.81-7.11 1.07-4.81.58-10.22-4.61-9.17" style="stroke-width:0;fill:#f2c8bd"/><path d="M55.19 84.13c-12.2 0-20.34-6.61-23.53-19.12-.27-1.04-.94-1.89-1.81-2.26-3.11-1.33-4.87-3.62-5.71-7.41s-1.3-8.84 1.29-11.37c.89-.87 2.46-1.76 5.04-1.33.03-1.18.03-2.35.04-3.49.03-10.49.05-20.4 24.69-20.4 19.27 0 23.54 13.07 24.65 23.99 2.81-.53 4.5.47 5.43 1.42 2.6 2.65 2 7.51 1.4 10.17-1.26 5.69-4 7.79-6.08 8.55-.9.33-1.63 1.2-1.91 2.28-3.22 12.41-11.34 18.97-23.49 18.97ZM29.17 46.52c-.43 0-.74.1-.95.3-.77.75-1.12 3.41-.18 7.64.65 2.91 1.77 3.92 3.38 4.61 2 .86 3.54 2.71 4.11 4.95 2.73 10.69 9.34 16.11 19.66 16.11s16.87-5.37 19.62-15.97c.61-2.36 2.26-4.25 4.41-5.03 2.06-.75 3.06-3.49 3.54-5.66.77-3.46.38-5.76-.35-6.5-.13-.14-.54-.55-1.91-.27-.72.15-1.37.29-1.96.45-.58.15-1.19.04-1.68-.31-.48-.35-.79-.89-.83-1.49-1.09-16.04-7.13-22.59-20.85-22.59-20.65 0-20.67 6.18-20.69 16.41 0 1.97 0 4-.16 6.14-.04.6-.35 1.15-.84 1.5s-1.11.46-1.69.29c-.49-.14-1.01-.27-1.59-.41q-.6-.15-1.05-.15Z" class="cls-12"/><circle cx="45.25" cy="49.07" r="6.4" class="cls-5"/><path d="M45.25 57.47c-4.63 0-8.4-3.77-8.4-8.4s3.77-8.4 8.4-8.4 8.4 3.77 8.4 8.4-3.77 8.4-8.4 8.4m0-12.79c-2.42 0-4.4 1.97-4.4 4.4a4.4 4.4 0 1 0 4.4-4.4" class="cls-12"/><circle cx="64.52" cy="49.07" r="6.4" class="cls-5"/><path d="M64.52 57.47c-4.63 0-8.4-3.77-8.4-8.4s3.77-8.4 8.4-8.4 8.4 3.77 8.4 8.4-3.77 8.4-8.4 8.4m0-12.79c-2.42 0-4.4 1.97-4.4 4.4a4.4 4.4 0 1 0 4.4-4.4" class="cls-12"/><path d="M51.65 49.07s3.54-2.94 6.47 0" class="cls-5"/><path d="M58.12 51.07c-.51 0-1.02-.2-1.41-.59-1.54-1.53-3.43-.16-3.79.14-.86.69-2.11.56-2.81-.29-.69-.85-.58-2.1.27-2.8 1.71-1.42 5.82-3.22 9.16.12a2.004 2.004 0 0 1-1.41 3.42Z" class="cls-12"/><path d="m32.05 44.49 6.81 4.58" class="cls-5"/><path d="M38.86 51.07c-.38 0-.77-.11-1.11-.34l-6.81-4.58a2 2 0 0 1-.54-2.78c.62-.92 1.86-1.16 2.78-.54l6.81 4.58c.92.62 1.16 1.86.54 2.78-.39.57-1.02.88-1.66.88Z" class="cls-12"/><path d="M79.32 61.27c-.46-1.18-1.28-2.08-2.38-2.41-2.31-.7-4.97 1.29-5.93 4.45s.13 6.29 2.44 7c.39.12.8.16 1.2.13.86-1.78 1.55-3.71 2.09-5.77.37-1.43 1.29-2.71 2.58-3.39Zm-44.59-2.43c-1.31.39-2.23 1.55-2.62 3.06.72.7 1.24 1.62 1.49 2.62.5 1.97 1.14 3.82 1.94 5.54.84.4 1.73.52 2.58.27 2.32-.68 3.44-3.81 2.5-6.98s-3.57-5.18-5.89-4.5Z" style="stroke-width:0;fill:#efa5a5"/><path d="M55.19 84.13c-12.2 0-20.34-6.61-23.53-19.12-.27-1.04-.94-1.89-1.81-2.26-3.11-1.33-4.87-3.62-5.71-7.41s-1.3-8.84 1.29-11.37c.89-.87 2.46-1.76 5.04-1.33.03-1.18.03-2.35.04-3.49.03-10.49.05-20.4 24.69-20.4 19.27 0 23.54 13.07 24.65 23.99 2.81-.53 4.5.47 5.43 1.42 2.6 2.65 2 7.51 1.4 10.17-1.26 5.69-4 7.79-6.08 8.55-.9.33-1.63 1.2-1.91 2.28-3.22 12.41-11.34 18.97-23.49 18.97ZM29.17 46.52c-.43 0-.74.1-.95.3-.77.75-1.12 3.41-.18 7.64.65 2.91 1.77 3.92 3.38 4.61 2 .86 3.54 2.71 4.11 4.95 2.73 10.69 9.34 16.11 19.66 16.11s16.87-5.37 19.62-15.97c.61-2.36 2.26-4.25 4.41-5.03 2.06-.75 3.06-3.49 3.54-5.66.77-3.46.38-5.76-.35-6.5-.13-.14-.54-.55-1.91-.27-.72.15-1.37.29-1.96.45-.58.15-1.19.04-1.68-.31-.48-.35-.79-.89-.83-1.49-1.09-16.04-7.13-22.59-20.85-22.59-20.65 0-20.67 6.18-20.69 16.41 0 1.97 0 4-.16 6.14-.04.6-.35 1.15-.84 1.5s-1.11.46-1.69.29c-.49-.14-1.01-.27-1.59-.41q-.6-.15-1.05-.15Z" class="cls-12"/><path d="m78.6 44.49-6.81 4.58" class="cls-5"/><path d="M71.79 51.07c-.64 0-1.28-.31-1.66-.88-.62-.92-.37-2.16.54-2.78l6.81-4.58c.92-.62 2.16-.37 2.78.54.62.92.37 2.16-.54 2.78l-6.81 4.58c-.34.23-.73.34-1.11.34Z" class="cls-12"/><path d="M33.45 43.52s-3.51-20.69 11.87-20.48c9.47.13 6.15 7.57 3.82 9.83 0 0 .15 2.04 7.21.2s6.68-8.2 14.57-8.2c0 0 4.64 8.9 5.07 12.15s1.84 5.65 1.84 5.65 3.4-4.38 4.11-10.6.41-20.09-11.01-21.78c-3.41-3.67-14.57-7.77-26.44-3.67s-22.75 14.71-11.02 36.9Z" style="stroke-width:0;fill:#6b615d"/><path d="M33.45 45.52c-.72 0-1.41-.39-1.77-1.06-5.35-10.12-6.63-18.87-3.82-25.99C30.97 10.6 38.25 6.66 43.82 4.74a33.04 33.04 0 0 1 17.45-1.15c4.42.91 8.32 2.7 10.61 4.85 7.1 1.4 13.8 8.34 12.04 23.87-.76 6.7-4.36 11.4-4.52 11.6-.41.52-1.04.81-1.71.77-.66-.04-1.26-.41-1.6-.98-.07-.11-1.62-2.79-2.1-6.41-.25-1.89-2.55-6.93-4.27-10.35-2.63.29-3.86 1.58-5.49 3.28-1.72 1.79-3.66 3.82-7.39 4.79-4.26 1.11-6.97 1.11-8.51 0-.7-.5-1.14-1.25-1.2-2-.04-.59.18-1.17.6-1.58 1.07-1.04 2.33-3.51 1.79-4.89-.5-1.27-2.87-1.49-4.24-1.5-3.17-.05-5.5.88-7.17 2.83-4.35 5.07-2.71 15.22-2.69 15.32a2.01 2.01 0 0 1-1.97 2.34Zm37.47-22.65c.75 0 1.43.41 1.77 1.08.49.94 4.82 9.32 5.28 12.82.06.44.14.86.23 1.26.74-1.63 1.47-3.76 1.75-6.17.34-2.99 1.49-17.98-9.32-19.58-.45-.07-.86-.28-1.17-.62-2.74-2.95-13.01-7.05-24.33-3.14-4.77 1.65-10.99 4.97-13.54 11.42-1.54 3.89-1.56 8.48-.07 13.69.5-2.94 1.53-5.98 3.56-8.35 2.46-2.87 5.9-4.27 10.27-4.24 5.24.07 7.19 2.23 7.9 4.03.87 2.19.23 4.72-.86 6.72.8-.07 1.91-.26 3.46-.66 2.63-.69 3.97-2.08 5.51-3.69 2.05-2.14 4.38-4.57 9.57-4.57Z" class="cls-12"/><path d="m49.68 67.01 1.78.34c2.27.44 4.59.45 6.86.04l2.14-.38" class="cls-5"/><path d="M55 69.69c-1.31 0-2.62-.12-3.92-.37l-1.78-.34a2.014 2.014 0 0 1-1.59-2.34c.21-1.08 1.26-1.8 2.34-1.59l1.78.34c2.03.39 4.1.4 6.13.04l2.14-.38c1.08-.2 2.13.53 2.32 1.62a2 2 0 0 1-1.62 2.32l-2.14.38c-1.22.22-2.45.33-3.67.33Z" class="cls-12"/></svg>