<svg xmlns="http://www.w3.org/2000/svg" id="outline_icons" viewBox="0 0 112 112"><defs><style>.cls-6{fill:#98d2e2}.cls-7{fill:#004241}.cls-9{fill:#6caf69}</style></defs><path id="area" d="M0 0h112v112H0z" style="fill:none"/><path d="M50.25 8s51.12 0 51.12 39.92V101H49.33l.93-93Z" style="fill:#b3a8c6"/><path d="M59 41V4H2v104h80V41z" style="fill:#e0bfc0"/><path d="M2 5h57v6H2zm59 37H2v-6h57zM2 68h80v6H2zm0 33h80v6H2z" style="fill:#d8a0ab"/><path d="M34 81h16v27H34z" class="cls-6"/><path d="M50 110H34c-1.1 0-2-.9-2-2V81c0-1.1.9-2 2-2h16c1.1 0 2 .9 2 2v27c0 1.1-.9 2-2 2m-14-4h12V83H36z" class="cls-7"/><path d="M59 81h14v14H59z" class="cls-6"/><path d="M73 97H59c-1.1 0-2-.9-2-2V81c0-1.1.9-2 2-2h14c1.1 0 2 .9 2 2v14c0 1.1-.9 2-2 2m-12-4h10V83H61z" class="cls-7"/><path d="M11 81h14v14H11z" class="cls-6"/><path d="M25 97H11c-1.1 0-2-.9-2-2V81c0-1.1.9-2 2-2h14c1.1 0 2 .9 2 2v14c0 1.1-.9 2-2 2m-12-4h10V83H13z" class="cls-7"/><path d="M59 48h14v14H59z" class="cls-6"/><path d="M73 64H59c-1.1 0-2-.9-2-2V48c0-1.1.9-2 2-2h14c1.1 0 2 .9 2 2v14c0 1.1-.9 2-2 2m-12-4h10V50H61z" class="cls-7"/><path d="M11 48h14v14H11z" class="cls-6"/><path d="M25 64H11c-1.1 0-2-.9-2-2V48c0-1.1.9-2 2-2h14c1.1 0 2 .9 2 2v14c0 1.1-.9 2-2 2m-12-4h10V50H13z" class="cls-7"/><path d="M35 48h14v14H35z" class="cls-6"/><path d="M49 64H35c-1.1 0-2-.9-2-2V48c0-1.1.9-2 2-2h14c1.1 0 2 .9 2 2v14c0 1.1-.9 2-2 2m-12-4h10V50H37z" class="cls-7"/><path d="M11 17h14v14H11z" class="cls-6"/><path d="M25 33H11c-1.1 0-2-.9-2-2V17c0-1.1.9-2 2-2h14c1.1 0 2 .9 2 2v14c0 1.1-.9 2-2 2m-12-4h10V19H13z" class="cls-7"/><path d="M35 17h14v14H35z" class="cls-6"/><path d="M49 33H35c-1.1 0-2-.9-2-2V17c0-1.1.9-2 2-2h14c1.1 0 2 .9 2 2v14c0 1.1-.9 2-2 2m-12-4h10V19H37z" class="cls-7"/><path d="M82 110H2c-1.1 0-2-.9-2-2V8.8C0 5.05 3.05 2 6.8 2h47.4C57.95 2 61 5.05 61 8.8v27.4c0 1.54 1.26 2.8 2.8 2.8h13.4c3.75 0 6.8 3.05 6.8 6.8V108c0 1.1-.9 2-2 2m-78-4h76V45.8c0-1.54-1.26-2.8-2.8-2.8H63.8c-3.75 0-6.8-3.05-6.8-6.8V8.8C57 7.26 55.74 6 54.2 6H6.8C5.26 6 4 7.26 4 8.8z" class="cls-7"/><path d="M109.73 90.79c.18-.69.27-1.4.27-2.14 0-5.02-4.32-9.07-9.59-8.93-4.61.12-8.46 3.61-8.99 7.91a6.9 6.9 0 0 0-3.64-1.05c-3.75 0-6.79 2.93-6.79 6.54 0 .17 0 .34.02.51.09 1-.06 2.01-.56 2.9a7.7 7.7 0 0 0-.98 4.29c.25 4.06 3.76 6.54 7.98 6.7.57.02 1.13-.01 1.67-.1 3.26-.51 6.56-.12 9.8.5.49.09 2 .07 2.52.08 5.27.14 8.58-3.26 8.58-8.28 0-.74-.09-1.46-.27-2.14-.58-2.22-.58-4.56 0-6.79Z" class="cls-9"/><path d="M101.74 110h-.9c-1.03 0-1.81-.01-2.31-.11-2.73-.52-5.94-.98-9.12-.49-.68.1-1.36.14-2.05.12-5.53-.21-9.6-3.74-9.9-8.58-.11-1.88.31-3.74 1.23-5.39.27-.48.37-1.06.31-1.75q-.03-.345-.03-.69c0-4.7 3.94-8.53 8.79-8.54.77 0 1.54.1 2.28.3 1.58-4.1 5.64-7.04 10.3-7.16 3.17-.09 6.13 1.06 8.36 3.23 2.12 2.06 3.28 4.8 3.28 7.7 0 .89-.11 1.78-.34 2.64-.49 1.89-.49 3.89 0 5.79.22.86.34 1.75.34 2.64 0 3.05-1.02 5.66-2.94 7.53-1.85 1.81-4.38 2.75-7.32 2.75Zm-9.5-4.81c2.58 0 5.03.38 7.04.77.24.03 1.18.04 1.58.04h.62c2 .05 3.65-.5 4.79-1.62 1.13-1.1 1.73-2.72 1.73-4.67 0-.56-.07-1.11-.21-1.64-.66-2.55-.66-5.24 0-7.79.14-.53.21-1.08.21-1.64 0-1.82-.74-3.53-2.07-4.83-1.45-1.41-3.39-2.16-5.46-2.1-3.54.09-6.64 2.8-7.06 6.16-.08.68-.51 1.26-1.12 1.56s-1.34.25-1.92-.11c-.79-.49-1.68-.75-2.58-.75-2.64 0-4.79 2.04-4.79 4.54 0 .12 0 .23.01.34.13 1.48-.15 2.88-.81 4.05-.55.97-.8 2.07-.73 3.18.19 3.18 3.18 4.71 6.06 4.82.43.02.86 0 1.29-.07a22 22 0 0 1 3.44-.25Z" class="cls-7"/><path d="M84 41h26v26H84z" style="fill:#ffd833"/><path d="M110 69H84c-1.1 0-2-.9-2-2V41c0-1.1.9-2 2-2h26c1.1 0 2 .9 2 2v26c0 1.1-.9 2-2 2m-24-4h22V43H86z" class="cls-7"/><path d="M92 62c-1.1 0-2-.9-2-2V48c0-1.1.9-2 2-2s2 .9 2 2v12c0 1.1-.9 2-2 2m10 0c-1.1 0-2-.9-2-2V48c0-1.1.9-2 2-2s2 .9 2 2v12c0 1.1-.9 2-2 2" class="cls-7"/><path d="M101.37 56H92c-1.1 0-2-.9-2-2s.9-2 2-2h9.37c1.1 0 2 .9 2 2s-.9 2-2 2" class="cls-7"/><path d="M85.18 13.4c0-3.18 1.14-6.08 3.04-8.34-.39-.04-.79-.06-1.19-.06-7.19 0-13.02 5.82-13.02 13s5.83 13 13.02 13c4.01 0 7.59-1.81 9.98-4.66-6.63-.6-11.82-6.16-11.82-12.94Z" style="fill:#ffdb49"/><path d="M87.02 33C78.74 33 72 26.27 72 18S78.74 3 87.02 3c.46 0 .92.03 1.38.07.74.07 1.38.54 1.67 1.23.28.69.16 1.48-.32 2.05a11 11 0 0 0-2.57 7.06c0 5.72 4.3 10.43 10.01 10.95.74.07 1.38.54 1.67 1.23.28.69.16 1.48-.32 2.05a14.98 14.98 0 0 1-11.51 5.37ZM84.48 7.3C79.62 8.45 76 12.81 76 18.01c0 6.07 4.94 11 11.02 11 2.05 0 4.03-.57 5.73-1.61-5.67-2.17-9.58-7.62-9.58-13.99 0-2.12.45-4.2 1.3-6.11ZM91.05 43H76.77c-1.1 0-2-.9-2-2s.9-2 2-2h14.28c1.1 0 2 .9 2 2s-.9 2-2 2" class="cls-7"/><path d="M79.51 99.41c-.94 2.88-.33 8.59-.33 8.59h19.66c1.06 0 2.03-.59 2.48-1.55.71-1.49 1.42-3.87.46-6.27" class="cls-9"/><path d="M98.83 110H79.17c-1.02 0-1.88-.77-1.99-1.79-.07-.63-.62-6.22.42-9.42a1.999 1.999 0 0 1 3.8 1.24c-.47 1.46-.47 4.07-.38 5.97h17.8c.29 0 .56-.16.67-.41.56-1.19 1.09-2.97.41-4.67-.41-1.02.08-2.19 1.11-2.6 1.02-.42 2.19.08 2.6 1.11 1.23 3.04.4 5.96-.5 7.88a4.75 4.75 0 0 1-4.29 2.69Z" class="cls-7"/><path d="M42 94.48c-1.1 0-2-.9-2-2V88c0-1.1.9-2 2-2s2 .9 2 2v4.48c0 1.1-.9 2-2 2" style="fill:#b7e0ea"/></svg>