<?xml version="1.0" encoding="UTF-8"?>
<svg id="outline_icons" xmlns="http://www.w3.org/2000/svg" viewBox="0 0 112 112">
  <defs>
    <style>
      .cls-1 {
        fill: none;
      }

      .cls-2 {
        fill: #d8a0ab;
      }

      .cls-3 {
        fill: #b7e0ea;
      }

      .cls-4 {
        fill: #e0bfc0;
      }

      .cls-5 {
        fill: #ffd833;
      }

      .cls-6 {
        fill: #98d2e2;
      }

      .cls-7 {
        fill: #004241;
      }

      .cls-8 {
        fill: #b3a8c6;
      }

      .cls-9 {
        fill: #6caf69;
      }

      .cls-10 {
        fill: #ffdb49;
      }
    </style>
  </defs>
  <g id="area">
    <rect class="cls-1" y="0" width="112" height="112"/>
  </g>
  <path class="cls-8" d="M50.25,8s51.12,0,51.12,39.92v53.08h-52.04l.93-93Z"/>
  <polygon class="cls-4" points="59 41 59 4 2 4 2 108 82 108 82 41 59 41"/>
  <rect class="cls-2" x="2" y="5" width="57" height="6"/>
  <polygon class="cls-2" points="61 42 2 42 2 36 59 36 61 42"/>
  <rect class="cls-2" x="2" y="68" width="80" height="6"/>
  <rect class="cls-2" x="2" y="101" width="80" height="6"/>
  <g>
    <rect class="cls-6" x="34" y="81" width="16" height="27"/>
    <path class="cls-7" d="M50,110h-16c-1.1,0-2-.9-2-2v-27c0-1.1.9-2,2-2h16c1.1,0,2,.9,2,2v27c0,1.1-.9,2-2,2ZM36,106h12v-23h-12v23Z"/>
  </g>
  <g>
    <rect class="cls-6" x="59" y="81" width="14" height="14"/>
    <path class="cls-7" d="M73,97h-14c-1.1,0-2-.9-2-2v-14c0-1.1.9-2,2-2h14c1.1,0,2,.9,2,2v14c0,1.1-.9,2-2,2ZM61,93h10v-10h-10v10Z"/>
  </g>
  <g>
    <rect class="cls-6" x="11" y="81" width="14" height="14"/>
    <path class="cls-7" d="M25,97h-14c-1.1,0-2-.9-2-2v-14c0-1.1.9-2,2-2h14c1.1,0,2,.9,2,2v14c0,1.1-.9,2-2,2ZM13,93h10v-10h-10v10Z"/>
  </g>
  <g>
    <rect class="cls-6" x="59" y="48" width="14" height="14"/>
    <path class="cls-7" d="M73,64h-14c-1.1,0-2-.9-2-2v-14c0-1.1.9-2,2-2h14c1.1,0,2,.9,2,2v14c0,1.1-.9,2-2,2ZM61,60h10v-10h-10v10Z"/>
  </g>
  <g>
    <rect class="cls-6" x="11" y="48" width="14" height="14"/>
    <path class="cls-7" d="M25,64h-14c-1.1,0-2-.9-2-2v-14c0-1.1.9-2,2-2h14c1.1,0,2,.9,2,2v14c0,1.1-.9,2-2,2ZM13,60h10v-10h-10v10Z"/>
  </g>
  <g>
    <rect class="cls-6" x="35" y="48" width="14" height="14"/>
    <path class="cls-7" d="M49,64h-14c-1.1,0-2-.9-2-2v-14c0-1.1.9-2,2-2h14c1.1,0,2,.9,2,2v14c0,1.1-.9,2-2,2ZM37,60h10v-10h-10v10Z"/>
  </g>
  <g>
    <rect class="cls-6" x="11" y="17" width="14" height="14"/>
    <path class="cls-7" d="M25,33h-14c-1.1,0-2-.9-2-2v-14c0-1.1.9-2,2-2h14c1.1,0,2,.9,2,2v14c0,1.1-.9,2-2,2ZM13,29h10v-10h-10v10Z"/>
  </g>
  <g>
    <rect class="cls-6" x="35" y="17" width="14" height="14"/>
    <path class="cls-7" d="M49,33h-14c-1.1,0-2-.9-2-2v-14c0-1.1.9-2,2-2h14c1.1,0,2,.9,2,2v14c0,1.1-.9,2-2,2ZM37,29h10v-10h-10v10Z"/>
  </g>
  <path class="cls-7" d="M82,110H2C.9,110,0,109.1,0,108V8.8C0,5.05,3.05,2,6.8,2h47.4c3.75,0,6.8,3.05,6.8,6.8v27.4c0,1.54,1.26,2.8,2.8,2.8h13.4c3.75,0,6.8,3.05,6.8,6.8v62.2c0,1.1-.9,2-2,2ZM4,106h76v-60.2c0-1.54-1.26-2.8-2.8-2.8h-13.4c-3.75,0-6.8-3.05-6.8-6.8V8.8c0-1.54-1.26-2.8-2.8-2.8H6.8c-1.54,0-2.8,1.26-2.8,2.8v97.2Z"/>
  <g>
    <path class="cls-9" d="M109.73,90.79c.18-.69.27-1.4.27-2.14,0-5.02-4.32-9.07-9.59-8.93-4.61.12-8.46,3.61-8.99,7.91-1.06-.66-2.32-1.05-3.64-1.05-3.75,0-6.79,2.93-6.79,6.54,0,.17,0,.34.02.51.09,1-.06,2.01-.56,2.9-.71,1.26-1.08,2.73-.98,4.29.25,4.06,3.76,6.54,7.98,6.7.57.02,1.13-.01,1.67-.1,3.26-.51,6.56-.12,9.8.5.49.09,2,.07,2.52.08,5.27.14,8.58-3.26,8.58-8.28,0-.74-.09-1.46-.27-2.14-.58-2.22-.58-4.56,0-6.79Z"/>
    <path class="cls-7" d="M101.74,110c-.12,0-.25,0-.37,0-.12,0-.31,0-.53,0-1.03,0-1.81-.01-2.31-.11-2.73-.52-5.94-.98-9.12-.49-.68.1-1.36.14-2.05.12-5.53-.21-9.6-3.74-9.9-8.58-.11-1.88.31-3.74,1.23-5.39.27-.48.37-1.06.31-1.75-.02-.23-.03-.46-.03-.69,0-4.7,3.94-8.53,8.79-8.54h0c.77,0,1.54.1,2.28.3,1.58-4.1,5.64-7.04,10.3-7.16,3.17-.09,6.13,1.06,8.36,3.23,2.12,2.06,3.28,4.8,3.28,7.7,0,.89-.11,1.78-.34,2.64-.49,1.89-.49,3.89,0,5.79.22.86.34,1.75.34,2.64,0,3.05-1.02,5.66-2.94,7.53-1.85,1.81-4.38,2.75-7.32,2.75ZM92.24,105.19c2.58,0,5.03.38,7.04.77.24.03,1.18.04,1.58.04.25,0,.47,0,.62,0,2,.05,3.65-.5,4.79-1.62,1.13-1.1,1.73-2.72,1.73-4.67,0-.56-.07-1.11-.21-1.64-.66-2.55-.66-5.24,0-7.79h0c.14-.53.21-1.08.21-1.64,0-1.82-.74-3.53-2.07-4.83-1.45-1.41-3.39-2.16-5.46-2.1-3.54.09-6.64,2.8-7.06,6.16-.08.68-.51,1.26-1.12,1.56s-1.34.25-1.92-.11c-.79-.49-1.68-.75-2.58-.75h0c-2.64,0-4.79,2.04-4.79,4.54,0,.12,0,.23.01.34.13,1.48-.15,2.88-.81,4.05-.55.97-.8,2.07-.73,3.18.19,3.18,3.18,4.71,6.06,4.82.43.02.86,0,1.29-.07,1.15-.18,2.31-.25,3.44-.25Z"/>
  </g>
  <g>
    <rect class="cls-5" x="84" y="41" width="26" height="26"/>
    <path class="cls-7" d="M110,69h-26c-1.1,0-2-.9-2-2v-26c0-1.1.9-2,2-2h26c1.1,0,2,.9,2,2v26c0,1.1-.9,2-2,2ZM86,65h22v-22h-22v22Z"/>
  </g>
  <path class="cls-7" d="M92,62c-1.1,0-2-.9-2-2v-12c0-1.1.9-2,2-2s2,.9,2,2v12c0,1.1-.9,2-2,2Z"/>
  <path class="cls-7" d="M102,62c-1.1,0-2-.9-2-2v-12c0-1.1.9-2,2-2s2,.9,2,2v12c0,1.1-.9,2-2,2Z"/>
  <path class="cls-7" d="M101.37,56h-9.37c-1.1,0-2-.9-2-2s.9-2,2-2h9.37c1.1,0,2,.9,2,2s-.9,2-2,2Z"/>
  <g>
    <path class="cls-10" d="M85.18,13.4h0c0-3.18,1.14-6.08,3.04-8.34-.39-.04-.79-.06-1.19-.06h0c-7.19,0-13.02,5.82-13.02,13h0c0,7.18,5.83,13,13.02,13h0c4.01,0,7.59-1.81,9.98-4.66-6.63-.6-11.82-6.16-11.82-12.94Z"/>
    <path class="cls-7" d="M87.02,33c-8.28,0-15.02-6.73-15.02-15s6.74-15,15.02-15c.46,0,.92.03,1.38.07.74.07,1.38.54,1.67,1.23.28.69.16,1.48-.32,2.05-1.66,1.98-2.57,4.48-2.57,7.06,0,5.72,4.3,10.43,10.01,10.95.74.07,1.38.54,1.67,1.23.28.69.16,1.48-.32,2.05-2.87,3.42-7.06,5.37-11.51,5.37ZM84.48,7.3c-4.86,1.15-8.48,5.51-8.48,10.71,0,6.07,4.94,11,11.02,11,2.05,0,4.03-.57,5.73-1.61-5.67-2.17-9.58-7.62-9.58-13.99,0-2.12.45-4.2,1.3-6.11Z"/>
  </g>
  <path class="cls-7" d="M91.05,43h-14.28c-1.1,0-2-.9-2-2s.9-2,2-2h14.28c1.1,0,2,.9,2,2s-.9,2-2,2Z"/>
  <g>
    <path class="cls-9" d="M79.51,99.41c-.94,2.88-.33,8.59-.33,8.59h19.66c1.06,0,2.03-.59,2.48-1.55.71-1.49,1.42-3.87.46-6.27"/>
    <path class="cls-7" d="M98.83,110h-19.66c-1.02,0-1.88-.77-1.99-1.79-.07-.63-.62-6.22.42-9.42.34-1.05,1.47-1.62,2.52-1.28,1.05.34,1.62,1.47,1.28,2.52-.47,1.46-.47,4.07-.38,5.97h17.8c.29,0,.56-.16.67-.41.56-1.19,1.09-2.97.41-4.67-.41-1.02.08-2.19,1.11-2.6,1.02-.42,2.19.08,2.6,1.11,1.23,3.04.4,5.96-.5,7.88-.78,1.64-2.46,2.69-4.29,2.69Z"/>
  </g>
  <path class="cls-3" d="M42,94.48c-1.1,0-2-.9-2-2v-4.48c0-1.1.9-2,2-2s2,.9,2,2v4.48c0,1.1-.9,2-2,2Z"/>
</svg>