<?xml version="1.0" encoding="UTF-8"?>
<svg id="outline_icons" xmlns="http://www.w3.org/2000/svg" viewBox="0 0 112 112">
  <defs>
    <style>
      .cls-1 {
        fill: none;
      }

      .cls-2 {
        fill: #bfb099;
      }

      .cls-3 {
        fill: #d3c6b4;
      }

      .cls-4 {
        fill: #f7f5eb;
      }

      .cls-5 {
        fill: #ddc9ac;
      }

      .cls-6 {
        fill: #dddacc;
      }

      .cls-7 {
        fill: #004241;
      }
    </style>
  </defs>
  <g id="huitres">
    <g>
      <path class="cls-2" d="M96.27,43.48c-2.52-2.77-6.07-2.47-8.9-3.77-3.47-1.59-6.42-4.33-11.9-2.85-4.05,1.09-14.07,7.19-17.12,8.15-3.62,1.14-8.3,1.32-13.02,1.74-3.87.34-6.79-1.69-10.12-.38-2.22.87-3.8,2.74-5.53,5.16s-4.94,4.29-7.77,7.35c-2.11,2.29-2.33,5.72-3.37,8.08-1.28,2.91-1.78,5.83-1.59,8.68.36,5.3,2.04,11.67,6.69,15.9,2.65,2.41,7.01,3.24,10.79,5.01s7.09,5.71,11.79,6.62c5.51,1.08,9.78-1.65,13.52-2.85,13.69-4.4,17.32-19.55,22.35-23.75,2.33-1.94,9.19-3.59,11.58-8.51,1.09-2.25,1.49-7.47,2.92-9.77,3.52-5.65,2.99-11.17-.31-14.8Z"/>
      <path class="cls-7" d="M48.74,105.41c-.93,0-1.91-.08-2.91-.28-3.33-.65-5.99-2.57-8.34-4.27-1.36-.98-2.64-1.91-3.92-2.51-1.22-.57-2.56-1.06-3.85-1.53-2.66-.97-5.4-1.96-7.43-3.81-5.71-5.2-7.05-13.04-7.34-17.25-.22-3.24.37-6.48,1.75-9.62.29-.66.53-1.5.78-2.39.58-2.04,1.23-4.36,2.95-6.23,1.38-1.5,2.85-2.73,4.14-3.81,1.44-1.21,2.68-2.25,3.47-3.35,1.68-2.34,3.56-4.73,6.42-5.85,2.45-.96,4.7-.53,6.68-.14,1.35.26,2.62.51,4,.39.86-.08,1.73-.15,2.58-.21,3.74-.3,7.27-.58,10.02-1.45,1.17-.37,3.96-1.84,6.66-3.26,3.96-2.09,8.06-4.24,10.54-4.91,5.13-1.39,8.54.46,11.29,1.95.68.37,1.32.71,1.97,1.01.81.37,1.76.6,2.77.84,2.21.53,4.71,1.14,6.77,3.4h0c4.12,4.52,4.32,11.11.53,17.21-.61.98-1.06,3.05-1.46,4.88-.39,1.8-.76,3.49-1.36,4.71-1.94,3.98-6.14,6.05-9.22,7.57-1.2.59-2.33,1.14-2.88,1.6-1.37,1.14-2.78,3.52-4.41,6.28-3.65,6.17-8.64,14.63-18.62,17.84-.81.26-1.67.61-2.58.97-2.51,1.01-5.51,2.22-9.02,2.22ZM37.65,47.92c-.59,0-1.15.08-1.71.31-1.68.66-2.97,2.13-4.64,4.46-1.08,1.51-2.57,2.76-4.15,4.08-1.26,1.05-2.56,2.15-3.77,3.46-1.07,1.17-1.57,2.91-2.04,4.6-.28.98-.56,2-.97,2.92-1.12,2.54-1.6,5.14-1.42,7.73.25,3.61,1.36,10.3,6.04,14.56,1.45,1.32,3.71,2.14,6.11,3.01,1.38.5,2.8,1.02,4.18,1.67,1.62.76,3.11,1.84,4.56,2.89,2.21,1.6,4.29,3.1,6.76,3.59,3.63.71,6.7-.53,9.67-1.72.98-.4,1.91-.77,2.85-1.07,8.53-2.74,12.89-10.13,16.4-16.06,1.82-3.08,3.39-5.74,5.29-7.32.92-.77,2.19-1.39,3.67-2.12,2.7-1.33,6.05-2.98,7.39-5.72.38-.79.72-2.33,1.05-3.82.49-2.25,1-4.57,1.97-6.14,2.85-4.58,2.81-9.21-.09-12.4h0c-1.23-1.35-2.86-1.75-4.75-2.2-1.15-.28-2.34-.57-3.5-1.1-.77-.35-1.5-.75-2.21-1.13-2.55-1.38-4.75-2.57-8.34-1.61-2.05.55-6.13,2.7-9.72,4.59-3.12,1.64-5.81,3.06-7.32,3.53-3.17,1-6.92,1.3-10.9,1.62-.84.07-1.7.14-2.55.21-1.94.17-3.63-.16-5.12-.44-1.01-.2-1.9-.37-2.74-.37Z"/>
    </g>
    <g>
      <path class="cls-6" d="M86.81,50.08c-1.79-1.96-5.31-2.4-7.32-3.32-2.46-1.13-7.05-.63-10.93.42-1.44.39-2.61,2.75-5.01,4.02s-6.05,1.42-7.13,1.76c-4.67,1.47-11.86.7-17.1,2.77-3.14,1.24-3.79,3.5-7.8,7.85-10.68,11.58-1.2,25.28,16.98,28.83,18.18,3.55,20.19-13.28,24.74-17.07,1.65-1.38,6.51-2.55,8.21-6.03.78-1.6,1.05-5.3,2.07-6.93,2.49-4.01,5.63-9.72,3.29-12.29Z"/>
      <path class="cls-7" d="M53.31,94.9c-1.59,0-3.31-.17-5.19-.54-11.28-2.21-19.84-8.32-22.34-15.95-1.8-5.5-.28-11.25,4.27-16.2,1.32-1.43,2.25-2.61,3.07-3.66,1.62-2.06,2.89-3.68,5.47-4.69,3.16-1.24,6.77-1.53,10.26-1.81,2.62-.21,5.09-.41,6.98-1,.48-.15,1.11-.25,1.91-.37,1.48-.23,3.52-.54,4.89-1.26.95-.5,1.7-1.27,2.42-2.02.87-.9,1.76-1.82,3-2.16,2.45-.66,8.55-2.02,12.28-.31.52.24,1.24.46,2.01.7,1.95.6,4.37,1.35,5.96,3.09h0c3.18,3.49.23,9.39-3.07,14.69-.38.61-.7,2.09-.96,3.28-.29,1.31-.56,2.54-1.01,3.47-1.46,3-4.55,4.52-6.8,5.63-.78.38-1.59.78-1.92,1.06-.89.74-1.86,2.54-2.89,4.44-3,5.55-7.35,13.58-18.32,13.58ZM75.72,48.12c-1.86,0-4.21.34-6.64.99-.21.09-.76.66-1.16,1.08-.85.88-1.92,1.98-3.44,2.78-1.96,1.03-4.48,1.41-6.14,1.67-.5.08-1.13.17-1.31.23-2.31.73-5.01.94-7.86,1.17-3.2.26-6.5.52-9.11,1.55-1.5.59-2.2,1.43-3.79,3.44-.82,1.05-1.85,2.35-3.27,3.9-3.58,3.89-4.76,8.12-3.41,12.24,2.05,6.26,9.45,11.34,19.31,13.27,12,2.35,16.01-5.07,19.23-11.03,1.27-2.35,2.37-4.38,3.85-5.61.7-.59,1.64-1.05,2.72-1.58,1.83-.9,4.11-2.02,4.97-3.79.24-.5.48-1.6.7-2.57.36-1.64.73-3.34,1.48-4.54,4.58-7.37,3.98-9.37,3.5-9.89-.85-.94-2.62-1.48-4.18-1.96-.9-.28-1.74-.54-2.49-.88-.67-.31-1.7-.46-2.94-.46Z"/>
    </g>
    <g>
      <path class="cls-5" d="M86.81,50.08s-22.93,11.07-28.71,10.13c-5.78-.94-17.5,7.01-17.97,13.86-.47,6.86,8.51,15.63,17.03,7.81,5.42-4.98,12.52-12.34,16.97-17.04,2.87-3.02,6.14-5.64,9.72-7.77l2.39-1.42"/>
      <path class="cls-7" d="M50.1,86.96c-1.57,0-3.14-.36-4.66-1.09-4.49-2.16-7.64-7.29-7.32-11.93.24-3.47,2.77-7.36,6.96-10.68,3.47-2.75,9.03-5.71,13.33-5.02,3.76.62,18.88-5.79,27.52-9.96,1-.48,2.19-.06,2.67.93.48,1,.06,2.19-.93,2.67-3.92,1.89-23.81,11.29-29.9,10.31-2.36-.39-6.65,1.38-10.2,4.2-3.25,2.58-5.29,5.5-5.45,7.82-.21,3.05,2.01,6.59,5.06,8.05,1.98.95,5.08,1.4,8.62-1.85,5.25-4.83,12.08-11.88,16.88-16.94,2.99-3.15,6.4-5.88,10.15-8.11l2.39-1.42c.95-.56,2.18-.25,2.74.7.56.95.25,2.18-.7,2.74l-2.39,1.42c-3.43,2.04-6.56,4.54-9.29,7.42-4.84,5.11-11.74,12.23-17.07,17.13-2.59,2.38-5.5,3.6-8.4,3.6Z"/>
    </g>
    <g>
      <circle class="cls-4" cx="47.21" cy="66.12" r="6.59"/>
      <path class="cls-7" d="M47.2,74.71c-1.92,0-3.86-.64-5.45-1.96-3.66-3.01-4.18-8.43-1.17-12.09,3.01-3.66,8.43-4.18,12.09-1.17,1.77,1.46,2.87,3.52,3.09,5.8.22,2.28-.46,4.52-1.92,6.29-1.7,2.06-4.16,3.12-6.64,3.12ZM47.21,61.54c-1.33,0-2.64.57-3.55,1.67-1.61,1.95-1.33,4.85.62,6.46,1.95,1.61,4.85,1.33,6.46-.62h0c.78-.95,1.14-2.14,1.03-3.36-.12-1.22-.7-2.32-1.65-3.1-.85-.7-1.89-1.04-2.91-1.04Z"/>
    </g>
    <g>
      <path class="cls-2" d="M93.21,55.29s2.97,2.99,2.35,5.59"/>
      <path class="cls-7" d="M95.56,62.88c-.15,0-.31-.02-.47-.06-1.07-.26-1.73-1.34-1.48-2.41.25-1.02-.94-2.82-1.82-3.72-.77-.79-.77-2.05.02-2.83.78-.77,2.04-.77,2.82,0,.39.39,3.74,3.88,2.87,7.47-.22.92-1.04,1.53-1.94,1.53Z"/>
    </g>
    <g>
      <path class="cls-2" d="M29.68,51.53s-1.01,2.52-.71,5.64"/>
      <path class="cls-7" d="M28.97,59.16c-1.02,0-1.89-.77-1.99-1.81-.34-3.56.79-6.45.84-6.57.41-1.03,1.57-1.52,2.6-1.12,1.02.41,1.52,1.57,1.12,2.59-.02.06-.82,2.18-.57,4.71.11,1.1-.7,2.08-1.8,2.18-.07,0-.13,0-.19,0Z"/>
    </g>
    <g>
      <g>
        <path class="cls-3" d="M98.41,38.56c-6.32,8.43-25.75,7.4-34.13,6.51-2.31-.24-4.58-.74-6.78-1.46-4.34-1.44-12.49-4.02-16.31-4.51-3.01-.38-7-.17-9.92.1-3.2.29-6.43-.33-9.25-1.88-4.15-2.29-8.18-6.08-1.5-10.42,0,0,3.32-15.36,9.07-15.04s13.75,1.51,13.75,1.51l4.41-2.59c3.23-1.9,6.6-.83,8.7,2.69,1.19,2,3.23,4.24,6.67,6.47l10.28,6.67s29.47,6.02,25.02,11.96Z"/>
        <path class="cls-7" d="M74.99,47.67c-4,0-7.81-.28-10.92-.6-2.44-.26-4.86-.78-7.2-1.56-7.47-2.47-13.28-4.08-15.94-4.42-2.85-.36-6.74-.14-9.49.1-3.68.33-7.28-.41-10.39-2.12-3.94-2.18-5.99-4.62-6.09-7.26-.08-2.2,1.19-4.26,3.78-6.12.95-4.03,4.4-16.16,10.96-15.83,4.84.27,11.13,1.13,13.23,1.43l3.8-2.24c4.16-2.45,8.76-1.09,11.43,3.38,1.23,2.06,3.26,4.01,6.04,5.82l9.96,6.46c6.13,1.27,24.27,5.49,26.44,11.18.5,1.31.29,2.69-.59,3.86h0c-4.73,6.31-15.43,7.91-25.03,7.91ZM37.35,36.9c1.43,0,2.83.06,4.09.22,3.97.5,12.16,3.09,16.69,4.59,2.07.68,4.21,1.15,6.36,1.38,6.09.64,26.44,2.13,32.32-5.72h0c.05-.07.07-.11.07-.11-.48-2.06-11.86-6.24-23.89-8.7-.25-.05-.48-.15-.69-.28l-10.28-6.67c-3.3-2.14-5.75-4.54-7.3-7.12-.73-1.22-2.78-3.87-5.97-1.99l-4.41,2.59c-.4.23-.86.33-1.31.25-.08-.01-7.98-1.19-13.56-1.49-.02,0-.04,0-.07,0-2.38,0-5.55,7.05-6.94,13.47-.11.52-.42.97-.86,1.25-1.74,1.13-2.68,2.23-2.65,3.09.04,1.08,1.54,2.54,4.02,3.91,2.41,1.33,5.22,1.9,8.1,1.64,1.79-.16,4.05-.31,6.26-.31ZM98.41,38.56h0,0Z"/>
      </g>
      <g>
        <path class="cls-3" d="M23.47,21.85s2.17,4.82,12.55,4.4"/>
        <path class="cls-7" d="M34.74,28.27c-10.27,0-12.83-5.01-13.1-5.6-.45-1.01,0-2.19,1-2.65.99-.44,2.15-.02,2.62.96.09.16,2.16,3.59,10.66,3.27,1.11-.04,2.03.81,2.08,1.92.04,1.1-.81,2.04-1.92,2.08-.46.02-.91.03-1.35.03Z"/>
      </g>
      <g>
        <path class="cls-3" d="M55.19,29.12s14.55,5.21,29.23.89"/>
        <path class="cls-7" d="M71.86,33.73c-9.57,0-16.92-2.57-17.35-2.73-1.04-.37-1.58-1.51-1.21-2.55.37-1.04,1.51-1.58,2.55-1.21.14.05,14.15,4.93,27.99.86,1.06-.31,2.17.29,2.48,1.35.31,1.06-.29,2.17-1.35,2.48-4.53,1.33-9.03,1.8-13.12,1.8Z"/>
      </g>
    </g>
    <g>
      <path class="cls-2" d="M45.58,19.79s12.34,1.76,17.54.14"/>
      <path class="cls-7" d="M56.58,22.62c-5.1,0-10.42-.73-11.28-.85-1.09-.16-1.85-1.17-1.7-2.26.16-1.09,1.17-1.85,2.26-1.7,3.31.47,12.76,1.43,16.66.21,1.05-.33,2.18.26,2.51,1.31.33,1.05-.26,2.18-1.31,2.51-1.87.58-4.47.78-7.13.78Z"/>
    </g>
    <rect class="cls-1" width="112" height="112"/>
  </g>
</svg>