<?xml version="1.0" encoding="UTF-8"?>
<svg id="flatten_icons" data-name="flatten icons" xmlns="http://www.w3.org/2000/svg" viewBox="0 0 112 112">
  <defs>
    <style>
      .cls-1 {
        fill: none;
      }

      .cls-1, .cls-2, .cls-3, .cls-4, .cls-5, .cls-6 {
        stroke-width: 0px;
      }

      .cls-2 {
        fill: #c4d1d5;
      }

      .cls-3 {
        fill: #ba6a8f;
      }

      .cls-4 {
        fill: #b8e1ec;
      }

      .cls-5 {
        fill: #efefef;
      }

      .cls-6 {
        fill: #004241;
      }
    </style>
  </defs>
  <g id="intercites">
    <g id="area">
      <rect class="cls-1" width="112" height="112"/>
    </g>
    <g id="rails">
      <path class="cls-2" d="m97.84,103.04c-1.1,0-2-.9-2-2v-2.87c0-1.1.9-2,2-2s2,.9,2,2v2.87c0,1.1-.9,2-2,2Z"/>
      <path class="cls-2" d="m83.55,103.04c-1.1,0-2-.9-2-2v-2.87c0-1.1.9-2,2-2s2,.9,2,2v2.87c0,1.1-.9,2-2,2Z"/>
      <path class="cls-2" d="m69.81,103.04c-1.1,0-2-.9-2-2v-2.87c0-1.1.9-2,2-2s2,.9,2,2v2.87c0,1.1-.9,2-2,2Z"/>
      <path class="cls-2" d="m55.52,103.04c-1.1,0-2-.9-2-2v-2.87c0-1.1.9-2,2-2s2,.9,2,2v2.87c0,1.1-.9,2-2,2Z"/>
      <path class="cls-2" d="m41.08,103.04c-1.1,0-2-.9-2-2v-2.87c0-1.1.9-2,2-2s2,.9,2,2v2.87c0,1.1-.9,2-2,2Z"/>
      <path class="cls-2" d="m26.79,103.04c-1.1,0-2-.9-2-2v-2.87c0-1.1.9-2,2-2s2,.9,2,2v2.87c0,1.1-.9,2-2,2Z"/>
      <path class="cls-2" d="m13.05,103.04c-1.1,0-2-.9-2-2v-2.87c0-1.1.9-2,2-2s2,.9,2,2v2.87c0,1.1-.9,2-2,2Z"/>
      <path class="cls-6" d="m105.87,100.17H4.02c-1.1,0-2-.9-2-2s.9-2,2-2h101.85c1.1,0,2,.9,2,2s-.9,2-2,2Z"/>
    </g>
    <g id="car">
      <g id="car-2" data-name="car">
        <path class="cls-6" d="m80.22,82.14c-2.8-1.87-6.37-1.68-8.98.2-.94.68-2.09,1-3.25,1h-11.84c-1.18,0-2.33-.35-3.29-1.03-2.46-1.74-5.78-2.02-8.54-.43-3.79,2.19-5.07,7.08-2.85,10.91,2.22,3.84,7.09,5.18,10.88,2.99,1.3-.75,2.31-1.82,2.97-3.06.99-1.83,2.95-2.92,5.03-2.92h3.52c2.13,0,4.03,1.2,5.1,3.04.58.99,1.38,1.87,2.4,2.56,3.61,2.42,8.53,1.41,10.97-2.25,2.45-3.66,1.5-8.58-2.12-11Z"/>
        <path class="cls-6" d="m40.54,23.89c-.24,0-.47-.04-.71-.13-1.03-.39-1.56-1.54-1.17-2.58l3.55-9.41-5.95-5.99c-.78-.78-.78-2.05,0-2.83.78-.78,2.05-.77,2.83,0l6.86,6.9c.55.56.73,1.38.45,2.12l-4.01,10.61c-.3.8-1.06,1.29-1.87,1.29Z"/>
        <path class="cls-2" d="m3.83,88.37h89.61c5.73,0,10.81-8.44,12.59-13.89l.93-2.86c.97-2.98,1.17-6.15.58-9.22l-.81-4.22c-3.7-19.32-20.6-33.29-40.28-33.29l-6.54-3H3.83"/>
        <g>
          <path class="cls-4" d="m3.83,55.67h18.29c.78,0,1.41-.56,1.41-1.26v-13.04c0-.7-.63-1.26-1.41-1.26H3.83"/>
          <path class="cls-6" d="m22.12,57.67H3.83c-1.1,0-2-.9-2-2s.9-2,2-2h17.7v-11.56H3.83c-1.1,0-2-.9-2-2s.9-2,2-2h18.29c1.88,0,3.41,1.46,3.41,3.26v13.04c0,1.8-1.53,3.26-3.41,3.26Z"/>
        </g>
        <g>
          <rect class="cls-4" x="57.07" y="40.64" width="22.82" height="15.56" rx="1.26" ry="1.26"/>
          <path class="cls-6" d="m78.63,58.2h-20.3c-1.8,0-3.26-1.46-3.26-3.26v-13.04c0-1.8,1.46-3.26,3.26-3.26h20.3c1.8,0,3.26,1.46,3.26,3.26v13.04c0,1.8-1.46,3.26-3.26,3.26Zm-19.56-4h18.82v-11.56h-18.82v11.56Zm19.56-11.56h0,0Z"/>
        </g>
        <path class="cls-3" d="m3.83,75.63v12.74h89.61c5.35,0,10.12-7.33,12.18-12.74H3.83Z"/>
        <path class="cls-6" d="m105.67,77.63H41.14c-1.1,0-2-.9-2-2s.9-2,2-2h64.53c1.1,0,2,.9,2,2s-.9,2-2,2Z"/>
        <path class="cls-6" d="m32.01,77.63H10.81c-1.1,0-2-.9-2-2s.9-2,2-2h21.2c1.1,0,2,.9,2,2s-.9,2-2,2Z"/>
        <path class="cls-6" d="m4.64,77.63h-2.35c-1.1,0-2-.9-2-2s.9-2,2-2h2.35c1.1,0,2,.9,2,2s-.9,2-2,2Z"/>
        <g>
          <rect class="cls-3" x="32.6" y="40.64" width="15.56" height="47.38" rx="1.26" ry="1.26"/>
          <path class="cls-6" d="m46.9,90.02h-13.04c-1.8,0-3.26-1.46-3.26-3.26v-44.86c0-1.8,1.46-3.26,3.26-3.26h13.04c1.8,0,3.26,1.46,3.26,3.26v44.86c0,1.8-1.46,3.26-3.26,3.26Zm-12.3-4h11.56v-43.38h-11.56v43.38Zm12.3-43.38h0,0Z"/>
        </g>
        <g>
          <rect class="cls-4" x="32.6" y="40.23" width="15.56" height="15.56" rx="1.26" ry="1.26"/>
          <path class="cls-6" d="m46.9,57.79h-13.04c-1.8,0-3.26-1.46-3.26-3.26v-13.04c0-1.8,1.46-3.26,3.26-3.26h13.04c1.8,0,3.26,1.46,3.26,3.26v13.04c0,1.8-1.46,3.26-3.26,3.26Zm-12.3-4h11.56v-11.56h-11.56v11.56Zm12.3-11.56h0,0Z"/>
        </g>
        <path class="cls-6" d="m48.16,64.21h-7.78c-1.1,0-2-.9-2-2s.9-2,2-2h7.78c1.1,0,2,.9,2,2s-.9,2-2,2Z"/>
        <circle class="cls-5" cx="99.1" cy="65.19" r="3.74"/>
        <g>
          <path class="cls-4" d="m86.69,30.23v20.96c0,3,2.43,5.44,5.44,5.44h14.27c-2.65-11.45-9.98-20.87-19.71-26.4Z"/>
          <path class="cls-6" d="m106.4,58.63h-14.27c-4.1,0-7.44-3.34-7.44-7.44v-20.96c0-.71.38-1.37.99-1.73.61-.36,1.37-.36,1.99-.01,10.43,5.93,17.96,16.02,20.67,27.69.14.59,0,1.22-.38,1.7-.38.48-.96.76-1.57.76Zm-17.71-24.78v17.34c0,1.9,1.54,3.44,3.44,3.44h11.67c-2.54-8.41-7.89-15.76-15.1-20.78Z"/>
        </g>
      </g>
      <polygon class="cls-3" points="61.36 29.9 65.8 24.59 59.92 21.89 3.83 21.89 3.83 29.9 61.36 29.9"/>
      <path class="cls-6" d="m57.05,32.23H4.64c-1.1,0-2-.9-2-2s.9-2,2-2h52.4c2.08,0,4.03-.81,5.5-2.27l2.49-2.49c.78-.78,2.05-.78,2.83,0,.78.78.78,2.05,0,2.83l-2.49,2.49c-2.23,2.22-5.18,3.44-8.32,3.44Z"/>
      <path class="cls-6" d="m93.44,90.37H3.83c-1.1,0-2-.9-2-2s.9-2,2-2h89.61c4.31,0,8.98-7.26,10.69-12.5l.93-2.86c.86-2.65,1.04-5.49.52-8.23l-.81-4.22c-3.52-18.35-19.63-31.67-38.32-31.67-.47,0-.93-.17-1.29-.47l-3.01-2.53H8.22c-1.1,0-2-.9-2-2s.9-2,2-2h54.66c.47,0,.93.17,1.29.47l3.02,2.54c20.29.34,37.68,14.92,41.51,34.91l.81,4.22c.65,3.4.43,6.93-.64,10.22l-.93,2.86c-2,6.14-7.51,15.27-14.49,15.27Z"/>
      <path class="cls-6" d="m2.29,23.89c-.13,0-.26-.01-.39-.04-.13-.02-.25-.06-.37-.11-.13-.05-.24-.11-.35-.18-.11-.08-.21-.16-.3-.25-.38-.37-.59-.89-.59-1.42s.21-1.04.59-1.41c.09-.09.19-.18.3-.25s.22-.13.35-.18c.12-.05.24-.09.37-.12.26-.05.52-.05.78,0,.13.03.25.07.38.12.12.05.23.11.34.18.11.07.21.16.3.25.38.37.59.89.59,1.41s-.21,1.05-.59,1.42c-.37.37-.88.58-1.41.58Z"/>
    </g>
  </g>
</svg>