<svg xmlns="http://www.w3.org/2000/svg" id="flatten_icons" data-name="flatten icons" viewBox="0 0 112 112"><defs><style>.cls-2,.cls-3,.cls-4,.cls-6{stroke-width:0}.cls-2{fill:#c4d1d5}.cls-3{fill:#ba6a8f}.cls-4{fill:#b8e1ec}.cls-6{fill:#004241}</style></defs><g id="intercites"><path id="area" d="M0 0h112v112H0z" style="fill:none;stroke-width:0"/><g id="rails"><path d="M97.84 103.04c-1.1 0-2-.9-2-2v-2.87c0-1.1.9-2 2-2s2 .9 2 2v2.87c0 1.1-.9 2-2 2m-14.29 0c-1.1 0-2-.9-2-2v-2.87c0-1.1.9-2 2-2s2 .9 2 2v2.87c0 1.1-.9 2-2 2m-13.74 0c-1.1 0-2-.9-2-2v-2.87c0-1.1.9-2 2-2s2 .9 2 2v2.87c0 1.1-.9 2-2 2m-14.29 0c-1.1 0-2-.9-2-2v-2.87c0-1.1.9-2 2-2s2 .9 2 2v2.87c0 1.1-.9 2-2 2m-14.44 0c-1.1 0-2-.9-2-2v-2.87c0-1.1.9-2 2-2s2 .9 2 2v2.87c0 1.1-.9 2-2 2m-14.29 0c-1.1 0-2-.9-2-2v-2.87c0-1.1.9-2 2-2s2 .9 2 2v2.87c0 1.1-.9 2-2 2m-13.74 0c-1.1 0-2-.9-2-2v-2.87c0-1.1.9-2 2-2s2 .9 2 2v2.87c0 1.1-.9 2-2 2" class="cls-2"/><path d="M105.87 100.17H4.02c-1.1 0-2-.9-2-2s.9-2 2-2h101.85c1.1 0 2 .9 2 2s-.9 2-2 2" class="cls-6"/></g><g id="car"><g id="car-2" data-name="car"><path d="M80.22 82.14c-2.8-1.87-6.37-1.68-8.98.2-.94.68-2.09 1-3.25 1H56.15c-1.18 0-2.33-.35-3.29-1.03-2.46-1.74-5.78-2.02-8.54-.43-3.79 2.19-5.07 7.08-2.85 10.91 2.22 3.84 7.09 5.18 10.88 2.99a7.7 7.7 0 0 0 2.97-3.06c.99-1.83 2.95-2.92 5.03-2.92h3.52c2.13 0 4.03 1.2 5.1 3.04.58.99 1.38 1.87 2.4 2.56 3.61 2.42 8.53 1.41 10.97-2.25 2.45-3.66 1.5-8.58-2.12-11ZM40.54 23.89a2.006 2.006 0 0 1-1.88-2.71l3.55-9.41-5.95-5.99c-.78-.78-.78-2.05 0-2.83s2.05-.77 2.83 0l6.86 6.9c.55.56.73 1.38.45 2.12l-4.01 10.61c-.3.8-1.06 1.29-1.87 1.29Z" class="cls-6"/><path d="M3.83 88.37h89.61c5.73 0 10.81-8.44 12.59-13.89l.93-2.86c.97-2.98 1.17-6.15.58-9.22l-.81-4.22c-3.7-19.32-20.6-33.29-40.28-33.29l-6.54-3H3.83" class="cls-2"/><path d="M3.83 55.67h18.29c.78 0 1.41-.56 1.41-1.26V41.37c0-.7-.63-1.26-1.41-1.26H3.83" class="cls-4"/><path d="M22.12 57.67H3.83c-1.1 0-2-.9-2-2s.9-2 2-2h17.7V42.11H3.83c-1.1 0-2-.9-2-2s.9-2 2-2h18.29c1.88 0 3.41 1.46 3.41 3.26v13.04c0 1.8-1.53 3.26-3.41 3.26" class="cls-6"/><rect width="22.82" height="15.56" x="57.07" y="40.64" class="cls-4" rx="1.26" ry="1.26"/><path d="M78.63 58.2h-20.3a3.26 3.26 0 0 1-3.26-3.26V41.9c0-1.8 1.46-3.26 3.26-3.26h20.3c1.8 0 3.26 1.46 3.26 3.26v13.04c0 1.8-1.46 3.26-3.26 3.26m-19.56-4h18.82V42.64H59.07zm19.56-11.56" class="cls-6"/><path d="M3.83 75.63v12.74h89.61c5.35 0 10.12-7.33 12.18-12.74z" class="cls-3"/><path d="M105.67 77.63H41.14c-1.1 0-2-.9-2-2s.9-2 2-2h64.53c1.1 0 2 .9 2 2s-.9 2-2 2m-73.66 0h-21.2c-1.1 0-2-.9-2-2s.9-2 2-2h21.2c1.1 0 2 .9 2 2s-.9 2-2 2m-27.37 0H2.29c-1.1 0-2-.9-2-2s.9-2 2-2h2.35c1.1 0 2 .9 2 2s-.9 2-2 2" class="cls-6"/><rect width="15.56" height="47.38" x="32.6" y="40.64" class="cls-3" rx="1.26" ry="1.26"/><path d="M46.9 90.02H33.86a3.26 3.26 0 0 1-3.26-3.26V41.9c0-1.8 1.46-3.26 3.26-3.26H46.9c1.8 0 3.26 1.46 3.26 3.26v44.86c0 1.8-1.46 3.26-3.26 3.26m-12.3-4h11.56V42.64H34.6zm12.3-43.38" class="cls-6"/><rect width="15.56" height="15.56" x="32.6" y="40.23" class="cls-4" rx="1.26" ry="1.26"/><path d="M46.9 57.79H33.86a3.26 3.26 0 0 1-3.26-3.26V41.49c0-1.8 1.46-3.26 3.26-3.26H46.9c1.8 0 3.26 1.46 3.26 3.26v13.04c0 1.8-1.46 3.26-3.26 3.26m-12.3-4h11.56V42.23H34.6zm13.56 10.42h-7.78c-1.1 0-2-.9-2-2s.9-2 2-2h7.78c1.1 0 2 .9 2 2s-.9 2-2 2" class="cls-6"/><circle cx="99.1" cy="65.19" r="3.74" style="stroke-width:0;fill:#efefef"/><path d="M86.69 30.23v20.96c0 3 2.43 5.44 5.44 5.44h14.27c-2.65-11.45-9.98-20.87-19.71-26.4" class="cls-4"/><path d="M106.4 58.63H92.13c-4.1 0-7.44-3.34-7.44-7.44V30.23c0-.71.38-1.37.99-1.73s1.37-.36 1.99-.01c10.43 5.93 17.96 16.02 20.67 27.69a2.003 2.003 0 0 1-1.95 2.46ZM88.69 33.85v17.34c0 1.9 1.54 3.44 3.44 3.44h11.67a39.2 39.2 0 0 0-15.1-20.78Z" class="cls-6"/></g><path d="m61.36 29.9 4.44-5.31-5.88-2.7H3.83v8.01z" class="cls-3"/><path d="M57.05 32.23H4.64c-1.1 0-2-.9-2-2s.9-2 2-2h52.4c2.08 0 4.03-.81 5.5-2.27l2.49-2.49c.78-.78 2.05-.78 2.83 0s.78 2.05 0 2.83l-2.49 2.49a11.7 11.7 0 0 1-8.32 3.44" class="cls-6"/><path d="M93.44 90.37H3.83c-1.1 0-2-.9-2-2s.9-2 2-2h89.61c4.31 0 8.98-7.26 10.69-12.5l.93-2.86c.86-2.65 1.04-5.49.52-8.23l-.81-4.22c-3.52-18.35-19.63-31.67-38.32-31.67-.47 0-.93-.17-1.29-.47l-3.01-2.53H8.22c-1.1 0-2-.9-2-2s.9-2 2-2h54.66c.47 0 .93.17 1.29.47l3.02 2.54c20.29.34 37.68 14.92 41.51 34.91l.81 4.22c.65 3.4.43 6.93-.64 10.22l-.93 2.86c-2 6.14-7.51 15.27-14.49 15.27ZM2.29 23.89c-.13 0-.26-.01-.39-.04-.13-.02-.25-.06-.37-.11-.13-.05-.24-.11-.35-.18-.11-.08-.21-.16-.3-.25-.38-.37-.59-.89-.59-1.42s.21-1.04.59-1.41a1.8 1.8 0 0 1 .65-.43c.12-.05.24-.09.37-.12q.39-.075.78 0c.13.03.25.07.38.12.12.05.23.11.34.18s.21.16.3.25c.38.37.59.89.59 1.41s-.21 1.05-.59 1.42c-.37.37-.88.58-1.41.58" class="cls-6"/></g></g></svg>