<?xml version="1.0" encoding="UTF-8"?>
<svg id="flatten_icons" data-name="flatten icons" xmlns="http://www.w3.org/2000/svg" viewBox="0 0 112 112">
  <defs>
    <style>
      .cls-1 {
        fill: none;
      }

      .cls-1, .cls-2, .cls-3, .cls-4, .cls-5 {
        stroke-width: 0px;
      }

      .cls-2 {
        fill: #86c1e7;
      }

      .cls-3 {
        fill: #b0daf1;
      }

      .cls-4 {
        fill: #ead25e;
      }

      .cls-5 {
        fill: #004241;
      }
    </style>
  </defs>
  <g id="jeans">
    <g>
      <g>
        <path class="cls-2" d="m35.85,8.93s-6.31,4.59-11.14,28.66-6.31,69.28-6.31,69.28c0,0,5.18,3.12,16.27,3.12l21.33-72.69V8.93h-20.15Z"/>
        <path class="cls-5" d="m34.67,112c-11.52,0-17.08-3.27-17.31-3.41-.62-.37-.99-1.05-.97-1.78.01-.45,1.54-45.65,6.35-69.61,4.84-24.14,11.22-29.37,11.93-29.89.34-.25.75-.38,1.18-.38h20.15c1.1,0,2,.9,2,2v28.38c0,.19-.03.38-.08.56l-21.33,72.69c-.25.85-1.03,1.44-1.92,1.44Zm-14.23-6.36c1.79.75,5.99,2.15,12.74,2.34l20.82-70.95V10.93h-17.35c-1.41,1.55-6.16,7.98-9.99,27.06-4.29,21.36-5.94,60.08-6.22,67.65Z"/>
      </g>
      <g>
        <path class="cls-2" d="m76.15,8.93s6.31,4.59,11.14,28.66c4.83,24.07,6.31,69.28,6.31,69.28,0,0-5.18,3.12-16.27,3.12l-21.33-72.69V8.93h20.15Z"/>
        <path class="cls-5" d="m77.33,112c-.89,0-1.67-.58-1.92-1.44l-21.33-72.69c-.05-.18-.08-.37-.08-.56V8.93c0-1.1.9-2,2-2h20.15c.42,0,.83.13,1.18.38.71.52,7.08,5.75,11.93,29.89,4.81,23.96,6.33,69.15,6.35,69.61.02.72-.35,1.4-.97,1.78-.23.14-5.79,3.41-17.31,3.41Zm-19.33-74.97l20.82,70.95c6.75-.18,10.94-1.58,12.74-2.34-.29-7.57-1.94-46.29-6.22-67.65-3.83-19.08-8.58-25.5-9.99-27.06h-17.35v26.09Z"/>
      </g>
      <path class="cls-5" d="m56,33.79c-.74,0-1.45-.41-1.8-1.12-.49-.99-.07-2.19.92-2.67l3.46-1.69c2.11-1.03,3.48-3.4,3.48-6.04v-13.34c0-1.1.9-2,2-2s2,.9,2,2v13.34c0,4.15-2.25,7.93-5.72,9.63l-3.46,1.69c-.28.14-.58.2-.88.2Z"/>
      <g>
        <rect class="cls-3" x="35.85" y="2" width="40.53" height="6.93"/>
        <path class="cls-5" d="m76.38,10.93h-40.53c-1.1,0-2-.9-2-2V2C33.85.9,34.74,0,35.85,0h40.53C77.48,0,78.38.9,78.38,2v6.93c0,1.1-.9,2-2,2Zm-38.53-4h36.53v-2.93h-36.53v2.93Z"/>
      </g>
      <path class="cls-3" d="m34.77,70.36h-4.86c-1.1,0-2-.9-2-2s.9-2,2-2h4.86c1.1,0,2,.9,2,2s-.9,2-2,2Z"/>
      <path class="cls-3" d="m81.81,70.36h-4.86c-1.1,0-2-.9-2-2s.9-2,2-2h4.86c1.1,0,2,.9,2,2s-.9,2-2,2Z"/>
      <path class="cls-3" d="m81.81,64.48h-8.86c-1.1,0-2-.9-2-2s.9-2,2-2h8.86c1.1,0,2,.9,2,2s-.9,2-2,2Z"/>
      <g>
        <path class="cls-3" d="m34.83,9.97c-1.57,1.88-4.73,6.71-7.79,17.73l.44.17s5.94,2.18,8.55-2.77c2.61-4.95,0-13.5,0-13.5l-1.21-1.63Z"/>
        <path class="cls-5" d="m30.38,30.36c-1.4,0-2.67-.27-3.59-.61l-.48-.18c-.96-.37-1.48-1.41-1.2-2.4,3.15-11.33,6.48-16.44,8.18-18.48.39-.47.98-.73,1.59-.71.61.02,1.18.32,1.55.81l1.21,1.63c.14.18.24.39.31.61.12.38,2.82,9.41-.14,15.02-1.77,3.35-4.8,4.32-7.43,4.32Zm-.86-4.05c1.42.19,3.58.06,4.75-2.14,1.46-2.76.91-7.41.29-10.26-1.37,2.36-3.2,6.25-5.04,12.4Z"/>
      </g>
      <g>
        <path class="cls-3" d="m75.06,11.6s-2.61,8.55,0,13.5c2.61,4.95,8.55,2.77,8.55,2.77l1.25-.52c-3.62-12.85-7.35-17.14-8.41-18.15l-1.4,2.41Z"/>
        <path class="cls-5" d="m80.7,30.35c-2.64,0-5.65-.97-7.41-4.31-2.96-5.61-.26-14.64-.14-15.02.04-.15.11-.29.18-.42l1.4-2.41c.31-.53.84-.89,1.45-.98.6-.09,1.22.11,1.66.53,1.47,1.41,5.3,6.08,8.95,19.06.27.97-.22,2-1.16,2.39l-1.25.52c-.95.35-2.26.63-3.68.63Zm-3.91-17.51c-.68,2.6-1.62,8.19.04,11.33,1.43,2.7,4.38,2.28,5.6,1.97-2.12-7.06-4.21-11.11-5.64-13.3Z"/>
      </g>
      <g>
        <path class="cls-3" d="m18.39,106.88s5.18,3.12,16.27,3.12l1.89-6.44c-8.48-.5-14.39-2.21-17.88-3.57-.2,4.29-.28,6.89-.28,6.89Z"/>
        <path class="cls-5" d="m34.67,112c-11.52,0-17.08-3.27-17.31-3.41-.62-.37-.99-1.05-.97-1.78,0,0,.08-2.62.28-6.92.03-.64.37-1.23.91-1.59.54-.35,1.22-.42,1.82-.19,3.33,1.3,9.02,2.95,17.27,3.44.61.04,1.17.35,1.52.85.35.5.46,1.13.28,1.71l-1.89,6.44c-.25.85-1.03,1.44-1.92,1.44Zm-14.23-6.36c1.8.76,5.99,2.15,12.74,2.34l.77-2.61c-5.71-.52-10.16-1.57-13.39-2.6-.05,1.2-.09,2.17-.11,2.87Z"/>
      </g>
      <g>
        <path class="cls-3" d="m77.33,110c11.1,0,16.27-3.12,16.27-3.12,0,0-.08-2.42-.26-6.44-6.07,1.6-12.7,2.55-17.91,3.1l1.9,6.46Z"/>
        <path class="cls-5" d="m77.33,112c-.89,0-1.67-.58-1.92-1.44l-1.9-6.46c-.17-.57-.07-1.18.26-1.68.33-.49.86-.81,1.45-.88,6.63-.7,12.72-1.75,17.61-3.05.58-.15,1.21-.04,1.7.32.49.36.79.92.81,1.52.18,4.04.26,6.47.26,6.47.02.72-.35,1.4-.97,1.78-.23.14-5.79,3.41-17.31,3.41Zm.69-6.74l.8,2.72c6.75-.18,10.94-1.58,12.74-2.34-.02-.66-.06-1.57-.11-2.68-3.99.93-8.49,1.7-13.43,2.29Z"/>
      </g>
      <g>
        <circle class="cls-4" cx="59.79" cy="7.02" r="4.3"/>
        <path class="cls-5" d="m59.79,13.32c-3.47,0-6.29-2.82-6.29-6.3s2.82-6.3,6.29-6.3,6.3,2.82,6.3,6.3-2.82,6.3-6.3,6.3Zm0-8.59c-1.27,0-2.29,1.03-2.29,2.3s1.03,2.3,2.29,2.3,2.3-1.03,2.3-2.3-1.03-2.3-2.3-2.3Z"/>
      </g>
    </g>
    <rect class="cls-1" width="112" height="112"/>
  </g>
</svg>