<svg xmlns="http://www.w3.org/2000/svg" id="flatten_icons" data-name="flatten icons" viewBox="0 0 112 112"><defs><style>.cls-3,.cls-6{stroke-width:0}.cls-3{fill:#fff}.cls-6{fill:#004241}</style></defs><g id="jet"><path id="area" d="M0 0h112v112H0z" style="fill:none;stroke-width:0"/><g id="sky"><path id="sky-2" d="m27.28 21.57-2.81 2.61C11.96 35.82 4.58 54.27 4.58 73.89v4.41c0 14.34 10.89 25.97 24.33 25.97h53.97c13.43 0 24.33-11.63 24.33-25.97v-5.06c0-19.26-7.11-37.41-19.24-49.09l-2.04-1.96C68.66 5.55 44.77 5.3 27.28 21.57" data-name="sky" style="stroke-width:0;fill:#ffe780"/><g id="cloud-01"><path d="M72.94 91.51c-3.72-3.06-5.57-12.34 3.51-14.97 9.39-2.72 12.7 4.59 12.7 4.59 12.36-.34 11.84 10.21 11.84 10.21 9.68-.68 6.35 6.3 6.35 6.3H72.57c-1.78 0-2.8-1.99-1.73-3.39z" class="cls-3"/><path d="M107.34 99.64h-39.1c-1.1 0-2-.9-2-2s.9-2 2-2h37.61c.07-.5.05-1.03-.19-1.39-.51-.74-2.21-1.08-4.54-.91a2.008 2.008 0 0 1-2.14-2.1c0-.02.1-3.41-2.2-5.74-1.65-1.67-4.21-2.47-7.59-2.37-.8.02-1.55-.44-1.88-1.18-.27-.57-2.91-5.64-10.32-3.5-2.84.82-4.52 2.4-5 4.69-.54 2.64.72 5.59 2.21 6.81.85.7.97 1.96.27 2.82-.7.85-1.96.97-2.82.27-2.46-2.03-4.48-6.36-3.58-10.71.77-3.75 3.54-6.49 7.8-7.72 7.7-2.23 12.45 1.49 14.43 4.51 3.98.11 7.13 1.32 9.36 3.6 2.1 2.15 2.88 4.77 3.16 6.57 2.93.11 4.99 1.01 6.14 2.7 1.87 2.74.35 6.12.17 6.49-.33.7-1.03 1.14-1.81 1.14Z" style="stroke-width:0;fill:#014241"/></g><path d="M18.78 77.94a17.06 17.06 0 0 0-13.49 6.57c2.61 11.35 12.19 19.77 23.62 19.77h3.56c2.04-2.74 3.26-6.1 3.26-9.75 0-9.16-7.59-16.59-16.96-16.59Z" style="stroke-width:0;fill:#ef706b"/></g><g id="plane"><path d="M105.82 29.94 94.6 28.61l-10.45-4.8c-2.2-1.01-4.68-1.21-7.01-.55l-11.45 3.21s-18.01-10.19-21.6-11.08c-3.6-.89-5.59.14-8.5.96s-1.63 3.45-1.63 3.45l12.65 13.72-10.47 2.62a10 10 0 0 1-10.55-3.44l-6.3-7.99a6.71 6.71 0 0 0-7.08-2.31l-2.81.79a4.655 4.655 0 0 0-3.23 5.74l2.35 8.4c1.09 3.91 3.59 7.28 7.01 9.46l11.31 7.22c7.73 4.94 12.2 6.35 21.04 3.87l31.98-8.95c3.7-1.04 7.3-2.41 10.75-4.11l16.38-8.06c3.22-1.58 2.39-6.38-1.17-6.81Z" class="cls-3"/><path d="M47.27 33.92c-.49 0-.98-.18-1.37-.54l-12.71-11.9-.09-.09a4.17 4.17 0 0 1-1-4.03 4.18 4.18 0 0 1 2.93-2.94l3.66-1.02c2.69-.75 5.63-.4 8.06.98l11.79 6.1c.98.51 1.36 1.71.86 2.7-.51.98-1.72 1.37-2.7.86L44.85 17.9c-1.58-.89-3.41-1.11-5.08-.64l-3.66 1.02s-.12.03-.16.16c-.03.09 0 .15.03.19l12.65 11.84c.81.76.85 2.02.09 2.83-.39.42-.93.63-1.46.63Z" class="cls-6"/><path d="M38.31 60.41c-3.87 0-7.04-1.3-11.66-4.17a1.987 1.987 0 0 1-.64-2.75c.58-.94 1.82-1.23 2.75-.64 6.71 4.17 9.18 4.46 17.59 2.11l31.98-8.95c3.57-1 7.07-2.34 10.4-3.98.04-.02.09-.04.13-.06l17.3-7.03c.94-.5.86-1.41.82-1.68-.05-.28-.29-1.19-1.39-1.32l-9.5-1.13c-1.35-.16-2.66-.53-3.9-1.1l-8.88-4.08a8.25 8.25 0 0 0-5.64-.45L36.73 38.04c-4.74 1.33-9.71-.29-12.72-4.11l-6.3-7.99a4.7 4.7 0 0 0-4.97-1.62l-2.81.79a2.656 2.656 0 0 0-1.84 3.27l2.35 8.4c.96 3.44 3.15 6.39 6.16 8.32.93.59 1.2 1.83.61 2.76s-1.83 1.2-2.76.61a18.48 18.48 0 0 1-7.86-10.61l-2.35-8.4c-.99-3.53 1.08-7.21 4.61-8.2l2.81-.79c3.4-.95 7.01.22 9.19 3l6.3 7.99a7.99 7.99 0 0 0 8.44 2.75l40.94-12.86c2.84-.8 5.82-.56 8.44.64l8.88 4.08c.86.39 1.76.65 2.7.76l9.5 1.13c2.52.3 4.43 2.11 4.86 4.61s-.77 4.85-3.05 5.97c-.04.02-.09.04-.13.06l-17.31 7.04a65 65 0 0 1-11.03 4.21L47.41 58.8c-3.74 1.05-6.58 1.61-9.12 1.61Z" class="cls-6"/><path d="M15.54 46.79 9.43 58.13c-.67 1.25.48 2.69 1.85 2.31l3.78-1.06c1.11-.31 2.07-.99 2.74-1.93l9.46-13.36" class="cls-3"/><path d="M10.84 62.49c-1.08 0-2.12-.48-2.81-1.35a3.62 3.62 0 0 1-.36-3.96l6.11-11.34c.52-.97 1.74-1.34 2.71-.81.97.52 1.34 1.74.81 2.71l-5.67 10.52 2.89-.81c.66-.19 1.25-.6 1.65-1.16l9.46-13.36c.64-.9 1.89-1.11 2.79-.48.9.64 1.11 1.89.48 2.79L19.44 58.6a7.04 7.04 0 0 1-3.83 2.7l-3.78 1.06c-.32.09-.65.13-.97.13Z" class="cls-6"/><path d="M48.59 50.4 36.92 74.59c-.64 1.24.51 2.64 1.85 2.27l5.7-1.6a9.8 9.8 0 0 0 5.1-3.44l20.22-26.25" class="cls-3"/><path d="M38.33 78.91c-1.06 0-2.09-.47-2.79-1.33a3.62 3.62 0 0 1-.41-3.92l11.65-24.14c.48-1 1.68-1.41 2.67-.93 1 .48 1.41 1.68.93 2.67l-11.3 23.42 4.83-1.35c1.6-.45 3.04-1.42 4.06-2.74l20.22-26.25c.67-.87 1.93-1.04 2.81-.36.88.67 1.04 1.93.36 2.81L51.14 73.04c-1.54 2-3.72 3.47-6.15 4.15l-5.7 1.6c-.32.09-.65.13-.97.13Zm29.8-41.54c-.53 0-1.04-.21-1.41-.59-.38-.37-.59-.88-.59-1.41s.21-1.04.59-1.41c.74-.75 2.08-.75 2.82 0 .38.37.59.88.59 1.41s-.21 1.04-.59 1.41c-.37.38-.88.59-1.41.59m-9.41 2.4c-.52 0-1.04-.22-1.41-.59-.09-.09-.18-.2-.25-.31-.07-.1-.13-.22-.18-.34s-.09-.25-.12-.37a3 3 0 0 1-.04-.4c0-.52.22-1.04.59-1.41.75-.74 2.08-.74 2.83 0 .37.37.58.89.58 1.41 0 .13 0 .27-.04.4-.02.12-.06.25-.11.37s-.11.24-.18.34c-.08.11-.16.22-.25.31-.37.37-.89.59-1.42.59m-10.36 2.59c-.53 0-1.04-.22-1.42-.59-.37-.37-.58-.89-.58-1.41 0-.14 0-.27.04-.39.02-.13.06-.26.11-.38s.11-.24.18-.34c.08-.11.16-.22.25-.31a2.044 2.044 0 0 1 2.53-.25c.11.08.21.16.3.25s.18.2.25.31c.07.1.14.22.19.34s.08.25.11.38a1.98 1.98 0 0 1-.55 1.8c-.09.09-.19.18-.3.25s-.23.13-.35.18-.24.09-.37.12c-.13.02-.26.04-.39.04" class="cls-6"/><path d="m82.89 31.59 10.34-3.61" style="stroke-width:0;fill:#b8e1ec"/><path d="M82.89 33.59c-.83 0-1.6-.52-1.89-1.34-.36-1.04.19-2.18 1.23-2.55l10.34-3.61c1.04-.36 2.18.19 2.55 1.23.36 1.04-.19 2.18-1.23 2.55l-10.34 3.61c-.22.08-.44.11-.66.11" class="cls-6"/></g></g></svg>