<?xml version="1.0" encoding="UTF-8"?>
<svg id="flatten_icons" data-name="flatten icons" xmlns="http://www.w3.org/2000/svg" viewBox="0 0 112 112">
  <defs>
    <style>
      .cls-1 {
        fill: none;
      }

      .cls-1, .cls-2, .cls-3, .cls-4, .cls-5, .cls-6, .cls-7 {
        stroke-width: 0px;
      }

      .cls-2 {
        fill: #b8e1ec;
      }

      .cls-3 {
        fill: #fff;
      }

      .cls-4 {
        fill: #ef706b;
      }

      .cls-5 {
        fill: #ffe780;
      }

      .cls-6 {
        fill: #004241;
      }

      .cls-7 {
        fill: #014241;
      }
    </style>
  </defs>
  <g id="jet">
    <g id="area">
      <rect class="cls-1" width="112" height="112"/>
    </g>
    <g id="sky">
      <g id="sky-2" data-name="sky">
        <path class="cls-5" d="m27.28,21.57l-2.81,2.61c-12.51,11.64-19.89,30.09-19.89,49.71v4.41c0,14.34,10.89,25.97,24.33,25.97h53.97c13.43,0,24.33-11.63,24.33-25.97v-5.06c0-19.26-7.11-37.41-19.24-49.09l-2.04-1.96c-17.27-16.64-41.16-16.89-58.65-.62Z"/>
      </g>
      <g id="cloud-01">
        <path class="cls-3" d="m72.94,91.51c-3.72-3.06-5.57-12.34,3.51-14.97,9.39-2.72,12.7,4.59,12.7,4.59,12.36-.34,11.84,10.21,11.84,10.21,9.68-.68,6.35,6.3,6.35,6.3h-34.77c-1.78,0-2.8-1.99-1.73-3.39l2.1-2.74Z"/>
        <path class="cls-7" d="m107.34,99.64h-39.1c-1.1,0-2-.9-2-2s.9-2,2-2h37.61c.07-.5.05-1.03-.19-1.39-.51-.74-2.21-1.08-4.54-.91-.57.04-1.13-.17-1.54-.57s-.63-.96-.6-1.53c0-.02.1-3.41-2.2-5.74-1.65-1.67-4.21-2.47-7.59-2.37-.8.02-1.55-.44-1.88-1.18-.27-.57-2.91-5.64-10.32-3.5-2.84.82-4.52,2.4-5,4.69-.54,2.64.72,5.59,2.21,6.81.85.7.97,1.96.27,2.82-.7.85-1.96.97-2.82.27-2.46-2.03-4.48-6.36-3.58-10.71.77-3.75,3.54-6.49,7.8-7.72,7.7-2.23,12.45,1.49,14.43,4.51,3.98.11,7.13,1.32,9.36,3.6,2.1,2.15,2.88,4.77,3.16,6.57,2.93.11,4.99,1.01,6.14,2.7,1.87,2.74.35,6.12.17,6.49-.33.7-1.03,1.14-1.81,1.14Z"/>
      </g>
      <path class="cls-4" d="m18.78,77.94c-5.51,0-10.39,2.59-13.49,6.57,2.61,11.35,12.19,19.77,23.62,19.77h3.56c2.04-2.74,3.26-6.1,3.26-9.75,0-9.16-7.59-16.59-16.96-16.59Z"/>
    </g>
    <g id="plane">
      <path class="cls-3" d="m105.82,29.94l-11.22-1.33-10.45-4.8c-2.2-1.01-4.68-1.21-7.01-.55l-11.45,3.21s-18.01-10.19-21.6-11.08c-3.6-.89-5.59.14-8.5.96s-1.63,3.45-1.63,3.45l12.65,13.72-10.47,2.62c-3.89,1.09-8.05-.27-10.55-3.44l-6.3-7.99c-1.68-2.13-4.47-3.04-7.08-2.31l-2.81.79c-2.48.69-3.92,3.26-3.23,5.74l2.35,8.4c1.09,3.91,3.59,7.28,7.01,9.46l11.31,7.22c7.73,4.94,12.2,6.35,21.04,3.87l31.98-8.95c3.7-1.04,7.3-2.41,10.75-4.11l16.38-8.06c3.22-1.58,2.39-6.38-1.17-6.81Z"/>
      <path class="cls-6" d="m47.27,33.92c-.49,0-.98-.18-1.37-.54l-12.71-11.9s-.06-.06-.09-.09c-1.03-1.08-1.4-2.59-1-4.03.4-1.44,1.49-2.54,2.93-2.94l3.66-1.02c2.69-.75,5.63-.4,8.06.98l11.79,6.1c.98.51,1.36,1.71.86,2.7-.51.98-1.72,1.37-2.7.86l-11.85-6.14c-1.58-.89-3.41-1.11-5.08-.64l-3.66,1.02s-.12.03-.16.16c-.03.09,0,.15.03.19l12.65,11.84c.81.76.85,2.02.09,2.83-.39.42-.93.63-1.46.63Z"/>
      <path class="cls-6" d="m38.31,60.41c-3.87,0-7.04-1.3-11.66-4.17-.94-.58-1.23-1.82-.64-2.75.58-.94,1.82-1.23,2.75-.64,6.71,4.17,9.18,4.46,17.59,2.11l31.98-8.95c3.57-1,7.07-2.34,10.4-3.98.04-.02.09-.04.13-.06l17.3-7.03c.94-.5.86-1.41.82-1.68-.05-.28-.29-1.19-1.39-1.32l-9.5-1.13c-1.35-.16-2.66-.53-3.9-1.1l-8.88-4.08c-1.77-.81-3.77-.97-5.64-.45l-40.94,12.86c-4.74,1.33-9.71-.29-12.72-4.11l-6.3-7.99c-1.18-1.5-3.13-2.13-4.97-1.62l-2.81.79c-1.41.39-2.23,1.86-1.84,3.27l2.35,8.4c.96,3.44,3.15,6.39,6.16,8.32.93.59,1.2,1.83.61,2.76-.59.93-1.83,1.2-2.76.61-3.84-2.45-6.63-6.22-7.86-10.61l-2.35-8.4c-.99-3.53,1.08-7.21,4.61-8.2l2.81-.79c3.4-.95,7.01.22,9.19,3l6.3,7.99c2.01,2.54,5.31,3.62,8.44,2.75l40.94-12.86c2.84-.8,5.82-.56,8.44.64l8.88,4.08c.86.39,1.76.65,2.7.76l9.5,1.13c2.52.3,4.43,2.11,4.86,4.61.43,2.5-.77,4.85-3.05,5.97-.04.02-.09.04-.13.06l-17.31,7.04c-3.53,1.73-7.24,3.15-11.03,4.21l-31.98,8.95c-3.74,1.05-6.58,1.61-9.12,1.61Z"/>
      <g>
        <path class="cls-3" d="m15.54,46.79l-6.11,11.34c-.67,1.25.48,2.69,1.85,2.31l3.78-1.06c1.11-.31,2.07-.99,2.74-1.93l9.46-13.36"/>
        <path class="cls-6" d="m10.84,62.49c-1.08,0-2.12-.48-2.81-1.35-.9-1.13-1.04-2.69-.36-3.96l6.11-11.34c.52-.97,1.74-1.34,2.71-.81.97.52,1.34,1.74.81,2.71l-5.67,10.52,2.89-.81c.66-.19,1.25-.6,1.65-1.16l9.46-13.36c.64-.9,1.89-1.11,2.79-.48.9.64,1.11,1.89.48,2.79l-9.46,13.36c-.93,1.31-2.29,2.27-3.83,2.7l-3.78,1.06c-.32.09-.65.13-.97.13Z"/>
      </g>
      <g>
        <path class="cls-3" d="m48.59,50.4l-11.67,24.19c-.64,1.24.51,2.64,1.85,2.27l5.7-1.6c2.03-.57,3.82-1.78,5.1-3.44l20.22-26.25"/>
        <path class="cls-6" d="m38.33,78.91c-1.06,0-2.09-.47-2.79-1.33-.9-1.11-1.06-2.65-.41-3.92l11.65-24.14c.48-1,1.68-1.41,2.67-.93,1,.48,1.41,1.68.93,2.67l-11.3,23.42,4.83-1.35c1.6-.45,3.04-1.42,4.06-2.74l20.22-26.25c.67-.87,1.93-1.04,2.81-.36.88.67,1.04,1.93.36,2.81l-20.22,26.25c-1.54,2-3.72,3.47-6.15,4.15l-5.7,1.6c-.32.09-.65.13-.97.13Zm.39-3.47h0s0,0,0,0Z"/>
      </g>
      <path class="cls-6" d="m68.13,37.37c-.53,0-1.04-.21-1.41-.59-.38-.37-.59-.88-.59-1.41s.21-1.04.59-1.41c.74-.75,2.08-.75,2.82,0,.38.37.59.88.59,1.41s-.21,1.04-.59,1.41c-.37.38-.88.59-1.41.59Z"/>
      <path class="cls-6" d="m58.72,39.77c-.52,0-1.04-.22-1.41-.59-.09-.09-.18-.2-.25-.31-.07-.1-.13-.22-.18-.34-.05-.12-.09-.25-.12-.37-.02-.13-.04-.27-.04-.4,0-.52.22-1.04.59-1.41.75-.74,2.08-.74,2.83,0,.37.37.58.89.58,1.41,0,.13,0,.27-.04.4-.02.12-.06.25-.11.37-.05.12-.11.24-.18.34-.08.11-.16.22-.25.31-.37.37-.89.59-1.42.59Z"/>
      <path class="cls-6" d="m48.36,42.36c-.53,0-1.04-.22-1.42-.59-.37-.37-.58-.89-.58-1.41,0-.14,0-.27.04-.39.02-.13.06-.26.11-.38.05-.12.11-.24.18-.34.08-.11.16-.22.25-.31.47-.46,1.16-.67,1.81-.54.13.02.25.06.37.11.12.05.24.11.35.18.11.08.21.16.3.25.09.09.18.2.25.31.07.1.14.22.19.34.05.12.08.25.11.38.03.12.04.26.04.39,0,.52-.21,1.04-.59,1.41-.09.09-.19.18-.3.25s-.23.13-.35.18c-.12.05-.24.09-.37.12-.13.02-.26.04-.39.04Z"/>
      <g>
        <line class="cls-2" x1="82.89" y1="31.59" x2="93.23" y2="27.98"/>
        <path class="cls-6" d="m82.89,33.59c-.83,0-1.6-.52-1.89-1.34-.36-1.04.19-2.18,1.23-2.55l10.34-3.61c1.04-.36,2.18.19,2.55,1.23.36,1.04-.19,2.18-1.23,2.55l-10.34,3.61c-.22.08-.44.11-.66.11Z"/>
      </g>
    </g>
  </g>
</svg>