<svg xmlns="http://www.w3.org/2000/svg" id="flatten_icons" data-name="flatten icons" viewBox="0 0 112 112"><defs><style>.cls-7{stroke-width:0;fill:#004241}</style></defs><path d="M0 0h112v112H0z" style="fill:none;stroke-width:0"/><path d="M75.13 23.91c-1.57-.04-3.12.06-4.63.28a99.9 99.9 0 0 1-28.99 0c-1.51-.22-3.06-.32-4.63-.28C19.61 24.3 6.01 40.35 6.01 60.3s14.11 36.4 31.51 36.4c1.48 0 2.94-.12 4.36-.35a88.7 88.7 0 0 1 28.26 0c1.43.23 2.88.35 4.36.35 17.4 0 31.51-16.3 31.51-36.4 0-19.96-13.6-36-30.87-36.39Z" style="stroke-width:0;fill:#ffc239"/><path d="M74.49 98.7c-1.56 0-3.14-.12-4.68-.37a87 87 0 0 0-27.62 0c-1.55.25-3.12.37-4.68.37C19.03 98.7 4 81.47 4 60.3s14.42-37.98 32.83-38.39c1.66-.04 3.33.06 4.97.3a98 98 0 0 0 28.4 0c1.64-.24 3.31-.35 4.97-.3C93.58 22.33 108 39.19 108 60.3S92.97 98.7 74.49 98.7M56 93.22c4.83 0 9.65.38 14.45 1.15 1.33.21 2.7.32 4.05.32 16.27 0 29.51-15.43 29.51-34.4S91.31 26.27 75.09 25.9c-1.44-.03-2.89.06-4.3.26-9.81 1.44-19.75 1.44-29.57 0-1.41-.21-2.86-.29-4.3-.26C20.7 26.27 8 41.38 8 60.29s13.24 34.4 29.51 34.4c1.35 0 2.71-.11 4.05-.32 4.79-.77 9.62-1.15 14.44-1.15" class="cls-7"/><path d="M23.02 27.61s.27-2.36 3.71-3.71 9.53-3.05 9.53-3.05-1.32-3.95 2.38-3.39 10.06 3.67 10.06 3.67-3.44-7.06 3.44-5.65 10.32 2.54 14.56 1.98 9 0 9 1.98-.57 4.46-.57 4.46 8.51-.91 11.16 0 1.95 3.01 4.3 4.65 3.11 4.17 1.79 5.3-5.82 1.98-9.79 0-5.23.12-12.38 1.81c-4.63 1.1-8.27-2.47-9.47-2.25-.63.11-8.48 6.45-9.65 6.87-3.5 1.28-13.99-.98-15.09-3.95-.29-.78 2.48-4.73 6.35-8.7-3.71 0-10.61 1.98-12.85 3.11s-4.46-.39-4.46-.39l-2.03-2.73Z" style="stroke-width:0;fill:#88b559"/><path d="M48.41 42.59c-5.13 0-12.96-2-14.29-5.57-.55-1.49.97-4.04 3.07-6.65-2.81.64-5.63 1.56-6.79 2.15-2.6 1.31-5.3.29-6.49-.52-.18-.13-.34-.28-.48-.46l-2.03-2.73c-.3-.41-.44-.92-.38-1.42.04-.36.54-3.6 4.97-5.34 2.39-.94 5.94-2.02 8.03-2.63 0-.88.2-1.88.9-2.71.62-.74 1.82-1.55 4.02-1.22 2.04.31 4.73 1.29 6.9 2.18.02-.96.25-1.93.89-2.75 1.15-1.48 3.1-1.95 5.81-1.39 1.4.29 2.65.56 3.8.81 4.4.96 7.06 1.54 10.09 1.14 1.22-.16 7.43-.86 10.08 1.46.76.67 1.18 1.55 1.18 2.5 0 .73-.07 1.52-.16 2.24 2.93-.21 7.33-.38 9.39.32 2.2.75 2.96 2.2 3.51 3.25.36.69.62 1.18 1.29 1.65 1.96 1.37 3.19 3.32 3.29 5.22.06 1.3-.41 2.45-1.34 3.24-1.89 1.61-7.24 2.63-11.98.27-1.91-.95-2.71-.67-5.38.27-1.42.5-3.2 1.12-5.65 1.7-3.83.91-7.01-.73-8.92-1.7l-.7-.35c-.79.55-2.23 1.64-3.35 2.48-3.83 2.89-5.15 3.84-5.93 4.12-.81.3-1.99.44-3.36.44Zm-10.24-6.62c1.76 1.55 9.52 3.41 12.23 2.42.52-.26 3.15-2.25 4.89-3.56 3.96-2.99 4.39-3.27 5.09-3.4 1.06-.19 2 .29 3.19.9 1.6.82 3.78 1.94 6.17 1.37 2.25-.53 3.91-1.12 5.25-1.58 2.94-1.03 5.06-1.77 8.48-.07 3.2 1.59 6.76.87 7.55.31.02-.33-.36-1.33-1.58-2.17-1.47-1.02-2.09-2.21-2.54-3.07-.44-.83-.57-1.09-1.26-1.32-1.53-.53-6.94-.25-10.3.1-.64.07-1.28-.18-1.71-.66s-.6-1.14-.45-1.77c0-.02.45-1.98.51-3.63-.82-.42-3.38-.83-6.73-.38-3.73.5-6.81-.18-11.48-1.2-1.13-.25-2.37-.52-3.75-.8-1.45-.3-1.87-.05-1.87-.05-.16.31.08 1.71.63 2.86.37.77.21 1.69-.39 2.29s-1.52.75-2.29.38c-1.69-.83-6.69-3.07-9.48-3.49-.13-.02-.23-.03-.31-.03 0 .26.06.62.13.81a1.997 1.997 0 0 1-1.36 2.56c-.06.02-6.03 1.68-9.33 2.98-1.24.49-1.87 1.1-2.18 1.55l1.11 1.5c.42.21 1.36.56 2.2.13 2.6-1.31 9.79-3.32 13.75-3.32a1.997 1.997 0 0 1 1.43 3.39c-3.09 3.16-4.98 5.79-5.61 6.95Z" class="cls-7"/><path d="M15.5 61.28h-.05c-1.1-.02-1.98-.94-1.96-2.04.39-17.5 9.5-20.73 9.89-20.86a2 2 0 0 1 2.53 1.27c.35 1.04-.21 2.16-1.24 2.52-.34.13-6.86 2.78-7.18 17.16a2.004 2.004 0 0 1-2 1.96Z" style="stroke-width:0;fill:#fff"/><path d="m58.02 23.9 4.16.58" style="stroke-width:0;fill:#aad681"/><path d="M62.18 26.48c-.09 0-.19 0-.28-.02l-4.16-.58a1.99 1.99 0 0 1-1.7-2.26 2 2 0 0 1 2.26-1.7l4.16.58c1.09.15 1.86 1.16 1.7 2.26a2 2 0 0 1-1.98 1.72" class="cls-7"/><path d="M50.81 88.62s12.56-.6 19.82 0 24.28-5.66 26.79-20.54-6.14-25.6-6.14-25.6-5.58-.6-5.86 5.66-.94 25.31-11.07 28.88c-10.14 3.57-23.25.3-29.12 6.55-5.86 6.25-1.41 5.28 5.58 5.06Z" style="stroke-width:0;fill:#ffd869"/></svg>