<?xml version="1.0" encoding="UTF-8"?>
<svg id="flatten_icons" xmlns="http://www.w3.org/2000/svg" viewBox="0 0 112 112">
  <defs>
    <style>
      .cls-1 {
        fill: none;
      }

      .cls-2 {
        fill: #826c54;
      }

      .cls-3 {
        fill: #eac781;
      }

      .cls-4 {
        fill: #cc906e;
      }

      .cls-5 {
        fill: #aad681;
      }

      .cls-6 {
        fill: #004241;
      }

      .cls-7 {
        fill: #ea6359;
      }
    </style>
  </defs>
  <g id="kebab">
    <g>
      <g>
        <g>
          <path class="cls-5" d="M27.28,41.12c-5.1,0-9.23,4.13-9.23,9.23,0,.18.02.35.03.53,0,0-.02,0-.03,0-7.05,0-12.76,5.71-12.76,12.76,0,3.37,1.32,6.43,3.46,8.71-2.11,1.69-3.46,4.28-3.46,7.2,0,5.1,4.13,9.23,9.23,9.23s9.23-4.13,9.23-9.23c0-1.46-.35-2.84-.96-4.07,4.7-1.88,8.02-6.47,8.02-11.84,0-1.57-.3-3.07-.82-4.46,3.77-1.16,6.52-4.67,6.52-8.82,0-5.1-4.13-9.23-9.23-9.23Z"/>
          <path class="cls-6" d="M14.52,90.78c-6.19,0-11.23-5.04-11.23-11.23,0-2.74.98-5.33,2.75-7.35-1.78-2.49-2.75-5.47-2.75-8.56,0-7.49,5.6-13.69,12.84-14.63.67-5.56,5.41-9.88,11.15-9.88,6.19,0,11.23,5.04,11.23,11.23,0,4.29-2.38,8.09-6.08,9.98.25,1.09.38,2.19.38,3.3,0,5.4-2.88,10.25-7.49,12.84.29,1,.43,2.02.43,3.07,0,6.19-5.04,11.23-11.23,11.23ZM18,52.88c-5.91.03-10.7,4.84-10.7,10.76,0,2.73,1.04,5.34,2.92,7.35.38.41.57.95.54,1.51-.04.55-.31,1.07-.74,1.42-1.72,1.38-2.71,3.44-2.71,5.64,0,3.99,3.24,7.23,7.23,7.23s7.23-3.24,7.23-7.23c0-1.11-.25-2.18-.75-3.19-.25-.5-.27-1.08-.07-1.6s.61-.93,1.12-1.14c4.11-1.65,6.76-5.56,6.76-9.98,0-1.27-.23-2.54-.69-3.76-.19-.52-.16-1.09.08-1.58.24-.49.68-.87,1.21-1.03,3.05-.94,5.1-3.71,5.1-6.91,0-3.99-3.24-7.23-7.23-7.23s-7.23,3.24-7.23,7.23c0,.08,0,.16.01.25v.17c.04.55-.15,1.09-.53,1.49-.38.4-.9.63-1.45.63-.03,0-.05,0-.08,0Z"/>
        </g>
        <g>
          <path class="cls-5" d="M87.9,23.69c-3.07-.23-5.92.95-7.91,3-2.27-3.59-6.13-6.1-10.69-6.44-4.67-.35-8.97,1.67-11.73,5.03-1.59-1.4-3.62-2.32-5.89-2.49-5.52-.41-10.34,3.74-10.74,9.26s3.74,10.34,9.26,10.74c2.27.17,4.42-.44,6.19-1.6,2.24,3.73,6.19,6.36,10.86,6.71,5.49.41,10.46-2.45,13.03-6.92,1.62,1.53,3.75,2.53,6.14,2.71,5.52.41,10.34-3.74,10.74-9.26s-3.74-10.34-9.26-10.74Z"/>
          <path class="cls-6" d="M68.25,49.95c-.38,0-.76-.01-1.15-.04-4.49-.33-8.61-2.57-11.35-6.09-1.79.79-3.73,1.13-5.71.98-3.2-.24-6.12-1.71-8.22-4.14-2.1-2.43-3.12-5.54-2.89-8.74.49-6.62,6.27-11.59,12.89-11.11,1.98.15,3.85.77,5.5,1.81,3.23-3.08,7.63-4.69,12.12-4.35,4.22.31,8.16,2.34,10.89,5.54,2.24-1.55,4.95-2.3,7.72-2.1h0c6.62.49,11.6,6.27,11.11,12.89-.49,6.62-6.27,11.62-12.89,11.11-1.97-.15-3.87-.78-5.53-1.83-3,3.8-7.63,6.08-12.49,6.08ZM56.38,39.2c.15,0,.3.02.45.05.53.12.99.45,1.26.92,1.99,3.31,5.46,5.46,9.3,5.75,4.58.33,8.85-1.93,11.15-5.92.31-.53.84-.89,1.44-.98.61-.09,1.22.11,1.66.52,1.36,1.28,3.06,2.03,4.91,2.17,4.41.32,8.27-3,8.6-7.42.33-4.42-3-8.27-7.42-8.6h0c-2.36-.17-4.67.7-6.33,2.4-.43.44-1.03.65-1.64.59-.61-.06-1.15-.4-1.48-.92-2.04-3.22-5.37-5.23-9.15-5.51-3.84-.29-7.59,1.33-10.04,4.31-.34.42-.85.68-1.39.72-.54.04-1.08-.14-1.48-.5-1.33-1.17-2.96-1.87-4.71-2-4.42-.33-8.27,3-8.6,7.42-.16,2.14.53,4.21,1.93,5.84s3.35,2.61,5.49,2.77c1.75.13,3.47-.31,4.96-1.28.33-.21.71-.32,1.09-.32Z"/>
        </g>
      </g>
      <g>
        <ellipse class="cls-7" cx="16.62" cy="79.3" rx="11.32" ry="10.71"/>
        <path class="cls-6" d="M16.62,92.01c-7.35,0-13.32-5.7-13.32-12.71s5.98-12.71,13.32-12.71,13.32,5.7,13.32,12.71-5.98,12.71-13.32,12.71ZM16.62,70.6c-5.14,0-9.32,3.91-9.32,8.71s4.18,8.71,9.32,8.71,9.32-3.91,9.32-8.71-4.18-8.71-9.32-8.71Z"/>
      </g>
      <g>
        <path class="cls-4" d="M19.66,41.08l-10.76,4.89s-.28,8.9,3.9,11.36,13.91.51,14.1,7.56l11.23-1.11s-.52-14.84-9.68-14.28-7.49-2.54-8.78-8.41Z"/>
        <path class="cls-6" d="M26.9,66.89c-.48,0-.96-.18-1.32-.5-.42-.37-.66-.89-.68-1.45-.07-2.75-2.16-3.37-6.92-4.14-2.2-.36-4.47-.73-6.2-1.74-5.05-2.98-4.91-12.12-4.88-13.15.02-.76.48-1.44,1.17-1.76l10.76-4.89c.55-.25,1.18-.24,1.72.03.54.27.93.77,1.06,1.36.26,1.17.4,2.21.53,3.13.49,3.52.57,4.05,6.18,3.72,2.54-.15,4.76.62,6.61,2.3,4.8,4.36,5.17,13.52,5.18,13.91.04,1.05-.75,1.96-1.8,2.06l-11.23,1.11c-.07,0-.13,0-.2,0ZM10.92,47.25c.11,2.59.74,7.09,2.9,8.36,1.07.63,2.97.94,4.81,1.24,3.74.61,8.68,1.41,9.96,5.86l7.37-.73c-.37-2.81-1.39-7.13-3.71-9.23-1.03-.94-2.23-1.36-3.67-1.26-8.68.53-9.71-2.35-10.38-7.16-.02-.12-.03-.24-.05-.36l-7.22,3.28Z"/>
      </g>
      <g>
        <path class="cls-4" d="M106.97,46.3l-.26-10.03s-6.87-3.16-10.18-.71c-3.31,2.45-6.06,7.8-10.57,8.52l-2.84,9.15s11.78,4.5,14.37-2.84c2.59-7.34,4.46-5.01,9.49-4.09Z"/>
        <path class="cls-6" d="M90.29,56.6c-3.8,0-7.34-1.3-7.89-1.5-.99-.38-1.51-1.45-1.2-2.46l2.84-9.15c.23-.73.84-1.26,1.59-1.38,2.25-.36,4.18-2.51,6.06-4.59,1.15-1.27,2.33-2.59,3.64-3.56,4.14-3.07,11.39.13,12.2.5.69.32,1.14,1,1.16,1.76l.26,10.03c.02.6-.24,1.18-.7,1.57-.46.39-1.07.56-1.66.45-1.01-.19-1.88-.42-2.65-.62-2.86-.76-3.09-.83-4.59,3.41-.74,2.09-2.17,3.67-4.14,4.58-1.54.71-3.27.96-4.94.96ZM85.62,51.92c2.28.6,5.71,1.12,7.94.08,1.01-.47,1.66-1.19,2.04-2.28,2.52-7.13,5.33-7.02,9.3-5.97l-.16-6.12c-2.18-.79-5.54-1.56-7.02-.47-.99.73-1.99,1.85-3.05,3.03-1.96,2.18-4.16,4.62-7.14,5.57l-1.92,6.16Z"/>
      </g>
      <g>
        <path class="cls-4" d="M30.76,36.27l1.34-11.1s7.95-2.79,11.36.27,8.66,14.5,15.07,12.65l-2.03,8.35s-13.53,3.76-15.64-4.65c-2.11-8.42-4.43-6.03-10.09-5.52Z"/>
        <path class="cls-6" d="M50.1,49.27c-2.41,0-5.04-.38-7.18-1.62-2.07-1.2-3.42-3.01-4.01-5.38-1.27-5.06-1.7-4.99-4.99-4.43-.87.15-1.85.31-2.98.42-.6.05-1.19-.17-1.61-.6-.42-.43-.62-1.03-.55-1.63l1.34-11.1c.09-.76.6-1.4,1.32-1.65.93-.33,9.19-3.07,13.36.67,1.12,1,2.26,2.58,3.59,4.41,2.67,3.69,6.34,8.74,9.59,7.81.69-.2,1.42-.01,1.94.48.51.49.73,1.22.56,1.92l-2.03,8.35c-.17.7-.71,1.26-1.41,1.45-.21.06-3.32.91-6.93.91ZM36.15,33.59c2.98,0,5.08,1.49,6.64,7.71.32,1.29,1.02,2.24,2.13,2.89,2.74,1.6,7.37,1.1,9.91.59l1.11-4.57c-4.47-.74-8.06-5.69-10.81-9.5-1.14-1.57-2.22-3.06-3.02-3.78-1.62-1.45-5.65-.9-8.19-.23l-.87,7.23c.07-.01.13-.02.2-.03,1.05-.18,2.01-.31,2.9-.31Z"/>
      </g>
      <g>
        <ellipse class="cls-7" cx="72.96" cy="35.64" rx="10.52" ry="9.95"/>
        <path class="cls-6" d="M72.96,47.59c-6.91,0-12.52-5.36-12.52-11.95s5.62-11.95,12.52-11.95,12.52,5.36,12.52,11.95-5.62,11.95-12.52,11.95ZM72.96,27.69c-4.7,0-8.52,3.57-8.52,7.95s3.82,7.95,8.52,7.95,8.52-3.57,8.52-7.95-3.82-7.95-8.52-7.95Z"/>
      </g>
      <g>
        <path class="cls-3" d="M100.86,57.5c4.53,12-13.02,19.82-35.15,28.18-22.14,8.37-40.47,14.12-45.01,2.12s-4.21-35.37,27.85-47.49c32.06-12.12,47.77,5.19,52.3,17.19Z"/>
        <path class="cls-6" d="M32.53,96.65c-7.13,0-11.63-2.68-13.7-8.14-1.43-3.79-4.28-13.83.22-25.14,4.36-10.96,14.05-19.35,28.8-24.92,14.75-5.58,27.57-5.7,38.09-.36,10.86,5.51,15.36,14.92,16.8,18.71h0c2.45,6.49-.27,12.31-8.32,17.81-6.44,4.4-15.85,8.36-28,12.95-12.15,4.59-21.83,7.85-29.56,8.81-1.54.19-2.98.29-4.32.29ZM68.89,38.17c-6,0-12.55,1.34-19.63,4.01-13.66,5.16-22.57,12.79-26.5,22.66-3.98,10.01-1.46,18.9-.19,22.25,1.09,2.88,3.7,6.55,13.79,5.3,7.34-.91,16.76-4.09,28.64-8.58,11.88-4.49,21.05-8.34,27.16-12.51,8.39-5.73,7.92-10.22,6.83-13.09h0c-1.27-3.36-5.26-11.69-14.86-16.56-4.57-2.32-9.66-3.47-15.24-3.47Z"/>
      </g>
      <path class="cls-2" d="M37.3,85.63c-.92,0-1.74-.63-1.95-1.57-1.27-5.71-3.8-11.54-5.7-15.42-.48-.99-.07-2.19.92-2.68.99-.48,2.19-.07,2.68.92,1.99,4.08,4.65,10.22,6.01,16.31.24,1.08-.44,2.15-1.52,2.39-.15.03-.29.05-.44.05Z"/>
      <path class="cls-2" d="M49.07,80.17c-.92,0-1.74-.63-1.95-1.57-1.69-7.59-5.64-15.46-7.27-18.49-.52-.97-.15-2.19.82-2.71.98-.52,2.19-.15,2.71.82,2.11,3.95,5.92,11.73,7.64,19.51.24,1.08-.44,2.15-1.52,2.39-.15.03-.29.05-.44.05Z"/>
      <path class="cls-2" d="M60.9,75.23c-.92,0-1.74-.63-1.95-1.57-2.19-9.84-8.17-20.12-8.23-20.22-.56-.95-.24-2.18.71-2.74.95-.56,2.18-.24,2.74.71.26.44,6.36,10.92,8.68,21.38.24,1.08-.44,2.15-1.52,2.39-.15.03-.29.05-.44.05Z"/>
      <path class="cls-2" d="M71.95,70.6c-.92,0-1.74-.63-1.95-1.57-2.19-9.84-8.17-20.12-8.23-20.22-.56-.95-.24-2.18.71-2.74.95-.56,2.18-.24,2.74.71.26.44,6.36,10.92,8.68,21.38.24,1.08-.44,2.15-1.52,2.39-.15.03-.29.05-.44.05Z"/>
      <path class="cls-2" d="M83.86,67.44c-.92,0-1.74-.63-1.95-1.57-1.25-5.64-3.74-11.39-5.6-15.23-.48-.99-.07-2.19.92-2.67.99-.48,2.19-.07,2.67.92,1.96,4.03,4.57,10.09,5.91,16.11.24,1.08-.44,2.15-1.52,2.39-.15.03-.29.05-.44.05Z"/>
    </g>
    <rect class="cls-1" width="112" height="112"/>
  </g>
</svg>