<?xml version="1.0" encoding="UTF-8"?>
<svg id="flatten_icons" data-name="flatten icons" xmlns="http://www.w3.org/2000/svg" viewBox="0 0 112 112">
  <defs>
    <style>
      .cls-1 {
        fill: none;
      }

      .cls-1, .cls-2, .cls-3, .cls-4, .cls-5, .cls-6 {
        stroke-width: 0px;
      }

      .cls-2 {
        fill: #c6a76a;
      }

      .cls-3 {
        fill: #a58a59;
      }

      .cls-4 {
        fill: #c1e583;
      }

      .cls-5 {
        fill: #f4f0df;
      }

      .cls-6 {
        fill: #004241;
      }
    </style>
  </defs>
  <rect class="cls-1" width="112" height="112"/>
  <g>
    <ellipse class="cls-2" cx="35.11" cy="54.61" rx="33.11" ry="40.71"/>
    <path class="cls-3" d="m60.75,44.05l.7,5.03c.18,1.31-.84,2.49-2.16,2.49h-1.72c-1.37,0-2.4,1.25-2.14,2.59l1.6,8.33c.3,1.58-1.15,2.93-2.7,2.52l-1.75-.47c-1.39-.37-2.74.68-2.74,2.11v3.26c0,1.81-2.08,2.83-3.51,1.73l-2.25-1.73c-1.58-1.21-3.82.15-3.48,2.11l1.37,7.77c.32,1.82-1.62,3.19-3.23,2.28l-4.04-2.3c-.81-.46-1.82-.36-2.52.26l-2.27,2c-1.22,1.07-3.14.49-3.55-1.08l-.7-2.67c-.31-1.17-1.51-1.86-2.67-1.55l-4.57,1.22c-1.39.37-2.74-.67-2.74-2.11,0-1.21-.98-2.18-2.18-2.18h-7.01c-.2,0-.4.03-.59.08,5.57,12.85,16.57,21.6,29.24,21.6,18.29,0,33.11-18.23,33.11-40.71,0-4.68-.47-9.17-1.41-13.35l-4.08.31c-1.26.1-2.17,1.23-2,2.48Z"/>
    <path class="cls-6" d="m35.11,97.32C15.75,97.32,0,78.16,0,54.61,0,28.26,13.46,11.9,35.11,11.9s35.12,16.37,35.12,42.71c0,23.55-15.75,42.71-35.12,42.71Zm0-81.43C12.17,15.9,4,35.89,4,54.61c0,21.35,13.96,38.71,31.11,38.71s31.12-17.37,31.12-38.71c0-18.71-8.17-38.71-31.12-38.71Z"/>
    <path class="cls-6" d="m37.09,22.4c-.22,0-.44-.04-.66-.11l-.29-.1c-3.43-1.19-6.14-3.97-7.24-7.44-.33-1.05.25-2.18,1.3-2.51,1.06-.33,2.18.25,2.51,1.3.72,2.27,2.49,4.09,4.74,4.88l.29.1c1.04.37,1.59,1.51,1.23,2.55-.29.82-1.06,1.34-1.89,1.34Z"/>
    <g>
      <circle class="cls-2" cx="81.58" cy="69.68" r="28.42"/>
      <path class="cls-6" d="m81.58,100.1c-16.78,0-30.42-13.65-30.42-30.42s13.65-30.42,30.42-30.42,30.42,13.65,30.42,30.42-13.65,30.42-30.42,30.42Zm0-56.85c-14.57,0-26.42,11.85-26.42,26.42s11.85,26.42,26.42,26.42,26.42-11.85,26.42-26.42-11.85-26.42-26.42-26.42Z"/>
      <circle class="cls-4" cx="81.58" cy="69.68" r="21.74"/>
      <g>
        <circle class="cls-5" cx="81.58" cy="69.68" r="8.02"/>
        <path class="cls-6" d="m81.58,79.7c-5.52,0-10.02-4.49-10.02-10.02s4.49-10.02,10.02-10.02,10.02,4.49,10.02,10.02-4.49,10.02-10.02,10.02Zm0-16.03c-3.32,0-6.02,2.7-6.02,6.02s2.7,6.02,6.02,6.02,6.02-2.7,6.02-6.02-2.7-6.02-6.02-6.02Z"/>
      </g>
      <path class="cls-6" d="m81.58,63.67c-1.1,0-2-.9-2-2v-8c0-1.1.9-2,2-2s2,.9,2,2v8c0,1.1-.9,2-2,2Z"/>
      <path class="cls-6" d="m81.58,88.56c-1.1,0-2-.9-2-2v-8.87c0-1.1.9-2,2-2s2,.9,2,2v8.87c0,1.1-.9,2-2,2Z"/>
      <path class="cls-6" d="m97.39,71.68h-7.8c-1.1,0-2-.9-2-2s.9-2,2-2h7.8c1.1,0,2,.9,2,2s-.9,2-2,2Z"/>
      <path class="cls-6" d="m73.56,71.68h-7.39c-1.1,0-2-.9-2-2s.9-2,2-2h7.39c1.1,0,2,.9,2,2s-.9,2-2,2Z"/>
      <g>
        <line class="cls-5" x1="87.61" y1="64" x2="91.67" y2="59.94"/>
        <path class="cls-6" d="m87.61,66c-.51,0-1.02-.2-1.41-.59-.78-.78-.78-2.05,0-2.83l4.05-4.05c.78-.78,2.05-.78,2.83,0,.78.78.78,2.05,0,2.83l-4.05,4.05c-.39.39-.9.59-1.41.59Z"/>
      </g>
      <g>
        <line class="cls-5" x1="75.38" y1="76.23" x2="70.76" y2="80.85"/>
        <path class="cls-6" d="m70.76,82.85c-.51,0-1.02-.2-1.41-.59-.78-.78-.78-2.05,0-2.83l4.61-4.61c.78-.78,2.05-.78,2.83,0,.78.78.78,2.05,0,2.83l-4.61,4.61c-.39.39-.9.59-1.41.59Z"/>
      </g>
      <g>
        <line class="cls-5" x1="87.61" y1="75.33" x2="93.13" y2="79.59"/>
        <path class="cls-6" d="m93.13,81.59c-.43,0-.86-.14-1.22-.42l-5.52-4.26c-.87-.68-1.04-1.93-.36-2.81.68-.88,1.93-1.04,2.81-.36l5.51,4.26c.87.68,1.04,1.93.36,2.81-.39.51-.99.78-1.58.78Z"/>
      </g>
      <g>
        <line class="cls-5" x1="75.38" y1="63.09" x2="71.05" y2="58.77"/>
        <path class="cls-6" d="m75.38,65.09c-.51,0-1.02-.2-1.41-.59l-4.33-4.32c-.78-.78-.78-2.05,0-2.83.78-.78,2.05-.78,2.83,0l4.33,4.32c.78.78.78,2.05,0,2.83-.39.39-.9.59-1.41.59Z"/>
      </g>
    </g>
  </g>
</svg>