<svg xmlns="http://www.w3.org/2000/svg" id="flatten_icons" data-name="flatten icons" viewBox="0 0 112 112"><defs><style>.cls-2,.cls-5,.cls-6{stroke-width:0}.cls-2{fill:#c6a76a}.cls-5{fill:#f4f0df}.cls-6{fill:#004241}</style></defs><path d="M0 0h112v112H0z" style="fill:none;stroke-width:0"/><ellipse cx="35.11" cy="54.61" class="cls-2" rx="33.11" ry="40.71"/><path d="m60.75 44.05.7 5.03c.18 1.31-.84 2.49-2.16 2.49h-1.72c-1.37 0-2.4 1.25-2.14 2.59l1.6 8.33c.3 1.58-1.15 2.93-2.7 2.52l-1.75-.47a2.18 2.18 0 0 0-2.74 2.11v3.26c0 1.81-2.08 2.83-3.51 1.73l-2.25-1.73c-1.58-1.21-3.82.15-3.48 2.11l1.37 7.77c.32 1.82-1.62 3.19-3.23 2.28l-4.04-2.3c-.81-.46-1.82-.36-2.52.26l-2.27 2c-1.22 1.07-3.14.49-3.55-1.08l-.7-2.67a2.18 2.18 0 0 0-2.67-1.55l-4.57 1.22c-1.39.37-2.74-.67-2.74-2.11 0-1.21-.98-2.18-2.18-2.18H6.49c-.2 0-.4.03-.59.08 5.57 12.85 16.57 21.6 29.24 21.6 18.29 0 33.11-18.23 33.11-40.71 0-4.68-.47-9.17-1.41-13.35l-4.08.31c-1.26.1-2.17 1.23-2 2.48Z" style="stroke-width:0;fill:#a58a59"/><path d="M35.11 97.32C15.75 97.32 0 78.16 0 54.61 0 28.26 13.46 11.9 35.11 11.9s35.12 16.37 35.12 42.71c0 23.55-15.75 42.71-35.12 42.71m0-81.43C12.17 15.9 4 35.89 4 54.61c0 21.35 13.96 38.71 31.11 38.71s31.12-17.37 31.12-38.71c0-18.71-8.17-38.71-31.12-38.71Z" class="cls-6"/><path d="M37.09 22.4c-.22 0-.44-.04-.66-.11l-.29-.1a11.63 11.63 0 0 1-7.24-7.44 1.999 1.999 0 1 1 3.81-1.21 7.65 7.65 0 0 0 4.74 4.88l.29.1c1.04.37 1.59 1.51 1.23 2.55-.29.82-1.06 1.34-1.89 1.34Z" class="cls-6"/><circle cx="81.58" cy="69.68" r="28.42" class="cls-2"/><path d="M81.58 100.1c-16.78 0-30.42-13.65-30.42-30.42s13.65-30.42 30.42-30.42S112 52.91 112 69.68 98.35 100.1 81.58 100.1m0-56.85c-14.57 0-26.42 11.85-26.42 26.42s11.85 26.42 26.42 26.42S108 84.24 108 69.67 96.15 43.25 81.58 43.25" class="cls-6"/><circle cx="81.58" cy="69.68" r="21.74" style="stroke-width:0;fill:#c1e583"/><circle cx="81.58" cy="69.68" r="8.02" class="cls-5"/><path d="M81.58 79.7c-5.52 0-10.02-4.49-10.02-10.02s4.49-10.02 10.02-10.02S91.6 64.15 91.6 69.68 87.11 79.7 81.58 79.7m0-16.03c-3.32 0-6.02 2.7-6.02 6.02s2.7 6.02 6.02 6.02 6.02-2.7 6.02-6.02-2.7-6.02-6.02-6.02" class="cls-6"/><path d="M81.58 63.67c-1.1 0-2-.9-2-2v-8c0-1.1.9-2 2-2s2 .9 2 2v8c0 1.1-.9 2-2 2m0 24.89c-1.1 0-2-.9-2-2v-8.87c0-1.1.9-2 2-2s2 .9 2 2v8.87c0 1.1-.9 2-2 2m15.81-16.88h-7.8c-1.1 0-2-.9-2-2s.9-2 2-2h7.8c1.1 0 2 .9 2 2s-.9 2-2 2m-23.83 0h-7.39c-1.1 0-2-.9-2-2s.9-2 2-2h7.39c1.1 0 2 .9 2 2s-.9 2-2 2" class="cls-6"/><path d="m87.61 64 4.06-4.06" class="cls-5"/><path d="M87.61 66a2.004 2.004 0 0 1-1.41-3.42l4.05-4.05c.78-.78 2.05-.78 2.83 0s.78 2.05 0 2.83l-4.05 4.05c-.39.39-.9.59-1.41.59Z" class="cls-6"/><path d="m75.38 76.23-4.62 4.62" class="cls-5"/><path d="M70.76 82.85a2.004 2.004 0 0 1-1.41-3.42l4.61-4.61c.78-.78 2.05-.78 2.83 0s.78 2.05 0 2.83l-4.61 4.61c-.39.39-.9.59-1.41.59Z" class="cls-6"/><path d="m87.61 75.33 5.52 4.26" class="cls-5"/><path d="M93.13 81.59c-.43 0-.86-.14-1.22-.42l-5.52-4.26a2.005 2.005 0 0 1-.36-2.81c.68-.88 1.93-1.04 2.81-.36L94.35 78a2.005 2.005 0 0 1-1.22 3.59" class="cls-6"/><path d="m75.38 63.09-4.33-4.32" class="cls-5"/><path d="M75.38 65.09c-.51 0-1.02-.2-1.41-.59l-4.33-4.32c-.78-.78-.78-2.05 0-2.83s2.05-.78 2.83 0l4.33 4.32a2.004 2.004 0 0 1-1.41 3.42Z" class="cls-6"/></svg>