<svg xmlns="http://www.w3.org/2000/svg" id="flatten_icons" data-name="flatten icons" viewBox="0 0 112 112"><defs><style>.cls-2,.cls-3,.cls-6,.cls-7{stroke-width:0}.cls-2{fill:#5482d3}.cls-3{fill:#cae8ef}.cls-6{fill:#fff}.cls-7{fill:#004241}</style></defs><g id="lait-vache"><path d="M0 0h112v112H0z" style="fill:none;stroke-width:0"/><path d="M26 33.16h44.71V110H26z" class="cls-3"/><path d="M70.71 112H26c-1.1 0-2-.9-2-2V33.16c0-1.1.9-2 2-2h44.71c1.1 0 2 .9 2 2V110c0 1.1-.9 2-2 2M28 108h40.71V35.16H28z" class="cls-7"/><path d="M38.97 2H73.1c2.92 0 5.29 2.37 5.29 5.29v7.04H33.68V7.29c0-2.92 2.37-5.29 5.29-5.29" style="stroke-width:0;fill:#a6e1f0"/><path d="M78.39 16.33H33.68c-1.1 0-2-.9-2-2V7.29c0-4.02 3.27-7.29 7.29-7.29H73.1c4.02 0 7.29 3.27 7.29 7.29v7.04c0 1.1-.9 2-2 2m-42.71-4h40.71V7.29C76.39 5.47 74.91 4 73.1 4H38.97c-1.82 0-3.29 1.48-3.29 3.29z" class="cls-7"/><path d="M78.39 14.33H33.68L26 33.16h44.71z" class="cls-3"/><path d="M70.71 35.16H26c-.67 0-1.29-.33-1.66-.88s-.44-1.25-.19-1.87l7.68-18.82c.31-.75 1.04-1.24 1.85-1.24h44.71c.67 0 1.29.33 1.66.88s.44 1.25.19 1.87l-7.68 18.82c-.31.75-1.04 1.24-1.85 1.24m-41.74-4h40.39l6.04-14.82H35.01l-6.05 14.82Z" class="cls-7"/><path d="m70.71 33.16 7.68-18.83h-.07L86 33.16V110H70.71z" class="cls-3"/><path d="M86 112H70.71c-1.1 0-2-.9-2-2V33.16c0-.26.05-.52.15-.76l7.48-18.35a1.996 1.996 0 0 1 1.98-1.72c.67 0 1.32.33 1.69.88.16.23.26.49.32.76l7.52 18.43c.1.24.15.5.15.76V110c0 1.1-.9 2-2 2m-13.29-4H84V33.55l-5.64-13.84-5.64 13.84V108ZM56 52.04H36.88c-1.1 0-2-.9-2-2s.9-2 2-2H56c1.1 0 2 .9 2 2s-.9 2-2 2m-12.7 7.88h-6.42c-1.1 0-2-.9-2-2s.9-2 2-2h6.42c1.1 0 2 .9 2 2s-.9 2-2 2" class="cls-7"/><path d="M38.6 70.34c2.8 6.41 1.92 7.96 1.92 7.96s-6.42.77-7.25 4.36c0 0 4.43 2.35 7.25 1.52" class="cls-6"/><path d="M39.18 86.35c-3.11 0-6.41-1.7-6.85-1.93-.8-.42-1.21-1.33-1.01-2.22.82-3.55 4.86-5.01 7.25-5.58-.15-.96-.58-2.68-1.81-5.49-.44-1.01.02-2.19 1.03-2.63 1.02-.44 2.19.02 2.63 1.03 2.64 6.06 2.45 8.64 1.82 9.75-.31.55-.87.92-1.5 1-1.36.17-3.24.71-4.43 1.5 1.33.45 2.75.73 3.63.48 1.06-.31 2.17.3 2.48 1.35.31 1.06-.29 2.17-1.36 2.48-.6.18-1.25.25-1.9.25Zm-.55-8.7" class="cls-7"/><path d="M59.23 21.67c0 3.3-4.05 5.98-9.05 5.98s-9.05-2.68-9.05-5.98v-5.98h18.1z" class="cls-2"/><path d="M50.18 29.65c-6.2 0-11.05-3.51-11.05-7.98v-5.98c0-1.1.9-2 2-2h18.1c1.1 0 2 .9 2 2v5.98c0 4.48-4.85 7.98-11.05 7.98m-7.05-11.96v3.98c0 1.88 2.89 3.98 7.05 3.98s7.05-2.1 7.05-3.98v-3.98z" class="cls-7"/><ellipse cx="50.18" cy="14.95" class="cls-2" rx="9.05" ry="5.98"/><path d="M50.18 22.93c-6.2 0-11.05-3.51-11.05-7.98s4.85-7.98 11.05-7.98 11.05 3.51 11.05 7.98-4.85 7.98-11.05 7.98m0-11.96c-4.15 0-7.05 2.1-7.05 3.98s2.89 3.98 7.05 3.98 7.05-2.1 7.05-3.98-2.89-3.98-7.05-3.98" class="cls-7"/><path d="M56.03 84.01s4.12-.16 7.32-1.44c0 0-2.63-4.87-6.09-4.57" class="cls-6"/><path d="M56.03 86.01c-1.07 0-1.95-.84-2-1.92-.04-1.1.82-2.03 1.92-2.08.03 0 1.98-.09 4.12-.55-.8-.85-1.75-1.54-2.64-1.47a1.99 1.99 0 0 1-2.16-1.82c-.09-1.1.72-2.07 1.82-2.16 4.63-.4 7.69 5 8.02 5.61.27.5.32 1.1.12 1.63s-.61.96-1.14 1.18c-3.48 1.39-7.8 1.57-7.99 1.58h-.08Z" class="cls-7"/><path d="M40.52 78.3h15.52v16.8c0 1.82-1.48 3.3-3.3 3.3h-8.91c-1.82 0-3.3-1.48-3.3-3.3V78.3Z" class="cls-6"/><path d="M52.73 100.4h-8.91a5.31 5.31 0 0 1-5.3-5.3V78.3c0-1.1.9-2 2-2h15.52c1.1 0 2 .9 2 2v16.8c0 2.92-2.38 5.3-5.3 5.3ZM42.52 80.29v14.8c0 .72.58 1.3 1.3 1.3h8.91c.72 0 1.3-.58 1.3-1.3v-14.8H42.51Z" class="cls-7"/><path d="M55.83 80.34c-.9 0-1.73-.63-1.96-1.54-.12-.47-.61-3.1 1.75-9.19a2.001 2.001 0 0 1 3.73 1.45c-1.89 4.85-1.59 6.8-1.59 6.82.28 1.07-.37 2.12-1.44 2.4-.16.04-.33.06-.49.06" class="cls-7"/><path d="M40.52 89.94h15.52v5.16c0 1.82-1.48 3.3-3.3 3.3h-8.91c-1.82 0-3.3-1.48-3.3-3.3v-5.16Z" style="stroke-width:0;fill:#f2ccd6"/><path d="M52.73 100.4h-8.91a5.31 5.31 0 0 1-5.3-5.3v-5.16c0-1.1.9-2 2-2h15.52c1.1 0 2 .9 2 2v5.16c0 2.92-2.38 5.3-5.3 5.3Zm-10.21-8.46v3.16c0 .72.58 1.3 1.3 1.3h8.91c.72 0 1.3-.58 1.3-1.3v-3.16H42.51Z" class="cls-7"/></g></svg>