<?xml version="1.0" encoding="UTF-8"?>
<svg id="flatten_icons" data-name="flatten icons" xmlns="http://www.w3.org/2000/svg" viewBox="0 0 112 112">
  <defs>
    <style>
      .cls-1 {
        fill: none;
      }

      .cls-1, .cls-2, .cls-3, .cls-4, .cls-5 {
        stroke-width: 0px;
      }

      .cls-2 {
        fill: #b2e561;
      }

      .cls-3 {
        fill: #aad681;
      }

      .cls-4 {
        fill: #80c969;
      }

      .cls-5 {
        fill: #004241;
      }
    </style>
  </defs>
  <rect class="cls-1" width="112" height="112"/>
  <g>
    <g>
      <path class="cls-4" d="m30.08,30.65s6.15-9.72,12.18-8.5c0,0,1.53-11.6,14-11.6s9.42,5.19,14,7.32,8.85-2.44,16.48.61c7.63,3.05,11.9,17.95,8.54,23.32-3.36,5.37-12.68,21.54-12.68,21.54l-23.94-9.31-22.67,1.07-5.91-24.45Z"/>
      <path class="cls-5" d="m82.61,65.34c-.24,0-.49-.04-.72-.14l-23.55-9.16-22.25,1.05c-.97.01-1.81-.6-2.04-1.53l-5.91-24.46c-.13-.53-.04-1.08.25-1.54.64-1.01,5.94-9.09,12.27-9.52,1.33-4.76,5.71-11.51,15.6-11.51,8.67,0,10.91,2.43,12.77,5.37.64,1.01,1.06,1.67,2.07,2.14,1.4.65,2.77.42,5.08-.04,2.91-.58,6.54-1.3,11.29.6,4.05,1.62,7.65,6.19,9.62,12.23,1.43,4.39,2.15,10.37-.12,14-3.3,5.28-12.55,21.32-12.64,21.48-.37.63-1.04,1-1.73,1Zm-23.94-13.31c.25,0,.49.05.73.14l22.34,8.69c2.39-4.14,9.08-15.68,11.86-20.12,1.23-1.97,1.11-6.35-.29-10.64-1.58-4.85-4.38-8.59-7.3-9.76-3.65-1.46-6.38-.92-9.03-.39-2.41.48-4.91.97-7.56-.26-2.07-.97-3.01-2.44-3.76-3.63-1.19-1.88-2.23-3.51-9.4-3.51-10.51,0-11.96,9.46-12.02,9.87-.08.55-.38,1.04-.83,1.36-.45.32-1.01.44-1.55.33-3.48-.7-7.82,4.34-9.63,6.92l5.32,22,21.02-1s.06,0,.09,0Z"/>
    </g>
    <g>
      <path class="cls-2" d="m38.02,36.24s2.94-6.16,12.71-5.55c9.76.61,9.65,2.04,12.86,8.14,0,0,6.37-4.18,10.64-.82s7.43,9.99,4.58,14.71c-2.85,4.72-.61,17.33-.61,17.33l-25.94,1.53-16.26-16.48-5.4-12.21,7.43-6.66Z"/>
      <path class="cls-5" d="m52.26,73.58c-.53,0-1.05-.21-1.42-.59l-16.26-16.48c-.17-.17-.31-.37-.41-.6l-5.4-12.21c-.35-.79-.15-1.72.49-2.3l7.18-6.44c.92-1.55,4.81-6.88,14.42-6.28,9.44.59,10.86,2.16,13.58,7.42,2.6-1.19,7.3-2.61,11.03.33,5.06,3.97,8.43,11.72,5.05,17.32-1.79,2.96-1.17,11.35-.35,15.95.1.56-.05,1.14-.4,1.59-.35.45-.88.72-1.45.76l-25.94,1.53s-.08,0-.12,0Zm-14.58-19.62l15.37,15.57,22.84-1.34c-.54-4.07-1.26-12.41,1.21-16.49,2.18-3.61-.36-9.17-4.1-12.11-3.08-2.42-8.26.89-8.31.92-.47.3-1.05.4-1.6.26-.54-.14-1-.51-1.27-1-.27-.51-.51-.98-.74-1.43-2.34-4.57-2.64-5.16-10.47-5.65-8.17-.53-10.69,4.23-10.79,4.43-.11.22-.28.44-.46.61l-6.35,5.69,4.67,10.54Zm.35-17.72h0,0Z"/>
    </g>
    <g>
      <path class="cls-4" d="m40.97,100.27s-12.43-2.75-14.15-13.73c-1.72-10.99-13.01-2.75-19.72-7.32s-6.1-10.99-2.14-14.04c3.97-3.05-3.66-6.41,3.05-14.34,6.71-7.93,18.39-6.41,18.81,1.53s.72,15.87,6.52,17.7,15.26,2.14,16.78,9.15c1.53,7.02,5.49,6.71,10.99,3.36,5.49-3.36,5.49,5.19,0,10.99s-9.15,10.07-20.14,6.71Z"/>
      <path class="cls-5" d="m47.81,103.44c-2.11,0-4.53-.38-7.36-1.24-1.26-.3-13.76-3.53-15.61-15.36-.72-4.57-2.9-4.61-8.21-4.25-3.47.23-7.39.5-10.67-1.73C2.22,78.31.11,74.93,0,71.34c-.09-3.03,1.27-5.86,3.73-7.75.54-.41.59-.46.07-2.21-.76-2.56-1.9-6.44,2.67-11.84,4.17-4.93,10.78-7.12,16.09-5.33,3.71,1.25,6.05,4.26,6.25,8.05l.02.44c.38,7.24.73,14.07,5.1,15.45,1.18.37,2.56.69,4.01,1.02,5.64,1.28,12.66,2.88,14.12,9.62.33,1.52.97,3.44,2.11,3.93.76.33,2.4.27,5.88-1.85,3.64-2.22,5.6-.32,6.11.31,2.31,2.85.62,9.28-3.62,13.76l-.42.45c-4.02,4.25-7.62,8.06-14.33,8.06Zm-28.44-24.97c4.08,0,8.38,1.07,9.43,7.75,1.49,9.53,12.49,12.06,12.6,12.09.05.01.1.03.15.04,9.52,2.91,12.59-.34,17.68-5.73l.42-.45c3.3-3.48,3.85-7.35,3.48-8.35-.18.04-.51.16-.99.45-2.56,1.56-6.34,3.49-9.54,2.12-2.21-.94-3.66-3.15-4.44-6.76-.86-3.95-5.14-5.21-11.1-6.57-1.54-.35-2.99-.68-4.33-1.1-7.01-2.21-7.46-10.78-7.89-19.06l-.02-.44c-.15-2.9-2.28-4.04-3.53-4.46-3.1-1.04-8.1-.2-11.76,4.13-3.18,3.75-2.52,5.98-1.89,8.12.52,1.75,1.29,4.38-1.47,6.51-1.43,1.1-2.22,2.73-2.17,4.46.06,2.28,1.56,4.53,4.22,6.34,2.13,1.45,5.05,1.25,8.14,1.04.95-.06,1.97-.13,3-.13Z"/>
    </g>
    <g>
      <path class="cls-4" d="m55.21,73.52s4.85,6.78,9.6,15.85,21.84,7.71,24.58,0c2.75-7.71.92-8.04,13.73-12s5.19-26.84-2.44-26.23c-7.63.61-3.05-4.88,4.27-10.68s-6.71-16.78-13.73-10.38c-7.02,6.41-7.63,6.71-5.8,13.12,0,0-9.46.61-9.76,7.93s3.05,16.17-3.97,16.17-10.68-4.67-16.48,6.21Z"/>
      <path class="cls-5" d="m77.2,97.67c-6.31,0-11.77-2.8-14.16-7.38-4.62-8.83-9.4-15.54-9.45-15.61-.44-.62-.5-1.43-.14-2.1,4.69-8.8,8.55-8.8,13.9-7.79,1.37.26,2.78.52,4.34.52,1.32,0,1.69-.4,1.81-.54,1-1.09.7-4.46.44-7.43-.18-2.06-.37-4.19-.28-6.29.25-5.93,5.31-8.59,9.27-9.49-1.19-5.34.32-6.92,6.32-12.39l.62-.56c2.73-2.5,6.6-3.14,10.61-1.76,4.35,1.49,7.82,5.03,8.43,8.59.43,2.52-.53,4.87-2.72,6.59-5.11,4.04-6.72,6.22-7.22,7.13.33.03.83.05,1.55,0,5.43-.46,9.77,6.52,11.07,13.3,1.61,8.39-1.41,14.84-7.88,16.84-9.98,3.08-10.06,3.35-11.46,7.79-.27.85-.58,1.83-.98,2.96-1.49,4.17-6.42,7.15-12.56,7.58-.51.04-1.02.05-1.52.05Zm-19.63-24.27c1.54,2.25,5.29,7.92,9.02,15.04,2.24,4.29,7.79,5.48,11.85,5.19,4.49-.31,8.13-2.3,9.07-4.93.38-1.08.68-2.01.93-2.82,1.85-5.87,2.85-6.95,14.1-10.42,6.55-2.02,5.58-9.9,5.13-12.26-1.11-5.77-4.46-10.07-6.69-10.07-.04,0-.09,0-.13,0-1.2.1-4.83.39-5.87-2.26-.75-1.91-.3-4.83,8.74-11.98,1.37-1.08,1.37-2.11,1.26-2.78-.36-2.12-2.85-4.47-5.78-5.48-1.52-.52-4.4-1.09-6.61.93l-.62.57q-6.04,5.51-4.6,10.53c.17.58.06,1.21-.29,1.7s-.9.8-1.51.84c-.31.02-7.67.6-7.9,6.02-.08,1.84.1,3.84.27,5.78.37,4.16.71,8.09-1.48,10.48-1.11,1.22-2.72,1.83-4.76,1.83-1.94,0-3.61-.31-5.08-.59-3.76-.71-5.75-1.08-9.04,4.68Z"/>
    </g>
    <g>
      <path class="cls-2" d="m11.96,32.08c1.5,2.31,2.46,4.93,2.51,7.68.03,1.63.1,3.74.26,6.48.61,10.7,2.14,19.85,7.32,23.21,5.19,3.36,15.39,1.66,15.39,1.66,0,0-2,2.62,0,8.11s12.07,1.84,14.51,0,5.8-5.49,9.15-12.51c0,0-7.02,0-11.29-5.19s-14.31-11.29-12.04-21.06c0,0,2.52-6.1-4.17-8.24s-10.65-8.24-17.36-8.85c-5.24-.48-6.58,5.19-4.29,8.71Z"/>
      <path class="cls-5" d="m42.57,84.11c-.99,0-1.95-.11-2.82-.37-2.05-.61-3.5-1.93-4.19-3.84-.99-2.71-1.13-4.86-.94-6.47-3.69.26-9.77.22-13.66-2.3-6.22-4.03-7.64-14.29-8.23-24.77-.14-2.51-.23-4.72-.26-6.56-.04-2.22-.77-4.45-2.18-6.62t0,0c-1.74-2.68-1.88-6.19-.34-8.74,1.32-2.2,3.69-3.31,6.49-3.06,4.28.39,7.49,2.67,10.6,4.87,2.33,1.65,4.54,3.22,7.19,4.07,2.6.83,4.39,2.28,5.33,4.3,1.3,2.8.44,5.64.15,6.43-1.4,6.35,3.52,11.09,7.86,15.27,1.41,1.36,2.74,2.65,3.8,3.93,3.6,4.37,9.69,4.46,9.75,4.46.68,0,1.32.36,1.69.94.36.58.41,1.31.11,1.92-3.64,7.61-7.31,11.4-9.75,13.24-1.84,1.39-6.5,3.3-10.58,3.3Zm-5.13-15.01c.69,0,1.35.36,1.71.97.42.7.37,1.59-.12,2.25-.02.03-1.25,1.97.29,6.21.26.71.74,1.13,1.57,1.38,3,.89,8.39-1.18,9.86-2.29,1.81-1.37,4.46-4.06,7.28-9.27-2.75-.55-6.8-1.97-9.76-5.56-.91-1.11-2.16-2.31-3.49-3.59-4.62-4.46-10.96-10.57-8.95-19.19.02-.11.06-.21.1-.31,0,0,.72-1.87-.02-3.42-.45-.96-1.43-1.68-2.91-2.15-3.25-1.04-5.81-2.86-8.29-4.62-2.92-2.07-5.44-3.86-8.65-4.15-1.27-.12-2.18.27-2.7,1.14-.74,1.22-.63,3.12.27,4.5,1.83,2.81,2.78,5.75,2.83,8.74.03,1.78.12,3.94.26,6.39.48,8.46,1.65,18.56,6.41,21.64,3.72,2.41,11.35,1.8,13.98,1.36.11-.02.22-.03.33-.03Z"/>
    </g>
    <g>
      <path class="cls-3" d="m65.23,38.01s-4.42.2-4.12,7.57"/>
      <path class="cls-5" d="m61.1,47.59c-1.07,0-1.95-.84-2-1.92-.31-7.41,3.81-9.56,6.03-9.66,1.11-.02,2.04.81,2.09,1.91.05,1.08-.78,2.01-1.85,2.08-.29.04-2.47.49-2.27,5.5.05,1.1-.81,2.04-1.92,2.08-.03,0-.06,0-.08,0Z"/>
    </g>
    <g>
      <path class="cls-3" d="m70.26,48.08s-7.32-2.14-13.12,0,.57,7.11-14.88,5.69"/>
      <path class="cls-5" d="m46.96,56.03c-1.38,0-2.99-.08-4.88-.26-1.1-.1-1.91-1.07-1.81-2.17.1-1.1,1.07-1.92,2.17-1.81,8.62.79,9.23-.45,9.81-1.66.55-1.15,1.39-2.89,4.19-3.92,6.34-2.34,14.05-.14,14.37-.04,1.06.31,1.67,1.42,1.36,2.48-.31,1.06-1.42,1.66-2.48,1.36-.1-.03-6.79-1.92-11.87-.04-1.28.47-1.53.98-1.97,1.9-1.3,2.7-3.16,4.16-8.9,4.16Z"/>
    </g>
    <g>
      <path class="cls-2" d="m57.14,48.08s-7.32,0-9.46-4.58-7.9-8.24-9.9-3.05"/>
      <path class="cls-5" d="m57.14,50.08c-.35,0-8.63-.07-11.27-5.73-1.2-2.56-3.58-4.43-4.95-4.43-.02,0-.03,0-.05,0-.2,0-.75.03-1.22,1.25-.4,1.03-1.55,1.54-2.59,1.15-1.03-.4-1.54-1.56-1.15-2.59,1.24-3.22,3.55-3.77,4.82-3.81,3.58-.13,7.19,3.38,8.76,6.74,1.3,2.78,5.96,3.42,7.65,3.42,1.1,0,2,.9,1.99,2s-.9,2-2,2Z"/>
    </g>
    <g>
      <path class="cls-4" d="m84.26,79.63c-1.4-2.7-.39-6.37.87-9.2,1-2.25,1-4.82.02-7.07-1.49-3.42-1.09-8.66,1.18-10.64,3.1-2.69-.9-9.52-.9-9.52"/>
      <path class="cls-5" d="m84.26,81.63c-.72,0-1.42-.39-1.78-1.08-1.44-2.78-1.17-6.45.81-10.93.77-1.73.77-3.73.01-5.46-1.72-3.93-1.44-10.21,1.7-12.94,1.29-1.13-.22-5.12-1.32-7.01-.55-.95-.23-2.18.72-2.73.95-.55,2.18-.24,2.73.72.5.85,4.71,8.37.49,12.04-1.37,1.19-1.96,5.35-.66,8.33,1.21,2.76,1.2,5.93-.02,8.68-1.42,3.21-1.75,5.87-.92,7.47.51.98.13,2.19-.85,2.7-.29.15-.61.22-.92.22Z"/>
    </g>
    <g>
      <path class="cls-2" d="m86.74,18.48c-7.63-3.05-11.9,1.53-16.48-.61-4.58-2.14-1.53-7.32-14-7.32s-14,11.6-14,11.6c0,0,5.91,3.19,7.62-.99,1.71-4.18,4.94-5.51,10.06-1.52,5.13,3.99,7.41,2.28,7.41,2.28,0,0,.76,5.89,5.89,5.13,5.13-.76,6.24-2.66,10.34-3.71,3.08-.78,8.34,2.32,10.77,3.91-1.7-3.97-4.35-7.45-7.62-8.76Z"/>
      <path class="cls-5" d="m94.35,29.25c-.38,0-.76-.11-1.09-.33-4-2.62-7.6-4.05-9.19-3.64-1.54.39-2.62.93-3.76,1.5-1.65.83-3.52,1.76-6.77,2.24-1.92.29-3.67-.12-5.07-1.18-1.33-1-2.1-2.39-2.54-3.55-1.62.02-4.04-.61-7.21-3.07-1.96-1.52-3.65-2.2-4.76-1.9-1.08.29-1.8,1.57-2.22,2.6-.61,1.48-1.68,2.54-3.1,3.05-3.13,1.12-6.9-.83-7.32-1.06-.73-.39-1.14-1.2-1.03-2.02.61-4.61,4.73-13.33,15.98-13.33,8.66,0,10.91,2.43,12.77,5.37.64,1.01,1.06,1.67,2.07,2.14,1.4.65,2.77.42,5.08-.04,2.91-.58,6.54-1.3,11.29.6h0c3.5,1.4,6.6,4.89,8.71,9.83.35.81.12,1.75-.55,2.32-.37.31-.83.47-1.29.47Zm-27-9.33c.26,0,.53.05.78.16.66.28,1.11.88,1.21,1.59.08.56.52,2.22,1.56,3,.53.4,1.2.53,2.06.41,2.62-.39,3.99-1.07,5.57-1.86,1.28-.64,2.61-1.3,4.57-1.8,1.58-.4,3.46-.1,5.39.57-.8-.74-1.64-1.29-2.49-1.63h0c-3.65-1.46-6.38-.92-9.03-.39-2.41.48-4.91.97-7.56-.26-2.07-.97-3.01-2.44-3.76-3.63-1.19-1.88-2.23-3.51-9.4-3.51-8.12,0-10.83,5.65-11.67,8.4.91.3,1.99.5,2.7.24.24-.09.52-.25.75-.79,1.11-2.72,2.76-4.38,4.9-4.95,2.42-.65,5.19.23,8.25,2.61,2.93,2.28,4.66,2.34,5.11,2.17.32-.2.69-.31,1.06-.31Zm-1.2.4s0,0,0,0c0,0,0,0,0,0Zm0,0s0,0,0,0c0,0,0,0,0,0Zm0,0s0,0,0,0c0,0,0,0,0,0Zm.15-.1h0Z"/>
    </g>
    <g>
      <path class="cls-4" d="m13.4,34.82c.65,1.57,1.03,3.23,1.06,4.94.03,1.63.1,3.74.26,6.48.61,10.7,2.14,19.85,7.32,23.21,5.19,3.36,15.39,1.65,15.39,1.65,0,0,2.71-2.73,2.99-7.76.28-5.03-10.35-6.8-10.35-6.8,1.48-4.5-4.57-8.17-8.23-9.41-3.66-1.25-8.45-12.31-8.45-12.31h0Z"/>
      <path class="cls-5" d="m31.69,73.53c-3.49,0-7.75-.48-10.73-2.4-6.22-4.03-7.64-14.29-8.23-24.77-.14-2.53-.23-4.73-.26-6.56-.02-1.39-.33-2.81-.91-4.21-.25-.62-.19-1.32.19-1.88.37-.55.99-.89,1.66-.89.79,0,1.52.48,1.84,1.21,2.48,5.67,5.73,10.69,7.25,11.21,4.21,1.43,9.69,5.04,9.82,9.73,3.53.87,10.41,3.24,10.12,8.48-.32,5.72-3.44,8.92-3.57,9.05-.3.3-.68.5-1.09.56-.22.04-2.81.46-6.08.46Zm5.75-2.43h0,0Zm-20.79-26.19c.02.39.04.8.07,1.21.48,8.46,1.65,18.56,6.41,21.64,3.41,2.21,10.16,1.87,13.26,1.47.64-.86,1.87-2.89,2.04-6,.13-2.29-5.59-4.2-8.68-4.71-.58-.1-1.08-.44-1.38-.94s-.37-1.1-.19-1.66c.91-2.77-3.63-5.75-6.98-6.89-1.56-.53-3.13-2.15-4.55-4.12Z"/>
    </g>
  </g>
</svg>