<?xml version="1.0" encoding="UTF-8"?>
<svg id="flatten_icons" data-name="flatten icons" xmlns="http://www.w3.org/2000/svg" viewBox="0 0 112 112">
  <defs>
    <style>
      .cls-1 {
        fill: none;
      }

      .cls-1, .cls-2, .cls-3, .cls-4, .cls-5, .cls-6, .cls-7 {
        stroke-width: 0px;
      }

      .cls-2 {
        fill: #5482d3;
      }

      .cls-3 {
        fill: #cae8ef;
      }

      .cls-4 {
        fill: #a6e1f0;
      }

      .cls-5 {
        fill: #f2ccd6;
      }

      .cls-6 {
        fill: #fff;
      }

      .cls-7 {
        fill: #004241;
      }
    </style>
  </defs>
  <g id="lait-vache">
    <rect class="cls-1" width="112" height="112"/>
    <g>
      <g>
        <g>
          <rect class="cls-3" x="26" y="33.16" width="44.71" height="76.84"/>
          <path class="cls-7" d="m70.71,112H26c-1.1,0-2-.9-2-2V33.16c0-1.1.9-2,2-2h44.71c1.1,0,2,.9,2,2v76.84c0,1.1-.9,2-2,2Zm-42.71-4h40.71V35.16H28v72.84Z"/>
        </g>
        <g>
          <path class="cls-4" d="m38.97,2h34.13c2.92,0,5.29,2.37,5.29,5.29v7.04h-44.71v-7.04c0-2.92,2.37-5.29,5.29-5.29Z"/>
          <path class="cls-7" d="m78.39,16.33h-44.71c-1.1,0-2-.9-2-2v-7.04C31.68,3.27,34.95,0,38.97,0h34.13C77.12,0,80.39,3.27,80.39,7.29v7.04c0,1.1-.9,2-2,2Zm-42.71-4h40.71v-5.04c0-1.82-1.48-3.29-3.29-3.29h-34.13c-1.82,0-3.29,1.48-3.29,3.29v5.04Z"/>
        </g>
        <g>
          <polygon class="cls-3" points="78.39 14.33 33.68 14.33 26 33.16 70.71 33.16 78.39 14.33"/>
          <path class="cls-7" d="m70.71,35.16H26c-.67,0-1.29-.33-1.66-.88-.37-.55-.44-1.25-.19-1.87l7.68-18.82c.31-.75,1.04-1.24,1.85-1.24h44.71c.67,0,1.29.33,1.66.88.37.55.44,1.25.19,1.87l-7.68,18.82c-.31.75-1.04,1.24-1.85,1.24Zm-41.74-4h40.39l6.04-14.82h-40.39l-6.05,14.82Z"/>
        </g>
        <g>
          <polygon class="cls-3" points="70.71 33.16 78.39 14.33 78.32 14.33 86 33.16 86 110 70.71 110 70.71 33.16"/>
          <path class="cls-7" d="m86,112h-15.29c-1.1,0-2-.9-2-2V33.16c0-.26.05-.52.15-.76l7.48-18.35c.04-.3.15-.58.32-.84.37-.55.99-.88,1.66-.88s1.32.33,1.69.88c.16.23.26.49.32.76l7.52,18.43c.1.24.15.5.15.76v76.84c0,1.1-.9,2-2,2Zm-13.29-4h11.29V33.55l-5.64-13.84-5.64,13.84v74.45Z"/>
        </g>
        <path class="cls-7" d="m56,52.04h-19.12c-1.1,0-2-.9-2-2s.9-2,2-2h19.12c1.1,0,2,.9,2,2s-.9,2-2,2Z"/>
        <path class="cls-7" d="m43.3,59.92h-6.42c-1.1,0-2-.9-2-2s.9-2,2-2h6.42c1.1,0,2,.9,2,2s-.9,2-2,2Z"/>
      </g>
      <g>
        <path class="cls-6" d="m38.6,70.34c2.8,6.41,1.92,7.96,1.92,7.96,0,0-6.42.77-7.25,4.36,0,0,4.43,2.35,7.25,1.52"/>
        <path class="cls-7" d="m39.18,86.35c-3.11,0-6.41-1.7-6.85-1.93-.8-.42-1.21-1.33-1.01-2.22.82-3.55,4.86-5.01,7.25-5.58-.15-.96-.58-2.68-1.81-5.49-.44-1.01.02-2.19,1.03-2.63,1.02-.44,2.19.02,2.63,1.03,2.64,6.06,2.45,8.64,1.82,9.75-.31.55-.87.92-1.5,1-1.36.17-3.24.71-4.43,1.5,1.33.45,2.75.73,3.63.48,1.06-.31,2.17.3,2.48,1.35.31,1.06-.29,2.17-1.36,2.48-.6.18-1.25.25-1.9.25Zm-.55-8.7h0Z"/>
      </g>
      <g>
        <path class="cls-2" d="m59.23,21.67c0,3.3-4.05,5.98-9.05,5.98s-9.05-2.68-9.05-5.98v-5.98h18.1v5.98Z"/>
        <path class="cls-7" d="m50.18,29.65c-6.2,0-11.05-3.51-11.05-7.98v-5.98c0-1.1.9-2,2-2h18.1c1.1,0,2,.9,2,2v5.98c0,4.48-4.85,7.98-11.05,7.98Zm-7.05-11.96v3.98c0,1.88,2.89,3.98,7.05,3.98s7.05-2.1,7.05-3.98v-3.98h-14.1Z"/>
      </g>
      <g>
        <ellipse class="cls-2" cx="50.18" cy="14.95" rx="9.05" ry="5.98"/>
        <path class="cls-7" d="m50.18,22.93c-6.2,0-11.05-3.51-11.05-7.98s4.85-7.98,11.05-7.98,11.05,3.51,11.05,7.98-4.85,7.98-11.05,7.98Zm0-11.96c-4.15,0-7.05,2.1-7.05,3.98s2.89,3.98,7.05,3.98,7.05-2.1,7.05-3.98-2.89-3.98-7.05-3.98Z"/>
      </g>
      <g>
        <path class="cls-6" d="m56.03,84.01s4.12-.16,7.32-1.44c0,0-2.63-4.87-6.09-4.57"/>
        <path class="cls-7" d="m56.03,86.01c-1.07,0-1.95-.84-2-1.92-.04-1.1.82-2.03,1.92-2.08.03,0,1.98-.09,4.12-.55-.8-.85-1.75-1.54-2.64-1.47-1.11.09-2.07-.72-2.16-1.82-.09-1.1.72-2.07,1.82-2.16,4.63-.4,7.69,5,8.02,5.61.27.5.32,1.1.12,1.63s-.61.96-1.14,1.18c-3.48,1.39-7.8,1.57-7.99,1.58-.03,0-.05,0-.08,0Z"/>
      </g>
      <g>
        <path class="cls-6" d="m40.52,78.3h15.52v16.8c0,1.82-1.48,3.3-3.3,3.3h-8.91c-1.82,0-3.3-1.48-3.3-3.3v-16.8h0Z"/>
        <path class="cls-7" d="m52.73,100.4h-8.91c-2.92,0-5.3-2.38-5.3-5.3v-16.8c0-1.1.9-2,2-2h15.52c1.1,0,2,.9,2,2v16.8c0,2.92-2.38,5.3-5.3,5.3Zm-10.21-20.11v14.8c0,.72.58,1.3,1.3,1.3h8.91c.72,0,1.3-.58,1.3-1.3v-14.8h-11.52Z"/>
      </g>
      <path class="cls-7" d="m55.83,80.34c-.9,0-1.73-.63-1.96-1.54-.12-.47-.61-3.1,1.75-9.19.4-1.03,1.56-1.54,2.59-1.14,1.03.4,1.54,1.56,1.14,2.59-1.89,4.85-1.59,6.8-1.59,6.82.28,1.07-.37,2.12-1.44,2.4-.16.04-.33.06-.49.06Z"/>
      <g>
        <path class="cls-5" d="m40.52,89.94h15.52v5.16c0,1.82-1.48,3.3-3.3,3.3h-8.91c-1.82,0-3.3-1.48-3.3-3.3v-5.16h0Z"/>
        <path class="cls-7" d="m52.73,100.4h-8.91c-2.92,0-5.3-2.38-5.3-5.3v-5.16c0-1.1.9-2,2-2h15.52c1.1,0,2,.9,2,2v5.16c0,2.92-2.38,5.3-5.3,5.3Zm-10.21-8.46v3.16c0,.72.58,1.3,1.3,1.3h8.91c.72,0,1.3-.58,1.3-1.3v-3.16h-11.52Z"/>
      </g>
    </g>
  </g>
</svg>