<svg xmlns="http://www.w3.org/2000/svg" id="flatten_icons" viewBox="0 0 112 112"><defs><style>.cls-2{fill:#e2d2c3}.cls-5{fill:#004241}</style></defs><g id="lapin"><path d="M0 0h112v112H0z" style="fill:none"/><path d="M27.31 44.28s-3.04-7.69-1.69-14.48c1.34-6.79 9.4-17.19 11.64-16.97s4.03 5.88 3.81 12.67-7.89 20.13-7.89 20.13" class="cls-2"/><path d="M33.17 47.64c-.34 0-.68-.08-.99-.27a2 2 0 0 1-.74-2.73c2.06-3.59 7.45-14.05 7.62-19.2.19-5.87-1.18-9.53-1.96-10.46-2.2 1.44-8.42 9.6-9.53 15.21-1.21 6.11 1.56 13.29 1.59 13.36.4 1.03-.1 2.19-1.13 2.59s-2.19-.1-2.59-1.13c-.13-.34-3.24-8.32-1.79-15.6 1.22-6.14 9.53-19 13.81-18.57 4.17.42 5.83 7.93 5.6 14.72-.24 7.2-7.83 20.5-8.15 21.06-.37.64-1.04 1-1.74 1Z" class="cls-5"/><path d="M90.59 77.8s3.31-5.25 9.35-4.57c0 0 4.48 11.69 1.12 15.99s-10.47 3.93-10.47 3.93" class="cls-2"/><path d="M91.01 95.16c-.29 0-.48 0-.52-.01-1.1-.06-1.95-1-1.9-2.1.06-1.1.99-1.96 2.1-1.9.06 0 6.13.24 8.8-3.17 1.67-2.14.52-8.37-.97-12.81-3.93.2-6.14 3.54-6.24 3.69-.6.92-1.83 1.2-2.76.6-.93-.59-1.2-1.82-.62-2.75.16-.26 4.06-6.29 11.27-5.49.74.08 1.38.57 1.64 1.27.5 1.3 4.77 12.89.83 17.93-3.42 4.37-9.76 4.71-11.63 4.71Z" class="cls-5"/><path d="M68.47 55.45H52.83c-1.59 0-3.15.4-4.56 1.15a3.58 3.58 0 0 1-4.78-1.33l-5.11-8.57c3.34-3 10.62-9.89 12.54-14.7 2.51-6.3 2.74-12.23.72-13.22-2.03-.99-13.13 6-16.69 11.91-1.83 3.04-2.65 6.69-3.02 9.53-.22-.03-.44-.04-.67-.04h-5.23s-14.15 5.39-15.67 16.36c-.16 1.17.14 2.36.75 3.36l1.37 2.26a4.8 4.8 0 0 0 4.09 2.31h7.4c1.26 0 2.42.71 3 1.84l1.42 2.74c.25.49.38 1.03.38 1.58v1.67c0 4.07 1.62 7.96 4.49 10.82-1.2 3.9-2.81 9.21-2.95 10.04-.22 1.33-5.15 3.14-6.94 4.95s-1.57 2.71-1.57 2.71h11.87l8.45-9.47c1.83 1.16 3.96 1.8 6.16 1.8h7.83c-2.84.34-5.66 1.36-5.66 4.06v3.62h40.14V77.8c0-12.34-9.9-22.35-22.12-22.35" style="fill:#c4ae97"/><path d="M90.59 102.83H50.45c-1.1 0-2-.9-2-2v-3.62c0-.59.09-1.31.4-2.06h-.58c-1.98 0-3.93-.44-5.72-1.28l-7.4 8.29c-.38.42-.92.67-1.49.67H21.79a2 2 0 0 1-1.94-1.52c-.18-.75-.16-2.33 2.09-4.6 1-1.01 2.54-1.88 4.03-2.72.81-.46 2-1.13 2.44-1.52.16-.67.68-2.57 2.59-8.83a17.4 17.4 0 0 1-4.24-11.33v-1.67c0-.23-.06-.46-.16-.66l-1.42-2.74c-.24-.47-.71-.75-1.22-.75h-7.4c-2.35 0-4.57-1.25-5.79-3.27L9.4 60.96c-.88-1.44-1.24-3.1-1.03-4.68 1.66-12.01 16.31-17.72 16.94-17.96.23-.09.47-.13.71-.13h4.19c.6-3.33 1.61-6.19 3.02-8.52 3.23-5.35 15.42-14.55 19.28-12.68 3.77 1.83 2.78 9.45.26 15.76-1.82 4.58-7.75 10.57-11.84 14.34l4.27 7.16c.44.74 1.37 1 2.11.6 1.69-.91 3.59-1.39 5.5-1.39h15.64c13.3 0 24.12 10.92 24.12 24.35v23.03c0 1.1-.9 2-2 2Zm-38.13-4H88.6V77.8c0-11.22-9.03-20.35-20.12-20.35H52.84c-1.25 0-2.5.32-3.61.91a5.58 5.58 0 0 1-7.45-2.07l-5.11-8.57c-.49-.82-.33-1.88.38-2.51 6.29-5.64 10.78-10.86 12.01-13.95 2.18-5.47 2.12-9.38 1.7-10.52-2.54.59-11.16 6.11-14.1 10.99-1.7 2.82-2.43 6.32-2.75 8.76a2.005 2.005 0 0 1-2.22 1.73c-.14-.02-.29-.03-.44-.03h-4.84c-2.01.85-12.87 5.84-14.08 14.63-.09.66.08 1.39.48 2.05l1.37 2.26c.51.84 1.4 1.35 2.38 1.35h7.4c2.02 0 3.85 1.12 4.78 2.92l1.42 2.74c.4.77.61 1.63.61 2.5v1.67c0 3.5 1.42 6.93 3.9 9.4.52.52.72 1.29.5 2-2.52 8.2-2.85 9.57-2.89 9.79-.28 1.67-1.98 2.63-4.34 3.97-.77.44-1.62.92-2.28 1.36h7.1l7.86-8.81c.65-.73 1.74-.88 2.57-.36 1.53.97 3.29 1.49 5.08 1.49h7.83c1.06 0 1.93.82 2 1.88a2.01 2.01 0 0 1-1.76 2.11c-1.46.18-3.9.68-3.9 2.07v1.62Zm-1.83-78.34" class="cls-5"/><path d="M61.87 94.23c-.45 0-.89-.15-1.26-.46-.19-.16-4.57-3.91-4.14-12.5.38-7.5 6.78-9.85 10.11-10.04 1.09-.05 2.05.78 2.11 1.88s-.77 2.04-1.87 2.11c-.63.04-6.07.58-6.36 6.25-.33 6.47 2.6 9.13 2.72 9.24.82.72.92 1.98.21 2.81-.4.46-.96.71-1.52.71m21.73.01h-7.84c-1.1 0-2-.9-2-2s.9-2 2-2h7.84c1.1 0 2 .9 2 2s-.9 2-2 2" class="cls-5"/><path d="M79.68 71.84c-.93 0-1.77-.66-1.96-1.61-1.09-5.43-11.88-5.39-12-5.41h-.03a2 2 0 0 1-.04-4c.58 0 14.23-.16 15.99 8.62a2.003 2.003 0 0 1-1.97 2.4Z" style="fill:#e8d5ba"/></g></svg>