<?xml version="1.0" encoding="UTF-8"?>
<svg id="flatten_icons" data-name="flatten icons" xmlns="http://www.w3.org/2000/svg" viewBox="0 0 112 112">
  <defs>
    <style>
      .cls-1 {
        fill: none;
      }

      .cls-1, .cls-2, .cls-3, .cls-4, .cls-5 {
        stroke-width: 0px;
      }

      .cls-2 {
        fill: #d3d9dc;
      }

      .cls-3 {
        fill: #8ed5eb;
      }

      .cls-4 {
        fill: #e7edef;
      }

      .cls-5 {
        fill: #004241;
      }
    </style>
  </defs>
  <g id="lave-vaisselle">
    <g id="area">
      <rect class="cls-1" width="112" height="112"/>
    </g>
    <g id="lave-vaisselle-2" data-name="lave-vaisselle">
      <g>
        <g>
          <rect class="cls-2" x="14.57" y="6.58" width="82.87" height="98.84" rx="3.37" ry="3.37"/>
          <path class="cls-5" d="m94.07,107.42H17.93c-2.96,0-5.37-2.41-5.37-5.37V9.95c0-2.96,2.41-5.37,5.37-5.37h76.13c2.96,0,5.37,2.41,5.37,5.37v92.11c0,2.96-2.41,5.37-5.37,5.37ZM17.93,8.58c-.75,0-1.37.61-1.37,1.37v92.11c0,.75.61,1.37,1.37,1.37h76.13c.75,0,1.37-.61,1.37-1.37V9.95c0-.75-.61-1.37-1.37-1.37H17.93Z"/>
        </g>
        <g>
          <path class="cls-2" d="m14.57,31.64v70.41c0,1.86,1.51,3.37,3.37,3.37h76.13c1.86,0,3.37-1.51,3.37-3.37V31.64H14.57Z"/>
          <path class="cls-5" d="m94.07,107.42H17.93c-2.96,0-5.37-2.41-5.37-5.37V31.64c0-1.1.9-2,2-2h82.87c1.1,0,2,.9,2,2v70.41c0,2.96-2.41,5.37-5.37,5.37ZM16.57,33.64v68.41c0,.75.61,1.37,1.37,1.37h76.13c.75,0,1.37-.61,1.37-1.37V33.64H16.57Z"/>
        </g>
        <path class="cls-4" d="m42.71,95.6h-14.38c-2.2,0-3.99-1.78-3.99-3.99v-46.55c0-2.2,1.78-3.99,3.99-3.99h10.33c.95,0,1.82.55,2.23,1.41l1.18,2.49c.64,1.35,2.01,2.22,3.51,2.22h21.6c1.4,0,2.7-.76,3.39-1.98l1.62-2.87c.44-.78,1.26-1.26,2.16-1.26h10.04c2.2,0,3.99,1.78,3.99,3.99v4.87c0,25.22-20.45,45.67-45.67,45.67Z"/>
        <g>
          <rect class="cls-2" x="66.03" y="6.58" width="22.35" height="9.98"/>
          <path class="cls-5" d="m88.38,18.56h-22.35c-1.1,0-2-.9-2-2V6.58c0-1.1.9-2,2-2h22.35c1.1,0,2,.9,2,2v9.98c0,1.1-.9,2-2,2Zm-20.35-4h18.35v-5.98h-18.35v5.98Z"/>
        </g>
        <path class="cls-5" d="m66.03,43.92h-18.64c-1.1,0-2-.9-2-2s.9-2,2-2h18.64c1.1,0,2,.9,2,2s-.9,2-2,2Z"/>
        <path class="cls-4" d="m24.35,23.12v-7.25c0-1.34,1.09-2.43,2.43-2.43h31.39c1.17,0,1.79,1.38,1.02,2.25-2.83,3.17-10.95,8.58-33.47,8.79-.75,0-1.37-.6-1.37-1.35Z"/>
      </g>
      <g>
        <path class="cls-3" d="m30.77,41.92l5.87,15.97c.83,2.26.26,4.81-1.46,6.5l-.37.36c-2.29,2.25-5.92,2.37-8.34.27h0c-1.93-1.68-2.63-4.38-1.74-6.78l6.03-16.33Z"/>
        <path class="cls-5" d="m30.49,68.51c-1.9,0-3.81-.65-5.33-1.98-2.55-2.21-3.47-5.82-2.3-8.98l6.03-16.33c.29-.79,1.04-1.31,1.88-1.31h0c.84,0,1.59.52,1.88,1.31l5.87,15.97c1.1,2.99.34,6.38-1.93,8.61l-.37.36c-1.57,1.55-3.65,2.33-5.72,2.33Zm.27-20.81l-4.15,11.24c-.59,1.61-.12,3.45,1.17,4.57,1.62,1.41,4.1,1.33,5.63-.18l.37-.36c1.16-1.14,1.54-2.86.98-4.39l-4-10.88Z"/>
      </g>
    </g>
  </g>
</svg>