<svg xmlns="http://www.w3.org/2000/svg" id="flatten_icons" data-name="flatten icons" viewBox="0 0 112 112"><defs><style>.cls-2,.cls-4,.cls-5{stroke-width:0}.cls-2{fill:#d3d9dc}.cls-4{fill:#e7edef}.cls-5{fill:#004241}</style></defs><g id="lave-vaisselle"><path id="area" d="M0 0h112v112H0z" style="fill:none;stroke-width:0"/><g id="lave-vaisselle-2" data-name="lave-vaisselle"><rect width="82.87" height="98.84" x="14.57" y="6.58" class="cls-2" rx="3.37" ry="3.37"/><path d="M94.07 107.42H17.93c-2.96 0-5.37-2.41-5.37-5.37V9.95c0-2.96 2.41-5.37 5.37-5.37h76.13c2.96 0 5.37 2.41 5.37 5.37v92.11c0 2.96-2.41 5.37-5.37 5.37ZM17.93 8.58c-.75 0-1.37.61-1.37 1.37v92.11c0 .75.61 1.37 1.37 1.37h76.13c.75 0 1.37-.61 1.37-1.37V9.95c0-.75-.61-1.37-1.37-1.37z" class="cls-5"/><path d="M14.57 31.64v70.41c0 1.86 1.51 3.37 3.37 3.37h76.13c1.86 0 3.37-1.51 3.37-3.37V31.64z" class="cls-2"/><path d="M94.07 107.42H17.93c-2.96 0-5.37-2.41-5.37-5.37V31.64c0-1.1.9-2 2-2h82.87c1.1 0 2 .9 2 2v70.41c0 2.96-2.41 5.37-5.37 5.37Zm-77.5-73.78v68.41c0 .75.61 1.37 1.37 1.37h76.13c.75 0 1.37-.61 1.37-1.37V33.64z" class="cls-5"/><path d="M42.71 95.6H28.33c-2.2 0-3.99-1.78-3.99-3.99V45.06c0-2.2 1.78-3.99 3.99-3.99h10.33c.95 0 1.82.55 2.23 1.41l1.18 2.49a3.89 3.89 0 0 0 3.51 2.22h21.6c1.4 0 2.7-.76 3.39-1.98l1.62-2.87c.44-.78 1.26-1.26 2.16-1.26h10.04c2.2 0 3.99 1.78 3.99 3.99v4.87c0 25.22-20.45 45.67-45.67 45.67Z" class="cls-4"/><path d="M66.03 6.58h22.35v9.98H66.03z" class="cls-2"/><path d="M88.38 18.56H66.03c-1.1 0-2-.9-2-2V6.58c0-1.1.9-2 2-2h22.35c1.1 0 2 .9 2 2v9.98c0 1.1-.9 2-2 2m-20.35-4h18.35V8.58H68.03zm-2 29.36H47.39c-1.1 0-2-.9-2-2s.9-2 2-2h18.64c1.1 0 2 .9 2 2s-.9 2-2 2" class="cls-5"/><path d="M24.35 23.12v-7.25c0-1.34 1.09-2.43 2.43-2.43h31.39c1.17 0 1.79 1.38 1.02 2.25-2.83 3.17-10.95 8.58-33.47 8.79-.75 0-1.37-.6-1.37-1.35Z" class="cls-4"/><path d="m30.77 41.92 5.87 15.97c.83 2.26.26 4.81-1.46 6.5l-.37.36c-2.29 2.25-5.92 2.37-8.34.27a6.16 6.16 0 0 1-1.74-6.78l6.03-16.33Z" style="stroke-width:0;fill:#8ed5eb"/><path d="M30.49 68.51c-1.9 0-3.81-.65-5.33-1.98a8.18 8.18 0 0 1-2.3-8.98l6.03-16.33c.29-.79 1.04-1.31 1.88-1.31s1.59.52 1.88 1.31l5.87 15.97a8.16 8.16 0 0 1-1.93 8.61l-.37.36a8.13 8.13 0 0 1-5.72 2.33Zm.27-20.81-4.15 11.24a4.18 4.18 0 0 0 1.17 4.57c1.62 1.41 4.1 1.33 5.63-.18l.37-.36a4.16 4.16 0 0 0 .98-4.39z" class="cls-5"/></g></g></svg>