<svg xmlns="http://www.w3.org/2000/svg" id="flatten_icons" viewBox="0 0 112 112"><defs><style>.cls-11{fill:#004241}</style></defs><g id="lentilles"><path d="M0 0h112v112H0z" style="fill:none"/><ellipse cx="22.32" cy="45.36" rx="10.01" ry="10.12" style="fill:#f4d192"/><path d="M22.32 57.47c-6.62 0-12.01-5.44-12.01-12.12s5.39-12.12 12.01-12.12 12.01 5.44 12.01 12.12-5.39 12.12-12.01 12.12m0-20.23c-4.41 0-8.01 3.64-8.01 8.12s3.59 8.12 8.01 8.12 8.01-3.64 8.01-8.12-3.59-8.12-8.01-8.12" class="cls-11"/><ellipse cx="49.06" cy="56.03" rx="8.89" ry="8.99" style="fill:#eac781"/><path d="M49.06 67.02c-6.01 0-10.89-4.93-10.89-10.99s4.89-10.99 10.89-10.99 10.89 4.93 10.89 10.99-4.89 10.99-10.89 10.99m0-17.98c-3.8 0-6.89 3.14-6.89 6.99s3.09 6.99 6.89 6.99 6.89-3.14 6.89-6.99-3.09-6.99-6.89-6.99" class="cls-11"/><ellipse cx="71.86" cy="86.31" rx="10.01" ry="10.12" style="fill:#d88264"/><path d="M71.86 98.43c-6.62 0-12.01-5.44-12.01-12.12s5.39-12.12 12.01-12.12 12.01 5.44 12.01 12.12-5.39 12.12-12.01 12.12m0-20.23c-4.41 0-8.01 3.64-8.01 8.12s3.59 8.12 8.01 8.12 8.01-3.64 8.01-8.12-3.59-8.12-8.01-8.12" class="cls-11"/><ellipse cx="40.17" cy="81.38" rx="10.01" ry="10.12" style="fill:#ea9671"/><path d="M40.17 93.5c-6.62 0-12.01-5.44-12.01-12.12s5.39-12.12 12.01-12.12 12.01 5.44 12.01 12.12S46.79 93.5 40.17 93.5m0-20.23c-4.41 0-8.01 3.64-8.01 8.12s3.59 8.12 8.01 8.12 8.01-3.64 8.01-8.12-3.59-8.12-8.01-8.12" class="cls-11"/><ellipse cx="69.72" cy="39.32" rx="10.01" ry="10.12" style="fill:#7b9b51"/><path d="M69.72 51.44c-6.62 0-12.01-5.44-12.01-12.12S63.1 27.2 69.72 27.2s12.01 5.44 12.01 12.12-5.39 12.12-12.01 12.12m0-20.23c-4.41 0-8.01 3.64-8.01 8.12s3.59 8.12 8.01 8.12 8.01-3.64 8.01-8.12-3.59-8.12-8.01-8.12" class="cls-11"/><ellipse cx="45.08" cy="25.87" rx="10.01" ry="10.12" style="fill:#7f5c4c"/><path d="M45.08 37.98c-6.62 0-12.01-5.44-12.01-12.12s5.39-12.12 12.01-12.12 12.01 5.44 12.01 12.12-5.39 12.12-12.01 12.12m0-20.23c-4.41 0-8.01 3.64-8.01 8.12s3.59 8.12 8.01 8.12 8.01-3.64 8.01-8.12-3.59-8.12-8.01-8.12" class="cls-11"/><ellipse cx="89.5" cy="34.35" rx="10.01" ry="10.12" style="fill:#647f39"/><path d="M89.5 46.46c-6.62 0-12.01-5.44-12.01-12.12s5.39-12.12 12.01-12.12 12.01 5.44 12.01 12.12-5.39 12.12-12.01 12.12m0-20.23c-4.41 0-8.01 3.64-8.01 8.12s3.59 8.12 8.01 8.12 8.01-3.64 8.01-8.12-3.59-8.12-8.01-8.12" class="cls-11"/><path d="M34.11 66.75c2.09 2.15.8 9.17-4.12 13.1s-11.64 3.21-13.68 1.1-.8-9.17 4.12-13.1c4.92-3.92 11.59-3.25 13.68-1.1" style="fill:#f2a98f"/><path d="M21.75 84.65c-2.88 0-5.44-.83-6.88-2.31-1.1-1.13-1.62-2.96-1.49-5.17.19-3.04 1.82-7.72 5.79-10.88 5.48-4.37 13.29-4.09 16.36-.94 1.11 1.14 1.64 2.98 1.51 5.19-.25 3.99-2.53 8.25-5.81 10.87-2.82 2.25-6.34 3.24-9.49 3.24Zm6.84-17.64c-2.11 0-4.67.62-6.92 2.41-2.76 2.2-4.14 5.61-4.3 8.01-.08 1.21.17 1.94.36 2.13 1.22 1.25 6.79 2.09 11-1.27 2.77-2.21 4.17-5.61 4.32-7.99.08-1.3-.21-1.97-.38-2.14-.6-.62-2.16-1.13-4.09-1.13Z" class="cls-11"/><path d="M93.7 49.34c1.11 2.78-2.76 8.78-8.81 10.53-6.04 1.75-11.98-1.48-13.07-4.2s2.76-8.78 8.81-10.53c6.04-1.75 11.96 1.42 13.07 4.2" style="fill:#aeb786"/><path d="M81.43 62.35c-5.29 0-10.18-2.74-11.46-5.94-.58-1.46-.37-3.36.6-5.34 1.34-2.74 4.63-6.44 9.51-7.85 6.73-1.95 13.85 1.29 15.48 5.38.59 1.48.38 3.38-.59 5.37-1.75 3.59-5.49 6.66-9.52 7.83-1.33.39-2.69.56-4.03.56Zm2.8-15.72c-.98 0-2 .13-3.04.43-3.39.98-5.97 3.6-7.03 5.77-.53 1.09-.58 1.85-.48 2.1.65 1.62 5.48 4.52 10.66 3.02 3.41-.99 5.99-3.6 7.04-5.74.57-1.17.56-1.9.47-2.13-.54-1.34-3.67-3.45-7.61-3.45Z" class="cls-11"/></g></svg>