<?xml version="1.0" encoding="UTF-8"?>
<svg id="outline_icons" xmlns="http://www.w3.org/2000/svg" viewBox="0 0 112 112">
  <defs>
    <style>
      .cls-1 {
        fill: none;
      }

      .cls-2 {
        fill: #fff;
      }

      .cls-3 {
        fill: #dce6ea;
      }

      .cls-4 {
        fill: #acccd1;
      }

      .cls-5 {
        fill: #004241;
      }
    </style>
  </defs>
  <g id="colin">
    <g id="pommedeterre">
      <rect class="cls-1" width="112" height="112"/>
    </g>
    <g>
      <g>
        <path class="cls-4" d="M44.41,56.76l-4.82-2.15s4.9-5.53,2.69-12.32c0,0,12.22-4.39,16.76-.85"/>
        <path class="cls-5" d="M44.41,58.76c-.27,0-.55-.06-.81-.17l-4.82-2.15c-.58-.26-1-.78-1.14-1.4-.13-.62.04-1.27.46-1.75.16-.19,4.1-4.79,2.29-10.38-.33-1.03.21-2.13,1.23-2.5,1.36-.49,13.41-4.64,18.66-.54.87.68,1.03,1.94.35,2.81-.68.87-1.94,1.03-2.81.35-2.34-1.83-8.7-.75-13.15.59.74,4.31-.78,7.97-2.06,10.16l2.62,1.17c1.01.45,1.46,1.63,1.01,2.64-.33.74-1.06,1.18-1.83,1.18Z"/>
      </g>
      <g>
        <path class="cls-4" d="M47.43,72.63s3.04,4.54,2.43,7.25c0,0,7.34-6.37,6.96-12.23"/>
        <path class="cls-5" d="M49.86,81.87c-.35,0-.71-.09-1.03-.28-.74-.44-1.11-1.31-.92-2.16.29-1.27-1.11-4.15-2.14-5.7-.61-.92-.37-2.16.55-2.77.92-.61,2.16-.37,2.77.55.33.49,1.39,2.14,2.11,4.09,1.87-2.24,3.79-5.25,3.62-7.83-.07-1.1.77-2.05,1.87-2.12,1.12-.06,2.05.77,2.12,1.87.43,6.66-6.82,13.15-7.65,13.87-.37.32-.84.49-1.31.49Z"/>
      </g>
      <g>
        <path class="cls-4" d="M64.48,63.4s2.83,3.84,3.49,6.8c0,0,6.29-7.4,5.04-13.14"/>
        <path class="cls-5" d="M67.97,72.2c-.16,0-.32-.02-.48-.06-.74-.18-1.31-.76-1.47-1.5-.47-2.08-2.44-5.08-3.15-6.05-.65-.89-.46-2.14.43-2.8s2.14-.46,2.8.42c.2.27,1.37,1.88,2.39,3.85,1.57-2.52,3.15-5.95,2.58-8.58-.24-1.08.45-2.15,1.53-2.38,1.08-.24,2.15.45,2.38,1.53,1.43,6.52-4.76,14.03-5.47,14.86-.39.45-.94.7-1.52.7Z"/>
      </g>
      <g>
        <path class="cls-4" d="M11.75,75.91l12.26,6.1,4.96,15.46s8.68-8.71,7.48-17.95c0,0,10.82-7.93,17.72-10.56,6.89-2.63,38.6-25.13,42.03-43.9l-6.01,2.07.7-8.72s-12.89,4.19-21.33,11.99c-8.44,7.8-21.11,22.74-29.07,29.72s-12.02,8.76-12.02,8.76c0,0-14.89.03-16.71,7.02Z"/>
        <path class="cls-5" d="M28.97,99.46c-.16,0-.31-.02-.47-.06-.68-.16-1.22-.67-1.44-1.33l-4.71-14.65-11.5-5.72c-.85-.42-1.28-1.38-1.04-2.29,2.01-7.72,15.13-8.45,18.17-8.51,1.08-.57,4.87-2.73,11.18-8.27,4.12-3.62,9.69-9.58,15.07-15.33,4.88-5.22,9.92-10.62,13.96-14.36,8.66-8.01,21.53-12.25,22.07-12.42.64-.21,1.33-.08,1.86.33.52.41.81,1.06.75,1.73l-.45,5.68,3.12-1.08c.67-.23,1.42-.09,1.96.37.54.46.79,1.18.66,1.88-3.54,19.38-35.5,42.43-43.28,45.41-5.43,2.08-13.62,7.72-16.34,9.65.49,9.61-7.79,18.03-8.16,18.4-.38.38-.89.59-1.42.59ZM14.41,75l10.48,5.21c.48.24.85.67,1.01,1.18l3.86,12.01c2.27-3.05,5.39-8.32,4.7-13.63-.09-.72.21-1.44.8-1.87.45-.33,11.12-8.12,18.18-10.81,6.65-2.54,33.7-21.96,39.82-38.91l-2.43.84c-.64.22-1.34.1-1.88-.31-.53-.41-.82-1.07-.77-1.74l.45-5.6c-4.18,1.67-12.07,5.26-17.73,10.49-3.94,3.64-8.93,8.98-13.76,14.15-5.45,5.83-11.08,11.86-15.35,15.61-8.1,7.11-12.36,9.02-12.54,9.09-.25.11-.52.17-.8.17-3.07,0-11.37.83-14.05,4.12Z"/>
      </g>
      <g>
        <line class="cls-4" x1="82.4" y1="28.47" x2="82.42" y2="28.46"/>
        <path class="cls-5" d="M82.41,30.46c-.59,0-1.17-.25-1.56-.75-.69-.86-.56-2.12.31-2.81h.01c.86-.7,2.12-.56,2.81.3.69.86.55,2.12-.31,2.81-.37.3-.81.44-1.26.44Z"/>
      </g>
      <g>
        <path class="cls-4" d="M72.18,29.38s2.53,6.95,8.63,10.8"/>
        <path class="cls-5" d="M80.8,42.18c-.37,0-.73-.1-1.07-.31-6.6-4.17-9.33-11.5-9.44-11.81-.38-1.04.16-2.19,1.19-2.56,1.03-.38,2.18.16,2.56,1.19.03.09,2.41,6.38,7.82,9.8.93.59,1.21,1.83.62,2.76-.38.6-1.03.93-1.69.93Z"/>
      </g>
      <g>
        <path class="cls-4" d="M28.46,68.89s5.56,6.97,7.99,10.63"/>
        <path class="cls-5" d="M36.45,81.51c-.65,0-1.28-.31-1.67-.89-2.35-3.54-7.83-10.42-7.89-10.49-.69-.86-.55-2.12.32-2.81.86-.69,2.12-.55,2.81.32.23.29,5.64,7.08,8.09,10.77.61.92.36,2.16-.56,2.77-.34.23-.72.33-1.1.33Z"/>
      </g>
      <g>
        <path class="cls-4" d="M72.87,43.93s-1.41,6.79-7.68,8.63"/>
        <path class="cls-5" d="M65.19,54.56c-.86,0-1.66-.57-1.92-1.44-.31-1.06.3-2.17,1.36-2.48,5.01-1.47,6.24-6.89,6.29-7.12.23-1.08,1.29-1.76,2.37-1.54,1.08.23,1.77,1.28,1.54,2.36-.07.33-1.74,7.99-9.08,10.14-.19.06-.38.08-.56.08Z"/>
      </g>
      <path class="cls-2" d="M44.64,68.07c-.24,0-.48-.04-.72-.13-1.03-.4-1.55-1.55-1.15-2.58l.99-2.58c.4-1.03,1.55-1.54,2.58-1.15,1.03.4,1.55,1.55,1.15,2.58l-.99,2.58c-.31.79-1.06,1.28-1.87,1.28Z"/>
      <path class="cls-2" d="M51.2,62.61c-.24,0-.49-.04-.72-.14-1.03-.4-1.54-1.55-1.14-2.58.09-.24,2.38-6.05,8.2-12.26.76-.81,2.02-.84,2.83-.09.81.76.85,2.02.09,2.83-5.26,5.6-7.37,10.91-7.39,10.97-.31.79-1.06,1.27-1.87,1.27Z"/>
    </g>
    <g>
      <path class="cls-3" d="M100.27,103.54c6.88-2.98,5.12-15.6,3.84-19.49-1.21-3.66-27.27-3.41-35.39,1.29-.81.47-1.27,1.26-1.27,2.09.01,2.7.12,9.37.87,13.38.96,5.12,24.57,5.92,31.95,2.73Z"/>
      <path class="cls-2" d="M92.69,106.72s-.05,0-.08,0c-1.1-.04-1.96-.97-1.92-2.07.21-5.73,3.5-16.63,14.44-16.87.02,0,.03,0,.05,0,1.08,0,1.97.87,2,1.96.02,1.1-.85,2.02-1.96,2.04-9.9.22-10.51,12.5-10.53,13.03-.04,1.08-.93,1.92-2,1.92Z"/>
      <path class="cls-2" d="M81.35,106.09s-.05,0-.08,0c-1.1-.04-1.96-.97-1.92-2.07.3-8.09,4.91-23.48,20.25-23.82.02,0,.03,0,.05,0,1.08,0,1.97.87,2,1.96.02,1.1-.85,2.02-1.96,2.04-6.38.14-11.05,3.44-13.88,9.8-2.23,5.02-2.46,10.12-2.46,10.17-.04,1.08-.93,1.92-2,1.92Z"/>
      <path class="cls-2" d="M69.14,104.12c-.44,0-.89-.15-1.26-.44-.86-.69-.99-1.95-.3-2.81.07-.09,7.26-9.12,7.06-18.31-.02-1.1.85-2.02,1.96-2.04,1.09,0,2.02.85,2.04,1.96.23,10.67-7.62,20.49-7.95,20.91-.4.49-.97.74-1.55.74Z"/>
      <path class="cls-5" d="M89.3,107.08c-8.75,0-18.81-1.82-22.27-4.74-4.58-3.88-2.98-13.02-1.31-15.91,2.25-3.88,7.25-6.48,14.47-7.5,9.78-1.39,21.84.37,25.3,3.68,2.56,2.46,3.09,8.25,2.29,12.71-.9,5-3.29,8.58-6.71,10.06-2.7,1.17-7.04,1.7-11.76,1.7ZM87.14,82.46c-2.12,0-4.29.13-6.39.43-5.87.83-9.98,2.8-11.57,5.55-1.12,1.93-2.03,8.78.43,10.85,3.48,2.94,22.76,5.49,29.86,2.42h0c2.13-.92,3.72-3.51,4.36-7.09.8-4.42-.16-8.19-1.12-9.12-1.59-1.52-8.33-3.04-15.58-3.04Z"/>
    </g>
  </g>
</svg>