<?xml version="1.0" encoding="UTF-8"?>
<svg id="flatten_icons" data-name="flatten icons" xmlns="http://www.w3.org/2000/svg" viewBox="0 0 112 112">
  <defs>
    <style>
      .cls-1 {
        fill: none;
      }

      .cls-1, .cls-2, .cls-3, .cls-4, .cls-5, .cls-6, .cls-7, .cls-8 {
        stroke-width: 0px;
      }

      .cls-2 {
        fill: #74a6c1;
      }

      .cls-3 {
        fill: #c59878;
      }

      .cls-4 {
        fill: #8bba75;
      }

      .cls-5 {
        fill: #ffdb49;
      }

      .cls-6 {
        fill: #e4c8a7;
      }

      .cls-7 {
        fill: #e6cfd6;
      }

      .cls-8 {
        fill: #004241;
      }
    </style>
  </defs>
  <g id="lit">
    <g id="area">
      <rect class="cls-1" width="112" height="112"/>
    </g>
    <g id="lit-2" data-name="lit">
      <g>
        <rect class="cls-3" x="5.85" y="80.82" width="92.12" height="14.95" transform="translate(103.81 176.59) rotate(180)"/>
        <path class="cls-8" d="m97.96,97.77H5.85c-1.1,0-2-.9-2-2v-14.95c0-1.1.9-2,2-2h92.12c1.1,0,2,.9,2,2v14.95c0,1.1-.9,2-2,2Zm-90.12-4h88.12v-10.95H7.85v10.95Z"/>
      </g>
      <g>
        <rect class="cls-4" x="5.85" y="69.58" width="92.12" height="14.23" transform="translate(103.81 153.4) rotate(180)"/>
        <path class="cls-8" d="m97.96,85.81H5.85c-1.1,0-2-.9-2-2v-14.23c0-1.1.9-2,2-2h92.12c1.1,0,2,.9,2,2v14.23c0,1.1-.9,2-2,2Zm-90.12-4h88.12v-10.23H7.85v10.23Z"/>
      </g>
      <g>
        <path class="cls-6" d="m70.11,69.85h67.98v8.21h-67.98c-2.27,0-4.11-1.84-4.11-4.11h0c0-2.27,1.84-4.11,4.11-4.11Z" transform="translate(176.01 -28.09) rotate(90)"/>
        <path class="cls-8" d="m106.15,112h-8.21c-1.1,0-2-.9-2-2V42.02c0-3.37,2.74-6.11,6.11-6.11s6.11,2.74,6.11,6.11v67.98c0,1.1-.9,2-2,2Zm-6.21-4h4.21V42.02c0-1.16-.94-2.11-2.11-2.11s-2.11.94-2.11,2.11v65.98Z"/>
      </g>
      <g>
        <path class="cls-6" d="m-13.76,78.07h51.53v8.21H-13.76c-2.27,0-4.11-1.84-4.11-4.11h0c0-2.27,1.84-4.11,4.11-4.11Z" transform="translate(92.13 72.23) rotate(90)"/>
        <path class="cls-8" d="m14.06,112H5.85c-1.1,0-2-.9-2-2v-51.53c0-3.37,2.74-6.11,6.11-6.11s6.11,2.74,6.11,6.11v51.53c0,1.1-.9,2-2,2Zm-6.21-4h4.21v-49.53c0-1.16-.94-2.11-2.11-2.11s-2.11.94-2.11,2.11v49.53Z"/>
      </g>
      <g>
        <path class="cls-7" d="m97.96,54.36v15.22h-23.86s-.34-12.3,23.86-15.22Z"/>
        <path class="cls-8" d="m97.96,71.58h-23.86c-1.08,0-1.97-.86-2-1.94-.02-.58-.1-14.16,25.62-17.26.57-.06,1.14.11,1.57.49.43.38.67.92.67,1.5v15.22c0,1.1-.9,2-2,2Zm-21.44-4h19.44v-10.93c-14.37,2.22-18.35,7.89-19.44,10.93Z"/>
      </g>
      <g>
        <path class="cls-5" d="m28.51,12.18h0c0-3.85,1.38-7.37,3.68-10.11-.48-.04-.96-.07-1.45-.07h0c-8.7,0-15.75,7.05-15.75,15.75h0c0,8.7,7.05,15.75,15.75,15.75h0c4.85,0,9.19-2.2,12.08-5.65-8.02-.73-14.31-7.47-14.31-15.68Z"/>
        <path class="cls-8" d="m30.74,35.5c-9.79,0-17.75-7.96-17.75-17.75S20.95,0,30.74,0C31.24,0,31.76.03,32.37.08c.74.07,1.38.54,1.67,1.23.28.69.16,1.48-.32,2.05-2.07,2.47-3.21,5.6-3.21,8.82,0,7.15,5.37,13.04,12.49,13.69.74.07,1.38.54,1.67,1.23.28.69.16,1.48-.32,2.05-3.39,4.04-8.35,6.36-13.61,6.36Zm-2.33-31.31c-6.48,1.11-11.42,6.77-11.42,13.56,0,7.58,6.17,13.75,13.75,13.75,2.85,0,5.59-.88,7.88-2.48-7.12-2.35-12.11-9.01-12.11-16.84,0-2.79.66-5.52,1.9-7.98Z"/>
      </g>
      <g>
        <path class="cls-2" d="m68.23,83.82v-19.26c0-1.43,1.17-2.58,2.62-2.58h1.38c3.49,0,4.96,4.68,4.96,6.11l2.45,13.09c.26,1.38-.82,2.65-2.24,2.65h-9.17v-18.17H14.06v18.17h51.99"/>
        <path class="cls-8" d="m77.39,85.81h-9.17c-.4,0-.77-.12-1.09-.32-.31.2-.69.32-1.09.32H14.06c-1.1,0-2-.9-2-2v-18.17c0-1.1.9-2,2-2h52.26c.43-2.09,2.29-3.67,4.53-3.67h1.38c4.74,0,6.83,5.46,6.95,7.89l2.42,12.93c.23,1.24-.1,2.5-.9,3.47-.82.98-2.02,1.54-3.3,1.54Zm-61.33-4h49.99c.06,0,.12,0,.18,0v-14.18H16.06v14.17Zm54.17,0h7.17c.12,0,.19-.05.22-.1.07-.08.05-.16.05-.18l-2.45-13.09c-.02-.12-.03-.24-.03-.37,0-.67-1.03-4.11-2.96-4.11h-1.38c-.34,0-.62.26-.62.58v17.26Z"/>
      </g>
      <path class="cls-8" d="m55.05,76.73c-.63,0-1.25-.3-1.64-.85-.64-.9-.42-2.15.48-2.79,4.02-2.83,4.12-7.28,4.12-7.46.01-1.09.91-1.98,2-1.98,0,0,0,0,.01,0,1.1,0,1.99.89,1.99,1.99,0,.27-.07,6.67-5.82,10.72-.35.25-.75.36-1.15.36Z"/>
      <path class="cls-8" d="m22.72,76.73c-1.06,0-1.94-.83-2-1.9-.05-1.1.79-2.04,1.9-2.1.16,0,15.99-.89,23.26-8.47.76-.8,2.03-.82,2.83-.06.8.76.82,2.03.06,2.83-8.38,8.74-25.24,9.67-25.95,9.7-.03,0-.07,0-.1,0Z"/>
    </g>
  </g>
</svg>