<svg xmlns="http://www.w3.org/2000/svg" id="flatten_icons" data-name="flatten icons" viewBox="0 0 112 112"><defs><style>.cls-6,.cls-8{stroke-width:0}.cls-6{fill:#e4c8a7}.cls-8{fill:#004241}</style></defs><g id="lit"><path id="area" d="M0 0h112v112H0z" style="fill:none;stroke-width:0"/><g id="lit-2" data-name="lit"><path d="M5.85 80.82h92.12v14.95H5.85z" style="stroke-width:0;fill:#c59878" transform="rotate(180 51.905 88.295)"/><path d="M97.96 97.77H5.85c-1.1 0-2-.9-2-2V80.82c0-1.1.9-2 2-2h92.12c1.1 0 2 .9 2 2v14.95c0 1.1-.9 2-2 2Zm-90.12-4h88.12V82.82H7.85v10.95Z" class="cls-8"/><path d="M5.85 69.58h92.12v14.23H5.85z" style="stroke-width:0;fill:#8bba75" transform="rotate(180 51.905 76.7)"/><path d="M97.96 85.81H5.85c-1.1 0-2-.9-2-2V69.58c0-1.1.9-2 2-2h92.12c1.1 0 2 .9 2 2v14.23c0 1.1-.9 2-2 2Zm-90.12-4h88.12V71.58H7.85v10.23Z" class="cls-8"/><path d="M106.16 42.02V110h-8.21V42.02a4.11 4.11 0 1 1 8.22 0Z" class="cls-6"/><path d="M106.15 112h-8.21c-1.1 0-2-.9-2-2V42.02c0-3.37 2.74-6.11 6.11-6.11s6.11 2.74 6.11 6.11V110c0 1.1-.9 2-2 2Zm-6.21-4h4.21V42.02a2.11 2.11 0 0 0-4.22 0V108Z" class="cls-8"/><path d="M14.06 58.47V110H5.85V58.47a4.11 4.11 0 1 1 8.22 0Z" class="cls-6"/><path d="M14.06 112H5.85c-1.1 0-2-.9-2-2V58.47c0-3.37 2.74-6.11 6.11-6.11s6.11 2.74 6.11 6.11V110c0 1.1-.9 2-2 2Zm-6.21-4h4.21V58.47a2.11 2.11 0 0 0-4.22 0V108Z" class="cls-8"/><path d="M97.96 54.36v15.22H74.1s-.34-12.3 23.86-15.22" style="stroke-width:0;fill:#e6cfd6"/><path d="M97.96 71.58H74.1a2 2 0 0 1-2-1.94c-.02-.58-.1-14.16 25.62-17.26.57-.06 1.14.11 1.57.49s.67.92.67 1.5v15.22c0 1.1-.9 2-2 2Zm-21.44-4h19.44V56.65c-14.37 2.22-18.35 7.89-19.44 10.93" class="cls-8"/><path d="M28.51 12.18c0-3.85 1.38-7.37 3.68-10.11-.48-.04-.96-.07-1.45-.07-8.7 0-15.75 7.05-15.75 15.75S22.04 33.5 30.74 33.5c4.85 0 9.19-2.2 12.08-5.65-8.02-.73-14.31-7.47-14.31-15.68Z" style="stroke-width:0;fill:#ffdb49"/><path d="M30.74 35.5c-9.79 0-17.75-7.96-17.75-17.75S20.95 0 30.74 0c.5 0 1.02.03 1.63.08.74.07 1.38.54 1.67 1.23.28.69.16 1.48-.32 2.05a13.75 13.75 0 0 0-3.21 8.82c0 7.15 5.37 13.04 12.49 13.69.74.07 1.38.54 1.67 1.23.28.69.16 1.48-.32 2.05a17.73 17.73 0 0 1-13.61 6.36ZM28.41 4.19c-6.48 1.11-11.42 6.77-11.42 13.56 0 7.58 6.17 13.75 13.75 13.75 2.85 0 5.59-.88 7.88-2.48-7.12-2.35-12.11-9.01-12.11-16.84 0-2.79.66-5.52 1.9-7.98Z" class="cls-8"/><path d="M68.23 83.82V64.56c0-1.43 1.17-2.58 2.62-2.58h1.38c3.49 0 4.96 4.68 4.96 6.11l2.45 13.09c.26 1.38-.82 2.65-2.24 2.65h-9.17V65.66H14.06v18.17h51.99" style="stroke-width:0;fill:#74a6c1"/><path d="M77.39 85.81h-9.17c-.4 0-.77-.12-1.09-.32-.31.2-.69.32-1.09.32H14.06c-1.1 0-2-.9-2-2V65.64c0-1.1.9-2 2-2h52.26a4.62 4.62 0 0 1 4.53-3.67h1.38c4.74 0 6.83 5.46 6.95 7.89l2.42 12.93c.23 1.24-.1 2.5-.9 3.47-.82.98-2.02 1.54-3.3 1.54Zm-61.33-4h50.17V67.63H16.06V81.8Zm54.17 0h7.17c.12 0 .19-.05.22-.1.07-.08.05-.16.05-.18l-2.45-13.09c-.02-.12-.03-.24-.03-.37 0-.67-1.03-4.11-2.96-4.11h-1.38c-.34 0-.62.26-.62.58V81.8Z" class="cls-8"/><path d="M55.05 76.73a2.003 2.003 0 0 1-1.16-3.64c4.02-2.83 4.12-7.28 4.12-7.46.01-1.09.91-1.98 2-1.98h.01c1.1 0 1.99.89 1.99 1.99 0 .27-.07 6.67-5.82 10.72-.35.25-.75.36-1.15.36Zm-32.33 0c-1.06 0-1.94-.83-2-1.9-.05-1.1.79-2.04 1.9-2.1.16 0 15.99-.89 23.26-8.47.76-.8 2.03-.82 2.83-.06s.82 2.03.06 2.83c-8.38 8.74-25.24 9.67-25.95 9.7z" class="cls-8"/></g></g></svg>