<?xml version="1.0" encoding="UTF-8"?>
<svg id="outline_icons" xmlns="http://www.w3.org/2000/svg" viewBox="0 0 112 112">
  <defs>
    <style>
      .cls-1 {
        fill: none;
      }

      .cls-2 {
        fill: #dd7957;
      }

      .cls-3 {
        fill: #aecbd3;
      }

      .cls-4 {
        fill: #e2dbc9;
      }

      .cls-5 {
        fill: #98d2e2;
      }

      .cls-6 {
        fill: #ada592;
      }

      .cls-7 {
        fill: #d3e7ee;
      }

      .cls-8 {
        fill: #004241;
      }

      .cls-9 {
        fill: #dbc8b2;
      }

      .cls-10 {
        fill: #6caf69;
      }

      .cls-11 {
        fill: #ffdb49;
      }

      .cls-12 {
        fill: #827773;
      }
    </style>
  </defs>
  <g id="area">
    <rect class="cls-1" y="0" width="112" height="112"/>
  </g>
  <path class="cls-7" d="M52.84,9.5c23.33,0,42.24,18.91,42.24,42.24,0,8.63-2.59,16.64-7.03,23.33v33.43H10.6v-56.76c0-23.33,18.91-42.24,42.24-42.24Z"/>
  <g>
    <path class="cls-11" d="M22.24,21.73h0c0-3.18,1.14-6.08,3.04-8.34-.39-.04-.79-.06-1.19-.06h0c-7.19,0-13.02,5.82-13.02,13h0c0,7.18,5.83,13,13.02,13h0c4.01,0,7.59-1.81,9.98-4.66-6.63-.6-11.82-6.16-11.82-12.94Z"/>
    <path class="cls-8" d="M24.08,41.32c-8.28,0-15.02-6.73-15.02-15s6.74-15,15.02-15c.46,0,.92.03,1.37.07.74.07,1.39.54,1.67,1.23.28.69.16,1.48-.32,2.05-1.66,1.98-2.57,4.48-2.57,7.06,0,5.72,4.3,10.43,10.01,10.95.74.07,1.38.54,1.67,1.23.28.69.16,1.48-.32,2.05-2.87,3.42-7.06,5.37-11.51,5.37ZM21.54,15.62c-4.86,1.15-8.48,5.51-8.48,10.71,0,6.07,4.94,11,11.02,11,2.05,0,4.03-.57,5.73-1.61-5.67-2.17-9.58-7.62-9.58-13.99,0-2.12.45-4.2,1.3-6.11Z"/>
  </g>
  <g>
    <path class="cls-10" d="M49.16,81.27c.25-1.07.39-2.18.39-3.33,0-7.79-6.15-14.09-13.66-13.87-5.51.16-10.25,4-12.09,9.17-.51,1.44-2.07,2.2-3.55,1.8-.76-.21-1.55-.32-2.36-.32-5.34,0-9.67,4.55-9.67,10.15,0,.27,0,.53.03.8.12,1.56-.09,3.13-.8,4.51-1.01,1.96-1.53,4.24-1.4,6.65.35,6.3,5.35,10.15,11.36,10.4.81.03,1.61-.02,2.37-.15,4.65-.79,9.34-.18,13.96.78.7.14,2.85.1,3.58.13,7.51.22,12.22-5.06,12.22-12.86,0-1.15-.13-2.26-.39-3.33-.82-3.47-.82-7.07,0-10.54Z"/>
    <path class="cls-8" d="M37.78,110c-.17,0-.34,0-.51,0-.18,0-.45,0-.77,0-1.44,0-2.5-.02-3.16-.16-3.94-.82-8.59-1.55-13.22-.77-.91.16-1.85.21-2.79.18-7.43-.31-12.89-5.36-13.28-12.29-.15-2.68.41-5.34,1.62-7.68.49-.96.69-2.11.58-3.44-.03-.32-.04-.63-.04-.96,0-6.7,5.23-12.14,11.67-12.15.97,0,1.95.13,2.89.39.48.13.98-.1,1.13-.54,2.16-6.11,7.75-10.33,13.91-10.5,4.04-.14,7.91,1.4,10.87,4.27,3.08,2.99,4.85,7.22,4.85,11.6,0,1.28-.15,2.56-.44,3.79-.75,3.14-.75,6.47,0,9.61.29,1.23.44,2.51.44,3.79,0,4.58-1.51,8.57-4.26,11.23-2.45,2.38-5.73,3.63-9.51,3.63ZM24.26,104.73c3.63,0,7.07.59,9.9,1.18.36.07,1.77.07,2.37.08.36,0,.67,0,.87,0,2.89.09,5.35-.78,7.11-2.49,1.99-1.94,3.04-4.83,3.04-8.36,0-.97-.11-1.94-.33-2.87-.89-3.75-.89-7.71,0-11.46h0c.22-.93.33-1.9.33-2.87,0-3.3-1.32-6.49-3.63-8.73-2.17-2.11-4.99-3.22-7.97-3.14-4.52.13-8.64,3.28-10.26,7.84-.85,2.4-3.46,3.74-5.96,3.06-.6-.17-1.22-.25-1.83-.25-4.23,0-7.67,3.66-7.67,8.15,0,.21,0,.43.02.64.17,2.08-.18,3.96-1.02,5.58-.88,1.71-1.29,3.66-1.18,5.63.31,5.62,4.97,8.33,9.45,8.51.66.03,1.32-.01,1.95-.12,1.61-.27,3.22-.38,4.8-.38Z"/>
  </g>
  <g>
    <path class="cls-10" d="M7.46,90.18c-4.28,2.11-4.24,7.66-3.44,12.01.63,3.38,3.62,5.8,7.06,5.8h22.56c1.5,0,2.89-.85,3.53-2.2,1.01-2.13,2.03-5.51.65-8.93"/>
    <path class="cls-8" d="M33.64,109.99H11.08c-4.43,0-8.23-3.13-9.03-7.43-1.68-9.05,1.53-12.7,4.52-14.17.99-.49,2.19-.08,2.68.91s.08,2.19-.91,2.68c-3.17,1.56-3.03,6.22-2.35,9.85.45,2.41,2.59,4.17,5.09,4.17h22.56c.74,0,1.42-.42,1.72-1.06.88-1.85,1.69-4.62.6-7.33-.41-1.02.08-2.19,1.11-2.6,1.02-.42,2.19.08,2.6,1.11,1.63,4.05.52,7.96-.7,10.53-.96,2.03-3.06,3.35-5.34,3.35Z"/>
  </g>
  <path class="cls-3" d="M21.65,61.11h0c-.53,0-1.04-.21-1.41-.59l-4.39-4.39c-.78-.78-.78-2.05,0-2.83.78-.78,2.05-.78,2.83,0l2.98,2.98,4.8-4.8c.78-.78,2.05-.78,2.83,0,.78.78.78,2.05,0,2.83l-6.22,6.22c-.38.38-.88.59-1.41.59Z"/>
  <g>
    <rect class="cls-4" x="43.73" y="42.07" width="66" height="66"/>
    <path class="cls-8" d="M109.73,110.07H43.73c-1.1,0-2-.9-2-2V42.07c0-1.1.9-2,2-2h66c1.1,0,2,.9,2,2v66c0,1.1-.9,2-2,2ZM45.73,106.07h62v-62h-62v62Z"/>
  </g>
  <g>
    <path class="cls-2" d="M109.73,42H43.73h0c4.44-7.47,7.8-15.52,9.98-23.93l.02-.07h56v24Z"/>
    <path class="cls-8" d="M109.73,44H43.73c-.72,0-1.38-.39-1.74-1.01s-.35-1.39.02-2.01c4.34-7.31,7.63-15.18,9.77-23.41.23-.88,1.04-1.57,1.95-1.57h56c1.1,0,2,.9,2,2v24c0,1.1-.9,2-2,2ZM47.17,40h60.56v-20h-52.47c-1.94,6.99-4.65,13.68-8.09,20Z"/>
  </g>
  <g>
    <rect class="cls-9" x="43.73" y="98.99" width="66" height="9.08"/>
    <path class="cls-8" d="M109.73,110.07H43.73c-1.1,0-2-.9-2-2v-9.08c0-1.1.9-2,2-2h66c1.1,0,2,.9,2,2v9.08c0,1.1-.9,2-2,2ZM45.73,106.07h62v-5.08h-62v5.08Z"/>
  </g>
  <g>
    <polygon class="cls-4" points="68.42 79.67 32.41 79.67 32.41 86.01 25.77 86.01 25.77 92.35 19.84 92.35 19.84 98.7 14.19 98.7 14.19 108.04 68.42 108.04 68.42 98.7 68.42 79.67"/>
    <path class="cls-8" d="M68.42,110.04H14.19c-1.1,0-2-.9-2-2v-9.34c0-1.1.9-2,2-2h3.65v-4.34c0-1.1.9-2,2-2h3.92v-4.34c0-1.1.9-2,2-2h4.64v-4.34c0-1.1.9-2,2-2h36.01c1.1,0,2,.9,2,2v28.36c0,1.1-.9,2-2,2ZM16.19,106.04h50.22v-24.36h-32.01v4.34c0,1.1-.9,2-2,2h-4.64v4.34c0,1.1-.9,2-2,2h-3.92v4.34c0,1.1-.9,2-2,2h-3.65v5.34Z"/>
  </g>
  <g>
    <path class="cls-6" d="M51.03,90.74h0c4.06,0,7.36,3.3,7.36,7.36v9.13h-14.72v-9.13c0-4.06,3.3-7.36,7.36-7.36Z"/>
    <path class="cls-8" d="M58.39,109.23h-14.72c-1.1,0-2-.9-2-2v-9.13c0-5.16,4.2-9.36,9.36-9.36s9.36,4.2,9.36,9.36v9.13c0,1.1-.9,2-2,2ZM45.67,105.23h10.72v-7.13c0-2.96-2.41-5.36-5.36-5.36s-5.36,2.41-5.36,5.36v7.13Z"/>
  </g>
  <g>
    <rect class="cls-5" x="81.77" y="81.68" width="18.12" height="18.12"/>
    <path class="cls-8" d="M99.89,101.8h-18.12c-1.1,0-2-.9-2-2v-18.12c0-1.1.9-2,2-2h18.12c1.1,0,2,.9,2,2v18.12c0,1.1-.9,2-2,2ZM83.77,97.8h14.12v-14.12h-14.12v14.12Z"/>
  </g>
  <g>
    <rect class="cls-5" x="81.77" y="52.68" width="18.12" height="18.12"/>
    <path class="cls-8" d="M99.89,72.8h-18.12c-1.1,0-2-.9-2-2v-18.12c0-1.1.9-2,2-2h18.12c1.1,0,2,.9,2,2v18.12c0,1.1-.9,2-2,2ZM83.77,68.8h14.12v-14.12h-14.12v14.12Z"/>
  </g>
  <g>
    <rect class="cls-12" x="54.01" y="52.68" width="14.41" height="27"/>
    <path class="cls-8" d="M68.42,81.67h-14.41c-1.1,0-2-.9-2-2v-27c0-1.1.9-2,2-2h14.41c1.1,0,2,.9,2,2v27c0,1.1-.9,2-2,2ZM56.01,77.67h10.41v-23h-10.41v23Z"/>
  </g>
  <g>
    <rect class="cls-4" x="92.73" y="11.5" width="7.16" height="13"/>
    <path class="cls-8" d="M99.89,26.5h-7.16c-1.1,0-2-.9-2-2v-13c0-1.1.9-2,2-2h7.16c1.1,0,2,.9,2,2v13c0,1.1-.9,2-2,2ZM94.73,22.5h3.16v-9h-3.16v9Z"/>
  </g>
  <g>
    <path class="cls-10" d="M99.82,93.5c-1.47-.85-3.26-.63-4.49.41-.24-.21-.5-.4-.79-.57-2.56-1.48-5.79-.65-7.36,1.83-.33-.68-.86-1.26-1.56-1.67-1.88-1.09-4.28-.44-5.37,1.44s-.44,4.28,1.44,5.37c.15.09.31.15.47.21-.4,1.65.29,3.43,1.84,4.32,1.88,1.09,4.28.44,5.37-1.44.07-.11.11-.23.16-.35,2.54,1.16,5.59.25,7.01-2.22.04-.06.05-.13.09-.19,1.73.57,3.68-.13,4.62-1.77,1.09-1.88.44-4.28-1.44-5.37Z"/>
    <path class="cls-8" d="M85.97,107.36c-1.03,0-2.04-.27-2.96-.8-1.82-1.05-2.9-2.93-2.95-4.96-2.33-1.78-3.04-5.07-1.53-7.67,1.64-2.83,5.27-3.81,8.1-2.17.21.12.42.26.61.41,2.29-1.78,5.48-2.11,8.15-.65,1.72-.79,3.75-.73,5.43.24h0c2.83,1.63,3.81,5.27,2.17,8.1-1.12,1.94-3.25,3.04-5.39,2.96-1.75,2.14-4.53,3.13-7.22,2.59-.76.84-1.75,1.45-2.87,1.75-.51.14-1.03.21-1.54.21ZM83.67,94.97c-.67,0-1.32.35-1.67.96-.53.92-.21,2.1.71,2.64.04.02.09.04.14.06,0,0,.09.04.09.04.91.38,1.42,1.36,1.18,2.32-.2.84.16,1.69.89,2.12.45.26.97.33,1.46.19.5-.13.91-.45,1.17-.9l.07-.17c.22-.49.62-.86,1.12-1.05.5-.19,1.05-.17,1.54.05,1.62.74,3.5.17,4.41-1.33.03-.07.07-.15.09-.19.45-.87,1.47-1.27,2.39-.97.86.29,1.81-.08,2.27-.87.53-.92.21-2.1-.71-2.64h0c-.69-.4-1.58-.32-2.2.21-.74.63-1.83.63-2.58,0-.2-.17-.35-.28-.5-.36-1.61-.93-3.66-.42-4.67,1.16-.39.61-1.08.97-1.8.93-.72-.04-1.37-.47-1.69-1.12-.17-.34-.43-.63-.77-.82-.3-.17-.63-.26-.96-.26Z"/>
  </g>
  <g>
    <path class="cls-10" d="M100.23,64.33c-1.47-.85-3.26-.63-4.49.41-.24-.21-.5-.4-.79-.57-2.56-1.48-5.79-.65-7.36,1.83-.33-.68-.86-1.26-1.56-1.67-1.88-1.09-4.28-.44-5.37,1.44s-.44,4.28,1.44,5.37c.15.09.31.15.47.21-.4,1.65.29,3.43,1.84,4.32,1.31.76,2.87.66,4.06-.1.94,1.09,2.31,1.8,3.86,1.8,2.82,0,5.1-2.28,5.1-5.1,0-.25-.04-.49-.07-.72,1.64.39,3.42-.3,4.3-1.84,1.09-1.88.44-4.28-1.44-5.37Z"/>
    <path class="cls-8" d="M92.34,79.37c-1.54,0-3.03-.51-4.25-1.43-1.55.47-3.24.3-4.67-.53-1.82-1.05-2.9-2.93-2.95-4.96-1.04-.79-1.78-1.89-2.12-3.18-.41-1.53-.2-3.13.59-4.5.79-1.37,2.07-2.35,3.6-2.76,1.53-.41,3.13-.2,4.5.59.21.12.42.26.61.41,2.29-1.78,5.48-2.11,8.15-.65,1.72-.79,3.75-.73,5.43.24,1.37.79,2.35,2.07,2.76,3.6.41,1.53.2,3.13-.59,4.5-.9,1.55-2.4,2.57-4.08,2.87-.61,3.3-3.51,5.8-6.98,5.8ZM88.49,73.57c.57,0,1.13.24,1.52.7.61.71,1.44,1.1,2.34,1.1,1.71,0,3.1-1.39,3.1-3.1,0-.12-.02-.25-.04-.37-.1-.66.13-1.35.62-1.8.49-.45,1.16-.66,1.81-.51.84.2,1.69-.16,2.11-.9.26-.45.33-.97.19-1.46s-.45-.91-.9-1.17h0c-.69-.4-1.58-.32-2.2.21-.74.63-1.83.63-2.58,0-.2-.17-.35-.28-.5-.36-1.61-.93-3.66-.42-4.67,1.16-.39.61-1.07.97-1.8.93-.72-.04-1.37-.47-1.69-1.12-.17-.34-.43-.63-.77-.82-.45-.26-.97-.32-1.46-.19-.5.13-.91.45-1.17.9-.26.45-.33.97-.19,1.46.13.5.45.91.9,1.17.04.02.09.04.14.06.92.37,1.51,1.39,1.28,2.36-.2.84.16,1.69.89,2.12.61.35,1.38.33,1.99-.06.33-.21.7-.31,1.07-.31Z"/>
  </g>
  <g>
    <circle class="cls-2" cx="84.26" cy="67.56" r="4.12"/>
    <path class="cls-8" d="M84.26,73.68c-3.37,0-6.12-2.74-6.12-6.12s2.74-6.12,6.12-6.12,6.12,2.74,6.12,6.12-2.74,6.12-6.12,6.12ZM84.26,65.44c-1.17,0-2.12.95-2.12,2.12s.95,2.12,2.12,2.12,2.12-.95,2.12-2.12-.95-2.12-2.12-2.12Z"/>
  </g>
  <g>
    <circle class="cls-11" cx="98.08" cy="96.73" r="4.12"/>
    <path class="cls-8" d="M98.08,102.84c-3.37,0-6.12-2.74-6.12-6.12s2.74-6.12,6.12-6.12,6.12,2.74,6.12,6.12-2.74,6.12-6.12,6.12ZM98.08,94.61c-1.17,0-2.12.95-2.12,2.12s.95,2.12,2.12,2.12,2.12-.95,2.12-2.12-.95-2.12-2.12-2.12Z"/>
  </g>
  <path class="cls-4" d="M50.96,92.75c-.89,0-1.88.28-2.45.62,2.51.41,4.46,1.94,4.46,5.61v6.28h3.43v-6.6c0-4.01-2.66-5.91-5.44-5.91Z"/>
  <g>
    <polygon class="cls-5" points="81.77 33.47 61.21 33.47 64.21 25.67 84.77 25.67 81.77 33.47"/>
    <path class="cls-8" d="M81.77,35.47h-20.56c-.66,0-1.28-.32-1.65-.87-.37-.54-.45-1.24-.22-1.85l3-7.79c.3-.77,1.04-1.28,1.87-1.28h20.56c.66,0,1.28.32,1.65.87.37.54.45,1.24.22,1.85l-3,7.79c-.3.77-1.04,1.28-1.87,1.28ZM64.13,31.47h16.27l1.46-3.79h-16.27l-1.46,3.79Z"/>
  </g>
</svg>