<svg xmlns="http://www.w3.org/2000/svg" id="outline_icons" viewBox="0 0 112 112"><defs><style>.cls-2{fill:#dd7957}.cls-4{fill:#e2dbc9}.cls-5{fill:#98d2e2}.cls-8{fill:#004241}.cls-10{fill:#6caf69}.cls-11{fill:#ffdb49}</style></defs><path id="area" d="M0 0h112v112H0z" style="fill:none"/><path d="M52.84 9.5c23.33 0 42.24 18.91 42.24 42.24 0 8.63-2.59 16.64-7.03 23.33v33.43H10.6V51.74C10.6 28.41 29.51 9.5 52.84 9.5" style="fill:#d3e7ee"/><path d="M22.24 21.73c0-3.18 1.14-6.08 3.04-8.34-.39-.04-.79-.06-1.19-.06-7.19 0-13.02 5.82-13.02 13s5.83 13 13.02 13c4.01 0 7.59-1.81 9.98-4.66-6.63-.6-11.82-6.16-11.82-12.94Z" class="cls-11"/><path d="M24.08 41.32c-8.28 0-15.02-6.73-15.02-15s6.74-15 15.02-15c.46 0 .92.03 1.37.07.74.07 1.39.54 1.67 1.23s.16 1.48-.32 2.05a11 11 0 0 0-2.57 7.06c0 5.72 4.3 10.43 10.01 10.95.74.07 1.38.54 1.67 1.23.28.69.16 1.48-.32 2.05a14.98 14.98 0 0 1-11.51 5.37Zm-2.54-25.7c-4.86 1.15-8.48 5.51-8.48 10.71 0 6.07 4.94 11 11.02 11 2.05 0 4.03-.57 5.73-1.61-5.67-2.17-9.58-7.62-9.58-13.99 0-2.12.45-4.2 1.3-6.11Z" class="cls-8"/><path d="M49.16 81.27c.25-1.07.39-2.18.39-3.33 0-7.79-6.15-14.09-13.66-13.87-5.51.16-10.25 4-12.09 9.17-.51 1.44-2.07 2.2-3.55 1.8-.76-.21-1.55-.32-2.36-.32-5.34 0-9.67 4.55-9.67 10.15 0 .27 0 .53.03.8.12 1.56-.09 3.13-.8 4.51a12.96 12.96 0 0 0-1.4 6.65c.35 6.3 5.35 10.15 11.36 10.4.81.03 1.61-.02 2.37-.15 4.65-.79 9.34-.18 13.96.78.7.14 2.85.1 3.58.13 7.51.22 12.22-5.06 12.22-12.86q0-1.725-.39-3.33c-.82-3.47-.82-7.07 0-10.54Z" class="cls-10"/><path d="M37.78 110H36.5c-1.44 0-2.5-.02-3.16-.16-3.94-.82-8.59-1.55-13.22-.77-.91.16-1.85.21-2.79.18-7.43-.31-12.89-5.36-13.28-12.29-.15-2.68.41-5.34 1.62-7.68.49-.96.69-2.11.58-3.44-.03-.32-.04-.63-.04-.96 0-6.7 5.23-12.14 11.67-12.15.97 0 1.95.13 2.89.39.48.13.98-.1 1.13-.54 2.16-6.11 7.75-10.33 13.91-10.5 4.04-.14 7.91 1.4 10.87 4.27 3.08 2.99 4.85 7.22 4.85 11.6 0 1.28-.15 2.56-.44 3.79-.75 3.14-.75 6.47 0 9.61.29 1.23.44 2.51.44 3.79 0 4.58-1.51 8.57-4.26 11.23-2.45 2.38-5.73 3.63-9.51 3.63Zm-13.52-5.27c3.63 0 7.07.59 9.9 1.18.36.07 1.77.07 2.37.08h.87c2.89.09 5.35-.78 7.11-2.49 1.99-1.94 3.04-4.83 3.04-8.36 0-.97-.11-1.94-.33-2.87-.89-3.75-.89-7.71 0-11.46.22-.93.33-1.9.33-2.87 0-3.3-1.32-6.49-3.63-8.73-2.17-2.11-4.99-3.22-7.97-3.14-4.52.13-8.64 3.28-10.26 7.84-.85 2.4-3.46 3.74-5.96 3.06-.6-.17-1.22-.25-1.83-.25-4.23 0-7.67 3.66-7.67 8.15 0 .21 0 .43.02.64.17 2.08-.18 3.96-1.02 5.58a11 11 0 0 0-1.18 5.63c.31 5.62 4.97 8.33 9.45 8.51.66.03 1.32-.01 1.95-.12 1.61-.27 3.22-.38 4.8-.38Z" class="cls-8"/><path d="M7.46 90.18c-4.28 2.11-4.24 7.66-3.44 12.01.63 3.38 3.62 5.8 7.06 5.8h22.56c1.5 0 2.89-.85 3.53-2.2 1.01-2.13 2.03-5.51.65-8.93" class="cls-10"/><path d="M33.64 109.99H11.08c-4.43 0-8.23-3.13-9.03-7.43-1.68-9.05 1.53-12.7 4.52-14.17a2.002 2.002 0 0 1 1.77 3.59c-3.17 1.56-3.03 6.22-2.35 9.85.45 2.41 2.59 4.17 5.09 4.17h22.56c.74 0 1.42-.42 1.72-1.06.88-1.85 1.69-4.62.6-7.33-.41-1.02.08-2.19 1.11-2.6 1.02-.42 2.19.08 2.6 1.11 1.63 4.05.52 7.96-.7 10.53-.96 2.03-3.06 3.35-5.34 3.35Z" class="cls-8"/><path d="M21.65 61.11c-.53 0-1.04-.21-1.41-.59l-4.39-4.39c-.78-.78-.78-2.05 0-2.83s2.05-.78 2.83 0l2.98 2.98 4.8-4.8c.78-.78 2.05-.78 2.83 0s.78 2.05 0 2.83l-6.22 6.22c-.38.38-.88.59-1.41.59Z" style="fill:#aecbd3"/><path d="M43.73 42.07h66v66h-66z" class="cls-4"/><path d="M109.73 110.07h-66c-1.1 0-2-.9-2-2v-66c0-1.1.9-2 2-2h66c1.1 0 2 .9 2 2v66c0 1.1-.9 2-2 2m-64-4h62v-62h-62z" class="cls-8"/><path d="M109.73 42h-66c4.44-7.47 7.8-15.52 9.98-23.93l.02-.07h56z" class="cls-2"/><path d="M109.73 44h-66c-.72 0-1.38-.39-1.74-1.01s-.35-1.39.02-2.01a90.4 90.4 0 0 0 9.77-23.41c.23-.88 1.04-1.57 1.95-1.57h56c1.1 0 2 .9 2 2v24c0 1.1-.9 2-2 2m-62.56-4h60.56V20H55.26a94.8 94.8 0 0 1-8.09 20" class="cls-8"/><path d="M43.73 98.99h66v9.08h-66z" style="fill:#dbc8b2"/><path d="M109.73 110.07h-66c-1.1 0-2-.9-2-2v-9.08c0-1.1.9-2 2-2h66c1.1 0 2 .9 2 2v9.08c0 1.1-.9 2-2 2m-64-4h62v-5.08h-62z" class="cls-8"/><path d="M68.42 79.67H32.41v6.34h-6.64v6.34h-5.93v6.35h-5.65v9.34h54.23z" class="cls-4"/><path d="M68.42 110.04H14.19c-1.1 0-2-.9-2-2V98.7c0-1.1.9-2 2-2h3.65v-4.34c0-1.1.9-2 2-2h3.92v-4.34c0-1.1.9-2 2-2h4.64v-4.34c0-1.1.9-2 2-2h36.01c1.1 0 2 .9 2 2v28.36c0 1.1-.9 2-2 2Zm-52.23-4h50.22V81.68H34.4v4.34c0 1.1-.9 2-2 2h-4.64v4.34c0 1.1-.9 2-2 2h-3.92v4.34c0 1.1-.9 2-2 2h-3.65z" class="cls-8"/><path d="M51.03 90.74c4.06 0 7.36 3.3 7.36 7.36v9.13H43.67V98.1c0-4.06 3.3-7.36 7.36-7.36" style="fill:#ada592"/><path d="M58.39 109.23H43.67c-1.1 0-2-.9-2-2V98.1c0-5.16 4.2-9.36 9.36-9.36s9.36 4.2 9.36 9.36v9.13c0 1.1-.9 2-2 2m-12.72-4h10.72V98.1c0-2.96-2.41-5.36-5.36-5.36s-5.36 2.41-5.36 5.36z" class="cls-8"/><path d="M81.77 81.68h18.12V99.8H81.77z" class="cls-5"/><path d="M99.89 101.8H81.77c-1.1 0-2-.9-2-2V81.68c0-1.1.9-2 2-2h18.12c1.1 0 2 .9 2 2V99.8c0 1.1-.9 2-2 2m-16.12-4h14.12V83.68H83.77z" class="cls-8"/><path d="M81.77 52.68h18.12V70.8H81.77z" class="cls-5"/><path d="M99.89 72.8H81.77c-1.1 0-2-.9-2-2V52.68c0-1.1.9-2 2-2h18.12c1.1 0 2 .9 2 2V70.8c0 1.1-.9 2-2 2m-16.12-4h14.12V54.68H83.77z" class="cls-8"/><path d="M54.01 52.68h14.41v27H54.01z" style="fill:#827773"/><path d="M68.42 81.67H54.01c-1.1 0-2-.9-2-2v-27c0-1.1.9-2 2-2h14.41c1.1 0 2 .9 2 2v27c0 1.1-.9 2-2 2m-12.41-4h10.41v-23H56.01z" class="cls-8"/><path d="M92.73 11.5h7.16v13h-7.16z" class="cls-4"/><path d="M99.89 26.5h-7.16c-1.1 0-2-.9-2-2v-13c0-1.1.9-2 2-2h7.16c1.1 0 2 .9 2 2v13c0 1.1-.9 2-2 2m-5.16-4h3.16v-9h-3.16z" class="cls-8"/><path d="M99.82 93.5a3.92 3.92 0 0 0-4.49.41c-.24-.21-.5-.4-.79-.57-2.56-1.48-5.79-.65-7.36 1.83a3.929 3.929 0 0 0-6.93-.23 3.93 3.93 0 0 0 1.44 5.37c.15.09.31.15.47.21-.4 1.65.29 3.43 1.84 4.32 1.88 1.09 4.28.44 5.37-1.44.07-.11.11-.23.16-.35 2.54 1.16 5.59.25 7.01-2.22.04-.06.05-.13.09-.19 1.73.57 3.68-.13 4.62-1.77 1.09-1.88.44-4.28-1.44-5.37Z" class="cls-10"/><path d="M85.97 107.36a5.9 5.9 0 0 1-2.96-.8 5.87 5.87 0 0 1-2.95-4.96c-2.33-1.78-3.04-5.07-1.53-7.67 1.64-2.83 5.27-3.81 8.1-2.17a5 5 0 0 1 .61.41 7.45 7.45 0 0 1 8.15-.65c1.72-.79 3.75-.73 5.43.24 2.83 1.63 3.81 5.27 2.17 8.1-1.12 1.94-3.25 3.04-5.39 2.96a7.44 7.44 0 0 1-7.22 2.59 5.93 5.93 0 0 1-2.87 1.75c-.51.14-1.03.21-1.54.21Zm-2.3-12.39c-.67 0-1.32.35-1.67.96-.53.92-.21 2.1.71 2.64.04.02.09.04.14.06l.09.04c.91.38 1.42 1.36 1.18 2.32-.2.84.16 1.69.89 2.12.45.26.97.33 1.46.19.5-.13.91-.45 1.17-.9l.07-.17a2.007 2.007 0 0 1 2.66-1c1.62.74 3.5.17 4.41-1.33.03-.07.07-.15.09-.19.45-.87 1.47-1.27 2.39-.97.86.29 1.81-.08 2.27-.87.53-.92.21-2.1-.71-2.64a1.92 1.92 0 0 0-2.2.21c-.74.63-1.83.63-2.58 0-.2-.17-.35-.28-.5-.36-1.61-.93-3.66-.42-4.67 1.16-.39.61-1.08.97-1.8.93s-1.37-.47-1.69-1.12a1.95 1.95 0 0 0-1.73-1.08Z" class="cls-8"/><path d="M100.23 64.33a3.92 3.92 0 0 0-4.49.41c-.24-.21-.5-.4-.79-.57-2.56-1.48-5.79-.65-7.36 1.83a3.929 3.929 0 0 0-6.93-.23 3.93 3.93 0 0 0 1.44 5.37c.15.09.31.15.47.21-.4 1.65.29 3.43 1.84 4.32 1.31.76 2.87.66 4.06-.1.94 1.09 2.31 1.8 3.86 1.8 2.82 0 5.1-2.28 5.1-5.1 0-.25-.04-.49-.07-.72 1.64.39 3.42-.3 4.3-1.84 1.09-1.88.44-4.28-1.44-5.37Z" class="cls-10"/><path d="M92.34 79.37c-1.54 0-3.03-.51-4.25-1.43-1.55.47-3.24.3-4.67-.53a5.87 5.87 0 0 1-2.95-4.96 5.82 5.82 0 0 1-2.12-3.18c-.41-1.53-.2-3.13.59-4.5a5.9 5.9 0 0 1 3.6-2.76c1.53-.41 3.13-.2 4.5.59a5 5 0 0 1 .61.41 7.45 7.45 0 0 1 8.15-.65c1.72-.79 3.75-.73 5.43.24 1.37.79 2.35 2.07 2.76 3.6s.2 3.13-.59 4.5c-.9 1.55-2.4 2.57-4.08 2.87-.61 3.3-3.51 5.8-6.98 5.8m-3.85-5.8c.57 0 1.13.24 1.52.7.61.71 1.44 1.1 2.34 1.1 1.71 0 3.1-1.39 3.1-3.1 0-.12-.02-.25-.04-.37-.1-.66.13-1.35.62-1.8s1.16-.66 1.81-.51c.84.2 1.69-.16 2.11-.9.26-.45.33-.97.19-1.46s-.45-.91-.9-1.17a1.92 1.92 0 0 0-2.2.21c-.74.63-1.83.63-2.58 0-.2-.17-.35-.28-.5-.36-1.61-.93-3.66-.42-4.67 1.16-.39.61-1.07.97-1.8.93-.72-.04-1.37-.47-1.69-1.12-.17-.34-.43-.63-.77-.82-.45-.26-.97-.32-1.46-.19-.5.13-.91.45-1.17.9s-.33.97-.19 1.46c.13.5.45.91.9 1.17.04.02.09.04.14.06.92.37 1.51 1.39 1.28 2.36-.2.84.16 1.69.89 2.12.61.35 1.38.33 1.99-.06.33-.21.7-.31 1.07-.31Z" class="cls-8"/><circle cx="84.26" cy="67.56" r="4.12" class="cls-2"/><path d="M84.26 73.68c-3.37 0-6.12-2.74-6.12-6.12a6.12 6.12 0 1 1 6.12 6.12m0-8.24a2.121 2.121 0 0 0 0 4.24 2.121 2.121 0 0 0 0-4.24" class="cls-8"/><circle cx="98.08" cy="96.73" r="4.12" class="cls-11"/><path d="M98.08 102.84c-3.37 0-6.12-2.74-6.12-6.12a6.12 6.12 0 1 1 6.12 6.12m0-8.23a2.121 2.121 0 0 0 0 4.24 2.121 2.121 0 0 0 0-4.24" class="cls-8"/><path d="M50.96 92.75c-.89 0-1.88.28-2.45.62 2.51.41 4.46 1.94 4.46 5.61v6.28h3.43v-6.6c0-4.01-2.66-5.91-5.44-5.91" class="cls-4"/><path d="M81.77 33.47H61.21l3-7.8h20.56z" class="cls-5"/><path d="M81.77 35.47H61.21c-.66 0-1.28-.32-1.65-.87-.37-.54-.45-1.24-.22-1.85l3-7.79c.3-.77 1.04-1.28 1.87-1.28h20.56c.66 0 1.28.32 1.65.87.37.54.45 1.24.22 1.85l-3 7.79c-.3.77-1.04 1.28-1.87 1.28m-17.64-4H80.4l1.46-3.79H65.59z" class="cls-8"/></svg>