<svg xmlns="http://www.w3.org/2000/svg" id="flatten_icons" data-name="flatten icons" viewBox="0 0 112 112"><defs><style>.cls-2,.cls-3,.cls-4{stroke-width:0}.cls-2{fill:#6eb77b}.cls-3{fill:#aad681}.cls-4{fill:#004241}</style></defs><path d="M0 0h112v112H0z" style="fill:none;stroke-width:0"/><path d="M63.14 81.68s9.31 7.48 17.38.67-5.49-8.61-5.49-8.61l-11.88 2.91v5.02Z" class="cls-2"/><path d="M72.88 87.19c-4.59 0-8.76-2.16-11-3.96-.47-.38-.75-.95-.75-1.56v-5.02a2 2 0 0 1 1.52-1.94l11.88-2.92c.24-.06.49-.07.74-.04 1.4.18 8.41 1.31 9.62 5.43.63 2.17-.41 4.41-3.1 6.68-2.88 2.43-5.99 3.32-8.93 3.32Zm-7.74-6.54c2.16 1.43 8.52 4.88 14.09.17 1.63-1.38 1.92-2.24 1.84-2.5-.29-.98-3.34-2.13-5.95-2.54l-9.98 2.45v2.43Zm-2 1.03" class="cls-4"/><path d="M41.9 92.62s4.03-13.89 18.99-17.09c0 0 3.25-7.96 14.01-7.96s17.82 6.39 18.61 12.05-9.19 7.79-14.12 1.51-12.89-2.94-16.25.54c0 0-9.86.02-12.56 10l-8.68.94Z" class="cls-3"/><path d="M41.9 94.62c-.59 0-1.15-.26-1.53-.71a1.98 1.98 0 0 1-.39-1.84c.17-.6 4.37-14.51 19.55-18.27 1.35-2.38 5.64-8.22 15.37-8.22 11.69 0 19.65 7 20.59 13.78.41 2.93-1.2 5.54-4.2 6.82-3.91 1.66-9.79.89-13.47-3.79-1.35-1.72-3.06-2.65-5.08-2.75-3.17-.17-6.45 1.67-8.17 3.44-.38.39-.89.61-1.43.61-.33 0-8.38.19-10.63 8.52-.21.8-.9 1.38-1.71 1.47l-8.68.94c-.07 0-.14.01-.22.01Zm33.01-25.05c-9.2 0-12.05 6.45-12.17 6.73-.25.6-.79 1.05-1.43 1.19-9.62 2.05-14.32 8.83-16.29 12.78l4.04-.44c2.64-7.41 9.3-9.81 13.23-10.12 2.49-2.27 6.57-4.3 10.65-4.08 3.18.16 5.95 1.64 8.02 4.27 2.41 3.07 6.32 3.62 8.76 2.58.93-.4 2-1.17 1.81-2.59-.69-4.97-7.24-10.33-16.63-10.33Z" class="cls-4"/><path d="M47.55 88.73c-1.06 0-1.94-.83-2-1.9C44.09 57 30.64 48.72 30.51 48.64a2.005 2.005 0 0 1-.72-2.73c.55-.95 1.76-1.28 2.72-.73.63.36 15.46 9.22 17.04 41.46.05 1.1-.8 2.04-1.9 2.1h-.1Z" class="cls-4"/><path d="M47.79 50.98s-6.86-7.29-5.77-19.63 10.2-15.69 18.06-10.42c7.13 4.77 6.79 13.18 5.42 19.23-2.51 11.01-11.04 15.9-17.71 10.82" class="cls-2"/><path d="M53.4 54.99c-2.38 0-4.72-.82-6.83-2.42-.09-.07-.17-.14-.25-.22-.31-.32-7.46-8.09-6.3-21.17.58-6.6 3.36-11.4 7.81-13.53 4.05-1.94 8.92-1.35 13.36 1.63 6.31 4.22 8.47 11.6 6.25 21.33-1.55 6.81-5.41 11.94-10.33 13.72-1.23.45-2.48.67-3.72.67Zm-4.26-5.49c2.07 1.51 4.36 1.88 6.61 1.06 3.63-1.32 6.54-5.37 7.79-10.85 1.84-8.09.3-13.85-4.58-17.12-3.23-2.17-6.66-2.65-9.4-1.34-3.13 1.5-5.1 5.15-5.55 10.28-.92 10.43 4.34 17.03 5.13 17.97" class="cls-4"/><path d="M54.1 46.99c-.89 0-1.7-.6-1.93-1.5-1.97-7.58-1.35-18.15-1.32-18.59.07-1.1 1.01-1.96 2.12-1.87 1.1.07 1.94 1.02 1.87 2.12 0 .1-.61 10.38 1.2 17.34.28 1.07-.36 2.16-1.43 2.44a2.2 2.2 0 0 1-.5.06Z" class="cls-3"/><path d="M45.93 78.73s1.08-7.99 3.69-11.39c.51-.66.49-1.59-.08-2.21-1.28-1.41-3.15-4.36-3.62-9.89-.73-8.63 7.9-16.25 17.54-14.12s9.75 25.9-6.5 25.78c0 0-4.48 3.7-5.38 9.3-.9 5.61-1.01 15.47-1.01 15.47l-1.63.89a7.46 7.46 0 0 1-7.05.06c.12-3.28-.38-6.41-.89-8.66-.59-2.65-1.84-5.14-3.76-7.08-.91-.92-1.9-1.63-2.73-1.51 0 0-4.03 6.88-13.17 4.26-9.15-2.62-17.66-9.87-9.46-18.7s26.13-1.65 24.56 7.88c0 0 9.3 3.48 10.2 13.45" class="cls-3"/><path d="M45.38 95.48c-1.51 0-3.02-.36-4.4-1.09-.68-.36-1.1-1.07-1.07-1.84.11-3.14-.39-6.17-.84-8.15-.54-2.4-1.65-4.52-3.23-6.11-.22-.23-.41-.4-.57-.53-2.35 2.73-7.3 5.85-14.45 3.8-5.67-1.62-12.3-5.38-13.88-11.04-.7-2.52-.67-6.46 3.5-10.95 5.47-5.89 14.31-5.47 20.21-2.57 4.97 2.44 7.88 6.39 7.91 10.58 1.61.83 4.31 2.52 6.53 5.36.63-2.33 1.55-4.89 2.83-6.64-1.58-1.81-3.48-5.13-3.97-10.89-.4-4.68 1.53-9.25 5.27-12.53 4.04-3.53 9.39-4.88 14.69-3.72 6.22 1.37 8.79 9.07 8.05 15.62-.72 6.37-4.87 13.76-14.19 14.1-1.07 1.05-3.6 3.89-4.2 7.63-.86 5.4-.98 15.08-.98 15.18 0 .72-.41 1.39-1.04 1.73l-1.63.89a9.5 9.5 0 0 1-4.54 1.16Zm-1.46-4.2c1.35.37 2.82.22 4.08-.47l.6-.33c.06-2.82.28-10 1.01-14.59 1-6.28 5.88-10.36 6.08-10.53.36-.3.81-.46 1.27-.46h.11c7.15 0 10.32-5.45 10.9-10.56.62-5.47-1.6-10.53-4.94-11.27-4.05-.9-8.13.13-11.2 2.82-2.78 2.43-4.21 5.78-3.92 9.18.43 5.08 2.13 7.64 3.1 8.71a3.72 3.72 0 0 1 .18 4.78c-1.75 2.28-2.86 7.6-3.23 9.98.32 1.09.56 2.26.67 3.53.1 1.1-.71 2.07-1.81 2.17-1.11.08-2.07-.71-2.17-1.81-.1-1.08-.31-2.07-.6-2.98-.03-.06-.05-.13-.07-.2-2.08-6.15-7.96-8.47-8.25-8.58a2.02 2.02 0 0 1-1.27-2.2c.58-3.51-2.51-6.38-5.6-7.9-4.61-2.26-11.43-2.69-15.52 1.71-2.33 2.51-3.2 4.92-2.58 7.15.94 3.36 5.3 6.6 11.12 8.27 7.57 2.17 10.86-3.29 10.9-3.35.31-.53.84-.88 1.44-.97 1.41-.21 2.85.48 4.43 2.08 2.1 2.13 3.58 4.91 4.28 8.04.43 1.92.91 4.72.95 7.76Z" class="cls-4"/><path d="M70 50.91s7.66-7.51 13.08-7.87" class="cls-3"/><path d="M70 52.91c-.52 0-1.04-.2-1.43-.6-.77-.79-.76-2.05.03-2.83.84-.82 8.36-8.04 14.34-8.43 1.12-.1 2.06.76 2.13 1.86s-.76 2.05-1.86 2.13c-3.83.25-9.82 5.36-11.81 7.3-.39.38-.89.57-1.4.57" class="cls-4"/><path d="M31.52 46.91s-8.19 3.68-17.93-1.89-9.52-15.27-2.66-20.63c6.22-4.86 12.99-1.45 17.49 2.06 8.19 6.4 9.42 16.13 3.1 20.46" class="cls-3"/><path d="M24.77 50.11c-3.38 0-7.62-.75-12.17-3.35-5.17-2.96-8.21-7.25-8.56-12.07-.32-4.48 1.74-8.81 5.67-11.87 5.66-4.42 12.56-3.71 19.95 2.06 5.09 3.98 8.03 9.45 7.87 14.65-.12 3.75-1.85 6.96-4.87 9.04-.1.07-.2.13-.31.17-.21.09-3.15 1.38-7.57 1.38Zm-7.06-26.12c-2 0-3.85.66-5.54 1.98-2.86 2.23-4.37 5.31-4.14 8.43.25 3.45 2.58 6.61 6.56 8.89 8.07 4.62 14.83 2.31 15.97 1.86 1.87-1.35 2.9-3.34 2.98-5.75.12-3.92-2.25-8.17-6.34-11.37-3.45-2.69-6.62-4.04-9.48-4.04Z" class="cls-4"/><path d="M76.54 42.76s.16-8.98 9.36-15.41 17.87-2.1 19.79 6.4c1.74 7.7-4.23 12.37-9.33 14.94-9.28 4.68-18.6 1.64-19.82-5.92Z" class="cls-3"/><path d="M87.57 52.91c-2.5 0-4.86-.52-6.91-1.57-3.35-1.71-5.51-4.64-6.09-8.26-.02-.12-.03-.24-.02-.35 0-.41.29-10.08 10.21-17.01 4.88-3.42 10.06-4.34 14.57-2.59 4.19 1.62 7.22 5.33 8.32 10.19 1.59 7.01-2 12.94-10.38 17.17-3.21 1.62-6.56 2.44-9.7 2.44Zm-9.02-10.27c.42 2.27 1.78 4.05 3.93 5.14 3.5 1.78 8.35 1.46 12.98-.88 6.64-3.35 9.43-7.63 8.28-12.71-.8-3.54-2.94-6.21-5.86-7.34-3.23-1.25-7.08-.49-10.83 2.14-7.61 5.33-8.41 12.49-8.49 13.65Z" class="cls-4"/><path d="M81.85 45.03c-.43 0-.86-.14-1.22-.42a1.99 1.99 0 0 1-.36-2.79c.18-.24 4.63-5.9 15.14-8.03 1.08-.22 2.14.48 2.36 1.56s-.48 2.14-1.56 2.36c-8.94 1.81-12.73 6.51-12.77 6.56-.4.5-.98.76-1.58.76Zm-51.96.01c-.78 0-1.52-.46-1.84-1.23-.93-2.2-7.58-6.43-12.01-8.73a2.002 2.002 0 0 1 1.85-3.55c2 1.03 12.05 6.42 13.86 10.73.43 1.02-.05 2.19-1.07 2.62-.25.11-.52.16-.77.16Zm.45 28.08c-.33 0-.66-.08-.96-.25-7.64-4.2-10.95-3.24-10.98-3.23-1.02.42-2.15-.09-2.57-1.11s.11-2.2 1.13-2.62c.77-.31 5.09-1.63 14.34 3.45a2.004 2.004 0 0 1-.96 3.76m25.18-10.91a2.003 2.003 0 0 1-1.94-2.49c1.04-4.11 5.05-10.69 5.22-10.97a2 2 0 1 1 3.41 2.09c-1.07 1.75-4.01 6.94-4.75 9.86-.23.91-1.04 1.51-1.94 1.51" class="cls-2"/></svg>