<svg xmlns="http://www.w3.org/2000/svg" id="outline_icons" viewBox="0 0 112 112"><defs><style>.cls-2{fill:#eabe65}.cls-3{fill:#ce8b4e}.cls-4{fill:#004241}</style></defs><g id="madeleines"><path d="m37.95 74.76 46.39-14.09c11.48-3.49 19.26-14.28 18.73-26.27-.19-4.39-1.13-8.62-3.42-11.78-7.69-10.6-24.05-16.55-45.61-6.48-6.29 2.94-15.87 16.06-23.48 27.75-6.84 10.5-3.44 24.59 7.4 30.86Z" class="cls-2"/><path d="M40.04 59.43s-7.02-2.77 0-14.04c7.02-11.28 22.98-29.15 44.25-28.3 0 0-26.17 12.1-31.7 21.15s2.34 6.47 10.64 0S81.7 25.38 92.8 24.96c0 0-23.4 15.74-29.57 21.06s-1.49 7.83 3.62 5.4 15.74-14.13 29.36-16.25c0 0-16.24 12.34-21.95 17.45s12.38.43 17.48-3.19 10.99-9.55 10.99-9.55-4.74 13.28-16.61 20.17-30.13 6.82-30.13 6.82l-18.3-.96 2.34-6.49Z" class="cls-3"/><path d="M37.95 76.76c-.35 0-.69-.09-1-.27-5.74-3.32-9.74-8.7-11.28-15.14-1.54-6.43-.4-13.01 3.21-18.54 10.63-16.32 18.81-25.9 24.31-28.47C63.5 9.52 73.62 7.91 82.44 9.68c7.76 1.56 14.45 5.74 18.83 11.78 2.29 3.15 3.57 7.48 3.8 12.87.56 12.87-7.72 24.5-20.15 28.27L38.53 76.69c-.19.06-.39.09-.58.09Zm37.26-63.84c-5.9 0-12.71 1.48-20.33 5.04-4.68 2.18-12.72 11.79-22.66 27.03-3 4.6-3.95 10.08-2.67 15.43 1.22 5.09 4.28 9.38 8.67 12.17l45.54-13.83c10.68-3.24 17.8-13.22 17.31-24.27-.2-4.59-1.23-8.18-3.05-10.69-4.39-6.04-12.13-10.88-22.82-10.88Z" class="cls-4"/><path d="M36.05 61.93c-6.64 2.89-19.51 8.42-23.24 11.31s-4.88 13.57 9.84 19.92c2.05.88 4.08 1.6 6.07 2.19 9.88 2.92 20.4 2.93 30.37.35 7.98-2.07 20.73-5.87 30.5-11.2 15.36-8.37 15.93-15.22 1.21-20.75-14.73-5.53-13.57-3.79-13.57-3.79" class="cls-2"/><path d="M98.94 68.11c-4.11 7.27-20.43 8.79-34.5 11.67-14.93 3.05-24.94 3.56-24.94 3.56-21.07-.82-26.36-4.95-26.46-10.26l-.22.16c-3.73 2.89-4.88 13.57 9.84 19.92 2.05.88 4.08 1.6 6.07 2.19 9.88 2.92 20.4 2.93 30.37.35 7.98-2.07 20.73-5.87 30.5-11.2 11.55-6.3 14.74-11.73 9.34-16.39" class="cls-3"/><path d="M31.9 67.76s3.47-3.75 6.93-10.97 18.56-11.55 26.46-6.06 13.39 10.19 15.98 13.03" class="cls-2"/><path d="M31.9 67.76s3.47-3.75 6.93-10.97 5.71.64 13.6 6.13c7.9 5.49 16.62-.45 19.63 4.24 0 0 .63 1.9-10.67 3.57s-24.71.99-29.5-2.96Z" style="fill:#eee"/><path d="M44.39 99.6c-5.53 0-10.99-.78-16.23-2.32a56 56 0 0 1-6.29-2.27C11.26 90.43 8.94 83.99 8.51 80.57c-.46-3.6.76-7.09 3.09-8.9 3.77-2.92 15.69-8.1 22.8-11.19l.86-.37c1.01-.44 2.19.02 2.63 1.04.44 1.01-.02 2.19-1.04 2.63l-.86.37c-6.49 2.82-18.57 8.07-21.95 10.68-.98.76-1.89 2.72-1.57 5.23.33 2.58 2.19 7.48 10.98 11.28 1.87.81 3.83 1.51 5.84 2.11 9.34 2.76 19.48 2.88 29.3.33 8.54-2.21 20.68-5.92 30.04-11.02 9.69-5.28 10.95-8.64 10.84-10.18-.16-2.27-3.49-4.73-9.38-6.94-8.04-3.02-10.96-3.72-11.97-3.88-.89.45-2 .17-2.56-.68-.51-.77-.47-1.77.1-2.5.93-1.18 1.61-2.03 15.84 3.31 7.77 2.91 11.68 6.32 11.97 10.41.32 4.55-3.79 8.99-12.92 13.97-9.72 5.3-22.2 9.12-30.96 11.38a61 61 0 0 1-15.21 1.95ZM78.9 58.85" class="cls-4"/><path d="M31.9 69.76a1.993 1.993 0 0 1-1.47-3.35c.07-.08 3.35-3.71 6.6-10.48 1.88-3.92 6.57-7.21 12.54-8.78 6.39-1.69 12.69-.96 16.87 1.94 7.11 4.94 13.21 9.92 16.32 13.33.74.82.69 2.08-.13 2.83-.81.74-2.08.69-2.83-.13-2.92-3.2-8.77-7.96-15.65-12.74-3.23-2.24-8.3-2.75-13.57-1.36-4.7 1.24-8.61 3.85-9.95 6.64-3.55 7.4-7.11 11.3-7.26 11.46-.39.43-.93.64-1.47.64" class="cls-4"/><path d="M0 0h112v112H0z" style="fill:none"/></g></svg>