<?xml version="1.0" encoding="UTF-8"?>
<svg id="flatten_icons" data-name="flatten icons" xmlns="http://www.w3.org/2000/svg" viewBox="0 0 112 112">
  <defs>
    <style>
      .cls-1 {
        fill: none;
      }

      .cls-1, .cls-2, .cls-3, .cls-4, .cls-5, .cls-6 {
        stroke-width: 0px;
      }

      .cls-2 {
        fill: #aad681;
      }

      .cls-3 {
        fill: #efda48;
      }

      .cls-4 {
        fill: #fff;
      }

      .cls-5 {
        fill: #ffeea4;
      }

      .cls-6 {
        fill: #004241;
      }
    </style>
  </defs>
  <rect class="cls-1" width="112" height="112"/>
  <g>
    <g>
      <path class="cls-3" d="m80.87,57.39c-.11-.19-.23-.38-.36-.55-.99-1.36-1.24-3.12-.41-4.59.06-.1.11-.21.17-.32.8-1.63.73-3.62-.19-5.18-.28-.47-.61-.88-.97-1.22-.88-.83-1-2.3-.42-3.36.29-.52.51-1.15.64-1.93.28-1.71-.09-3.53-1.28-4.78-.17-.18-.34-.34-.52-.48-1.1-.89-1.61-2.28-1.28-3.65.43-1.79-.06-3.75-1.45-5.15-.53-.53-1.14-.93-1.79-1.2-1.34-.55-2.14-1.84-2.11-3.29s-.51-2.9-1.61-4c-.92-.92-2.62-1.13-4.21-1.12-1.79.02-3.3-1.12-4.02-2.76-.38-.87-1.01-1.67-1.88-2.28-1.86-1.31-4.45-1.31-6.31,0-.7.49-1.24,1.11-1.62,1.78-1.04,1.83-2.81,3.17-4.91,3.26-1.3.06-2.58.33-3.34,1.08-1.1,1.1-1.64,2.55-1.62,3.99s-.78,2.73-2.12,3.28c-.65.27-1.26.66-1.79,1.19-1.51,1.5-1.96,3.66-1.36,5.56.35,1.1-.11,2.34-1.06,2.99-.31.21-.6.45-.86.73-1.19,1.25-1.57,3.07-1.29,4.78.12.76.34,1.38.62,1.9.65,1.2.27,2.64-.66,3.64-.26.29-.51.61-.72.97-.93,1.57-1,3.57-.19,5.21.05.09.09.18.14.27.78,1.41.68,3.13-.27,4.43h0c-1.4,1.89-1.59,4.49-.3,6.45.95,1.45,2.38,2.23,3.88,2.43.3,18.47,2.69,32.3,20.6,32.32,17.9.02,20.33-13.79,20.68-32.26,1.69-.19,3.31-1.11,4.27-2.9.87-1.63.85-3.65-.07-5.25Z"/>
      <path class="cls-6" d="m56.03,99.8h-.05c-19.74-.02-22.18-15.98-22.57-32.77-1.46-.55-2.7-1.54-3.58-2.88-1.72-2.61-1.57-6.12.36-8.74.48-.65.54-1.54.13-2.27-.06-.12-.12-.23-.18-.35-1.11-2.25-1.01-4.98.27-7.12.28-.47.61-.91.97-1.31.33-.35.59-.92.37-1.32-.4-.74-.68-1.6-.84-2.54-.4-2.48.26-4.84,1.82-6.48.36-.38.76-.72,1.18-1.01.24-.16.36-.49.28-.74-.85-2.69-.14-5.59,1.85-7.58.71-.7,1.53-1.25,2.44-1.63.56-.23.89-.75.88-1.4-.03-2.06.75-3.99,2.21-5.44,1.03-1.03,2.56-1.57,4.66-1.67,1.27-.06,2.49-.9,3.26-2.25.54-.96,1.29-1.77,2.2-2.42,2.53-1.8,6.08-1.8,8.62-.01,1.13.8,2.02,1.87,2.56,3.12.42.97,1.25,1.57,2.16,1.57.06,0,.11,0,.17,0,2.55,0,4.35.56,5.49,1.71,1.45,1.46,2.23,3.39,2.19,5.45-.01.65.31,1.17.87,1.4.92.38,1.74.93,2.44,1.63,1.85,1.85,2.59,4.48,1.98,7.03-.14.61.08,1.22.59,1.63.25.2.49.42.72.66,1.55,1.63,2.21,4,1.8,6.48-.16.96-.45,1.84-.87,2.59-.17.31-.12.77.05.93.51.48.95,1.04,1.32,1.66,1.26,2.12,1.36,4.84.27,7.07-.07.15-.15.29-.23.43-.47.84-.16,1.8.29,2.42.17.23.33.48.48.73,0,0,0,0,0,0,1.27,2.2,1.3,4.96.1,7.2-.91,1.68-2.34,2.92-4.07,3.54-.43,16.76-2.92,32.67-22.6,32.67Zm0-87.26c-.71,0-1.42.21-2,.63-.44.31-.79.69-1.04,1.14-1.45,2.56-3.91,4.15-6.56,4.27-1.5.07-1.94.43-2.01.5-.68.68-1.05,1.58-1.03,2.54.04,2.29-1.28,4.32-3.36,5.17-.42.17-.81.43-1.13.76-.93.93-1.26,2.28-.86,3.54.61,1.93-.15,4.09-1.84,5.25-.19.13-.38.29-.54.46-.67.71-.96,1.86-.76,3.08.08.5.21.92.4,1.26,1.03,1.89.66,4.23-.95,5.96-.17.19-.33.4-.47.63-.58.97-.62,2.27-.11,3.3l.09.18c1.16,2.09,1,4.68-.41,6.59-.94,1.28-1.04,2.95-.24,4.17.72,1.1,1.75,1.45,2.48,1.55.98.13,1.72.96,1.73,1.95.42,25.5,6.86,30.34,18.6,30.35h.04c15.18,0,18.26-10.65,18.64-30.3.02-1,.78-1.84,1.78-1.95.69-.08,1.96-.42,2.74-1.86.55-1.01.53-2.31-.04-3.31-.07-.13-.15-.25-.24-.37-1.51-2.07-1.72-4.65-.53-6.75.04-.08.08-.14.11-.22.51-1.04.46-2.3-.12-3.28-.18-.3-.39-.56-.63-.79-1.52-1.44-1.85-3.87-.78-5.78.19-.34.33-.77.41-1.28.2-1.22-.08-2.38-.76-3.09-.11-.11-.22-.21-.33-.31-1.71-1.39-2.47-3.56-1.97-5.67.28-1.19-.06-2.42-.92-3.28-.33-.33-.71-.58-1.13-.76-2.08-.86-3.39-2.89-3.35-5.17.02-.96-.35-1.87-1.03-2.55-.09-.09-.66-.55-2.78-.53-2.48,0-4.81-1.53-5.87-3.96-.26-.58-.66-1.07-1.2-1.45-.59-.42-1.29-.62-2-.62Z"/>
    </g>
    <g>
      <path class="cls-2" d="m97.14,65.36c-10.34-3.81-21.83-2.24-30.84,4.24h0c-2.56,1.84-4.69,4.23-6.25,7.01l-.33.59c-1.65,2.96-5.79,2.96-7.45,0l-.33-.59c-1.56-2.78-3.69-5.18-6.25-7.01h0c-9.01-6.47-20.5-8.05-30.84-4.24l-12.86,4.75,9.95,2.18c5.29,1.16,9.9,4.47,12.79,9.17l8.35,13.61c2,3.26,5.48,5.23,9.22,5.23h7.15c.24,0,.49-.01.73-.04,3.87-.42,7.73-.42,11.6,0,.24.03.48.04.73.04h7.15c3.74,0,7.22-1.97,9.22-5.23l8.35-13.61c2.89-4.71,7.5-8.02,12.79-9.17l9.95-2.18-12.86-4.75Z"/>
      <path class="cls-6" d="m69.68,102.3h-7.15c-.32,0-.63-.02-.94-.05-3.71-.4-7.47-.4-11.18,0-.31.03-.62.05-.94.05h-7.15c-4.46,0-8.55-2.31-10.93-6.19l-8.35-13.61c-2.59-4.22-6.79-7.23-11.52-8.27l-9.95-2.18c-.87-.19-1.51-.93-1.57-1.82-.06-.89.47-1.71,1.3-2.01l12.86-4.75c10.94-4.04,23.17-2.36,32.7,4.49,2.78,1.99,5.14,4.64,6.83,7.66l.33.58c.42.76,1.15,1.19,1.98,1.19h0c.83,0,1.55-.43,1.98-1.19l.33-.59c1.69-3.02,4.05-5.67,6.83-7.66,9.53-6.85,21.75-8.53,32.7-4.49h0l12.86,4.75c.83.31,1.36,1.13,1.3,2.01-.06.89-.7,1.63-1.57,1.82l-9.95,2.18c-4.73,1.04-8.93,4.05-11.52,8.27l-8.35,13.61c-2.38,3.87-6.46,6.19-10.93,6.19Zm-13.68-4.35c2.01,0,4.02.11,6.02.32.17.02.34.03.51.03h7.15c3.06,0,5.87-1.6,7.52-4.28l8.35-13.61c3.16-5.14,8.29-8.82,14.07-10.08l3.27-.71-6.44-2.38c-9.7-3.58-20.53-2.08-28.98,3.98-2.3,1.66-4.26,3.86-5.67,6.37l-.33.59c-1.14,2.03-3.18,3.24-5.47,3.24h0c-2.29,0-4.33-1.21-5.47-3.24l-.33-.58c-1.4-2.51-3.37-4.71-5.67-6.37-8.45-6.07-19.28-7.56-28.98-3.98l-6.44,2.38,3.27.71c5.79,1.27,10.92,4.94,14.07,10.08l8.35,13.61c1.65,2.68,4.46,4.28,7.52,4.28h7.15c.17,0,.35,0,.51-.03,1.99-.21,4-.32,6.01-.32Z"/>
    </g>
    <g>
      <path class="cls-2" d="m54.77,88.91s1.23-6.38,5.28-12.77"/>
      <path class="cls-6" d="m54.77,90.91c-.13,0-.25-.01-.38-.04-1.08-.21-1.79-1.26-1.58-2.34.05-.28,1.35-6.83,5.56-13.46.59-.93,1.83-1.21,2.76-.62.93.59,1.21,1.83.62,2.76-3.78,5.96-5,12.01-5.01,12.07-.19.95-1.02,1.62-1.96,1.62Z"/>
    </g>
    <circle class="cls-4" cx="55.86" cy="22.03" r="2.87"/>
    <circle class="cls-4" cx="47.91" cy="28.44" r="2.87"/>
    <circle class="cls-4" cx="44.79" cy="37.51" r="2.87"/>
    <circle class="cls-4" cx="43.4" cy="46.05" r="2.87"/>
    <circle class="cls-5" cx="64.28" cy="47.88" r="2.87"/>
    <circle class="cls-5" cx="65.36" cy="58.72" r="2.87"/>
    <circle class="cls-5" cx="66.7" cy="37.51" r="2.87"/>
    <circle class="cls-5" cx="43.4" cy="55.92" r="2.87"/>
    <circle class="cls-4" cx="58.87" cy="30.57" r="2.87"/>
    <circle class="cls-5" cx="54.77" cy="41.37" r="2.87"/>
    <circle class="cls-5" cx="53.13" cy="51.3" r="2.87"/>
    <circle class="cls-5" cx="53.13" cy="62.78" r="2.87"/>
  </g>
</svg>