<?xml version="1.0" encoding="UTF-8"?>
<svg id="flatten_icons" data-name="flatten icons" xmlns="http://www.w3.org/2000/svg" viewBox="0 0 112 112">
  <defs>
    <style>
      .cls-1 {
        fill: none;
      }

      .cls-1, .cls-2, .cls-3, .cls-4, .cls-5, .cls-6 {
        stroke-width: 0px;
      }

      .cls-2 {
        fill: #aad681;
      }

      .cls-3 {
        fill: #fff;
      }

      .cls-4 {
        fill: #f28522;
      }

      .cls-5 {
        fill: #f79a3e;
      }

      .cls-6 {
        fill: #004241;
      }
    </style>
  </defs>
  <rect class="cls-1" width="112" height="112"/>
  <g>
    <path class="cls-5" d="m89.6,70.76c0,18.56-15.05,31.8-33.6,31.8s-33.6-9.67-33.6-31.8c0-18.56,11.92-32.71,33.6-33.6,18.54-.76,33.6,10.25,33.6,33.6Z"/>
    <path class="cls-4" d="m83.75,49.51c-.17-.24-.36-.43-.56-.6.29,1.94.44,3.93.44,5.95,0,2.23-1.87,3.9-2.22,6.03s.83,4.71.16,6.71c-.63,1.9-4.38,3.07-5.28,4.83s.99,4.23-.19,5.88-4.93.94-6.32,2.38-.35,4.93-1.9,6.12c-1.64,1.26-4.18.44-6.01,1.44s-2.93,3.82-4.92,4.53-4.41-.85-6.48-.46c-2.46.47-4.53,2.81-7.12,2.81-2.38,0-4.81-1.83-7.07-2.23-2.45-.43-4.73.55-7.01-.3,6.19,7.83,15.99,9.11,27.01,9.04,18.76-.12,33.75-13.4,33.3-32.15-.2-8.26-2.32-14.91-5.84-19.99Z"/>
    <path class="cls-6" d="m54.22,103.36c-8.97,0-17.32-2.93-23.49-8.35-6.76-5.93-10.33-14.32-10.33-24.25,0-20.73,8.54-29.37,35.15-35.55,8.42-1.96,16.66-.17,23.21,5.03,8.16,6.48,12.85,17.61,12.85,30.53,0,6.3-.67,14.34-5.93,20.74-5.02,6.11-13.52,9.87-25.98,11.5-1.84.24-3.67.36-5.48.36Zm7.92-64.92c-1.87,0-3.77.22-5.69.67-27.26,6.34-32.06,15.26-32.06,31.66,0,8.75,3.1,16.1,8.97,21.25,6.55,5.75,15.96,8.32,25.81,7.03,23.59-3.08,28.43-13.53,28.43-28.27,0-11.69-4.13-21.67-11.33-27.39-4.09-3.25-8.97-4.93-14.13-4.93Z"/>
    <path class="cls-6" d="m45.45,49.53c-.89,0-1.7-.6-1.93-1.5-.04-.14-3.87-14.22-15.11-14.5-1.1-.03-1.98-.95-1.95-2.05.03-1.1.94-2.02,2.05-1.95,5.97.15,11.14,3.27,14.96,9.01,2.79,4.19,3.88,8.31,3.92,8.48.28,1.07-.36,2.16-1.43,2.44-.17.04-.34.06-.5.06Z"/>
    <g>
      <path class="cls-2" d="m39.05,34.96s.76-19.65,28.83-25.52c0,0,0,21.75-28.83,25.52Z"/>
      <path class="cls-6" d="m39.05,36.96c-.5,0-.98-.18-1.35-.52-.44-.4-.67-.97-.65-1.55,0-.21,1.16-21.29,30.41-27.4.59-.12,1.2.03,1.67.41.47.38.74.95.74,1.55,0,.24-.35,23.55-30.57,27.5-.09.01-.17.02-.26.02Zm26.53-24.93c-18.26,4.71-22.94,15.6-24.13,20.53,18.83-3.43,23.15-15.23,24.13-20.53Z"/>
    </g>
    <path class="cls-3" d="m34.32,81.34c-.73,0-1.43-.4-1.79-1.09-4.52-8.91-.25-19.64-.07-20.09.42-1.02,1.58-1.51,2.61-1.1,1.02.42,1.52,1.58,1.1,2.6h0c-.04.09-3.75,9.52-.07,16.78.5.99.11,2.19-.88,2.69-.29.15-.6.22-.9.22Z"/>
  </g>
</svg>