<?xml version="1.0" encoding="UTF-8"?>
<svg id="flatten_icons" data-name="flatten icons" xmlns="http://www.w3.org/2000/svg" viewBox="0 0 112 112">
  <defs>
    <style>
      .cls-1 {
        fill: none;
      }

      .cls-1, .cls-2, .cls-3, .cls-4, .cls-5, .cls-6, .cls-7, .cls-8 {
        stroke-width: 0px;
      }

      .cls-2 {
        fill: #6eb77b;
      }

      .cls-3 {
        fill: #aad681;
      }

      .cls-4 {
        fill: #ffc74a;
      }

      .cls-5 {
        fill: #f96;
      }

      .cls-6 {
        fill: #ffb164;
      }

      .cls-7 {
        fill: #ffd683;
      }

      .cls-8 {
        fill: #004241;
      }
    </style>
  </defs>
  <rect class="cls-1" width="112" height="112"/>
  <g>
    <path class="cls-4" d="m107.62,93.53c-7.93,22.58-49.02,17.98-73.19,9.49C10.27,94.53-2.9,69.35,5.03,46.77,12.96,24.19,38.98,12.76,63.15,21.25c30.86,10.84,52.4,49.7,44.47,72.28Z"/>
    <path class="cls-6" d="m71.71,33.92s.45-5.7-6.54-11.9c-.67-.27-1.34-.53-2.02-.77-13.92-4.89-31.21-1.41-42.55,5.24.75,3,5.73,7.5,11.47,8.85,7.62,1.79,19.91-6.6,25.33-5.65,5.42.94,14.31,4.24,14.31,4.24Z"/>
    <path class="cls-8" d="m73.56,111.99c-13.69,0-28.55-3.14-39.78-7.08C8.6,96.07-5.14,69.69,3.14,46.11,11.42,22.52,38.64,10.52,63.81,19.36c14.84,5.21,28.63,17.09,37.84,32.6,8.93,15.03,11.86,30.82,7.86,42.23-4.64,13.23-19.45,17.79-35.96,17.79ZM46.88,20.45c-17.8,0-34.11,10.3-39.96,26.98-7.55,21.5,5.09,45.6,28.18,53.7,25.04,8.79,63.51,12.04,70.64-8.26h0c3.62-10.31.81-24.84-7.52-38.86-8.74-14.72-21.76-25.97-35.73-30.87-5.18-1.82-10.46-2.68-15.61-2.68Z"/>
    <path class="cls-8" d="m20.4,39.91c-.54,0-1.07-.21-1.47-.64-.75-.81-.71-2.08.1-2.83.88-.82,8.81-7.98,14.75-7.71,1.1.05,1.96.99,1.91,2.09-.05,1.1-1,1.94-2.09,1.91-3.28-.19-8.99,4-11.84,6.65-.39.36-.87.54-1.36.54Z"/>
    <path class="cls-8" d="m26.41,35.35c-.46,0-.92-.16-1.29-.47-.51-.43-12.37-10.65-9.85-23.24.22-1.08,1.27-1.79,2.35-1.57,1.08.22,1.79,1.27,1.57,2.35-2.06,10.3,8.41,19.31,8.52,19.4.84.71.95,1.98.23,2.82-.4.47-.96.71-1.53.71Z"/>
    <g>
      <path class="cls-3" d="m17.59,11.69s12.91,16.69,29.43,13.45c16.53-3.24,24.69,8.78,24.69,8.78,0,0,.27-20.71-21.12-28.05s-29.16-3.61-33.01,5.81Z"/>
      <path class="cls-8" d="m71.71,35.92c-.65,0-1.28-.32-1.65-.88-.3-.44-7.69-10.88-22.65-7.94-7.31,1.43-15.07-.59-22.46-5.84-5.47-3.89-8.8-8.17-8.94-8.35-.44-.56-.54-1.32-.27-1.98C20.6-.99,30.89-3,51.24,3.98c22.5,7.72,22.47,29.74,22.47,29.97-.01.87-.59,1.64-1.42,1.89-.19.06-.38.08-.58.08Zm-19.08-13.35c7.49,0,12.92,2.95,16.34,5.68-1.48-6.24-5.89-15.99-19.02-20.49C28.12.28,22.67,5.35,19.91,11.34c2.88,3.27,13.75,14.38,26.72,11.83,2.13-.42,4.12-.6,5.99-.6ZM17.59,11.69h0,0Z"/>
    </g>
    <path class="cls-6" d="m100.77,89.64c-6.83,19.46-42.25,15.49-63.08,8.18S5.51,68.8,12.34,49.34c21.65,23.2,57.95,36.34,84.54,10.47,5.07,10.52,6.82,21.48,3.88,29.84Z"/>
    <ellipse class="cls-7" cx="75.58" cy="50.61" rx="7.79" ry="9.18" transform="translate(2.79 105.16) rotate(-70.65)"/>
    <path class="cls-2" d="m48.13,14.9c-.23,0-.47-.04-.7-.13-13.83-5.16-20.77-1.5-20.84-1.46-.96.53-2.18.19-2.71-.77-.54-.96-.21-2.16.74-2.71.34-.19,8.44-4.69,24.22,1.19,1.04.39,1.56,1.54,1.18,2.57-.3.8-1.06,1.3-1.87,1.3Z"/>
    <path class="cls-5" d="m34.92,88.31c-9.83-3.45-17.78-9.73-23.18-17.47,3.38,11.95,12.76,22.36,25.95,26.99,20.83,7.32,56.25,11.28,63.08-8.18.34-.98.62-2,.83-3.04-13.53,13.19-46.28,8.87-66.69,1.7Z"/>
  </g>
</svg>