<?xml version="1.0" encoding="UTF-8"?>
<svg id="flatten_icons" data-name="flatten icons" xmlns="http://www.w3.org/2000/svg" viewBox="0 0 112 112">
  <defs>
    <style>
      .cls-1 {
        fill: none;
      }

      .cls-1, .cls-2, .cls-3, .cls-4, .cls-5, .cls-6 {
        stroke-width: 0px;
      }

      .cls-2 {
        fill: #5e93c1;
      }

      .cls-3 {
        fill: #86c1e7;
      }

      .cls-4 {
        fill: #5680aa;
      }

      .cls-5 {
        fill: #b3e3f0;
      }

      .cls-6 {
        fill: #004241;
      }
    </style>
  </defs>
  <g id="manteau">
    <rect class="cls-1" y=".1" width="112" height="112"/>
    <g>
      <g>
        <path class="cls-2" d="m36.69,12.49l-5.86,2.35c-4.22,1.69-7.44,5.23-8.74,9.59L6.07,75.76c3.02,5.42,12.35,6.33,12.35,6.33l12.82-37.06-5.23,58.79c12.24,5.35,27.36,6.68,30,6.19,2.63.5,17.75-.84,30-6.19l-5.23-58.79,12.82,37.06s9.33-.9,12.35-6.33l-16.02-51.33c-1.29-4.36-4.51-7.9-8.74-9.59l-5.86-2.35"/>
        <path class="cls-6" d="m57.56,112.1c-.64,0-1.16-.02-1.56-.07-3.73.41-18.45-.98-30.8-6.37-.79-.34-1.27-1.15-1.19-2.01l3.79-42.55-7.49,21.65c-.3.87-1.17,1.43-2.08,1.34-.42-.04-10.42-1.08-13.91-7.35-.27-.48-.32-1.05-.16-1.57L20.18,23.84c1.47-4.95,5.08-8.92,9.9-10.85l5.86-2.35c1.03-.41,2.19.09,2.6,1.11.41,1.03-.09,2.19-1.11,2.6l-5.86,2.35c-3.68,1.48-6.44,4.5-7.56,8.3l-15.75,50.46c1.96,2.59,6.15,3.89,8.82,4.4l12.27-35.49c.33-.95,1.32-1.52,2.31-1.3.99.21,1.66,1.13,1.57,2.13l-5.1,57.33c11.96,4.87,25.58,5.86,27.5,5.5.25-.05.5-.05.74,0,1.92.37,15.54-.63,27.5-5.5l-5.1-57.33c-.09-1.01.59-1.92,1.57-2.13.99-.21,1.98.35,2.31,1.3l12.27,35.49c2.66-.51,6.86-1.82,8.82-4.4l-15.74-50.44c-1.13-3.83-3.89-6.85-7.57-8.33l-5.86-2.35c-1.03-.41-1.52-1.58-1.11-2.6.41-1.02,1.57-1.53,2.6-1.11l5.86,2.35c4.82,1.93,8.43,5.9,9.91,10.88l16.01,51.3c.16.52.1,1.09-.16,1.57-3.49,6.27-13.48,7.31-13.91,7.35-.93.09-1.78-.46-2.08-1.34l-7.49-21.65,3.79,42.55c.08.86-.4,1.67-1.19,2.01-11.02,4.81-23.94,6.44-29.24,6.44Z"/>
      </g>
      <g>
        <path class="cls-4" d="m47.39,3.28h0c5.65-1.52,11.59-1.57,17.25-.13l.5.13-9.14,43.79h0L47.39,3.28Z"/>
        <path class="cls-6" d="m56,49.06h-.01c-.95,0-1.77-.68-1.95-1.61L45.43,3.67c-.2-1.03.43-2.04,1.44-2.32,5.96-1.61,12.28-1.65,18.27-.13l.5.13c1.04.26,1.68,1.3,1.47,2.35l-9.14,43.79c-.19.93-1.01,1.59-1.96,1.59Zm-6.28-44.29l6.34,32.22,6.73-32.22c-4.3-.89-8.76-.89-13.06,0Z"/>
      </g>
      <g>
        <path class="cls-3" d="m47.39,3.28l8.61,43.79-16.11-16.35,3.54-6.17-6.73-6.97s-2.53-8.76,10.7-14.3Z"/>
        <path class="cls-6" d="m56,49.06c-.52,0-1.04-.21-1.43-.6l-16.11-16.35c-.63-.64-.76-1.62-.31-2.4l2.79-4.86-5.69-5.89c-.23-.23-.39-.52-.48-.83-.03-.1-2.86-10.54,11.85-16.7.56-.23,1.18-.2,1.71.08.53.28.91.79,1.02,1.38l8.61,43.79c.17.87-.25,1.74-1.03,2.15-.29.16-.62.23-.93.23Zm-13.62-18.67l10.38,10.53-6.83-34.75c-7.61,4-7.58,8.98-7.39,10.43l6.33,6.55c.62.64.74,1.61.3,2.38l-2.78,4.85Z"/>
      </g>
      <g>
        <path class="cls-3" d="m65.14,3.28l-8.61,43.79,16.11-16.35-3.54-6.17,6.73-6.97s2.53-8.76-10.7-14.3Z"/>
        <path class="cls-6" d="m56.53,49.06c-.32,0-.64-.08-.93-.23-.78-.41-1.2-1.29-1.03-2.15L63.18,2.89c.12-.59.49-1.1,1.02-1.38.53-.28,1.16-.31,1.71-.08,7.51,3.14,10.36,7.39,11.43,10.4,1.2,3.39.51,6.01.42,6.3-.09.31-.26.6-.48.83l-5.69,5.89,2.79,4.86c.45.78.32,1.76-.31,2.4l-16.11,16.35c-.39.39-.9.6-1.43.6Zm10.08-42.89l-6.83,34.75,10.38-10.53-2.78-4.85c-.44-.77-.32-1.74.3-2.38l6.32-6.55c.19-1.46.21-6.44-7.38-10.44Z"/>
      </g>
      <path class="cls-6" d="m48.14,111.77c-1.1,0-2-.9-2-2v-49.57c0-.38.11-.75.31-1.08l8.38-13.14c.59-.93,1.83-1.2,2.76-.61.93.59,1.2,1.83.61,2.76l-8.07,12.64v48.98c0,1.1-.9,2-2,2Z"/>
      <path class="cls-6" d="m59.01,66.49c-1.1,0-2-.9-2-2v-1.13c0-1.1.9-2,2-2s2,.9,2,2v1.13c0,1.1-.9,2-2,2Z"/>
      <path class="cls-6" d="m59.01,80.66c-1.1,0-2-.9-2-2v-1.13c0-1.1.9-2,2-2s2,.9,2,2v1.13c0,1.1-.9,2-2,2Z"/>
      <path class="cls-6" d="m59.01,94.97c-1.1,0-2-.9-2-2v-1.13c0-1.1.9-2,2-2s2,.9,2,2v1.13c0,1.1-.9,2-2,2Z"/>
      <g>
        <path class="cls-5" d="m8.07,69.03s4.84,5.13,7.25,5.77"/>
        <path class="cls-6" d="m15.32,76.8c-.17,0-.34-.02-.51-.07-2.75-.73-6.97-5.03-8.2-6.33-.76-.8-.72-2.07.08-2.83.8-.76,2.07-.72,2.83.08,2.15,2.28,5.2,4.91,6.31,5.21,1.07.28,1.7,1.38,1.42,2.45-.24.9-1.05,1.49-1.93,1.49Z"/>
      </g>
      <g>
        <path class="cls-5" d="m91.41,75.37s2.74-.57,7.81-2.85"/>
        <path class="cls-6" d="m91.41,77.37c-.93,0-1.76-.65-1.96-1.59-.23-1.08.47-2.14,1.54-2.37h0s2.65-.58,7.41-2.72c1.01-.45,2.19,0,2.64,1.01.45,1.01,0,2.19-1,2.64-5.21,2.34-8.1,2.96-8.22,2.98-.14.03-.28.04-.41.04Z"/>
      </g>
      <g>
        <line class="cls-5" x1="26" y1="28.3" x2="31.24" y2="45.04"/>
        <path class="cls-6" d="m31.24,47.04c-.85,0-1.64-.55-1.91-1.4l-5.23-16.74c-.33-1.05.26-2.18,1.31-2.51,1.05-.33,2.18.26,2.51,1.31l5.23,16.74c.33,1.05-.26,2.18-1.31,2.51-.2.06-.4.09-.6.09Z"/>
      </g>
      <g>
        <line class="cls-5" x1="80.76" y1="45.04" x2="81.67" y2="32.86"/>
        <path class="cls-6" d="m80.76,47.04s-.1,0-.15,0c-1.1-.08-1.93-1.04-1.85-2.14l.91-12.18c.08-1.1,1.03-1.93,2.14-1.85,1.1.08,1.93,1.04,1.85,2.14l-.91,12.18c-.08,1.05-.96,1.85-1.99,1.85Z"/>
      </g>
    </g>
  </g>
</svg>