<svg xmlns="http://www.w3.org/2000/svg" id="flatten_icons" viewBox="0 0 112 112"><defs><style>.cls-3{fill:#fff}.cls-6{fill:#004241}</style></defs><g id="marche-velo"><path d="M39.41 23.19s-15.57 9.02-22.36 21.59c0 0 2.87 4.83 11.96 3.04s21.62-6.12 21.62-6.12l-7.16-15.38-4.05-3.12Z" class="cls-3"/><path d="M56.85 19.59c-6.2 0-12.09 1.29-17.44 3.59.06.14.13.28.19.43.66 1.69.83 3.31.67 4.83-.12.84.69 1.36 1 1.41 3.84.51 6.71 4.08 6.09 8.17-.45 2.92-2.74 5.32-5.64 5.86-2.36.45-4.56-.28-6.13-1.69-.69-.62-1.63-.86-2.54-.67-.46.09-.93.14-1.42.14-.33 0-.66-.02-.98-.07-.89-.13-1.76.21-2.41.83-2.31 2.2-5.58 3.4-9.13 2.87-.71-.1-1.4-.29-2.06-.53a43.84 43.84 0 0 0-4.23 18.85v26.98c0 2.7 2.19 4.88 4.88 4.88h78.71c2.47 0 4.47-2 4.47-4.47V63.61c0-24.32-19.71-44.03-44.03-44.03Z" style="fill:#d3e7ee"/><path id="area" d="M0 0h112v112H0z" style="fill:none"/><g id="shoe"><path d="M15.3 71.95v21.58h83.11v-6.27c0-3.52-2.13-6.68-5.39-8L60.84 66.21a6.395 6.395 0 0 1-3.99-5.92v-.24a7.35 7.35 0 0 0-7.35-7.35h-.39a7.35 7.35 0 0 0-7.35 7.35v5.78l-5.73 3.64a10.94 10.94 0 0 1-11.12.37l-3.14-1.71c-2.91-1.59-6.47.52-6.47 3.84Z" class="cls-3"/><path d="M93.01 79.25 60.83 66.2a6.395 6.395 0 0 1-3.99-5.92v-.24a7.35 7.35 0 0 0-7.35-7.35h-.39a7.35 7.35 0 0 0-7.35 7.35v5.78l-5.73 3.64a10.94 10.94 0 0 1-11.12.37l-3.14-1.71c-2.91-1.59-6.47.52-6.47 3.84v2.88c8.5.61 12.33 6.72 14.01 12.73h69.09v-.3c0-3.52-2.13-6.68-5.39-8Z" style="fill:#ef706b"/><path d="M98.4 95.53H15.3c-1.1 0-2-.9-2-2V71.95c0-2.27 1.17-4.32 3.12-5.48a6.33 6.33 0 0 1 6.3-.12l3.14 1.71a8.97 8.97 0 0 0 9.09-.3l4.8-3.05v-4.68c0-5.16 4.2-9.35 9.35-9.35h.39c5.16 0 9.35 4.2 9.35 9.35v.24c0 1.8 1.08 3.39 2.74 4.07l32.18 13.05a10.6 10.6 0 0 1 6.64 9.86v6.27c0 1.1-.9 2-2 2Zm-81.1-4h79.11v-4.27c0-2.72-1.63-5.13-4.14-6.15L60.09 68.06a8.36 8.36 0 0 1-5.24-7.77v-.24c0-2.95-2.4-5.35-5.35-5.35h-.39c-2.95 0-5.35 2.4-5.35 5.35v5.78c0 .68-.35 1.32-.93 1.69l-5.73 3.64a12.99 12.99 0 0 1-13.15.44l-3.14-1.71c-1.07-.58-2-.16-2.35.04-.35.21-1.16.82-1.16 2.04v19.58Z" class="cls-6"/><path d="M98.4 87.98H15.3c-1.1 0-2-.9-2-2s.9-2 2-2h83.11c1.1 0 2 .9 2 2s-.9 2-2 2ZM54.71 74.33a2.004 2.004 0 0 1-1.41-3.42l6.13-6.13c.78-.78 2.05-.78 2.83 0s.78 2.05 0 2.83l-6.13 6.13c-.39.39-.9.59-1.41.59Zm7.44 3.64a2.004 2.004 0 0 1-1.41-3.42l6.13-6.13c.78-.78 2.05-.78 2.83 0s.78 2.05 0 2.83l-6.13 6.13c-.39.39-.9.59-1.41.59Z" class="cls-6"/><path d="M27.01 87c-1.1 0-2-.9-2-2 0-7.66-9.36-7.97-9.76-7.98a2 2 0 0 1-1.95-2.05c.03-1.1.97-1.97 2.05-1.95 4.73.12 13.66 2.77 13.66 11.98 0 1.1-.9 2-2 2" class="cls-6"/></g><path d="M72.93 47.81c-.53 0-1.04-.21-1.41-.59l-4.65-4.65c-.78-.78-.78-2.05 0-2.83s2.05-.78 2.83 0l3.24 3.24 4.8-4.8c.78-.78 2.05-.78 2.83 0s.78 2.05 0 2.83l-6.21 6.21c-.38.38-.88.59-1.41.59Z" style="fill:#b4cad3"/></g></svg>