<?xml version="1.0" encoding="UTF-8"?>
<svg id="flatten_icons" xmlns="http://www.w3.org/2000/svg" viewBox="0 0 112 112">
  <defs>
    <style>
      .cls-1 {
        fill: none;
      }

      .cls-2 {
        fill: #b4cad3;
      }

      .cls-3 {
        fill: #fff;
      }

      .cls-4 {
        fill: #ef706b;
      }

      .cls-5 {
        fill: #d3e7ee;
      }

      .cls-6 {
        fill: #004241;
      }
    </style>
  </defs>
  <g id="marche-velo">
    <path class="cls-3" d="M39.41,23.19s-15.57,9.02-22.36,21.59c0,0,2.87,4.83,11.96,3.04s21.62-6.12,21.62-6.12l-7.16-15.38-4.05-3.12Z"/>
    <path class="cls-5" d="M56.85,19.59h0c-6.2,0-12.09,1.29-17.44,3.59.06.14.13.28.19.43.66,1.69.83,3.31.67,4.83-.12.84.69,1.36,1,1.41,3.84.51,6.71,4.08,6.09,8.17-.45,2.92-2.74,5.32-5.64,5.86-2.36.45-4.56-.28-6.13-1.69-.69-.62-1.63-.86-2.54-.67-.46.09-.93.14-1.42.14-.33,0-.66-.02-.98-.07-.89-.13-1.76.21-2.41.83-2.31,2.2-5.58,3.4-9.13,2.87-.71-.1-1.4-.29-2.06-.53-2.71,5.71-4.23,12.1-4.23,18.85v26.98c0,2.7,2.19,4.88,4.88,4.88h78.71c2.47,0,4.47-2,4.47-4.47v-27.39c0-24.32-19.71-44.03-44.03-44.03Z"/>
    <g id="area">
      <rect class="cls-1" width="112" height="112"/>
    </g>
    <g id="shoe">
      <path class="cls-3" d="M15.3,71.95v21.58h83.11v-6.27c0-3.52-2.13-6.68-5.39-8l-32.18-13.05c-2.41-.98-3.99-3.32-3.99-5.92v-.24c0-4.06-3.29-7.35-7.35-7.35h-.39c-4.06,0-7.35,3.29-7.35,7.35v5.78l-5.73,3.64c-3.36,2.14-7.62,2.28-11.12.37l-3.14-1.71c-2.91-1.59-6.47.52-6.47,3.84Z"/>
      <path class="cls-4" d="M93.01,79.25l-32.18-13.05c-2.41-.98-3.99-3.32-3.99-5.92v-.24c0-4.06-3.29-7.35-7.35-7.35h-.39c-4.06,0-7.35,3.29-7.35,7.35v5.78l-5.73,3.64c-3.36,2.14-7.62,2.28-11.12.37l-3.14-1.71c-2.91-1.59-6.47.52-6.47,3.84v2.88c8.5.61,12.33,6.72,14.01,12.73h69.09v-.3c0-3.52-2.13-6.68-5.39-8Z"/>
      <path class="cls-6" d="M98.4,95.53H15.3c-1.1,0-2-.9-2-2v-21.58c0-2.27,1.17-4.32,3.12-5.48,1.95-1.16,4.31-1.2,6.3-.12l3.14,1.71c2.86,1.56,6.34,1.44,9.09-.3l4.8-3.05v-4.68c0-5.16,4.2-9.35,9.35-9.35h.39c5.16,0,9.35,4.2,9.35,9.35v.24c0,1.8,1.08,3.39,2.74,4.07l32.18,13.05c4.03,1.64,6.64,5.5,6.64,9.86v6.27c0,1.1-.9,2-2,2ZM17.3,91.53h79.11v-4.27c0-2.72-1.63-5.13-4.14-6.15l-32.18-13.05c-3.18-1.29-5.24-4.34-5.24-7.77v-.24c0-2.95-2.4-5.35-5.35-5.35h-.39c-2.95,0-5.35,2.4-5.35,5.35v5.78c0,.68-.35,1.32-.93,1.69l-5.73,3.64c-3.98,2.52-9.01,2.69-13.15.44l-3.14-1.71c-1.07-.58-2-.16-2.35.04-.35.21-1.16.82-1.16,2.04v19.58Z"/>
      <path class="cls-6" d="M98.4,87.98H15.3c-1.1,0-2-.9-2-2s.9-2,2-2h83.11c1.1,0,2,.9,2,2s-.9,2-2,2Z"/>
      <path class="cls-6" d="M54.71,74.33c-.51,0-1.02-.2-1.41-.59-.78-.78-.78-2.05,0-2.83l6.13-6.13c.78-.78,2.05-.78,2.83,0,.78.78.78,2.05,0,2.83l-6.13,6.13c-.39.39-.9.59-1.41.59Z"/>
      <path class="cls-6" d="M62.15,77.97c-.51,0-1.02-.2-1.41-.59-.78-.78-.78-2.05,0-2.83l6.13-6.13c.78-.78,2.05-.78,2.83,0,.78.78.78,2.05,0,2.83l-6.13,6.13c-.39.39-.9.59-1.41.59Z"/>
      <path class="cls-6" d="M27.01,87c-1.1,0-2-.9-2-2,0-7.66-9.36-7.97-9.76-7.98-1.1-.03-1.98-.94-1.95-2.05.03-1.1.97-1.97,2.05-1.95,4.73.12,13.66,2.77,13.66,11.98,0,1.1-.9,2-2,2Z"/>
    </g>
    <path class="cls-2" d="M72.93,47.81c-.53,0-1.04-.21-1.41-.59l-4.65-4.65c-.78-.78-.78-2.05,0-2.83.78-.78,2.05-.78,2.83,0l3.24,3.24,4.8-4.8c.78-.78,2.05-.78,2.83,0,.78.78.78,2.05,0,2.83l-6.21,6.21c-.38.38-.88.59-1.41.59Z"/>
  </g>
</svg>