<svg xmlns="http://www.w3.org/2000/svg" id="flatten_icons" viewBox="0 0 112 112"><defs><style>.cls-5{fill:#004241}</style></defs><g id="matieregrassevegetale"><path d="M0 0h112v112H0z" style="fill:none"/><path d="M38.58 79.6 7 60.57V29.43l31.58 19.02z" style="fill:#efe0a3"/><path d="M38.58 81.6c-.36 0-.71-.1-1.03-.29L5.97 62.28c-.6-.36-.97-1.01-.97-1.71V29.42c0-.72.39-1.39 1.02-1.74s1.4-.34 2.02.03l31.58 19.03c.6.36.97 1.01.97 1.71V79.6c0 .72-.39 1.39-1.02 1.74-.31.17-.65.26-.98.26ZM9 59.44l27.58 16.62V49.58L9 32.96z" class="cls-5"/><path d="M7 29.1 63.77 14l31.58 19.35-56.77 15.1L7 29.43" style="fill:#f9ecb9"/><path d="M38.58 50.45c-.36 0-.72-.1-1.03-.29L5.97 31.14a1.99 1.99 0 0 1-.96-1.87 1.99 1.99 0 0 1 1.48-2.09l56.77-15.1a2 2 0 0 1 1.56.23L96.4 31.66a1.995 1.995 0 0 1-.53 3.63L39.1 50.39c-.17.05-.34.07-.51.07ZM11.7 29.92 38.89 46.3l51.44-13.69-26.87-16.46z" class="cls-5"/><path d="M95.35 63.86V33.35l-56.77 15.1V79.6l19.25-5.12z" style="fill:#f9eaac"/><path d="M38.58 81.6c-.44 0-.87-.14-1.22-.41-.49-.38-.78-.96-.78-1.59V48.45c0-.91.61-1.7 1.49-1.93l56.77-15.1a2.004 2.004 0 0 1 2.51 1.94v30.51c0 .9-.59 1.68-1.46 1.92L58.37 76.41l-19.28 5.13c-.17.05-.34.07-.51.07Zm2-31.61V77l16.74-4.45 36.03-10.2v-26.4zm54.77 13.87" class="cls-5"/><path d="M91.06 94s21.27-5.83 16.15-37.77c0 0-18.16-3.15-28.59 13.64-6.99 11.26 2.28 15.08 2.28 15.08L91.07 94Z" style="fill:#86c487"/><path d="M91.06 96c-.48 0-.96-.18-1.33-.51l-9.95-8.86c-1.05-.52-4.11-2.32-5.3-6.02-1.11-3.44-.29-7.41 2.44-11.8 11.02-17.73 30.44-14.59 30.63-14.56.84.15 1.5.81 1.63 1.65 2.77 17.25-2.06 27.18-6.61 32.48-5.02 5.85-10.74 7.47-10.98 7.53-.17.05-.35.07-.53.07Zm12.47-38.02c-5.4 0-16.15 1.57-23.22 12.95-2.06 3.32-2.75 6.16-2.04 8.42.82 2.62 3.37 3.75 3.4 3.76.2.08.39.21.55.35l9.29 8.27c3.88-1.55 17.37-8.79 13.94-33.68-.52-.04-1.17-.07-1.92-.07" class="cls-5"/><path d="M90.23 93.99S57.79 95.45 56 57.22c0 0 40.43-4.38 34.23 36.77" style="fill:#aad681"/><path d="M89.94 96C86.18 96 55.75 94.82 54 57.32c-.05-1.06.73-1.97 1.78-2.08.76-.08 18.79-1.9 29.53 9.3 6.52 6.8 8.84 16.81 6.89 29.75-.14.94-.93 1.66-1.89 1.7h-.38ZM58.12 59.11c2.3 29.43 24.07 32.58 30.36 32.87 1.32-10.81-.72-19.1-6.05-24.67-7.5-7.82-19.64-8.32-24.31-8.2" class="cls-5"/></g></svg>