<?xml version="1.0" encoding="UTF-8"?>
<svg id="flatten_icons" xmlns="http://www.w3.org/2000/svg" viewBox="0 0 112 112">
  <defs>
    <style>
      .cls-1 {
        fill: none;
      }

      .cls-2 {
        fill: #f9ecb9;
      }

      .cls-3 {
        fill: #aad681;
      }

      .cls-4 {
        fill: #86c487;
      }

      .cls-5 {
        fill: #004241;
      }

      .cls-6 {
        fill: #efe0a3;
      }

      .cls-7 {
        fill: #f9eaac;
      }
    </style>
  </defs>
  <g id="matieregrassevegetale">
    <rect class="cls-1" width="112" height="112"/>
    <g>
      <g>
        <polygon class="cls-6" points="38.58 79.6 7 60.57 7 29.43 38.58 48.45 38.58 79.6"/>
        <path class="cls-5" d="M38.58,81.6c-.36,0-.71-.1-1.03-.29L5.97,62.28c-.6-.36-.97-1.01-.97-1.71v-31.15c0-.72.39-1.39,1.02-1.74.63-.35,1.4-.34,2.02.03l31.58,19.03c.6.36.97,1.01.97,1.71v31.15c0,.72-.39,1.39-1.02,1.74-.31.17-.65.26-.98.26ZM9,59.44l27.58,16.62v-26.48l-27.58-16.62v26.48Z"/>
      </g>
      <g>
        <polyline class="cls-2" points="7 29.1 63.77 14 95.35 33.35 38.58 48.45 7 29.43"/>
        <path class="cls-5" d="M38.58,50.45c-.36,0-.72-.1-1.03-.29L5.97,31.14c-.67-.4-1.02-1.14-.96-1.87-.08-.95.53-1.84,1.48-2.09l56.77-15.1c.53-.14,1.09-.06,1.56.23l31.58,19.35c.68.42,1.05,1.2.93,1.99-.12.79-.69,1.44-1.46,1.64l-56.77,15.1c-.17.05-.34.07-.51.07ZM11.7,29.92l27.19,16.38,51.44-13.69-26.87-16.46L11.7,29.92Z"/>
      </g>
      <g>
        <polygon class="cls-7" points="95.35 63.86 95.35 33.35 38.58 48.45 38.58 79.6 57.83 74.48 95.35 63.86"/>
        <path class="cls-5" d="M38.58,81.6c-.44,0-.87-.14-1.22-.41-.49-.38-.78-.96-.78-1.59v-31.15c0-.91.61-1.7,1.49-1.93l56.77-15.1c.6-.16,1.24-.03,1.73.35.49.38.78.96.78,1.59v30.51c0,.9-.59,1.68-1.46,1.92l-37.52,10.62-19.28,5.13c-.17.05-.34.07-.51.07ZM40.58,49.99v27.01l16.74-4.45,36.03-10.2v-26.4l-52.77,14.04ZM95.35,63.86h0,0Z"/>
      </g>
    </g>
    <g>
      <g>
        <path class="cls-4" d="M91.06,94s21.27-5.83,16.15-37.77c0,0-18.16-3.15-28.59,13.64-6.99,11.26,2.28,15.08,2.28,15.08l10.17,9.05Z"/>
        <path class="cls-5" d="M91.06,96c-.48,0-.96-.18-1.33-.51l-9.95-8.86c-1.05-.52-4.11-2.32-5.3-6.02-1.11-3.44-.29-7.41,2.44-11.8,11.02-17.73,30.44-14.59,30.63-14.56.84.15,1.5.81,1.63,1.65,2.77,17.25-2.06,27.18-6.61,32.48-5.02,5.85-10.74,7.47-10.98,7.53-.17.05-.35.07-.53.07ZM103.53,57.98c-5.4,0-16.15,1.57-23.22,12.95-2.06,3.32-2.75,6.16-2.04,8.42.82,2.62,3.37,3.75,3.4,3.76.2.08.39.21.55.35l9.29,8.27c3.88-1.55,17.37-8.79,13.94-33.68-.52-.04-1.17-.07-1.92-.07Z"/>
      </g>
      <g>
        <path class="cls-3" d="M90.23,93.99s-32.44,1.46-34.23-36.77c0,0,40.43-4.38,34.23,36.77Z"/>
        <path class="cls-5" d="M89.94,96c-3.76,0-34.19-1.18-35.94-38.68-.05-1.06.73-1.97,1.78-2.08.76-.08,18.79-1.9,29.53,9.3,6.52,6.8,8.84,16.81,6.89,29.75-.14.94-.93,1.66-1.89,1.7-.02,0-.15,0-.38,0ZM90.23,93.99h0,0ZM58.12,59.11c2.3,29.43,24.07,32.58,30.36,32.87,1.32-10.81-.72-19.1-6.05-24.67-7.5-7.82-19.64-8.32-24.31-8.2Z"/>
      </g>
    </g>
  </g>
</svg>