<?xml version="1.0" encoding="UTF-8"?>
<svg id="flatten_icons" data-name="flatten icons" xmlns="http://www.w3.org/2000/svg" viewBox="0 0 112 112">
  <defs>
    <style>
      .cls-1 {
        fill: none;
      }

      .cls-1, .cls-2, .cls-3, .cls-4, .cls-5, .cls-6, .cls-7 {
        stroke-width: 0px;
      }

      .cls-2 {
        fill: #f59455;
      }

      .cls-3 {
        fill: #579660;
      }

      .cls-4 {
        fill: #e38044;
      }

      .cls-5 {
        fill: #c9d478;
      }

      .cls-6 {
        fill: #adcf6c;
      }

      .cls-7 {
        fill: #004241;
      }
    </style>
  </defs>
  <rect class="cls-1" width="112" height="112"/>
  <g>
    <g>
      <path class="cls-5" d="m50.51,9.2c-1.71-.22-3.11-1.47-3.44-3.16-.57-2.88-.89-5.9-2.89-6.03-3.16-.2-3.36,2.77-3.36,2.77,1.38,5.14-4.35,6.9-4.35,6.9h0C16.42,13.71,1.4,29.46,2.02,50.85c.65,22.32,18.25,38.73,40.93,38.67,24.69-.06,45.02-15.53,45.02-39.95,0-21.87-16.33-37.66-37.46-40.38Z"/>
      <path class="cls-7" d="m42.84,91.52C19.09,91.52.69,74.08.02,50.91-.6,29.57,13.83,12.25,35.94,7.75c.76-.25,3.75-1.47,2.95-4.45-.06-.21-.08-.43-.06-.65.13-1.99,1.69-4.87,5.48-4.63,3.34.21,4.01,3.83,4.55,6.73l.17.91c.16.82.86,1.45,1.73,1.56h0c23.08,2.96,39.21,20.38,39.21,42.36,0,24.24-19.77,41.88-47.01,41.95h-.12Zm-5.64-79.97c-.1.04-.21.07-.33.09C16.66,15.7,3.46,31.43,4.02,50.79c.61,20.96,17.29,36.73,38.82,36.73h.11c24.93-.06,43.02-16.02,43.02-37.95,0-19.91-14.69-35.69-35.71-38.39-2.59-.33-4.66-2.24-5.15-4.76l-.18-.95c-.21-1.13-.56-3-.96-3.48-.64-.03-1,.21-1.11.67,1.14,5.18-3.08,8.03-5.65,8.88Z"/>
      <path class="cls-3" d="m58.4,80.88c-.47,0-.94-.16-1.32-.5-.83-.73-.91-1.99-.19-2.82,11.6-13.25,15.15-27.5,10.53-42.34-3.46-11.14-10.4-18.41-10.47-18.49-.77-.8-.74-2.06.05-2.83.79-.77,2.06-.74,2.83.05.3.32,30.09,31.96.06,66.24-.4.45-.95.68-1.51.68Z"/>
      <path class="cls-3" d="m32.86,80.88c-.6,0-1.18-.26-1.58-.77-26.67-34.2-.21-65.75.06-66.07.72-.84,1.98-.93,2.82-.21.84.72.93,1.98.22,2.82h0c-1.01,1.19-24.57,29.43.06,61,.68.87.52,2.13-.35,2.81-.37.28-.8.42-1.23.42Z"/>
      <path class="cls-3" d="m44.99,80.88c-.17,0-.34-.02-.51-.07-1.07-.28-1.7-1.38-1.42-2.45,8.56-32.34.1-62.17.01-62.46-.31-1.06.3-2.17,1.36-2.48,1.06-.31,2.17.3,2.48,1.36.37,1.26,8.87,31.15.01,64.61-.24.9-1.05,1.49-1.93,1.49Z"/>
    </g>
    <g>
      <g>
        <path class="cls-6" d="m10,57.95c0,27.61,22.39,50,50,50s50-22.39,50-50h-13.38c-7.31,14.95-20.97,25-36.62,25s-29.31-10.05-36.62-24.99h-13.38Z"/>
        <path class="cls-7" d="m60,109.95c-28.67,0-52-23.33-52-52,0-.53.21-1.04.59-1.41s.88-.59,1.41-.59h13.38c.76,0,1.46.44,1.8,1.13,7.21,14.73,20.55,23.87,34.82,23.87s27.62-9.15,34.82-23.87c.34-.69,1.03-1.12,1.8-1.12h13.38s0,0,0,0c.53,0,1.04.21,1.41.59s.59.88.59,1.41c0,28.67-23.33,52-52,52ZM12.04,59.96c1.05,25.54,22.16,46,47.96,46s46.91-20.46,47.96-46h-10.11c-8.01,15.46-22.41,25-37.85,25s-29.85-9.54-37.85-24.99h-10.11Z"/>
      </g>
      <path class="cls-4" d="m29.35,57.96s11.16,12.15,30.65,10.19c19.49-1.96,30.65-10.19,30.65-10.19,0,0-3.1,25.52-27.68,25.52s-33.63-25.52-33.63-25.52Z"/>
      <path class="cls-2" d="m18.15,57.95c0,23.11,18.74,41.85,41.85,41.85s41.85-18.74,41.85-41.85h-10.23c-6.12,12.51-18.53,20.93-31.62,20.93s-25.5-8.41-31.62-20.92h-10.23Z"/>
      <path class="cls-7" d="m60,101.8c-24.18,0-43.85-19.67-43.85-43.85,0-.53.21-1.04.59-1.41s.88-.59,1.41-.59h11.2c.56,0,1.09.24,1.47.65.1.11,10.78,11.38,28.98,9.55,18.73-1.88,29.56-9.73,29.67-9.81.34-.25.76-.39,1.19-.39h11.2s0,0,0,0c.53,0,1.04.21,1.41.59s.59.88.59,1.41c0,24.18-19.67,43.85-43.85,43.85ZM20.2,59.96c1.05,21.05,18.5,37.85,39.8,37.85s38.76-16.8,39.8-37.85h-8.52c-2.55,1.72-13.48,8.42-31.08,10.18-17.83,1.79-28.96-7.57-31.68-10.18h-8.32Z"/>
    </g>
  </g>
</svg>