<svg xmlns="http://www.w3.org/2000/svg" id="flatten_icons" data-name="flatten icons" viewBox="0 0 112 112"><defs><style>.cls-6,.cls-7{stroke-width:0}.cls-6{fill:#ffdc49}.cls-7{fill:#004241}</style></defs><g id="metro"><path id="area" d="M0 0h112v112H0z" style="fill:none;stroke-width:0"/><g id="tunnel"><path d="M106 52c0-27.9-22.85-50.46-50.85-49.99C27.73 2.46 6 25.4 6 52.82v50.11c0 4.08 3.31 7.39 7.39 7.39h85.23c4.08 0 7.39-3.31 7.39-7.39V51.99Z" style="stroke-width:0;fill:#77a095"/><path d="m17.26 110.32 11.31-9.78c2.5-2.17 5.51-3.33 8.6-3.33h37.91c2.71 0 5.37.9 7.68 2.59l14.33 10.52" class="cls-6"/><path d="M98.61 112H13.39C8.21 112 4 107.8 4 102.64V52.68C4 24.1 26.93.48 55.11 0c14.09-.27 27.38 5.07 37.4 14.93C102.5 24.75 108 37.86 108 51.85v50.78c0 5.16-4.21 9.36-9.39 9.36ZM56.01 4h-.83C29.17 4.43 8 26.26 8 52.67v49.96c0 2.96 2.42 5.36 5.39 5.36h85.23c2.97 0 5.39-2.41 5.39-5.36V51.85c0-12.9-5.08-25-14.29-34.07-9.06-8.91-21-13.79-33.7-13.79Z" class="cls-7"/><path d="M99.32 52.34c0-23.63-18.92-42.84-42.44-43.31-24.31-.49-44.2 19.8-44.2 44.11v7.54c0 1.35.86 16.87.86 16.87 0 1.81 1.47 3.29 3.29 3.29l40.29 9.11 38.33-9.11c1.81 0 3.29-1.47 3.29-3.29 0 0 .59-16.08.59-18.14v-7.06Z" style="stroke-width:0;fill:#467f7c"/><path d="M34.88 111.29c-.27 0-.55-.06-.82-.18a1.995 1.995 0 0 1-1-2.65l7.55-16.75a1.995 1.995 0 0 1 2.65-1c1.01.45 1.46 1.64 1 2.65l-7.55 16.75c-.33.74-1.06 1.18-1.82 1.18Zm42.24 0c-.76 0-1.49-.44-1.82-1.18l-7.55-16.75c-.45-1.01 0-2.19 1-2.65 1.01-.45 2.19 0 2.65 1l7.55 16.75c.45 1.01 0 2.19-1 2.65-.27.12-.55.18-.82.18Z" class="cls-7"/><path d="M73.34 102.91H38.66c-1.1 0-2-.9-2-2s.9-2 2-2h34.68c1.1 0 2 .9 2 2s-.9 2-2 2" class="cls-7"/></g><g id="car"><rect width="22.53" height="16.41" x="44.74" y="18.93" class="cls-6" rx="4.78" ry="4.78"/><path d="M62.48 37.34H49.51c-3.74 0-6.78-3.04-6.78-6.78v-6.85c0-3.74 3.04-6.78 6.78-6.78h12.97c3.74 0 6.78 3.04 6.78 6.78v6.85c0 3.74-3.04 6.78-6.78 6.78M49.51 20.93c-1.53 0-2.78 1.25-2.78 2.78v6.85c0 1.53 1.25 2.78 2.78 2.78h12.97c1.53 0 2.78-1.25 2.78-2.78v-6.85c0-1.53-1.25-2.78-2.78-2.78z" class="cls-7"/><rect width="52.97" height="65.8" x="29.52" y="26.73" rx="10.89" ry="10.89" style="stroke-width:0;fill:#c4d1d5"/><path d="M71.59 94.53H40.41c-7.11 0-12.89-5.78-12.89-12.89V37.62c0-7.11 5.78-12.89 12.89-12.89h31.18c7.11 0 12.89 5.78 12.89 12.89v44.02c0 7.11-5.78 12.89-12.89 12.89m-31.18-65.8c-4.9 0-8.89 3.99-8.89 8.89v44.02c0 4.9 3.99 8.89 8.89 8.89h31.18c4.9 0 8.89-3.99 8.89-8.89V37.62c0-4.9-3.99-8.89-8.89-8.89z" class="cls-7"/><circle cx="42.9" cy="77.54" r="4.7" class="cls-6"/><path d="M42.9 84.24c-3.69 0-6.7-3-6.7-6.7a6.7 6.7 0 1 1 6.7 6.7m0-9.39c-1.49 0-2.7 1.21-2.7 2.7s1.21 2.7 2.7 2.7 2.7-1.21 2.7-2.7-1.21-2.7-2.7-2.7" class="cls-7"/><circle cx="69.1" cy="77.54" r="4.7" class="cls-6"/><path d="M69.1 84.24c-3.69 0-6.7-3-6.7-6.7a6.7 6.7 0 1 1 6.7 6.7m0-9.39c-1.49 0-2.7 1.21-2.7 2.7s1.21 2.7 2.7 2.7 2.7-1.21 2.7-2.7-1.21-2.7-2.7-2.7" class="cls-7"/><rect width="38.46" height="27.79" x="36.77" y="35.34" rx="4.67" ry="4.67" style="stroke-width:0;fill:#fff"/><path d="M70.56 65.13H41.43c-3.68 0-6.67-2.99-6.67-6.67V40c0-3.68 2.99-6.67 6.67-6.67h29.13c3.68 0 6.67 2.99 6.67 6.67v18.46c0 3.68-2.99 6.67-6.67 6.67M41.43 37.34c-1.47 0-2.67 1.2-2.67 2.67v18.46c0 1.47 1.2 2.67 2.67 2.67h29.13c1.47 0 2.67-1.2 2.67-2.67V40.01c0-1.47-1.2-2.67-2.67-2.67z" class="cls-7"/><path d="M56 65.13c-1.1 0-2-.9-2-2V35.34c0-1.1.9-2 2-2s2 .9 2 2v27.79c0 1.1-.9 2-2 2" class="cls-7"/></g></g></svg>