<?xml version="1.0" encoding="UTF-8"?>
<svg id="flatten_icons" data-name="flatten icons" xmlns="http://www.w3.org/2000/svg" viewBox="0 0 112 112">
  <defs>
    <style>
      .cls-1 {
        fill: none;
      }

      .cls-1, .cls-2, .cls-3, .cls-4, .cls-5, .cls-6, .cls-7 {
        stroke-width: 0px;
      }

      .cls-2 {
        fill: #467f7c;
      }

      .cls-3 {
        fill: #77a095;
      }

      .cls-4 {
        fill: #c4d1d5;
      }

      .cls-5 {
        fill: #fff;
      }

      .cls-6 {
        fill: #ffdc49;
      }

      .cls-7 {
        fill: #004241;
      }
    </style>
  </defs>
  <g id="metro">
    <g id="area">
      <rect class="cls-1" width="112" height="112"/>
    </g>
    <g id="tunnel">
      <path class="cls-3" d="m106,52c0-27.9-22.85-50.46-50.85-49.99C27.73,2.46,6,25.4,6,52.82v50.11c0,4.08,3.31,7.39,7.39,7.39h85.23c4.08,0,7.39-3.31,7.39-7.39v-50.94Z"/>
      <path class="cls-6" d="m17.26,110.32l11.31-9.78c2.5-2.17,5.51-3.33,8.6-3.33h37.91c2.71,0,5.37.9,7.68,2.59l14.33,10.52"/>
      <path class="cls-7" d="m98.61,112H13.39c-5.18,0-9.39-4.2-9.39-9.36v-49.96C4,24.1,26.93.48,55.11,0c14.09-.27,27.38,5.07,37.4,14.93,9.99,9.82,15.49,22.93,15.49,36.92v50.78c0,5.16-4.21,9.36-9.39,9.36ZM56.01,4c-.28,0-.55,0-.83,0-26.01.43-47.18,22.26-47.18,48.67v49.96c0,2.96,2.42,5.36,5.39,5.36h85.23c2.97,0,5.39-2.41,5.39-5.36v-50.78c0-12.9-5.08-25-14.29-34.07-9.06-8.91-21-13.79-33.7-13.79Z"/>
      <path class="cls-2" d="m99.32,52.34c0-23.63-18.92-42.84-42.44-43.31-24.31-.49-44.2,19.8-44.2,44.11v7.54c0,1.35.86,16.87.86,16.87,0,1.81,1.47,3.29,3.29,3.29l40.29,9.11,38.33-9.11c1.81,0,3.29-1.47,3.29-3.29,0,0,.59-16.08.59-18.14v-7.06Z"/>
      <g>
        <path class="cls-7" d="m34.88,111.29c-.27,0-.55-.06-.82-.18-1.01-.45-1.46-1.64-1-2.65l7.55-16.75c.45-1.01,1.64-1.46,2.65-1,1.01.45,1.46,1.64,1,2.65l-7.55,16.75c-.33.74-1.06,1.18-1.82,1.18Z"/>
        <path class="cls-7" d="m77.12,111.29c-.76,0-1.49-.44-1.82-1.18l-7.55-16.75c-.45-1.01,0-2.19,1-2.65,1.01-.45,2.19,0,2.65,1l7.55,16.75c.45,1.01,0,2.19-1,2.65-.27.12-.55.18-.82.18Z"/>
        <path class="cls-7" d="m73.34,102.91h-34.68c-1.1,0-2-.9-2-2s.9-2,2-2h34.68c1.1,0,2,.9,2,2s-.9,2-2,2Z"/>
      </g>
    </g>
    <g id="car">
      <g>
        <rect class="cls-6" x="44.74" y="18.93" width="22.53" height="16.41" rx="4.78" ry="4.78"/>
        <path class="cls-7" d="m62.48,37.34h-12.97c-3.74,0-6.78-3.04-6.78-6.78v-6.85c0-3.74,3.04-6.78,6.78-6.78h12.97c3.74,0,6.78,3.04,6.78,6.78v6.85c0,3.74-3.04,6.78-6.78,6.78Zm-12.97-16.41c-1.53,0-2.78,1.25-2.78,2.78v6.85c0,1.53,1.25,2.78,2.78,2.78h12.97c1.53,0,2.78-1.25,2.78-2.78v-6.85c0-1.53-1.25-2.78-2.78-2.78h-12.97Z"/>
      </g>
      <g>
        <rect class="cls-4" x="29.52" y="26.73" width="52.97" height="65.8" rx="10.89" ry="10.89"/>
        <path class="cls-7" d="m71.59,94.53h-31.18c-7.11,0-12.89-5.78-12.89-12.89v-44.02c0-7.11,5.78-12.89,12.89-12.89h31.18c7.11,0,12.89,5.78,12.89,12.89v44.02c0,7.11-5.78,12.89-12.89,12.89ZM40.41,28.73c-4.9,0-8.89,3.99-8.89,8.89v44.02c0,4.9,3.99,8.89,8.89,8.89h31.18c4.9,0,8.89-3.99,8.89-8.89v-44.02c0-4.9-3.99-8.89-8.89-8.89h-31.18Z"/>
      </g>
      <g>
        <g>
          <circle class="cls-6" cx="42.9" cy="77.54" r="4.7"/>
          <path class="cls-7" d="m42.9,84.24c-3.69,0-6.7-3-6.7-6.7s3-6.7,6.7-6.7,6.7,3,6.7,6.7-3,6.7-6.7,6.7Zm0-9.39c-1.49,0-2.7,1.21-2.7,2.7s1.21,2.7,2.7,2.7,2.7-1.21,2.7-2.7-1.21-2.7-2.7-2.7Z"/>
        </g>
        <g>
          <circle class="cls-6" cx="69.1" cy="77.54" r="4.7"/>
          <path class="cls-7" d="m69.1,84.24c-3.69,0-6.7-3-6.7-6.7s3-6.7,6.7-6.7,6.7,3,6.7,6.7-3,6.7-6.7,6.7Zm0-9.39c-1.49,0-2.7,1.21-2.7,2.7s1.21,2.7,2.7,2.7,2.7-1.21,2.7-2.7-1.21-2.7-2.7-2.7Z"/>
        </g>
      </g>
      <g>
        <rect class="cls-5" x="36.77" y="35.34" width="38.46" height="27.79" rx="4.67" ry="4.67"/>
        <path class="cls-7" d="m70.56,65.13h-29.13c-3.68,0-6.67-2.99-6.67-6.67v-18.46c0-3.68,2.99-6.67,6.67-6.67h29.13c3.68,0,6.67,2.99,6.67,6.67v18.46c0,3.68-2.99,6.67-6.67,6.67Zm-29.13-27.79c-1.47,0-2.67,1.2-2.67,2.67v18.46c0,1.47,1.2,2.67,2.67,2.67h29.13c1.47,0,2.67-1.2,2.67-2.67v-18.46c0-1.47-1.2-2.67-2.67-2.67h-29.13Z"/>
      </g>
      <path class="cls-7" d="m56,65.13c-1.1,0-2-.9-2-2v-27.79c0-1.1.9-2,2-2s2,.9,2,2v27.79c0,1.1-.9,2-2,2Z"/>
    </g>
  </g>
</svg>