<svg xmlns="http://www.w3.org/2000/svg" id="flatten_icons" data-name="flatten icons" viewBox="0 0 112 112"><defs><style>.cls-2,.cls-3,.cls-5,.cls-7{stroke-width:0}.cls-2{fill:#70b16d}.cls-3{fill:#c59878}.cls-5{fill:#e4c8a7}.cls-7{fill:#004241}</style></defs><g id="table"><path id="area" d="M0 0h112v112H0z" style="fill:none;stroke-width:0"/><g id="table-2" data-name="table"><path d="m24.86 65.56-1.5 33.7h8.24l2.49-33.7z" class="cls-3"/><path d="M31.6 101.26h-8.24c-.55 0-1.07-.22-1.45-.62-.38-.39-.58-.93-.55-1.47l1.5-33.7c.05-1.07.93-1.91 2-1.91h9.23c.56 0 1.09.23 1.47.64s.57.95.53 1.51l-2.49 33.7a2.004 2.004 0 0 1-1.99 1.85Zm-6.15-4h4.29l2.2-29.7h-5.17z" class="cls-7"/><path d="m77.91 65.56 2.49 33.7h8.24l-1.5-33.7z" class="cls-3"/><path d="M88.64 101.26H80.4a1.99 1.99 0 0 1-1.99-1.85l-2.49-33.7c-.04-.55.15-1.1.53-1.51s.91-.64 1.47-.64h9.23c1.07 0 1.95.84 2 1.91l1.5 33.7c.02.55-.18 1.08-.55 1.47-.38.39-.9.62-1.45.62Zm-6.38-4h4.29l-1.32-29.7h-5.17z" class="cls-7"/><path d="M7.5 45.62h97v8.9h-97z" class="cls-5"/><path d="M104.5 56.52h-97c-1.1 0-2-.9-2-2v-8.9c0-1.1.9-2 2-2h97c1.1 0 2 .9 2 2v8.9c0 1.1-.9 2-2 2m-95-4h93v-4.9h-93z" class="cls-7"/><path d="M20 54.69h72v10.87H20z" class="cls-3"/><path d="M92 67.56H20c-1.1 0-2-.9-2-2V54.69c0-1.1.9-2 2-2h72c1.1 0 2 .9 2 2v10.87c0 1.1-.9 2-2 2m-70-4h68v-6.87H22z" class="cls-7"/><path d="M24.64 110H16.4l2.46-55.48h9.88z" class="cls-5"/><path d="M24.64 112H16.4c-.55 0-1.07-.22-1.45-.62-.38-.39-.58-.93-.55-1.47l2.46-55.48c.05-1.07.93-1.91 2-1.91h9.88c.56 0 1.09.23 1.47.64s.57.95.53 1.51l-4.11 55.48a2.004 2.004 0 0 1-1.99 1.85m-6.15-4h4.29l3.81-51.48h-5.81z" class="cls-7"/><path d="M87.36 110h8.24l-2.46-55.48h-9.88z" class="cls-5"/><path d="M95.6 112h-8.24a1.99 1.99 0 0 1-1.99-1.85l-4.11-55.48c-.04-.55.15-1.1.53-1.51s.91-.64 1.47-.64h9.88c1.07 0 1.95.84 2 1.91l2.46 55.48c.02.55-.18 1.08-.55 1.47-.38.39-.9.62-1.45.62m-6.38-4h4.29l-2.29-51.48h-5.81z" class="cls-7"/><path d="M76.37 31.44s-9.24-.99-7.11-10.01c0 0 10.66-2.63 12.79 9.45" class="cls-2"/><path d="M76.38 33.44c-.07 0-.14 0-.21-.01-.2-.02-5.04-.58-7.64-4.24-1.57-2.21-1.97-4.98-1.21-8.22.17-.73.74-1.3 1.47-1.48.21-.05 5.28-1.26 9.67 1.6 2.93 1.91 4.8 5.09 5.57 9.45a2 2 0 0 1-1.62 2.32 2 2 0 0 1-2.32-1.62c-.57-3.21-1.84-5.49-3.79-6.77-1.85-1.22-4-1.33-5.31-1.24-.15 1.47.12 2.69.79 3.65 1.54 2.19 4.78 2.59 4.82 2.6 1.09.13 1.88 1.11 1.76 2.21a2 2 0 0 1-1.98 1.78Z" class="cls-7"/><path d="M79.1 31.7s-3.55-10.42 2.37-15.52c5.92-5.09 12.44-7.23 12.44-7.23s3.84 18.77-6.84 22.47" class="cls-2"/><path d="M79.1 33.7c-.83 0-1.61-.52-1.89-1.35-.16-.48-3.91-11.77 2.96-17.68 6.15-5.29 12.84-7.52 13.12-7.61.54-.18 1.13-.12 1.63.17.49.29.84.77.96 1.33.17.84 4.05 20.54-8.15 24.77-1.04.36-2.18-.19-2.54-1.23s.19-2.18 1.23-2.54c6.86-2.38 6.46-12.98 5.9-17.79-2.3 1.02-6.04 2.95-9.53 5.95-4.81 4.14-1.81 13.27-1.78 13.36.35 1.05-.21 2.18-1.25 2.53-.21.07-.43.11-.64.11Z" class="cls-7"/><path d="M78.33 21.88s1.84-14.23-2.07-18.25c0 0-6.51-3.67-8.05 0s2.37 7.82 8.29 4.03" style="stroke-width:0;fill:#ffdb49"/><path d="M78.33 23.88c-.08 0-.17 0-.26-.02a1.997 1.997 0 0 1-1.73-2.24c.44-3.4.6-8.05.14-11.66-3.22 1.68-6.36 1.6-8.56-.25-1.97-1.65-2.6-4.41-1.57-6.86.52-1.25 1.46-2.13 2.72-2.56 3.16-1.08 7.35 1.14 8.16 1.59.17.09.32.21.45.35.77.79 4.49 5.45 2.62 19.9a1.995 1.995 0 0 1-1.98 1.74ZM70.99 3.99c-.23 0-.44.03-.61.09-.15.05-.24.11-.33.33-.35.84-.17 1.73.45 2.25.8.68 2.52.85 4.91-.69.01 0 .02-.02.04-.02-.14-.28-.29-.52-.45-.73-1.14-.59-2.87-1.23-4.01-1.23" class="cls-7"/><path d="M87.96 31.44H72.67l.9 13.49h13.49z" style="stroke-width:0;fill:#ee706b"/><path d="M87.06 46.93H73.57a2.01 2.01 0 0 1-2-1.87l-.9-13.49c-.04-.55.16-1.1.54-1.5s.91-.63 1.46-.63h15.29c.55 0 1.08.23 1.46.63s.57.95.54 1.5l-.9 13.49a2 2 0 0 1-2 1.87m-11.62-4h9.75l.63-9.49H74.81z" class="cls-7"/></g></g></svg>