<?xml version="1.0" encoding="UTF-8"?>
<svg id="flatten_icons" data-name="flatten icons" xmlns="http://www.w3.org/2000/svg" viewBox="0 0 112 112">
  <defs>
    <style>
      .cls-1 {
        fill: none;
      }

      .cls-1, .cls-2, .cls-3, .cls-4, .cls-5, .cls-6, .cls-7 {
        stroke-width: 0px;
      }

      .cls-2 {
        fill: #d05954;
      }

      .cls-3 {
        fill: #8e88a6;
      }

      .cls-4 {
        fill: #9fdecf;
      }

      .cls-5 {
        fill: #fdda49;
      }

      .cls-6 {
        fill: #ed706b;
      }

      .cls-7 {
        fill: #004241;
      }
    </style>
  </defs>
  <g id="moto">
    <g id="area">
      <rect class="cls-1" width="112" height="112"/>
    </g>
    <g>
      <g>
        <path class="cls-3" d="m21.64,58.38c-11.38,1.27-19.57,11.52-18.3,22.9,1.27,11.38,11.52,19.57,22.9,18.3,11.38-1.27,19.57-11.52,18.3-22.9-1.27-11.38-11.52-19.57-22.9-18.3Zm-3.6,13.81c1.33-1.16,3.02-1.94,4.9-2.15,4.94-.55,9.39,3.01,9.94,7.94s-3.01,9.39-7.94,9.94c-4.94.55-9.39-3.01-9.94-7.94"/>
        <path class="cls-7" d="m23.92,101.71c-11.41,0-21.28-8.61-22.57-20.21-1.39-12.46,7.61-23.72,20.07-25.11,6.03-.67,11.97,1.04,16.71,4.83,4.74,3.79,7.73,9.2,8.4,15.23,1.39,12.46-7.61,23.72-20.07,25.11-.85.1-1.7.14-2.54.14Zm.05-41.46c-.7,0-1.41.04-2.11.12-10.26,1.15-17.68,10.43-16.54,20.69,1.15,10.26,10.43,17.69,20.69,16.54,10.26-1.15,17.68-10.43,16.54-20.69-.55-4.97-3.01-9.43-6.92-12.55-3.35-2.68-7.43-4.1-11.66-4.1Zm-.04,29.73c-5.52,0-10.29-4.16-10.92-9.78-.12-1.1.67-2.09,1.77-2.21,1.09-.12,2.09.67,2.21,1.77.43,3.83,3.89,6.6,7.73,6.18,1.86-.21,3.52-1.13,4.69-2.59s1.7-3.29,1.49-5.15c-.21-1.86-1.13-3.52-2.59-4.69s-3.29-1.69-5.15-1.49c-1.42.16-2.74.74-3.81,1.67-.83.72-2.1.64-2.82-.2-.72-.83-.64-2.1.2-2.82,1.69-1.47,3.76-2.38,5.99-2.63,2.91-.33,5.79.5,8.09,2.34,2.29,1.83,3.74,4.45,4.06,7.37.33,2.92-.5,5.79-2.34,8.09s-4.45,3.74-7.37,4.06c-.41.05-.82.07-1.23.07Z"/>
      </g>
      <g>
        <path class="cls-3" d="m86.97,51.09c-11.38,1.27-19.57,11.52-18.3,22.9,1.27,11.38,11.52,19.57,22.9,18.3s19.57-11.52,18.3-22.9-11.52-19.57-22.9-18.3Zm3.3,29.55c-4.94.55-9.39-3.01-9.94-7.94-.55-4.94,3.01-9.39,7.94-9.94s9.39,3.01,9.94,7.94-3.01,9.39-7.94,9.94Z"/>
        <path class="cls-7" d="m89.25,94.42c-11.41,0-21.28-8.61-22.57-20.21-.67-6.03,1.04-11.97,4.83-16.71,3.79-4.74,9.2-7.73,15.24-8.4h0c12.45-1.39,23.72,7.61,25.11,20.07.67,6.03-1.04,11.97-4.83,16.71-3.79,4.74-9.2,7.73-15.23,8.4-.85.1-1.7.14-2.54.14Zm-2.06-41.35h0c-4.97.56-9.43,3.01-12.55,6.92-3.12,3.91-4.54,8.8-3.98,13.77,1.15,10.26,10.42,17.68,20.69,16.54,4.97-.55,9.43-3.01,12.55-6.92,3.12-3.91,4.54-8.8,3.98-13.77-1.15-10.26-10.43-17.69-20.69-16.54Zm2.07,29.61c-5.52,0-10.29-4.16-10.92-9.78-.33-2.92.5-5.79,2.34-8.09,1.83-2.29,4.45-3.74,7.37-4.06,2.92-.33,5.79.5,8.09,2.34,2.29,1.83,3.74,4.45,4.06,7.37.33,2.92-.5,5.79-2.34,8.09s-4.45,3.74-7.37,4.06h0c-.41.05-.82.07-1.23.07Zm.02-18c-.26,0-.53.01-.79.04-1.86.21-3.52,1.13-4.69,2.59s-1.7,3.29-1.49,5.15c.43,3.84,3.88,6.6,7.73,6.18h0c1.86-.21,3.52-1.13,4.69-2.59s1.7-3.29,1.49-5.15c-.21-1.86-1.13-3.52-2.59-4.69-1.25-1-2.78-1.53-4.36-1.53Z"/>
      </g>
      <g>
        <line class="cls-4" x1="89.27" y1="71.69" x2="72" y2="48.73"/>
        <path class="cls-7" d="m89.27,73.69c-.61,0-1.21-.28-1.6-.8l-17.27-22.96c-.66-.88-.49-2.14.4-2.8.88-.66,2.14-.48,2.8.4l17.27,22.96c.66.88.49,2.14-.4,2.8-.36.27-.78.4-1.2.4Z"/>
      </g>
      <g>
        <path class="cls-3" d="m69.7,36.27s-15.58-11.1-33.85,7.35l.88,7.86c.38,3.44,3.74,5.73,7.08,4.83l23.15-6.23c2.84-.77,4.62-3.59,4.09-6.48l-1.35-7.33Z"/>
        <path class="cls-7" d="m42.34,58.5c-1.52,0-3.02-.45-4.31-1.33-1.85-1.26-3.05-3.25-3.29-5.47l-.88-7.86c-.07-.6.14-1.2.57-1.63,19.25-19.44,36.26-7.69,36.43-7.57.42.3.71.75.81,1.27l1.35,7.33c.72,3.89-1.71,7.75-5.54,8.78l-23.15,6.23c-.66.18-1.33.26-1.99.26Zm-4.4-14.15l.77,6.9c.12,1.06.69,2.01,1.57,2.61.88.6,1.98.79,3.01.51l23.15-6.23c1.82-.49,2.98-2.33,2.64-4.19l-1.19-6.47c-2.96-1.71-15.29-7.39-29.95,6.87Z"/>
      </g>
      <path class="cls-6" d="m59.65,69.87c.84-13.57,11-25.01,24.38-27.39,5.03-.89,9.94-.47,14.43,1l.73-.74h0c-1.5-13.43-13.6-23.1-27.03-21.6l-4.1.46,1.64,14.68-5.8,5.94c-6.15,6.3-15.7,7.83-23.52,3.77l-19.3-10.03c-1.56-.81-3.31-1.14-5.05-.95-4.88.55-14.01,3.14-14.03,14.91l5.78-.65c4.87-.54,9.73,1.11,13.25,4.51l27.58,26.59c1.54,1.48,3.65,2.2,5.77,1.96l6.55-.73.27-.27c-1.21-3.53-1.8-7.38-1.55-11.46Z"/>
      <g>
        <polyline class="cls-3" points="68.52 51.14 77.11 62.15 83.51 57.27 75.6 45.36"/>
        <path class="cls-7" d="m77.11,64.15c-.59,0-1.18-.26-1.58-.77l-8.59-11.01c-.68-.87-.52-2.13.35-2.81.87-.68,2.13-.52,2.81.35l7.37,9.45,3.34-2.55-6.87-10.34c-.61-.92-.36-2.16.56-2.77.92-.61,2.16-.36,2.77.56l7.91,11.9c.58.88.39,2.06-.45,2.7l-6.4,4.89c-.36.28-.79.41-1.21.41Z"/>
      </g>
      <g>
        <path class="cls-3" d="m68.08,21.76l-8.1.9.25,2.28c.19,1.68,1.71,2.9,3.39,2.71l5.05-.56"/>
        <path class="cls-7" d="m63.27,29.67c-1.14,0-2.25-.38-3.15-1.11-1.06-.85-1.72-2.05-1.87-3.4l-.25-2.28c-.06-.53.09-1.06.42-1.47s.81-.68,1.34-.74l8.1-.9c1.09-.12,2.09.67,2.21,1.77.12,1.1-.67,2.09-1.77,2.21l-6.11.68.03.29c.03.28.17.54.4.72.22.18.5.26.79.23l5.05-.56c1.09-.12,2.09.67,2.21,1.77s-.67,2.09-1.77,2.21l-5.05.56c-.19.02-.38.03-.57.03Z"/>
      </g>
      <g>
        <line class="cls-4" x1="23.94" y1="78.98" x2="34.64" y2="66.89"/>
        <path class="cls-7" d="m23.94,80.98c-.47,0-.94-.17-1.33-.5-.83-.73-.9-2-.17-2.82l10.71-12.09c.73-.82,2-.9,2.82-.17.83.73.9,2,.17,2.82l-10.71,12.09c-.39.45-.95.67-1.5.67Z"/>
      </g>
      <path class="cls-2" d="m50.8,74.69c-2.36-10.47,1.42-16.08-6.98-18.38-8.4-2.3-15.8-9.24-23.93-13.61-8.13-4.37-17.13,1.91-17.13,1.91-.47,1.52-.75,3.27-.76,5.29l5.78-.65c4.87-.54,9.73,1.11,13.25,4.51l27.58,26.59c1.32,1.27,3.06,1.97,4.86,2-1.19-2.72-2.16-5.36-2.68-7.68Z"/>
      <g>
        <line class="cls-5" x1="16.48" y1="40.93" x2="14.68" y2="41.13"/>
        <path class="cls-7" d="m14.68,43.13c-1,0-1.87-.76-1.98-1.78-.12-1.1.67-2.09,1.77-2.21l1.8-.2c1.09-.12,2.09.67,2.21,1.77.12,1.1-.67,2.09-1.77,2.21l-1.8.2c-.08,0-.15.01-.22.01Z"/>
      </g>
      <path class="cls-7" d="m53.58,84.37c-2.36,0-4.63-.91-6.35-2.57l-27.58-26.59c-3.11-3-7.35-4.44-11.64-3.96l-5.78.65c-.57.06-1.13-.12-1.56-.5-.42-.38-.67-.92-.67-1.49.02-13.65,11.06-16.37,15.81-16.9,2.13-.24,4.28.16,6.2,1.16l19.3,10.03c7.08,3.68,15.59,2.32,21.17-3.39l5.13-5.26-1.53-13.74c-.06-.53.09-1.06.42-1.47.33-.41.81-.68,1.34-.74l4.1-.46c14.51-1.62,27.62,8.86,29.24,23.37.07.6-.14,1.2-.56,1.63l-.73.74c-.53.54-1.32.73-2.05.5-4.37-1.43-8.9-1.74-13.46-.93-12.4,2.2-21.96,12.95-22.74,25.55-.22,3.63.26,7.23,1.45,10.69.25.72.07,1.51-.47,2.05l-.27.27c-.32.33-.75.53-1.2.58l-6.55.73c-.34.04-.69.06-1.03.06ZM9.62,47.15c4.75,0,9.33,1.83,12.8,5.17l27.58,26.59c1.11,1.07,2.63,1.59,4.16,1.42l4.5-.5c-.88-3.29-1.22-6.68-1.01-10.09h0c.89-14.42,11.83-26.71,26.03-29.24,4.46-.79,8.89-.65,13.21.43-2.29-11.26-12.87-19.13-24.51-17.83l-2.11.24,1.42,12.7c.07.6-.14,1.19-.56,1.62l-5.79,5.94c-6.82,6.98-17.21,8.65-25.87,4.15l-19.3-10.03c-1.22-.63-2.57-.89-3.91-.74-5.11.57-11.13,2.93-12.11,10.67l3.42-.38c.69-.08,1.38-.12,2.07-.12Z"/>
      <path class="cls-7" d="m82.88,106.58h-19.77c-1.1,0-2-.9-2-2s.9-2,2-2h19.77c1.1,0,2,.9,2,2s-.9,2-2,2Z"/>
      <path class="cls-7" d="m55.59,106.59c-.13,0-.26,0-.39-.04-.13-.03-.26-.06-.38-.11-.12-.05-.23-.12-.34-.19-.11-.07-.21-.16-.31-.25-.09-.09-.17-.19-.24-.3-.08-.11-.14-.23-.19-.35-.05-.12-.09-.24-.11-.37-.03-.13-.04-.26-.04-.39s0-.26.04-.39c.02-.13.06-.26.11-.38.05-.12.11-.23.19-.34.07-.11.15-.21.24-.31.1-.09.2-.17.31-.24.11-.08.22-.14.34-.19.12-.05.25-.09.38-.11.65-.13,1.34.08,1.8.54.09.1.18.2.25.31.07.11.14.22.19.34.05.12.08.25.11.38.03.13.04.26.04.39s0,.26-.04.39-.06.25-.11.37c-.05.12-.12.24-.19.35-.07.11-.16.21-.25.3-.37.38-.89.59-1.41.59Z"/>
      <g>
        <path class="cls-5" d="m91.25,27.26l-5.3.59c-2.41.27-3.73,2.97-2.43,5.01s3.25,3.76,5.21,3.54l8.49-.95h0c-1.41-3.16-3.46-5.94-5.97-8.2Z"/>
        <path class="cls-7" d="m88.38,38.43c-2.35,0-4.71-1.6-6.54-4.49-.98-1.54-1.09-3.44-.3-5.09.8-1.66,2.36-2.78,4.19-2.98l5.3-.59c.57-.06,1.13.12,1.56.5,2.77,2.5,4.95,5.48,6.46,8.87.26.58.23,1.25-.09,1.81-.32.55-.88.92-1.51.99l-8.49.95c-.19.02-.38.03-.57.03Zm2.18-9.08l-4.38.49c-.65.07-.94.54-1.03.73-.09.19-.27.69.07,1.22,1.06,1.67,2.4,2.74,3.3,2.63l5.59-.62c-.98-1.62-2.17-3.11-3.54-4.44Z"/>
      </g>
    </g>
  </g>
</svg>