<svg xmlns="http://www.w3.org/2000/svg" id="flatten_icons" viewBox="0 0 112 112"><defs><style>.cls-2{fill:#769199}.cls-5{fill:#4c6972}.cls-8{fill:#607d89}.cls-9{fill:#004241}</style></defs><g id="moules"><path d="M58.01 47.74s-8.82-10.22-8.52-13.31 9.25-18.18 28.21-19.55S99.49 27.52 97.26 35.8c-3.44 12.79-18.66 8.92-18.66 8.92l-20.59 3.01Z" class="cls-2"/><path d="M58.01 49.74c-.58 0-1.13-.25-1.51-.69-2.82-3.27-9.34-11.25-9-14.81.44-4.5 10.66-19.95 30.05-21.35 10.38-.74 15.75 2.97 18.44 6.23 4.35 5.27 4.51 12.35 3.2 17.21-3.06 11.37-14.63 11.83-20.68 10.43L58.3 49.72c-.1.01-.19.02-.29.02m22.25-32.95c-.78 0-1.58.03-2.41.09-17.9 1.29-26.11 15.38-26.36 17.75.03 1.29 3.32 6.21 7.33 10.97l19.5-2.85c.26-.04.53-.02.78.04.54.14 13.35 3.21 16.24-7.5 1-3.72.97-9.52-2.42-13.63-2.67-3.24-6.93-4.88-12.66-4.88Z" class="cls-9"/><path d="M57.61 46.05s-6.27-3.6-6.01-6.23 8.6-15.51 24.85-16.68 18.83 10.82 16.76 17.85-15.99 7.61-15.99 7.61z" style="fill:#b0bec1"/><path d="M77.22 50.6c-.09 0-.17 0-.26-.02l-19.61-2.55c-.26-.03-.51-.12-.74-.25-2.22-1.27-7.36-4.62-7.01-8.16.33-3.42 9.4-17.23 26.7-18.48 9.15-.65 13.88 2.68 16.23 5.6 3.75 4.66 3.74 10.88 2.59 14.8-1.06 3.62-4.48 6.25-10.16 7.8-3.91 1.07-7.51 1.23-7.67 1.24h-.08Zm-18.94-6.48 19.03 2.47c3.39-.18 12.66-1.65 13.99-6.16.88-2.99.92-7.71-1.87-11.16-2.52-3.12-6.95-4.55-12.83-4.12-15.11 1.09-22.69 12.91-23 14.89.12.72 2.35 2.68 4.69 4.09Z" class="cls-9"/><path d="M51.29 37.95s15.29-9.38 23.79-7.66 9.36-.5 12.23 6.92-7.46 10.53-7.46 10.53l-28.56-9.8Z" style="fill:#f4bb9a"/><path d="M79.84 49.74c-.22 0-.44-.04-.65-.11l-28.56-9.8c-.73-.25-1.25-.9-1.34-1.67-.08-.77.28-1.52.94-1.92.65-.4 16.06-9.77 25.23-7.91 2.01.41 3.59.59 4.86.73 4.63.53 6.36 1.03 8.84 7.43.9 2.32.84 4.63-.16 6.68-2.21 4.52-8.33 6.41-8.58 6.49-.19.06-.38.08-.58.08M56.17 37.51l23.67 8.12c1.59-.6 4.53-2.08 5.57-4.23.51-1.05.52-2.19.02-3.47-1.73-4.46-1.87-4.48-5.56-4.9-1.35-.15-3.03-.34-5.2-.79-4.9-.99-13.14 2.48-18.51 5.26Z" class="cls-9"/><path d="M51.29 37.95c-.81.67-1.1 1.97-.66 2.96C52.45 45 63.21 55.75 77.31 58.26c17.52 3.12 20.34-5.6 20.78-10.3s-5-6.48-22.12-8.44c-12.03-1.37-22.47-3.42-24.69-1.58Z" class="cls-2"/><path d="M84.06 60.91c-2.17 0-4.53-.23-7.1-.68C62.74 57.7 51.07 46.84 48.8 41.72c-.8-1.8-.28-4.08 1.21-5.31 2.26-1.88 7.42-1.3 17.94.09 2.65.35 5.38.71 8.25 1.04 15.32 1.75 24.57 3.34 23.88 10.62-.39 4.13-2.12 7.47-5 9.66-2.72 2.06-6.41 3.1-11.02 3.1ZM52.55 39.5c-.1.1-.18.42-.09.6 1.55 3.5 11.65 13.78 25.2 16.19 6.89 1.22 11.94.67 15-1.66 1.99-1.52 3.15-3.82 3.44-6.86.28-2.91-4.86-4.49-20.35-6.26-2.9-.33-5.66-.69-8.32-1.05-6-.79-13.47-1.77-14.88-.97Zm-1.26-1.55" class="cls-9"/><path d="M81.6 56.04c-.08 0-.15 0-.23-.01-12.28-1.39-18.59-9.37-18.86-9.71-.68-.87-.52-2.13.35-2.81s2.12-.52 2.8.35c.09.11 5.65 7 16.15 8.19 1.1.12 1.89 1.12 1.76 2.21a2 2 0 0 1-1.98 1.77Zm10.57-4.47c-7.89 0-12.84-1.88-13.05-1.96a2 2 0 0 1-1.14-2.59 1.99 1.99 0 0 1 2.58-1.14c.08.03 4.55 1.69 11.61 1.69h.05c1.1 0 2 .89 2 2s-.89 2-2 2h-.06Z" class="cls-5"/><path d="M14.2 77.98s6.68 11.07 22.92 16.35c16.25 5.28 27.38-4.37 27.91-12.02S50.95 71.39 50.95 71.39z" class="cls-8"/><path d="M46.21 97.86c-2.87 0-6.1-.46-9.71-1.63-16.76-5.45-23.73-16.74-24.02-17.22-.34-.56-.38-1.26-.11-1.86s.82-1.03 1.47-1.14l36.75-6.59c.26-.05.53-.04.79.02 1.67.37 16.27 3.92 15.64 13.01-.29 4.22-3.09 8.52-7.49 11.49-2.51 1.7-7.01 3.92-13.33 3.92ZM17.75 79.37c2.89 3.41 9.28 9.57 19.99 13.05 9.92 3.23 16.51.26 19.56-1.8 3.34-2.25 5.54-5.49 5.74-8.45.32-4.65-8.51-7.84-12.15-8.74zm-3.55-1.39" class="cls-9"/><path d="M55.52 72.82c-2.53-.97-4.57-1.43-4.57-1.43l-36.08 6.47c3.55 2.46 17.25 9.04 31.44 8.68 16.74-.43 15.22-5.93 13.06-10.21a7.3 7.3 0 0 0-3.85-3.51" style="fill:#abc6c2"/><path d="M45.2 88.55c-13.73 0-27.28-6.15-31.47-9.05a2 2 0 0 1-.82-2.07c.17-.79.8-1.4 1.6-1.54l36.08-6.47c.26-.05.53-.04.79.02.09.02 2.22.5 4.85 1.52 2.13.82 3.88 2.41 4.92 4.47.76 1.51 2.55 5.06.69 8.16-1.88 3.15-6.81 4.72-15.49 4.94-.39 0-.77.01-1.16.01Zm-24.35-9.73c5.67 2.62 15.25 5.99 25.41 5.72 9.5-.25 11.67-2.18 12.16-3 .51-.85.26-2.14-.83-4.31a5.17 5.17 0 0 0-2.79-2.54 38 38 0 0 0-3.92-1.26l-30.03 5.38Z" class="cls-9"/><path d="M42.42 86.47c2.44-1.37 4.94-3.16 6.26-5.23 3.09-4.87-2.2-7.53-7.79-8.04l-26.02 4.66c3.22 2.23 14.81 7.87 27.55 8.61" style="fill:#eac781"/><path d="M42.42 88.47h-.12c-12.89-.75-24.81-6.36-28.57-8.96a2 2 0 0 1-.82-2.07c.17-.79.8-1.4 1.6-1.54l26.02-4.66c.18-.03.36-.04.54-.02 2.37.22 8.09 1.14 9.97 4.96.64 1.31 1.05 3.43-.68 6.15-1.3 2.05-3.65 4.04-6.97 5.91-.3.17-.64.26-.98.26Zm-21.59-9.65c5.08 2.34 12.92 5.03 21.12 5.61 2.43-1.43 4.17-2.9 5.04-4.27.88-1.39.57-2.03.46-2.24-.62-1.27-3.27-2.37-6.48-2.71z" class="cls-9"/><path d="M14 77.23s18.07 2.05 39.52-7.58c21.44-9.63 3.02-11.55-9.45-11.61-12.46-.06-31.84 7.21-30.07 19.19" class="cls-8"/><path d="M18.56 79.43c-2.85 0-4.56-.18-4.79-.21-.9-.1-1.62-.8-1.75-1.7-.55-3.72.62-7.36 3.37-10.54 6.18-7.13 19.27-10.94 28.53-10.94h.16c20.04.1 20.89 4.1 21.21 5.61.67 3.14-2.61 6.08-10.96 9.83-15.34 6.89-28.89 7.95-35.77 7.95m-2.67-4.07c4.88.21 19.83.09 36.8-7.52 7-3.14 8.36-4.89 8.62-5.36-.78-.75-5-2.37-17.25-2.43h-.14c-8.48 0-20.29 3.56-25.5 9.56-1.58 1.82-2.42 3.75-2.52 5.75Z" class="cls-9"/><path d="M28.61 70.5c-3.71 0-6.01-.66-6.19-.72a1.996 1.996 0 0 1-1.34-2.49 2.003 2.003 0 0 1 2.48-1.35c.15.04 8.11 2.23 18.56-2.55 1-.46 2.19-.02 2.65.99s.02 2.19-.99 2.65c-6.05 2.76-11.36 3.46-15.17 3.46Z" class="cls-5"/><path d="M0 0h112v112H0z" style="fill:none"/></g></svg>