<?xml version="1.0" encoding="UTF-8"?>
<svg id="flatten_icons" xmlns="http://www.w3.org/2000/svg" viewBox="0 0 112 112">
  <defs>
    <style>
      .cls-1 {
        fill: none;
      }

      .cls-2 {
        fill: #f4f4ea;
      }

      .cls-3 {
        fill: #eaeada;
      }

      .cls-4 {
        fill: #fff;
      }

      .cls-5 {
        fill: #86c487;
      }

      .cls-6 {
        fill: #004241;
      }
    </style>
  </defs>
  <g id="mozza">
    <rect class="cls-1" y="0" width="112" height="112"/>
    <path class="cls-2" d="M93.78,53.64c0,19.16-16.88,34.7-37.7,34.7s-37.7-13.43-37.7-32.59S31.06,18.94,51.88,18.94s41.91,15.53,41.91,34.7Z"/>
    <path class="cls-3" d="M86.43,34.75c.63,2.27.96,4.63.96,7.04,0,19.16-16.88,34.7-37.7,34.7-12.37,0-23.35-4.74-30.22-12.61,4.03,14.72,18.89,24.46,36.61,24.46,20.82,0,37.7-15.53,37.7-34.7,0-6.97-2.8-13.45-7.35-18.89Z"/>
    <path class="cls-6" d="M56.09,90.33c-22.63,0-39.7-14.87-39.7-34.59S28.83,16.94,51.88,16.94c20.73,0,43.91,15.69,43.91,36.7s-17.81,36.7-39.7,36.7ZM51.88,20.94c-20.45,0-31.48,17.93-31.48,34.8s15.35,30.59,35.7,30.59,35.7-14.67,35.7-32.7c0-15.43-17.07-32.7-39.91-32.7Z"/>
    <ellipse class="cls-4" cx="41.19" cy="36.78" rx="8.3" ry="6.15" transform="translate(-10.91 18.48) rotate(-22.41)"/>
    <g>
      <path class="cls-5" d="M72.8,88.25c-8.34,2.17-15.39,1.02-18.6-2.25-3.22-3.27-1.76-9.02,4.85-9.76s13.95,8.12,13.95,8.12c0,0,3.33-10.85,12.88-9.94s5.01,10.4,2.02,12.13c-2.66,1.54-6.43,5.17-15.11,1.69Z"/>
      <path class="cls-6" d="M79.48,91.71c-1.92,0-4.17-.38-6.81-1.36-8.48,2.06-16.07.95-19.9-2.94-2.05-2.08-2.74-5.02-1.81-7.68,1.06-3,4-5.05,7.86-5.48,5.33-.6,10.64,3.65,13.54,6.5,2.22-4.16,6.7-8.98,13.71-8.32,5.53.52,7.01,3.61,7.41,5.41.91,4.16-2.15,9.04-4.57,10.45-.29.17-.6.36-.92.57-1.82,1.16-4.44,2.85-8.51,2.85ZM73.36,86.33c.06.02.12.04.18.06,6.7,2.68,9.8.7,12.29-.9.38-.24.73-.47,1.07-.67,1.17-.68,3.14-3.94,2.67-6.13-.11-.48-.43-1.96-3.87-2.28-7.79-.74-10.67,8.17-10.79,8.55-.22.7-.8,1.22-1.52,1.37,0,0-.02,0-.03,0ZM59.86,78.2c-.2,0-.39.01-.58.03-2.34.26-3.99,1.3-4.54,2.84-.43,1.21-.1,2.53.88,3.53,2.36,2.4,8.44,3.86,16.68,1.71.05-.01.1-.02.14-.03-.38-.11-.72-.33-.98-.64-1.78-2.14-7.18-7.44-11.61-7.44Z"/>
    </g>
  </g>
</svg>