<svg xmlns="http://www.w3.org/2000/svg" id="flatten_icons" data-name="flatten icons" viewBox="0 0 112 112"><defs><style>.cls-3,.cls-5{stroke-width:0}.cls-3{fill:#9595ce}.cls-5{fill:#004241}</style></defs><path d="M0 0h112v112H0z" style="fill:none;stroke-width:0"/><path d="M53.47 37.24s13.78-4.44 18.36-7.84c3.43-2.54 6.06-6.28 8.6-8.63a4.27 4.27 0 0 0 .92-5.04l-2.86-5.74 5.05 3.23a7.8 7.8 0 0 0 5.97 1.03l7.81-1.8 2.65 6.39s-4.42 1.04-8.46 4.38c-4.03 3.34-8.78 8.2-8.78 8.2l6.73 9.25-10.8-4.26-8.83 10.76" style="stroke-width:0;fill:#aad681"/><path d="M69.83 49.19c-.45 0-.9-.15-1.27-.45-.85-.7-.98-1.96-.28-2.81l8.83-10.76c.55-.67 1.47-.91 2.28-.59l4.41 1.74-2.69-3.7c-.57-.79-.49-1.87.19-2.57.2-.2 4.87-4.98 8.93-8.35 2.55-2.11 5.23-3.38 7.06-4.07l-1.17-2.82-6.16 1.42a9.87 9.87 0 0 1-6.57-.77c.88 2.35.26 5.07-1.61 6.8-.89.83-1.83 1.88-2.83 3-1.71 1.91-3.64 4.07-5.93 5.77-4.79 3.55-18.36 7.95-18.93 8.13-1.05.34-2.18-.24-2.52-1.29s.24-2.18 1.29-2.52c3.75-1.21 14.24-4.92 17.78-7.54 1.96-1.46 3.68-3.37 5.33-5.22 1.06-1.19 2.07-2.31 3.09-3.27.75-.69.94-1.77.49-2.68l-2.86-5.74a2 2 0 0 1 .45-2.38c.67-.6 1.66-.68 2.41-.2l5.05 3.23c1.31.84 2.93 1.12 4.44.77l7.81-1.8c.95-.22 1.92.28 2.3 1.18l2.65 6.39a2.015 2.015 0 0 1-1.39 2.72c-.04 0-4.05 1-7.64 3.98-2.71 2.24-5.79 5.23-7.43 6.87l5.73 7.88c.52.72.51 1.7-.04 2.4-.54.7-1.49.96-2.32.64l-9.45-3.72-7.91 9.63c-.4.48-.97.73-1.55.73Z" class="cls-5"/><path d="M84.1 66.32c2.69-4.2 1.46-9.79-2.74-12.48a9.02 9.02 0 0 0-6.09-1.34c2.28-4.14 1-9.39-3.04-11.97-3.65-2.34-8.34-1.71-11.27 1.24 1.45-3.9.05-8.42-3.6-10.76s-8.55-1.68-11.47 1.44a8.96 8.96 0 0 0-3.39-3.95c-4.2-2.69-9.79-1.46-12.48 2.74a9.03 9.03 0 0 0-1.17 6.98 8.505 8.505 0 0 0-5.46 12.71 8.5 8.5 0 0 0-5.46 3.75c-2.03 3.17-1.69 7.18.56 9.95-2.04.51-3.9 1.76-5.12 3.67a8.51 8.51 0 0 0 2.58 11.76c1.26.81 2.66 1.24 4.06 1.32-.37.39-.71.81-1.01 1.28a8.51 8.51 0 0 0 2.58 11.76 8.47 8.47 0 0 0 6.09 1.2c.52 2 1.76 3.82 3.64 5.02a8.51 8.51 0 0 0 11.76-2.58c.1-.16.18-.32.27-.48l.02.02a8.508 8.508 0 0 0 12.78-9.47c3.08.3 6.21-1.09 8-3.88 1.1-1.71 1.5-3.67 1.29-5.54 3.39.75 7.04-.62 9.02-3.72.9-1.41 1.33-2.99 1.34-4.55 3.21.24 6.44-1.24 8.29-4.14Z" style="stroke-width:0;fill:#555196"/><path d="M35.9 104c-1.94 0-3.9-.53-5.65-1.66-1.74-1.12-3.1-2.71-3.93-4.58-2.06.03-4.06-.54-5.8-1.65-4.53-2.9-6.09-8.71-3.8-13.43-.64-.25-1.26-.56-1.84-.93-4.88-3.12-6.32-9.64-3.19-14.53.97-1.52 2.3-2.74 3.85-3.58-1.47-3.2-1.25-6.98.71-10.04 1.09-1.71 2.62-3.03 4.42-3.87-.95-2.95-.56-6.18 1.16-8.86 1.17-1.83 2.84-3.22 4.8-4.04-.16-2.34.42-4.66 1.71-6.67 1.59-2.48 4.05-4.2 6.93-4.83s5.83-.11 8.32 1.48c1.1.7 2.05 1.58 2.83 2.6 3.57-2.36 8.29-2.48 12.03-.09 2.98 1.91 4.79 5.11 5.05 8.49 3.18-1.18 6.84-.88 9.83 1.02 3.98 2.54 5.79 7.28 4.82 11.69 1.52.23 2.99.77 4.31 1.61 5.13 3.28 6.63 10.12 3.35 15.25a11 11 0 0 1-8.17 5.03c-.25 1.3-.74 2.54-1.46 3.66-1.92 3.01-5.24 4.79-8.73 4.84a10.55 10.55 0 0 1-1.58 4.42 10.46 10.46 0 0 1-7.37 4.74 10.6 10.6 0 0 1-1.64 6.03c-1.51 2.37-3.86 4-6.6 4.6-2.11.46-4.25.27-6.21-.52a10.53 10.53 0 0 1-8.12 3.81Zm-8.21-10.36c.89 0 1.7.6 1.93 1.5a6.5 6.5 0 0 0 2.78 3.84c3.03 1.94 7.06 1.05 9-1.98.05-.08.1-.17.15-.26l.06-.11a1.99 1.99 0 0 1 2.76-.75c.04.02.08.05.12.08 1.51.93 3.21 1.22 4.88.85 1.7-.37 3.15-1.39 4.09-2.85 1-1.55 1.28-3.48.78-5.27a1.99 1.99 0 0 1 .39-1.82c.42-.5 1.06-.77 1.73-.71 2.45.24 4.8-.9 6.12-2.97a6.46 6.46 0 0 0 .98-4.24c-.07-.64.17-1.28.65-1.71s1.14-.61 1.77-.46c2.66.59 5.44-.55 6.9-2.84a6.5 6.5 0 0 0 1.02-3.48c0-.55.23-1.08.64-1.46s.96-.57 1.51-.53c2.58.19 5.06-1.04 6.46-3.23a7.045 7.045 0 0 0-2.14-9.72c-1.4-.9-3.08-1.26-4.74-1.04-.75.11-1.49-.23-1.92-.85a1.99 1.99 0 0 1-.1-2.1c1.78-3.24.75-7.33-2.36-9.32-2.77-1.77-6.46-1.37-8.78.96-.66.67-1.7.78-2.5.27-.79-.51-1.12-1.5-.8-2.38 1.15-3.08-.03-6.6-2.8-8.37a7.03 7.03 0 0 0-8.93 1.12c-.46.49-1.13.73-1.79.61-.66-.11-1.22-.55-1.5-1.16a7 7 0 0 0-2.64-3.08 7.02 7.02 0 0 0-5.3-.95c-1.84.4-3.41 1.5-4.42 3.08-1.04 1.62-1.36 3.55-.91 5.44.13.52.04 1.07-.25 1.53s-.74.78-1.27.89c-1.7.37-3.15 1.39-4.09 2.85a6.5 6.5 0 0 0-.09 6.87c.33.56.38 1.24.12 1.83s-.79 1.03-1.43 1.16a6.5 6.5 0 0 0-4.18 2.87 6.49 6.49 0 0 0 .43 7.61c.43.53.56 1.25.34 1.89-.22.65-.75 1.14-1.42 1.31a6.48 6.48 0 0 0-3.92 2.8c-1.94 3.03-1.05 7.07 1.98 9 .93.59 2 .94 3.11 1.01.78.05 1.45.54 1.74 1.26s.12 1.55-.41 2.11c-.29.31-.55.64-.77.98a6.511 6.511 0 0 0 6.64 9.92c.12-.02.24-.03.35-.03Z" class="cls-5"/><circle cx="38.29" cy="36" r="3.71" class="cls-3"/><circle cx="52.5" cy="38.77" r="3.71" class="cls-3"/><circle cx="34.22" cy="49.25" r="3.71" class="cls-3"/><circle cx="41.63" cy="66.47" r="3.71" class="cls-3"/><circle cx="38.21" cy="78.59" r="3.71" class="cls-3"/><circle cx="46.83" cy="87.83" r="3.71" class="cls-3"/><circle cx="27.14" cy="85.4" r="3.71" class="cls-3"/><circle cx="36.32" cy="91.69" r="3.71" class="cls-3"/><circle cx="54.03" cy="77.78" r="3.71" class="cls-3"/><circle cx="28.98" cy="61.75" r="3.71" class="cls-3"/><circle cx="23.83" cy="72.37" r="3.71" class="cls-3"/><circle cx="46.52" cy="50.08" r="3.71" class="cls-3"/><circle cx="55.05" cy="60.56" r="3.71" class="cls-3"/><circle cx="65.66" cy="69.37" r="3.71" class="cls-3"/><circle cx="65.53" cy="49.87" r="3.71" class="cls-3"/><circle cx="74.86" cy="61.89" r="3.71" class="cls-3"/></svg>