<?xml version="1.0" encoding="UTF-8"?>
<svg id="flatten_icons" data-name="flatten icons" xmlns="http://www.w3.org/2000/svg" viewBox="0 0 112 112">
  <defs>
    <style>
      .cls-1 {
        fill: none;
      }

      .cls-1, .cls-2, .cls-3, .cls-4, .cls-5 {
        stroke-width: 0px;
      }

      .cls-2 {
        fill: #555196;
      }

      .cls-3 {
        fill: #9595ce;
      }

      .cls-4 {
        fill: #aad681;
      }

      .cls-5 {
        fill: #004241;
      }
    </style>
  </defs>
  <rect class="cls-1" width="112" height="112"/>
  <g>
    <g>
      <path class="cls-4" d="m53.47,37.24s13.78-4.44,18.36-7.84c3.43-2.54,6.06-6.28,8.6-8.63,1.39-1.29,1.77-3.34.92-5.04l-2.86-5.74,5.05,3.23c1.77,1.13,3.92,1.51,5.97,1.03l7.81-1.8,2.65,6.39s-4.42,1.04-8.46,4.38c-4.03,3.34-8.78,8.2-8.78,8.2l6.73,9.25-10.8-4.26-8.83,10.76"/>
      <path class="cls-5" d="m69.83,49.19c-.45,0-.9-.15-1.27-.45-.85-.7-.98-1.96-.28-2.81l8.83-10.76c.55-.67,1.47-.91,2.28-.59l4.41,1.74-2.69-3.7c-.57-.79-.49-1.87.19-2.57.2-.2,4.87-4.98,8.93-8.35,2.55-2.11,5.23-3.38,7.06-4.07l-1.17-2.82-6.16,1.42c-2.21.51-4.55.23-6.57-.77.88,2.35.26,5.07-1.61,6.8-.89.83-1.83,1.88-2.83,3-1.71,1.91-3.64,4.07-5.93,5.77-4.79,3.55-18.36,7.95-18.93,8.13-1.05.34-2.18-.24-2.52-1.29-.34-1.05.24-2.18,1.29-2.52,3.75-1.21,14.24-4.92,17.78-7.54,1.96-1.46,3.68-3.37,5.33-5.22,1.06-1.19,2.07-2.31,3.09-3.27.75-.69.94-1.77.49-2.68l-2.86-5.74c-.4-.8-.22-1.78.45-2.38.67-.6,1.66-.68,2.41-.2l5.05,3.23c1.31.84,2.93,1.12,4.44.77l7.81-1.8c.95-.22,1.92.28,2.3,1.18l2.65,6.39c.22.54.2,1.15-.07,1.68s-.75.9-1.32,1.04c-.04,0-4.05,1-7.64,3.98-2.71,2.24-5.79,5.23-7.43,6.87l5.73,7.88c.52.72.51,1.7-.04,2.4-.54.7-1.49.96-2.32.64l-9.45-3.72-7.91,9.63c-.4.48-.97.73-1.55.73Z"/>
    </g>
    <g>
      <path class="cls-2" d="m84.1,66.32c2.69-4.2,1.46-9.79-2.74-12.48-1.88-1.2-4.04-1.62-6.09-1.34,2.28-4.14,1-9.39-3.04-11.97-3.65-2.34-8.34-1.71-11.27,1.24,1.45-3.9.05-8.42-3.6-10.76s-8.55-1.68-11.47,1.44c-.69-1.57-1.84-2.96-3.39-3.95-4.2-2.69-9.79-1.46-12.48,2.74-1.38,2.16-1.72,4.68-1.17,6.98-2.13.47-4.08,1.75-5.35,3.73-1.8,2.82-1.73,6.3-.11,8.98-2.17.45-4.17,1.73-5.46,3.75-2.03,3.17-1.69,7.18.56,9.95-2.04.51-3.9,1.76-5.12,3.67-2.54,3.96-1.38,9.23,2.58,11.76,1.26.81,2.66,1.24,4.06,1.32-.37.39-.71.81-1.01,1.28-2.54,3.96-1.38,9.23,2.58,11.76,1.88,1.2,4.05,1.57,6.09,1.2.52,2,1.76,3.82,3.64,5.02,3.96,2.54,9.23,1.38,11.76-2.58.1-.16.18-.32.27-.48,0,0,.01.01.02.02,3.96,2.54,9.23,1.38,11.76-2.58,1.36-2.13,1.65-4.63,1.02-6.89,3.08.3,6.21-1.09,8-3.88,1.1-1.71,1.5-3.67,1.29-5.54,3.39.75,7.04-.62,9.02-3.72.9-1.41,1.33-2.99,1.34-4.55,3.21.24,6.44-1.24,8.29-4.14Z"/>
      <path class="cls-5" d="m35.9,104c-1.94,0-3.9-.53-5.65-1.66-1.74-1.12-3.1-2.71-3.93-4.58-2.06.03-4.06-.54-5.8-1.65-4.53-2.9-6.09-8.71-3.8-13.43-.64-.25-1.26-.56-1.84-.93-4.88-3.12-6.32-9.64-3.19-14.53.97-1.52,2.3-2.74,3.85-3.58-1.47-3.2-1.25-6.98.71-10.04,1.09-1.71,2.62-3.03,4.42-3.87-.95-2.95-.56-6.18,1.16-8.86,1.17-1.83,2.84-3.22,4.8-4.04-.16-2.34.42-4.66,1.71-6.67,1.59-2.48,4.05-4.2,6.93-4.83,2.88-.63,5.83-.11,8.32,1.48,1.1.7,2.05,1.58,2.83,2.6,3.57-2.36,8.29-2.48,12.03-.09,2.98,1.91,4.79,5.11,5.05,8.49,3.18-1.18,6.84-.88,9.83,1.02,3.98,2.54,5.79,7.28,4.82,11.69,1.52.23,2.99.77,4.31,1.61,5.13,3.28,6.63,10.12,3.35,15.25-1.83,2.87-4.85,4.69-8.17,5.03-.25,1.3-.74,2.54-1.46,3.66-1.92,3.01-5.24,4.79-8.73,4.84-.19,1.56-.72,3.08-1.58,4.42-1.68,2.62-4.37,4.32-7.37,4.74.07,2.11-.49,4.22-1.64,6.03-1.51,2.37-3.86,4-6.6,4.6-2.11.46-4.25.27-6.21-.52-2.04,2.47-5.05,3.81-8.12,3.81Zm-8.21-10.36c.89,0,1.7.6,1.93,1.5.42,1.6,1.41,2.96,2.78,3.84,3.03,1.94,7.06,1.05,9-1.98.05-.08.1-.17.15-.26l.06-.11c.26-.47.7-.82,1.22-.96.52-.14,1.08-.07,1.54.21.04.02.08.05.12.08,1.51.93,3.21,1.22,4.88.85,1.7-.37,3.15-1.39,4.09-2.85,1-1.55,1.28-3.48.78-5.27-.18-.64-.03-1.32.39-1.82.42-.5,1.06-.77,1.73-.71,2.45.24,4.8-.9,6.12-2.97.81-1.27,1.15-2.74.98-4.24-.07-.64.17-1.28.65-1.71.48-.43,1.14-.61,1.77-.46,2.66.59,5.44-.55,6.9-2.84.66-1.04,1.02-2.24,1.02-3.48,0-.55.23-1.08.64-1.46s.96-.57,1.51-.53c2.58.19,5.06-1.04,6.46-3.23h0c2.09-3.27,1.13-7.63-2.14-9.72-1.4-.9-3.08-1.26-4.74-1.04-.75.11-1.49-.23-1.92-.85-.43-.62-.47-1.44-.1-2.1,1.78-3.24.75-7.33-2.36-9.32-2.77-1.77-6.46-1.37-8.78.96-.66.67-1.7.78-2.5.27-.79-.51-1.12-1.5-.8-2.38,1.15-3.08-.03-6.6-2.8-8.37-2.86-1.83-6.61-1.36-8.93,1.12-.46.49-1.13.73-1.79.61-.66-.11-1.22-.55-1.5-1.16-.56-1.27-1.47-2.33-2.64-3.08-1.58-1.01-3.47-1.35-5.3-.95-1.84.4-3.41,1.5-4.42,3.08-1.04,1.62-1.36,3.55-.91,5.44.13.52.04,1.07-.25,1.53-.29.46-.74.78-1.27.89-1.7.37-3.15,1.39-4.09,2.85-1.34,2.1-1.37,4.73-.09,6.87.33.56.38,1.24.12,1.83-.26.59-.79,1.03-1.43,1.16-1.74.36-3.22,1.38-4.18,2.87-1.52,2.37-1.34,5.43.43,7.61.43.53.56,1.25.34,1.89-.22.65-.75,1.14-1.42,1.31-1.63.4-3.02,1.4-3.92,2.8-1.94,3.03-1.05,7.07,1.98,9,.93.59,2,.94,3.11,1.01.78.05,1.45.54,1.74,1.26s.12,1.55-.41,2.11c-.29.31-.55.64-.77.98-1.94,3.03-1.05,7.06,1.98,9,1.38.88,3.03,1.21,4.66.92.12-.02.24-.03.35-.03Z"/>
    </g>
    <circle class="cls-3" cx="38.29" cy="36" r="3.71"/>
    <circle class="cls-3" cx="52.5" cy="38.77" r="3.71"/>
    <circle class="cls-3" cx="34.22" cy="49.25" r="3.71"/>
    <circle class="cls-3" cx="41.63" cy="66.47" r="3.71"/>
    <circle class="cls-3" cx="38.21" cy="78.59" r="3.71"/>
    <circle class="cls-3" cx="46.83" cy="87.83" r="3.71"/>
    <circle class="cls-3" cx="27.14" cy="85.4" r="3.71"/>
    <circle class="cls-3" cx="36.32" cy="91.69" r="3.71"/>
    <circle class="cls-3" cx="54.03" cy="77.78" r="3.71"/>
    <circle class="cls-3" cx="28.98" cy="61.75" r="3.71"/>
    <circle class="cls-3" cx="23.83" cy="72.37" r="3.71"/>
    <circle class="cls-3" cx="46.52" cy="50.08" r="3.71"/>
    <circle class="cls-3" cx="55.05" cy="60.56" r="3.71"/>
    <circle class="cls-3" cx="65.66" cy="69.37" r="3.71"/>
    <circle class="cls-3" cx="65.53" cy="49.87" r="3.71"/>
    <circle class="cls-3" cx="74.86" cy="61.89" r="3.71"/>
  </g>
</svg>