<?xml version="1.0" encoding="UTF-8"?>
<svg id="flatten_icons" data-name="flatten icons" xmlns="http://www.w3.org/2000/svg" viewBox="0 0 112 112">
  <defs>
    <style>
      .cls-1 {
        fill: none;
      }

      .cls-1, .cls-2, .cls-3, .cls-4, .cls-5, .cls-6 {
        stroke-width: 0px;
      }

      .cls-2 {
        fill: #7277dd;
      }

      .cls-3 {
        fill: #594fba;
      }

      .cls-4 {
        fill: #aad681;
      }

      .cls-5 {
        fill: #7c84e8;
      }

      .cls-6 {
        fill: #004241;
      }
    </style>
  </defs>
  <rect class="cls-1" width="112" height="112"/>
  <g>
    <g>
      <path class="cls-4" d="m65.81,49.47s-5.6-40.2-44.49-29.19c0,0,2.41,40.45,44.49,29.19Z"/>
      <path class="cls-6" d="m52.07,53.45c-7.24,0-13.46-1.86-18.61-5.57-12.91-9.31-14.1-26.74-14.14-27.48-.06-.94.55-1.79,1.45-2.04,12.02-3.41,22.25-2.43,30.4,2.88,13.83,9.03,16.51,27.18,16.61,27.95.14,1-.49,1.95-1.46,2.21-5.11,1.37-9.87,2.05-14.25,2.05Zm-28.58-31.68c.61,4.31,3.08,16.23,12.33,22.88,6.88,4.95,16.18,6.07,27.66,3.34-1.01-4.57-4.56-16.93-14.52-23.42-6.77-4.41-15.34-5.35-25.47-2.81Z"/>
    </g>
    <g>
      <ellipse class="cls-2" cx="37.41" cy="57.49" rx="18.07" ry="16.73"/>
      <path class="cls-3" d="m54.66,52.55c-.25.66-.53,1.31-.87,1.95-4.45,8.27-15.3,11.63-24.24,7.51-4.6-2.12-7.78-5.82-9.19-10.03-2.97,7.84.74,16.68,8.98,20.49,8.93,4.12,19.78.76,24.24-7.51,2.16-4.01,2.4-8.44,1.08-12.4Z"/>
      <path class="cls-6" d="m37.15,76c-3.03,0-5.99-.57-8.6-1.7-5.71-2.49-9.4-6.04-10.96-10.57-1.53-4.44-.88-9.5,1.89-14.65,4.75-8.82,15.72-11.75,26.08-6.97,9.54,4.4,13.34,13.4,9.92,23.49h0c-1.18,3.48-4.21,6.45-8.52,8.35-3.08,1.36-6.48,2.04-9.81,2.04Zm-1.53-32.15c-5.38,0-10.14,2.51-12.62,7.13-1.55,2.88-3.1,7.21-1.63,11.44,1.18,3.43,4.14,6.19,8.78,8.21,4.42,1.93,10.38,1.79,15.19-.33,3.23-1.43,5.54-3.61,6.35-5.98,2.79-8.23-.06-15-7.81-18.57-2.77-1.28-5.59-1.9-8.26-1.9Zm17.96,21.11h0,0Z"/>
    </g>
    <g>
      <ellipse class="cls-2" cx="75.24" cy="38.85" rx="18.07" ry="16.73" transform="translate(-7.72 21.89) rotate(-15.76)"/>
      <path class="cls-3" d="m90.5,29.41c-.06.7-.15,1.4-.31,2.11-2.04,9.17-11.57,15.35-21.29,13.81-5-.79-9.07-3.49-11.57-7.16-.73,8.35,5.24,15.86,14.21,17.28,9.72,1.54,19.25-4.64,21.29-13.81.99-4.45.02-8.77-2.33-12.23Z"/>
      <path class="cls-6" d="m73.89,57.6c-.88,0-1.76-.06-2.62-.17-6.17-.84-10.69-3.26-13.42-7.19-2.68-3.85-3.43-8.91-2.16-14.61,2.18-9.78,11.93-15.58,23.21-13.79,10.38,1.65,16.48,9.28,15.93,19.91-.19,3.67-2.3,7.35-5.93,10.35-4.23,3.5-9.78,5.5-15.01,5.5Zm1.03-32.09c-7.63,0-13.83,4.28-15.32,10.98-.71,3.2-1.02,7.78,1.54,11.46,2.07,2.98,5.66,4.83,10.68,5.52,4.78.65,10.48-1.09,14.53-4.45,2.72-2.25,4.36-4.98,4.49-7.48h0c.45-8.67-4.13-14.42-12.56-15.75-1.14-.18-2.26-.27-3.36-.27Z"/>
    </g>
    <g>
      <circle class="cls-5" cx="60.13" cy="75.56" r="18.07"/>
      <path class="cls-3" d="m73.18,63.09c.09.75.16,1.5.16,2.27,0,9.98-8.09,18.07-18.07,18.07-5.14,0-9.77-2.15-13.06-5.6,1.12,8.91,8.7,15.8,17.91,15.8,9.98,0,18.07-8.09,18.07-18.07,0-4.84-1.92-9.23-5.02-12.47Z"/>
      <path class="cls-6" d="m60.13,95.63c-11.07,0-20.07-9-20.07-20.07s8.44-18.38,20.07-18.38,20.07,7.73,20.07,18.38-9,20.07-20.07,20.07Zm0-34.45c-9.46,0-16.07,5.91-16.07,14.38s7.21,16.07,16.07,16.07,16.07-7.21,16.07-16.07-6.61-14.38-16.07-14.38Z"/>
    </g>
    <path class="cls-6" d="m54,67.56c-.5,0-1-.19-1.39-.56-.8-.77-.82-2.03-.06-2.83l6.13-6.38c.76-.79,2.03-.82,2.83-.06.8.77.82,2.03.06,2.83l-6.13,6.38c-.39.41-.92.61-1.44.61Z"/>
    <path class="cls-6" d="m61.61,69.06c-.53,0-1.05-.21-1.44-.61l-6.13-6.38c-.77-.8-.74-2.06.06-2.83.8-.76,2.06-.74,2.83.06l6.13,6.38c.77.8.74,2.06-.06,2.83-.39.37-.89.56-1.39.56Z"/>
    <path class="cls-6" d="m75.08,38.14c-.46,0-.92-.16-1.3-.48l-5.81-4.97c-.84-.72-.94-1.98-.22-2.82.72-.84,1.98-.94,2.82-.22l5.81,4.97c.84.72.94,1.98.22,2.82-.4.46-.96.7-1.52.7Z"/>
    <path class="cls-6" d="m68.69,38.78c-.53,0-1.05-.21-1.44-.62-.76-.8-.74-2.06.06-2.83l5.98-5.74c.8-.77,2.06-.74,2.83.06.76.8.74,2.06-.06,2.83l-5.98,5.74c-.39.37-.89.56-1.38.56Z"/>
  </g>
</svg>