<svg xmlns="http://www.w3.org/2000/svg" id="flatten_icons" data-name="flatten icons" viewBox="0 0 112 112"><defs><style>.cls-3,.cls-4,.cls-5{stroke-width:0}.cls-3{fill:#aad681}.cls-4{fill:#f4ece4}.cls-5{fill:#004241}</style></defs><path d="M0 0h112v112H0z" style="fill:none;stroke-width:0"/><path d="M95.51 46.65c6.37 18.42-5.39 44.04-28.11 51.9-16.6 5.75-44.35-6.21-50.72-24.62-6.37-18.42 3.43-38.52 26.15-46.39 22.72-7.86 46.31.69 52.69 19.11Z" class="cls-4"/><path d="M42.83 27.54c-17.31 5.99-27.11 19.08-27.99 33.12 2.47 2.71 6.39 5.09 12.49 6.62 13.51 3.38 21.13-2.05 29.95 3.12 5.56 3.26 14.12 3.6 19.3-10.54 2.96-8.08 10.49-14.57 16.39-18.64-8.75-14.59-29.79-20.73-50.14-13.69Z" style="stroke-width:0;fill:#d6809f"/><path d="M58.23 101.95c-16.69 0-37.73-10.86-43.45-27.37-3.33-9.64-2.52-19.85 2.3-28.76 4.93-9.12 13.84-16.28 25.09-20.18 23.73-8.21 48.51.91 55.23 20.34 6.46 18.67-4.72 45.92-29.35 54.45-2.95 1.02-6.29 1.51-9.82 1.51Zm1.65-75.33c-5.33 0-10.89.9-16.4 2.81C33.18 33 25.05 39.49 20.6 47.73c-4.28 7.91-5 16.98-2.03 25.55 6.14 17.75 33.21 28.57 48.18 23.39C89.22 88.9 99.47 64.2 93.63 47.31c-4.47-12.93-18.12-20.68-33.74-20.68Z" class="cls-5"/><path d="M39.36 39.94h-.17c-3.03 0-4.6-1.3-5.39-2.38-2.03-2.8-.83-6.76-.68-7.2a2.004 2.004 0 0 1 2.52-1.29c1.05.34 1.62 1.46 1.29 2.51-.25.79-.55 2.72.12 3.63.35.48 1.08.73 2.15.73h.16c8.67 0 14.18-1.57 14.24-1.59a2 2 0 0 1 1.12 3.84c-.24.07-6.07 1.75-15.36 1.75" class="cls-5"/><path d="M36.95 29.72s-2.4-3.8-2.4-7.37 3.83-2.44 3.83-2.44l4.07 2.44v-6.13s.48-2.79 2.88-3.96 3.88 2.07 3.88 2.07l2.35 3.29s5.47-.79 5.71 3.44-3.62 6.11-3.62 6.11-9.51 4.19-16.7 2.56Z" class="cls-3"/><path d="M40.58 32.09c-1.38 0-2.76-.12-4.08-.42-.52-.12-.97-.44-1.25-.88-.11-.18-2.7-4.34-2.7-8.44 0-2.05.91-3.17 1.67-3.74 1.84-1.38 4.26-.76 4.73-.62.16.05.32.12.46.2l1.04.63v-2.6c0-.11 0-.23.03-.34.24-1.41 1.35-4.15 3.97-5.42 1.08-.53 2.22-.6 3.29-.21 1.81.65 2.84 2.38 3.18 3.05l1.61 2.26c1.3 0 3.29.23 4.8 1.47 1.16.94 1.82 2.3 1.91 3.92.31 5.49-4.54 7.92-4.74 8.02-.4.18-7.21 3.14-13.94 3.14Zm-2.35-4.17c6.36.98 14.53-2.56 14.61-2.6.02-.02 2.59-1.36 2.43-4.17-.04-.63-.25-.89-.44-1.04-.73-.6-2.33-.62-2.99-.53-.73.1-1.47-.21-1.9-.82l-2.35-3.29c-.07-.1-.14-.22-.19-.33-.21-.45-.69-1.04-.99-1.15-.02 0-.06-.02-.19.04-1.2.58-1.64 1.96-1.75 2.38v5.92c0 .72-.39 1.39-1.01 1.74-.63.35-1.4.35-2.01-.03l-3.81-2.28c-.41-.07-.87-.05-1 .03 0 0-.07.14-.07.54 0 2.11 1.07 4.43 1.68 5.58Zm28.21 22.52c-.96 0-1.81-.7-1.97-1.68-.18-1.09.56-2.12 1.65-2.29.12-.02 11.9-2.03 21.57-10.58.83-.73 2.09-.65 2.82.17.73.83.65 2.09-.17 2.82-10.56 9.35-23.05 11.45-23.58 11.53-.11.02-.22.03-.32.03" class="cls-5"/><path d="M16.55 52s10.29 4.05 21.55 3.27" class="cls-3"/><path d="M35.13 57.37c-10.27 0-18.92-3.35-19.32-3.51a1.996 1.996 0 0 1-1.13-2.59c.4-1.03 1.56-1.53 2.59-1.13.1.04 10.03 3.88 20.68 3.14 1.11-.08 2.06.75 2.13 1.86.08 1.1-.75 2.06-1.86 2.13-1.05.07-2.09.11-3.11.11Z" class="cls-5"/><path d="M66.44 81.89c-5.86 1.03-14.92 1.99-23.55.35" class="cls-3"/><path d="M52.96 85.12c-3.4 0-6.95-.26-10.44-.92a2 2 0 0 1-1.59-2.34 2.014 2.014 0 0 1 2.34-1.59c8.26 1.57 16.97.68 22.83-.35 1.09-.19 2.12.54 2.32 1.62.19 1.09-.54 2.12-1.62 2.32-3.74.66-8.61 1.26-13.83 1.26Z" class="cls-5"/><path d="M16.67 73.93s7.54 2.84 10.65 3.08" class="cls-3"/><path d="M27.33 79.01h-.16c-3.3-.25-10.4-2.9-11.2-3.2-1.03-.39-1.56-1.54-1.17-2.58s1.54-1.56 2.58-1.17c2.03.76 7.79 2.78 10.1 2.96 1.1.08 1.93 1.05 1.84 2.15a2.004 2.004 0 0 1-1.99 1.85Z" class="cls-5"/><path d="M83.87 62.31s6.13-1.44 13.37-4.75" class="cls-3"/><path d="M83.86 64.31c-.91 0-1.73-.62-1.94-1.54-.25-1.07.41-2.15 1.49-2.4.06-.01 6.04-1.44 12.99-4.62 1-.46 2.19-.02 2.65.99.46 1 .02 2.19-.99 2.65-7.34 3.35-13.48 4.82-13.74 4.88-.15.04-.31.05-.46.05Z" class="cls-5"/><path d="M60.65 63.13c-.32 0-.51-.02-.56-.02-1.1-.11-1.9-1.08-1.8-2.18a2.01 2.01 0 0 1 2.16-1.8c.07 0 1.42.07 4.05-.55 1.07-.26 2.15.41 2.41 1.49a2.01 2.01 0 0 1-1.49 2.41c-2.39.57-3.98.66-4.77.66Z" class="cls-4"/></svg>