<?xml version="1.0" encoding="UTF-8"?>
<svg id="flatten_icons" data-name="flatten icons" xmlns="http://www.w3.org/2000/svg" viewBox="0 0 112 112">
  <defs>
    <style>
      .cls-1 {
        fill: none;
      }

      .cls-1, .cls-2, .cls-3, .cls-4, .cls-5, .cls-6 {
        stroke-width: 0px;
      }

      .cls-2 {
        fill: #e07873;
      }

      .cls-3 {
        fill: #aad681;
      }

      .cls-4 {
        fill: #ff8164;
      }

      .cls-5 {
        fill: #fff;
      }

      .cls-6 {
        fill: #004241;
      }
    </style>
  </defs>
  <rect class="cls-1" width="112" height="112"/>
  <g>
    <g>
      <path class="cls-4" d="m58.2,24.6c-2.78.6-5.4,1.53-7.85,2.73-2.73-.09-5.5.14-8.28.74-19.05,4.09-32.91,23.91-26.82,43.16,6.48,20.48,17.46,37.64,49.35,36.15,3.06-.14,7.79-1.48,10.49-2.94,27.06-14.56,29.33-32.64,25.28-51.49s-23.12-32.44-42.17-28.35Z"/>
      <path class="cls-2" d="m100.37,52.95c-1.36-6.34-4.24-11.95-8.14-16.52.23.81.45,1.63.62,2.46,4.05,18.85,1.77,36.93-25.28,51.49-2.7,1.45-7.43,2.79-10.49,2.94-20.21.94-32.01-5.61-39.6-15.74,6.81,17.54,18.6,31.13,47.12,29.8,3.06-.14,7.79-1.48,10.49-2.94,27.06-14.56,29.33-32.64,25.28-51.49Z"/>
      <path class="cls-6" d="m60.86,109.47c-31.27,0-41.59-18.92-47.52-37.64-2.88-9.1-1.72-18.84,3.28-27.44,5.45-9.37,14.57-16.04,25.03-18.28,2.7-.58,5.48-.84,8.27-.79,2.52-1.19,5.16-2.09,7.87-2.67h0c20.1-4.32,40.08,9.09,44.55,29.89,3.54,16.5,3.75,37.5-26.29,53.67-3.02,1.62-8,3.02-11.35,3.17-1.31.06-2.59.09-3.83.09Zm-11.63-80.16c-2.28,0-4.54.24-6.74.71-9.22,1.98-17.6,8.1-22.41,16.38-4.42,7.61-5.46,16.21-2.92,24.22,5.99,18.92,15.85,36.24,47.35,34.76,2.74-.13,7.16-1.36,9.64-2.7,27.54-14.82,27.73-33.24,24.28-49.31-4-18.64-21.86-30.67-39.8-26.82h0c-2.54.55-5.03,1.41-7.39,2.57-.29.14-.62.22-.94.2-.35-.01-.7-.02-1.05-.02Z"/>
      <path class="cls-6" d="m79.28,50.83c-.84,0-1.61-.53-1.9-1.36-6.44-19.11-26.91-20.14-27.11-20.14-1.1-.04-1.96-.97-1.92-2.08.04-1.1.98-1.98,2.08-1.92.23,0,23.44,1.17,30.75,22.86.35,1.05-.21,2.18-1.26,2.53-.21.07-.43.11-.64.11Z"/>
      <path class="cls-6" d="m49.2,28.53c-.66,0-1.3-.32-1.68-.91-6.95-10.72-3.72-23.09-3.58-23.61.29-1.07,1.39-1.69,2.45-1.41,1.07.29,1.7,1.38,1.41,2.45h0c-.03.11-2.88,11.21,3.07,20.4.6.93.34,2.17-.59,2.77-.34.22-.71.32-1.09.32Z"/>
      <g>
        <path class="cls-3" d="m45.56,15.86S34.46,1.21,10.06,27.33c0,0,23.05,3.63,35.49-11.47Z"/>
        <path class="cls-6" d="m16.33,29.73c-3.73,0-6.27-.38-6.58-.43-.73-.12-1.34-.62-1.58-1.32-.24-.7-.08-1.48.43-2.02,10.43-11.16,19.92-16.61,28.22-16.17,6.84.35,10.19,4.68,10.33,4.86.56.74.54,1.76-.05,2.48-8.91,10.82-22.66,12.6-30.77,12.6Zm-1.86-4.06c6.62.21,19.74-.67,28.31-9.7-1.18-.91-3.25-2.06-6.3-2.19-4.42-.19-11.72,1.82-22.02,11.89Z"/>
      </g>
      <g>
        <path class="cls-3" d="m47.09,14.24s.44-16.54,32.18-1.39c0,0-15.78,12.06-32.18,1.39Z"/>
        <path class="cls-6" d="m61.47,20.61c-4.8,0-10.11-1.21-15.47-4.7-.58-.38-.93-1.04-.91-1.73,0-.2.19-5.01,4.78-7.82,5.95-3.64,16.13-2.07,30.26,4.68.63.3,1.06.91,1.13,1.6.07.69-.22,1.37-.77,1.8-.12.09-8.26,6.17-19.02,6.17Zm-12.18-7.36c10.7,6.27,20.88,2.5,25.77-.13-14.34-6.25-20.55-4.87-23.04-3.38-1.73,1.03-2.44,2.51-2.73,3.51Z"/>
      </g>
    </g>
    <path class="cls-5" d="m28.71,55.73c-.15,0-.29-.02-.44-.05-1.08-.24-1.75-1.31-1.51-2.39,2.06-9.15,10.03-14.7,10.36-14.93.91-.62,2.16-.39,2.78.52.62.91.39,2.15-.52,2.78h0c-.07.05-7.02,4.92-8.73,12.5-.21.93-1.03,1.56-1.95,1.56Z"/>
  </g>
</svg>