<svg xmlns="http://www.w3.org/2000/svg" id="flatten_icons" data-name="flatten icons" viewBox="0 0 112 112"><defs><style>.cls-2,.cls-3,.cls-5,.cls-7,.cls-8{stroke-width:0}.cls-2{fill:#6eb77b}.cls-3{fill:#d1a788}.cls-5{fill:#aad681}.cls-7{fill:#e8d2a3}.cls-8{fill:#004241}</style></defs><path d="M0 0h112v112H0z" style="fill:none;stroke-width:0"/><path d="M41.05 73.42s-18.94-3.67-22.32-8.87l4.41-2.74S5.62 54.57 4.26 47.16l4.28-.39s-7.36-8.98-6.47-19.46c0 0 19.32-1.31 22.32-1.2l-1.61-4.14s23.72-1.91 27.63 5.12l2.8-6.8s23.21 12.59 20.66 36.3c-2.55 23.7-32.83 16.82-32.83 16.82Z" class="cls-5"/><path d="M50.42 76.36c-5.21 0-9.26-.87-9.78-.98-3.37-.66-19.94-4.13-23.59-9.74-.29-.45-.39-1-.28-1.52.12-.53.44-.98.9-1.26l1.23-.77C13.39 59.42 3.44 53.8 2.29 47.52c-.1-.55.03-1.12.37-1.57s.85-.73 1.41-.78l.87-.08C2.69 41.41-.56 34.69.08 27.14c.08-.98.87-1.76 1.86-1.83.65-.04 13.32-.9 19.56-1.14l-.57-1.47a1.99 1.99 0 0 1 .17-1.79c.34-.54.9-.88 1.53-.93 3.63-.29 20.05-1.31 27.09 3.56l1.65-4a1.997 1.997 0 0 1 2.8-.99c.24.13 24.36 13.52 21.7 38.27-.7 6.53-3.43 11.54-8.11 14.88-5.22 3.72-11.9 4.67-17.34 4.67ZM21.94 64.91c4 2.77 13.52 5.39 19.49 6.55.02 0 .04 0 .06.01.15.03 15.08 3.3 23.95-3.04 3.7-2.65 5.87-6.7 6.45-12.04 1.95-18.14-12.43-29.57-17.72-33.13l-1.9 4.61c-.29.71-.97 1.19-1.73 1.23-.77.05-1.49-.35-1.86-1.02-2.06-3.7-13.9-4.68-23.03-4.27l.62 1.59c.24.63.16 1.34-.24 1.88s-1.02.87-1.7.84c-2.14-.09-14.09.66-20.32 1.07.05 8.79 6.03 16.23 6.09 16.31.47.57.58 1.36.3 2.04-.29.68-.92 1.15-1.66 1.22l-1.55.14c2.88 4.18 11.28 8.81 16.73 11.06.69.29 1.17.94 1.23 1.68s-.3 1.47-.94 1.86l-2.26 1.4Z" class="cls-8"/><path d="M59.02 56.25c-.5 0-1.01-.19-1.4-.57-13.16-12.86-36.41-15.86-36.64-15.89a1.995 1.995 0 0 1-1.74-2.23c.13-1.1 1.13-1.87 2.23-1.74 1.01.12 24.81 3.18 38.95 17 .79.77.8 2.04.03 2.83-.39.4-.91.6-1.43.6" class="cls-2"/><path d="M40.13 53.22c-.67 0-1.33-.34-1.7-.95-.58-.94-.29-2.17.65-2.75l6.69-4.13-1.65-8.44c-.21-1.08.5-2.13 1.58-2.35 1.08-.21 2.13.5 2.35 1.58l1.91 9.79c.16.82-.2 1.65-.91 2.09l-7.87 4.86c-.33.2-.69.3-1.05.3" class="cls-2"/><path d="M14.95 80.64c0 4.42 4.27 7.68 4.27 7.68" class="cls-5"/><path d="M19.22 90.32c-.42 0-.85-.13-1.21-.41-.21-.16-5.05-3.92-5.05-9.27 0-1.1.9-2 2-2s2 .9 2 2c0 3.34 3.45 6.07 3.48 6.09.88.67 1.05 1.93.38 2.8-.39.52-.99.79-1.59.79Z" class="cls-8"/><path d="M83.23 18.64c-2-1.31-4.65-.95-6.24.84-5.47 6.16-17.24 20.28-17.75 28.49-.66 10.71-.75 31.19 12.86 34.45 13.62 3.26 26.86 4 31.55-6.2 4.69-10.21 3.87-21.25 1.8-33.67-1.57-9.43-15.57-19.57-22.22-23.91" style="stroke-width:0;fill:#ad866a"/><path d="M82.81 20.52c-2-1.31-4.65-.95-6.24.84l-.06.06c.89.85 1.9 1.55 3.01 1.85 1.73.48 3.67-.21 5.34-1.38-.74-.51-1.43-.97-2.06-1.38Z" class="cls-7"/><path d="M87.41 86.6c-5.32 0-10.93-1.07-15.77-2.23-10.88-2.6-15.73-14.89-14.39-36.52.53-8.58 11.66-22.29 18.25-29.7a6.795 6.795 0 0 1 8.83-1.19c7.92 5.16 21.45 15.31 23.1 25.26 2.24 13.46 2.77 24.53-1.96 34.83-3.37 7.33-10.43 9.54-18.07 9.54ZM80.6 19.86c-.78 0-1.55.33-2.11.96C68.02 32.6 61.57 42.8 61.24 48.11c-1.2 19.4 2.62 30.3 11.33 32.38 16.55 3.96 25.85 2.34 29.26-5.09 4.3-9.38 3.77-19.77 1.65-32.5-1.46-8.75-15.41-18.7-21.34-22.56-.48-.31-1.01-.46-1.54-.46Z" class="cls-8"/><path d="M73.06 73.48q-1.83.09-3.45.36c-4.84.78-6.39 5.41-2.52 7.6 1.42.8 3.09 1.4 5.05 1.73 10.66 1.78 21.12 2.41 27.43-1.08 3.55-1.96 2.9-6.01-1.1-7.23-6.87-2.1-18.28-1.73-25.41-1.37Z" class="cls-7"/><path d="M86.9 86.59c-4.26 0-9.26-.49-15.09-1.46-2.11-.35-4.03-1.01-5.71-1.96-2.34-1.32-3.53-3.6-3.11-5.94.49-2.73 2.96-4.83 6.3-5.37 1.17-.19 2.4-.32 3.67-.38 7.86-.4 19.12-.68 26.1 1.45 2.72.83 4.56 2.82 4.81 5.2.24 2.28-1 4.41-3.32 5.7-3.34 1.85-7.8 2.76-13.64 2.76ZM73.16 75.47c-1.12.06-2.21.17-3.23.33-1.86.3-2.85 1.29-3 2.13-.16.87.65 1.47 1.15 1.75 1.27.72 2.74 1.22 4.39 1.49 12.71 2.12 21.26 1.84 26.14-.86.88-.49 1.35-1.14 1.28-1.78-.08-.75-.84-1.44-2-1.79-6.37-1.95-17.17-1.66-24.73-1.28Zm-.1-2" class="cls-8"/><path d="M70.37 56.04c-1.04 0-1.91-.8-1.99-1.85-.87-11.68 3.76-20.06 3.96-20.41.54-.96 1.76-1.3 2.72-.76s1.3 1.76.76 2.72c-.04.08-4.23 7.72-3.46 18.15.08 1.1-.74 2.06-1.85 2.14h-.15Zm27.57 9.2a2 2 0 0 1-1.96-2.4c1.4-6.96-.5-12.98-.52-13.04a1.999 1.999 0 0 1 3.8-1.24c.09.28 2.26 7.04.64 15.07-.19.95-1.03 1.6-1.96 1.6ZM94.77 42.8c-.69 0-1.37-.36-1.74-1.01l-1.02-1.78a2.001 2.001 0 1 1 3.48-1.98l1.02 1.78a2 2 0 0 1-1.74 2.99M82.45 66.5c-.99 0-1.85-.74-1.98-1.75-.69-5.36-.46-20.16-.45-20.79.02-1.09.91-1.97 2-1.97h.03c1.1.02 1.98.93 1.97 2.03 0 .15-.24 15.14.41 20.21.14 1.09-.63 2.1-1.73 2.24-.09.01-.17.02-.26.02Z" class="cls-3"/><path d="M18.69 54.1c-7.1 4.68-7.07 10.26-10.42 17.7s-2.64 18.26 2.64 20.15 13.33 3.41 18.9.78c0 0 16.01 1.34 21.44-5.87s-4.17-23.54-12.1-28.1-11.69-8.18-11.69-8.18l-8.76 3.53Z" class="cls-7"/><path d="M22.6 96.14c-5.36 0-10.44-1.61-12.38-2.31-2.02-.73-3.64-2.4-4.68-4.85-2.06-4.85-1.69-12.26.9-18.01.86-1.92 1.49-3.71 2.1-5.44 1.69-4.79 3.28-9.31 9.04-13.11.11-.07.23-.14.36-.19l8.77-3.53c.73-.29 1.57-.13 2.13.42.03.03 3.72 3.53 11.3 7.89 6.17 3.55 12.72 13.09 14.3 20.84.85 4.16.3 7.68-1.6 10.2-5.49 7.29-19.69 6.87-22.67 6.69-2.37 1.02-5 1.38-7.57 1.38Zm-2.98-40.26c-4.5 3.03-5.68 6.38-7.31 10.99-.61 1.73-1.3 3.68-2.23 5.75-2.1 4.66-2.47 11.02-.86 14.8.41.97 1.15 2.22 2.35 2.64 5.27 1.89 12.61 3.11 17.37.85.32-.15.67-.21 1.02-.19 4.15.34 15.78.1 19.67-5.08 1.5-1.99 1.3-4.9.87-6.99-1.36-6.67-7.15-15.17-12.38-18.17-5.83-3.36-9.47-6.22-11.09-7.6l-7.43 2.99Z" class="cls-8"/><path d="M16.54 72c-1.1 0-2-.9-2-2 0-3.64 2.31-5.65 3.68-6.27a2 2 0 0 1 2.64 1c.45 1 .01 2.16-.97 2.63-.16.08-1.35.76-1.35 2.63 0 1.1-.9 2-2 2Z" style="stroke-width:0;fill:#fff"/><path d="M29.56 82.64c-.6 0-1.19-.26-1.58-.77-.68-.87-.52-2.13.35-2.81 1.84-1.43 1.35-6.36.82-8.52-.26-1.07.4-2.16 1.47-2.42s2.16.4 2.42 1.47c.23.94 2.1 9.24-2.25 12.63-.36.28-.8.42-1.23.42" class="cls-3"/><path d="M54.3 67.57s5.55 16.72 24.5 17.03 24.03-2.08 31.2-11.4c0 0-4.95-5.41-12.64-5.63 0 0-1.92-10.07-10.24-10 0 0-7.4 3.29-7.63 10 0 0-8.71-10.69-14.59-11.35 0 0-1.42 9.73 0 11.35 0 0-8.75-1.86-10.6 0" class="cls-5"/><path d="M81.83 86.63c-.98 0-2 0-3.07-.03-20.14-.33-26.3-18.22-26.36-18.4-.24-.72-.05-1.51.48-2.04 1.73-1.74 5.91-1.6 9.42-1.09-.15-2.23.06-5.28.62-9.14a2 2 0 0 1 2.2-1.7c4.57.51 10.1 5.68 13.32 9.12 2.23-5.05 7.58-7.48 7.86-7.61.25-.11.52-.17.8-.17h.1c6.93 0 10.48 5.94 11.74 10.11 7.56.83 12.32 5.94 12.53 6.17.66.72.7 1.8.11 2.57-7.41 9.64-13.29 12.21-29.75 12.21M56.97 68.77c1.98 4.1 8.05 13.61 21.86 13.84 17.44.29 22.38-1.73 28.44-9.17-1.78-1.43-5.34-3.72-9.97-3.86-.94-.03-1.73-.7-1.91-1.62-.06-.33-1.65-8.07-7.82-8.36-1.33.71-5.92 3.46-6.08 8.06-.03.83-.57 1.56-1.36 1.83s-1.66.01-2.19-.63c-2.67-3.28-7.65-8.29-11.35-10.03-.38 3.49-.43 6.72-.09 7.56a1.997 1.997 0 0 1-2.01 3.16c-2.77-.59-5.78-.88-7.52-.76Zm9.55-2.36" class="cls-8"/><path d="M78.28 96.14c-.6 0-1.2-.27-1.59-.79-.67-.88-.5-2.13.38-2.8 3.83-2.92 4.83-5.2 5-6.59.17-1.41-.49-2.24-.52-2.27-.74-.82-.66-2.07.16-2.81s2.1-.66 2.84.16c.19.21 1.8 2.09 1.52 5.19-.3 3.21-2.51 6.41-6.57 9.51-.36.28-.79.41-1.21.41Z" class="cls-8"/></svg>