<?xml version="1.0" encoding="UTF-8"?>
<svg id="flatten_icons" data-name="flatten icons" xmlns="http://www.w3.org/2000/svg" viewBox="0 0 112 112">
  <defs>
    <style>
      .cls-1 {
        fill: none;
      }

      .cls-1, .cls-2, .cls-3, .cls-4, .cls-5 {
        stroke-width: 0px;
      }

      .cls-2 {
        fill: #d69f72;
      }

      .cls-3 {
        fill: #ad866a;
      }

      .cls-4 {
        fill: #e8d2a3;
      }

      .cls-5 {
        fill: #004241;
      }
    </style>
  </defs>
  <rect class="cls-1" width="112" height="112"/>
  <g>
    <g>
      <path class="cls-3" d="m94.95,15.92l-.03-.23c-.14-1.29-1.69-1.88-2.65-1h0c-2.19,2-5.09,3.09-8.05,2.86-12.63-.99-24.91,6.74-28.9,19.67-4.08,13.23-2.85,30.35,13.04,38.38,20.4,10.31,34.05-5.18,39.79-20.22,4.5-11.77.5-24.7-8.97-32.04-2.35-1.82-3.91-4.47-4.23-7.42Z"/>
      <path class="cls-5" d="m81.12,80.95c-4.4,0-8.97-1.19-13.67-3.56-7.73-3.91-12.93-10.31-15.04-18.53-1.72-6.68-1.36-14.58,1-22.23,4.17-13.52,16.9-22.19,30.97-21.08,2.33.18,4.72-.67,6.54-2.34,1-.92,2.42-1.19,3.69-.71,1.27.48,2.16,1.62,2.3,2.97l.03.23h0c.26,2.37,1.49,4.52,3.47,6.06,10.49,8.13,14.35,21.93,9.61,34.34-4.38,11.48-11.77,19.95-20.26,23.23-2.79,1.08-5.68,1.62-8.64,1.62Zm.86-61.49c-11.34,0-21.34,7.31-24.75,18.35-3.86,12.51-2.73,28.54,12.03,36,6.81,3.44,13.22,4.04,19.06,1.78,10.57-4.09,16.09-16,17.97-20.93,4.1-10.75.76-22.7-8.33-29.75-2.69-2.09-4.43-5-4.92-8.24-2.55,2.08-5.78,3.11-8.97,2.87-.7-.06-1.4-.08-2.09-.08Z"/>
    </g>
    <g>
      <path class="cls-3" d="m79.89,71.31c-4.46,2.03-9.16,2.95-13.13,3.43"/>
      <path class="cls-5" d="m66.76,76.74c-1,0-1.86-.75-1.98-1.76-.13-1.1.65-2.09,1.75-2.23,4.92-.6,9.03-1.66,12.54-3.26,1-.46,2.19-.01,2.65.99.46,1.01.01,2.19-.99,2.65-3.89,1.77-8.38,2.95-13.72,3.59-.08,0-.16.01-.24.01Z"/>
    </g>
    <g>
      <path class="cls-3" d="m92.27,14.7s-1.22,7.53,1.23,9.8c1.48,1.37,3.85,7.78,3.69,16.26-.02,1.21-.76,2.46-.9,3.75-.07.69.5,1.39.39,2.1-.31,2.02-.79,4.11-1.45,6.24s-2.19,3.63-3.27,5.8c-.49.98-.37,2.57-.94,3.43-1.76,2.63-3.87,4.72-6.18,6.38"/>
      <path class="cls-5" d="m84.85,70.46c-.62,0-1.23-.29-1.62-.83-.65-.9-.44-2.15.45-2.79,2.26-1.63,4.17-3.6,5.68-5.87.07-.14.16-.66.21-1,.11-.69.24-1.48.6-2.21.5-1,1.08-1.86,1.59-2.63.68-1.01,1.26-1.89,1.56-2.87.59-1.9,1.05-3.85,1.36-5.83-.02-.09-.06-.17-.09-.26-.15-.44-.38-1.1-.29-1.87.09-.81.33-1.54.54-2.19.18-.54.34-1.04.35-1.39.15-8.11-2.15-13.92-3.05-14.76-3.08-2.86-2.08-10.15-1.84-11.59.18-1.09,1.2-1.83,2.29-1.65,1.09.18,1.83,1.2,1.66,2.29-.49,3.06-.36,7.11.62,8.02,2.2,2.05,4.48,9.42,4.33,17.76-.02.95-.3,1.8-.55,2.56-.15.46-.29.89-.35,1.26.02.08.06.17.09.25.16.48.41,1.2.28,2.05-.34,2.21-.85,4.41-1.52,6.53-.48,1.53-1.28,2.73-2.06,3.9-.49.73-.95,1.42-1.34,2.2-.09.18-.17.69-.23,1.06-.13.83-.28,1.77-.83,2.59-1.78,2.67-4.02,4.98-6.67,6.89-.35.25-.76.38-1.17.38Z"/>
    </g>
    <g>
      <path class="cls-3" d="m61.95,57.94c3.59-1.91,5.86-3.95,7.94-4.44s2.15-3.51,3.44-5.5c.24-.37.52-.69.82-.96,1.79-1.61,2.92-3.83,2.92-6.24v-.27"/>
      <path class="cls-5" d="m61.95,59.94c-.72,0-1.41-.39-1.77-1.06-.52-.98-.15-2.19.83-2.7,1.39-.74,2.6-1.52,3.67-2.21,1.71-1.1,3.18-2.05,4.75-2.42.3-.07.72-1.22.97-1.91.31-.86.67-1.84,1.25-2.73.32-.5.71-.95,1.16-1.36,1.46-1.31,2.26-3,2.26-4.76v-.27c0-1.1.9-2,2-2s2,.9,2,2v.27c0,2.86-1.31,5.68-3.58,7.73-.19.17-.35.36-.48.56-.33.51-.58,1.2-.85,1.92-.6,1.63-1.41,3.86-3.81,4.43-.9.21-2.1.99-3.5,1.89-1.13.73-2.42,1.56-3.96,2.38-.3.16-.62.23-.94.23Z"/>
    </g>
    <g>
      <path class="cls-3" d="m68.38,30.94c-1.32,1.46-.19,4.69,1.89,4.02s3.06-3.31,3.06-3.31"/>
      <path class="cls-5" d="m69.73,37.05c-1.24,0-2.4-.64-3.14-1.79-1.14-1.77-1.01-4.2.3-5.66.74-.82,2.01-.88,2.83-.14.82.74.88,2,.14,2.82-.09.12-.06.46.02.68.75-.4,1.37-1.5,1.58-2.02.39-1.03,1.54-1.55,2.58-1.16,1.03.39,1.55,1.53,1.17,2.56-.14.37-1.4,3.59-4.33,4.52-.38.12-.77.18-1.15.18Z"/>
    </g>
    <g>
      <path class="cls-3" d="m91.03,34.11s-3.56,2.09-3.56,4.26-.19,4.63-.76,6.14-1.86,3.5-1.86,3.5"/>
      <path class="cls-5" d="m84.85,50c-.37,0-.75-.11-1.09-.33-.92-.6-1.19-1.84-.58-2.77.33-.5,1.27-2.04,1.67-3.11.39-1.05.63-3.08.63-5.44,0-3.16,3.78-5.54,4.54-5.98.95-.56,2.18-.24,2.74.71.56.95.24,2.18-.71,2.74-1.38.82-2.57,2.08-2.57,2.53,0,2.05-.15,4.89-.88,6.84-.63,1.67-1.92,3.67-2.06,3.89-.38.59-1.02.91-1.68.91Z"/>
    </g>
    <g>
      <line class="cls-3" x1="77.64" y1="60.96" x2="77.07" y2="61.52"/>
      <path class="cls-5" d="m77.07,63.52c-.51,0-1.02-.2-1.42-.59-.78-.78-.78-2.05,0-2.83l.56-.56c.78-.78,2.05-.78,2.83,0s.78,2.05,0,2.83l-.56.56c-.39.39-.9.58-1.41.58Z"/>
    </g>
    <g>
      <path class="cls-3" d="m104.84,29.26s.92,9.67,0,11.8-1.11,5.31-1.11,5.31"/>
      <path class="cls-5" d="m103.73,48.37s-.08,0-.12,0c-1.1-.07-1.94-1.01-1.88-2.11.02-.36.24-3.61,1.27-5.99.42-1.06.26-6.45-.16-10.81-.1-1.1.7-2.08,1.8-2.18,1.1-.09,2.08.7,2.18,1.8.29,3.06.86,10.44-.16,12.78-.64,1.47-.9,3.84-.95,4.64-.06,1.06-.95,1.88-1.99,1.88Z"/>
    </g>
    <g>
      <path class="cls-2" d="m14.6,28.18l-.24-.13c-1.36-.71-2.95.42-2.72,1.94h0c.52,3.46-.33,7.02-2.5,9.76-9.29,11.7-9.8,28.81.22,41.23,10.25,12.7,27.81,22.77,46.13,12.51,23.52-13.17,17.35-36.72,6.42-52.25-8.56-12.15-23.84-16.75-37.26-12.32-3.33,1.1-6.94.88-10.04-.74Z"/>
      <path class="cls-5" d="m39.93,99.71c-3.73,0-7.49-.66-11.2-1.97-7.61-2.7-15.04-8.2-20.93-15.5-10.37-12.85-10.47-30.83-.23-43.73,1.78-2.24,2.54-5.24,2.09-8.22-.22-1.45.39-2.88,1.58-3.73,1.19-.85,2.75-.96,4.04-.28l.24.12s0,0,0,0c2.58,1.35,5.59,1.57,8.49.61,14.71-4.85,30.59.4,39.52,13.07,8.29,11.77,11.69,24.46,9.34,34.84-1.92,8.45-7.44,15.28-16.41,20.31-5.31,2.97-10.89,4.47-16.53,4.47ZM13.65,29.94c.54,3.99-.53,8.01-2.95,11.05-9.06,11.42-8.98,27.35.21,38.73,9.79,12.13,26.39,21.66,43.6,12.02,7.94-4.45,12.81-10.4,14.46-17.7,2.99-13.17-5.09-26.52-8.71-31.65-7.91-11.22-21.97-15.88-35-11.57-3.93,1.3-8.05.99-11.6-.87h-.02Z"/>
    </g>
    <g>
      <path class="cls-4" d="m24.15,50.13s5.53,7.63,6.6,9.37c3.26,5.3,2.02,7.72,7.75,12.19,5.73,4.46,10.76,11.8,9.31,13.67s-8.51,6.57-13.31,1.45c0,0-5.75,1.71-10.04-2.7s-3.41-8.22-2.45-9.11c0,0-2.95,1.18-6.29-.48s-6.09-8.36-3.04-11.08c0,0,1.63-1.74,3.75-2.22,0,0,4.09-3.41-1.14-9.41-2.75-3.15,2.99-6.03,8.87-1.68Z"/>
      <path class="cls-5" d="m39.73,91.12c-2.19,0-4.19-.73-5.85-2.14-2.2.34-6.99.5-10.86-3.47-3.33-3.42-3.83-6.51-3.81-8.11-1.28-.03-2.8-.3-4.38-1.08-2.65-1.31-4.92-4.79-5.39-8.28-.34-2.49.32-4.63,1.84-6.03.37-.38,1.94-1.89,4.09-2.57.57-.72,1.51-2.75-1.6-6.31-1.55-1.77-1.62-3.93-.17-5.49,2.1-2.28,7.07-2.57,11.74.89.16.12.31.27.43.43.23.31,5.59,7.71,6.68,9.49,1.25,2.03,1.88,3.65,2.44,5.09.94,2.42,1.57,4.03,4.83,6.57,5.02,3.91,12.54,12.76,9.66,16.47-1.33,1.72-5.17,4.34-9.19,4.53-.16,0-.31.01-.47.01Zm-5.24-6.31c.55,0,1.08.22,1.47.63,1.13,1.2,2.45,1.75,4.05,1.67,2.64-.12,5.19-1.9,6.05-2.79-.15-1.65-3.71-7.11-8.79-11.06-4.13-3.22-5.09-5.67-6.1-8.27-.52-1.34-1.06-2.72-2.12-4.44-.81-1.32-4.67-6.7-6.33-8.98-2.59-1.82-4.61-1.69-5.19-1.6-.48.07-.77.22-.91.31.03.05.08.13.17.22,2.28,2.61,3.33,5.2,3.13,7.69-.23,2.84-2.01,4.4-2.22,4.57-.24.2-.53.34-.84.41-1.22.28-2.39,1.28-2.74,1.65-.04.04-.08.08-.13.12-.74.66-.69,1.89-.6,2.56.29,2.12,1.75,4.51,3.19,5.22,2.46,1.21,4.6.44,4.69.4.89-.33,1.91,0,2.41.82.5.81.37,1.86-.33,2.51-.19.29-.78,2.86,2.52,6.24,3.37,3.45,7.86,2.22,8.05,2.17.18-.05.37-.08.55-.08Z"/>
    </g>
    <g>
      <path class="cls-4" d="m29.92,46.06s1.31,6.09,6.6,9.37c5.29,3.28,8.62,3.49,10.89,10.38s5.47,15.12,7.72,14.38,9.05-5.8,5.85-12.04c0,0,3.55-4.83.84-10.36s-6.59-5.98-7.75-5.37c0,0,2.1-2.38,1.67-6.09s-5.82-8.55-9.41-6.59c0,0-2.19.95-3.36,2.78,0,0-.49-3.64-2.17-5.28-.84-.82-1.68-.78-2.73-.43-2.57.84-5.31,1.07-7.94.44-3.21-.77-1.96,3.04-.22,8.81Z"/>
      <path class="cls-5" d="m54.71,82.27c-2.48,0-5.06-3.31-9.2-15.83-1.53-4.64-3.38-5.63-6.75-7.44-.98-.53-2.09-1.12-3.29-1.87-5.64-3.5-7.27-9.68-7.48-10.55l-.14-.47c-1.55-5.12-2.49-8.21-.78-10.01.58-.61,1.66-1.25,3.54-.8,2.12.51,4.49.37,6.85-.4.78-.26,2.86-.94,4.75.9.82.8,1.41,1.88,1.83,2.94.65-.43,1.19-.7,1.42-.8,1.83-.96,4.06-.86,6.3.29,3.12,1.62,5.64,4.92,5.98,7.86.2,1.76-.06,3.28-.46,4.49,1.51.52,4.26,2.03,6.35,6.31,2.43,4.98.67,9.44-.39,11.39.82,2.19.79,4.47-.12,6.67-1.53,3.72-5.3,6.46-7.36,7.13-.35.11-.69.18-1.04.18Zm-22.83-36.64c.01.05,1.23,5.32,5.7,8.1,1.1.68,2.1,1.22,3.08,1.74,3.56,1.91,6.63,3.56,8.66,9.71,3.18,9.64,5,12.24,5.64,12.91,1.21-.61,3.51-2.36,4.46-4.66.61-1.48.54-2.91-.21-4.38-.35-.67-.28-1.49.17-2.1.11-.15,2.78-3.97.66-8.3-2.08-4.25-4.69-4.55-5.12-4.44-.85.45-1.86.2-2.46-.56-.59-.76-.52-1.85.12-2.58.05-.06,1.5-1.81,1.18-4.53-.19-1.6-1.94-3.78-3.84-4.77-.61-.31-1.75-.77-2.62-.3-.05.03-.11.06-.17.08-.45.2-1.79.96-2.46,2.02-.45.71-1.3,1.06-2.12.88-.82-.18-1.44-.85-1.55-1.69-.13-.97-.7-3.25-1.58-4.12-.09-.08-.13-.1-.13-.11,0,0-.13,0-.58.14-2.88.94-5.81,1.15-8.51.6.18,1.3.89,3.66,1.49,5.64l.16.53s.03.1.04.15h0Z"/>
    </g>
    <g>
      <path class="cls-4" d="m47.13,50.33s5.75-1.58,7.19,5.75"/>
      <path class="cls-5" d="m54.32,58.09c-.94,0-1.77-.66-1.96-1.62-.37-1.88-1.08-3.16-2.1-3.79-1.21-.75-2.59-.42-2.6-.42-1.06.29-2.17-.33-2.46-1.4-.29-1.06.33-2.17,1.4-2.46.31-.08,3.09-.78,5.77.87,2.01,1.24,3.33,3.4,3.92,6.42.21,1.08-.49,2.13-1.58,2.35-.13.03-.26.04-.39.04Z"/>
    </g>
    <g>
      <path class="cls-4" d="m22.82,66.59s4.28,3.3-.81,8.41"/>
      <path class="cls-5" d="m22.01,77c-.51,0-1.02-.19-1.41-.58-.78-.78-.79-2.04,0-2.83,1.3-1.3,1.96-2.55,1.91-3.59-.05-1.11-.89-1.82-.93-1.84-.84-.69-.98-1.95-.3-2.8.68-.85,1.91-1.02,2.77-.35.23.18,2.26,1.82,2.45,4.69.15,2.26-.88,4.52-3.06,6.71-.39.39-.9.59-1.42.59Z"/>
    </g>
    <g>
      <path class="cls-4" d="m54.33,66.01s4.96-.62,6.65,2.14"/>
      <path class="cls-5" d="m60.98,70.15c-.67,0-1.33-.34-1.71-.95-.76-1.24-3.5-1.34-4.71-1.2-1.1.13-2.09-.65-2.22-1.75s.64-2.09,1.74-2.22c.64-.08,6.3-.67,8.6,3.07.58.94.28,2.17-.66,2.75-.33.2-.69.3-1.05.3Z"/>
    </g>
    <g>
      <path class="cls-4" d="m32.89,80.24s-.52,3.76,1.61,6.57"/>
      <path class="cls-5" d="m34.5,88.81c-.6,0-1.2-.27-1.59-.79-2.61-3.42-2.02-7.87-2-8.05.15-1.09,1.16-1.86,2.26-1.71,1.09.15,1.85,1.16,1.71,2.25,0,.08-.35,3.02,1.22,5.09.67.88.5,2.13-.38,2.8-.36.28-.79.41-1.21.41Z"/>
    </g>
  </g>
</svg>