<svg xmlns="http://www.w3.org/2000/svg" id="flatten_icons" data-name="flatten icons" viewBox="0 0 112 112"><defs><style>.cls-6,.cls-7,.cls-9{stroke-width:0}.cls-6{fill:#aad681}.cls-7{fill:#b58055}.cls-9{fill:#004241}</style></defs><path d="M0 0h112v112H0z" style="fill:none;stroke-width:0"/><path d="M2.75 84.62s13.61 19.13 43.74-.42c0 0-11-20.38-43.74.42" class="cls-6"/><path d="M21.59 94.94c-13.7 0-20.36-9.03-20.46-9.16-.32-.45-.44-1.01-.33-1.54.11-.54.43-1.01.89-1.3 13.08-8.32 24.46-11.3 33.81-8.86 8.99 2.34 12.61 8.89 12.76 9.17.49.92.2 2.06-.67 2.63-10.48 6.8-19.12 9.07-25.99 9.07ZM5.83 85.07c3.93 3.81 15.92 11.95 37.82-1.45-1.43-1.73-4.36-4.46-9.27-5.71-7.76-1.98-17.36.43-28.55 7.15Zm-3.07-.45" class="cls-9"/><path d="M2 58.42s4.2 23.1 39.78 18.19c0 0-1.3-23.13-39.78-18.19" class="cls-6"/><path d="M32.45 79.28C4.12 79.28.07 59 .03 58.78c-.1-.54.03-1.1.35-1.54s.82-.73 1.36-.8c15.37-1.97 26.94.16 34.37 6.33 7.14 5.94 7.64 13.41 7.66 13.72.06 1.04-.69 1.95-1.72 2.09-3.48.48-6.67.7-9.6.7M4.59 60.13c1.94 5.12 9.34 17.58 34.85 14.75-.56-2.17-2.06-5.89-5.97-9.1-6.19-5.09-15.9-6.98-28.89-5.65ZM2 58.42" class="cls-9"/><path d="M14.75 36.73S8.98 59.49 43.38 69.79c0 0 8.42-21.58-28.63-33.06" class="cls-6"/><path d="M43.38 71.79c-.19 0-.38-.03-.57-.08-35.83-10.74-30.06-35.23-30-35.48.13-.53.48-.99.96-1.25.48-.27 1.05-.33 1.57-.17 14.81 4.59 24.44 11.33 28.64 20.04 4.03 8.37 1.38 15.37 1.27 15.66-.31.79-1.06 1.27-1.86 1.27ZM16.39 39.36c-.36 5.46 1.19 19.87 25.58 27.89.39-2.21.57-6.21-1.65-10.76-3.52-7.2-11.56-12.95-23.93-17.13" class="cls-9"/><path d="M108.46 61.21c-4.4 8.51-10.65 17.12-18.35 23.34-1.39 1.12-2.33 2.41-3.81 3.36-.59.38-1.67.49-2.27.84-7.28 4.2-15.58 6.15-24.65 4.22-.81-.17-1.38-.86-2.21-1.1s-2.21.45-3.08.13c-1.69-.62-3.16-1.85-4.9-2.75-12.43-6.42-18.09-16.25-19.54-27-.12-.91.52-2.06.46-2.98-.12-1.74-.87-3.27-.8-5.04.43-10.23 3.93-20.73 8.49-29.56" style="stroke-width:0;fill:#c49469"/><path d="M87.59 63.5c-1.93 2.84.75.72-.25 2.97-.33.75.56 2.76.13 3.48-.82 1.4 2.59 2.46.89 3.84-1.44 1.16-.45 2.74-1.99 3.73-.61.39-1.74.51-2.36.87-2.61 1.51-5.35 2.74-8.21 3.62-1.05.32-.9 1.72-1.98 1.94-.58.12-2.37-.89-2.96-.8-3.98.62-8.15.55-12.49-.37-.85-.18-1.44-.9-2.3-1.14-.89-.25-2.3.46-3.2.14-1.76-.64-3.29-1.93-5.1-2.86-3.7-1.91-7.34-2.4-9.95-4.84 0 0-.44-2.63-.89-3.1-3.1-3.23-5.38-6.81-6.96-10.63-.16.65-.39 1.32-.31 1.9 1.45 10.75 7.11 20.58 19.54 27 1.74.9 3.21 2.14 4.9 2.75.87.31 2.23-.38 3.08-.13.83.24 1.4.93 2.21 1.1 9.07 1.93 17.37-.02 24.65-4.22.6-.35 1.68-.46 2.27-.84 1.48-.95 2.43-2.24 3.81-3.36 7.7-6.22 13.95-14.83 18.35-23.34L87.6 63.5Z" style="stroke-width:0;fill:#af7152"/><path d="M66.39 95.72c-2.47 0-4.95-.26-7.44-.79-.78-.17-1.38-.55-1.81-.83-.16-.11-.35-.22-.47-.28-.15.01-.42.06-.62.1-.76.14-1.7.32-2.66-.03-1.22-.44-2.28-1.11-3.3-1.76-.63-.4-1.22-.77-1.84-1.09-11.96-6.18-18.89-15.77-20.6-28.51-.12-.87.1-1.68.27-2.33.07-.26.17-.65.17-.78-.04-.59-.19-1.21-.35-1.86-.24-.99-.51-2.12-.46-3.39.4-9.5 3.49-20.29 8.71-30.39.51-.98 1.71-1.37 2.7-.86.98.51 1.37 1.71.86 2.69-4.96 9.59-7.9 19.79-8.27 28.72-.03.72.15 1.45.35 2.29.18.75.38 1.6.45 2.52.05.77-.13 1.47-.3 2.08-.07.26-.17.65-.17.79 1.53 11.34 7.75 19.92 18.47 25.47.77.4 1.47.84 2.14 1.27.84.54 1.64 1.04 2.42 1.34.15 0 .46-.06.66-.1.68-.13 1.52-.28 2.38-.04.68.19 1.19.52 1.6.79.16.1.4.26.48.28 7.91 1.68 15.72.33 23.23-4 .5-.29 1.05-.45 1.54-.58.22-.06.56-.16.67-.22.68-.43 1.25-1 1.91-1.66.52-.51 1.06-1.04 1.7-1.56 6.75-5.44 13.08-13.51 17.83-22.71a2.003 2.003 0 1 1 3.56 1.84c-3.54 6.85-9.69 16.57-18.87 23.98-.49.4-.94.84-1.41 1.3-.75.74-1.54 1.51-2.58 2.19-.56.36-1.18.53-1.72.69-.21.06-.54.15-.64.21-6.03 3.48-12.27 5.24-18.62 5.24Z" class="cls-9"/><path d="M109.23 59.7c-2.61 5.05-11.4 6.13-22.52 3.6-1.89-.43-3.35-1.94-5.36-2.57-2.3-.73-5.17-.63-7.56-1.63s-4.83-2.13-7.27-3.39-4.77-2.59-6.97-3.97c-.93-.58-1.58-1.65-2.46-2.25-1.21-.82-2.63-1.17-3.74-2.01-4.17-3.15-7.66-6.42-10.26-9.59-.87-1.06-1.39-2.59-2.05-3.62-2.87-4.43-4.05-8.03-2.46-11.1 1.04-2.02 3.08-3.41 5.85-4.18.92-.26 2.4 1.02 3.48.9 1.44-.16 2.54-1.68 4.22-1.61 2.28.1 4.77.42 7.4.94 1.13.23 2.54 0 3.73.32 5.73 1.48 11.99 3.87 18.29 7.13 2.44 1.26 4.51 3.08 6.71 4.48 5.43 3.44 10.09 7.16 13.69 10.83 1.25 1.27 1.63 2.77 2.62 4.02.54.69 1.78 1.14 2.23 1.82 3.06 4.55 4.09 8.74 2.46 11.89Z" style="stroke-width:0;fill:#fff"/><path d="M97.27 66.64c-3.24 0-6.93-.46-11-1.38-1.31-.3-2.4-.95-3.36-1.53-.74-.44-1.43-.86-2.16-1.09-.85-.27-1.87-.42-2.95-.57-1.57-.23-3.2-.46-4.78-1.12-2.48-1.03-4.98-2.2-7.42-3.46-2.45-1.27-4.84-2.63-7.11-4.05-.7-.44-1.23-1-1.7-1.5-.3-.32-.59-.63-.82-.79-.43-.29-.96-.53-1.51-.79-.73-.33-1.55-.71-2.32-1.29-4.28-3.23-7.85-6.57-10.6-9.92-.66-.81-1.13-1.75-1.53-2.57-.23-.47-.45-.91-.65-1.23-2.42-3.73-4.89-8.59-2.56-13.1 1.29-2.49 3.67-4.23 7.09-5.19 1.16-.32 2.22.14 3.07.52.25.11.6.27.78.31.23-.06.61-.28.95-.48.84-.5 2-1.19 3.52-1.12 2.39.1 4.98.43 7.7.98.34.07.83.08 1.33.09.77.01 1.63.03 2.5.25 6.03 1.56 12.5 4.08 18.71 7.29 1.63.84 3.07 1.88 4.46 2.89.83.6 1.61 1.17 2.41 1.67 5.44 3.45 10.3 7.29 14.04 11.11.92.93 1.44 1.92 1.91 2.78.29.54.54 1.01.85 1.4.08.09.41.31.63.45.58.38 1.23.8 1.69 1.49 4.56 6.79 3.92 11.32 2.58 13.92-2.05 3.97-6.87 6.02-13.74 6.02ZM44.72 20.99c-2.18.65-3.65 1.69-4.38 3.1-1.08 2.09-.35 4.9 2.37 9.09.33.51.61 1.08.88 1.63.33.67.67 1.35 1.04 1.81 2.51 3.06 5.94 6.27 9.92 9.27.41.31.98.57 1.57.84.65.29 1.38.63 2.09 1.11.61.41 1.08.92 1.5 1.37.33.35.64.68.9.84 2.18 1.37 4.48 2.67 6.83 3.89a95 95 0 0 0 7.12 3.32c1.11.46 2.42.65 3.81.85 1.19.17 2.42.35 3.59.72s2.15.96 3.01 1.47c.81.48 1.51.9 2.19 1.06 10.31 2.35 18.27 1.34 20.3-2.57 1.2-2.32.37-5.82-2.34-9.85-.05-.04-.35-.24-.56-.37-.53-.34-1.12-.73-1.59-1.33-.52-.67-.9-1.37-1.23-1.98-.39-.72-.72-1.35-1.24-1.87-3.54-3.6-8.15-7.25-13.33-10.54-.9-.57-1.77-1.2-2.61-1.81-1.27-.92-2.58-1.87-3.95-2.58-5.95-3.08-12.13-5.49-17.87-6.97-.41-.11-.97-.12-1.57-.13-.66-.01-1.35-.02-2.05-.16-2.52-.51-4.91-.81-7.09-.91-.34 0-.79.25-1.31.56-.68.41-1.53.91-2.6 1.03-1.06.12-2.01-.3-2.78-.64-.19-.08-.45-.2-.62-.26Zm64.52 38.72" class="cls-9"/><path d="M101.43 55.06c-1.38 2.68-6.15 2.64-12.93 1.16-2.39-.52-4.74-1.76-7.48-2.74-1.86-.67-4.29-.47-6.25-1.34-.63-.28-1.27-.57-1.91-.87-1.07-.5-2.15-1.03-3.23-1.59-3.52-1.82-6.53-4.26-9.42-6.25-2.28-1.57-4.59-2.68-6.37-4.24-5.6-4.91-8.44-9.54-6.99-12.34.31-.6.81-1.09 1.46-1.47 1.15-.66 3.03-.26 5.06-.27 1.09 0 2.05-.66 3.34-.49 1.48.2 3.09.51 4.79.93.86.21 2.24-.51 3.14-.24 4.46 1.33 8.93 4.31 14 6.93 6.32 3.27 11.78 6.96 15.81 10.5.88.78 1.44 2.03 2.18 2.78.82.84 1.8 1.18 2.43 1.97 2.38 3.03 3.32 5.7 2.36 7.56Z" style="stroke-width:0;fill:#c9d3d3"/><path d="M99.08 47.49c-.63-.8-1.61-1.14-2.43-1.97-.74-.75-1.3-2.01-2.18-2.78-4.03-3.54-9.49-7.24-15.81-10.5-5.07-2.62-9.54-5.6-14-6.93-.9-.27-2.28.46-3.14.24-1.7-.42-3.3-.73-4.79-.93-1.29-.17-2.25.48-3.34.49-2.03.01-3.91-.39-5.06.27-.58.34-1.03.77-1.34 1.28.84.02 1.76.11 2.73.1 1.09 0 2.05-.66 3.34-.49 1.48.2 3.09.51 4.79.93.86.21 2.24-.51 3.14-.24 4.46 1.33 8.94 4.31 14 6.93 6.32 3.27 11.78 6.96 15.81 10.5.88.77 1.44 2.03 2.18 2.78.82.84 1.8 1.18 2.43 1.97 2.38 3.03 3.32 5.7 2.36 7.56-.08.16-.17.3-.28.44 1.94-.2 3.31-.85 3.95-2.09.96-1.86.03-4.54-2.36-7.56" style="stroke-width:0;fill:#d3dddd"/><path d="M42.78 52.49s-.7 3.7-1.99 3.85-2.43.77-2.46 2.79" class="cls-7"/><path d="M38.34 61.13h-.03c-1.1-.01-1.99-.92-1.97-2.03.03-2.55 1.39-4.23 3.74-4.68.25-.46.58-1.46.74-2.3.21-1.08 1.25-1.8 2.34-1.59 1.08.21 1.8 1.25 1.59 2.33-.44 2.35-1.45 5.21-3.73 5.46-.57.06-.67.08-.68.83-.01 1.1-.91 1.97-2 1.97Zm2.23-6.78" class="cls-9"/><path d="M63.41 78.58s.88.25-.83 1.6-2.45 2.39-2.45 2.39" class="cls-7"/><path d="M60.12 84.56c-.41 0-.81-.12-1.17-.38-.89-.64-1.1-1.88-.46-2.77.09-.13.96-1.32 2.84-2.8a.2.2 0 0 1 .07-.05c0-.18.03-.35.08-.53a1.995 1.995 0 0 1 2.47-1.37c.83.24 1.47.93 1.63 1.78.33 1.66-1.2 2.87-1.78 3.32-1.42 1.12-2.06 1.98-2.07 1.99-.39.53-1 .82-1.62.82Zm1.7-6.39" class="cls-9"/><path d="M86.79 67.52s-.52 2.57.6 3.56-.2 3.14-.2 3.14" class="cls-7"/><path d="M87.18 76.22c-.36 0-.72-.09-1.04-.29a2 2 0 0 1-.66-2.75c.15-.25.29-.61.34-.84-1.59-1.71-1.11-4.62-.99-5.21a2.013 2.013 0 0 1 2.36-1.57c1.08.22 1.78 1.27 1.57 2.35-.12.61-.11 1.44.02 1.72 1.68 1.55 1.12 4 .12 5.63-.38.62-1.03.96-1.71.96Zm1.52-6.64" class="cls-9"/><path d="M63.4 55.43s.14 1.7-1.33 2.56-1.82 3.52-1.82 3.52" class="cls-7"/><path d="M60.25 63.52c-.09 0-.18 0-.28-.02a2 2 0 0 1-1.71-2.24c.08-.6.6-3.68 2.78-4.98.34-.2.35-.64.35-.73-.09-1.1.73-2.04 1.83-2.13 1.1-.07 2.07.75 2.16 1.86.09 1.09-.29 3.26-2.3 4.45-.31.18-.74 1.21-.86 2.08a2 2 0 0 1-1.98 1.72Z" class="cls-9"/><path d="M43.02 76.78s-1.23 1.6-.62 3.94-.28 3.98-.28 3.98" class="cls-7"/><path d="M42.12 86.7a2.004 2.004 0 0 1-1.75-2.97s.49-1.02.1-2.51c-.84-3.21.78-5.43.97-5.67.67-.88 1.93-1.04 2.81-.36.86.67 1.03 1.9.39 2.78-.05.08-.63.96-.29 2.25.79 3.03-.33 5.21-.46 5.44-.36.66-1.05 1.04-1.76 1.04Z" class="cls-9"/></svg>