<svg xmlns="http://www.w3.org/2000/svg" id="flatten_icons" viewBox="0 0 112 112"><defs><style>.cls-3{fill:#f2c0a7}.cls-8{fill:#004241}</style></defs><g id="oeufs"><path d="M0 0h112v112H0z" style="fill:none"/><path d="M99.99 63.71C99.99 77.68 88.85 89 75.1 89S50.21 77.68 50.21 63.71 57.3 25 75.1 25s24.89 24.74 24.89 38.71" style="fill:#efaf84"/><path d="M75.1 91c-14.83 0-26.89-12.24-26.89-27.29C48.21 47.29 56.76 23 75.1 23s26.89 24.29 26.89 40.71C101.99 78.76 89.93 91 75.1 91m0-64c-8.9 0-14.34 7.08-17.33 13.02-4.1 8.13-5.56 17.57-5.56 23.69C52.21 76.55 62.48 87 75.1 87s22.89-10.45 22.89-23.29c0-6.12-1.46-15.56-5.56-23.69C89.44 34.08 84 27 75.1 27" class="cls-8"/><circle cx="86.05" cy="49" r="2.62" class="cls-3"/><circle cx="71.42" cy="36.82" r="2.62" class="cls-3"/><path d="M64.07 63.71C64.07 77.68 52.93 89 39.18 89S14.29 77.68 14.29 63.71 21.38 25 39.18 25s24.89 24.74 24.89 38.71" style="fill:#f7f5eb"/><path d="M39.19 91C24.36 91 12.3 78.76 12.3 63.71 12.3 47.29 20.85 23 39.19 23s26.89 24.29 26.89 40.71C66.08 78.76 54.02 91 39.19 91m0-64c-8.9 0-14.34 7.08-17.33 13.02-4.1 8.13-5.56 17.57-5.56 23.69C16.3 76.55 26.57 87 39.19 87s22.89-10.45 22.89-23.29c0-6.12-1.46-15.56-5.56-23.69C53.53 34.08 48.09 27 39.19 27" class="cls-8"/><circle cx="39.5" cy="62.36" r="12.47" style="fill:#ffc74a"/><circle cx="36.64" cy="59.86" r="2.86" style="fill:#fff"/><path d="M51.03 57.61c-1.07 7.49-7.49 13.26-15.28 13.26a15.4 15.4 0 0 1-6.54-1.47c2.25 3.28 6.02 5.43 10.29 5.43 6.89 0 12.47-5.58 12.47-12.47 0-1.68-.34-3.29-.94-4.75" style="fill:#f96"/><path d="M39.5 76.84c-7.98 0-14.47-6.49-14.47-14.47S31.52 47.9 39.5 47.9s14.47 6.49 14.47 14.47-6.49 14.47-14.47 14.47m0-24.95c-5.78 0-10.47 4.7-10.47 10.47s4.7 10.47 10.47 10.47 10.47-4.7 10.47-10.47-4.7-10.47-10.47-10.47" class="cls-8"/></g></svg>