<?xml version="1.0" encoding="UTF-8"?>
<svg id="flatten_icons" xmlns="http://www.w3.org/2000/svg" viewBox="0 0 112 112">
  <defs>
    <style>
      .cls-1 {
        fill: none;
      }

      .cls-2 {
        fill: #f96;
      }

      .cls-3 {
        fill: #f2c0a7;
      }

      .cls-4 {
        fill: #ffc74a;
      }

      .cls-5 {
        fill: #efaf84;
      }

      .cls-6 {
        fill: #fff;
      }

      .cls-7 {
        fill: #f7f5eb;
      }

      .cls-8 {
        fill: #004241;
      }
    </style>
  </defs>
  <g id="oeufs">
    <rect class="cls-1" width="112" height="112"/>
    <g>
      <g>
        <path class="cls-5" d="M99.99,63.71c0,13.97-11.14,25.29-24.89,25.29s-24.89-11.32-24.89-25.29,7.09-38.71,24.89-38.71,24.89,24.74,24.89,38.71Z"/>
        <path class="cls-8" d="M75.1,91c-14.83,0-26.89-12.24-26.89-27.29,0-16.42,8.55-40.71,26.89-40.71s26.89,24.29,26.89,40.71c0,15.05-12.06,27.29-26.89,27.29ZM75.1,27c-8.9,0-14.34,7.08-17.33,13.02-4.1,8.13-5.56,17.57-5.56,23.69,0,12.84,10.27,23.29,22.89,23.29s22.89-10.45,22.89-23.29c0-6.12-1.46-15.56-5.56-23.69-2.99-5.94-8.43-13.02-17.33-13.02Z"/>
      </g>
      <circle class="cls-3" cx="86.05" cy="49" r="2.62"/>
      <circle class="cls-3" cx="71.42" cy="36.82" r="2.62"/>
    </g>
    <g>
      <g>
        <path class="cls-7" d="M64.07,63.71c0,13.97-11.14,25.29-24.89,25.29s-24.89-11.32-24.89-25.29,7.09-38.71,24.89-38.71,24.89,24.74,24.89,38.71Z"/>
        <path class="cls-8" d="M39.19,91c-14.83,0-26.89-12.24-26.89-27.29,0-16.42,8.55-40.71,26.89-40.71s26.89,24.29,26.89,40.71c0,15.05-12.06,27.29-26.89,27.29ZM39.19,27c-8.9,0-14.34,7.08-17.33,13.02-4.1,8.13-5.56,17.57-5.56,23.69,0,12.84,10.27,23.29,22.89,23.29s22.89-10.45,22.89-23.29c0-6.12-1.46-15.56-5.56-23.69-2.99-5.94-8.43-13.02-17.33-13.02Z"/>
      </g>
      <circle class="cls-4" cx="39.5" cy="62.36" r="12.47"/>
      <circle class="cls-6" cx="36.64" cy="59.86" r="2.86"/>
      <path class="cls-2" d="M51.03,57.61c-1.07,7.49-7.49,13.26-15.28,13.26-2.34,0-4.55-.54-6.54-1.47,2.25,3.28,6.02,5.43,10.29,5.43,6.89,0,12.47-5.58,12.47-12.47,0-1.68-.34-3.29-.94-4.75Z"/>
      <path class="cls-8" d="M39.5,76.84c-7.98,0-14.47-6.49-14.47-14.47s6.49-14.47,14.47-14.47,14.47,6.49,14.47,14.47-6.49,14.47-14.47,14.47ZM39.5,51.89c-5.78,0-10.47,4.7-10.47,10.47s4.7,10.47,10.47,10.47,10.47-4.7,10.47-10.47-4.7-10.47-10.47-10.47Z"/>
    </g>
  </g>
</svg>