<?xml version="1.0" encoding="UTF-8"?>
<svg id="flatten_icons" data-name="flatten icons" xmlns="http://www.w3.org/2000/svg" viewBox="0 0 112 112">
  <defs>
    <style>
      .cls-1 {
        fill: none;
      }

      .cls-1, .cls-2, .cls-3, .cls-4, .cls-5 {
        stroke-width: 0px;
      }

      .cls-2 {
        fill: #d1a180;
      }

      .cls-3 {
        fill: #e2bb88;
      }

      .cls-4 {
        fill: #eaca96;
      }

      .cls-5 {
        fill: #004241;
      }
    </style>
  </defs>
  <rect class="cls-1" width="112" height="112"/>
  <g>
    <g>
      <g>
        <path class="cls-3" d="m47.82,22.51s-3.85-5.68-4.45-12.35-9.4-4.62-16.92-1.75c-7.51,2.87-14.04.67-14.04.67,0,0,4.9,8.48,12.88,5.87,7.98-2.62,11.21,4.33,11.21,4.33"/>
        <path class="cls-5" d="m47.82,24.51c-.64,0-1.27-.31-1.66-.88-.17-.25-4.15-6.19-4.79-13.29-.12-1.34-.66-1.82-1.05-2.07-1.12-.7-4.32-1.37-13.16,2.01-3.52,1.35-6.84,1.67-9.49,1.6,1.77,1.25,4.15,2.1,6.99,1.17,7.65-2.51,12.27,2.43,13.64,5.38.47,1,.03,2.19-.97,2.66-1,.46-2.19.03-2.66-.97-.26-.53-2.73-5.25-8.77-3.27-7.54,2.47-13.26-3.35-15.23-6.77-.42-.72-.34-1.62.18-2.27.53-.64,1.4-.89,2.19-.63.05.02,5.98,1.92,12.69-.64,8.2-3.13,13.51-3.66,16.7-1.66,1.19.74,2.66,2.23,2.92,5.1.55,6.05,4.08,11.36,4.12,11.41.62.92.38,2.16-.54,2.78-.34.23-.73.34-1.12.34Z"/>
      </g>
      <path class="cls-4" d="m99.69,46.41c8.39,18.92-1.02,41.45-21.02,50.32-20,8.87-43.01.71-51.4-18.21-6.72-15.15-2.02-32.62,10.38-43.53,9.82-8.64,1.33-11.54-3.51-18.77,2.3,2.49,10.03,4.49,13.67,6.29,6.34,3.13,9.76,2.72,12.27,2.41,16.54-2.04,32.83,6.22,39.6,21.49Z"/>
      <path class="cls-2" d="m73.48,25.51c4.04,3.41,7.36,7.72,9.63,12.82,8.39,18.92-1.02,41.45-21.02,50.32-8.3,3.68-17.11,4.42-25.19,2.68,10.95,9.25,27.16,11.87,41.77,5.39,20-8.87,29.41-31.4,21.02-50.32-4.91-11.07-14.83-18.45-26.21-20.9Z"/>
      <path class="cls-5" d="m61.94,102.3c-15.53,0-30.09-8.51-36.5-22.97-6.92-15.6-2.54-34.03,10.89-45.84,2.48-2.18,3.77-4.03,3.85-5.5.09-1.75-1.54-3.5-3.61-5.73-1.32-1.42-2.81-3.03-4.09-4.93-.58-.87-.4-2.04.42-2.68.82-.65,2-.55,2.71.21,1.18,1.28,5,2.69,8.07,3.83,1.89.7,3.67,1.36,5.02,2.02,5.82,2.87,8.77,2.51,11.14,2.22,17.94-2.21,34.68,6.9,41.67,22.67,8.82,19.9-1.06,43.66-22.03,52.96-5.73,2.54-11.71,3.74-17.54,3.74ZM41.94,22.31c1.38,1.77,2.35,3.63,2.24,5.88-.13,2.66-1.79,5.3-5.2,8.3-12.11,10.66-16.08,27.22-9.87,41.22,7.93,17.89,29.8,25.6,48.76,17.2,18.96-8.41,27.93-29.8,20-47.68-6.27-14.14-21.35-22.31-37.53-20.32-2.59.32-6.5.8-13.4-2.6-1.16-.57-2.85-1.2-4.63-1.86l-.36-.13Z"/>
      <path class="cls-5" d="m65.81,102.13c-.27,0-.55-.06-.82-.18-25.25-11.35-28.57-34.31-28.7-35.28-.15-1.1.62-2.1,1.72-2.25,1.09-.15,2.1.62,2.25,1.72.04.26,3.24,21.76,26.38,32.16,1.01.45,1.46,1.64,1,2.64-.33.74-1.06,1.18-1.83,1.18Z"/>
      <path class="cls-5" d="m93.04,88.2c-.21,0-.43-.04-.64-.11-1.05-.35-1.61-1.49-1.25-2.54,3.63-10.7,3.19-18.77,2.18-23.65-1.09-5.28-3.06-8.08-3.08-8.11-.64-.9-.44-2.14.46-2.79.89-.64,2.14-.45,2.78.44.38.51,9.1,12.87,1.45,35.4-.28.83-1.06,1.36-1.89,1.36Z"/>
      <path class="cls-5" d="m81.48,96.07c-.22,0-.45-.04-.67-.12-1.04-.37-1.59-1.51-1.22-2.55,5.78-16.32-10.9-34.55-11.07-34.73-.75-.81-.71-2.07.1-2.83.81-.75,2.07-.71,2.83.1.19.2,4.66,5.05,8.4,12.18,5.05,9.64,6.26,18.84,3.51,26.61-.29.82-1.06,1.33-1.89,1.33Z"/>
      <g>
        <path class="cls-3" d="m61.47,48.32s3.23,2.58,4.02,3.99"/>
        <path class="cls-5" d="m65.49,54.32c-.7,0-1.38-.37-1.75-1.03-.35-.64-2.1-2.27-3.52-3.4-.86-.69-1-1.95-.31-2.81.69-.86,1.95-1,2.81-.31.83.66,3.61,2.95,4.51,4.58.54.96.19,2.18-.77,2.72-.31.17-.64.25-.97.25Z"/>
      </g>
      <g>
        <path class="cls-3" d="m77.05,97.45s-2.16,3.45-.76,5.88"/>
        <path class="cls-5" d="m76.29,105.33c-.69,0-1.37-.36-1.74-1-1.94-3.37.51-7.48.8-7.94.59-.94,1.82-1.22,2.76-.63.93.58,1.22,1.81.64,2.75-.49.81-1.32,2.8-.73,3.83.55.96.22,2.18-.74,2.73-.31.18-.66.27-1,.27Z"/>
      </g>
      <g>
        <path class="cls-3" d="m81.07,95.67s1.91,5.75,5.56,6.38,4.18,4.24,4.18,4.24"/>
        <path class="cls-5" d="m90.81,108.29c-.97,0-1.83-.71-1.98-1.71-.04-.2-.44-2.2-2.55-2.56-4.69-.81-6.88-7.02-7.11-7.72-.35-1.05.22-2.18,1.27-2.53,1.05-.35,2.18.22,2.53,1.27.51,1.51,2.15,4.73,4,5.04,4,.69,5.54,4.04,5.82,5.91.16,1.09-.59,2.11-1.68,2.27-.1.01-.2.02-.3.02Z"/>
      </g>
      <g>
        <path class="cls-3" d="m84.48,93.96s4.15.31,7.39,2.56"/>
        <path class="cls-5" d="m91.87,98.52c-.39,0-.79-.12-1.14-.36-2.73-1.9-6.37-2.21-6.41-2.21-1.1-.09-1.92-1.05-1.84-2.15s1.04-1.93,2.14-1.84c.19.01,4.74.38,8.38,2.91.91.63,1.13,1.88.5,2.78-.39.56-1.01.86-1.65.86Z"/>
      </g>
    </g>
    <path class="cls-5" d="m18.97,24.64c-6.84,0-10.88-3.55-11.07-3.72-.82-.74-.89-2-.15-2.82.74-.82,1.99-.89,2.82-.16.18.16,3.92,3.34,10.32,2.59,3.1-.36,3.82-1.05,4.91-2.1,1.33-1.28,2.99-2.87,7.84-4.14,1.07-.28,2.16.36,2.44,1.43.28,1.07-.36,2.16-1.43,2.44-3.84,1.01-4.98,2.1-6.09,3.16-1.63,1.56-3.1,2.7-7.22,3.18-.83.1-1.62.14-2.38.14Z"/>
  </g>
</svg>