<svg xmlns="http://www.w3.org/2000/svg" id="flatten_icons" data-name="flatten icons" viewBox="0 0 112 112"><defs><style>.cls-6{stroke-width:0;fill:#004241}</style></defs><path d="M0 0h112v112H0z" style="fill:none;stroke-width:0"/><circle cx="56" cy="67.72" r="38.28" style="stroke-width:0;fill:#f48940"/><path d="M87.79 52.07a2.97 2.97 0 0 1-1.02 1.95l-2.53 2.19c-.89.77-1.24 1.99-.91 3.11l1.15 3.88c.52 1.76-.65 3.57-2.46 3.81l-1.73.24c-1.78.25-2.95 2-2.48 3.74l1.04 3.88c.51 1.9-.92 3.77-2.89 3.77h-1.51c-1.48 0-2.73 1.08-2.96 2.54l-.42 2.71c-.34 2.19-2.87 3.27-4.68 1.99l-2.85-2.01c-1.82-1.28-4.35-.2-4.68 2l-.27 1.8c-.33 2.16-2.8 3.25-4.62 2.04a2.996 2.996 0 0 0-3.68.28l-4.05 3.7c-1.42 1.3-3.67.94-4.62-.73l-.27-.47a3 3 0 0 0-2.8-1.51l-10.8.69c-.27.02-.53.07-.78.16 7.77 8.92 19.15 14.18 29.02 14.18 16.91 0 38.28-14.39 38.28-38.28 0-8.46-2.15-15.71-5.86-21.57l-.62 5.92Z" style="stroke-width:0;fill:#ed784a"/><path d="M56 108c-19.01 0-40.28-17.23-40.28-40.28S33.04 27.44 56 27.44 96.28 44 96.28 67.72c0 11.42-4.79 21.93-13.48 29.6C75.23 104.01 65.2 108 55.99 108Zm0-76.56c-21.02 0-36.28 15.26-36.28 36.28C19.72 90.2 40.85 104 56 104s36.28-12.92 36.28-36.28c0-21.36-14.92-36.28-36.28-36.28" class="cls-6"/><path d="M41.43 45.06c-.89 0-1.7-.6-1.93-1.5-.04-.14-3.89-14.28-15.17-14.56-1.1-.03-1.98-.95-1.95-2.05s.93-2 2.05-1.95c5.98.15 11.17 3.28 15.01 9.04 2.8 4.21 3.89 8.34 3.94 8.51.28 1.07-.36 2.16-1.43 2.44a2.2 2.2 0 0 1-.5.06Z" class="cls-6"/><path d="M38.39 23.48S44.15 4.6 72.88 6.08c0 0-5.56 21.11-34.49 17.4" style="stroke-width:0;fill:#aad681"/><path d="M44.91 25.92c-2.11 0-4.37-.14-6.78-.45-.58-.07-1.11-.4-1.43-.9a1.97 1.97 0 0 1-.23-1.67c.06-.2 6.56-20.39 36.51-18.81.6.03 1.16.33 1.51.82.36.49.47 1.11.32 1.69-.06.21-5.4 19.33-29.91 19.33Zm-3.59-4.14C60.51 23.27 67.7 12.9 70.01 8h-.3c-18.72 0-25.98 9.32-28.38 13.78Z" class="cls-6"/><path d="M26.73 29.24h-.06a2 2 0 0 1-1.96-2.04c.02-1.1.9-2 2.01-1.96.13 0 4.04-.14 11.62-4.5.96-.55 2.18-.22 2.73.74s.22 2.18-.74 2.73c-8.38 4.82-12.89 5.03-13.6 5.03" class="cls-6"/><path d="M30.37 79.44c-.74 0-1.44-.41-1.79-1.11-5.91-11.91-.23-23.13.02-23.61a2.003 2.003 0 0 1 3.56 1.84c-.06.12-4.97 9.95.01 19.99a1.998 1.998 0 0 1-1.79 2.89Z" style="stroke-width:0;fill:#fff"/></svg>