<?xml version="1.0" encoding="UTF-8"?>
<svg id="flatten_icons" data-name="flatten icons" xmlns="http://www.w3.org/2000/svg" viewBox="0 0 112 112">
  <defs>
    <style>
      .cls-1 {
        fill: none;
      }

      .cls-1, .cls-2, .cls-3, .cls-4, .cls-5, .cls-6 {
        stroke-width: 0px;
      }

      .cls-2 {
        fill: #aad681;
      }

      .cls-3 {
        fill: #fff;
      }

      .cls-4 {
        fill: #ed784a;
      }

      .cls-5 {
        fill: #f48940;
      }

      .cls-6 {
        fill: #004241;
      }
    </style>
  </defs>
  <rect class="cls-1" width="112" height="112"/>
  <g>
    <circle class="cls-5" cx="56" cy="67.72" r="38.28"/>
    <path class="cls-4" d="m87.79,52.07c-.08.76-.44,1.45-1.02,1.95l-2.53,2.19c-.89.77-1.24,1.99-.91,3.11l1.15,3.88c.52,1.76-.65,3.57-2.46,3.81l-1.73.24c-1.78.25-2.95,2-2.48,3.74l1.04,3.88c.51,1.9-.92,3.77-2.89,3.77h-1.51c-1.48,0-2.73,1.08-2.96,2.54l-.42,2.71c-.34,2.19-2.87,3.27-4.68,1.99l-2.85-2.01c-1.82-1.28-4.35-.2-4.68,2l-.27,1.8c-.33,2.16-2.8,3.25-4.62,2.04-1.15-.76-2.66-.65-3.68.28l-4.05,3.7c-1.42,1.3-3.67.94-4.62-.73l-.27-.47c-.57-1-1.65-1.58-2.8-1.51l-10.8.69c-.27.02-.53.07-.78.16,7.77,8.92,19.15,14.18,29.02,14.18,16.91,0,38.28-14.39,38.28-38.28,0-8.46-2.15-15.71-5.86-21.57l-.62,5.92Z"/>
    <path class="cls-6" d="m56,108c-19.01,0-40.28-17.23-40.28-40.28S33.04,27.44,56,27.44s40.28,16.56,40.28,40.28c0,11.42-4.79,21.93-13.48,29.6-7.57,6.69-17.6,10.68-26.81,10.68Zm0-76.56c-21.02,0-36.28,15.26-36.28,36.28,0,22.48,21.13,36.28,36.28,36.28s36.28-12.92,36.28-36.28c0-21.36-14.92-36.28-36.28-36.28Z"/>
    <path class="cls-6" d="m41.43,45.06c-.89,0-1.7-.6-1.93-1.5-.04-.14-3.89-14.28-15.17-14.56-1.1-.03-1.98-.95-1.95-2.05.03-1.1.93-2,2.05-1.95,5.98.15,11.17,3.28,15.01,9.04,2.8,4.21,3.89,8.34,3.94,8.51.28,1.07-.36,2.16-1.43,2.44-.17.04-.34.06-.5.06Z"/>
    <g>
      <path class="cls-2" d="m38.39,23.48s5.76-18.88,34.49-17.4c0,0-5.56,21.11-34.49,17.4Z"/>
      <path class="cls-6" d="m44.91,25.92c-2.11,0-4.37-.14-6.78-.45-.58-.07-1.11-.4-1.43-.9-.32-.49-.41-1.11-.23-1.67.06-.2,6.56-20.39,36.51-18.81.6.03,1.16.33,1.51.82.36.49.47,1.11.32,1.69-.06.21-5.4,19.33-29.91,19.33Zm-3.59-4.14c19.19,1.49,26.38-8.88,28.69-13.78h-.3c-18.72,0-25.98,9.32-28.38,13.78Z"/>
    </g>
    <path class="cls-6" d="m26.73,29.24h-.06c-1.1-.02-1.98-.93-1.96-2.04.02-1.1.9-2,2.01-1.96.13,0,4.04-.14,11.62-4.5.96-.55,2.18-.22,2.73.74.55.96.22,2.18-.74,2.73-8.38,4.82-12.89,5.03-13.6,5.03Z"/>
    <path class="cls-3" d="m30.37,79.44c-.74,0-1.44-.41-1.79-1.11-5.91-11.91-.23-23.13.02-23.61.51-.98,1.72-1.36,2.7-.85.98.51,1.36,1.71.86,2.69-.06.12-4.97,9.95.01,19.99.49.99.09,2.19-.9,2.68-.29.14-.59.21-.89.21Z"/>
  </g>
</svg>