<?xml version="1.0" encoding="UTF-8"?>
<svg id="flatten_icons" data-name="flatten icons" xmlns="http://www.w3.org/2000/svg" viewBox="0 0 112 112">
  <defs>
    <style>
      .cls-1 {
        fill: none;
      }

      .cls-1, .cls-2, .cls-3, .cls-4 {
        stroke-width: 0px;
      }

      .cls-2 {
        fill: #b7e970;
      }

      .cls-3 {
        fill: #8e889a;
      }

      .cls-4 {
        fill: #004241;
      }
    </style>
  </defs>
  <g id="pc-perso">
    <rect class="cls-1" x="0" width="112" height="112"/>
    <g>
      <g>
        <path class="cls-3" d="m40.53,2h30.95c7.73,0,14.01,6.28,14.01,14.01v93.99H26.52V16.01c0-7.73,6.28-14.01,14.01-14.01Z"/>
        <path class="cls-4" d="m85.49,112H26.52c-1.1,0-2-.9-2-2V16.01C24.52,7.18,31.7,0,40.53,0h30.95C80.31,0,87.49,7.18,87.49,16.01v93.99c0,1.1-.9,2-2,2Zm-56.97-4h54.97V16.01c0-6.62-5.39-12.01-12.01-12.01h-30.95c-6.62,0-12.01,5.39-12.01,12.01v91.99Z"/>
      </g>
      <path class="cls-4" d="m74.67,23.59h-16.17c-1.1,0-2-.9-2-2s.9-2,2-2h16.17c1.1,0,2,.9,2,2s-.9,2-2,2Z"/>
      <path class="cls-4" d="m74.67,32.45h-16.17c-1.1,0-2-.9-2-2s.9-2,2-2h16.17c1.1,0,2,.9,2,2s-.9,2-2,2Z"/>
      <path class="cls-4" d="m74.67,41.32h-16.17c-1.1,0-2-.9-2-2s.9-2,2-2h16.17c1.1,0,2,.9,2,2s-.9,2-2,2Z"/>
      <g>
        <path class="cls-2" d="m26.52,17.16v38.84h2.58c6.95,0,12.58-5.63,12.58-12.58V2c-8.38,0-15.16,6.79-15.16,15.16Z"/>
        <path class="cls-4" d="m29.1,58h-2.58c-1.1,0-2-.9-2-2V17.16C24.52,7.7,32.22,0,41.68,0,42.79,0,43.68.9,43.68,2v41.42c0,8.04-6.54,14.58-14.58,14.58Zm-.58-4h.58c5.83,0,10.58-4.75,10.58-10.58V4.15c-6.31.97-11.16,6.43-11.16,13.01v36.84Z"/>
      </g>
      <g>
        <path class="cls-2" d="m71.25,110v-12.43c0-3.97.75-7.91,2.2-11.61h0c1.85-4.7,6.38-7.79,11.43-7.79h0v31.82h-13.64Z"/>
        <path class="cls-4" d="m84.88,112h-13.64c-1.1,0-2-.9-2-2v-12.43c0-4.24.79-8.4,2.34-12.34,2.16-5.5,7.38-9.05,13.29-9.05,1.1,0,2,.9,2,2v31.82c0,1.1-.9,2-2,2Zm-11.64-4h9.64v-27.63c-3.4.66-6.26,3-7.57,6.33-1.37,3.48-2.06,7.14-2.06,10.88v10.43Z"/>
      </g>
      <g>
        <circle class="cls-2" cx="56.75" cy="66.08" r="10.08"/>
        <path class="cls-4" d="m56.75,78.15c-6.66,0-12.08-5.42-12.08-12.08s5.42-12.08,12.08-12.08,12.08,5.42,12.08,12.08-5.42,12.08-12.08,12.08Zm0-20.15c-4.45,0-8.08,3.62-8.08,8.08s3.62,8.08,8.08,8.08,8.08-3.62,8.08-8.08-3.62-8.08-8.08-8.08Z"/>
      </g>
      <path class="cls-4" d="m63.74,75.33c-.1,0-.21,0-.31-.02-1.09-.17-1.84-1.2-1.66-2.29.47-3.01-.57-5.07-7.3-6.75-1.76-.44-3.13-1.43-3.96-2.88-1.61-2.8-.66-6.29-.55-6.68.31-1.06,1.42-1.67,2.48-1.36,1.06.31,1.67,1.41,1.36,2.47-.16.57-.47,2.46.18,3.59.18.31.53.75,1.45.98,3.47.87,11.6,2.89,10.28,11.26-.16.99-1.01,1.69-1.97,1.69Z"/>
    </g>
  </g>
</svg>