<?xml version="1.0" encoding="UTF-8"?>
<svg id="flatten_icons" data-name="flatten icons" xmlns="http://www.w3.org/2000/svg" viewBox="0 0 112 112">
  <defs>
    <style>
      .cls-1 {
        fill: none;
      }

      .cls-1, .cls-2, .cls-3, .cls-4, .cls-5, .cls-6 {
        stroke-width: 0px;
      }

      .cls-2 {
        fill: #bfc8d0;
      }

      .cls-3 {
        fill: #b7e7f1;
      }

      .cls-4 {
        fill: #8ed4ea;
      }

      .cls-5 {
        fill: #e6ecee;
      }

      .cls-6 {
        fill: #004241;
      }
    </style>
  </defs>
  <g id="portable">
    <g>
      <path class="cls-4" d="m17.81,17.74h76.39c3.86,0,7,3.14,7,7v53.08H10.81V24.74c0-3.86,3.14-7,7-7Z"/>
      <path class="cls-6" d="m101.19,79.82H10.81c-1.1,0-2-.9-2-2V24.75c0-4.96,4.04-9,9-9h76.39c4.96,0,9,4.04,9,9v53.08c0,1.1-.9,2-2,2Zm-88.39-4h86.39V24.75c0-2.76-2.24-5-5-5H17.81c-2.76,0-5,2.24-5,5v51.08Z"/>
    </g>
    <g>
      <path class="cls-5" d="m5.04,77.59h101.91c1.68,0,3.04,1.36,3.04,3.04v3.38c0,5.65-4.59,10.25-10.25,10.25H12.25c-5.65,0-10.25-4.59-10.25-10.25v-3.38c0-1.68,1.36-3.04,3.04-3.04Z"/>
      <path class="cls-6" d="m99.75,96.26H12.25c-6.75,0-12.25-5.49-12.25-12.25v-3.38c0-2.78,2.26-5.04,5.04-5.04h101.91c2.78,0,5.04,2.26,5.04,5.04v3.38c0,6.75-5.49,12.25-12.25,12.25ZM5.04,79.59c-.58,0-1.04.47-1.04,1.04v3.38c0,4.55,3.7,8.25,8.25,8.25h87.51c4.55,0,8.25-3.7,8.25-8.25v-3.38c0-.58-.47-1.04-1.04-1.04H5.04Z"/>
    </g>
    <g>
      <path class="cls-2" d="m47.28,77.82h17.45v2.09c0,2.57-2.08,4.65-4.65,4.65h-8.14c-2.57,0-4.65-2.08-4.65-4.65v-2.09h0Z"/>
      <path class="cls-6" d="m60.07,86.57h-8.14c-3.67,0-6.65-2.98-6.65-6.65v-2.09c0-1.1.9-2,2-2h17.45c1.1,0,2,.9,2,2v2.09c0,3.67-2.98,6.65-6.65,6.65Zm-10.79-6.75v.09c0,1.46,1.19,2.65,2.65,2.65h8.14c1.46,0,2.65-1.19,2.65-2.65v-.09h-13.45Z"/>
    </g>
    <path class="cls-3" d="m18.78,64.63V28.61c0-1.64,1.33-2.97,2.97-2.97h57.42c1.64,0,2.97,1.33,2.97,2.97h0c-12.05,20.75-33.13,34.64-56.95,37.53l-3.01.36c-2.26.35-3.4-.13-3.4-1.88Z"/>
    <path class="cls-4" d="m58.22,37.56h-29.33c-1.1,0-2-.9-2-2s.9-2,2-2h29.33c1.1,0,2,.9,2,2s-.9,2-2,2Z"/>
    <path class="cls-4" d="m48.01,47.79h-19.13c-1.1,0-2-.9-2-2s.9-2,2-2h19.13c1.1,0,2,.9,2,2s-.9,2-2,2Z"/>
  </g>
  <rect class="cls-1" width="112" height="112"/>
</svg>