<?xml version="1.0" encoding="UTF-8"?>
<svg id="flatten_icons" data-name="flatten icons" xmlns="http://www.w3.org/2000/svg" viewBox="0 0 112 112">
  <defs>
    <style>
      .cls-1 {
        fill: none;
      }

      .cls-1, .cls-2, .cls-3, .cls-4 {
        stroke-width: 0px;
      }

      .cls-2 {
        fill: #8dbc76;
      }

      .cls-3 {
        fill: #e9e5dc;
      }

      .cls-4 {
        fill: #004241;
      }
    </style>
  </defs>
  <g id="pc-pro">
    <rect class="cls-1" x="0" width="112" height="112"/>
    <g>
      <g>
        <path class="cls-3" d="m35.15,2h41.71c4.76,0,8.63,3.87,8.63,8.63v99.37H26.52V10.63c0-4.76,3.87-8.63,8.63-8.63Z"/>
        <path class="cls-4" d="m85.49,112H26.52c-1.1,0-2-.9-2-2V10.63C24.52,4.77,29.29,0,35.15,0h41.71C82.72,0,87.49,4.77,87.49,10.63v99.37c0,1.1-.9,2-2,2Zm-56.97-4h54.97V10.63c0-3.66-2.98-6.63-6.63-6.63h-41.71c-3.66,0-6.63,2.98-6.63,6.63v97.37Z"/>
      </g>
      <g>
        <rect class="cls-2" x="36.57" y="72.4" width="11.56" height="11.56"/>
        <path class="cls-4" d="m48.13,85.96h-11.56c-1.1,0-2-.9-2-2v-11.56c0-1.1.9-2,2-2h11.56c1.1,0,2,.9,2,2v11.56c0,1.1-.9,2-2,2Zm-9.56-4h7.56v-7.56h-7.56v7.56Z"/>
      </g>
      <path class="cls-4" d="m74.67,31h-38.09c-1.1,0-2-.9-2-2s.9-2,2-2h38.09c1.1,0,2,.9,2,2s-.9,2-2,2Z"/>
      <path class="cls-4" d="m74.67,77.71h-6.17c-1.1,0-2-.9-2-2s.9-2,2-2h6.17c1.1,0,2,.9,2,2s-.9,2-2,2Z"/>
      <path class="cls-4" d="m74.67,86.58h-6.17c-1.1,0-2-.9-2-2s.9-2,2-2h6.17c1.1,0,2,.9,2,2s-.9,2-2,2Z"/>
      <path class="cls-4" d="m74.67,95.44h-6.17c-1.1,0-2-.9-2-2s.9-2,2-2h6.17c1.1,0,2,.9,2,2s-.9,2-2,2Z"/>
      <path class="cls-4" d="m36.57,95.44h-.32c-1.1,0-2-.9-2-2s.9-2,2-2h.32c1.1,0,2,.9,2,2s-.9,2-2,2Z"/>
      <path class="cls-4" d="m43.62,95.44h-.32c-1.1,0-2-.9-2-2s.9-2,2-2h.32c1.1,0,2,.9,2,2s-.9,2-2,2Z"/>
    </g>
  </g>
</svg>