<svg xmlns="http://www.w3.org/2000/svg" id="flatten_icons" data-name="flatten icons" viewBox="0 0 112 112"><defs><style>.cls-2,.cls-4{stroke-width:0}.cls-2{fill:#b7e970}.cls-4{fill:#004241}</style></defs><g id="pc-perso"><path d="M0 0h112v112H0z" style="fill:none;stroke-width:0"/><path d="M40.53 2h30.95c7.73 0 14.01 6.28 14.01 14.01V110H26.52V16.01C26.52 8.28 32.8 2 40.53 2" style="stroke-width:0;fill:#8e889a"/><path d="M85.49 112H26.52c-1.1 0-2-.9-2-2V16.01C24.52 7.18 31.7 0 40.53 0h30.95c8.83 0 16.01 7.18 16.01 16.01V110c0 1.1-.9 2-2 2m-56.97-4h54.97V16.01C83.49 9.39 78.1 4 71.48 4H40.53c-6.62 0-12.01 5.39-12.01 12.01z" class="cls-4"/><path d="M74.67 23.59H58.5c-1.1 0-2-.9-2-2s.9-2 2-2h16.17c1.1 0 2 .9 2 2s-.9 2-2 2m0 8.86H58.5c-1.1 0-2-.9-2-2s.9-2 2-2h16.17c1.1 0 2 .9 2 2s-.9 2-2 2m0 8.87H58.5c-1.1 0-2-.9-2-2s.9-2 2-2h16.17c1.1 0 2 .9 2 2s-.9 2-2 2" class="cls-4"/><path d="M26.52 17.16V56h2.58c6.95 0 12.58-5.63 12.58-12.58V2C33.3 2 26.52 8.79 26.52 17.16" class="cls-2"/><path d="M29.1 58h-2.58c-1.1 0-2-.9-2-2V17.16C24.52 7.7 32.22 0 41.68 0a2 2 0 0 1 2 2v41.42C43.68 51.46 37.14 58 29.1 58m-.58-4h.58c5.83 0 10.58-4.75 10.58-10.58V4.15c-6.31.97-11.16 6.43-11.16 13.01z" class="cls-4"/><path d="M71.25 110V97.57c0-3.97.75-7.91 2.2-11.61 1.85-4.7 6.38-7.79 11.43-7.79v31.82H71.24Z" class="cls-2"/><path d="M84.88 112H71.24c-1.1 0-2-.9-2-2V97.57c0-4.24.79-8.4 2.34-12.34 2.16-5.5 7.38-9.05 13.29-9.05 1.1 0 2 .9 2 2V110c0 1.1-.9 2-2 2Zm-11.64-4h9.64V80.37c-3.4.66-6.26 3-7.57 6.33a29.6 29.6 0 0 0-2.06 10.88v10.43Z" class="cls-4"/><circle cx="56.75" cy="66.08" r="10.08" class="cls-2"/><path d="M56.75 78.15c-6.66 0-12.08-5.42-12.08-12.08s5.42-12.08 12.08-12.08 12.08 5.42 12.08 12.08-5.42 12.08-12.08 12.08m0-20.15c-4.45 0-8.08 3.62-8.08 8.08s3.62 8.08 8.08 8.08 8.08-3.62 8.08-8.08S61.21 58 56.75 58" class="cls-4"/><path d="M63.74 75.33c-.1 0-.21 0-.31-.02a1.994 1.994 0 0 1-1.66-2.29c.47-3.01-.57-5.07-7.3-6.75-1.76-.44-3.13-1.43-3.96-2.88-1.61-2.8-.66-6.29-.55-6.68a2 2 0 0 1 2.48-1.36 1.99 1.99 0 0 1 1.36 2.47c-.16.57-.47 2.46.18 3.59.18.31.53.75 1.45.98 3.47.87 11.6 2.89 10.28 11.26-.16.99-1.01 1.69-1.97 1.69Z" class="cls-4"/></g></svg>