<svg xmlns="http://www.w3.org/2000/svg" id="flatten_icons" data-name="flatten icons" viewBox="0 0 112 112"><defs><style>.cls-4{stroke-width:0;fill:#004241}</style></defs><g id="pc-pro"><path d="M0 0h112v112H0z" style="fill:none;stroke-width:0"/><path d="M35.15 2h41.71c4.76 0 8.63 3.87 8.63 8.63V110H26.52V10.63c0-4.76 3.87-8.63 8.63-8.63" style="stroke-width:0;fill:#e9e5dc"/><path d="M85.49 112H26.52c-1.1 0-2-.9-2-2V10.63C24.52 4.77 29.29 0 35.15 0h41.71c5.86 0 10.63 4.77 10.63 10.63V110c0 1.1-.9 2-2 2m-56.97-4h54.97V10.63c0-3.66-2.98-6.63-6.63-6.63H35.15c-3.66 0-6.63 2.98-6.63 6.63z" class="cls-4"/><path d="M36.57 72.4h11.56v11.56H36.57z" style="stroke-width:0;fill:#8dbc76"/><path d="M48.13 85.96H36.57c-1.1 0-2-.9-2-2V72.4c0-1.1.9-2 2-2h11.56c1.1 0 2 .9 2 2v11.56c0 1.1-.9 2-2 2m-9.56-4h7.56V74.4h-7.56zM74.67 31H36.58c-1.1 0-2-.9-2-2s.9-2 2-2h38.09c1.1 0 2 .9 2 2s-.9 2-2 2m0 46.71H68.5c-1.1 0-2-.9-2-2s.9-2 2-2h6.17c1.1 0 2 .9 2 2s-.9 2-2 2m0 8.87H68.5c-1.1 0-2-.9-2-2s.9-2 2-2h6.17c1.1 0 2 .9 2 2s-.9 2-2 2m0 8.86H68.5c-1.1 0-2-.9-2-2s.9-2 2-2h6.17c1.1 0 2 .9 2 2s-.9 2-2 2m-38.1 0h-.32c-1.1 0-2-.9-2-2s.9-2 2-2h.32c1.1 0 2 .9 2 2s-.9 2-2 2m7.05 0h-.32c-1.1 0-2-.9-2-2s.9-2 2-2h.32c1.1 0 2 .9 2 2s-.9 2-2 2" class="cls-4"/></g></svg>