<svg xmlns="http://www.w3.org/2000/svg" id="flatten_icons" data-name="flatten icons" viewBox="0 0 112 112"><defs><style>.cls-4,.cls-6{stroke-width:0}.cls-4{fill:#8ed4ea}.cls-6{fill:#004241}</style></defs><g id="portable"><path d="M17.81 17.74H94.2c3.86 0 7 3.14 7 7v53.08H10.81V24.74c0-3.86 3.14-7 7-7" class="cls-4"/><path d="M101.19 79.82H10.81c-1.1 0-2-.9-2-2V24.75c0-4.96 4.04-9 9-9H94.2c4.96 0 9 4.04 9 9v53.08c0 1.1-.9 2-2 2Zm-88.39-4h86.39V24.75c0-2.76-2.24-5-5-5H17.81c-2.76 0-5 2.24-5 5v51.08Z" class="cls-6"/><path d="M5.04 77.59h101.91c1.68 0 3.04 1.36 3.04 3.04v3.38c0 5.65-4.59 10.25-10.25 10.25H12.25C6.6 94.26 2 89.67 2 84.01v-3.38c0-1.68 1.36-3.04 3.04-3.04" style="stroke-width:0;fill:#e6ecee"/><path d="M99.75 96.26h-87.5C5.5 96.26 0 90.77 0 84.01v-3.38c0-2.78 2.26-5.04 5.04-5.04h101.91c2.78 0 5.04 2.26 5.04 5.04v3.38c0 6.75-5.49 12.25-12.25 12.25ZM5.04 79.59c-.58 0-1.04.47-1.04 1.04v3.38c0 4.55 3.7 8.25 8.25 8.25h87.51c4.55 0 8.25-3.7 8.25-8.25v-3.38c0-.58-.47-1.04-1.04-1.04z" class="cls-6"/><path d="M47.28 77.82h17.45v2.09c0 2.57-2.08 4.65-4.65 4.65h-8.14c-2.57 0-4.65-2.08-4.65-4.65v-2.09Z" style="stroke-width:0;fill:#bfc8d0"/><path d="M60.07 86.57h-8.14c-3.67 0-6.65-2.98-6.65-6.65v-2.09c0-1.1.9-2 2-2h17.45c1.1 0 2 .9 2 2v2.09c0 3.67-2.98 6.65-6.65 6.65Zm-10.79-6.75v.09c0 1.46 1.19 2.65 2.65 2.65h8.14c1.46 0 2.65-1.19 2.65-2.65v-.09H49.27Z" class="cls-6"/><path d="M18.78 64.63V28.61a2.97 2.97 0 0 1 2.97-2.97h57.42a2.97 2.97 0 0 1 2.97 2.97 76.5 76.5 0 0 1-56.95 37.53l-3.01.36c-2.26.35-3.4-.13-3.4-1.88Z" style="stroke-width:0;fill:#b7e7f1"/><path d="M58.22 37.56H28.89c-1.1 0-2-.9-2-2s.9-2 2-2h29.33c1.1 0 2 .9 2 2s-.9 2-2 2M48.01 47.79H28.88c-1.1 0-2-.9-2-2s.9-2 2-2h19.13c1.1 0 2 .9 2 2s-.9 2-2 2" class="cls-4"/></g><path d="M0 0h112v112H0z" style="fill:none;stroke-width:0"/></svg>