<svg xmlns="http://www.w3.org/2000/svg" viewBox="0 0 112 112"><path d="M93 39.86c0-13.11-16.57-23.74-37-23.74S19 26.75 19 39.86c0 5.52 2.95 10.6 7.88 14.64v41.38h58.23V54.5c4.93-4.03 7.88-9.11 7.88-14.64Z" style="fill:#edb964"/><path d="M85.12 97.87H26.88c-1.1 0-2-.9-2-2V55.42C19.79 50.98 17 45.48 17 39.86c0-14.19 17.5-25.74 39-25.74s39 11.54 39 25.74c0 5.63-2.79 11.12-7.88 15.56v40.45c0 1.1-.9 2-2 2m-56.24-4h54.23V54.49c0-.6.27-1.17.73-1.55 4.68-3.82 7.15-8.35 7.15-13.09 0-11.99-15.7-21.74-35-21.74s-35 9.75-35 21.74c0 4.74 2.47 9.26 7.15 13.09.46.38.73.95.73 1.55v39.38Z" style="fill:#004241"/><path d="M77.62 88.37V54.49c0-2.26 1-4.38 2.75-5.81 2.34-1.91 5.13-5 5.13-8.83 0-8.65-13.78-16.24-29.5-16.24S26.5 31.2 26.5 39.85c0 3.83 2.79 6.92 5.13 8.83a7.47 7.47 0 0 1 2.75 5.81v33.88h43.23Z" style="fill:#f4e6d0"/><path d="M51.33 78.13a3.53 3.53 0 1 1-7.06 0c0-1.95 1.58-5.53 3.53-5.53s3.53 3.58 3.53 5.53m-7.07-29.81a3.53 3.53 0 1 1-7.06 0c0-1.95 1.58-5.53 3.53-5.53s3.53 3.58 3.53 5.53m27.4-13.02c0 1.67-1.35 5.02-3.02 5.02s-3.02-3.35-3.02-5.02 1.35-3.02 3.02-3.02 3.02 1.35 3.02 3.02m-6.04 25.52c0 1.95-1.58 5.53-3.53 5.53s-3.53-3.58-3.53-5.53a3.53 3.53 0 1 1 7.06 0m9.82 19.91a3.53 3.53 0 1 1-7.06 0c0-1.95 1.58-5.53 3.53-5.53s3.53 3.58 3.53 5.53" style="fill:#e5ceae"/><path d="M0 0h112v112H0z" style="fill:none"/></svg>