<?xml version="1.0" encoding="UTF-8"?>
<svg id="outline_icons" xmlns="http://www.w3.org/2000/svg" viewBox="0 0 112 112">
  <defs>
    <style>
      .cls-1 {
        fill: none;
      }

      .cls-2 {
        fill: #edb964;
      }

      .cls-3 {
        fill: #f4e6d0;
      }

      .cls-4 {
        fill: #e5ceae;
      }

      .cls-5 {
        fill: #004241;
      }
    </style>
  </defs>
  <g id="paindemie">
    <g>
      <g>
        <path class="cls-2" d="M93,39.86c0-13.11-16.57-23.74-37-23.74s-37,10.63-37,23.74c0,5.52,2.95,10.6,7.88,14.64v41.38h58.23v-41.38c4.93-4.03,7.88-9.11,7.88-14.64Z"/>
        <path class="cls-5" d="M85.12,97.87H26.88c-1.1,0-2-.9-2-2v-40.45c-5.09-4.44-7.88-9.94-7.88-15.56,0-14.19,17.5-25.74,39-25.74s39,11.54,39,25.74c0,5.63-2.79,11.12-7.88,15.56v40.45c0,1.1-.9,2-2,2ZM28.88,93.87h54.23v-39.38c0-.6.27-1.17.73-1.55,4.68-3.82,7.15-8.35,7.15-13.09,0-11.99-15.7-21.74-35-21.74s-35,9.75-35,21.74c0,4.74,2.47,9.26,7.15,13.09.46.38.73.95.73,1.55v39.38Z"/>
      </g>
      <path class="cls-3" d="M77.62,88.37v-33.88c0-2.26,1-4.38,2.75-5.81,2.34-1.91,5.13-5,5.13-8.83,0-8.65-13.78-16.24-29.5-16.24s-29.5,7.59-29.5,16.24c0,3.83,2.79,6.92,5.13,8.83,1.75,1.43,2.75,3.55,2.75,5.81v33.88h43.23Z"/>
      <path class="cls-4" d="M51.33,78.13c0,1.95-1.58,3.53-3.53,3.53s-3.53-1.58-3.53-3.53,1.58-5.53,3.53-5.53,3.53,3.58,3.53,5.53Z"/>
      <path class="cls-4" d="M44.26,48.32c0,1.95-1.58,3.53-3.53,3.53s-3.53-1.58-3.53-3.53,1.58-5.53,3.53-5.53,3.53,3.58,3.53,5.53Z"/>
      <path class="cls-4" d="M71.66,35.3c0,1.67-1.35,5.02-3.02,5.02s-3.02-3.35-3.02-5.02,1.35-3.02,3.02-3.02,3.02,1.35,3.02,3.02Z"/>
      <path class="cls-4" d="M65.62,60.82c0,1.95-1.58,5.53-3.53,5.53s-3.53-3.58-3.53-5.53,1.58-3.53,3.53-3.53,3.53,1.58,3.53,3.53Z"/>
      <path class="cls-4" d="M75.44,80.73c0,1.95-1.58,3.53-3.53,3.53s-3.53-1.58-3.53-3.53,1.58-5.53,3.53-5.53,3.53,3.58,3.53,5.53Z"/>
    </g>
    <rect class="cls-1" width="112" height="112"/>
  </g>
</svg>