<?xml version="1.0" encoding="UTF-8"?>
<svg id="flatten_icons" xmlns="http://www.w3.org/2000/svg" viewBox="0 0 112 112">
  <defs>
    <style>
      .cls-1 {
        fill: none;
      }

      .cls-2 {
        fill: #7c6053;
      }

      .cls-3 {
        fill: #ffe876;
      }

      .cls-4 {
        fill: #edb964;
      }

      .cls-5 {
        fill: #004241;
      }

      .cls-6 {
        fill: #eee;
      }
    </style>
  </defs>
  <g id="pain_au_raisin">
    <ellipse class="cls-4" cx="55.5" cy="56.84" rx="49.02" ry="38.4"/>
    <path class="cls-3" d="M104.53,56.84c0-1.42-.11-2.82-.3-4.2-.8,3-2.04,6.15-3.94,7.74-4.24,3.54-5.54.32-9.49,9.18s-13.77,12.18-24.53,12.34c-10.76.16-13.13,3.96-18.36,5.38-5.22,1.42-8.07-4.59-14.56-7.75s-8.39,1.27-14.72-3.02c-6.33-4.28-10.91-17.22-10.78-28.72-.9,2.9-1.38,5.93-1.38,9.05,0,21.21,21.95,38.4,49.02,38.4s49.02-17.19,49.02-38.4Z"/>
    <path class="cls-3" d="M34.67,33.98s-21.51,18.02-4.48,35.72c24.95,17.36,49.06,2.78,54.44-3.94s4.29-14.2,2.78-18.51-3.04-7.62-10.01-8.1-18.1-1.27-25.95.14-13.88,12.53-8.92,17.56,12.98,2.57,12.98,2.57c9.11.88,7.67-3.53,4.67-7.4s-6.18-1.96-4.11-7.79,10.99-3.89,14.7-.88,7.95,4.42,11.3,8.67-1.06,11.29-8.8,11.29-9.22,3-17.78,5.09-14.76-.33-16.7-5.45-7.6-6.18-9.36-10.94,1.24-9.55,5.48-14.23c0,0,7.28-5.55-.25-3.79"/>
    <path class="cls-5" d="M55.32,78.51c-6.05,0-12.17-.89-17.6-2.77-9.83-3.4-15.77-9.57-16.73-17.39-2.81-22.99,18.88-28.84,19.1-28.9,1.07-.27,2.16.37,2.44,1.44.27,1.07-.37,2.16-1.44,2.43-.79.21-18.5,5.09-16.12,24.54.97,7.96,8.19,12.06,14.06,14.09,14.28,4.94,34.34,2.42,42.08-5.28,5.27-5.25,7.2-11.09,5.44-16.44-1.69-5.12-6.59-8.98-12.5-9.85-7.23-1.06-14.55-.96-20.07.29-6.68,1.51-10.53,4.51-11.43,8.91-.51,2.5,0,4.46,1.54,5.98,3.98,3.93,13.86,4.35,21.14,2.75,1.98-.43,5.27-1.56,5.11-4.22-.12-1.99-2.05-4.06-3.99-4.25-1.1-.11-1.9-1.09-1.79-2.19.11-1.1,1.08-1.9,2.19-1.79,3.88.39,7.35,4.05,7.58,8,.09,1.52-.25,6.6-8.24,8.36-8.25,1.82-19.53,1.4-24.81-3.81-2.52-2.48-3.44-5.82-2.65-9.64,2.59-12.64,21.01-14.55,36-12.35,7.39,1.08,13.56,6.01,15.72,12.55,2.23,6.77-.11,14.25-6.42,20.53-5.79,5.76-17.07,8.99-28.61,8.99Z"/>
    <path class="cls-5" d="M55.5,97.24c-16.13,0-31.55-6.06-41.25-16.21-6.8-7.12-10.18-15.52-9.78-24.28,1.04-22.6,23.46-40.31,51.02-40.31s49.55,17.31,51.02,40.27h0c.55,8.65-2.67,16.96-9.3,24.04-9.68,10.32-25.28,16.49-41.72,16.49ZM55.5,20.44c-25.42,0-46.08,16.03-47.03,36.49-.35,7.65,2.65,15.02,8.67,21.33,8.95,9.38,23.29,14.97,38.35,14.97s29.86-5.69,38.8-15.22c5.86-6.25,8.71-13.53,8.23-21.05h0c-1.33-20.82-21.55-36.53-47.03-36.53Z"/>
    <g>
      <path class="cls-2" d="M85.92,26.82c0,2.55-2.07,4.62-4.62,4.62s-5.97-2.98-5.97-5.53,3.42-3.7,5.97-3.7,4.62,2.07,4.62,4.62Z"/>
      <path class="cls-5" d="M81.3,33.43c-3.48,0-7.97-3.65-7.97-7.53s4.11-5.7,7.97-5.7c3.65,0,6.62,2.97,6.62,6.62s-2.97,6.62-6.62,6.62ZM81.3,24.2c-1.97,0-3.97.86-3.97,1.7,0,1.35,2.45,3.53,3.97,3.53s2.62-1.17,2.62-2.62-1.17-2.62-2.62-2.62Z"/>
    </g>
    <g>
      <path class="cls-2" d="M53.06,42.39c0,2.55-3.68,4.62-6.23,4.62s-4.62-2.07-4.62-4.62,2.07-4.62,4.62-4.62,6.23,2.07,6.23,4.62Z"/>
      <path class="cls-5" d="M46.83,49c-3.65,0-6.62-2.97-6.62-6.62s2.97-6.62,6.62-6.62c3.28,0,8.23,2.64,8.23,6.62s-4.96,6.62-8.23,6.62ZM46.83,39.77c-1.44,0-2.62,1.17-2.62,2.62s1.17,2.62,2.62,2.62c1.78,0,4.23-1.52,4.23-2.62s-2.45-2.62-4.23-2.62Z"/>
    </g>
    <g>
      <path class="cls-2" d="M101.54,77.89c0,2.55-2.07,4.62-4.62,4.62s-4.62-2.07-4.62-4.62,3.35-6.6,5.9-6.6,3.34,4.05,3.34,6.6Z"/>
      <path class="cls-5" d="M96.93,84.51c-3.65,0-6.62-2.97-6.62-6.62s4.08-8.6,7.9-8.6,5.34,4.32,5.34,8.6c0,3.65-2.97,6.62-6.62,6.62ZM98.21,73.29c-1.31,0-3.9,3.05-3.9,4.6,0,1.44,1.17,2.62,2.62,2.62s2.62-1.17,2.62-2.62c0-2.71-.87-4.6-1.34-4.6Z"/>
    </g>
    <g>
      <path class="cls-2" d="M19.44,36.96c0,2.55-3.73,5.43-6.28,5.43s-4.62-2.07-4.62-4.62,2.08-4.38,4.62-4.62c4.62-.43,6.28,1.26,6.28,3.81Z"/>
      <path class="cls-5" d="M13.16,44.39c-3.65,0-6.62-2.97-6.62-6.62s2.7-6.26,6.43-6.61c3.07-.29,5.27.22,6.74,1.57.78.71,1.72,2.03,1.72,4.23,0,3.76-4.74,7.43-8.28,7.43ZM14.52,35.08c-.35,0-.74.02-1.17.06-1.35.13-2.8,1-2.8,2.63,0,1.44,1.17,2.62,2.62,2.62,1.6,0,4.28-2.15,4.28-3.43,0-.9-.31-1.18-.41-1.27-.22-.2-.86-.6-2.5-.6Z"/>
    </g>
    <g>
      <path class="cls-2" d="M31.65,66.69c.94,2.37-.23,5.05-2.6,5.99s-6.41-.32-7.35-2.7,1.58-4.95,3.96-5.89,5.05.23,5.99,2.6Z"/>
      <path class="cls-5" d="M27.24,74.99c-.99,0-2.03-.18-3.05-.53-2.11-.73-3.69-2.1-4.34-3.74-.69-1.75-.33-3.68,1.01-5.43,1.01-1.32,2.49-2.43,4.07-3.05,1.64-.65,3.44-.62,5.06.08,1.62.7,2.87,2,3.52,3.64.65,1.64.62,3.44-.08,5.06-.7,1.62-2,2.87-3.64,3.52-.77.3-1.64.45-2.55.45ZM27.36,65.77c-.33,0-.65.06-.96.18-.9.35-1.81,1.03-2.36,1.76-.26.35-.68,1-.47,1.53.21.54.97,1.1,1.93,1.44,1.02.35,2.13.41,2.82.14.65-.26,1.16-.75,1.44-1.39.28-.64.29-1.35.03-2h0c-.26-.65-.75-1.16-1.39-1.44-.33-.14-.69-.22-1.04-.22Z"/>
    </g>
    <path class="cls-6" d="M45.8,26.82c.85-4.05,6.4-2.98,10.34-2.59s9.28-.25,11.86.99,1.98,2.18,4.36,4.95,1.19,3.9-2.77,1.26-5.35-3.58-11.89-3.11-12.68,2.27-11.89-1.51Z"/>
    <rect class="cls-1" width="112" height="112"/>
  </g>
</svg>