<?xml version="1.0" encoding="UTF-8"?>
<svg id="flatten_icons" xmlns="http://www.w3.org/2000/svg" viewBox="0 0 112 112">
  <defs>
    <style>
      .cls-1 {
        fill: none;
      }

      .cls-2 {
        fill: #a5713d;
      }

      .cls-3 {
        fill: #87634b;
      }

      .cls-4 {
        fill: #edb964;
      }

      .cls-5 {
        fill: #004241;
      }

      .cls-6 {
        fill: #eee;
      }
    </style>
  </defs>
  <g id="painchocolat">
    <g>
      <g>
        <path class="cls-4" d="M105.09,52.71h0c-.32-10.36-10.65-24.64-26.16-28.07-5.63-1.25-11.24-.91-16.33.47-1.38.37-2.79.64-4.21.68-4.99.14-14.84,2.41-29.87,14.41-11.58,9.25-16.21,17.2-17.96,22.8-.35,1.13-.86,2.2-1.54,3.17-1.25,1.78-2.12,3.63-2.52,5.45-2.29,10.33,11.17,15.97,28.45,19.8,11.33,2.51,21.5,3.62,27.8,1.17,1.34-.52,2.77-.74,4.2-.83,2.27-.14,4.48-.47,6.58-1.04,24.75-6.75,33.89-22.76,31.57-38.01Z"/>
        <path class="cls-5" d="M53.77,95.96c-5.11,0-11.45-.86-19.26-2.59-14.28-3.16-32.92-8.9-29.98-22.19.45-2.05,1.41-4.13,2.83-6.16.54-.78.97-1.66,1.27-2.62,2.46-7.86,8.73-15.86,18.62-23.76,14.99-11.97,25.17-14.68,31.06-14.85,1.11-.03,2.34-.23,3.75-.61,5.74-1.55,11.72-1.72,17.28-.49,16.09,3.56,27.29,18.28,27.72,29.84,2.15,14.48-5.4,32.58-33.04,40.12-2.14.58-4.49.96-6.98,1.11-1.43.09-2.6.31-3.6.7-2.59,1-5.78,1.51-9.69,1.51ZM71.82,25.87c-2.89,0-5.82.39-8.69,1.17-1.72.46-3.25.71-4.68.75-4.33.12-13.81,2.1-28.68,13.98-11.54,9.21-15.78,16.96-17.3,21.83-.42,1.35-1.03,2.6-1.81,3.72-1.12,1.6-1.87,3.2-2.21,4.73-1.65,7.45,6.91,12.98,26.94,17.42,12.8,2.84,21.52,3.25,26.65,1.26,1.38-.54,2.95-.85,4.8-.96,2.22-.13,4.29-.46,6.17-.97,16.51-4.5,33.08-16.26,30.12-35.78-.01-.08-.02-.16-.02-.24-.3-9.88-10.48-23.06-24.59-26.18-2.17-.48-4.41-.72-6.68-.72Z"/>
      </g>
      <path class="cls-5" d="M68.77,86.52c-.14,0-.29-.01-.43-.05-1.08-.24-1.76-1.31-1.52-2.39,3.1-14.02-10.19-25.09-20.56-27.39-1.08-.24-1.76-1.31-1.52-2.39s1.31-1.76,2.39-1.52c19.11,4.23,25.99,21.4,23.6,32.16-.21.93-1.03,1.57-1.95,1.57Z"/>
      <path class="cls-5" d="M13.2,59.42c-.56,0-1.12-.24-1.52-.7-.72-.84-.63-2.1.21-2.82.46-.4,11.42-9.66,23.54-4.05,1,.46,1.44,1.65.97,2.66s-1.65,1.44-2.66.98c-9.76-4.52-19.16,3.37-19.25,3.45-.38.32-.84.48-1.3.48Z"/>
      <g>
        <path class="cls-3" d="M31.33,75.92c-1.22,3.23-4.81,3.28-8.67,1.83s-6.51-3.88-5.29-7.1,4.81-3.28,8.67-1.83c3.85,1.46,6.51,3.88,5.29,7.1Z"/>
        <path class="cls-5" d="M26.98,80.66c-1.5,0-3.18-.35-5.02-1.05-5.54-2.1-7.95-5.72-6.45-9.68.82-2.18,2.57-3.58,4.91-3.94,1.8-.28,3.93.04,6.33.95,2.4.91,4.21,2.08,5.38,3.48,1.52,1.82,1.9,4.02,1.08,6.2h0c-.82,2.18-2.57,3.58-4.91,3.94-.42.06-.85.1-1.31.1ZM21.73,69.9c-.25,0-.48.02-.7.05-.93.14-1.46.56-1.78,1.4-.37.97-.32,2.85,4.13,4.53,1.72.65,3.21.9,4.31.74.93-.14,1.46-.56,1.78-1.4h0c.32-.84.2-1.5-.41-2.23-.71-.85-2-1.65-3.72-2.3-1.38-.52-2.61-.79-3.6-.79Z"/>
      </g>
      <g>
        <path class="cls-3" d="M54.05,80.5c-.54,3.41-4.04,4.2-8.11,3.56s-7.16-2.46-6.63-5.87,4.04-4.2,8.11-3.56,7.16,2.46,6.63,5.87Z"/>
        <path class="cls-5" d="M48.38,86.26c-.86,0-1.77-.08-2.74-.23-2.53-.4-4.54-1.17-5.97-2.31-1.86-1.47-2.68-3.55-2.32-5.85.66-4.19,4.54-6.14,10.4-5.22,2.53.4,4.54,1.17,5.97,2.31,1.86,1.47,2.68,3.55,2.32,5.85-.36,2.3-1.78,4.03-4.01,4.86-1.05.39-2.27.59-3.65.59ZM44.96,76.41c-2.85,0-3.54,1.24-3.67,2.08-.14.89.12,1.51.85,2.1.87.69,2.29,1.2,4.11,1.49,1.82.29,3.33.23,4.37-.16.88-.33,1.32-.85,1.46-1.73h0c.14-.89-.12-1.51-.85-2.1-.87-.69-2.29-1.21-4.11-1.49-.83-.13-1.54-.19-2.16-.19Z"/>
      </g>
      <path class="cls-2" d="M79.17,82.16c-1.28.71-2.83-.31-2.67-1.77.91-8.6-.88-22.24-10.86-28.31-11.51-7-.53-5.02,3.56-2.55,2.09,1.26,5.86,4.04,9.05,6.46,1.79,1.36,4.21-.54,3.32-2.6-2.07-4.84-5.76-10.85-11.85-13.27-10.49-4.17-2.85-3.96,3.84-2.48,3.45.77,7.07,3.62,10.07,6.7,1.73,1.78,4.63-.25,3.53-2.47-.45-.92-.98-1.74-1.59-2.37-3.34-3.47,1.24-4.95,7.55,4.33s6.68,18.46,4.21,23.4c-2.3,4.58-5.12,7.68-18.15,14.92Z"/>
      <path class="cls-6" d="M50.72,32.47c-3.22,1.96-12.87,7.93-17.45,11.76-.52.43-.21,1.28.46,1.28,4.64-.01,12.51,1.98,10.09.03l-1.74-1.56c-.64-.57-.36-1.62.48-1.81,1.61-.36,4.2-.73,7.58-.47,1.11.09,1.57-1.39.61-1.95-1.08-.64-2.31-1.19-3.48-1.35-2.56-.34,1.26-2.15,5.4-2.14,1.12,0,1.71-1.33,1-2.18l-1.07-1.29c-.46-.56-1.26-.69-1.87-.32Z"/>
      <path class="cls-2" d="M33.01,63.61c4.32.61,1.8,5.49,5.32,4.93s11.12-1.13,16.61,1.97c5.49,3.1-3.38-6.47-9.57-8.44,0,0-9.43-2.82-17.17-2.82-7.74,0-4.17,3.1,4.81,4.37Z"/>
    </g>
    <rect class="cls-1" width="112" height="112"/>
  </g>
</svg>