<svg xmlns="http://www.w3.org/2000/svg" id="flatten_icons" data-name="flatten icons" viewBox="0 0 112 112"><defs><style>.cls-3,.cls-4,.cls-7{stroke-width:0}.cls-3{fill:#f4942c}.cls-4{fill:#fff}.cls-7{fill:#004241}</style></defs><path d="M0 0h112v112H0z" style="fill:none;stroke-width:0"/><circle cx="66.76" cy="61.01" r="42.26" style="stroke-width:0;fill:#ffb345"/><path d="M103.97 48.95c-.21.81-.71 1.52-1.42 1.97l-3.12 2a3.32 3.32 0 0 0-1.49 3.26l.64 4.42c.29 2-1.27 3.79-3.29 3.78h-1.93c-1.99-.03-3.54 1.7-3.31 3.68l.52 4.4a3.3 3.3 0 0 1-3.75 3.66l-1.65-.24c-1.61-.23-3.16.74-3.63 2.3l-.89 2.89c-.72 2.34-3.65 3.12-5.43 1.43l-2.79-2.64c-1.78-1.69-4.72-.91-5.43 1.44l-.59 1.93c-.7 2.31-3.57 3.11-5.37 1.5a3.3 3.3 0 0 0-4.06-.28l-5.01 3.4a3.303 3.303 0 0 1-4.93-1.53l-.22-.56a3.29 3.29 0 0 0-2.81-2.09l-11.91-.95c-.3-.02-.59 0-.88.05 7.08 10.97 18.68 18.52 29.46 20.08 18.48 2.68 44.1-9.66 47.89-35.76 1.34-9.24.13-17.51-2.99-24.5l-1.62 6.37Z" class="cls-3"/><path d="M63.37 104.9c-.92 0-1.85-.02-2.76-.06-9.63-.45-19.86-6.15-27.37-15.25-8.29-10.05-12.04-22.78-10.28-34.93 3.62-24.97 25.18-41.07 50.15-37.46 25.79 3.74 41.19 24.36 37.46 50.16-3.79 26.17-25.98 37.54-47.2 37.54m2.57-84.22c-20.06 0-36 13.71-39.02 34.56-1.6 11.03 1.83 22.63 9.41 31.8 6.8 8.24 15.95 13.4 24.47 13.8 20.22.95 42.22-9.22 45.82-34.05 3.4-23.46-10.61-42.22-34.07-45.62q-3.36-.48-6.6-.48Z" class="cls-7"/><path d="M37.23 51.72c-.24 0-.49-.04-.73-.14a1.99 1.99 0 0 1-1.13-2.59c4.14-10.56 10.31-15 10.57-15.18.9-.64 2.15-.42 2.79.48s.42 2.15-.48 2.78c-.1.07-5.5 4.06-9.15 13.38-.31.79-1.06 1.27-1.86 1.27Z" class="cls-4"/><path d="M71.6 29.19c-.37 0-.74-.1-1.07-.31a2.005 2.005 0 0 1-.62-2.76c2.12-3.35 7.31-13.4 5.86-19.57a2.01 2.01 0 0 1 1.49-2.41c1.08-.26 2.15.41 2.41 1.49 2.14 9.08-6.02 22.08-6.37 22.63a2 2 0 0 1-1.69.93Z" class="cls-7"/><path d="M78.42 11.64S89.35-4.27 110 17.78c0 0-21.05 6.61-31.58-6.14" style="stroke-width:0;fill:#aad681"/><path d="M97.8 21.49c-9.06 0-16.28-2.96-20.92-8.58-.57-.69-.61-1.67-.11-2.41.16-.24 4.07-5.8 11.6-6.37 7.19-.54 14.95 3.59 23.09 12.27.47.5.65 1.21.48 1.88s-.68 1.19-1.34 1.4c-.23.07-5.62 1.74-12.42 1.8h-.38Zm-16.71-9.88c7.32 7.3 19.23 6.16 24.99 5.05-6.25-5.96-12.2-8.92-17.34-8.53-3.77.26-6.33 2.19-7.65 3.49Z" class="cls-7"/><path d="M70.47 58.18s8.68 34.78-21.9 45.53C18 114.47 2 82.27 2 82.27" class="cls-3"/><path d="M8.23 81.54c5.32 7.9 18.45 22.82 38.37 15.82 19.92-7.01 20.33-26.69 19.29-36.1z" class="cls-4"/><path d="m47.68 71.36 10.99 3.47c1.5.47 3.04-.58 3.17-2.15.25-3.07.06-5.81-.18-7.75a2.433 2.433 0 0 0-3.23-2l-10.82 3.81c-2.21.78-2.16 3.92.07 4.63Zm-11.3 7.78-6.77 12.69c-.75 1.4.02 3.13 1.56 3.52 3.37.86 7.18 1.01 11.42-.01 1.39-.33 2.17-1.83 1.69-3.18l-4.49-12.77c-.54-1.54-2.65-1.7-3.42-.26Zm8.01-4.35c-.77-.29-1.51.51-1.16 1.26l6.23 13.37c.68 1.45 2.54 1.85 3.78.85 2.63-2.12 4.5-4.61 5.81-7.21.65-1.28-.02-2.84-1.36-3.33L44.38 74.8Zm-12.08 1.9c1.18-1.96-.74-4.32-2.9-3.56l-14.36 5.05a2.44 2.44 0 0 0-1.24 3.64c1.35 2.05 3.56 4.98 6.6 7.65 1.44 1.26 3.67.91 4.66-.73 2.63-4.38 7.24-12.05 7.24-12.05" style="stroke-width:0;fill:#ef6e50"/><path d="M36.41 107.9C12.82 107.9.35 83.44.21 83.16a1.997 1.997 0 0 1 1.13-2.77L69.81 56.3a1.97 1.97 0 0 1 1.61.13c.5.27.86.73.99 1.28.09.37 8.75 36.67-23.17 47.9-4.59 1.61-8.87 2.31-12.83 2.31ZM4.92 83.36c1.66 2.73 5.13 7.82 10.3 12.23 9.78 8.33 20.78 10.43 32.7 6.24 11.94-4.2 19.04-12.69 21.11-25.24 1.09-6.62.44-12.66-.07-15.75z" class="cls-7"/></svg>