<?xml version="1.0" encoding="UTF-8"?>
<svg id="flatten_icons" data-name="flatten icons" xmlns="http://www.w3.org/2000/svg" viewBox="0 0 112 112">
  <defs>
    <style>
      .cls-1 {
        fill: none;
      }

      .cls-1, .cls-2, .cls-3, .cls-4, .cls-5, .cls-6 {
        stroke-width: 0px;
      }

      .cls-2 {
        fill: #d3cca5;
      }

      .cls-3 {
        fill: #edd091;
      }

      .cls-4 {
        fill: #ede5b4;
      }

      .cls-5 {
        fill: #fbe4ac;
      }

      .cls-6 {
        fill: #004241;
      }
    </style>
  </defs>
  <rect class="cls-1" width="112" height="112"/>
  <g>
    <g>
      <path class="cls-2" d="m10.33,28.69s-2.49-5.36,0-12.26c1.25-3.45,3.5-5.75,5.44-7.18,1.84-1.36,4.12-1.98,6.41-1.88l8.33.39"/>
      <path class="cls-6" d="m10.32,30.69c-.75,0-1.47-.43-1.81-1.15-.12-.25-2.81-6.2-.07-13.78,1.15-3.19,3.27-6,6.13-8.11,2.15-1.6,4.89-2.39,7.69-2.27l8.33.39c1.1.05,1.96.99,1.9,2.09-.05,1.1-.98,1.93-2.09,1.9l-8.33-.39c-1.89-.1-3.71.44-5.12,1.49-2.25,1.67-3.85,3.77-4.75,6.26-2.16,5.97-.15,10.55-.06,10.74.45,1,.01,2.19-.99,2.65-.27.12-.56.18-.84.18Z"/>
    </g>
    <path class="cls-5" d="m26.06,10.08C6.87,18.33,7.7,41.88,15.53,54.84s22.8,11.78,32.98,22.38,17.25,18.84,30.2,21.2c10.91,1.98,10.96,5.64,19.14,8.15,2.66.82,5.27-1.41,4.9-4.16-.87-6.54-2.45-17.32-4.02-22.83-2.36-8.24-5.89-20.02-11.78-25.91S60.7,9.01,48.51,6.01c-12.2-2.99-22.45,4.07-22.45,4.07Z"/>
    <path class="cls-3" d="m95.32,105.65l-10.13-15.89c-.42-.66-1.08-1.14-1.84-1.33l-3.74-.94c-1.36-.34-2.32-1.57-2.32-2.97v-5.55c0-2.17-2.19-3.65-4.2-2.84l-6.73,2.69c-1.2.48-2.58.15-3.44-.83l-8.46-9.65c-.41-.46-.66-1.04-.74-1.65l-.57-4.63c-.22-1.78-1.9-2.99-3.66-2.63l-9.49,1.95c-1.24.25-2.5-.28-3.19-1.33l-7.58-11.7c-.22-.34-.37-.73-.45-1.13-.4-2.28-3.09-3.32-4.9-1.88-1.65,1.31-3.34,2.49-4.03,2.49-1.53,0-9.51-12.4-9.53-12.43-.03,7.07,2,14.13,5.2,19.42,7.83,12.95,22.8,11.78,32.98,22.38,10.18,10.6,17.25,18.84,30.2,21.2,9.65,1.75,10.81,4.81,16.61,7.24Z"/>
    <path class="cls-6" d="m98.97,108.72c-.57,0-1.15-.08-1.71-.26-3.72-1.14-5.87-2.5-7.95-3.82-2.6-1.65-5.06-3.2-10.96-4.27-12.69-2.31-19.97-9.94-29.2-19.6l-2.09-2.18c-4.26-4.43-9.6-6.75-14.76-9-6.79-2.95-13.81-6-18.48-13.73-5.48-9.06-7.02-21.15-3.92-30.8,2.47-7.7,7.73-13.48,15.2-16.75,1.5-.98,11.7-7.24,23.88-4.25,8.49,2.08,18.9,17.33,30.64,35.54,3.79,5.88,7.06,10.96,8.74,12.64,5.99,5.99,9.48,16.96,12.29,26.77,1.55,5.43,3.08,15.57,4.08,23.11.26,1.97-.49,3.92-2.01,5.21-1.07.9-2.39,1.38-3.75,1.38ZM42.34,7.28c-8.56,0-15.06,4.4-15.14,4.46-.11.08-.22.14-.35.19-6.56,2.82-10.99,7.65-13.14,14.37-3.14,9.77-.49,20.86,3.53,27.51,4.01,6.63,10.15,9.3,16.65,12.13,5.53,2.4,11.24,4.88,16.05,9.9l2.09,2.19c9.06,9.49,15.61,16.35,27.02,18.43,6.67,1.21,9.57,3.05,12.38,4.83,1.94,1.23,3.77,2.39,6.98,3.37.85.26,1.47-.16,1.7-.35.23-.19.75-.74.63-1.63-.81-6.07-2.4-17.07-3.96-22.54-1.93-6.74-5.51-19.29-11.27-25.04-1.98-1.98-5.2-6.98-9.28-13.3-8.2-12.72-20.6-31.95-28.23-33.82-1.96-.48-3.87-.68-5.69-.68Zm-16.28,2.81h0,0Z"/>
    <g>
      <path class="cls-4" d="m31.62,49.91s-3.16,9.55,1.18,17.72"/>
      <path class="cls-6" d="m32.8,69.63c-.72,0-1.41-.38-1.77-1.06-4.69-8.82-1.45-18.87-1.31-19.29.35-1.05,1.48-1.62,2.53-1.27,1.05.35,1.62,1.48,1.27,2.52h0c-.03.09-2.83,8.87,1.05,16.16.52.97.15,2.19-.83,2.7-.3.16-.62.23-.94.23Z"/>
    </g>
    <g>
      <path class="cls-4" d="m44.74,31.27s6.03-10.7,18.2-12.43"/>
      <path class="cls-6" d="m44.74,33.27c-.33,0-.67-.08-.98-.26-.96-.54-1.3-1.76-.76-2.72.27-.47,6.66-11.58,19.66-13.43,1.1-.16,2.11.61,2.26,1.7.16,1.09-.61,2.11-1.7,2.26-11.01,1.56-16.69,11.33-16.74,11.43-.37.65-1.05,1.01-1.74,1.01Z"/>
    </g>
    <g>
      <path class="cls-4" d="m53.84,82.77s-3.76-9.73,2.72-16.63"/>
      <path class="cls-6" d="m53.84,84.77c-.8,0-1.56-.48-1.86-1.28-.17-.45-4.13-10.99,3.12-18.72.76-.81,2.02-.85,2.83-.09.81.76.85,2.02.09,2.83-5.52,5.88-2.44,14.2-2.31,14.55.39,1.03-.12,2.19-1.15,2.58-.24.09-.48.13-.72.13Z"/>
    </g>
    <g>
      <path class="cls-4" d="m53.84,49.91s3.14-6.9,9.1-7.94"/>
      <path class="cls-6" d="m53.84,51.91c-.28,0-.56-.06-.83-.18-1-.46-1.45-1.64-.99-2.64.15-.32,3.66-7.88,10.58-9.08,1.09-.18,2.12.54,2.31,1.63.19,1.09-.54,2.12-1.63,2.31-4.83.84-7.6,6.74-7.62,6.8-.34.73-1.06,1.17-1.82,1.17Z"/>
    </g>
    <g>
      <path class="cls-4" d="m97.22,74.45s-1.73,8.25-3.81,10.32"/>
      <path class="cls-6" d="m93.41,86.78c-.51,0-1.02-.2-1.41-.59-.78-.78-.78-2.05,0-2.83,1.02-1.02,2.49-5.63,3.26-9.32.23-1.08,1.29-1.77,2.37-1.54,1.08.23,1.77,1.29,1.55,2.37-.31,1.48-1.98,8.96-4.35,11.33-.39.39-.9.59-1.41.59Z"/>
    </g>
    <path class="cls-6" d="m41.45,39.02c-.54,0-1.04-.21-1.42-.58-.38-.38-.58-.88-.58-1.42,0-.13.01-.26.04-.39.02-.13.06-.25.11-.37.05-.12.11-.24.18-.35.08-.11.16-.21.25-.3.75-.75,2.09-.75,2.83,0,.09.09.18.19.25.3.07.11.13.23.18.35.05.12.09.24.12.37.02.13.04.26.04.39,0,.54-.21,1.04-.59,1.42-.38.37-.88.58-1.41.58Z"/>
    <g>
      <path class="cls-4" d="m79.44,55s3.65-1.61,8.2,0"/>
      <path class="cls-6" d="m87.64,57c-.22,0-.45-.04-.67-.12-3.7-1.31-6.7-.07-6.73-.06-1.01.45-2.19,0-2.64-1.02-.45-1.01,0-2.19,1.02-2.64.18-.08,4.44-1.92,9.68-.06,1.04.37,1.59,1.51,1.22,2.55-.29.82-1.06,1.33-1.89,1.33Z"/>
    </g>
  </g>
</svg>