<svg xmlns="http://www.w3.org/2000/svg" width="19" height="24" fill="none"><g clip-path="url(#a)"><path fill="#AFE0DD" d="m17.598 23.143-.909-6.574c0-2.293-1.719-4.299-3.618-5.434 1.463-1.042 2.412-2.696 2.412-4.569 0-3.15-2.682-5.709-5.99-5.709-3.307 0-5.984 2.555-5.984 5.709 0 1.873.95 3.531 2.412 4.569-1.9 1.135-3.618 3.141-3.618 5.434l-.91 6.574"/><path fill="#003332" d="M17.598 24c-.445 0-.832-.313-.89-.746l-.91-6.574c-.004-.039-.009-.073-.009-.111 0-2.062-1.651-3.785-3.195-4.71a.836.836 0 0 1-.058-1.41c1.305-.93 2.052-2.345 2.052-3.883 0-2.675-2.282-4.852-5.09-4.852s-5.09 2.177-5.09 4.852c0 1.538.748 2.957 2.053 3.883a.83.83 0 0 1-.059 1.41c-1.543.925-3.195 2.648-3.195 4.71 0 .038 0 .072-.009.111l-.909 6.574c-.063.472-.517.802-1.008.737-.495-.06-.841-.492-.774-.96l.9-6.518c.023-2.284 1.476-4.204 3.083-5.447a6.33 6.33 0 0 1-1.877-4.5C2.61 2.944 5.7 0 9.498 0s6.89 2.944 6.89 6.566c0 1.701-.675 3.291-1.877 4.5 1.607 1.247 3.056 3.163 3.083 5.447l.9 6.518c.063.468-.284.9-.774.96q-.061.008-.117.009z"/></g><defs><clipPath id="a"><path fill="#fff" d="M.499 0h18.002v24H.499z"/></clipPath></defs></svg>