<svg xmlns="http://www.w3.org/2000/svg" id="flatten_icons" data-name="flatten icons" viewBox="0 0 112 112"><defs><style>.cls-3,.cls-4,.cls-5{stroke-width:0}.cls-3{fill:#70bc57}.cls-4{fill:#aad681}.cls-5{fill:#004241}</style></defs><path d="M0 0h112v112H0z" style="fill:none;stroke-width:0"/><circle cx="47.26" cy="53.63" r="45.25" class="cls-3"/><path d="M47.16 100.89c-9.3 0-18.39-2.75-26.28-8.07C10.4 85.78 3.31 75.08.89 62.69s.13-24.97 7.18-35.44S25.82 9.68 38.21 7.26s24.97.13 35.44 7.17c10.47 7.05 17.57 17.75 19.99 30.13 5 25.57-11.74 50.43-37.31 55.43-3.05.6-6.12.89-9.16.89Zm.11-90.51c-2.74 0-5.52.26-8.31.81-11.34 2.21-21.13 8.71-27.58 18.29S2.6 50.58 4.81 61.92s8.71 21.13 18.3 27.58 21.1 8.78 32.44 6.57c23.4-4.57 38.72-27.33 34.15-50.74-4.03-20.61-22.17-34.96-42.43-34.96Z" class="cls-5"/><path d="M55.93 98.04c12.95-2.53 19.56-24.46 14.77-48.99C65.91 24.53 51.53 6.69 38.58 9.22l17.35 88.81Z" class="cls-4"/><path d="M55.93 100.04c-.94 0-1.77-.66-1.96-1.62L36.62 9.61c-.21-1.08.5-2.13 1.58-2.35 7.03-1.37 14.5 2.35 21.06 10.47 6.27 7.77 11.03 18.75 13.41 30.93s2.1 24.14-.78 33.7c-3.01 10-8.54 16.26-15.57 17.63-.13.03-.26.04-.39.04ZM40.96 10.99l16.51 84.52c4.61-1.82 8.32-6.81 10.58-14.29 2.7-8.95 2.94-20.23.68-31.78S62 27.53 56.13 20.25c-4.87-6.04-10.15-9.26-15.07-9.26h-.11Z" class="cls-5"/><path d="M38.58 9.23C14.05 14.02-1.94 37.78 2.85 62.31c4.79 24.52 28.56 40.52 53.08 35.73" class="cls-4"/><path d="M47.16 100.89c-9.3 0-18.39-2.75-26.28-8.07C10.4 85.78 3.31 75.08.89 62.69s.13-24.97 7.18-35.44S25.82 9.68 38.21 7.26c1.08-.22 2.13.5 2.35 1.58s-.5 2.13-1.58 2.35C27.64 13.4 17.85 19.9 11.4 29.48s-8.78 21.1-6.57 32.44 8.71 21.13 18.3 27.58 21.1 8.78 32.44 6.57c1.08-.22 2.13.5 2.35 1.58.21 1.08-.5 2.13-1.58 2.35-3.05.6-6.12.89-9.16.89Z" class="cls-5"/><path d="M55.93 98.04c-12.95 2.53-27.33-15.3-32.12-39.83-4.79-24.52 1.82-46.46 14.77-48.99l17.35 88.81Z" class="cls-3"/><path d="M53.41 100.28c-13.35 0-26.82-17.45-31.56-41.69-2.38-12.17-2.1-24.14.78-33.7 3.01-10 8.54-16.26 15.57-17.63 1.08-.22 2.13.5 2.35 1.58L57.9 97.65c.1.52 0 1.06-.3 1.5s-.76.74-1.28.85c-.97.19-1.94.28-2.91.28M37.04 11.75c-4.61 1.82-8.32 6.81-10.58 14.29-2.7 8.95-2.94 20.23-.68 31.78 4.23 21.65 16.56 38.45 27.71 38.45h.07z" class="cls-5"/><path d="M14.47 55.86c0 26.38 21.39 47.77 47.77 47.77s47.77-21.39 47.77-47.77H97.23c-6.98 14.28-20.04 23.88-34.98 23.88s-28-9.6-34.98-23.88H14.49Z" class="cls-4"/><path d="M62.23 105.62c-27.44 0-49.77-22.33-49.77-49.77 0-.53.21-1.04.59-1.41s.88-.59 1.41-.59h12.78c.76 0 1.46.44 1.8 1.13 6.87 14.04 19.59 22.76 33.19 22.76s26.32-8.72 33.19-22.76c.34-.69 1.03-1.12 1.8-1.12H110c.53 0 1.04.21 1.41.59s.59.88.59 1.41c0 27.44-22.32 49.77-49.77 49.77ZM16.51 57.86c1.05 24.31 21.16 43.76 45.72 43.76s44.67-19.45 45.72-43.76h-9.51C90.77 72.62 77 81.74 62.22 81.74S33.67 72.62 26 57.86h-9.51Z" class="cls-5"/><path d="M91.52 55.86H22.25c0 22.08 17.9 39.98 39.98 39.98s39.98-17.9 39.98-39.98h-10.7Z" style="stroke-width:0;fill:#f56973"/><path d="M62.23 97.84c-23.15 0-41.98-18.83-41.98-41.98 0-.53.21-1.04.59-1.41s.88-.59 1.41-.59h79.96c.53 0 1.04.21 1.41.59s.59.88.59 1.41c0 23.15-18.83 41.98-41.98 41.98M24.31 57.86c1.04 20.02 17.66 35.98 37.93 35.98s36.89-15.96 37.93-35.98z" class="cls-5"/><path d="M35.03 71.74c-.61 0-1.21-.28-1.6-.8-.66-.88-.48-2.14.4-2.8l3.98-2.99c.88-.66 2.14-.48 2.8.4s.48 2.14-.4 2.8l-3.98 2.99c-.36.27-.78.4-1.2.4m10.58 11.55a1.993 1.993 0 0 1-1.59-3.21l3.03-3.94c.67-.88 1.93-1.04 2.8-.37.88.67 1.04 1.93.37 2.8l-3.03 3.94c-.39.51-.99.78-1.59.78Zm44.5-11.55c-.42 0-.84-.13-1.2-.4l-3.98-2.99a2.006 2.006 0 0 1-.4-2.8c.66-.88 1.92-1.06 2.8-.4l3.98 2.99c.88.66 1.06 1.92.4 2.8-.39.52-.99.8-1.6.8M79.52 83.29c-.6 0-1.19-.27-1.59-.78l-3.03-3.94c-.67-.88-.51-2.13.37-2.8s2.13-.51 2.8.37l3.03 3.94a1.993 1.993 0 0 1-1.59 3.21Zm-16.83 4.75c-1.1 0-2-.9-2-2v-4.95c0-1.1.9-2 2-2s2 .9 2 2v4.95c0 1.1-.9 2-2 2" class="cls-5"/></svg>