<?xml version="1.0" encoding="UTF-8"?>
<svg id="flatten_icons" xmlns="http://www.w3.org/2000/svg" viewBox="0 0 112 112">
  <defs>
    <style>
      .cls-1 {
        fill: none;
      }

      .cls-2 {
        fill: #f4d553;
      }

      .cls-3 {
        fill: #004241;
      }

      .cls-4 {
        fill: #e2ab3d;
      }
    </style>
  </defs>
  <g id="pates">
    <rect class="cls-1" y="0" width="112" height="112"/>
    <g>
      <g>
        <g>
          <path class="cls-2" d="M46.34,10.54c-14.71,0-26.63,11.92-26.63,26.63,0,7.35,2.98,14.01,7.8,18.83l9.88-7.69c-3.25-2.62-5.34-6.63-5.34-11.14,0-7.89,6.4-14.29,14.29-14.29v-12.34Z"/>
          <path class="cls-3" d="M27.52,58c-.51,0-1.03-.2-1.41-.59-5.41-5.41-8.39-12.6-8.39-20.24,0-15.79,12.84-28.63,28.63-28.63,1.1,0,2,.9,2,2v12.34c0,1.1-.9,2-2,2-6.78,0-12.29,5.51-12.29,12.29,0,3.74,1.67,7.23,4.59,9.58.48.38.75.96.75,1.57,0,.61-.29,1.19-.77,1.56l-9.88,7.69c-.36.28-.8.42-1.23.42ZM44.34,12.62c-12.65,1.02-22.63,11.64-22.63,24.55,0,5.99,2.12,11.65,6.01,16.13l6.59-5.13c-2.74-2.98-4.27-6.87-4.27-10.99,0-8.3,6.25-15.18,14.29-16.17v-8.38Z"/>
        </g>
        <g>
          <ellipse class="cls-4" cx="47.28" cy="16.73" rx="4.97" ry="6.19"/>
          <path class="cls-3" d="M47.28,24.92c-3.84,0-6.97-3.67-6.97-8.19s3.13-8.19,6.97-8.19,6.97,3.67,6.97,8.19-3.13,8.19-6.97,8.19ZM47.28,12.54c-1.61,0-2.97,1.92-2.97,4.19s1.36,4.19,2.97,4.19,2.97-1.92,2.97-4.19-1.36-4.19-2.97-4.19Z"/>
        </g>
        <g>
          <ellipse class="cls-4" cx="32.61" cy="52.29" rx="6.19" ry="4.97" transform="translate(-25.99 33.22) rotate(-40.03)"/>
          <path class="cls-3" d="M31.39,59.79c-2.02,0-3.85-.81-5.05-2.24-1.23-1.47-1.71-3.48-1.3-5.53.38-1.92,1.48-3.72,3.09-5.07,1.61-1.35,3.58-2.12,5.53-2.17,2.07-.06,3.99.77,5.22,2.24,2.47,2.94,1.67,7.7-1.79,10.6t0,0c-1.61,1.35-3.58,2.12-5.53,2.17-.06,0-.11,0-.17,0ZM35.8,56.09h0,0ZM33.82,48.78s-.05,0-.08,0c-1.03.02-2.14.47-3.04,1.23-.9.76-1.54,1.77-1.74,2.78-.1.5-.17,1.45.44,2.18.62.73,1.58.83,2.07.81,1.03-.02,2.14-.47,3.04-1.23h0c1.74-1.46,2.33-3.73,1.3-4.96-.58-.7-1.47-.81-1.99-.81Z"/>
        </g>
      </g>
      <g>
        <g>
          <path class="cls-2" d="M90.68,10.61c5.96,9.23,3.31,21.53-5.92,27.49-4.61,2.98-10,3.8-14.97,2.73l.82-9.31c2.96.98,6.32.66,9.15-1.16,4.95-3.2,6.37-9.8,3.18-14.75l7.74-5Z"/>
          <path class="cls-3" d="M74.02,43.29c-1.55,0-3.1-.16-4.65-.5-.99-.21-1.66-1.13-1.57-2.13l.82-9.31c.05-.61.38-1.16.89-1.5.51-.34,1.15-.42,1.73-.23,2.51.83,5.22.49,7.44-.94,4.02-2.59,5.17-7.97,2.58-11.98-.29-.45-.39-.99-.27-1.51s.42-.97.87-1.26l7.74-5c.93-.6,2.17-.33,2.76.6,3.17,4.91,4.24,10.76,3.01,16.48-1.23,5.71-4.61,10.61-9.52,13.78-3.58,2.31-7.66,3.51-11.82,3.51ZM71.95,39.17c4.11.48,8.21-.47,11.73-2.75,7.72-4.98,10.32-14.95,6.32-22.98l-4.42,2.85c2.47,5.59.57,12.33-4.72,15.75-2.54,1.64-5.51,2.3-8.44,1.93l-.46,5.2Z"/>
        </g>
        <g>
          <ellipse class="cls-4" cx="86.42" cy="12.53" rx="4.62" ry="3.71" transform="translate(7.02 48.88) rotate(-32.85)"/>
          <path class="cls-3" d="M85.58,18.52c-1.92,0-3.7-.83-4.72-2.4-.86-1.33-1.04-3.03-.5-4.65.5-1.49,1.55-2.82,2.97-3.73h0c3.07-1.98,6.95-1.44,8.66,1.21.86,1.33,1.04,3.03.5,4.65-.5,1.49-1.55,2.82-2.97,3.73-1.25.8-2.63,1.19-3.94,1.19ZM87.27,10.53c-.54,0-1.17.17-1.78.56,0,0,0,0,0,0-.65.42-1.13,1.01-1.34,1.63-.09.28-.2.8.07,1.22.44.68,1.83.85,3.13.02.65-.42,1.13-1.01,1.34-1.64.09-.28.2-.8-.07-1.22-.23-.36-.73-.58-1.35-.58ZM84.41,9.41h0,0Z"/>
        </g>
        <g>
          <ellipse class="cls-4" cx="70.06" cy="36.14" rx="4.62" ry="3.71" transform="translate(25.45 101.13) rotate(-82.82)"/>
          <path class="cls-3" d="M69.85,42.74c-.21,0-.41-.01-.62-.04-3.12-.39-5.29-3.66-4.84-7.28h0c.46-3.62,3.37-6.25,6.49-5.85,3.12.39,5.29,3.66,4.84,7.28-.43,3.38-2.99,5.89-5.87,5.89ZM68.36,35.92c-.19,1.53.57,2.71,1.37,2.81.79.1,1.83-.85,2.02-2.39.19-1.53-.57-2.71-1.37-2.81-.81-.1-1.83.85-2.02,2.39h0Z"/>
        </g>
      </g>
      <g>
        <g>
          <path class="cls-2" d="M20.66,79.98c-5.45,1.18-9.01,6.16-7.93,11.12.67,3.1,2.99,5.46,5.97,6.5l2.64-7.29"/>
          <path class="cls-3" d="M18.7,99.59c-.22,0-.44-.04-.66-.11-3.75-1.32-6.46-4.29-7.26-7.96-1.31-6.03,2.94-12.08,9.46-13.49,1.08-.23,2.14.45,2.38,1.53.23,1.08-.45,2.14-1.53,2.38-4.37.95-7.24,4.87-6.4,8.74.37,1.69,1.4,3.15,2.89,4.15l1.89-5.2c.38-1.04,1.53-1.57,2.56-1.2,1.04.38,1.57,1.52,1.2,2.56l-2.64,7.29c-.29.81-1.06,1.32-1.88,1.32Z"/>
        </g>
        <g>
          <ellipse class="cls-2" cx="26.04" cy="87.41" rx="6.2" ry="9.19" transform="translate(-17.91 7.49) rotate(-12.22)"/>
          <path class="cls-3" d="M27.06,98.48c-4.03,0-7.84-3.82-9.04-9.34-1.33-6.13,1.15-11.69,5.65-12.67,4.5-.97,9.06,3.07,10.39,9.2h0c1.33,6.13-1.15,11.69-5.65,12.67-.45.1-.9.14-1.35.14ZM24.97,80.34c-.15,0-.31.02-.45.05-1.94.42-3.48,3.77-2.59,7.91.9,4.14,3.69,6.56,5.63,6.13,1.94-.42,3.48-3.77,2.59-7.91h0c-.83-3.83-3.28-6.18-5.18-6.18Z"/>
        </g>
        <g>
          <ellipse class="cls-2" cx="35.24" cy="85.41" rx="6.2" ry="9.19" transform="translate(-17.28 9.4) rotate(-12.22)"/>
          <path class="cls-3" d="M36.26,96.49c-4.03,0-7.84-3.82-9.04-9.34-.6-2.78-.43-5.59.5-7.9,1.02-2.54,2.9-4.28,5.15-4.77,2.26-.49,4.69.32,6.66,2.21,1.8,1.72,3.12,4.2,3.72,6.98,1.33,6.13-1.15,11.69-5.65,12.67-.45.1-.9.14-1.35.14ZM34.2,78.34c-.16,0-.32.02-.49.05-1.28.28-1.98,1.59-2.28,2.35-.62,1.55-.73,3.58-.3,5.57.9,4.14,3.68,6.56,5.63,6.13,1.94-.42,3.48-3.77,2.59-7.91-.43-1.98-1.37-3.78-2.58-4.94-.51-.49-1.48-1.24-2.56-1.24Z"/>
        </g>
        <g>
          <ellipse class="cls-2" cx="44.44" cy="83.42" rx="6.2" ry="9.19" transform="translate(-16.65 11.3) rotate(-12.22)"/>
          <path class="cls-3" d="M45.49,94.49c-1.86,0-3.75-.82-5.35-2.35-1.8-1.72-3.12-4.2-3.72-6.98-.6-2.78-.43-5.59.5-7.9,1.02-2.54,2.9-4.28,5.15-4.77,4.5-.97,9.06,3.06,10.39,9.19h0c.6,2.78.43,5.59-.5,7.9-1.02,2.54-2.9,4.28-5.15,4.77-.43.09-.87.14-1.31.14ZM43.37,76.35c-.15,0-.31.02-.45.05-1.28.28-1.98,1.59-2.28,2.35-.62,1.55-.73,3.58-.3,5.57s1.37,3.78,2.58,4.94c.59.56,1.77,1.47,3.05,1.19,1.28-.28,1.98-1.59,2.28-2.35.62-1.55.73-3.58.3-5.57-.83-3.83-3.28-6.18-5.18-6.18Z"/>
        </g>
        <g>
          <ellipse class="cls-2" cx="53.63" cy="81.43" rx="6.2" ry="9.19" transform="translate(-16.02 13.2) rotate(-12.22)"/>
          <path class="cls-3" d="M54.69,92.5c-1.86,0-3.75-.82-5.35-2.35-1.8-1.72-3.12-4.2-3.72-6.98-.6-2.78-.43-5.59.5-7.9,1.02-2.54,2.9-4.28,5.15-4.77,2.26-.49,4.69.32,6.66,2.21,1.8,1.72,3.12,4.2,3.72,6.98h0c.6,2.78.43,5.59-.5,7.9-1.02,2.54-2.9,4.28-5.15,4.77-.43.09-.87.14-1.31.14ZM52.6,74.36c-.16,0-.32.02-.49.05-1.28.28-1.98,1.59-2.28,2.35-.62,1.55-.73,3.58-.3,5.57s1.37,3.78,2.58,4.94c.59.56,1.77,1.47,3.05,1.19,1.28-.28,1.98-1.59,2.28-2.35.62-1.55.73-3.58.3-5.57-.43-1.98-1.37-3.78-2.58-4.94-.51-.49-1.48-1.24-2.56-1.24Z"/>
        </g>
        <g>
          <path class="cls-2" d="M55.73,90.37c5.45-1.18,9.01-6.16,7.93-11.12-.67-3.1-2.99-5.46-5.97-6.5l-2.64,7.29"/>
          <path class="cls-3" d="M55.73,92.37c-.92,0-1.75-.64-1.95-1.58-.23-1.08.45-2.14,1.53-2.38,2.15-.47,4-1.66,5.21-3.35,1.17-1.64,1.59-3.55,1.19-5.39-.37-1.69-1.4-3.15-2.89-4.15l-1.89,5.2c-.38,1.04-1.52,1.58-2.56,1.2-1.04-.38-1.57-1.52-1.2-2.56l2.64-7.29c.37-1.03,1.51-1.57,2.54-1.21,3.75,1.32,6.46,4.29,7.26,7.96.64,2.96-.02,6-1.84,8.56-1.79,2.51-4.49,4.26-7.62,4.93-.14.03-.29.05-.43.05Z"/>
        </g>
      </g>
      <g>
        <path class="cls-2" d="M49.43,41.28s1.62,19.99,14.43,20.3c12.81.31,23.76-4.82,26.27,4.63s-1.57,19.16-10.02,25.73c-8.45,6.57-9.96,13.77-9.96,13.77h9.65s5.62-9.31,11.06-12.83c8.46-5.48,13.04-24.42,4.59-34.43-8.45-10.02-24.25-3.07-31.59-5.01-4.4-1.16-5.97-13.77-5.97-13.77l-8.45,1.61Z"/>
        <path class="cls-3" d="M79.79,107.72h-9.65c-.6,0-1.17-.27-1.55-.74s-.53-1.08-.4-1.67c.07-.32,1.77-8,10.69-14.94,7.97-6.2,11.53-15.25,9.31-23.64-1.22-4.61-4.69-4.7-13.57-3.77-3.26.34-6.96.72-10.82.63-6.1-.15-10.88-4.14-13.83-11.53-2.09-5.26-2.53-10.4-2.55-10.61-.08-1.02.62-1.94,1.62-2.13l8.45-1.61c.54-.1,1.1.02,1.55.35.45.32.74.82.81,1.37.67,5.33,2.68,11.61,4.5,12.09,2.08.55,5.35.23,8.8-.12,7.79-.77,17.48-1.73,23.81,5.77,4.08,4.83,5.76,12.05,4.61,19.79-1.15,7.75-4.85,14.5-9.64,17.61-5,3.24-10.38,12.1-10.44,12.19-.36.6-1.01.97-1.71.97ZM72.99,103.72h5.7c1.64-2.55,6.33-9.44,11.08-12.51,3.8-2.46,6.89-8.29,7.86-14.84.98-6.61-.37-12.67-3.71-16.62-4.97-5.89-13.14-5.08-20.36-4.37-3.82.38-7.43.74-10.21,0-4.44-1.17-6.38-8.94-7.14-13.35l-4.55.87c.72,4.59,3.45,16.48,12.25,16.69,3.6.09,7.16-.28,10.31-.61,8.04-.84,15.63-1.62,17.85,6.73,2.64,9.96-1.47,20.62-10.72,27.82-4.82,3.75-7.22,7.73-8.35,10.19Z"/>
      </g>
    </g>
  </g>
</svg>