<?xml version="1.0" encoding="UTF-8"?>
<svg id="outline_icons" xmlns="http://www.w3.org/2000/svg" viewBox="0 0 112 112">
  <defs>
    <style>
      .cls-1 {
        fill: none;
      }

      .cls-2 {
        fill: #e8b782;
      }

      .cls-3 {
        fill: #87634b;
      }

      .cls-4 {
        fill: #6b503d;
      }

      .cls-5 {
        fill: #fff;
      }

      .cls-6 {
        fill: #e2e1d7;
      }

      .cls-7 {
        fill: #86c487;
      }

      .cls-8 {
        fill: #004241;
      }

      .cls-9 {
        fill: #558e66;
      }
    </style>
  </defs>
  <g id="pateatartiner">
    <g>
      <path class="cls-3" d="M70.83,27.96h-30.11c-12.67,0-22.95,10.26-22.95,22.92v39.37c0,13.09,17.01,17.75,38,17.75s38-4.66,38-17.75v-39.37c0-12.66-10.27-22.92-22.95-22.92Z"/>
      <path class="cls-8" d="M55.77,110c-25.79,0-40-7.01-40-19.75v-39.37c0-13.74,11.19-24.92,24.95-24.92h30.11c13.76,0,24.95,11.18,24.95,24.92v39.37c0,12.74-14.21,19.75-40,19.75ZM40.72,29.96c-11.55,0-20.95,9.38-20.95,20.92v39.37c0,13.71,22.56,15.75,36,15.75s36-2.05,36-15.75v-39.37c0-11.53-9.4-20.92-20.95-20.92h-30.11Z"/>
    </g>
    <g>
      <path class="cls-6" d="M93.24,51.1c-3.02,8.93-18.64,12.22-37.46,12.22s-34.44-3.28-37.46-12.22h-.54v25.72c0,11.44,17.01,15.52,38,15.52s38-4.08,38-15.52v-25.72h-.54Z"/>
      <path class="cls-8" d="M55.77,94.34c-33.06,0-40-9.53-40-17.52v-25.72c0-1.1.9-2,2-2h.54c.86,0,1.62.55,1.89,1.36,2.37,7,15,10.86,35.57,10.86s33.2-3.86,35.57-10.86c.27-.81,1.04-1.36,1.89-1.36h.54c1.1,0,2,.9,2,2v25.72c0,7.99-6.94,17.52-40,17.52ZM19.77,56.86v19.96c0,12.2,25.18,13.52,36,13.52s36-1.32,36-13.52v-19.96c-7.23,6.85-22.92,8.45-36,8.45s-28.77-1.6-36-8.45Z"/>
    </g>
    <path class="cls-8" d="M74.44,73.51c-.95,0-1.8-.68-1.97-1.66-.19-1.09.54-2.12,1.63-2.31,4.29-.75,7.88-1.81,10.66-3.15,1-.48,2.19-.06,2.67.94.48,1,.06,2.19-.94,2.67-3.11,1.5-7.05,2.67-11.71,3.48-.12.02-.23.03-.35.03Z"/>
    <path class="cls-8" d="M74.44,81.65c-.95,0-1.8-.68-1.97-1.66-.19-1.09.54-2.12,1.63-2.31,2.46-.43,4.71-.97,6.67-1.59,1.05-.33,2.18.25,2.51,1.3s-.25,2.18-1.3,2.51c-2.14.68-4.56,1.26-7.19,1.72-.12.02-.23.03-.35.03Z"/>
    <g>
      <path class="cls-9" d="M90.05,27.09c0,4.73-15.26,8.56-34.09,8.56s-34.09-3.83-34.09-8.56v-14.53h68.19v14.53Z"/>
      <path class="cls-8" d="M55.96,37.65c-12.48,0-36.09-2.21-36.09-10.56v-14.53c0-1.1.9-2,2-2h68.19c1.1,0,2,.9,2,2v14.53c0,8.35-23.61,10.56-36.09,10.56ZM23.86,14.56v12.53c0,1.96,10.92,6.56,32.09,6.56s32.09-4.6,32.09-6.56v-12.53H23.86Z"/>
    </g>
    <g>
      <ellipse class="cls-7" cx="55.96" cy="12.56" rx="34.09" ry="8.56"/>
      <path class="cls-8" d="M55.96,23.13c-12.48,0-36.09-2.21-36.09-10.56S43.47,2,55.96,2s36.09,2.21,36.09,10.56-23.61,10.56-36.09,10.56ZM55.96,6c-21.17,0-32.09,4.6-32.09,6.56s10.92,6.56,32.09,6.56,32.09-4.6,32.09-6.56-10.92-6.56-32.09-6.56Z"/>
    </g>
    <g>
      <path class="cls-7" d="M41.32,75.94s-6.29-9.24-15.37-7.53c0,0-.47,21.62,21.68,15.07"/>
      <path class="cls-8" d="M39.99,86.71c-3.72,0-6.89-.98-9.46-2.95-6.73-5.14-6.59-14.98-6.58-15.4.02-.95.7-1.75,1.63-1.92,10.25-1.91,17.1,7.95,17.39,8.38.62.91.39,2.16-.53,2.78s-2.15.38-2.78-.52c-.07-.1-4.82-6.87-11.51-6.87-.04,0-.07,0-.11,0,.27,2.64,1.27,7.61,4.93,10.39,3.22,2.45,7.96,2.77,14.09.96,1.06-.31,2.17.29,2.49,1.35s-.29,2.17-1.35,2.49c-2.98.88-5.72,1.32-8.21,1.32Z"/>
    </g>
    <g>
      <path class="cls-2" d="M54.47,78.13c0,3.38-2.74,6.12-6.13,6.12s-6.13-2.74-6.13-6.12,2.74-8.45,6.13-8.45,6.13,5.07,6.13,8.45Z"/>
      <path class="cls-8" d="M48.34,86.25c-4.48,0-8.13-3.64-8.13-8.12,0-4.16,3.24-10.45,8.13-10.45s8.13,6.29,8.13,10.45c0,4.48-3.65,8.12-8.13,8.12ZM48.34,71.68c-1.95,0-4.13,3.85-4.13,6.45,0,2.27,1.85,4.12,4.13,4.12s4.13-1.85,4.13-4.12c0-2.61-2.17-6.45-4.13-6.45Z"/>
    </g>
    <g>
      <path class="cls-2" d="M60.49,85.41c-3.14,1.26-6.71-.25-7.97-3.39s.25-6.7,3.39-7.96c3.14-1.26,8.87-.62,10.14,2.51s-2.42,7.57-5.55,8.84Z"/>
      <path class="cls-8" d="M58.21,87.85c-3.22,0-6.27-1.92-7.55-5.08-.81-2.01-.79-4.22.06-6.22.85-2,2.43-3.54,4.44-4.35,3.86-1.56,10.91-.91,12.74,3.62.61,1.5.52,3.25-.24,5.05-1.15,2.71-3.79,5.33-6.42,6.39h0c-.99.4-2.02.59-3.03.59ZM59.45,75.44c-1.01,0-2.01.15-2.8.47-1.02.41-1.82,1.2-2.25,2.21-.43,1.01-.44,2.13-.03,3.15.85,2.11,3.26,3.13,5.37,2.28h0c1.64-.66,3.5-2.53,4.23-4.25.24-.56.47-1.36.21-1.98-.49-1.22-2.65-1.88-4.74-1.88Z"/>
    </g>
    <path class="cls-5" d="M27.36,53.1c-.1,0-.21,0-.31-.02-1.09-.17-1.84-1.19-1.67-2.28.55-3.51,1.94-6.07,4.15-7.6,2.55-1.78,6.05-2.18,10.7-1.25,11.74,2.36,18.93,1.25,19,1.24,1.09-.18,2.12.57,2.29,1.66s-.57,2.12-1.66,2.29c-.32.05-7.98,1.23-20.42-1.27-3.48-.7-6.04-.49-7.62.61-1.29.9-2.11,2.52-2.48,4.94-.15.99-1,1.69-1.97,1.69Z"/>
    <rect class="cls-1" width="112" height="112"/>
    <path class="cls-4" d="M86.11,43.02c1.04,1.62,2.25,4.07,2.09,6.43,0,0-.42,7.76-25.77,9.42,0,0-9.12.65-6.43-2.86s18.62-1.39,21.12-5.98c2.18-4.03.65-6.97,5.26-8.38,1.41-.43,2.94.13,3.73,1.38Z"/>
    <path class="cls-4" d="M87.41,92.34s-.67,6.8-10.43,8.48-18.43,2.85-17.79-1.02,19.48-1.31,28.23-7.47Z"/>
  </g>
</svg>