<svg xmlns="http://www.w3.org/2000/svg" id="flatten_icons" data-name="flatten icons" viewBox="0 0 112 112"><defs><style>.cls-6{stroke-width:0;fill:#004241}</style></defs><path d="M0 0h112v112H0z" style="fill:none;stroke-width:0"/><path d="M64.32 27.1c-2.84 0-5.6.36-8.25 1.02-2.65-.66-5.41-1.02-8.25-1.02-19.48 0-37.2 16.47-35.28 36.57 2.11 22.13 23.26 43.4 44.03 46.2.8.11 2.33.21 3.12 0 25.48-6.98 39.91-26 39.91-46.2S83.8 27.1 64.32 27.1" style="stroke-width:0;fill:#ff8164"/><path d="M65.82 96.46a5.32 5.32 0 0 0-7.03-1.95l-.91.48c-1.32.69-2.87.8-4.28.3a5.32 5.32 0 0 1-2.99-7.32l.54-1.12c.35-.72.53-1.51.53-2.31v-4.18c0-3.48-3.29-6.02-6.65-5.15l-7.64 1.98c-2.35.61-4.81-.45-5.99-2.57l-.9-1.63a5.3 5.3 0 0 0-3.35-2.58L14.78 67.3c-.57-.14-1.15-.19-1.73-.14 3.85 20.83 23.86 40.07 43.53 42.72.8.11 2.33.21 3.12 0a69 69 0 0 0 5.53-1.77c.17-.31.32-.63.43-.97l1.56-4.85c.47-1.47.29-3.07-.51-4.39l-.88-1.45Z" style="stroke-width:0;fill:#f7c39f"/><path d="M58.38 112c-.95 0-1.83-.11-2.08-.14-22.22-2.99-43.6-25.42-45.76-47.99-.91-9.5 2.28-18.79 8.96-26.14 7.29-8.02 17.61-12.62 28.31-12.62 2.76 0 5.54.32 8.25.96 2.72-.64 5.49-.96 8.25-.96 20.56 0 37.28 17.3 37.28 38.57 0 22.35-16.24 41.24-41.38 48.13-.54.15-1.2.19-1.83.19M47.82 29.1c-9.43 0-18.91 4.23-25.35 11.31-5.92 6.51-8.74 14.71-7.94 23.07 1.96 20.52 22.12 41.69 42.31 44.41.94.13 2.02.13 2.32.05 23.35-6.4 38.44-23.77 38.44-44.27 0-19.06-14.93-34.57-33.28-34.57-2.6 0-5.21.32-7.77.96-.32.08-.65.08-.96 0-2.55-.63-5.17-.96-7.77-.96" class="cls-6"/><path d="M79.84 57.21c-1 0-1.87-.75-1.98-1.77-2.27-19.96-21.47-25.17-22.28-25.39a2.01 2.01 0 0 1-1.44-2.44 1.994 1.994 0 0 1 2.43-1.44c.23.06 22.67 6.07 25.26 28.81.12 1.1-.66 2.09-1.76 2.21-.08 0-.15.01-.23.01Z" class="cls-6"/><path d="M55.12 29.1c-.09 0-.18 0-.28-.02a2.007 2.007 0 0 1-1.71-2.26c1.38-9.92-6.06-16.36-6.37-16.63-.84-.71-.95-1.97-.24-2.82.71-.84 1.97-.96 2.81-.25.39.32 9.46 8.08 7.76 20.24a2 2 0 0 1-1.98 1.72Z" class="cls-6"/><path d="M55.08 15.69s3.43-22.57 36.79-9.76c0 0-19 17.9-36.79 9.76" style="stroke-width:0;fill:#aad681"/><path d="M64.96 19.8c-3.78 0-7.37-.76-10.71-2.29a2.01 2.01 0 0 1-1.15-2.12c.05-.33 1.31-8.1 8.89-12.51 7.27-4.22 17.56-3.82 30.6 1.18.64.25 1.11.81 1.25 1.48.13.67-.09 1.37-.59 1.84-.2.19-5.05 4.72-12.21 8.27-5.56 2.76-10.98 4.14-16.08 4.14Zm-7.51-5.3c12.23 4.47 25.08-3.75 30.45-7.87-10.24-3.42-18.25-3.53-23.84-.32-4.19 2.41-5.94 6.13-6.61 8.19" class="cls-6"/><path d="M29.37 51.39c-.28 0-.57-.06-.84-.18-1-.46-1.44-1.65-.98-2.65 3.93-8.51 12.89-12.26 13.27-12.42 1.02-.42 2.19.07 2.61 1.09s-.07 2.19-1.09 2.61c-.08.03-7.9 3.34-11.16 10.39-.34.73-1.06 1.16-1.82 1.16Z" style="stroke-width:0;fill:#fff"/></svg>