<svg xmlns="http://www.w3.org/2000/svg" id="flatten_icons" data-name="flatten icons" viewBox="0 0 112 112"><defs><style>.cls-2,.cls-3,.cls-4{stroke-width:0}.cls-2{fill:#aad681}.cls-3{fill:#91bf60}.cls-4{fill:#004241}</style></defs><path d="M0 0h112v112H0z" style="fill:none;stroke-width:0"/><circle cx="21.8" cy="34.22" r="10.66" class="cls-2"/><path d="M29.51 26.86c.06.44.09.89.09 1.34 0 5.89-4.77 10.66-10.66 10.66-3.03 0-5.76-1.27-7.7-3.3.66 5.25 6.14 9.32 11.57 9.32 5.89 0 9.66-4.77 9.66-10.66 0-2.86-1.13-5.45-2.96-7.36" class="cls-3"/><path d="M22.8 45.88c-6.72 0-13.66-4.36-13.66-11.66s5.68-12.66 12.66-12.66 12.66 5.68 12.66 12.66-4.69 11.66-11.66 11.66m-1-20.33c-4.78 0-8.66 3.89-8.66 8.66s4.91 7.66 9.66 7.66 7.66-2.87 7.66-7.66-3.89-8.66-8.66-8.66" class="cls-4"/><circle cx="54.81" cy="56" r="10.66" class="cls-2"/><path d="M62.52 48.64c.06.44.09.89.09 1.34 0 5.89-4.77 10.66-10.66 10.66-3.03 0-5.76-1.27-7.7-3.3.66 5.25 5.14 9.32 10.57 9.32 5.89 0 10.66-4.77 10.66-10.66 0-2.86-1.13-5.45-2.96-7.36" class="cls-3"/><path d="M54.81 68.66c-6.98 0-12.66-5.68-12.66-12.66s5.33-11.66 12.66-11.66S67.47 49.25 67.47 56s-5.68 12.66-12.66 12.66m0-20.33c-5.1 0-8.66 3.15-8.66 7.66 0 4.78 3.89 8.66 8.66 8.66s8.66-3.89 8.66-8.66c0-4.51-3.56-7.66-8.66-7.66" class="cls-4"/><circle cx="34.22" cy="88.45" r="10.66" class="cls-2"/><path d="M41.92 81.09c.06.44.09.89.09 1.34 0 5.89-4.77 10.66-10.66 10.66-3.03 0-5.76-1.27-7.7-3.3.66 5.25 5.14 9.32 10.57 9.32 5.89 0 10.66-4.77 10.66-10.66 0-2.86-1.13-5.45-2.96-7.36" class="cls-3"/><path d="M35.22 101.11c-7.28 0-13.66-5.92-13.66-12.66s5.68-12.66 12.66-12.66 12.66 5.68 12.66 12.66c0 7.34-4.91 12.66-11.66 12.66m-1-21.33c-4.78 0-8.66 3.89-8.66 8.66s4.61 8.66 9.66 8.66c4.51 0 7.66-3.56 7.66-8.66 0-4.78-3.89-8.66-8.66-8.66" class="cls-4"/><circle cx="70.6" cy="23.55" r="10.66" class="cls-2"/><path d="M78.31 16.19c.06.44.09.89.09 1.34 0 5.89-4.77 10.66-10.66 10.66-3.03 0-5.76-1.27-7.7-3.3.66 5.25 5.14 9.32 10.57 9.32 5.89 0 10.66-4.77 10.66-10.66 0-2.86-1.13-5.45-2.96-7.36" class="cls-3"/><path d="M70.6 36.22c-6.98 0-12.66-5.68-12.66-12.66 0-7.34 4.91-12.66 11.66-12.66 7.28 0 13.66 5.92 13.66 12.66S77.58 36.22 70.6 36.22m-1-21.33c-4.51 0-7.66 3.56-7.66 8.66 0 4.78 3.89 8.66 8.66 8.66s8.66-3.89 8.66-8.66-4.61-8.66-9.66-8.66" class="cls-4"/><circle cx="90.2" cy="58.55" r="10.66" class="cls-2"/><path d="M97.9 51.19c.06.44.09.89.09 1.34 0 5.89-4.77 10.66-10.66 10.66-3.03 0-5.76-1.27-7.7-3.3.66 5.25 5.14 9.32 10.57 9.32 5.89 0 10.66-4.77 10.66-10.66 0-2.86-1.13-5.45-2.96-7.36" class="cls-3"/><path d="M90.2 71.21c-6.98 0-12.66-5.68-12.66-12.66s5.33-11.66 12.66-11.66 12.66 4.91 12.66 11.66-5.68 12.66-12.66 12.66m0-20.33c-5.1 0-8.66 3.15-8.66 7.66 0 4.78 3.89 8.66 8.66 8.66s8.66-3.89 8.66-8.66c0-4.51-3.56-7.66-8.66-7.66" class="cls-4"/></svg>