<?xml version="1.0" encoding="UTF-8"?>
<svg id="outline_icons" data-name="outline icons" xmlns="http://www.w3.org/2000/svg" viewBox="0 0 112 112">
  <defs>
    <style>
      .cls-1 {
        fill: none;
      }

      .cls-1, .cls-2, .cls-3, .cls-4, .cls-5, .cls-6 {
        stroke-width: 0px;
      }

      .cls-2 {
        fill: #79aaaf;
      }

      .cls-3 {
        fill: #baced3;
      }

      .cls-4 {
        fill: #98d2e2;
      }

      .cls-5 {
        fill: #e4f2f4;
      }

      .cls-6 {
        fill: #004241;
      }
    </style>
  </defs>
  <g id="area">
    <rect class="cls-1" width="112" height="112"/>
  </g>
  <g>
    <path class="cls-2" d="m11.99,41.63h88.01c3.31,0,5.99,2.69,5.99,5.99v43.23c0,8.35-6.78,15.12-15.12,15.12H21.12c-8.35,0-15.12-6.78-15.12-15.12v-43.23c0-3.31,2.69-5.99,5.99-5.99Z"/>
    <path class="cls-6" d="m90.88,107.97H21.12c-9.44,0-17.12-7.68-17.12-17.12v-43.23c0-4.41,3.59-7.99,7.99-7.99h88.01c4.41,0,7.99,3.59,7.99,7.99v43.23c0,9.44-7.68,17.12-17.12,17.12ZM11.99,43.63c-2.2,0-3.99,1.79-3.99,3.99v43.23c0,7.23,5.89,13.12,13.12,13.12h69.76c7.23,0,13.12-5.89,13.12-13.12v-43.23c0-2.2-1.79-3.99-3.99-3.99H11.99Z"/>
  </g>
  <g>
    <rect class="cls-5" x="6" y="22" width="100" height="76" rx="15.12" ry="15.12"/>
    <path class="cls-6" d="m90.88,100H21.12c-9.44,0-17.12-7.68-17.12-17.12v-45.76c0-9.44,7.68-17.12,17.12-17.12h69.76c9.44,0,17.12,7.68,17.12,17.12v45.76c0,9.44-7.68,17.12-17.12,17.12ZM21.12,24c-7.23,0-13.12,5.89-13.12,13.12v45.76c0,7.23,5.89,13.12,13.12,13.12h69.76c7.23,0,13.12-5.89,13.12-13.12v-45.76c0-7.23-5.89-13.12-13.12-13.12H21.12Z"/>
  </g>
  <g>
    <rect class="cls-2" x="16.79" y="33.51" width="78.43" height="53.58" rx="7.64" ry="7.64"/>
    <path class="cls-6" d="m87.57,89.09H24.43c-5.32,0-9.64-4.33-9.64-9.64v-38.3c0-5.32,4.33-9.64,9.64-9.64h63.14c5.32,0,9.64,4.32,9.64,9.64v38.3c0,5.32-4.33,9.64-9.64,9.64ZM24.43,35.51c-3.11,0-5.64,2.53-5.64,5.64v38.3c0,3.11,2.53,5.64,5.64,5.64h63.14c3.11,0,5.64-2.53,5.64-5.64v-38.3c0-3.11-2.53-5.64-5.64-5.64H24.43Z"/>
  </g>
  <g>
    <rect class="cls-4" x="16.79" y="41.63" width="78.43" height="44.7" rx="6.73" ry="6.73"/>
    <path class="cls-6" d="m88.48,88.33H23.52c-4.81,0-8.73-3.92-8.73-8.73v-31.24c0-4.81,3.92-8.73,8.73-8.73h64.96c4.81,0,8.73,3.92,8.73,8.73v31.24c0,4.81-3.92,8.73-8.73,8.73ZM23.52,43.63c-2.61,0-4.73,2.12-4.73,4.73v31.24c0,2.61,2.12,4.73,4.73,4.73h64.96c2.61,0,4.73-2.12,4.73-4.73v-31.24c0-2.61-2.12-4.73-4.73-4.73H23.52Z"/>
  </g>
  <g>
    <path class="cls-3" d="m82.32,54c-.42,0-.85-.07-1.26-.2-1.64-.52-2.74-2.08-2.74-3.89v-4.28h-10.36v4.37c0,2.21-1.79,4-4,4-.42,0-.85-.07-1.26-.2-1.64-.52-2.74-2.08-2.74-3.89V9.65c0-2.21,1.79-4,4-4,.42,0,.85.07,1.26.2,1.64.52,2.74,2.08,2.74,3.89v5.36h10.36v-5.36c0-1.8,1.1-3.37,2.74-3.89.41-.13.83-.2,1.26-.2,2.21,0,4,1.79,4,4v40.35c0,1.07-.42,2.07-1.17,2.83-.76.76-1.76,1.17-2.83,1.17h0Zm-4-16.37v-3.27h-10.36v3.27h10.36Zm0-11.27v-3.27h-10.36v3.27h10.36Z"/>
    <path class="cls-6" d="m82.32,7.65c1.1,0,2,.9,2,2v40.35c0,1.1-.9,2-2,2-.21,0-.43-.03-.65-.1-.83-.26-1.35-1.11-1.35-1.98v-6.28h-14.36v6.37c0,1.1-.9,2-2,2-.21,0-.43-.03-.65-.1-.83-.26-1.35-1.11-1.35-1.98V9.65c0-1.1.9-2,2-2,.21,0,.43.03.65.1.83.26,1.35,1.11,1.35,1.98v7.36h14.36v-7.36c0-.87.51-1.72,1.35-1.98.22-.07.44-.1.65-.1m-16.36,20.71h14.36v-7.27h-14.36v7.27m0,11.27h14.36v-7.27h-14.36v7.27M82.32,3.65c-.63,0-1.25.1-1.86.29-2.48.79-4.14,3.11-4.14,5.79v3.36h-6.36v-3.36c0-2.68-1.66-5.01-4.14-5.79-.61-.19-1.23-.29-1.86-.29-1.6,0-3.11.62-4.24,1.76-1.13,1.13-1.76,2.64-1.76,4.24v40.26c0,2.68,1.66,5.01,4.14,5.79.61.19,1.23.29,1.86.29,3.31,0,6-2.69,6-6v-2.37h6.36v2.28c0,2.68,1.66,5.01,4.14,5.79.61.19,1.23.29,1.86.29,3.31,0,6-2.69,6-6V9.65c0-3.31-2.69-6-6-6h0Z"/>
  </g>
  <path class="cls-6" d="m63.64,56.1c-4.21,0-6.4-2.94-7.03-4.67-.38-1.04.16-2.19,1.2-2.56,1.03-.38,2.17.15,2.55,1.17.09.23.9,2.06,3.28,2.06,2.24,0,2.8-1.22,2.89-1.47.32-1.06,1.43-1.63,2.49-1.31,1.06.32,1.65,1.46,1.33,2.52-.48,1.58-2.43,4.25-6.7,4.25Z"/>
  <path class="cls-6" d="m82.5,56.1c-4.21,0-6.4-2.94-7.03-4.67-.38-1.04.16-2.19,1.2-2.56,1.03-.38,2.17.15,2.55,1.17.09.23.9,2.06,3.28,2.06s2.87-1.4,2.88-1.41c.32-1.06,1.44-1.65,2.49-1.33,1.06.32,1.65,1.44,1.33,2.49-.48,1.58-2.43,4.25-6.7,4.25Z"/>
  <g>
    <path class="cls-3" d="m62.78,73.83c1.87,1.63,4.65,1.63,6.51,0h0c1.87-1.63,4.65-1.63,6.51,0h0c1.87,1.63,4.65,1.63,6.51,0"/>
    <path class="cls-6" d="m66.04,77.04c-1.63,0-3.27-.57-4.57-1.7-.83-.73-.92-1.99-.19-2.82.73-.83,1.99-.92,2.82-.19,1.11.97,2.78.96,3.89,0,2.61-2.27,6.54-2.27,9.14,0,1.11.97,2.78.97,3.89,0,.83-.73,2.1-.64,2.82.19.73.83.64,2.1-.19,2.82-2.61,2.27-6.54,2.27-9.14,0-1.11-.97-2.78-.97-3.89,0-1.3,1.14-2.94,1.7-4.57,1.7Z"/>
  </g>
  <g>
    <path class="cls-3" d="m28.93,59.3c1.9,1.66,4.74,1.66,6.65,0h0c1.9-1.66,4.74-1.66,6.65,0h0c1.9,1.66,4.74,1.66,6.65,0"/>
    <path class="cls-6" d="m32.25,62.54c-1.66,0-3.32-.58-4.64-1.73-.83-.73-.92-1.99-.19-2.82s1.99-.92,2.82-.19c1.14,1,2.87,1,4.02,0,2.64-2.31,6.63-2.31,9.28,0,1.14,1,2.87,1,4.02,0,.83-.73,2.1-.64,2.82.19.73.83.64,2.1-.19,2.82-2.65,2.31-6.63,2.31-9.28,0-1.15-1-2.87-1-4.02,0-1.32,1.15-2.98,1.73-4.64,1.73Z"/>
  </g>
</svg>