<svg xmlns="http://www.w3.org/2000/svg" id="outline_icons" data-name="outline icons" viewBox="0 0 112 112"><defs><style>.cls-2,.cls-3,.cls-6{stroke-width:0}.cls-2{fill:#79aaaf}.cls-3{fill:#baced3}.cls-6{fill:#004241}</style></defs><path id="area" d="M0 0h112v112H0z" style="fill:none;stroke-width:0"/><path d="M11.99 41.63H100c3.31 0 5.99 2.69 5.99 5.99v43.23c0 8.35-6.78 15.12-15.12 15.12H21.12C12.77 105.97 6 99.19 6 90.85V47.62c0-3.31 2.69-5.99 5.99-5.99" class="cls-2"/><path d="M90.88 107.97H21.12C11.68 107.97 4 100.29 4 90.85V47.62c0-4.41 3.59-7.99 7.99-7.99H100c4.41 0 7.99 3.59 7.99 7.99v43.23c0 9.44-7.68 17.12-17.12 17.12ZM11.99 43.63c-2.2 0-3.99 1.79-3.99 3.99v43.23c0 7.23 5.89 13.12 13.12 13.12h69.76c7.23 0 13.12-5.89 13.12-13.12V47.62c0-2.2-1.79-3.99-3.99-3.99z" class="cls-6"/><rect width="100" height="76" x="6" y="22" rx="15.12" ry="15.12" style="stroke-width:0;fill:#e4f2f4"/><path d="M90.88 100H21.12C11.68 100 4 92.32 4 82.88V37.12C4 27.68 11.68 20 21.12 20h69.76c9.44 0 17.12 7.68 17.12 17.12v45.76c0 9.44-7.68 17.12-17.12 17.12M21.12 24C13.89 24 8 29.89 8 37.12v45.76C8 90.11 13.89 96 21.12 96h69.76C98.11 96 104 90.11 104 82.88V37.12C104 29.89 98.11 24 90.88 24z" class="cls-6"/><rect width="78.43" height="53.58" x="16.79" y="33.51" class="cls-2" rx="7.64" ry="7.64"/><path d="M87.57 89.09H24.43c-5.32 0-9.64-4.33-9.64-9.64v-38.3c0-5.32 4.33-9.64 9.64-9.64h63.14c5.32 0 9.64 4.32 9.64 9.64v38.3c0 5.32-4.33 9.64-9.64 9.64M24.43 35.51c-3.11 0-5.64 2.53-5.64 5.64v38.3c0 3.11 2.53 5.64 5.64 5.64h63.14c3.11 0 5.64-2.53 5.64-5.64v-38.3c0-3.11-2.53-5.64-5.64-5.64z" class="cls-6"/><rect width="78.43" height="44.7" x="16.79" y="41.63" rx="6.73" ry="6.73" style="stroke-width:0;fill:#98d2e2"/><path d="M88.48 88.33H23.52c-4.81 0-8.73-3.92-8.73-8.73V48.36c0-4.81 3.92-8.73 8.73-8.73h64.96c4.81 0 8.73 3.92 8.73 8.73V79.6c0 4.81-3.92 8.73-8.73 8.73m-64.96-44.7c-2.61 0-4.73 2.12-4.73 4.73V79.6c0 2.61 2.12 4.73 4.73 4.73h64.96c2.61 0 4.73-2.12 4.73-4.73V48.36c0-2.61-2.12-4.73-4.73-4.73z" class="cls-6"/><path d="M82.32 54c-.42 0-.85-.07-1.26-.2-1.64-.52-2.74-2.08-2.74-3.89v-4.28H67.96V50c0 2.21-1.79 4-4 4-.42 0-.85-.07-1.26-.2-1.64-.52-2.74-2.08-2.74-3.89V9.65c0-2.21 1.79-4 4-4 .42 0 .85.07 1.26.2 1.64.52 2.74 2.08 2.74 3.89v5.36h10.36V9.74c0-1.8 1.1-3.37 2.74-3.89.41-.13.83-.2 1.26-.2 2.21 0 4 1.79 4 4V50c0 1.07-.42 2.07-1.17 2.83-.76.76-1.76 1.17-2.83 1.17m-4-16.37v-3.27H67.96v3.27zm0-11.27v-3.27H67.96v3.27z" class="cls-3"/><path d="M82.32 7.65c1.1 0 2 .9 2 2V50c0 1.1-.9 2-2 2-.21 0-.43-.03-.65-.1-.83-.26-1.35-1.11-1.35-1.98v-6.28H65.96v6.37c0 1.1-.9 2-2 2-.21 0-.43-.03-.65-.1-.83-.26-1.35-1.11-1.35-1.98V9.65c0-1.1.9-2 2-2 .21 0 .43.03.65.1.83.26 1.35 1.11 1.35 1.98v7.36h14.36V9.73c0-.87.51-1.72 1.35-1.98.22-.07.44-.1.65-.1M65.96 28.36h14.36v-7.27H65.96zm0 11.27h14.36v-7.27H65.96zM82.32 3.65c-.63 0-1.25.1-1.86.29-2.48.79-4.14 3.11-4.14 5.79v3.36h-6.36V9.73c0-2.68-1.66-5.01-4.14-5.79-.61-.19-1.23-.29-1.86-.29-1.6 0-3.11.62-4.24 1.76a5.97 5.97 0 0 0-1.76 4.24v40.26c0 2.68 1.66 5.01 4.14 5.79.61.19 1.23.29 1.86.29 3.31 0 6-2.69 6-6v-2.37h6.36v2.28c0 2.68 1.66 5.01 4.14 5.79.61.19 1.23.29 1.86.29 3.31 0 6-2.69 6-6V9.65c0-3.31-2.69-6-6-6" class="cls-6"/><path d="M63.64 56.1c-4.21 0-6.4-2.94-7.03-4.67-.38-1.04.16-2.19 1.2-2.56a1.99 1.99 0 0 1 2.55 1.17c.09.23.9 2.06 3.28 2.06 2.24 0 2.8-1.22 2.89-1.47.32-1.06 1.43-1.63 2.49-1.31s1.65 1.46 1.33 2.52c-.48 1.58-2.43 4.25-6.7 4.25Zm18.86 0c-4.21 0-6.4-2.94-7.03-4.67-.38-1.04.16-2.19 1.2-2.56a1.99 1.99 0 0 1 2.55 1.17c.09.23.9 2.06 3.28 2.06s2.87-1.4 2.88-1.41a1.994 1.994 0 0 1 2.49-1.33c1.06.32 1.65 1.44 1.33 2.49-.48 1.58-2.43 4.25-6.7 4.25" class="cls-6"/><path d="M62.78 73.83a4.945 4.945 0 0 0 6.51 0 4.945 4.945 0 0 1 6.51 0 4.945 4.945 0 0 0 6.51 0" class="cls-3"/><path d="M66.04 77.04c-1.63 0-3.27-.57-4.57-1.7-.83-.73-.92-1.99-.19-2.82s1.99-.92 2.82-.19c1.11.97 2.78.96 3.89 0 2.61-2.27 6.54-2.27 9.14 0 1.11.97 2.78.97 3.89 0 .83-.73 2.1-.64 2.82.19.73.83.64 2.1-.19 2.82-2.61 2.27-6.54 2.27-9.14 0a2.964 2.964 0 0 0-3.89 0 6.92 6.92 0 0 1-4.57 1.7Z" class="cls-6"/><path d="M28.93 59.3a5.06 5.06 0 0 0 6.65 0 5.06 5.06 0 0 1 6.65 0 5.06 5.06 0 0 0 6.65 0" class="cls-3"/><path d="M32.25 62.54c-1.66 0-3.32-.58-4.64-1.73-.83-.73-.92-1.99-.19-2.82s1.99-.92 2.82-.19c1.14 1 2.87 1 4.02 0 2.64-2.31 6.63-2.31 9.28 0 1.14 1 2.87 1 4.02 0 .83-.73 2.1-.64 2.82.19.73.83.64 2.1-.19 2.82a7.08 7.08 0 0 1-9.28 0c-1.15-1-2.87-1-4.02 0a7.06 7.06 0 0 1-4.64 1.73" class="cls-6"/></svg>