<?xml version="1.0" encoding="UTF-8"?>
<svg id="flatten_icons" xmlns="http://www.w3.org/2000/svg" viewBox="0 0 112 112">
  <defs>
    <style>
      .cls-1 {
        fill: none;
      }

      .cls-2 {
        fill: #e2bc7f;
      }

      .cls-3 {
        fill: #d88361;
      }

      .cls-4 {
        fill: #eac781;
      }

      .cls-5 {
        fill: #efe79a;
      }

      .cls-6 {
        fill: #efecd8;
      }

      .cls-7 {
        fill: #004241;
      }

      .cls-8 {
        fill: #6daf5d;
      }
    </style>
  </defs>
  <g id="pizza4fromages">
    <g id="pizza4fromages-2" data-name="pizza4fromages">
      <g>
        <path class="cls-4" d="M106,57.04c0,4.32-.86,8.49-2.44,12.39-3.57,8.78-8.89,17.43-20.32,21.17-7.84,4.08-17.19,6.45-27.23,6.45-2.16,0-4.28-.11-6.37-.32-8.05.32-13.15-1.2-18.46-3.51-7.17-3.11-13.88-7.63-16.78-13.99-5.3-6.35-8.39-13.98-8.39-22.18,0-22.09,22.39-40,50-40s50,17.91,50,40Z"/>
        <path class="cls-7" d="M56,99.04c-2.15,0-4.31-.11-6.43-.32-8.21.31-13.61-1.25-19.2-3.68-8.95-3.89-14.9-8.85-17.69-14.75-5.68-6.89-8.68-14.93-8.68-23.26C4,33.88,27.33,15.04,56,15.04s52,18.84,52,42c0,4.49-.87,8.91-2.59,13.14-3.32,8.16-8.75,18.06-21.4,22.26-8.36,4.32-18.04,6.6-28.01,6.6ZM49.63,94.71c.07,0,.13,0,.2,0,2.03.21,4.11.31,6.17.31,9.39,0,18.49-2.15,26.31-6.22.1-.05.2-.09.3-.13,11.13-3.64,15.9-12.17,19.09-20.02,1.52-3.75,2.3-7.66,2.3-11.63,0-20.95-21.53-38-48-38S8,36.08,8,57.04c0,7.46,2.74,14.69,7.92,20.9.11.14.21.29.28.45,2.31,5.08,7.62,9.45,15.76,12.99,5.26,2.29,10.04,3.63,17.59,3.34.03,0,.05,0,.08,0Z"/>
      </g>
      <g>
        <path class="cls-5" d="M22.48,75.6s19.83,6.06,26.17,12.12c0,0,14.05-5.25,25.9-4.55,0,0,9.64-14.99,20.12-16.83,0,0-2.2-11.68,0-14.99,0,0-12.4-12.68-12.12-18.46,0,0-13.86-4.41-22.22-8.54,0,0-9.54,4.89-24.9,4.89,0,0-6.89,9.99-15.16,11.37,0,0-2.2,12.4-6.06,15.43,0,0,8.83,11.57,8.27,19.56Z"/>
        <path class="cls-7" d="M48.65,89.72c-.51,0-1-.19-1.38-.55-5.93-5.67-25.18-11.6-25.37-11.66-.89-.27-1.48-1.12-1.41-2.05.41-5.92-5.54-15.15-7.87-18.21-.66-.87-.5-2.11.35-2.79,2.37-1.86,4.53-9.7,5.33-14.21.15-.83.81-1.48,1.64-1.62,7.35-1.22,13.77-10.44,13.84-10.53.37-.54.99-.86,1.65-.86,0,0,0,0,.01,0,14.62,0,23.88-4.62,23.97-4.67.56-.29,1.23-.29,1.8-.01,8.13,4.02,21.81,8.39,21.94,8.43.86.28,1.43,1.1,1.39,2-.16,3.39,6.66,11.96,11.56,16.97.66.68.76,1.72.23,2.51-1.08,1.62-.68,8.27.3,13.51.1.52-.02,1.07-.32,1.51-.3.44-.77.74-1.3.83-9.48,1.67-18.69,15.8-18.78,15.95-.39.61-1.07.96-1.8.91-11.27-.65-24.95,4.38-25.09,4.43-.23.08-.46.13-.7.13ZM24.48,74.13c4.51,1.46,18.36,6.21,24.61,11.31,3.52-1.2,14.44-4.61,24.43-4.32,2.25-3.24,9.96-13.53,18.86-16.29-.51-3.29-1.22-9.44-.08-13.06-3.07-3.25-10.54-11.63-11.63-17.39-3.49-1.15-13.38-4.49-20.37-7.82-2.74,1.21-11.31,4.5-23.86,4.67-1.84,2.42-7.5,9.18-14.46,11.05-.63,3.06-2.34,10.22-5.19,13.93,2.21,3.18,7.33,11.19,7.69,17.93Z"/>
      </g>
      <g>
        <line class="cls-4" x1="48.65" y1="87.72" x2="50.73" y2="90.58"/>
        <path class="cls-7" d="M50.73,92.58c-.62,0-1.23-.28-1.62-.82l-2.08-2.86c-.65-.89-.46-2.14.44-2.79.89-.65,2.14-.46,2.79.44l2.08,2.86c.65.89.46,2.14-.44,2.79-.36.26-.77.38-1.18.38Z"/>
      </g>
      <g>
        <line class="cls-4" x1="18.85" y1="75.25" x2="22.48" y2="75.6"/>
        <path class="cls-7" d="M22.48,77.6c-.06,0-.13,0-.19,0l-3.62-.34c-1.1-.1-1.91-1.08-1.8-2.18s1.09-1.9,2.18-1.8l3.62.34c1.1.1,1.91,1.08,1.8,2.18-.1,1.04-.97,1.81-1.99,1.81Z"/>
      </g>
      <g>
        <line class="cls-4" x1="74.55" y1="83.17" x2="78.14" y2="84.09"/>
        <path class="cls-7" d="M78.14,86.09c-.17,0-.33-.02-.5-.06l-3.59-.92c-1.07-.28-1.71-1.37-1.44-2.44.28-1.07,1.37-1.71,2.44-1.44l3.59.92c1.07.28,1.71,1.37,1.44,2.44-.23.9-1.04,1.5-1.94,1.5Z"/>
      </g>
      <g>
        <path class="cls-6" d="M71.12,42.58c0,2.73-3.49,4-7.56,4.94-5.63,1.3-7.56-2.21-7.56-4.94s3.39-4.94,7.56-4.94,7.56,2.21,7.56,4.94Z"/>
        <path class="cls-7" d="M61.31,49.79c-2.25,0-3.76-.76-4.7-1.51-1.63-1.3-2.61-3.43-2.61-5.7,0-3.89,4.2-6.94,9.56-6.94s9.56,3.05,9.56,6.94c0,4.79-6.16,6.21-9.11,6.89-1,.23-1.9.33-2.7.33ZM63.56,39.64c-3.18,0-5.56,1.55-5.56,2.94,0,.4.08,1.76,1.1,2.57,1.08.86,2.78.7,4.01.42,4.97-1.14,6.01-2.25,6.01-2.99,0-1.39-2.38-2.94-5.56-2.94Z"/>
      </g>
      <g>
        <path class="cls-6" d="M41.1,56.03c0,2.73-3.39,4.94-7.56,4.94s-7.56-2.21-7.56-4.94,3.44-4.26,7.56-4.94c5.05-.83,7.56,2.21,7.56,4.94Z"/>
        <path class="cls-7" d="M33.54,62.97c-5.36,0-9.56-3.05-9.56-6.94,0-2.01,1.2-5.59,9.24-6.91,2.94-.48,5.58.12,7.43,1.7,1.56,1.32,2.46,3.23,2.46,5.22,0,3.89-4.2,6.94-9.56,6.94ZM35.18,52.95c-.42,0-.86.04-1.32.11-3.52.58-5.89,1.77-5.89,2.96,0,1.39,2.38,2.94,5.56,2.94s5.56-1.55,5.56-2.94c0-.8-.39-1.61-1.04-2.17-.71-.6-1.69-.91-2.88-.91Z"/>
      </g>
      <g>
        <path class="cls-6" d="M73.05,67.77c0,2.73-3.39,4.94-7.56,4.94s-8.18-1.63-7.56-4.94c.5-2.68,3.39-4.94,7.56-4.94s7.56,2.21,7.56,4.94Z"/>
        <path class="cls-7" d="M65.49,74.7c-1.78,0-6.17-.29-8.43-3.01-1.01-1.22-1.39-2.7-1.1-4.29.72-3.87,4.64-6.57,9.53-6.57,5.36,0,9.56,3.05,9.56,6.94s-4.2,6.94-9.56,6.94ZM65.49,64.83c-3.27,0-5.29,1.66-5.6,3.3-.08.42,0,.71.24,1,.65.78,2.56,1.57,5.36,1.57,3.18,0,5.56-1.55,5.56-2.94s-2.38-2.94-5.56-2.94Z"/>
      </g>
      <path class="cls-3" d="M85.73,62.97c-.59,0-1.18-.26-1.57-.76-.58-.73-2.61-2.79-4.36-2.77-3.81.15-5.57-3.39-5.98-5.26-.24-1.08.45-2.15,1.52-2.38,1.08-.24,2.14.44,2.38,1.51.03.12.53,2.13,1.91,2.13.01,0,.03,0,.04,0,4.03-.1,7.26,3.84,7.62,4.29.68.87.53,2.12-.33,2.81-.37.29-.8.43-1.24.43Z"/>
      <path class="cls-3" d="M44.4,40.75c-.25,0-.51-.05-.76-.15-1.02-.42-1.51-1.59-1.09-2.61,1.44-3.51,5.36-3.71,7.23-3.32,1.08.22,1.78,1.28,1.56,2.36-.22,1.08-1.27,1.78-2.35,1.56-.11-.02-2.2-.39-2.74.92-.32.77-1.06,1.24-1.85,1.24Z"/>
      <path class="cls-3" d="M41.59,73.08c-2.03,0-3.57-1.22-3.57-2.83s1.53-2.83,3.57-2.83,3.57,1.22,3.57,2.83-1.53,2.83-3.57,2.83ZM41.79,71.44h.01-.01ZM41.59,69.19c-.21.19-.43.56-.43,1.06s.23.87.43,1.06c.21-.19.43-.56.43-1.06s-.23-.87-.43-1.06Z"/>
      <path class="cls-2" d="M53.43,57.04h-.23c-1.1,0-2-.9-2-2s.9-2,2-2h.23c1.1,0,2,.9,2,2s-.9,2-2,2Z"/>
      <path class="cls-8" d="M45.3,48.83h-.23c-1.1,0-2-.9-2-2s.9-2,2-2h.23c1.1,0,2,.9,2,2s-.9,2-2,2Z"/>
      <path class="cls-8" d="M28.58,71.42h-.23c-1.1,0-2-.9-2-2s.9-2,2-2h.23c1.1,0,2,.9,2,2s-.9,2-2,2Z"/>
      <path class="cls-8" d="M85.12,52.95h-.23c-1.1,0-2-.9-2-2s.9-2,2-2h.23c1.1,0,2,.9,2,2s-.9,2-2,2Z"/>
      <path class="cls-2" d="M80.76,45.06c-.09,0-.19,0-.28-.02-3.87-.54-5.02-3.95-4.85-6.1.09-1.1,1.05-1.92,2.15-1.84,1.09.09,1.91,1.04,1.84,2.13-.04.75.18,1.67,1.42,1.85,1.09.15,1.86,1.17,1.7,2.26-.14,1-1,1.72-1.98,1.72Z"/>
      <path class="cls-2" d="M31.54,46.9c-.33,0-.66-.08-.97-.25-1.37-.76-2.8-.38-2.82-.38-1.06.28-2.16-.33-2.46-1.38s.29-2.15,1.34-2.46c.3-.09,3.05-.84,5.87.72.97.54,1.32,1.75.78,2.72-.36.66-1.05,1.03-1.75,1.03Z"/>
      <path class="cls-3" d="M53.84,81.82c-1.68,0-2.97-.53-3.18-.62-1.01-.44-1.48-1.61-1.04-2.63.44-1.01,1.6-1.48,2.61-1.05.06.02,1.62.63,2.94.03,1-.46,2.19-.02,2.65.98s.02,2.19-.98,2.65c-1.04.48-2.08.64-3,.64Z"/>
      <path class="cls-7" d="M88.76,80.19c-.53,0-1.03-.21-1.41-.59-.38-.37-.59-.88-.59-1.41,0-.13.02-.26.04-.39.03-.13.07-.26.12-.38.05-.12.11-.23.18-.34.07-.11.16-.21.25-.31.74-.74,2.08-.74,2.83,0,.09.1.17.2.25.31.07.11.13.22.18.34.05.12.09.25.11.38.03.13.04.26.04.39s0,.26-.03.39c-.03.13-.07.25-.12.37-.05.12-.11.24-.18.35-.07.11-.16.21-.25.3-.38.38-.88.59-1.42.59Z"/>
      <g>
        <path class="cls-5" d="M82.54,32.89s2.4.52,4.81.52"/>
        <path class="cls-7" d="M87.35,35.41c-2.59,0-5.13-.54-5.23-.57-1.08-.23-1.76-1.3-1.53-2.38.23-1.08,1.3-1.76,2.38-1.53.02,0,2.24.48,4.39.48,1.1,0,2,.9,2,2s-.9,2-2,2Z"/>
      </g>
      <g>
        <path class="cls-5" d="M21.6,35.74s-1.55,1.97-1.34,4.86"/>
        <path class="cls-7" d="M20.26,42.6c-1.04,0-1.91-.8-1.99-1.85-.27-3.57,1.55-5.98,1.76-6.25.69-.87,1.94-1.01,2.81-.33.86.68,1.01,1.93.34,2.79-.06.09-1.07,1.48-.92,3.48.08,1.1-.74,2.06-1.85,2.14-.05,0-.1,0-.15,0Z"/>
      </g>
    </g>
    <rect class="cls-1" x="0" width="112" height="112"/>
  </g>
</svg>