<svg xmlns="http://www.w3.org/2000/svg" id="flatten_icons" data-name="flatten icons" viewBox="0 0 112 112"><defs><style>.cls-2{fill:none}.cls-3,.cls-4{stroke-width:0}.cls-2{stroke:#004241;stroke-linecap:round;stroke-linejoin:round;stroke-width:4px}.cls-3{fill:#dbc59b}.cls-4{fill:#bd9578}</style></defs><path d="M0 0h112v112H0z" style="fill:none;stroke-width:0"/><path d="M22.19 22.37v71.27c0 7.27 14.18 13.17 31.67 13.17s31.67-5.89 31.67-13.17v-16.4s3.35-11.21 16.97-19.75c.29-.18.56-.36.82-.54.55-.38.66-1.07.25-1.57l-5.47-6.76-2.01-.19c-2.31 1.87-6.43 2.71-10.56 3.09V22.38" class="cls-3"/><path d="m103.57 55.37-5.47-6.76c-.77-.09-1.2-.13-1.97-.22-2.3 1.89-6.44 2.74-10.59 3.12V22.37H36.27v36.77c0 1.98 1.6 3.58 3.58 3.58s3.58 1.6 3.58 3.58v13.62c0 .95-.38 1.86-1.05 2.53l-5.29 5.29c-1.4 1.4-1.4 3.67 0 5.06l2.46 2.46c1.69 1.69 1.28 4.54-.83 5.68l-5.16 2.79c5.5 1.91 12.58 3.07 20.31 3.07 17.49 0 31.67-5.9 31.67-13.17v-16.4s3.35-11.21 16.97-19.75c.29-.18.56-.36.82-.54.55-.38.66-1.07.25-1.57Z" class="cls-4"/><path d="M81.77 62.59c-.29 1.1-1.82 1.19-2.27.14-1.03-2.39-2.04-5.75-1.7-9.24.65-6.6 4.55-.69 20.3-4.89 0 0 5.79 5.51 2.34 5.19s-7.92 3.1-14.91 4.51c-2.22.45-3.26 2.42-3.75 4.28ZM55.59 36.38v12.3c0 .74.27 1.45.77 1.99l2.03 2.23c1.43 1.58 4.01 1.18 4.9-.76l1.56-3.41c.39-.85 1.15-1.47 2.07-1.67l1.16-.25c1.36-.3 2.34-1.5 2.34-2.9V41.4c0-.78-.31-1.53-.85-2.08l-3.74-3.79" class="cls-3"/><ellipse cx="53.86" cy="22.37" class="cls-4" rx="31.67" ry="13.17"/><path d="M44.93 16.43c2.72-.37 5.74-.57 8.92-.57 12.02 0 21.77 2.91 21.77 6.5s-9.75 6.5-21.77 6.5-21.77-2.91-21.77-6.5c0-1.55 1.82-2.98 4.87-4.1" class="cls-3"/><path d="M22.19 22.37v71.27c0 7.27 14.18 13.17 31.67 13.17s31.67-5.89 31.67-13.17v-16.4s3.35-11.21 16.97-19.75c.29-.18.56-.36.82-.54.55-.38.66-1.07.25-1.57l-5.47-6.76-2.01-.19c-2.31 1.87-6.43 2.71-10.56 3.09V22.38" class="cls-2"/><ellipse cx="53.86" cy="22.37" class="cls-2" rx="31.67" ry="13.17"/><path d="M34.19 32.69v14.75m0 18.79v2.06m33.1 15.08v21.26m0-28.57v-3.2m-9.78-32.8v-3.35m-9.25 67.92v-3.35m30.92-49.77h6.35m-40.6-35.08c2.72-.37 5.74-.57 8.92-.57 12.02 0 21.77 2.91 21.77 6.5s-9.75 6.5-21.77 6.5-21.77-2.91-21.77-6.5c0-1.55 1.82-2.98 4.87-4.1" class="cls-2"/><path d="M48.88 22.97c1.22.2 3.11.33 5.24.33 3.67 0 5.76-.43 6.65-.87" class="cls-2"/></svg>