<?xml version="1.0" encoding="UTF-8"?>
<svg id="flatten_icons" data-name="flatten icons" xmlns="http://www.w3.org/2000/svg" viewBox="0 0 112 112">
  <defs>
    <style>
      .cls-1, .cls-2 {
        fill: none;
      }

      .cls-1, .cls-3, .cls-4, .cls-5 {
        stroke-width: 0px;
      }

      .cls-2 {
        stroke: #004241;
        stroke-linecap: round;
        stroke-linejoin: round;
        stroke-width: 4px;
      }

      .cls-3 {
        fill: #bd9578;
      }

      .cls-4 {
        fill: #ffe549;
      }

      .cls-5 {
        fill: #f48040;
      }
    </style>
  </defs>
  <rect class="cls-1" width="112" height="112"/>
  <g>
    <polygon class="cls-3" points="54.92 74.78 48.87 86.4 50.76 89.79 54.35 89.62 60.94 77.78 59.09 74.16 54.92 74.78"/>
    <polygon class="cls-3" points="53.87 100.36 40.64 99.52 38.23 102.57 39.82 105.75 53.47 107 56.11 103.88 53.87 100.36"/>
    <polygon class="cls-3" points="76.16 101.22 68.52 90.55 64.6 90.62 63.08 93.83 70.66 105.08 74.78 105.14 76.16 101.22"/>
    <path class="cls-5" d="m91.01,78.42s4.29-9.07,2.13-20.94c-2.17-11.87-10.74-18.12-12.68-22.63-1.94-4.51-2.42-11.72-2.42-11.72,0,0-6.66,3.57-7.81,11.72-1.15,8.15-.71,9.89-.71,9.89,0,0-13.48-15.8-15.56-21.62-2.08-5.82-2.93-13.91-.76-18.13,0,0-6.44,3.4-11.75,9.93-5.31,6.53-3.54,20.02-2.44,25.46.89,4.39,2.43,11.22.88,15.03-.72,1.2-1.95,2.12-3.98,3.25-3.11,1.73-5.34.9-6.61,0-2.34-2.11-4.89-8.58-4.89-8.58l1.18-4.69s-8.3,9.46-7.58,17.82c.72,8.36,3.19,16.56,3.19,16.56l.56-.89c2.68,4.17,7.77,11.37,10.61,10.72,3.97-.91,2.34-4.59,2.16-7.65-.18-3.06,3.58-20,17.73-20.78,14.15-.78,21.72,4.46,24.12,9.68,2.4,5.22,2.4,14.64,5.28,14.72,2.87.08,5.47-.07,7.4-3.61.45-.83,1.17-.96,2.01-.67,0-.15.01-.3.01-.46,0-.82-.04-1.62-.1-2.43h0Z"/>
    <path class="cls-4" d="m52.29,43.63c-3.77-7.97-13.36-7.51-10.83-28.7-5.31,6.53-3.54,20.02-2.44,25.46.89,4.39,2.43,11.22.88,15.03-.72,1.2-1.95,2.12-3.98,3.25-3.11,1.73-5.34.9-6.61,0-2.34-2.11-4.89-8.58-4.89-8.58l1.18-4.69s-8.3,9.46-7.58,17.82c.72,8.36,3.19,16.56,3.19,16.56l.56-.89c2.68,4.17,7.77,11.37,10.61,10.72,3.97-.91,2.34-4.59,2.16-7.65-.18-3.06,3.58-20,17.73-20.78,0,0,3.77-9.6,0-17.56Z"/>
    <path class="cls-2" d="m50.83,89.83l-.15-.08c-1.7-.88-2.35-2.94-1.46-4.61l5.11-9.58c.89-1.67,2.99-2.31,4.68-1.44l.15.08c1.7.88,2.35,2.94,1.46,4.61l-5.11,9.58c-.89,1.67-2.99,2.31-4.68,1.44Z"/>
    <path class="cls-2" d="m38.1,102.39v-.17c.1-1.88,1.72-3.34,3.63-3.25l11.16.51c1.91.09,3.39,1.69,3.3,3.57v.17c-.1,1.88-1.72,3.34-3.63,3.25l-11.16-.51c-1.91-.09-3.39-1.69-3.3-3.57Z"/>
    <path class="cls-2" d="m74.76,105.03l-.14.1c-1.58,1.07-3.74.67-4.82-.89l-6.05-8.69c-1.08-1.56-.68-3.68.9-4.75l.14-.1c1.58-1.07,3.74-.67,4.82.89l6.05,8.69c1.08,1.56.68,3.68-.9,4.75Z"/>
    <path class="cls-2" d="m86.76,43.8c-4.16-5.69-9.15-11.02-8.91-18.62.02-.75-.86-1.19-1.43-.69-4.33,3.75-7.1,7.59-6.9,20.37-3.32-4.4-6.31-8.43-9.39-12.41-5.88-7.58-10.82-15.36-7.69-25.34.24-.75-.57-1.41-1.25-1-5.56,3.28-19.86,13.89-11.91,35.41,1.32,3.58,1.61,7.66,1.22,11.4-.46,4.36-3.78,6.54-7.7,6.38-3.9-.16-7.03-3.02-7.44-7.28-.15-1.59-.02-3.21.13-5.04.07-.87-1.09-1.28-1.58-.54-6.3,9.51-7.53,19.24-3.89,29.59,1.65,4.7,4.64,9.08,8.4,12.7,2.58,2.49,6.97.3,6.39-3.21-.17-1.06-.26-2.14-.26-3.24,0-11.76,10.16-21.29,22.7-21.29s22.7,9.53,22.7,21.29c0,.28,0,.57-.02.85-.15,3.53,4.39,5.1,6.64,2.35,9.49-11.61,10.23-27.91.19-41.68Z"/>
  </g>
</svg>