<svg xmlns="http://www.w3.org/2000/svg" id="flatten_icons" data-name="flatten icons" viewBox="0 0 112 112"><defs><style>.cls-2{fill:none;stroke:#004241;stroke-linecap:round;stroke-linejoin:round;stroke-width:4px}</style></defs><path d="M0 0h112v112H0z" style="fill:none;stroke-width:0"/><path d="M54.92 74.78 48.87 86.4l1.89 3.39 3.59-.17 6.59-11.84-1.85-3.62zm-1.05 25.58-13.23-.84-2.41 3.05 1.59 3.18L53.47 107l2.64-3.12zm22.29.86-7.64-10.67-3.92.07-1.52 3.21 7.58 11.25 4.12.06z" style="stroke-width:0;fill:#bd9578"/><path d="M91.01 78.42s4.29-9.07 2.13-20.94C90.97 45.61 82.4 39.36 80.46 34.85s-2.42-11.72-2.42-11.72-6.66 3.57-7.81 11.72-.71 9.89-.71 9.89-13.48-15.8-15.56-21.62-2.93-13.91-.76-18.13c0 0-6.44 3.4-11.75 9.93s-3.54 20.02-2.44 25.46c.89 4.39 2.43 11.22.88 15.03-.72 1.2-1.95 2.12-3.98 3.25-3.11 1.73-5.34.9-6.61 0-2.34-2.11-4.89-8.58-4.89-8.58l1.18-4.69s-8.3 9.46-7.58 17.82 3.19 16.56 3.19 16.56l.56-.89c2.68 4.17 7.77 11.37 10.61 10.72 3.97-.91 2.34-4.59 2.16-7.65s3.58-20 17.73-20.78 21.72 4.46 24.12 9.68 2.4 14.64 5.28 14.72c2.87.08 5.47-.07 7.4-3.61.45-.83 1.17-.96 2.01-.67 0-.15.01-.3.01-.46 0-.82-.04-1.62-.1-2.43Z" style="stroke-width:0;fill:#f48040"/><path d="M52.29 43.63c-3.77-7.97-13.36-7.51-10.83-28.7-5.31 6.53-3.54 20.02-2.44 25.46.89 4.39 2.43 11.22.88 15.03-.72 1.2-1.95 2.12-3.98 3.25-3.11 1.73-5.34.9-6.61 0-2.34-2.11-4.89-8.58-4.89-8.58l1.18-4.69s-8.3 9.46-7.58 17.82 3.19 16.56 3.19 16.56l.56-.89c2.68 4.17 7.77 11.37 10.61 10.72 3.97-.91 2.34-4.59 2.16-7.65s3.58-20 17.73-20.78c0 0 3.77-9.6 0-17.56Z" style="stroke-width:0;fill:#ffe549"/><path d="m50.83 89.83-.15-.08c-1.7-.88-2.35-2.94-1.46-4.61l5.11-9.58c.89-1.67 2.99-2.31 4.68-1.44l.15.08c1.7.88 2.35 2.94 1.46 4.61l-5.11 9.58c-.89 1.67-2.99 2.31-4.68 1.44M38.1 102.39v-.17c.1-1.88 1.72-3.34 3.63-3.25l11.16.51c1.91.09 3.39 1.69 3.3 3.57v.17c-.1 1.88-1.72 3.34-3.63 3.25l-11.16-.51c-1.91-.09-3.39-1.69-3.3-3.57m36.66 2.64-.14.1c-1.58 1.07-3.74.67-4.82-.89l-6.05-8.69a3.39 3.39 0 0 1 .9-4.75l.14-.1c1.58-1.07 3.74-.67 4.82.89l6.05 8.69c1.08 1.56.68 3.68-.9 4.75" class="cls-2"/><path d="M86.76 43.8c-4.16-5.69-9.15-11.02-8.91-18.62.02-.75-.86-1.19-1.43-.69-4.33 3.75-7.1 7.59-6.9 20.37-3.32-4.4-6.31-8.43-9.39-12.41-5.88-7.58-10.82-15.36-7.69-25.34.24-.75-.57-1.41-1.25-1C45.63 9.39 31.33 20 39.28 41.52c1.32 3.58 1.61 7.66 1.22 11.4-.46 4.36-3.78 6.54-7.7 6.38-3.9-.16-7.03-3.02-7.44-7.28-.15-1.59-.02-3.21.13-5.04.07-.87-1.09-1.28-1.58-.54-6.3 9.51-7.53 19.24-3.89 29.59 1.65 4.7 4.64 9.08 8.4 12.7 2.58 2.49 6.97.3 6.39-3.21a20.4 20.4 0 0 1-.26-3.24c0-11.76 10.16-21.29 22.7-21.29s22.7 9.53 22.7 21.29c0 .28 0 .57-.02.85-.15 3.53 4.39 5.1 6.64 2.35 9.49-11.61 10.23-27.91.19-41.68" class="cls-2"/></svg>