<?xml version="1.0" encoding="UTF-8"?>
<svg id="flatten_icons" data-name="flatten icons" xmlns="http://www.w3.org/2000/svg" viewBox="0 0 112 112">
  <defs>
    <style>
      .cls-1 {
        fill: none;
      }

      .cls-1, .cls-2, .cls-3, .cls-4, .cls-5 {
        stroke-width: 0px;
      }

      .cls-2 {
        fill: #88b559;
      }

      .cls-3 {
        fill: #aad681;
      }

      .cls-4 {
        fill: #efe8c7;
      }

      .cls-5 {
        fill: #004241;
      }
    </style>
  </defs>
  <rect class="cls-1" width="112" height="112"/>
  <g>
    <g>
      <path class="cls-3" d="m42.4,27.86S27.94,11.38,11.94,11.09l-3.23,11.41s11.43-1.14,29.32,17.4l2.97,3.08,8.71-9.92-7.31-5.2Z"/>
      <path class="cls-5" d="m41,44.98c-.54,0-1.06-.22-1.44-.61l-2.97-3.08C19.78,23.87,8.99,24.48,8.88,24.49c-.65.05-1.3-.22-1.71-.73-.41-.51-.57-1.18-.39-1.81l3.23-11.41c.24-.86,1.03-1.46,1.92-1.46h.04c15.96.29,30.03,15.34,31.77,17.27l7.13,5.07c.46.33.76.84.83,1.4.07.56-.11,1.13-.48,1.55l-8.71,9.92c-.37.42-.9.67-1.46.68-.02,0-.03,0-.05,0ZM11.3,20.67c4.64.7,14.72,3.91,28.16,17.84l1.46,1.52,5.81-6.62-5.51-3.92c-.13-.09-.24-.19-.34-.31-.13-.15-13.14-14.77-27.47-16.01l-2.13,7.5Z"/>
    </g>
    <g>
      <path class="cls-2" d="m38.86,35.98S26.38,17.97,29.98,2.37l11.85-.37s-3.88,10.82,9.78,32.66l2.27,3.63-11.73,6.05-3.27-8.36Z"/>
      <path class="cls-5" d="m42.14,46.34c-.24,0-.48-.04-.71-.13-.53-.2-.95-.61-1.16-1.14l-3.19-8.14c-1.45-2.15-12.65-19.45-9.05-35,.2-.88.98-1.52,1.89-1.55L41.77,0c.66-.03,1.29.29,1.68.82.39.54.49,1.23.27,1.85-.03.08-3.23,10.41,9.59,30.93l2.27,3.63c.3.47.38,1.05.23,1.59-.15.54-.52.99-1.01,1.25l-11.73,6.04c-.29.15-.6.22-.92.22ZM31.63,4.32c-2.27,14.2,8.76,30.36,8.87,30.53.09.13.16.26.22.41l2.47,6.29,7.83-4.04-1.12-1.79c-10.26-16.42-10.93-26.98-10.48-31.65l-7.79.25Z"/>
    </g>
    <g>
      <path class="cls-4" d="m96.1,100.65l-3.28,2.56c-3.3,2.57-8.06,1.99-10.63-1.31l-1.19-2.05c-6.62-11.36-14.21-22.13-22.69-32.18l-3.52-4.17,12-9.38,3.18,4.41c7.7,10.66,16.3,20.63,25.72,29.81l1.71,1.67c2.57,3.3,1.99,8.06-1.31,10.63Z"/>
      <path class="cls-5" d="m88.16,106.81c-2.85,0-5.67-1.26-7.56-3.68-.06-.07-.11-.15-.15-.22l-1.19-2.05c-6.54-11.23-14.11-21.96-22.49-31.9l-3.52-4.17c-.35-.42-.52-.96-.46-1.5.06-.54.33-1.04.76-1.37l12-9.38c.43-.33.97-.48,1.51-.4.54.08,1.02.37,1.34.81l3.18,4.41c7.61,10.54,16.18,20.48,25.49,29.55l1.71,1.67c.06.06.12.13.18.2,1.57,2.02,2.27,4.52,1.96,7.06-.31,2.54-1.59,4.8-3.61,6.38l-3.28,2.56c-1.75,1.36-3.82,2.02-5.88,2.02Zm-4.32-6.04c1.91,2.33,5.36,2.73,7.75.86l3.28-2.56h0c1.17-.92,1.92-2.23,2.1-3.71.18-1.44-.2-2.86-1.06-4.01l-1.61-1.57c-9.47-9.23-18.2-19.35-25.94-30.07l-1.97-2.73-8.73,6.82,2.18,2.59c8.53,10.11,16.23,21.03,22.89,32.46l1.12,1.92Z"/>
    </g>
    <g>
      <path class="cls-2" d="m54.79,63.5s-20.37-19.46-38.47-12.96l-3.73-12.67s31.57-11.6,54.2,16.25l-12,9.38Z"/>
      <path class="cls-5" d="m54.79,65.5c-.5,0-1-.19-1.38-.55-.2-.19-19.71-18.53-36.41-12.53-.52.19-1.09.15-1.58-.1-.49-.25-.86-.69-1.01-1.22l-3.73-12.67c-.3-1.01.24-2.08,1.23-2.44.33-.12,33.18-11.77,56.44,16.87.34.42.5.95.44,1.49-.06.53-.33,1.02-.76,1.35l-12,9.38c-.36.28-.8.42-1.23.42Zm-30.67-18.27c5.93,0,12.43,1.88,19.18,5.6,5.39,2.97,9.57,6.33,11.57,8.06l9.05-7.07c-18.5-21.21-42.18-16.52-48.86-14.63l2.6,8.84c2.06-.54,4.22-.8,6.45-.8Z"/>
    </g>
    <g>
      <path class="cls-3" d="m66.86,54.08s-14.11-21.25-2.62-39.66l-10.58-7.31s-20.34,27.64,1.2,56.34l12-9.38Z"/>
      <path class="cls-5" d="m54.85,65.45c-.09,0-.18,0-.26-.02-.53-.07-1.01-.35-1.34-.78-22.18-29.55-1.43-58.44-1.21-58.73.64-.87,1.86-1.07,2.75-.46l10.58,7.31c.88.61,1.13,1.8.56,2.7-4.44,7.11-5.38,15.53-2.79,25.03,1.97,7.24,5.36,12.41,5.39,12.46.58.87.39,2.04-.44,2.68l-12,9.38c-.35.28-.79.42-1.23.42Zm-.67-55.54c-3.75,6.03-14.92,27.68,1.07,50.69l8.97-7.01c-1.25-2.19-3.43-6.47-4.92-11.91-2.69-9.8-1.91-18.98,2.27-26.67l-7.39-5.1Z"/>
    </g>
    <g>
      <path class="cls-3" d="m92.82,103.21s-3.23,3.85-1.61,6.79"/>
      <path class="cls-5" d="m91.21,112c-.71,0-1.39-.37-1.75-1.04-2.21-4.02,1.41-8.54,1.83-9.04.71-.85,1.97-.96,2.82-.25.84.71.96,1.97.25,2.81-.76.92-2.11,3.25-1.4,4.55.53.97.18,2.18-.79,2.72-.31.17-.64.25-.96.25Z"/>
    </g>
    <g>
      <path class="cls-3" d="m94.97,102.58s-.66,2.79,1.62,5.46"/>
      <path class="cls-5" d="m96.59,110.04c-.56,0-1.12-.24-1.52-.7-2.32-2.71-2.38-5.82-2.05-7.22.25-1.07,1.33-1.75,2.41-1.49,1.07.25,1.73,1.31,1.49,2.38-.02.12-.34,1.94,1.19,3.72.72.84.62,2.1-.22,2.82-.38.32-.84.48-1.3.48Z"/>
    </g>
    <g>
      <path class="cls-3" d="m96.1,100.65s4.38-.69,7.2,1.03"/>
      <path class="cls-5" d="m103.29,103.68c-.36,0-.72-.09-1.04-.29-1.77-1.09-4.82-.92-5.84-.76-1.08.17-2.11-.58-2.28-1.67-.17-1.09.57-2.11,1.66-2.28.52-.08,5.21-.75,8.56,1.3.94.58,1.24,1.81.66,2.75-.38.62-1.03.96-1.71.96Z"/>
    </g>
  </g>
</svg>