<svg xmlns="http://www.w3.org/2000/svg" id="flatten_icons" data-name="flatten icons" viewBox="0 0 112 112"><defs><style>.cls-2,.cls-3,.cls-5{stroke-width:0}.cls-2{fill:#88b559}.cls-3{fill:#aad681}.cls-5{fill:#004241}</style></defs><path d="M0 0h112v112H0z" style="fill:none;stroke-width:0"/><path d="M42.4 27.86S27.94 11.38 11.94 11.09L8.71 22.5s11.43-1.14 29.32 17.4L41 42.98l8.71-9.92z" class="cls-3"/><path d="M41 44.98c-.54 0-1.06-.22-1.44-.61l-2.97-3.08C19.78 23.87 8.99 24.48 8.88 24.49c-.65.05-1.3-.22-1.71-.73s-.57-1.18-.39-1.81l3.23-11.41c.24-.86 1.03-1.46 1.92-1.46h.04C27.93 9.37 42 24.42 43.74 26.35l7.13 5.07c.46.33.76.84.83 1.4s-.11 1.13-.48 1.55l-8.71 9.92c-.37.42-.9.67-1.46.68H41ZM11.3 20.67c4.64.7 14.72 3.91 28.16 17.84l1.46 1.52 5.81-6.62-5.51-3.92c-.13-.09-.24-.19-.34-.31-.13-.15-13.14-14.77-27.47-16.01l-2.13 7.5Z" class="cls-5"/><path d="M38.86 35.98S26.38 17.97 29.98 2.37L41.83 2s-3.88 10.82 9.78 32.66l2.27 3.63-11.73 6.05-3.27-8.36Z" class="cls-2"/><path d="M42.14 46.34a2 2 0 0 1-1.87-1.27l-3.19-8.14c-1.45-2.15-12.65-19.45-9.05-35 .2-.88.98-1.52 1.89-1.55L41.77 0c.66-.03 1.29.29 1.68.82.39.54.49 1.23.27 1.85-.03.08-3.23 10.41 9.59 30.93l2.27 3.63c.3.47.38 1.05.23 1.59s-.52.99-1.01 1.25l-11.73 6.04c-.29.15-.6.22-.92.22ZM31.63 4.32c-2.27 14.2 8.76 30.36 8.87 30.53.09.13.16.26.22.41l2.47 6.29 7.83-4.04-1.12-1.79C39.64 19.3 38.97 8.74 39.42 4.07z" class="cls-5"/><path d="m96.1 100.65-3.28 2.56c-3.3 2.57-8.06 1.99-10.63-1.31L81 99.85a227.6 227.6 0 0 0-22.69-32.18l-3.52-4.17 12-9.38 3.18 4.41c7.7 10.66 16.3 20.63 25.72 29.81l1.71 1.67c2.57 3.3 1.99 8.06-1.31 10.63Z" style="stroke-width:0;fill:#efe8c7"/><path d="M88.16 106.81c-2.85 0-5.67-1.26-7.56-3.68-.06-.07-.11-.15-.15-.22l-1.19-2.05a226.4 226.4 0 0 0-22.49-31.9l-3.52-4.17a2 2 0 0 1 .3-2.87l12-9.38c.43-.33.97-.48 1.51-.4s1.02.37 1.34.81l3.18 4.41a226.3 226.3 0 0 0 25.49 29.55l1.71 1.67c.06.06.12.13.18.2a9.54 9.54 0 0 1 1.96 7.06 9.5 9.5 0 0 1-3.61 6.38l-3.28 2.56a9.55 9.55 0 0 1-5.88 2.02Zm-4.32-6.04c1.91 2.33 5.36 2.73 7.75.86l3.28-2.56a5.54 5.54 0 0 0 2.1-3.71c.18-1.44-.2-2.86-1.06-4.01l-1.61-1.57c-9.47-9.23-18.2-19.35-25.94-30.07l-1.97-2.73-8.73 6.82 2.18 2.59a230 230 0 0 1 22.89 32.46l1.12 1.92Z" class="cls-5"/><path d="M54.79 63.5S34.42 44.04 16.32 50.54l-3.73-12.67s31.57-11.6 54.2 16.25z" class="cls-2"/><path d="M54.79 65.5c-.5 0-1-.19-1.38-.55-.2-.19-19.71-18.53-36.41-12.53-.52.19-1.09.15-1.58-.1s-.86-.69-1.01-1.22l-3.73-12.67c-.3-1.01.24-2.08 1.23-2.44.33-.12 33.18-11.77 56.44 16.87.34.42.5.95.44 1.49-.06.53-.33 1.02-.76 1.35l-12 9.38c-.36.28-.8.42-1.23.42ZM24.12 47.23c5.93 0 12.43 1.88 19.18 5.6 5.39 2.97 9.57 6.33 11.57 8.06l9.05-7.07C45.42 32.61 21.74 37.3 15.06 39.19l2.6 8.84c2.06-.54 4.22-.8 6.45-.8Z" class="cls-5"/><path d="M66.86 54.08s-14.11-21.25-2.62-39.66L53.66 7.11s-20.34 27.64 1.2 56.34l12-9.38Z" class="cls-3"/><path d="M54.85 65.45c-.09 0-.18 0-.26-.02-.53-.07-1.01-.35-1.34-.78C31.07 35.1 51.82 6.21 52.04 5.92c.64-.87 1.86-1.07 2.75-.46l10.58 7.31c.88.61 1.13 1.8.56 2.7-4.44 7.11-5.38 15.53-2.79 25.03 1.97 7.24 5.36 12.41 5.39 12.46.58.87.39 2.04-.44 2.68l-12 9.38c-.35.28-.79.42-1.23.42Zm-.67-55.54c-3.75 6.03-14.92 27.68 1.07 50.69l8.97-7.01c-1.25-2.19-3.43-6.47-4.92-11.91-2.69-9.8-1.91-18.98 2.27-26.67z" class="cls-5"/><path d="M92.82 103.21s-3.23 3.85-1.61 6.79" class="cls-3"/><path d="M91.21 112c-.71 0-1.39-.37-1.75-1.04-2.21-4.02 1.41-8.54 1.83-9.04a2 2 0 0 1 3.07 2.56c-.76.92-2.11 3.25-1.4 4.55a2.006 2.006 0 0 1-1.75 2.97" class="cls-5"/><path d="M94.97 102.58s-.66 2.79 1.62 5.46" class="cls-3"/><path d="M96.59 110.04c-.56 0-1.12-.24-1.52-.7-2.32-2.71-2.38-5.82-2.05-7.22a2 2 0 0 1 2.41-1.49 1.99 1.99 0 0 1 1.49 2.38c-.02.12-.34 1.94 1.19 3.72a1.998 1.998 0 0 1-1.52 3.3Z" class="cls-5"/><path d="M96.1 100.65s4.38-.69 7.2 1.03" class="cls-3"/><path d="M103.29 103.68c-.36 0-.72-.09-1.04-.29-1.77-1.09-4.82-.92-5.84-.76-1.08.17-2.11-.58-2.28-1.67s.57-2.11 1.66-2.28c.52-.08 5.21-.75 8.56 1.3a2 2 0 0 1 .66 2.75c-.38.62-1.03.96-1.71.96Z" class="cls-5"/></svg>