<svg xmlns="http://www.w3.org/2000/svg" id="flatten_icons" data-name="flatten icons" viewBox="0 0 112 112"><defs><style>.cls-6{stroke-width:0;fill:#004241}</style></defs><path d="M0 0h112v112H0z" style="fill:none;stroke-width:0"/><path d="M56.36 36.32c-.18 0-.36-.02-.55-.08a2.005 2.005 0 0 1-1.38-2.47c.14-.49 3.27-12.29-7.77-18.09a1.999 1.999 0 1 1 1.86-3.54c13.95 7.32 9.8 22.57 9.76 22.73-.25.88-1.05 1.45-1.92 1.45" class="cls-6"/><path d="M56.44 22.51S55.28-4.46 86.01 3.46c0 0 1.69 26.06-29.57 19.05" style="stroke-width:0;fill:#73cc64"/><path d="M66.24 25.71c-3.12 0-6.53-.42-10.24-1.25-.88-.2-1.52-.96-1.56-1.87-.02-.48-.41-11.78 7.62-18.28 5.65-4.58 13.88-5.52 24.45-2.79.84.22 1.44.94 1.5 1.81.03.45.63 11.09-7 17.61-3.72 3.18-8.66 4.77-14.76 4.77Zm-7.76-4.81c8.88 1.72 15.58.72 19.92-3 4.64-3.97 5.47-10.1 5.6-12.87-8.52-1.94-15.05-1.14-19.41 2.38-4.91 3.96-5.92 10.53-6.11 13.49" class="cls-6"/><path d="M72.62 45.19c-.8-3.86-2.94-7.49-6.44-10.14-5.96-4.51-14.39-4.51-20.34 0-3.24 2.45-5.32 5.75-6.24 9.28-1.27 4.86-3.42 9.48-6.8 13.2-5.47 6.01-8.64 14.15-8.1 23.04.94 15.65 13.67 28.41 29.32 29.38 18.24 1.13 33.38-13.32 33.38-31.32 0-8.18-3.13-15.62-8.26-21.21-3.17-3.45-5.55-7.63-6.5-12.23Z" style="stroke-width:0;fill:#b2dd7f"/><path d="M79.12 57.41c-3.17-3.45-5.55-7.63-6.5-12.23-.24-1.17-.62-2.31-1.11-3.41-.83 5.62.09 11.36 2.2 16.64 3.48 8.67 3.85 18.62.28 28.06-4.27 11.28-13.25 19.4-23.85 22.97 1.26.24 2.55.41 3.86.49 18.24 1.13 33.38-13.32 33.38-31.32 0-8.18-3.13-15.62-8.26-21.21Z" style="stroke-width:0;fill:#8ac17c"/><path d="M56.03 112c-.72 0-1.43-.02-2.15-.07-16.77-1.04-30.18-14.48-31.19-31.25-.55-9.09 2.52-17.79 8.62-24.5 2.9-3.19 5.04-7.35 6.35-12.36 1.08-4.15 3.49-7.74 6.97-10.37 6.7-5.07 16.06-5.07 22.76 0 3.71 2.81 6.27 6.84 7.2 11.33.82 3.99 2.9 7.89 6.01 11.28a33.25 33.25 0 0 1 8.79 22.56c0 9.17-3.84 18.04-10.52 24.33-6.26 5.88-14.29 9.05-22.83 9.05ZM56 33.64c-3.16 0-6.33 1-8.96 3-2.75 2.08-4.66 4.92-5.52 8.19-1.47 5.64-3.92 10.37-7.26 14.04-5.37 5.9-8.07 13.56-7.58 21.57.89 14.76 12.69 26.59 27.44 27.5 8.22.51 16.03-2.3 21.99-7.91 5.97-5.61 9.26-13.22 9.26-21.41 0-7.38-2.75-14.43-7.73-19.86-3.6-3.92-6.02-8.48-6.99-13.17-.74-3.6-2.71-6.69-5.69-8.95-2.64-2-5.8-3-8.96-3" class="cls-6"/><path d="M40.37 93.48c-.45 0-.9-.15-1.27-.46-7.1-5.86-5.77-19.09-5.71-19.65.12-1.1 1.1-1.89 2.2-1.77s1.89 1.1 1.78 2.2c-.01.12-1.16 11.65 4.27 16.14a2.005 2.005 0 0 1-1.27 3.55Z" style="stroke-width:0;fill:#fff"/></svg>