<svg xmlns="http://www.w3.org/2000/svg" id="outline_icons" viewBox="0 0 112 112"><defs><style>.cls-2{fill:#f4d7a8}.cls-5{fill:#004241}</style></defs><g id="poischiches"><path d="M0 0h112v112H0z" style="fill:none"/><path d="M48.71 57.51c0 9.17-7.44 16.61-16.61 16.61s-16.61-7.44-16.61-16.61c0-5.69 2.86-10.7 7.21-13.7 2.67-1.84 5.91-5.48 9.4-5.48 3.19 0 6.17 3.46 8.7 5.02 4.75 2.92 7.91 8.17 7.91 14.15Z" style="fill:#e5c28f"/><path d="M32.1 76.13c-10.26 0-18.61-8.35-18.61-18.61 0-6.13 3.02-11.87 8.08-15.35.62-.43 1.31-.99 2.05-1.59 2.43-1.99 5.19-4.24 8.49-4.24 2.94 0 5.4 1.96 7.57 3.7.79.63 1.53 1.22 2.18 1.62 5.55 3.42 8.86 9.35 8.86 15.86 0 10.26-8.35 18.61-18.61 18.61Zm0-35.79c-1.88 0-4.04 1.77-5.96 3.33-.8.65-1.55 1.27-2.31 1.79a14.64 14.64 0 0 0-6.35 12.05c0 8.06 6.56 14.61 14.61 14.61S46.7 65.56 46.7 57.51c0-5.11-2.6-9.77-6.96-12.45-.86-.53-1.69-1.2-2.58-1.9-1.66-1.32-3.54-2.82-5.08-2.82Z" class="cls-5"/><path d="M28.19 62.11s.24 11.81 8.42 11.39" class="cls-2"/><path d="M36.18 75.51c-2.25 0-4.19-.75-5.79-2.24-3.99-3.71-4.18-10.82-4.19-11.12a2 2 0 0 1 1.96-2.04c1.1.01 2.02.85 2.04 1.96.04 1.59.64 6.16 2.92 8.28.91.85 2.03 1.22 3.39 1.15 1.13-.07 2.04.79 2.1 1.89a2 2 0 0 1-1.89 2.1c-.18 0-.36.01-.54.01Z" class="cls-5"/><path d="M87.62 66.34c7.77 4.73 10.23 14.87 5.49 22.64s-17.94 10.23-22.64 5.49c-3.97-4-7.59-7.94-7.88-13.18-.18-3.21-1.59-7.83.21-10.78 1.65-2.7 6.12-3.44 8.74-4.78 4.92-2.51 11-2.48 16.06.61Z" style="fill:#f7e0bf"/><path d="M77.66 98.88c-3.61 0-6.67-1.05-8.61-3-4.44-4.47-8.13-8.64-8.45-14.47-.04-.75-.16-1.62-.29-2.55-.43-3.08-.91-6.58.8-9.38 1.52-2.49 4.46-3.57 7.05-4.51.94-.34 1.82-.66 2.5-1.01 5.76-2.94 12.5-2.68 18.01.68 4.21 2.57 7.17 6.62 8.34 11.42 1.16 4.79.39 9.76-2.18 13.97-3.38 5.54-9.86 8.14-14.81 8.72-.8.09-1.59.14-2.35.14Zm1.39-32.96c-2.25 0-4.5.53-6.59 1.59-.89.45-1.89.82-2.94 1.2-1.97.72-4.21 1.54-5 2.83-.96 1.58-.58 4.33-.25 6.75.14 1.01.27 1.97.32 2.88.24 4.44 3.31 7.86 7.3 11.88 1.45 1.46 4.31 2.1 7.65 1.7 5.04-.59 9.69-3.27 11.86-6.83 2.01-3.3 2.62-7.19 1.71-10.94-.91-3.76-3.23-6.93-6.53-8.95a14.5 14.5 0 0 0-7.52-2.13Z" class="cls-5"/><path d="M63.56 25.78c3.51-7.43 11.23-9.46 18.66-5.95s10.61 11.23 7.1 18.66c-2.18 4.6-6.41 7.57-11.08 8.33-2.87.47-6.88 1.02-9.71-.31-2.58-1.22-3.67-4.02-5.13-6.25-2.72-4.18-2.13-9.64.16-14.48" class="cls-2"/><path d="M73.07 49.34c-1.84 0-3.75-.25-5.4-1.02-2.57-1.21-3.89-3.49-5.06-5.5-.29-.5-.58-1-.89-1.47-2.85-4.38-2.84-10.36.03-16.43 3.86-8.17 12.63-11.01 21.32-6.9 4.09 1.93 7.17 5.11 8.66 8.94 1.53 3.92 1.31 8.32-.61 12.38a16.87 16.87 0 0 1-12.57 9.45c-1.37.22-3.38.55-5.49.55Zm2.1-29.18c-1.1 0-2.17.15-3.17.45-2.89.88-5.18 2.96-6.63 6.02-2.26 4.78-2.36 9.35-.29 12.54.34.53.67 1.08.99 1.64.96 1.65 1.87 3.21 3.31 3.89 2.41 1.14 6.39.49 8.53.14 4.19-.68 7.78-3.38 9.59-7.21 2.98-6.3.45-12.88-6.14-16-2.07-.98-4.19-1.48-6.19-1.48Zm-11.61 5.62" class="cls-5"/><path d="M83.54 76.59s11.72.13 11.37 8.24" class="cls-2"/><path d="M94.91 86.83h-.09c-1.1-.05-1.96-.98-1.91-2.08.06-1.35-.33-2.45-1.17-3.34-2.12-2.24-6.66-2.79-8.23-2.82a2 2 0 0 1 .03-4h.02c.3 0 7.35.13 11.08 4.06 1.61 1.7 2.37 3.81 2.27 6.27a2 2 0 0 1-2 1.91" class="cls-5"/><path d="M72.6 40.69s-.74 2.18 0 6.65" class="cls-2"/><path d="M72.6 49.34c-.96 0-1.81-.69-1.97-1.67-.8-4.83-.01-7.36.08-7.63a1.996 1.996 0 0 1 2.54-1.25c1.04.35 1.59 1.47 1.26 2.51-.03.09-.55 1.98.07 5.71.18 1.09-.56 2.12-1.65 2.3q-.165.03-.33.03" class="cls-5"/></g></svg>