<svg xmlns="http://www.w3.org/2000/svg" id="flatten_icons" data-name="flatten icons" viewBox="0 0 112 112"><defs><style>.cls-4,.cls-5,.cls-6,.cls-8{stroke-width:0}.cls-4{fill:#d66a5f}.cls-5{fill:#b2e561}.cls-6{fill:#fff}.cls-8{fill:#004241}</style></defs><path d="M0 0h112v112H0z" style="fill:none;stroke-width:0"/><path d="m27.36 15.56-.28-4.49a1.1 1.1 0 0 1 1.4-1.13l6.06 1.74c.65.19 1.31-.25 1.4-.92l.27-2.19c.1-.83 1.05-1.25 1.73-.76l4.34 3.09c.61.44 1.48.14 1.69-.58l1.76-5.87h10.2l-.58 1.9c-.73 2.41-.98 4.95-.73 7.46l.21 2.07-10.62 7.74H30.55z" class="cls-5"/><path d="M44.21 25.62H30.55a2 2 0 0 1-1.86-1.26L25.5 16.3c-.08-.2-.12-.4-.14-.61l-.28-4.49c-.06-1 .37-1.98 1.15-2.61s1.83-.84 2.8-.56l5.04 1.45.14-1.15c.13-1.1.82-2.02 1.83-2.46 1.01-.45 2.15-.33 3.05.31l3.31 2.36 1.4-4.67c.25-.85 1.03-1.42 1.92-1.42h10.2a2.004 2.004 0 0 1 1.92 2.58l-.58 1.9c-.66 2.17-.88 4.42-.65 6.67l.21 2.07c.07.71-.24 1.4-.81 1.82l-10.62 7.74c-.34.25-.75.38-1.18.38Zm-12.3-4h11.65l9.17-6.68-.09-.93c-.26-2.55-.06-5.09.61-7.56h-6.03l-1.33 4.45c-.29.96-1.02 1.72-1.96 2.04s-1.99.17-2.8-.41l-3.1-2.21-.08.69c-.11.9-.61 1.71-1.37 2.21s-1.7.64-2.57.39l-4.83-1.39.18 2.9 2.57 6.5Z" class="cls-8"/><path d="M58.11 15.56c-2.9 0-5.68.74-8.27 2.09-4.42 2.31-9.79 2.31-14.21 0-2.59-1.35-5.37-2.09-8.27-2.09-13.84 0-25.06 16.77-25.06 37.46s13.04 37.46 26.89 37.46c2.9 0 3.86-.74 6.44-2.09 4.42-2.31 8.88-2.31 13.3 0 2.59 1.35 5.37 2.09 8.27 2.09 13.84 0 25.97-16.77 25.97-37.46S71.95 15.56 58.11 15.56" style="stroke-width:0;fill:#43a343"/><path d="M77.01 28.42c1.07 4.93 1.61 10.46 1.61 16.31 0 20.69-7.57 37.46-21.41 37.46-2.9 0-5.68-.74-8.27-2.09-4.42-2.31-8.88-2.31-13.3 0-2.59 1.35-3.55 2.09-6.44 2.09-7.17 0-15.01-2.88-20.91-8.52C12.78 83.8 20.46 90.48 29.2 90.48c2.9 0 3.86-.74 6.44-2.09 4.42-2.31 8.88-2.31 13.3 0 2.59 1.35 5.37 2.09 8.27 2.09 13.84 0 25.97-16.77 25.97-37.46 0-9.42-2.33-18.02-6.17-24.6" style="stroke-width:0;fill:#328e32"/><path d="M57.2 92.47c-3.16 0-6.25-.78-9.2-2.32-3.85-2.02-7.59-2.01-11.44 0l-.89.47c-2.08 1.11-3.45 1.85-6.48 1.85-14.38 0-25.98-15.76-28.87-39.21C-1.07 42 2.28 30.56 9.28 22.64c5.11-5.78 11.7-9.09 18.09-9.09 3.16 0 6.25.78 9.2 2.32 3.87 2.03 8.49 2.03 12.36 0 2.94-1.54 6.04-2.32 9.2-2.32 6.28 0 12.51 3.07 17.56 8.65 7.1 7.84 10.65 19.43 9.49 31.01-2.31 23.12-13.8 39.26-27.96 39.26Zm-14.92-7.84c2.53 0 5.06.66 7.58 1.97 2.36 1.24 4.83 1.86 7.34 1.86 11.84 0 21.92-15 23.98-35.66 1.04-10.47-2.12-20.91-8.48-27.93-4.28-4.73-9.46-7.33-14.59-7.33-2.51 0-4.98.63-7.34 1.86a17.35 17.35 0 0 1-16.07 0c-2.36-1.24-4.83-1.86-7.34-1.86-5.24 0-10.74 2.82-15.09 7.74-6.25 7.07-9.23 17.34-7.98 27.48 2.63 21.36 12.64 35.7 24.9 35.7 2.03 0 2.73-.37 4.59-1.37.29-.15.59-.32.93-.49 2.51-1.32 5.05-1.97 7.58-1.97Z" class="cls-8"/><path d="M44.21 74.08c-.72 0-1.42-.39-1.78-1.08-4.49-8.71-2.92-27.54-2.85-28.34.1-1.1 1.07-1.91 2.17-1.82A1.99 1.99 0 0 1 43.57 45c-.02.18-1.54 18.48 2.42 26.16.51.98.12 2.19-.86 2.7-.29.15-.61.22-.92.22M33.67 26.7c-1.1 0-2-.89-2-1.99s.89-2 1.99-2.01c.06 0 7.34-.16 14.89-6.57.84-.71 2.1-.61 2.82.23.71.84.61 2.1-.23 2.82-8.73 7.41-17.11 7.52-17.47 7.52" class="cls-8"/><path d="M13.19 48.44c-1.05 0-1.93-.82-1.99-1.89-.73-12.8 7.6-19.43 7.96-19.71.87-.68 2.13-.52 2.81.35a2 2 0 0 1-.34 2.8c-.29.23-7.03 5.69-6.42 16.33a2 2 0 0 1-1.88 2.11h-.11Z" class="cls-6"/><path d="m90.32 46.44 4-1.79s2.09-10.45 0-12.92c0 0 1.52-2.67 6.48-1.33 0 0 2.09 10.28.76 13.33s-1.33 12.95-1.33 12.95l-13.9-3.65 4-6.58Z" class="cls-5"/><path d="M100.23 58.67c-.17 0-.34-.02-.51-.07l-13.9-3.65a2.01 2.01 0 0 1-1.35-1.19c-.24-.59-.18-1.25.15-1.79l4-6.58c.21-.35.52-.62.89-.79l3.04-1.36c.82-4.62.95-9.34.24-10.24-.51-.64-.61-1.57-.21-2.28.09-.16 2.36-3.99 8.73-2.27.73.2 1.29.79 1.44 1.53.37 1.82 2.14 11.08.63 14.53-.85 1.94-1.17 8.48-1.17 12.15 0 .62-.29 1.21-.78 1.58-.35.27-.78.42-1.22.42Zm-10.8-6.91 8.84 2.32c.1-3.31.42-8.78 1.46-11.17.61-1.39.16-6.44-.64-10.84-1.09-.14-1.83 0-2.31.19 1.1 3.67.08 9.92-.49 12.77a2 2 0 0 1-1.14 1.43L91.72 48l-2.28 3.76Z" class="cls-8"/><path d="m42.27 10.9 4.84 2.12" class="cls-5"/><path d="M47.11 15.02c-.27 0-.54-.05-.8-.17l-4.83-2.12a2.007 2.007 0 0 1-1.03-2.64 2.007 2.007 0 0 1 2.64-1.03l4.83 2.12c1.01.44 1.47 1.62 1.03 2.64a2 2 0 0 1-1.83 1.2Z" class="cls-8"/><path d="M49.84 96.43c-.91-8.05 6.94-26.14 12.49-33.15s7.78-17.72 16.28-18.56 14.05 5.22 14.05 5.22 6.84-4.28 14.52 4.65c7.69 8.94-.85 31.58-20.08 41.83-6.44 3.44-20.93 11.53-25.2 11.11-4.27-.43-11.15-3.06-12.06-11.11Z" style="stroke-width:0;fill:#ef6c65"/><path d="M62.21 109.55c-.18 0-.34 0-.5-.02-5.78-.58-12.88-4.29-13.85-12.87-.99-8.7 7.23-27.45 12.91-34.62 1.64-2.07 3.03-4.58 4.36-7 3.15-5.71 6.41-11.62 13.29-12.3 7.2-.71 12.45 2.95 14.62 4.82 3.45-1.27 9.66-1.24 15.66 5.74 2.97 3.45 3.97 8.69 2.84 14.77-2.23 11.88-11.45 23.71-23.49 30.13l-2.12 1.14c-10.01 5.39-19.36 10.22-23.72 10.22ZM51.83 96.2c.91 8.01 8.72 9.19 10.27 9.34 3.24.36 16.34-6.73 21.93-9.74l2.13-1.15c12.52-6.68 19.79-18.55 21.44-27.34.91-4.86.22-8.91-1.94-11.42-6.49-7.55-11.89-4.3-11.95-4.26-.82.51-1.89.37-2.54-.34-.04-.05-5.02-5.3-12.38-4.58-4.78.47-7.28 5-10.18 10.25-1.42 2.57-2.88 5.22-4.73 7.56-5.15 6.5-12.91 24.26-12.07 31.68Z" class="cls-8"/><path d="M92.66 49.95S78.89 62.58 77.75 70.57" class="cls-4"/><path d="M77.76 72.57c-.09 0-.19 0-.29-.02a2.01 2.01 0 0 1-1.7-2.26c1.21-8.46 14.08-20.47 15.54-21.82.81-.75 2.08-.69 2.83.12s.69 2.08-.12 2.83c-3.68 3.38-13.43 13.46-14.28 19.43a2 2 0 0 1-1.98 1.72" class="cls-8"/><path d="M57.95 99.33s-.65 4.42 3.96 8.21" class="cls-4"/><path d="M61.91 109.54c-.45 0-.9-.15-1.27-.46-5.42-4.46-4.7-9.82-4.67-10.05a2.013 2.013 0 0 1 2.27-1.69c1.09.16 1.84 1.17 1.69 2.25-.02.19-.34 3.45 3.25 6.39.85.7.98 1.96.28 2.81-.4.48-.97.73-1.55.73Z" class="cls-8"/><path d="M59.09 88h-.07a2 2 0 0 1-1.93-2.07c.21-6.31 6.85-13.31 7.61-14.09.77-.79 2.04-.81 2.83-.04s.81 2.04.04 2.83c-1.76 1.81-6.35 7.39-6.48 11.43a2 2 0 0 1-2 1.93Z" class="cls-6"/></svg>