<svg xmlns="http://www.w3.org/2000/svg" id="flatten_icons" data-name="flatten icons" viewBox="0 0 112 112"><defs><style>.cls-5,.cls-7{stroke-width:0}.cls-5{fill:#f6dbe3}.cls-7{fill:#014241}</style></defs><g id="polo"><path d="M80.22 10.24H66.93l-1.08.38a30.7 30.7 0 0 1-21.05-.25l-.35-.13H32.14c-2.2 0-4.31.9-5.83 2.5L2.62 37.59c-.89.94-.82 2.43.17 3.27l11.44 9.77c.84.71 2.06.72 2.91.02l7.25-6.05v62.33h62.78V44.6l7.86 6.56c.49.41 1.21.41 1.7 0l12.82-10.94c.57-.48.62-1.34.11-1.89L86.14 12.86a8.07 8.07 0 0 0-5.92-2.59Z" style="stroke-width:0;fill:#ecccd4"/><path d="M87.17 108.93H24.39c-1.1 0-2-.9-2-2V48.87l-3.96 3.31a4.25 4.25 0 0 1-5.49-.03L1.49 42.38A4.28 4.28 0 0 1 0 39.36c-.06-1.16.37-2.31 1.17-3.15l23.67-24.85c1.89-1.98 4.54-3.12 7.28-3.12h12.31c.24 0 .48.04.71.13l.35.13a28.75 28.75 0 0 0 19.68.23l1.08-.38c.21-.08.44-.11.66-.11H80.2c2.8 0 5.49 1.18 7.39 3.24l23.52 25.47c.61.66.93 1.55.87 2.45s-.48 1.74-1.16 2.32L98 52.66a3.31 3.31 0 0 1-4.28.02l-4.57-3.82v58.06c0 1.1-.9 2-2 2Zm-60.78-4h58.78V44.6a1.997 1.997 0 0 1 3.28-1.53l7.41 6.19 11.84-10.1-23.03-24.95a6.06 6.06 0 0 0-4.45-1.95H67.27l-.76.27a32.78 32.78 0 0 1-22.42-.26s-11.95 0-11.95 0c-1.65 0-3.25.69-4.39 1.88L4.07 38.97c-.05.05-.07.12-.07.19q0 .105.09.18l11.44 9.77c.09.08.23.08.33 0l7.25-6.05c.6-.5 1.43-.6 2.13-.28.7.33 1.15 1.04 1.15 1.81v60.33Zm81.79-65.27" class="cls-7"/><path d="M55.78 27.16 69.23 6.24c-4.8-1.98-9.79-.86-13.23-.85-3.69 0-10.11-.53-13.42.99z" style="stroke-width:0;fill:#dc9bac"/><path d="M55.78 29.16c-.68 0-1.32-.35-1.68-.93L40.9 7.45a2.004 2.004 0 0 1 .85-2.89c3.09-1.42 7.98-1.3 11.91-1.21.86.02 1.65.05 2.35.04.77 0 1.68-.07 2.65-.14 3.25-.24 7.29-.53 11.35 1.14a1.993 1.993 0 0 1 .92 2.93L57.48 28.24c-.37.57-1 .92-1.68.92ZM45.71 7.58l10.08 15.87L66.12 7.39c-2.45-.49-4.93-.31-7.18-.15-1.05.08-2.02.13-2.96.15-.72 0-1.54-.02-2.42-.04-2.42-.06-5.48-.13-7.84.23Z" class="cls-7"/><path d="m24.39 44.59 3.59-3.5" style="stroke-width:0;fill:#b3e3f0"/><path d="M24.39 46.59c-.52 0-1.04-.2-1.43-.6-.77-.79-.75-2.06.04-2.83l3.59-3.5c.79-.77 2.06-.75 2.83.04s.75 2.06-.04 2.83l-3.59 3.5c-.39.38-.89.57-1.4.57Zm62.78 0c-1.1 0-2-.9-2-2V38.9c0-1.1.9-2 2-2s2 .9 2 2v5.69c0 1.1-.9 2-2 2m-31.39.5c-1.1 0-2-.9-2-2V27.16c0-1.1.9-2 2-2s2 .9 2 2v17.93c0 1.1-.9 2-2 2m18.96-4h-5.51c-1.1 0-2-.9-2-2s.9-2 2-2h5.51c1.1 0 2 .9 2 2s-.9 2-2 2" style="stroke-width:0;fill:#004241"/><path d="m42.58 6.38-5.91 4.87 8.39 21.28 10.72-5.37z" class="cls-5"/><path d="M45.06 34.53c-.24 0-.48-.04-.71-.13-.52-.2-.94-.61-1.15-1.13l-8.39-21.29c-.32-.81-.08-1.73.59-2.28l5.91-4.87c.44-.37 1.02-.52 1.59-.43s1.07.42 1.37.9l13.2 20.78c.3.48.39 1.06.24 1.61-.15.54-.53 1-1.03 1.25l-10.72 5.37c-.28.14-.59.21-.9.21Zm-6-22.67 7.05 17.9 6.78-3.4-10.8-17-3.04 2.51Z" class="cls-7"/><path d="m69.2 6.38 5.91 4.87-8.39 21.28L56 27.16z" class="cls-5"/><path d="M66.72 34.53c-.31 0-.62-.07-.9-.21L55.1 28.95c-.51-.25-.88-.71-1.03-1.25-.15-.55-.06-1.13.24-1.61l13.2-20.78c.31-.48.81-.81 1.37-.9.57-.09 1.15.07 1.59.43l5.91 4.87c.67.55.91 1.47.59 2.28l-8.39 21.29a2 2 0 0 1-1.86 1.26Zm-7.84-8.17 6.78 3.4 7.06-17.9-3.04-2.51-10.8 17Z" class="cls-7"/><path d="M0 0h112v112H0z" style="fill:none;stroke-width:0"/></g></svg>