<?xml version="1.0" encoding="UTF-8"?>
<svg id="flatten_icons" data-name="flatten icons" xmlns="http://www.w3.org/2000/svg" viewBox="0 0 112 112">
  <defs>
    <style>
      .cls-1 {
        fill: none;
      }

      .cls-1, .cls-2, .cls-3, .cls-4, .cls-5, .cls-6, .cls-7 {
        stroke-width: 0px;
      }

      .cls-2 {
        fill: #dc9bac;
      }

      .cls-3 {
        fill: #b3e3f0;
      }

      .cls-4 {
        fill: #ecccd4;
      }

      .cls-5 {
        fill: #f6dbe3;
      }

      .cls-6 {
        fill: #004241;
      }

      .cls-7 {
        fill: #014241;
      }
    </style>
  </defs>
  <g id="polo">
    <g>
      <g>
        <g>
          <path class="cls-4" d="m80.22,10.24h-13.29l-1.08.38c-6.83,2.4-14.28,2.31-21.05-.25l-.35-.13h-12.31c-2.2,0-4.31.9-5.83,2.5L2.62,37.59c-.89.94-.82,2.43.17,3.27l11.44,9.77c.84.71,2.06.72,2.91.02l7.25-6.05v62.33h62.78v-62.33l7.86,6.56c.49.41,1.21.41,1.7,0l12.82-10.94c.57-.48.62-1.34.11-1.89l-23.52-25.47c-1.53-1.65-3.67-2.59-5.92-2.59Z"/>
          <path class="cls-7" d="m87.17,108.93H24.39c-1.1,0-2-.9-2-2v-58.06l-3.96,3.31c-1.6,1.33-3.91,1.32-5.49-.03L1.49,42.38c-.88-.75-1.43-1.85-1.49-3.02-.06-1.16.37-2.31,1.17-3.15L24.84,11.36c1.89-1.98,4.54-3.12,7.28-3.12h12.31c.24,0,.48.04.71.13l.35.13c6.32,2.39,13.31,2.47,19.68.23l1.08-.38c.21-.08.44-.11.66-.11h13.29c2.8,0,5.49,1.18,7.39,3.24l23.52,25.47c.61.66.93,1.55.87,2.45s-.48,1.74-1.16,2.32l-12.82,10.94c-1.23,1.05-3.03,1.06-4.28.02l-4.57-3.82v58.06c0,1.1-.9,2-2,2Zm-60.78-4h58.78v-60.33c0-.78.45-1.48,1.15-1.81.7-.33,1.53-.22,2.13.28l7.41,6.19,11.84-10.1-23.03-24.95c-1.14-1.24-2.76-1.95-4.45-1.95h-12.95l-.76.27c-7.26,2.55-15.22,2.46-22.42-.26h0s-11.95,0-11.95,0c-1.65,0-3.25.69-4.39,1.88L4.07,38.97c-.05.05-.07.12-.07.19,0,.07.03.13.09.18l11.44,9.77c.09.08.23.08.33,0l7.25-6.05c.6-.5,1.43-.6,2.13-.28.7.33,1.15,1.04,1.15,1.81v60.33ZM108.18,39.66h0,0Z"/>
        </g>
        <g>
          <path class="cls-2" d="m55.78,27.16l13.45-20.92c-4.8-1.98-9.79-.86-13.23-.85-3.69,0-10.11-.53-13.42.99l13.2,20.78Z"/>
          <path class="cls-7" d="m55.78,29.16h0c-.68,0-1.32-.35-1.68-.93l-13.2-20.78c-.31-.49-.39-1.08-.23-1.64.16-.55.56-1.01,1.08-1.25,3.09-1.42,7.98-1.3,11.91-1.21.86.02,1.65.05,2.35.04.77,0,1.68-.07,2.65-.14,3.25-.24,7.29-.53,11.35,1.14.55.23.97.68,1.15,1.25s.09,1.18-.23,1.68l-13.45,20.92c-.37.57-1,.92-1.68.92Zm-10.07-21.58l10.08,15.87,10.33-16.06c-2.45-.49-4.93-.31-7.18-.15-1.05.08-2.02.13-2.96.15-.72,0-1.54-.02-2.42-.04-2.42-.06-5.48-.13-7.84.23Z"/>
        </g>
        <g>
          <line class="cls-3" x1="24.39" y1="44.59" x2="27.98" y2="41.09"/>
          <path class="cls-6" d="m24.39,46.59c-.52,0-1.04-.2-1.43-.6-.77-.79-.75-2.06.04-2.83l3.59-3.5c.79-.77,2.06-.75,2.83.04.77.79.75,2.06-.04,2.83l-3.59,3.5c-.39.38-.89.57-1.4.57Z"/>
        </g>
        <path class="cls-6" d="m87.17,46.59c-1.1,0-2-.9-2-2v-5.69c0-1.1.9-2,2-2s2,.9,2,2v5.69c0,1.1-.9,2-2,2Z"/>
        <path class="cls-6" d="m55.78,47.09c-1.1,0-2-.9-2-2v-17.93c0-1.1.9-2,2-2s2,.9,2,2v17.93c0,1.1-.9,2-2,2Z"/>
        <path class="cls-6" d="m74.74,43.09h-5.51c-1.1,0-2-.9-2-2s.9-2,2-2h5.51c1.1,0,2,.9,2,2s-.9,2-2,2Z"/>
      </g>
      <g>
        <polygon class="cls-5" points="42.58 6.38 36.67 11.25 45.06 32.53 55.78 27.16 42.58 6.38"/>
        <path class="cls-7" d="m45.06,34.53c-.24,0-.48-.04-.71-.13-.52-.2-.94-.61-1.15-1.13l-8.39-21.29c-.32-.81-.08-1.73.59-2.28l5.91-4.87c.44-.37,1.02-.52,1.59-.43.57.09,1.07.42,1.37.9l13.2,20.78c.3.48.39,1.06.24,1.61-.15.54-.53,1-1.03,1.25l-10.72,5.37c-.28.14-.59.21-.9.21Zm-6-22.67l7.05,17.9,6.78-3.4-10.8-17-3.04,2.51Z"/>
      </g>
      <g>
        <polygon class="cls-5" points="69.2 6.38 75.11 11.25 66.72 32.53 56 27.16 69.2 6.38"/>
        <path class="cls-7" d="m66.72,34.53c-.31,0-.62-.07-.9-.21l-10.72-5.37c-.51-.25-.88-.71-1.03-1.25-.15-.55-.06-1.13.24-1.61l13.2-20.78c.31-.48.81-.81,1.37-.9.57-.09,1.15.07,1.59.43l5.91,4.87c.67.55.91,1.47.59,2.28l-8.39,21.29c-.21.52-.62.93-1.15,1.13-.23.09-.47.13-.71.13Zm-7.84-8.17l6.78,3.4,7.06-17.9-3.04-2.51-10.8,17Z"/>
      </g>
    </g>
    <rect class="cls-1" width="112" height="112"/>
  </g>
</svg>