<?xml version="1.0" encoding="UTF-8"?>
<svg id="outline_icons" xmlns="http://www.w3.org/2000/svg" viewBox="0 0 112 112">
  <defs>
    <style>
      .cls-1 {
        fill: none;
      }

      .cls-2 {
        fill: #c1a085;
      }

      .cls-3 {
        fill: #ccb479;
      }

      .cls-4 {
        fill: #af8977;
      }

      .cls-5 {
        fill: #f2df91;
      }

      .cls-6 {
        fill: #a08b5d;
      }

      .cls-7 {
        fill: #004241;
      }
    </style>
  </defs>
  <g id="pommedeterre">
    <rect class="cls-1" width="112" height="112"/>
    <g>
      <path class="cls-3" d="M101.93,38.39c0,14.57-17.27,22.14-38.57,22.14s-35.06-10.09-38.57-26.37c-3.51-16.28,7.62-29.58,38.57-26.37,21.19,2.2,38.57,15.7,38.57,30.6Z"/>
      <circle class="cls-6" cx="47.61" cy="19.5" r="3.22"/>
      <circle class="cls-6" cx="69.9" cy="33.91" r="3.22"/>
      <circle class="cls-6" cx="77.7" cy="16.55" r="5.02"/>
      <circle class="cls-6" cx="46.4" cy="38.31" r="4.06"/>
      <circle class="cls-6" cx="94.31" cy="29.71" r="4.06"/>
      <path class="cls-6" d="M102.99,43.52c-.04-3.29-3.79-3.79-6.42-1.38-6.51,5.95-20.33,8.12-35.02,8.12s-26.03-4.16-32.63-11.36c-1.12-1.23-3.45-.37-3.07,1.15,0,.02.01.04.02.06,3.51,13.81,17.27,21.48,38.57,21.48,19.08-1.06,33.95-6.06,38.57-17.89,0-.06,0-.12,0-.18Z"/>
      <path class="cls-7" d="M63.36,62.53c-21.6,0-36.75-10.45-40.52-27.95-1.71-7.93-.16-14.86,4.48-20.04,4.68-5.22,14.76-10.97,36.25-8.74,22.63,2.35,40.36,16.67,40.36,32.59,0,14.67-15.92,24.14-40.57,24.14ZM54.49,9.3c-11.23,0-19.5,2.68-24.18,7.91-3.75,4.18-4.98,9.9-3.55,16.53,3.4,15.76,16.74,24.79,36.61,24.79,26.99,0,36.57-10.85,36.57-20.14,0-13.67-16.5-26.51-36.77-28.62-3.06-.32-5.95-.47-8.67-.47Z"/>
      <path class="cls-2" d="M62.75,72.04c-5.4,11.73,13.34,29.8-28.11,19.44-13.35-3.34-24.15-10.87-22.24-23.65s17.36-21.79,31.28-21.56c13.76.23,31.04-.24,19.06,25.77Z"/>
      <circle class="cls-4" cx="38.4" cy="50.69" r="3.46"/>
      <path class="cls-4" d="M62.82,49.46c-.62,2.7-1.71,5.83-3.4,9.52-5.4,11.73,13.34,29.8-28.11,19.44-7.9-1.97-14.9-5.42-18.91-10.55-1.89,12.75,8.9,20.28,22.24,23.61,41.45,10.36,22.71-7.71,28.11-19.44,6.01-13.05,4.65-19.43.07-22.58Z"/>
      <path class="cls-7" d="M53.44,96.56c-4.61,0-10.9-1.04-19.29-3.14-16.91-4.23-25.56-13.66-23.73-25.89,2.13-14.21,18.96-23.49,33.29-23.26l1.13.02c8.5.13,18.14.27,22.17,6.66,2.98,4.72,2.18,11.9-2.44,21.93h0c-1.34,2.91-.91,6.49-.49,9.95.51,4.23,1.04,8.61-2.1,11.38-1.77,1.57-4.52,2.35-8.54,2.35ZM43.19,48.27c-12.32,0-27.04,8.05-28.81,19.86-.88,5.84.66,16.4,20.74,21.41,13.5,3.37,21.64,3.93,24.21,1.67,1.56-1.38,1.2-4.4.77-7.9-.46-3.83-.99-8.16.83-12.1h0c3.95-8.58,4.86-14.68,2.69-18.12-2.87-4.55-11.35-4.68-18.84-4.79l-1.13-.02c-.15,0-.31,0-.46,0ZM62.75,72.04h0,0Z"/>
      <path class="cls-2" d="M29.65,81.7s2.77,10.35,2.14,15.09-3.95,8.41,1.96,8.58,11.2-2.58,10.53-10.17c-.73-8.35-5.81-18.9-5.81-18.9l-7.31-5.87-3.93,1.59,2.42,9.69Z"/>
      <path class="cls-7" d="M35.69,107.32c-1.89,0-4.42-.29-6.04-2.23-1.72-2.05-1.99-5.31-.9-10.91,1.32-6.78-2.63-15.83-2.67-15.93-.45-1.01.01-2.19,1.02-2.64,1.01-.44,2.19.01,2.64,1.02.18.42,4.49,10.31,2.94,18.31-.79,4.05-.78,6.6.04,7.57.17.21.7.87,3.24.79,2.09-.03,3.65-.87,4.78-2.54,2.23-3.31,2.15-9.16.79-12.68-.4-1.03.12-2.19,1.15-2.58,1.03-.4,2.19.12,2.58,1.15,1.73,4.49,1.89,11.75-1.21,16.36-1.86,2.76-4.64,4.25-8.03,4.3-.11,0-.22,0-.33,0Z"/>
      <ellipse class="cls-5" cx="57.7" cy="71.28" rx="23.39" ry="18.7" transform="translate(-21.34 117.79) rotate(-81.48)"/>
      <circle class="cls-4" cx="27.32" cy="60.99" r="3.46"/>
      <path class="cls-7" d="M56.47,96.58c-.84,0-1.68-.06-2.53-.19-11.29-1.69-18.79-14.33-16.71-28.18,2.07-13.85,12.95-23.74,24.24-22.04,11.29,1.69,18.79,14.33,16.71,28.18h0c-1.92,12.81-11.37,22.23-21.71,22.23ZM58.92,49.98c-8.39,0-16.11,8-17.74,18.83-1.75,11.67,4.24,22.26,13.35,23.63,9.11,1.36,17.94-7.02,19.69-18.68h0c1.75-11.67-4.24-22.26-13.35-23.63-.65-.1-1.31-.15-1.95-.15ZM76.2,74.05h0,0Z"/>
      <path class="cls-7" d="M57.35,32.39c-.34,0-.69-.09-1.01-.27-.95-.56-1.27-1.77-.72-2.72.17-.29,1.7-2.83,4.42-3.41,1.08-.24,2.77-.23,4.63,1.12.9.65,1.1,1.9.45,2.79-.65.9-1.9,1.1-2.79.45-.81-.58-1.28-.48-1.44-.45-.84.17-1.61,1.18-1.81,1.51-.38.63-1.04.98-1.73.98Z"/>
      <path class="cls-7" d="M35.31,37.4c-.13,0-.26-.02-.39-.04-.13-.03-.25-.06-.37-.11s-.24-.12-.35-.19c-.11-.07-.21-.16-.3-.25-.19-.19-.34-.41-.44-.65-.1-.24-.15-.5-.15-.76,0-.13.01-.27.04-.39.03-.13.06-.26.11-.38.05-.12.12-.24.19-.34.07-.11.16-.22.25-.31.46-.46,1.15-.68,1.8-.54.13.02.26.06.38.11.12.05.23.11.34.18.11.08.21.16.3.25.1.09.18.2.25.31.07.11.14.22.19.34.05.12.09.25.11.38.03.12.04.26.04.39,0,.26-.05.52-.15.76-.1.24-.25.46-.44.65-.09.09-.19.18-.3.25-.11.07-.22.14-.34.19-.12.05-.25.08-.38.11-.12.02-.26.04-.39.04Z"/>
      <path class="cls-7" d="M83.83,42.47c-.54,0-1.04-.21-1.42-.59s-.58-.88-.58-1.42c0-.13.01-.26.04-.39.02-.12.06-.25.11-.37.05-.12.11-.24.18-.35.08-.1.16-.21.25-.3.75-.74,2.09-.74,2.83,0,.37.37.59.89.59,1.41s-.21,1.04-.59,1.42c-.09.09-.2.18-.3.25-.11.07-.23.13-.35.18s-.24.09-.37.12c-.13.02-.26.04-.39.04Z"/>
    </g>
  </g>
</svg>