<?xml version="1.0" encoding="UTF-8"?>
<svg id="flatten_icons" data-name="flatten icons" xmlns="http://www.w3.org/2000/svg" viewBox="0 0 112 112">
  <defs>
    <style>
      .cls-1 {
        fill: none;
      }

      .cls-1, .cls-2, .cls-3, .cls-4, .cls-5, .cls-6 {
        stroke-width: 0px;
      }

      .cls-2 {
        fill: #c95a55;
      }

      .cls-3 {
        fill: #aad681;
      }

      .cls-4 {
        fill: #fff;
      }

      .cls-5 {
        fill: #eb706b;
      }

      .cls-6 {
        fill: #004241;
      }
    </style>
  </defs>
  <rect class="cls-1" width="112" height="112"/>
  <g>
    <g>
      <path class="cls-3" d="m58.76,28.35s-1.16-26.91,29.5-19.01c0,0,1.68,26-29.5,19.01Z"/>
      <path class="cls-6" d="m68.54,31.54c-3.11,0-6.52-.41-10.22-1.24-.88-.2-1.52-.96-1.56-1.87-.02-.48-.41-11.75,7.6-18.24,5.64-4.57,13.85-5.51,24.4-2.79.84.22,1.44.94,1.5,1.81.03.45.62,11.06-6.98,17.57-3.71,3.17-8.64,4.76-14.73,4.76Zm-7.74-4.81c8.84,1.72,15.51.72,19.85-2.97,4.62-3.93,5.47-10.08,5.6-12.85-8.5-1.93-15-1.13-19.35,2.37-4.9,3.95-5.9,10.49-6.1,13.45Z"/>
    </g>
    <path class="cls-5" d="m94.65,63.06c0,20.03-16.56,47.37-34.69,39.37-2.15-.95-4.09-1.93-7.91,0-17.48,8.86-34.7-19.36-34.7-39.38,0-15.42,5.16-26.97,18.93-26.77,7.02.1,11.78,4.34,19.72,4.34,8.62,0,13.53-4.34,21.04-4.18,12.82.28,17.61,11.7,17.61,26.61Z"/>
    <path class="cls-6" d="m56.79,39.92c-.18,0-.36-.02-.55-.08-1.06-.3-1.68-1.41-1.38-2.47.14-.49,3.26-12.26-7.75-18.04-.98-.51-1.35-1.72-.84-2.7.51-.98,1.72-1.35,2.7-.84,13.92,7.31,9.78,22.53,9.74,22.68-.25.88-1.05,1.45-1.92,1.45Z"/>
    <path class="cls-6" d="m68.54,31.54c-3.11,0-6.52-.41-10.22-1.24-.88-.2-1.52-.96-1.56-1.87-.02-.48-.41-11.75,7.6-18.24,5.64-4.57,13.85-5.51,24.4-2.79.84.22,1.44.94,1.5,1.81.03.45.62,11.06-6.98,17.57-3.71,3.17-8.64,4.76-14.73,4.76Zm-7.74-4.81c8.84,1.72,15.51.72,19.85-2.97,4.62-3.93,5.47-10.08,5.6-12.85-8.5-1.93-15-1.13-19.35,2.37-4.9,3.95-5.9,10.49-6.1,13.45Z"/>
    <path class="cls-2" d="m90.84,44.6c-3.42,1.04-5.96,4.83-5.77,9.55.31,7.85-3.45,34.85-29.07,38.61-25.44,3.74-36.05-15.13-36.2-15.38,5.36,16.57,18.72,31.92,32.25,25.06,3.81-1.93,5.76-.95,7.91,0,18.13,8,34.69-19.35,34.69-39.37,0-7.29-1.15-13.74-3.82-18.46Z"/>
    <path class="cls-4" d="m36.41,71.21c-.85,0-1.64-.54-1.91-1.4-4.32-13.62.04-20.55.23-20.84.6-.93,1.84-1.19,2.77-.59.92.6,1.18,1.83.6,2.75-.08.13-3.45,5.9.22,17.47.33,1.05-.25,2.18-1.3,2.51-.2.06-.4.09-.6.09Z"/>
    <path class="cls-6" d="m45.29,106.11c-3.28,0-6.59-1-9.84-2.99-11.09-6.81-20.1-24.78-20.1-40.06,0-10.95,2.47-18.94,7.35-23.75,3.46-3.41,8.06-5.07,13.6-5.02,3.69.05,6.78,1.14,9.77,2.19,3.15,1.11,6.13,2.15,9.92,2.15,4.07,0,7.34-1.07,10.5-2.11,3.23-1.06,6.56-2.16,10.58-2.07,12.62.27,19.57,10.43,19.57,28.61,0,15.01-8.46,32.28-19.25,39.32-5.95,3.88-12.26,4.52-18.25,1.88l-.21-.09c-1.96-.87-3.14-1.39-5.99.05-2.49,1.26-5.06,1.89-7.66,1.89Zm-9.36-67.82c-4.31,0-7.81,1.3-10.42,3.87-4.03,3.97-6.16,11.2-6.16,20.9,0,13.81,8.33,30.59,18.2,36.65,4.64,2.85,9.21,3.16,13.6.94,4.54-2.3,7.24-1.1,9.42-.14l.2.09c4.76,2.1,9.63,1.57,14.45-1.57,9.61-6.27,17.43-22.4,17.43-35.97,0-11.07-2.72-24.33-15.66-24.61-3.34-.07-6.21.87-9.25,1.87-3.3,1.08-7.03,2.31-11.75,2.31s-7.92-1.21-11.25-2.38c-2.81-.99-5.46-1.92-8.5-1.96-.11,0-.21,0-.32,0Z"/>
  </g>
</svg>