<svg xmlns="http://www.w3.org/2000/svg" id="flatten_icons" data-name="flatten icons" viewBox="0 0 112 112"><defs><style>.cls-2{fill:none}.cls-3,.cls-4,.cls-5{stroke-width:0}.cls-2{stroke:#004241;stroke-linecap:round;stroke-linejoin:round;stroke-width:4px}.cls-3{fill:#a4b5bb}.cls-4{fill:#d2d9db}.cls-5{fill:#fff}</style></defs><path d="M0 0h112v112H0z" style="fill:none;stroke-width:0"/><rect width="99.33" height="77.61" x="6.33" y="13.49" class="cls-5" rx="9.94" ry="9.94"/><circle cx="44.93" cy="52.61" r="29.54" class="cls-3"/><path d="M95.14 20.26H73.91c-3.25 0-5.09 3.76-3.06 6.29 4.94 6.17 7.73 14.15 7.21 22.79-1 16.49-14.3 29.92-30.78 31.05-19.4 1.34-35.56-14-35.56-33.12 0-7.8 2.69-14.97 7.2-20.63 2.05-2.58.31-6.39-2.99-6.39h-.06c-5.27 0-9.54 4.27-9.54 9.54v51.57c0 5.38 4.36 9.73 9.73 9.73h78.71c5.27 0 9.54-4.27 9.54-9.54V29.43a9.18 9.18 0 0 0-9.18-9.18Z" class="cls-4"/><path d="M20.84 91.25h14.37v7.25H20.84zm54.25 0h14.37v7.25H75.09z" class="cls-3"/><path d="M42.11 47.27s-6.95-16.79 2.82-17.37 5.55 8.29 4.7 10.4-1.91 6.32-1.91 6.32zm8.81 2.27s8.59-5.24 13.26-2.27 5.58 6.24 3.86 8.41-5.51 4.87-8.16 2.78-8.66-3.67-10.09-2.78 1.12-6.14 1.12-6.14ZM39.19 50.7s-4.77-.47-7.52-1.95-7.76-2.75-8.42 0-.92 10.17 4.81 10.16 12.63-3.24 12.63-3.24l-1.5-4.98Z" class="cls-4"/><path d="M43.17 57.98s-.87 5-2.49 7.93-.88 9.39 4.24 9.54 6.7-4.3 6.33-8.73-1.47-11.03-1.47-11.03l-6.62 2.3Z" class="cls-4"/><circle cx="45.86" cy="52.77" r="6.15" class="cls-5"/><circle cx="45.24" cy="52.3" r="29.85" class="cls-2"/><circle cx="45.24" cy="52.3" r="5.68" class="cls-2"/><path d="M42.11 47.27s-4.07-6.51-2.6-12.24 7.32-5.94 9.71-4.43c2.86 1.8 3.37 5.23 1.7 7.89-1.71 2.74-4.06 5.5-3.04 8.78m1.06 10.71s4.07 6.51 2.6 12.24-7.32 5.94-9.71 4.43c-2.86-1.8-3.37-5.23-1.7-7.89s4.06-5.5 3.04-8.78m-3.61-1.6s-6.51 4.07-12.24 2.6-5.94-7.32-4.43-9.71c1.8-2.86 5.23-3.37 7.89-1.7s5.5 4.06 8.78 3.04m11.36-1.07s6.51-4.07 12.24-2.6 5.94 7.32 4.43 9.71c-1.8 2.86-5.23 3.37-7.89 1.7s-5.5-4.06-8.78-3.04" class="cls-2"/><rect width="99.33" height="77.61" x="6.33" y="13.49" class="cls-2" rx="10.12" ry="10.12"/><path d="M85.68 32.45h10.41M85.68 45.68h10.41M85.68 58.91h10.41M85.68 72.15h10.41M20.9 91.1h14.31v7.4H20.9zm55.89 0H91.1v7.4H76.79z" class="cls-2"/></svg>