<?xml version="1.0" encoding="UTF-8"?>
<svg id="flatten_icons" data-name="flatten icons" xmlns="http://www.w3.org/2000/svg" viewBox="0 0 112 112">
  <defs>
    <style>
      .cls-1, .cls-2 {
        fill: none;
      }

      .cls-1, .cls-3, .cls-4, .cls-5 {
        stroke-width: 0px;
      }

      .cls-2 {
        stroke: #004241;
        stroke-linecap: round;
        stroke-linejoin: round;
        stroke-width: 4px;
      }

      .cls-3 {
        fill: #a4b5bb;
      }

      .cls-4 {
        fill: #d2d9db;
      }

      .cls-5 {
        fill: #fff;
      }
    </style>
  </defs>
  <rect class="cls-1" width="112" height="112"/>
  <g>
    <g>
      <rect class="cls-5" x="6.33" y="13.49" width="99.33" height="77.61" rx="9.94" ry="9.94"/>
      <circle class="cls-3" cx="44.93" cy="52.61" r="29.54"/>
      <path class="cls-4" d="m95.14,20.26h-21.23c-3.25,0-5.09,3.76-3.06,6.29,4.94,6.17,7.73,14.15,7.21,22.79-1,16.49-14.3,29.92-30.78,31.05-19.4,1.34-35.56-14-35.56-33.12,0-7.8,2.69-14.97,7.2-20.63,2.05-2.58.31-6.39-2.99-6.39h-.06c-5.27,0-9.54,4.27-9.54,9.54v51.57c0,5.38,4.36,9.73,9.73,9.73h78.71c5.27,0,9.54-4.27,9.54-9.54V29.43c0-5.07-4.11-9.18-9.18-9.18Z"/>
      <rect class="cls-3" x="20.84" y="91.25" width="14.37" height="7.25"/>
      <rect class="cls-3" x="75.09" y="91.25" width="14.37" height="7.25"/>
      <path class="cls-4" d="m42.11,47.27s-6.95-16.79,2.82-17.37c9.77-.58,5.55,8.29,4.7,10.4s-1.91,6.32-1.91,6.32l-5.61.65Z"/>
      <path class="cls-4" d="m50.92,49.54s8.59-5.24,13.26-2.27,5.58,6.24,3.86,8.41-5.51,4.87-8.16,2.78-8.66-3.67-10.09-2.78,1.12-6.14,1.12-6.14Z"/>
      <path class="cls-4" d="m39.19,50.7s-4.77-.47-7.52-1.95c-2.75-1.48-7.76-2.75-8.42,0s-.92,10.17,4.81,10.16c5.73-.01,12.63-3.24,12.63-3.24l-1.5-4.98Z"/>
      <path class="cls-4" d="m43.17,57.98s-.87,5-2.49,7.93-.88,9.39,4.24,9.54,6.7-4.3,6.33-8.73-1.47-11.03-1.47-11.03l-6.62,2.3Z"/>
      <circle class="cls-5" cx="45.86" cy="52.77" r="6.15"/>
    </g>
    <g>
      <g>
        <circle class="cls-2" cx="45.24" cy="52.3" r="29.85"/>
        <circle class="cls-2" cx="45.24" cy="52.3" r="5.68"/>
        <path class="cls-2" d="m42.11,47.27s-4.07-6.51-2.6-12.24c1.47-5.73,7.32-5.94,9.71-4.43,2.86,1.8,3.37,5.23,1.7,7.89-1.71,2.74-4.06,5.5-3.04,8.78"/>
        <path class="cls-2" d="m48.94,57.98s4.07,6.51,2.6,12.24c-1.47,5.73-7.32,5.94-9.71,4.43-2.86-1.8-3.37-5.23-1.7-7.89s4.06-5.5,3.04-8.78"/>
        <path class="cls-2" d="m39.56,56.38s-6.51,4.07-12.24,2.6-5.94-7.32-4.43-9.71c1.8-2.86,5.23-3.37,7.89-1.7s5.5,4.06,8.78,3.04"/>
        <path class="cls-2" d="m50.92,49.54s6.51-4.07,12.24-2.6,5.94,7.32,4.43,9.71c-1.8,2.86-5.23,3.37-7.89,1.7s-5.5-4.06-8.78-3.04"/>
      </g>
      <rect class="cls-2" x="6.33" y="13.49" width="99.33" height="77.61" rx="10.12" ry="10.12"/>
      <line class="cls-2" x1="85.68" y1="32.45" x2="96.09" y2="32.45"/>
      <line class="cls-2" x1="85.68" y1="45.68" x2="96.09" y2="45.68"/>
      <line class="cls-2" x1="85.68" y1="58.91" x2="96.09" y2="58.91"/>
      <line class="cls-2" x1="85.68" y1="72.15" x2="96.09" y2="72.15"/>
      <g>
        <rect class="cls-2" x="20.9" y="91.1" width="14.31" height="7.4"/>
        <rect class="cls-2" x="76.79" y="91.1" width="14.31" height="7.4"/>
      </g>
    </g>
  </g>
</svg>