<svg xmlns="http://www.w3.org/2000/svg" id="flatten_icons" viewBox="0 0 112 112"><defs><style>.cls-3{fill:#e8beb8}.cls-4{fill:#e5d0cf}.cls-5{fill:#004241}</style></defs><g id="porc"><path d="M90.1 43.6c-.82 0-1.59-.51-1.89-1.33-.37-1.04.18-2.18 1.21-2.55.08-.03 7.75-2.84 10.47-9.3 1.53-3.63 1.22-7.82-.91-12.47a1.998 1.998 0 0 1 3.63-1.67c2.62 5.72 2.94 11 .95 15.72-3.42 8.09-12.42 11.35-12.8 11.49-.22.08-.45.12-.67.12Z" class="cls-5"/><path d="M97.22 35.16c-4.07 0-7.39-3.32-7.39-7.39s3.32-7.39 7.39-7.39 7.39 3.32 7.39 7.39-3.32 7.39-7.39 7.39m0-10.78c-1.87 0-3.39 1.52-3.39 3.39s1.52 3.39 3.39 3.39 3.39-1.52 3.39-3.39-1.52-3.39-3.39-3.39" class="cls-5"/><path d="M75.14 94.88h11.55l2-28.57H74.14z" class="cls-4"/><path d="M86.69 96.88H75.14c-1.08 0-1.96-.85-2-1.93l-1-28.57c-.02-.54.18-1.07.56-1.46s.9-.61 1.44-.61h14.55c.55 0 1.08.23 1.46.64s.57.95.53 1.5l-2 28.57a1.994 1.994 0 0 1-2 1.86Zm-9.62-4h7.75l1.72-24.57H76.21z" class="cls-5"/><path d="M26.91 94.88h11.54l2-28.57H25.91z" class="cls-4"/><path d="M38.45 96.88H26.9c-1.08 0-1.96-.85-2-1.93l-1-28.57c-.02-.54.18-1.07.56-1.46s.9-.61 1.44-.61h14.55c.55 0 1.08.23 1.46.64s.57.95.53 1.5l-2 28.57a1.994 1.994 0 0 1-2 1.86Zm-9.61-4h7.75l1.72-24.57H27.98z" class="cls-5"/><path d="M9.14 59.53c0-1.05.85-1.91 1.91-1.91h2.7c5.1 0 9.57-3.17 11.53-7.88.98-2.34 2.35-4.33 4.03-6.05-3.72-9.15 1.52-18.13 1.52-18.13 9.22 2.49 10.98 8 11.23 10.92 4.35-1.39 9.28-2.37 14.61-3.17 20.51-3.07 39 1.9 41.31 17.27.87 5.79.78 11.14-.76 15.72l-2 28.57H83.67l-1.51-15.13c-2.04.64-4.29 1.15-6.79 1.52C69.79 82.1 54 84.68 49 83.74s-.07-.01-.07-.01c-.84-.1-1.66-.2-2.46-.31l.58 11.45H35.5l-1.57-13.53c-17.58-3.59-24.8-8.22-24.8-8.22v-13.6Z" class="cls-3"/><path d="M95.22 96.88H83.67c-1.03 0-1.89-.78-1.99-1.8l-1.27-12.76c-1.5.37-3.09.69-4.74.93l-1.72.26c-10.47 1.6-20.74 2.97-25.14 2.23-.07 0-.15-.02-.22-.03l.46 9.07c.03.55-.17 1.08-.55 1.48s-.9.62-1.45.62H35.5c-1.02 0-1.87-.76-1.99-1.77l-1.4-12.1C15.39 79.44 8.35 75 8.05 74.81c-.57-.37-.92-1-.92-1.68v-13.6c0-2.15 1.75-3.91 3.91-3.91h2.7c4.2 0 8-2.61 9.68-6.65.87-2.08 2.06-4 3.57-5.73-3.17-9.5 1.86-18.29 2.09-18.68.46-.78 1.37-1.16 2.25-.92 8.37 2.26 11.26 6.99 12.25 10.31 3.57-1 7.7-1.84 12.78-2.6 24.21-3.63 41.31 3.81 43.58 18.95.97 6.47.72 11.84-.76 16.41L97.2 95.03a1.994 1.994 0 0 1-2 1.86Zm-9.73-4h7.87l1.87-26.71c.01-.17.04-.34.1-.5 1.34-4 1.56-8.84.67-14.79-2.32-15.47-22.48-18.07-39.03-15.59-5.92.89-10.46 1.87-14.3 3.1-.58.18-1.21.1-1.72-.24s-.83-.89-.88-1.49c-.2-2.32-1.56-6.39-8.19-8.68-1.17 2.69-3.2 8.85-.71 14.96.3.74.13 1.58-.42 2.15-1.59 1.63-2.77 3.4-3.61 5.42-2.31 5.53-7.56 9.11-13.38 9.11h-2.61v12.34c2.41 1.28 9.7 4.67 23.2 7.43.85.17 1.49.87 1.59 1.73l1.36 11.76h7.66l-.47-9.35c-.03-.59.21-1.17.64-1.57.44-.4 1.02-.59 1.62-.51.8.1 1.61.21 2.44.3.06 0 .12.02.18.03h.02c4.21.8 18.06-1.32 23.97-2.22l1.73-.26c2.34-.35 4.52-.84 6.49-1.45a2.005 2.005 0 0 1 2.59 1.71l1.33 13.33Z" class="cls-5"/><path d="M82.17 79.75s-6.85-6.41-4.99-12.58" class="cls-3"/><path d="M82.17 81.75c-.49 0-.98-.18-1.37-.54-.32-.3-7.73-7.35-5.54-14.62a1.986 1.986 0 0 1 2.49-1.33 2 2 0 0 1 1.34 2.49c-1.46 4.84 4.38 10.48 4.44 10.54.81.75.85 2.02.09 2.83-.39.42-.93.63-1.46.63Z" class="cls-5"/><path d="M46.93 83.22s3.46-3.24 4.8-7.33" class="cls-3"/><path d="M46.93 85.22c-.53 0-1.07-.21-1.46-.63-.75-.81-.71-2.07.09-2.83s3.11-2.96 4.26-6.49a1.999 1.999 0 0 1 3.8 1.24c-1.47 4.53-5.17 8.03-5.33 8.17-.39.36-.88.54-1.37.54Z" class="cls-5"/><path d="M90.1 52.4c-.74 0-1.45-.41-1.8-1.12-4.27-8.76-15.48-7.73-15.96-7.69-1.1.12-2.08-.69-2.19-1.78-.11-1.1.68-2.08 1.78-2.2.59-.06 14.45-1.39 19.97 9.91a2 2 0 0 1-.92 2.67c-.28.14-.58.2-.88.2Z" style="fill:#efd8d5"/><path d="M0 0h112v112H0z" style="fill:none"/></g></svg>