<?xml version="1.0" encoding="UTF-8"?>
<svg id="flatten_icons" data-name="flatten icons" xmlns="http://www.w3.org/2000/svg" viewBox="0 0 112 112">
  <defs>
    <style>
      .cls-1 {
        fill: none;
      }

      .cls-1, .cls-2, .cls-3, .cls-4, .cls-5 {
        stroke-width: 0px;
      }

      .cls-2 {
        fill: #f99b4e;
      }

      .cls-3 {
        fill: #e07b53;
      }

      .cls-4 {
        fill: #fbe4ac;
      }

      .cls-5 {
        fill: #004241;
      }
    </style>
  </defs>
  <rect class="cls-1" x="0" width="112" height="112"/>
  <g>
    <path class="cls-2" d="m110,63.72c0,12.34-4.95,27.41-19.6,30.09-5.13,5.9-20.13,9.99-34.4,7.26-12.19,3-25.83.92-30.81-5.55-15.84-2.72-23.19-18.36-23.19-31.79,0-15.13,5.26-33.53,26.83-34.03,5.16-3.37,15.25-5.76,27.17-3.31,9.09-2.45,17.81-2.45,24.54,2.6,21.01-2.6,29.46,18.96,29.46,34.74Z"/>
    <path class="cls-3" d="m102.3,38.27c4.35,13.19,1.35,26.75-.49,32.88-.29.95-1.63.91-1.88-.05-1.34-5.13-3.38-8.8-5.02-11.13-.6-.86-1.94-.3-1.75.74,2.04,11.21.09,24.41.09,24.41l-.04-1.08c-.04-.92-1.2-1.26-1.76-.53-5.41,7.08-16.74,9.95-27.51,10.31-8.22.27-12.3-5.97-14.06-9.94-.36-.8-1.48-.77-1.8.05-1.39,3.5-4.89,7.1-10.11,7.37-6.9.35-15.53-3.53-19.59-12.01-3.14-6.56-.78-21.11.45-27.36.19-.98-1.05-1.59-1.7-.83-6.01,7.03-5.59,20.56-8.29,20.25-2.58-.3-5.78-5.7-6.63-7.21-.05-.1-.13-.17-.21-.24.06,13.4,7.4,28.93,23.19,31.64,4.98,6.47,18.62,8.55,30.81,5.55,14.27,2.73,29.27-1.36,34.4-7.26,14.65-2.67,19.6-17.74,19.6-30.08,0-8.34-2.36-18.3-7.7-25.45Z"/>
    <path class="cls-5" d="m44.92,104.42c-8.89,0-16.83-2.55-20.81-7.07C7.55,94.07,0,77.72,0,63.72,0,41.48,10.28,28.39,28.22,27.71c5.21-3.16,15.33-5.81,27.71-3.38,10.34-2.7,18.8-1.83,25.15,2.58,7.32-.72,13.67,1.25,18.88,5.86,8.87,7.84,12.03,21.13,12.03,30.96,0,7.26-1.61,14.23-4.55,19.62-3.59,6.6-9.12,10.84-16.02,12.3-6.38,6.6-21.93,9.91-35.38,7.47-3.73.88-7.52,1.31-11.14,1.31Zm1.37-77.05c-7.38,0-13.15,1.9-16.36,4-.31.2-.67.32-1.05.32C7.23,32.2,4,51.97,4,63.72c0,12.58,6.74,27.28,21.53,29.82.49.08.94.35,1.25.75,4.32,5.61,16.95,7.74,28.75,4.83.28-.07.57-.08.85-.02,13.73,2.63,27.9-1.29,32.52-6.61.3-.34.7-.57,1.15-.66,13.24-2.42,17.96-16.11,17.96-28.12,0-8.54-2.8-20.99-10.68-27.96-4.51-3.98-10.07-5.6-16.54-4.8-.52.07-1.03-.08-1.45-.38-5.55-4.17-13.02-4.91-22.82-2.27-.3.08-.62.09-.92.03-3.31-.68-6.44-.97-9.32-.97Z"/>
    <g>
      <path class="cls-4" d="m45.54,33.54s7.34-5.24,4.1-12.42c-1.73-3.82-4.09-8.09-4.09-8.09,0,0-.34-3.75,6.14-3.41,0,0,5.12,9.37,6.48,11.51s2.73,8.96,1.71,13.05c0,0-5.44,1.36-6.99,4.09,0,0-.5-4.73-7.34-4.73Z"/>
      <path class="cls-5" d="m52.88,40.26c-.13,0-.27-.01-.41-.04-.85-.18-1.49-.88-1.58-1.75-.04-.26-.58-2.94-5.35-2.94-.87,0-1.64-.56-1.9-1.39-.26-.83.03-1.73.74-2.23.25-.18,5.96-4.4,3.44-9.97-1.67-3.7-4-7.91-4.02-7.95-.13-.24-.22-.51-.24-.79-.08-.92.22-2.41,1.37-3.6,1.43-1.49,3.74-2.16,6.87-1.99.69.04,1.32.43,1.65,1.04.05.09,5.1,9.33,6.41,11.39,1.59,2.49,3.14,9.88,1.96,14.62-.18.72-.74,1.28-1.45,1.46-1.92.49-4.96,1.78-5.73,3.14-.36.64-1.03,1.02-1.74,1.02Zm-3.16-8.07c1.74.62,2.95,1.6,3.76,2.64,1.57-1.11,3.42-1.83,4.64-2.23.46-3.67-.7-8.92-1.65-10.41-1.13-1.76-4.61-8.09-5.99-10.6-1.78.06-2.46.55-2.69.78-.08.09-.14.18-.19.26.71,1.31,2.46,4.6,3.84,7.65,2.15,4.75.49,9.01-1.73,11.9Z"/>
    </g>
    <path class="cls-5" d="m26.97,99.35c-.5,0-1.01-.19-1.4-.57-.42-.41-10.35-10.29-11.23-26.06-.56-10.01.94-19.16,4.56-27.97,1.59-3.87,4.15-6.5,7.42-7.62,1.05-.36,2.18.2,2.54,1.24.36,1.04-.2,2.18-1.24,2.54-2.17.75-3.86,2.55-5.02,5.36-3.39,8.25-4.79,16.83-4.26,26.23.79,14.24,9.94,23.33,10.03,23.42.79.77.8,2.04.03,2.83-.39.4-.91.6-1.43.6Z"/>
    <path class="cls-5" d="m55.99,103.06c-.37,0-.74-.1-1.08-.32-.38-.25-3.77-2.62-6.17-9.82-1.64-4.92-2.36-15.59-1.78-20.54.13-1.1,1.13-1.89,2.22-1.75,1.1.13,1.88,1.12,1.75,2.22-.53,4.52.15,14.46,1.6,18.81,1.95,5.85,4.56,7.74,4.59,7.75.89.63,1.13,1.86.52,2.77-.39.57-1.02.89-1.66.89Z"/>
    <path class="cls-5" d="m48.82,48.75s-.07,0-.1,0c-1.1-.06-1.95-1-1.9-2.1,0-.15.99-15.41,19.87-15.11,1.1.02,1.99.93,1.97,2.03-.02,1.1-.94,1.95-2.03,1.97-.17,0-.33,0-.49,0-14.57,0-15.29,10.85-15.31,11.32-.05,1.07-.94,1.9-2,1.9Z"/>
    <path class="cls-5" d="m90.4,95.81c-.32,0-.64-.08-.95-.24-.97-.52-1.34-1.73-.82-2.71.09-.17,6.73-13.05,2.2-33.31-4.05-18.11-7.52-21.12-7.9-21.4-.9-.43-1.36-1.47-1.04-2.44.35-1.05,1.48-1.61,2.53-1.26,1.59.53,5.78,3.95,10.31,24.23,4.88,21.84-2.27,35.5-2.58,36.07-.36.67-1.05,1.05-1.76,1.05Zm-7.24-57.56s0,0,0,0c0,0,0,0,0,0Zm0,0s0,0,0,0c0,0,0,0,0,0Zm0,0h0,0Zm-.25-.11h0Z"/>
    <g>
      <path class="cls-4" d="m37.97,35.15s4.87-2.79,10.85-1.15"/>
      <path class="cls-5" d="m37.98,37.14c-.7,0-1.37-.36-1.74-1.01-.54-.96-.22-2.17.74-2.72.23-.13,5.67-3.19,12.37-1.35,1.06.29,1.69,1.39,1.4,2.46s-1.39,1.69-2.46,1.4c-5.05-1.39-9.29.94-9.33.96-.31.17-.65.26-.98.26Z"/>
    </g>
    <path class="cls-5" d="m38.03,67.3c-1.63,0-3.5-.44-4.63-2.9-.46-1-.02-2.19.98-2.65,1-.46,2.19-.02,2.65.98.25.53.3.65,1.71.54.02-.29-.01-.7-.07-.92-.25-1.08.43-2.15,1.5-2.4,1.08-.25,2.15.43,2.4,1.5.1.45.56,2.77-.62,4.39-.59.8-1.48,1.3-2.51,1.38-.43.04-.91.08-1.41.08Z"/>
    <circle class="cls-3" cx="79.28" cy="55.03" r="2.31"/>
  </g>
</svg>