<?xml version="1.0" encoding="UTF-8"?>
<svg id="flatten_icons" xmlns="http://www.w3.org/2000/svg" viewBox="0 0 112 112">
  <defs>
    <style>
      .cls-1 {
        fill: none;
      }

      .cls-2 {
        fill: #eaeada;
      }

      .cls-3 {
        fill: #eac781;
      }

      .cls-4 {
        fill: #c15c4c;
      }

      .cls-5 {
        fill: #004241;
      }
    </style>
  </defs>
  <g id="poulet">
    <g>
      <path class="cls-4" d="M32.01,7.28c-2.41-.33-4.57.7-5.71,2.36-.62.9-1.79,1.39-2.96,1.33-.42-.02-.86.01-1.31.12-1.53.35-2.73,1.52-3.01,2.92-.48,2.38,1.53,4.44,4.08,4.44.4,0,.8-.05,1.16-.15,2.22-.59,4.49-.83,6.8-.81.02,0,.03,0,.05,0,3.55,0,6.34-2.93,5.56-6.25-.48-2.04-2.38-3.63-4.66-3.95Z"/>
      <path class="cls-5" d="M23.09,20.45c-1.93,0-3.72-.82-4.89-2.25-1.06-1.29-1.48-2.96-1.15-4.58.44-2.19,2.21-3.94,4.52-4.47.62-.14,1.25-.2,1.87-.17.5.03,1-.16,1.21-.46,1.65-2.4,4.58-3.63,7.64-3.21,3.12.43,5.67,2.63,6.33,5.48.48,2.04,0,4.15-1.31,5.8-1.44,1.82-3.76,2.91-6.2,2.91-2.3-.03-4.41.23-6.34.75-.55.14-1.11.22-1.68.22ZM23.09,12.96c-.2,0-.41.02-.62.07-.76.17-1.37.73-1.5,1.36-.12.57.11,1,.33,1.26.53.65,1.56.94,2.45.71,2.27-.6,4.74-.92,7.33-.88,1.26,0,2.41-.52,3.1-1.39.39-.49.8-1.31.55-2.4-.29-1.23-1.52-2.22-2.99-2.43h0c-1.53-.21-3.02.38-3.79,1.51-1,1.45-2.8,2.3-4.72,2.19-.04,0-.09,0-.13,0Z"/>
    </g>
    <g>
      <path class="cls-2" d="M26.05,30.08c.93,1.19,1.52,2.56,1.7,4.01.48,3.91-.72,10.49-4.68,18.21-5.19,10.13,1.84,22.82,12.49,25.46,10.65,2.64,12.95,6.78,15.04,11.48,1.92,4.33,9.13,4.36,13.53-.35.76-.81,1.81-1.34,2.99-1.41,3.54-.21,12.48-2.26,17.49-6.5,6.68-5.65,6.3-12.83,4.84-16.22,0,0,8.14-1.51,4.8-10.35,0,0,6.47-1.69,3.34-9.22-3.13-7.53,1.88-10.35-2.3-16.38-4.18-6.02-10.02-11.48-14.62-8.85-3.44,1.97-5.59,8.36-5.93,13.51s-5.05,9.46-10.88,10.02c-1.31.12-2.78.2-4.42.2-14.69,0-13.02-11.86-16.36-17.7s-14.2-10.54-20.26-8.47c-1.6.55-2.04,1.79-1.82,3.31.42,2.98,3.34,7.06,5.06,9.25Z"/>
      <path class="cls-5" d="M56.33,94.47c-.59,0-1.17-.05-1.75-.14-2.7-.46-4.82-2.01-5.82-4.26-1.79-4.03-3.47-7.83-13.69-10.35-6.01-1.49-11.21-5.91-13.91-11.83-2.49-5.46-2.44-11.47.12-16.48,3.9-7.62,4.87-13.81,4.47-17.06-.13-1.07-.57-2.11-1.28-3.02h0c-2.24-2.85-5-6.93-5.47-10.21-.38-2.67.77-4.67,3.16-5.49,6.89-2.35,18.74,2.55,22.64,9.37.97,1.7,1.53,3.68,2.12,5.77,1.58,5.62,3.07,10.92,12.51,10.92,1.51,0,2.93-.06,4.23-.19,4.9-.46,8.8-3.97,9.08-8.16.37-5.58,2.7-12.68,6.93-15.11,4.87-2.8,11.16.65,17.26,9.44,2.63,3.79,2.21,6.76,1.83,9.37-.32,2.21-.61,4.29.67,7.38,1.26,3.04,1.35,5.7.24,7.93-.78,1.56-1.97,2.56-2.99,3.16.66,2.64.44,4.95-.66,6.91-1.06,1.88-2.73,2.98-4.08,3.6.47,2,.51,4.23.1,6.39-.73,3.83-2.85,7.33-6.15,10.11-5.58,4.71-15.15,6.76-18.66,6.97-.63.04-1.21.31-1.65.78-2.5,2.68-5.92,4.2-9.25,4.2ZM27.62,28.84c1.16,1.48,1.89,3.21,2.11,5.01.6,4.98-1.22,12.21-4.88,19.37-2.04,3.97-2.05,8.59-.04,13,2.19,4.82,6.39,8.41,11.23,9.6,11.21,2.77,14.05,7.35,16.38,12.61.61,1.38,2.04,1.81,2.83,1.94,2.49.42,5.4-.7,7.41-2.84,1.14-1.22,2.67-1.94,4.33-2.04,3.34-.2,11.82-2.23,16.32-6.03,5.96-5.04,5.41-11.3,4.29-13.9-.24-.56-.21-1.2.07-1.73.29-.54.8-.92,1.4-1.03.01,0,2.44-.5,3.47-2.38.72-1.3.66-3.09-.18-5.31-.2-.53-.17-1.12.09-1.62s.72-.87,1.27-1.02h0s1.67-.49,2.37-1.94c.55-1.13.42-2.68-.37-4.58-1.71-4.1-1.28-7.09-.94-9.48.35-2.42.58-4.02-1.16-6.53-3.46-4.99-8.67-10.15-11.98-8.25-2.41,1.38-4.58,6.61-4.93,11.91-.41,6.22-5.75,11.22-12.69,11.88-1.42.14-2.97.2-4.61.2-12.48,0-14.72-8-16.36-13.84-.52-1.85-1.01-3.6-1.74-4.87-2.94-5.13-12.8-9.31-17.88-7.57-.39.13-.62.21-.49,1.14.26,1.81,1.99,4.91,4.65,8.29h0Z"/>
    </g>
    <g>
      <path class="cls-3" d="M12.35,28.3s2-6.74,9.23-7.21l3.04,8.77-12.27-1.57Z"/>
      <path class="cls-5" d="M24.61,31.87c-.08,0-.17,0-.25-.02l-12.27-1.57c-.58-.08-1.1-.4-1.42-.89s-.41-1.1-.24-1.66c.1-.33,2.49-8.08,11.01-8.63.9-.06,1.72.49,2.02,1.34l3.04,8.77c.23.65.1,1.38-.34,1.92-.38.47-.95.74-1.55.74ZM15.39,26.67l6.27.8-1.44-4.16c-2.41.57-3.93,2.07-4.83,3.36Z"/>
    </g>
    <path class="cls-5" d="M63.2,66.18c-4.34,0-8.99-1.21-13.79-4.33-.93-.6-1.19-1.84-.59-2.77s1.84-1.19,2.77-.59c6.74,4.39,17.57,7.04,30.85-5.22.81-.75,2.08-.7,2.83.11.75.81.7,2.08-.11,2.83-4.68,4.33-12.59,9.97-21.95,9.97Z"/>
    <path class="cls-5" d="M37.71,49.96c-6.72,0-10.49-3.91-11.64-6.36-.47-1-.04-2.19.95-2.66.99-.47,2.18-.05,2.66.94.13.26,2.89,5.5,11.31,3.72,1.08-.23,2.14.46,2.37,1.54.23,1.08-.46,2.14-1.54,2.37-1.48.31-2.84.45-4.11.45Z"/>
    <path class="cls-5" d="M55.88,106.12h-8c-1.1,0-2-.9-2-2s.9-2,2-2h6v-9.67c0-1.1.9-2,2-2s2,.9,2,2v11.67c0,1.1-.9,2-2,2Z"/>
    <path class="cls-5" d="M63.33,106.12c-.53,0-1.06-.21-1.46-.63-.76-.8-.72-2.07.08-2.83l3.65-3.43-4-6.91c-.55-.96-.23-2.18.73-2.73.96-.55,2.18-.23,2.73.73l4.8,8.28c.47.8.32,1.82-.36,2.46l-4.8,4.52c-.39.36-.88.54-1.37.54Z"/>
    <path class="cls-5" d="M68.13,101.6c-.89,0-1.71-.6-1.94-1.51-.27-1.07.38-2.16,1.45-2.43l5.22-1.32c1.07-.27,2.16.38,2.43,1.45.27,1.07-.38,2.16-1.45,2.43l-5.22,1.32c-.16.04-.33.06-.49.06Z"/>
    <path class="cls-5" d="M63.33,106.12h-7.46c-1.1,0-2-.9-2-2s.9-2,2-2h7.46c1.1,0,2,.9,2,2s-.9,2-2,2Z"/>
    <rect class="cls-1" width="112" height="112"/>
  </g>
</svg>