<svg xmlns="http://www.w3.org/2000/svg" id="flatten_icons" data-name="flatten icons" viewBox="0 0 112 112"><defs><style>.cls-6{stroke-width:0;fill:#004241}</style></defs><path d="M0 0h112v112H0z" style="fill:none;stroke-width:0"/><path d="M63.62 32.3c-2.14.66-4.15 1.56-6 2.65-2.14.13-4.31.51-6.45 1.17-14.7 4.51-22.66 20.02-18.43 34.82 3.9 13.65 23.61 30.59 48.99 26.88.63-.09 1.84-.34 2.35-.72 16.89-12.54 18.85-31.59 14.33-46.31s-20.1-23-34.79-18.48Z" style="stroke-width:0;fill:#ba79a9"/><path d="M98.41 50.78a28 28 0 0 0-2.05-4.93c.7 14.44-4.34 29.98-19.4 41.16-.61.45-2.03.75-2.79.85-13.72 2.01-26.03-1.09-35.81-6.57 8.35 10.4 24.24 19.32 43.36 16.52.63-.09 1.84-.34 2.35-.72 16.89-12.54 18.85-31.59 14.33-46.31Z" style="stroke-width:0;fill:#aa5f9a"/><path d="M74.75 100.32c-9.42 0-18.68-2.66-26.66-7.75-8.62-5.5-15.08-13.38-17.29-21.08-4.6-16.09 4.09-32.47 19.77-37.28 2.08-.64 4.24-1.05 6.44-1.22 1.91-1.09 3.93-1.96 6.01-2.6 15.73-4.83 32.46 4.06 37.29 19.81 4.51 14.7 2.92 35.16-15.05 48.5-.9.67-2.43.97-3.25 1.09-2.42.35-4.84.53-7.26.53M64.2 34.21c-1.94.59-3.81 1.42-5.57 2.46-.27.16-.58.25-.89.27-2.04.13-4.06.49-5.99 1.09-13.58 4.17-21.09 18.38-17.1 32.36 3.62 12.67 22.36 29.01 46.78 25.45.72-.11 1.33-.29 1.5-.38 20.47-15.2 15.56-37.59 13.56-44.09C92.3 37.73 77.81 30.04 64.2 34.21m-6.58.74" class="cls-6"/><path d="M82.02 70.31c-.17 0-.34-.02-.52-.07a2 2 0 0 1-1.42-2.45c.64-2.41.91-5.33.79-8.68-.41-12-10.03-21.73-21.89-22.17-.76-.03-1.22 0-1.26 0-.7.05-1.39-.31-1.78-.91s-.43-1.35-.11-1.99c.15-.32 3.81-8.1-5.36-14.13a2 2 0 0 1 2.2-3.34c7.85 5.16 8.69 11.97 7.71 16.45 13.37 1.12 24.02 12.29 24.49 25.95.13 3.75-.18 7.06-.92 9.85-.24.9-1.05 1.49-1.93 1.49" class="cls-6"/><path d="M51.71 18.3S47.6 43.26 11.5 26.11c0 0 15.2-21.69 40.21-7.81" style="stroke-width:0;fill:#aad681"/><path d="M33.39 34.14c-6.42 0-14.03-2.08-22.75-6.22a1.997 1.997 0 0 1-.78-2.96c.16-.23 16.54-23 42.82-8.41a1.99 1.99 0 0 1 1 2.07c-.06.36-1.54 8.82-9.75 13.12-3.05 1.59-6.56 2.39-10.54 2.39Zm-18.71-8.77c11.64 5.12 21.06 6.11 27.34 2.86 4.76-2.47 6.67-6.72 7.36-8.9-18.24-9.29-30.54 1.42-34.7 6.04" class="cls-6"/><path d="M41.6 62.65c-.17 0-.34-.02-.51-.07a2 2 0 0 1-1.43-2.44c3.41-13.01 14.14-16.09 14.6-16.22a2.002 2.002 0 0 1 1.07 3.86c-.4.11-8.99 2.69-11.79 13.38-.24.9-1.05 1.49-1.93 1.49Z" style="stroke-width:0;fill:#fff"/></svg>