<svg xmlns="http://www.w3.org/2000/svg" id="flatten_icons" data-name="flatten icons" viewBox="0 0 112 112"><defs><style>.cls-3,.cls-5{stroke-width:0}.cls-3{fill:#c2e4a5}.cls-5{fill:#004241}</style></defs><g id="pull-laine"><path d="M40.48 11.02s10.18 1.87 16.62 1.52 15.66-1.52 22.07-.29L57.96 34.11l-21.04-7.3 3.56-15.78Z" style="stroke-width:0;fill:#a9a18f"/><path d="M57.97 36.1c-.22 0-.44-.04-.66-.11l-21.04-7.3a2.01 2.01 0 0 1-1.3-2.33l3.56-15.78a2.005 2.005 0 0 1 2.31-1.53c.1.02 10.03 1.82 16.15 1.49 1.4-.08 2.92-.19 4.53-.31 5.98-.45 12.76-.96 18.03.05a1.995 1.995 0 0 1 1.06 3.35L59.4 35.49c-.38.4-.9.61-1.44.61Zm-18.7-10.61 18.15 6.3 17.49-18.03c-4.09-.22-8.81.13-13.09.45-1.63.12-3.19.24-4.61.32-4.96.27-11.88-.7-15.19-1.23z" class="cls-5"/><path d="M91.98 19.12c-1.93-2.29-9.39-6.25-11.52-6.57q-.66-.105-1.29-.3c-3.24-1.04-6.79-.4-9.22 1.98-2.41 8.34-6.29 12.08-13.85 11.8-6.12-.23-9.09-3.46-12.87-13.4-1.73-1.62-4.21-1.99-6.45-1.2-.23.08-.47.15-.71.21-2.63.66-9.09 2.18-15.14 9.21C15.88 26.72 3.4 58.6 3.41 89.92c0 2.37 1.34 4.52 3.59 5.25l3.6 1.17c2.57.83 5.35-.44 6.39-2.93 2.03-4.85 5.31-13.19 7.88-22.19.87 9.16 2.08 17.89 2.79 22.71.37 2.54 2.2 4.64 4.68 5.3 13.71 3.65 37.56.68 47.17-.77 2.63-.39 4.73-2.34 5.37-4.92 1.91-7.8 2.78-16.39 3.06-24.54l.11.04 2.4 8.94a76.6 76.6 0 0 0 3.62 10.43l.74 1.72c.96 2.23 3.34 3.5 5.73 3.05l2.55-.48c2.25-.42 3.72-2.31 4.21-4.55 5.47-24.81-7.75-60.08-15.32-69.05Z" style="stroke-width:0;fill:#c5bfad"/><path d="M49.51 102.97c-6.44 0-12.71-.48-17.7-1.81-3.24-.86-5.65-3.59-6.14-6.95-.43-2.93-1.11-7.74-1.77-13.31-1.8 5.23-3.63 9.85-5.07 13.28-1.46 3.48-5.26 5.23-8.85 4.06l-3.6-1.16c-2.97-.96-4.97-3.84-4.97-7.15-.01-32.12 12.78-64.31 18.01-70.38 6.35-7.38 13.12-9.08 16.02-9.81l.15-.04c.18-.05.36-.1.53-.16 3.03-1.07 6.28-.44 8.48 1.62.22.21.39.46.5.75 3.89 10.22 6.45 11.94 11.08 12.12 6.39.25 9.6-2.56 11.85-10.35.1-.33.28-.63.53-.88 2.88-2.81 7.18-3.75 11.23-2.45.32.1.65.18.98.23 2.51.38 10.42 4.51 12.74 7.26 7.59 8.99 21.42 45.05 15.75 70.77-.71 3.22-2.93 5.55-5.8 6.09l-2.55.48c-3.33.62-6.6-1.11-7.94-4.23l-.74-1.72a79 79 0 0 1-3.11-8.58c-.54 4.86-1.31 9.34-2.3 13.39-.83 3.39-3.58 5.91-7.01 6.42-6.29.95-18.58 2.53-30.29 2.53ZM24.86 69.21h.18c.96.09 1.72.85 1.81 1.8.88 9.26 2.12 18.14 2.77 22.61.26 1.77 1.52 3.21 3.21 3.66 13.33 3.55 36.86.62 46.36-.81 1.82-.27 3.28-1.62 3.72-3.42 1.67-6.82 2.69-14.94 3-24.13.02-.63.34-1.22.87-1.58.52-.36 1.19-.45 1.79-.24l.11.04c.63.22 1.1.73 1.27 1.37l2.4 8.94c.93 3.46 2.11 6.87 3.53 10.16l.74 1.72c.6 1.38 2.04 2.16 3.53 1.88l2.55-.48c1.9-.36 2.49-2.4 2.63-3.02 5.32-24.11-7.9-59.03-14.9-67.32-1.59-1.88-8.64-5.63-10.29-5.88-.54-.08-1.08-.21-1.6-.37-2.47-.79-5.05-.33-6.86 1.18-2.77 9.08-7.62 13-15.68 12.69-7.65-.29-10.93-5.02-14.48-14.21-1.11-.84-2.61-1.03-4.1-.5-.29.1-.59.19-.89.27l-.15.04c-2.52.63-8.44 2.12-13.96 8.54-4.38 5.09-17.05 36.3-17.04 67.77 0 1.6.87 2.91 2.2 3.35l3.6 1.16a3.17 3.17 0 0 0 3.93-1.8c2.19-5.22 5.32-13.27 7.8-21.97a2.01 2.01 0 0 1 1.92-1.45Z" class="cls-5"/><path d="M24.87 73.21a2 2 0 0 1-1.9-2.63c.05-.16 5.24-16.02 5.27-24.6 0-1.1.9-1.99 2-1.99s2 .9 1.99 2.01c-.03 9.22-5.25 25.17-5.47 25.84-.28.84-1.06 1.37-1.9 1.37ZM87.93 71c-1.1 0-2-.9-2-2 0-.15-.04-15.4-3.06-25.36-.32-1.06.28-2.17 1.33-2.5 1.06-.32 2.17.28 2.5 1.33 3.2 10.53 3.24 25.88 3.24 26.52 0 1.1-.9 2-2 2Z" class="cls-5"/><path d="M34.93 94.38s0 3.3 2.54 5.87" class="cls-3"/><path d="M37.47 102.24c-.51 0-1.03-.2-1.42-.59-3.09-3.11-3.12-7.11-3.12-7.27 0-1.1.9-2 2-2s1.99.89 2 1.99c0 .08.08 2.58 1.96 4.47.78.78.77 2.05-.01 2.83-.39.39-.9.58-1.41.58Zm-.54-7.87" class="cls-5"/><path d="M46.07 95.1s1.16 5.9 1.88 5.88" class="cls-3"/><path d="M47.91 102.98c-1.64 0-2.54-1.12-3.79-7.49a2.002 2.002 0 1 1 3.93-.77c.38 1.94.92 4 1.23 4.75a2 2 0 0 1-1.26 3.51h-.1Zm8.26-.74c-1.1 0-2-.9-2-2v-5.87c0-1.1.9-2 2-2s2 .9 2 2v5.87c0 1.1-.9 2-2 2" class="cls-5"/><path d="m68.29 93.38-.56 6.57" class="cls-3"/><path d="M67.73 101.95h-.17a1.99 1.99 0 0 1-1.82-2.16l.55-6.57c.09-1.1 1.05-1.92 2.16-1.82a1.99 1.99 0 0 1 1.82 2.16l-.55 6.57a2 2 0 0 1-1.99 1.83Z" class="cls-5"/><path d="m77.41 92.53-.71 5.15" class="cls-3"/><path d="M76.7 99.68c-.09 0-.18 0-.28-.02a2.003 2.003 0 0 1-1.71-2.25l.71-5.15a2.003 2.003 0 0 1 2.25-1.71c1.09.15 1.86 1.16 1.71 2.25l-.71 5.15c-.14 1-1 1.73-1.98 1.73Z" class="cls-5"/><path d="M0 0h112v112H0z" style="fill:none;stroke-width:0"/></g></svg>