<?xml version="1.0" encoding="UTF-8"?>
<svg id="flatten_icons" data-name="flatten icons" xmlns="http://www.w3.org/2000/svg" viewBox="0 0 112 112">
  <defs>
    <style>
      .cls-1 {
        fill: none;
      }

      .cls-1, .cls-2, .cls-3, .cls-4 {
        stroke-width: 0px;
      }

      .cls-2 {
        fill: #dc9bac;
      }

      .cls-3 {
        fill: #b4798a;
      }

      .cls-4 {
        fill: #014241;
      }
    </style>
  </defs>
  <g id="pull-acry">
    <rect class="cls-1" width="112" height="112"/>
    <g>
      <g>
        <path class="cls-3" d="m38.14,14.47s9.02,3.51,20.75,3.51,22.84-3.51,22.84-3.51l3.51,29.42-41.25,20.1-13.07-38.5,7.23-11.02Z"/>
        <path class="cls-4" d="m43.99,65.99c-.26,0-.52-.05-.77-.15-.53-.22-.94-.66-1.12-1.2l-13.08-38.5c-.2-.58-.12-1.23.22-1.74l7.23-11.02c.52-.79,1.52-1.11,2.4-.77.09.03,8.84,3.38,20.03,3.38s22.13-3.38,22.24-3.42c.56-.18,1.19-.1,1.69.23.5.32.83.85.9,1.44l3.51,29.42c.1.85-.34,1.66-1.11,2.03l-41.25,20.1c-.28.13-.58.2-.88.2Zm-10.87-40.22l12.03,35.43,37.93-18.48-3.06-25.68c-3.92,1.04-12.3,2.95-21.13,2.95s-16.81-2.09-19.93-3.11l-5.83,8.9Z"/>
      </g>
      <g>
        <path class="cls-2" d="m4.89,91.07L23.29,25.01s6.71-10.06,14.85-10.54c0,0,5.57,21.08,20.75,21.08s22.84-21.08,22.84-21.08c0,0,4.69,2.57,8.33,4.64s13.22,33.81,14.66,46.44c1.44,12.63,2.39,29.04,2.39,29.04h-10.54s-5.34-28.5-8.7-34.69l.13,12.45c.06,5.67-.36,11.34-1.26,16.94l-1.2,7.5-50.53.68-1.1-5.29c-1.5-7.2-2.33-14.53-2.48-21.89l-.29-14.29s-12.17,30.56-13.61,33.07-2.87,8.46-2.87,8.46l-9.78-6.46Z"/>
        <path class="cls-4" d="m14.67,99.53c-.39,0-.77-.11-1.1-.33l-9.78-6.46c-.72-.48-1.06-1.37-.83-2.21L21.36,24.47c.06-.2.15-.4.26-.57.3-.44,7.36-10.89,16.4-11.43.94-.06,1.8.56,2.05,1.48.05.2,5.38,19.59,18.82,19.59s20.89-19.56,20.96-19.76c.2-.55.63-.98,1.17-1.19.54-.21,1.15-.16,1.67.12.05.03,4.74,2.6,8.36,4.65,4.85,2.75,14.35,36.47,15.66,47.95,1.43,12.54,2.39,28.98,2.4,29.15.03.55-.16,1.09-.54,1.49-.38.4-.9.63-1.46.63h-10.54c-.96,0-1.79-.69-1.97-1.63-.85-4.55-2.69-13.66-4.59-21.46,0,5.38-.44,10.79-1.29,16.1l-1.2,7.5c-.15.96-.98,1.67-1.95,1.68l-50.53.68h-.03c-.95,0-1.76-.66-1.96-1.59l-1.1-5.29c-1.52-7.3-2.37-14.79-2.52-22.25l-.09-4.46c-3.75,9.33-9.09,22.46-10.07,24.19-1.06,1.86-2.29,6.36-2.67,7.93-.15.63-.61,1.15-1.21,1.39-.24.09-.49.14-.73.14Zm16.48-45.53c.12,0,.24.01.36.03.94.17,1.62.98,1.64,1.93l.29,14.29c.15,7.22.97,14.46,2.44,21.52l.77,3.68,47.2-.63.94-5.84c.88-5.48,1.29-11.06,1.23-16.6l-.13-12.45c0-.92.61-1.73,1.5-1.96.89-.23,1.82.18,2.26.98,3.02,5.58,7.39,27.41,8.59,33.64h6.75c-.31-4.84-1.14-17.04-2.25-26.81-1.5-13.18-10.89-42.65-13.73-44.97-2.09-1.18-4.59-2.57-6.28-3.5-2.51,5.63-10.32,20.25-23.83,20.25s-20.39-15.55-22.16-20.85c-5.12,1.22-9.87,6.68-11.6,9.17L7.21,90.21l6.25,4.12c.58-2.02,1.44-4.65,2.35-6.25,1-1.76,8.62-20.59,13.49-32.82.31-.77,1.05-1.26,1.86-1.26Z"/>
      </g>
      <g>
        <line class="cls-2" x1="85.24" y1="40.93" x2="87.88" y2="59.9"/>
        <path class="cls-4" d="m87.88,61.9c-.98,0-1.84-.72-1.98-1.72l-2.64-18.97c-.15-1.09.61-2.1,1.7-2.26,1.09-.15,2.1.61,2.26,1.7l2.64,18.97c.15,1.09-.61,2.1-1.7,2.26-.09.01-.19.02-.28.02Z"/>
      </g>
      <g>
        <path class="cls-2" d="m39.01,91.65s12.68-9.42,14.33-20.18"/>
        <path class="cls-4" d="m39.01,93.65c-.61,0-1.21-.28-1.61-.81-.66-.89-.48-2.14.41-2.8.12-.09,12.04-9.08,13.55-18.88.17-1.09,1.2-1.85,2.28-1.67,1.09.17,1.84,1.19,1.67,2.28-1.76,11.44-14.57,21.08-15.11,21.48-.36.27-.78.4-1.19.4Z"/>
      </g>
      <g>
        <path class="cls-2" d="m27.06,45.59s3.88-.17,4.09,10.41"/>
        <path class="cls-4" d="m31.15,58c-1.08,0-1.98-.87-2-1.96-.13-6.3-1.65-8.24-2.22-8.46-1.01-.06-1.82-.88-1.87-1.91-.05-1.1.81-2.04,1.91-2.08.36-.02,1.64.03,2.96,1.28,2.02,1.9,3.1,5.63,3.21,11.09.02,1.1-.85,2.02-1.96,2.04-.01,0-.03,0-.04,0Zm-4.01-10.41h0Zm0,0h0,0Zm0,0s0,0,0,0c0,0,0,0,0,0Zm0,0h0,0Zm-.25-.01h0Z"/>
      </g>
    </g>
  </g>
</svg>