<?xml version="1.0" encoding="UTF-8"?>
<svg id="flatten_icons" xmlns="http://www.w3.org/2000/svg" viewBox="0 0 112 112">
  <defs>
    <style>
      .cls-1 {
        fill: none;
      }

      .cls-2 {
        fill: #eac781;
      }

      .cls-3 {
        fill: #7c533e;
      }

      .cls-4 {
        fill: #004241;
      }
    </style>
  </defs>
  <g id="quinoa">
    <rect class="cls-1" x="0" width="112" height="112"/>
    <g>
      <ellipse class="cls-2" cx="44.23" cy="56" rx="6.32" ry="6.39"/>
      <path class="cls-4" d="M44.23,64.39c-4.59,0-8.32-3.76-8.32-8.39s3.73-8.39,8.32-8.39,8.32,3.76,8.32,8.39-3.73,8.39-8.32,8.39ZM44.23,51.61c-2.38,0-4.32,1.97-4.32,4.39s1.94,4.39,4.32,4.39,4.32-1.97,4.32-4.39-1.94-4.39-4.32-4.39Z"/>
    </g>
    <g>
      <ellipse class="cls-2" cx="54.15" cy="24.15" rx="6.32" ry="6.39"/>
      <path class="cls-4" d="M54.15,32.54c-4.59,0-8.32-3.76-8.32-8.39s3.73-8.39,8.32-8.39,8.32,3.76,8.32,8.39-3.73,8.39-8.32,8.39ZM54.15,19.76c-2.38,0-4.32,1.97-4.32,4.39s1.94,4.39,4.32,4.39,4.32-1.97,4.32-4.39-1.94-4.39-4.32-4.39Z"/>
    </g>
    <g>
      <ellipse class="cls-2" cx="78.98" cy="94.08" rx="6.32" ry="6.39"/>
      <path class="cls-4" d="M78.98,102.47c-4.59,0-8.32-3.76-8.32-8.39s3.73-8.39,8.32-8.39,8.32,3.76,8.32,8.39-3.73,8.39-8.32,8.39ZM78.98,89.69c-2.38,0-4.32,1.97-4.32,4.39s1.94,4.39,4.32,4.39,4.32-1.97,4.32-4.39-1.94-4.39-4.32-4.39Z"/>
    </g>
    <g>
      <ellipse class="cls-2" cx="47.83" cy="37.24" rx="6.32" ry="6.39"/>
      <path class="cls-4" d="M47.83,45.63c-4.59,0-8.32-3.76-8.32-8.39s3.73-8.39,8.32-8.39,8.32,3.76,8.32,8.39-3.73,8.39-8.32,8.39ZM47.83,32.85c-2.38,0-4.32,1.97-4.32,4.39s1.94,4.39,4.32,4.39,4.32-1.97,4.32-4.39-1.94-4.39-4.32-4.39Z"/>
    </g>
    <g>
      <ellipse class="cls-2" cx="58.15" cy="57" rx="6.32" ry="6.39"/>
      <path class="cls-4" d="M58.15,65.39c-4.59,0-8.32-3.76-8.32-8.39s3.73-8.39,8.32-8.39,8.32,3.76,8.32,8.39-3.73,8.39-8.32,8.39ZM58.15,52.61c-2.38,0-4.32,1.97-4.32,4.39s1.94,4.39,4.32,4.39,4.32-1.97,4.32-4.39-1.94-4.39-4.32-4.39Z"/>
    </g>
    <g>
      <ellipse class="cls-2" cx="66.33" cy="69.65" rx="6.32" ry="6.39"/>
      <path class="cls-4" d="M66.33,78.04c-4.59,0-8.32-3.76-8.32-8.39s3.73-8.39,8.32-8.39,8.32,3.76,8.32,8.39-3.73,8.39-8.32,8.39ZM66.33,65.25c-2.38,0-4.32,1.97-4.32,4.39s1.94,4.39,4.32,4.39,4.32-1.97,4.32-4.39-1.94-4.39-4.32-4.39Z"/>
    </g>
    <g>
      <ellipse class="cls-2" cx="17.32" cy="60.55" rx="6.32" ry="6.39"/>
      <path class="cls-4" d="M17.32,68.94c-4.59,0-8.32-3.76-8.32-8.39s3.73-8.39,8.32-8.39,8.32,3.76,8.32,8.39-3.73,8.39-8.32,8.39ZM17.32,56.16c-2.38,0-4.32,1.97-4.32,4.39s1.94,4.39,4.32,4.39,4.32-1.97,4.32-4.39-1.94-4.39-4.32-4.39Z"/>
    </g>
    <g>
      <ellipse class="cls-2" cx="84.04" cy="22.87" rx="6.32" ry="6.39"/>
      <path class="cls-4" d="M84.04,31.26c-4.59,0-8.32-3.76-8.32-8.39s3.73-8.39,8.32-8.39,8.32,3.76,8.32,8.39-3.73,8.39-8.32,8.39ZM84.04,18.47c-2.38,0-4.32,1.97-4.32,4.39s1.94,4.39,4.32,4.39,4.32-1.97,4.32-4.39-1.94-4.39-4.32-4.39Z"/>
    </g>
    <g>
      <ellipse class="cls-3" cx="32.85" cy="30.85" rx="6.32" ry="6.39"/>
      <path class="cls-4" d="M32.85,39.24c-4.59,0-8.32-3.76-8.32-8.39s3.73-8.39,8.32-8.39,8.32,3.76,8.32,8.39-3.73,8.39-8.32,8.39ZM32.85,26.46c-2.38,0-4.32,1.97-4.32,4.39s1.94,4.39,4.32,4.39,4.32-1.97,4.32-4.39-1.94-4.39-4.32-4.39Z"/>
    </g>
    <g>
      <ellipse class="cls-3" cx="71.4" cy="55.82" rx="6.32" ry="6.39"/>
      <path class="cls-4" d="M71.4,64.21c-4.59,0-8.32-3.76-8.32-8.39s3.73-8.39,8.32-8.39,8.32,3.76,8.32,8.39-3.73,8.39-8.32,8.39ZM71.4,51.43c-2.38,0-4.32,1.97-4.32,4.39s1.94,4.39,4.32,4.39,4.32-1.97,4.32-4.39-1.94-4.39-4.32-4.39Z"/>
    </g>
    <g>
      <ellipse class="cls-3" cx="47.97" cy="87.69" rx="6.32" ry="6.39"/>
      <path class="cls-4" d="M47.97,96.08c-4.59,0-8.32-3.76-8.32-8.39s3.73-8.39,8.32-8.39,8.32,3.76,8.32,8.39-3.73,8.39-8.32,8.39ZM47.97,83.3c-2.38,0-4.32,1.97-4.32,4.39s1.94,4.39,4.32,4.39,4.32-1.97,4.32-4.39-1.94-4.39-4.32-4.39Z"/>
    </g>
    <g>
      <ellipse class="cls-3" cx="96.68" cy="47.63" rx="6.32" ry="6.39"/>
      <path class="cls-4" d="M96.68,56.02c-4.59,0-8.32-3.76-8.32-8.39s3.73-8.39,8.32-8.39,8.32,3.76,8.32,8.39-3.73,8.39-8.32,8.39ZM96.68,43.24c-2.38,0-4.32,1.97-4.32,4.39s1.94,4.39,4.32,4.39,4.32-1.97,4.32-4.39-1.94-4.39-4.32-4.39Z"/>
    </g>
    <g>
      <ellipse class="cls-3" cx="51.83" cy="68.65" rx="6.32" ry="6.39"/>
      <path class="cls-4" d="M51.83,77.04c-4.59,0-8.32-3.76-8.32-8.39s3.73-8.39,8.32-8.39,8.32,3.76,8.32,8.39-3.73,8.39-8.32,8.39ZM51.83,64.26c-2.38,0-4.32,1.97-4.32,4.39s1.94,4.39,4.32,4.39,4.32-1.97,4.32-4.39-1.94-4.39-4.32-4.39Z"/>
    </g>
  </g>
</svg>