<?xml version="1.0" encoding="UTF-8"?>
<svg id="flatten_icons" data-name="flatten icons" xmlns="http://www.w3.org/2000/svg" viewBox="0 0 112 112">
  <defs>
    <style>
      .cls-1 {
        fill: none;
      }

      .cls-1, .cls-2, .cls-3, .cls-4 {
        stroke-width: 0px;
      }

      .cls-2 {
        fill: #9080d5;
      }

      .cls-3 {
        fill: #6c55a3;
      }

      .cls-4 {
        fill: #004241;
      }
    </style>
  </defs>
  <rect class="cls-1" x="0" width="112" height="112"/>
  <g>
    <path class="cls-4" d="m12.18,51.13c-.14,0-.29,0-.43,0-5.14-.18-9.9-3.78-11.32-8.56-.71-2.4-1.5-8.59,6.61-14.3,4.24-2.99,8.56-4.12,12.72-4.03-2.14-6.86-6.51-13.21-11.57-17.04-.88-.67-1.06-1.92-.39-2.8.67-.88,1.92-1.06,2.8-.39,7.18,5.43,11.58,13.14,13.44,20.75,8.8,1.91,16.42,8.68,20.35,13.73.68.87.52,2.13-.35,2.8-.87.68-2.13.52-2.81-.35-.04-.05-4.21-5.35-10.33-9.09-2.07-1.26-4.09-2.2-6.08-2.81.58,4.79.15,9.36-1.25,13.07-2.17,5.76-6.31,9.03-11.41,9.03Zm7.21-22.95c-3.51,0-6.87,1.12-10.04,3.35-4.28,3.01-6.08,6.52-5.08,9.89.93,3.13,4.21,5.58,7.62,5.71,3.51.11,6.34-2.16,7.95-6.44,1.47-3.89,1.65-8.2.9-12.46-.45-.04-.9-.05-1.35-.05Z"/>
    <g>
      <circle class="cls-3" cx="92.08" cy="89.7" r="16.71"/>
      <path class="cls-2" d="m99.31,97.98c3.44,0,6.64-1.04,9.3-2.83.89-2.04,1.39-4.29,1.39-6.66,0-9.23-7.48-16.71-16.71-16.71-3.44,0-6.64,1.04-9.3,2.83-.89,2.04-1.39,4.29-1.39,6.66,0,9.23,7.48,16.71,16.71,16.71Z"/>
      <path class="cls-4" d="m92.08,108.41c-10.32,0-18.71-8.39-18.71-18.71s8.39-18.71,18.71-18.71,18.71,8.39,18.71,18.71-8.39,18.71-18.71,18.71Zm0-33.42c-8.11,0-14.71,6.6-14.71,14.71s6.6,14.71,14.71,14.71,14.71-6.6,14.71-14.71-6.6-14.71-14.71-14.71Z"/>
    </g>
    <g>
      <circle class="cls-3" cx="81.09" cy="62.89" r="16.71"/>
      <path class="cls-2" d="m88.32,71.18c3.44,0,6.64-1.04,9.3-2.83.89-2.04,1.39-4.29,1.39-6.66,0-9.23-7.48-16.71-16.71-16.71-3.44,0-6.64,1.04-9.3,2.83-.89,2.04-1.39,4.29-1.39,6.66,0,9.23,7.48,16.71,16.71,16.71Z"/>
      <path class="cls-4" d="m81.09,81.61c-10.32,0-18.71-8.39-18.71-18.71s8.39-18.71,18.71-18.71,18.71,8.39,18.71,18.71-8.39,18.71-18.71,18.71Zm0-33.42c-8.11,0-14.71,6.6-14.71,14.71s6.6,14.71,14.71,14.71,14.71-6.6,14.71-14.71-6.6-14.71-14.71-14.71Z"/>
    </g>
    <g>
      <circle class="cls-3" cx="61.48" cy="83.68" r="16.71"/>
      <path class="cls-2" d="m68.71,91.96c3.44,0,6.64-1.04,9.3-2.83.89-2.04,1.39-4.29,1.39-6.66,0-9.23-7.48-16.71-16.71-16.71-3.44,0-6.64,1.04-9.3,2.83-.89,2.04-1.39,4.29-1.39,6.66,0,9.23,7.48,16.71,16.71,16.71Z"/>
      <path class="cls-4" d="m61.48,102.39c-10.32,0-18.71-8.39-18.71-18.71s8.39-18.71,18.71-18.71,18.71,8.39,18.71,18.71-8.39,18.71-18.71,18.71Zm0-33.42c-8.11,0-14.71,6.6-14.71,14.71s6.6,14.71,14.71,14.71,14.71-6.6,14.71-14.71-6.6-14.71-14.71-14.71Z"/>
    </g>
    <g>
      <circle class="cls-3" cx="73.59" cy="31.88" r="16.71"/>
      <path class="cls-2" d="m80.81,40.16c3.44,0,6.64-1.04,9.3-2.83.89-2.04,1.39-4.29,1.39-6.66,0-9.23-7.48-16.71-16.71-16.71-3.44,0-6.64,1.04-9.3,2.83-.89,2.04-1.39,4.29-1.39,6.66,0,9.23,7.48,16.71,16.71,16.71Z"/>
      <path class="cls-4" d="m73.59,50.59c-10.32,0-18.71-8.39-18.71-18.71s8.39-18.71,18.71-18.71,18.71,8.39,18.71,18.71-8.39,18.71-18.71,18.71Zm0-33.42c-8.11,0-14.71,6.6-14.71,14.71s6.6,14.71,14.71,14.71,14.71-6.6,14.71-14.71-6.6-14.71-14.71-14.71Z"/>
    </g>
    <g>
      <circle class="cls-3" cx="53.98" cy="55.07" r="16.71"/>
      <path class="cls-2" d="m61.2,63.35c3.44,0,6.64-1.04,9.3-2.83.89-2.04,1.39-4.29,1.39-6.66,0-9.23-7.48-16.71-16.71-16.71-3.44,0-6.64,1.04-9.3,2.83-.89,2.04-1.39,4.29-1.39,6.66,0,9.23,7.48,16.71,16.71,16.71Z"/>
      <path class="cls-4" d="m53.98,73.78c-10.32,0-18.71-8.39-18.71-18.71s8.39-18.71,18.71-18.71,18.71,8.39,18.71,18.71-8.39,18.71-18.71,18.71Zm0-33.42c-8.11,0-14.71,6.6-14.71,14.71s6.6,14.71,14.71,14.71,14.71-6.6,14.71-14.71-6.6-14.71-14.71-14.71Z"/>
    </g>
    <g>
      <circle class="cls-3" cx="31.69" cy="77.2" r="16.71"/>
      <path class="cls-2" d="m38.91,85.48c3.44,0,6.64-1.04,9.3-2.83.89-2.04,1.39-4.29,1.39-6.66,0-9.23-7.48-16.71-16.71-16.71-3.44,0-6.64,1.04-9.3,2.83-.89,2.04-1.39,4.29-1.39,6.66,0,9.23,7.48,16.71,16.71,16.71Z"/>
      <path class="cls-4" d="m31.69,95.91c-10.32,0-18.71-8.39-18.71-18.71s8.39-18.71,18.71-18.71,18.71,8.39,18.71,18.71-8.39,18.71-18.71,18.71Zm0-33.42c-8.11,0-14.71,6.6-14.71,14.71s6.6,14.71,14.71,14.71,14.71-6.6,14.71-14.71-6.6-14.71-14.71-14.71Z"/>
    </g>
  </g>
</svg>