<svg xmlns="http://www.w3.org/2000/svg" id="flatten_icons" data-name="flatten icons" viewBox="0 0 112 112"><defs><style>.cls-8{stroke-width:0;fill:#004241}</style></defs><g id="search"><path d="M0 0h112v112H0z" style="fill:none;stroke-width:0"/><path d="M69.39 61.11h6.78v26.81h-6.78z" style="stroke-width:0;fill:#97a5aa" transform="rotate(-36.08 72.771 74.523)"/><path d="M77.93 89.35c-.1 0-.21 0-.31-.02-.52-.08-.99-.37-1.31-.8L60.52 66.86c-.31-.43-.44-.96-.36-1.49.08-.52.37-.99.8-1.31l5.48-3.99a1.99 1.99 0 0 1 2.79.44l15.79 21.67c.65.89.45 2.14-.44 2.79l-5.48 3.99a2 2 0 0 1-1.18.38ZM64.94 66.12l13.43 18.44 2.24-1.63-13.43-18.44z" class="cls-8"/><circle cx="46.5" cy="37.01" r="35.04" style="stroke-width:0;fill:#d3d9dc"/><path d="M46.42 74.05c-7.97 0-15.69-2.56-22.17-7.43-7.91-5.94-13.03-14.61-14.42-24.4C6.96 21.99 21.07 3.21 41.29.34S80.3 11.58 83.17 31.8 71.92 70.81 51.71 73.68c-1.77.25-3.53.38-5.28.38Zm.1-70.09c-1.54 0-3.1.11-4.67.33-18.03 2.57-30.62 19.33-28.06 37.36 1.24 8.74 5.81 16.47 12.86 21.77 7.06 5.3 15.75 7.54 24.49 6.3 18.04-2.56 30.63-19.32 28.07-37.35C76.87 15.9 62.7 3.97 46.52 3.97Z" class="cls-8"/><circle cx="46.5" cy="37.01" r="26.27" style="stroke-width:0;fill:#b3e3f0"/><path d="M46.44 65.29c-6.08 0-11.98-1.96-16.93-5.67-6.04-4.54-9.95-11.15-11.01-18.63s.85-14.92 5.39-20.96 11.15-9.95 18.63-11.01C57.96 6.83 72.3 17.6 74.49 33.04c1.06 7.48-.85 14.92-5.39 20.96s-11.15 9.95-18.63 11.01c-1.35.19-2.7.29-4.03.29Zm.08-52.55c-1.13 0-2.28.08-3.43.24a24.1 24.1 0 0 0-15.99 9.45c-3.9 5.18-5.54 11.57-4.63 17.99s4.27 12.1 9.45 15.99c5.18 3.9 11.57 5.54 17.99 4.63a24.1 24.1 0 0 0 15.99-9.45c3.9-5.18 5.54-11.57 4.63-17.99-1.72-12.1-12.13-20.86-24.02-20.86Z" class="cls-8"/><path d="M76.63 70.95h16.2v35.41c0 2.51-2.04 4.55-4.55 4.55h-7.1c-2.51 0-4.55-2.04-4.55-4.55z" style="stroke-width:0;fill:#8e889b" transform="rotate(-36.08 84.73 90.933)"/><path d="M90.96 112.03c-2.02 0-4.02-.93-5.3-2.69L64.81 80.72c-.31-.43-.44-.96-.36-1.49.08-.52.37-.99.8-1.31l13.09-9.54a1.99 1.99 0 0 1 2.79.44l20.85 28.62c2.13 2.92 1.48 7.02-1.44 9.15l-5.74 4.18a6.5 6.5 0 0 1-3.85 1.25ZM69.22 79.98l19.67 27a2.554 2.554 0 0 0 3.56.56l5.74-4.18c1.14-.83 1.39-2.42.56-3.56l-19.67-27zm30.15 25" class="cls-8"/><path d="M66.7 34.14a20.28 20.28 0 0 0-6.71-12.42c.37 1.13.66 2.29.84 3.51 1.58 11.16-6.18 21.48-17.33 23.07-6.15.87-12.04-1.1-16.36-4.91 3.02 9.22 12.29 15.24 22.23 13.82C60.53 55.63 68.28 45.3 66.7 34.14" style="stroke-width:0;fill:#76bdce"/><circle cx="38.37" cy="27.39" r="5.67" style="stroke-width:0;fill:#eee"/></g></svg>