<?xml version="1.0" encoding="UTF-8"?>
<svg id="flatten_icons" data-name="flatten icons" xmlns="http://www.w3.org/2000/svg" viewBox="0 0 112 112">
  <defs>
    <style>
      .cls-1 {
        fill: none;
      }

      .cls-1, .cls-2, .cls-3, .cls-4, .cls-5, .cls-6, .cls-7, .cls-8 {
        stroke-width: 0px;
      }

      .cls-2 {
        fill: #76bdce;
      }

      .cls-3 {
        fill: #d3d9dc;
      }

      .cls-4 {
        fill: #b3e3f0;
      }

      .cls-5 {
        fill: #8e889b;
      }

      .cls-6 {
        fill: #97a5aa;
      }

      .cls-7 {
        fill: #eee;
      }

      .cls-8 {
        fill: #004241;
      }
    </style>
  </defs>
  <g id="search">
    <rect class="cls-1" width="112" height="112"/>
    <g>
      <g>
        <rect class="cls-6" x="69.39" y="61.11" width="6.78" height="26.81" transform="translate(-29.93 57.15) rotate(-36.08)"/>
        <path class="cls-8" d="m77.93,89.35c-.1,0-.21,0-.31-.02-.52-.08-.99-.37-1.31-.8l-15.79-21.67c-.31-.43-.44-.96-.36-1.49.08-.52.37-.99.8-1.31l5.48-3.99c.89-.65,2.14-.46,2.79.44l15.79,21.67c.65.89.45,2.14-.44,2.79l-5.48,3.99c-.34.25-.76.38-1.18.38Zm-12.99-23.23l13.43,18.44,2.24-1.63-13.43-18.44-2.24,1.63Z"/>
      </g>
      <g>
        <circle class="cls-3" cx="46.5" cy="37.01" r="35.04"/>
        <path class="cls-8" d="m46.42,74.05c-7.97,0-15.69-2.56-22.17-7.43-7.91-5.94-13.03-14.61-14.42-24.4C6.96,21.99,21.07,3.21,41.29.34c20.22-2.87,39.01,11.24,41.88,31.46h0c2.87,20.22-11.25,39.01-31.46,41.88-1.77.25-3.53.38-5.28.38Zm.1-70.09c-1.54,0-3.1.11-4.67.33C23.82,6.86,11.23,23.62,13.79,41.65c1.24,8.74,5.81,16.47,12.86,21.77,7.06,5.3,15.75,7.54,24.49,6.3,18.04-2.56,30.63-19.32,28.07-37.35C76.87,15.9,62.7,3.97,46.52,3.97Z"/>
      </g>
      <g>
        <circle class="cls-4" cx="46.5" cy="37.01" r="26.27"/>
        <path class="cls-8" d="m46.44,65.29c-6.08,0-11.98-1.96-16.93-5.67-6.04-4.54-9.95-11.15-11.01-18.63-1.06-7.48.85-14.92,5.39-20.96,4.54-6.04,11.15-9.95,18.63-11.01,15.44-2.19,29.78,8.58,31.97,24.02,1.06,7.48-.85,14.92-5.39,20.96-4.54,6.04-11.15,9.95-18.63,11.01-1.35.19-2.7.29-4.03.29Zm.08-52.55c-1.13,0-2.28.08-3.43.24-6.42.91-12.1,4.27-15.99,9.45-3.9,5.18-5.54,11.57-4.63,17.99s4.27,12.1,9.45,15.99c5.18,3.9,11.57,5.54,17.99,4.63,6.42-.91,12.1-4.27,15.99-9.45,3.9-5.18,5.54-11.57,4.63-17.99-1.72-12.1-12.13-20.86-24.02-20.86Z"/>
      </g>
      <g>
        <path class="cls-5" d="m76.63,70.95h16.2v35.41c0,2.51-2.04,4.55-4.55,4.55h-7.1c-2.51,0-4.55-2.04-4.55-4.55v-35.41h0Z" transform="translate(-37.3 67.34) rotate(-36.08)"/>
        <path class="cls-8" d="m90.96,112.03c-2.02,0-4.02-.93-5.3-2.69l-20.85-28.62c-.31-.43-.44-.96-.36-1.49.08-.52.37-.99.8-1.31l13.09-9.54c.89-.65,2.14-.46,2.79.44l20.85,28.62c2.13,2.92,1.48,7.02-1.44,9.15h0l-5.74,4.18c-1.16.85-2.51,1.25-3.85,1.25Zm-21.74-32.05l19.67,27c.83,1.13,2.42,1.39,3.56.56l5.74-4.18c1.14-.83,1.39-2.42.56-3.56l-19.67-27-9.86,7.18Zm30.15,25h0,0Z"/>
      </g>
      <path class="cls-2" d="m66.7,34.14c-.71-5.01-3.19-9.32-6.71-12.42.37,1.13.66,2.29.84,3.51,1.58,11.16-6.18,21.48-17.33,23.07-6.15.87-12.04-1.1-16.36-4.91,3.02,9.22,12.29,15.24,22.23,13.82,11.16-1.58,18.91-11.91,17.33-23.07Z"/>
      <circle class="cls-7" cx="38.37" cy="27.39" r="5.67"/>
    </g>
  </g>
</svg>