<svg xmlns="http://www.w3.org/2000/svg" id="flatten_icons" data-name="flatten icons" viewBox="0 0 112 112"><defs><style>.cls-3,.cls-5{stroke-width:0}.cls-3{fill:#fff}.cls-5{fill:#004241}</style></defs><g id="refrigerateur"><path id="area" d="M0 0h112v112H0z" style="fill:none;stroke-width:0"/><g id="refrigerateur-2" data-name="refrigerateur"><rect width="68" height="108" x="22" y="2" rx="9.17" ry="9.17" style="stroke-width:0;fill:#fdda49"/><path d="M80.83 112H31.17C25.01 112 20 106.99 20 100.83V11.17C20 5.01 25.01 0 31.17 0h49.67C86.99 0 92 5.01 92 11.17v89.67c0 6.16-5.01 11.17-11.17 11.17ZM31.17 4C27.22 4 24 7.22 24 11.17v89.67c0 3.95 3.22 7.17 7.17 7.17h49.67c3.95 0 7.17-3.22 7.17-7.17V11.17c0-3.95-3.22-7.17-7.17-7.17z" class="cls-5"/><path d="M33.61 9.84c-2.29 0-4.15 1.86-4.15 4.15v17.4c0 1.52 1.24 2.76 2.76 2.76h21.7c2.16 0 4.29-.62 6.07-1.84 8.93-6.08 15.67-14.72 20.36-22.39-.27-.06-.56-.09-.85-.09H33.6Zm32.51 47.81c0-1.55-1.26-2.81-2.81-2.81H32.05a2.59 2.59 0 0 0-2.59 2.59V98c0 2.29 1.86 4.15 4.15 4.15h10.78c.93 0 1.86-.15 2.73-.45 22.45-7.93 31.11-24.5 34.45-35.66.54-1.81-.8-3.63-2.69-3.63h-7.99c-2.63 0-4.77-2.14-4.77-4.77Z" style="stroke-width:0;fill:#ffe697"/><path d="M22 41.01h68v6.39H22z" class="cls-3"/><path d="M90 49.39H22c-1.1 0-2-.9-2-2V41c0-1.1.9-2 2-2h68c1.1 0 2 .9 2 2v6.39c0 1.1-.9 2-2 2m-66-4h64V43H24zM81.74 33h-9.96c-1.1 0-2-.9-2-2s.9-2 2-2h9.96c1.1 0 2 .9 2 2s-.9 2-2 2m0 26.87h-9.96c-1.1 0-2-.9-2-2s.9-2 2-2h9.96c1.1 0 2 .9 2 2s-.9 2-2 2" class="cls-5"/><rect width="13.07" height="4.98" x="50.03" y="14.02" class="cls-3" rx=".89" ry=".89"/></g></g></svg>