<?xml version="1.0" encoding="UTF-8"?>
<svg id="flatten_icons" data-name="flatten icons" xmlns="http://www.w3.org/2000/svg" viewBox="0 0 112 112">
  <defs>
    <style>
      .cls-1 {
        fill: none;
      }

      .cls-1, .cls-2, .cls-3, .cls-4, .cls-5 {
        stroke-width: 0px;
      }

      .cls-2 {
        fill: #fdda49;
      }

      .cls-3 {
        fill: #fff;
      }

      .cls-4 {
        fill: #ffe697;
      }

      .cls-5 {
        fill: #004241;
      }
    </style>
  </defs>
  <g id="refrigerateur">
    <g id="area">
      <rect class="cls-1" width="112" height="112"/>
    </g>
    <g id="refrigerateur-2" data-name="refrigerateur">
      <g>
        <rect class="cls-2" x="22" y="2" width="68" height="108" rx="9.17" ry="9.17"/>
        <path class="cls-5" d="m80.83,112H31.17c-6.16,0-11.17-5.01-11.17-11.17V11.17C20,5.01,25.01,0,31.17,0h49.67C86.99,0,92,5.01,92,11.17v89.67c0,6.16-5.01,11.17-11.17,11.17ZM31.17,4c-3.95,0-7.17,3.22-7.17,7.17v89.67c0,3.95,3.22,7.17,7.17,7.17h49.67c3.95,0,7.17-3.22,7.17-7.17V11.17c0-3.95-3.22-7.17-7.17-7.17H31.17Z"/>
      </g>
      <path class="cls-4" d="m33.61,9.84c-2.29,0-4.15,1.86-4.15,4.15v17.4c0,1.52,1.24,2.76,2.76,2.76h21.7c2.16,0,4.29-.62,6.07-1.84,8.93-6.08,15.67-14.72,20.36-22.39-.27-.06-.56-.09-.85-.09h-45.9Z"/>
      <path class="cls-4" d="m66.12,57.65h0c0-1.55-1.26-2.81-2.81-2.81h-31.26c-1.43,0-2.59,1.16-2.59,2.59v40.57c0,2.29,1.86,4.15,4.15,4.15h10.78c.93,0,1.86-.15,2.73-.45,22.45-7.93,31.11-24.5,34.45-35.66.54-1.81-.8-3.63-2.69-3.63h-7.99c-2.63,0-4.77-2.14-4.77-4.77Z"/>
      <g>
        <rect class="cls-3" x="22" y="41.01" width="68" height="6.39"/>
        <path class="cls-5" d="m90,49.39H22c-1.1,0-2-.9-2-2v-6.39c0-1.1.9-2,2-2h68c1.1,0,2,.9,2,2v6.39c0,1.1-.9,2-2,2Zm-66-4h64v-2.39H24v2.39Z"/>
      </g>
      <path class="cls-5" d="m81.74,33h-9.96c-1.1,0-2-.9-2-2s.9-2,2-2h9.96c1.1,0,2,.9,2,2s-.9,2-2,2Z"/>
      <path class="cls-5" d="m81.74,59.87h-9.96c-1.1,0-2-.9-2-2s.9-2,2-2h9.96c1.1,0,2,.9,2,2s-.9,2-2,2Z"/>
      <rect class="cls-3" x="50.03" y="14.02" width="13.07" height="4.98" rx=".89" ry=".89"/>
    </g>
  </g>
</svg>