<?xml version="1.0" encoding="UTF-8"?>
<svg id="flatten_icons" data-name="flatten icons" xmlns="http://www.w3.org/2000/svg" viewBox="0 0 112 112">
  <defs>
    <style>
      .cls-1 {
        fill: none;
      }

      .cls-1, .cls-2, .cls-3, .cls-4 {
        stroke-width: 0px;
      }

      .cls-2 {
        fill: #fff;
      }

      .cls-3 {
        fill: #f09c8a;
      }

      .cls-4 {
        fill: #004241;
      }
    </style>
  </defs>
  <g id="poisson-gras">
    <g id="area">
      <rect class="cls-1" width="112" height="112"/>
    </g>
    <g id="poisson-gras-2" data-name="poisson-gras">
      <path class="cls-3" d="m5.14,77.41c.96,3.25,3.29,5.91,6.29,7.47,8.32,4.34,26.69,13.37,35.15,13.37,11.13,0,18.95-11.73,18.95-11.73l36.7-46.62s7.22-7.22,5.41-15.04c-1.22-5.28-14.14-11.13-29.78-11.13s-42.36,15.34-56.52,28.58C8.74,54.08,1.16,63.95,5.14,77.41Z"/>
      <path class="cls-2" d="m57.67,94.32c-1.32,0-2.78-.28-4.12-1.14-2.6-1.68-3.92-4.97-3.92-9.78,0-15.68,12.46-21.81,16.28-23.31,17.84-7.02,31.68-17.51,31.82-17.61.88-.67,2.13-.5,2.8.38.67.88.5,2.13-.38,2.8-.58.44-14.4,10.92-32.78,18.15-3.23,1.27-13.75,6.43-13.75,19.59,0,2.31.36,5.29,2.07,6.42,1.77,1.15,4.51,0,4.54,0,1.01-.44,2.19.01,2.63,1.02s0,2.18-1,2.63c-.12.05-1.96.86-4.22.86Z"/>
      <path class="cls-2" d="m68.6,85.01s-.04,0-.06,0c-3.52-.1-7.01-.51-8.71-2.8-1.46-1.96-1.03-4.45-.57-6.15,1.36-5.11,7.87-9.08,13.03-10.92,4.33-1.55,9.71-3.83,9.77-3.86,1.01-.43,2.19.04,2.62,1.06.43,1.02-.04,2.19-1.06,2.62-.22.1-5.55,2.36-9.99,3.94-4.57,1.63-9.65,4.97-10.51,8.19-.36,1.35-.39,2.32-.08,2.73.36.48,1.62,1.07,5.62,1.19,1.1.03,1.97.95,1.94,2.06-.03,1.08-.92,1.94-2,1.94Z"/>
      <path class="cls-2" d="m43.45,75.06s-.1,0-.15,0c-1.1-.08-1.93-1.03-1.85-2.13.05-.8.22-7.74-8.1-9.21-2.1-.37-4.07-.6-5.97-.82-7.38-.86-13.75-1.61-17.14-10.32-.4-1.03.11-2.19,1.14-2.59,1.03-.4,2.19.11,2.59,1.14,2.52,6.47,6.8,6.97,13.88,7.8,1.87.22,3.98.46,6.2.86,9.66,1.7,11.68,9.53,11.4,13.43-.08,1.05-.95,1.85-1.99,1.85Z"/>
      <path class="cls-2" d="m49.81,61.28s-.08,0-.12,0c-1.1-.07-1.94-1.01-1.87-2.11.02-.33.33-7.78-6.61-9.24-1.75-.37-3.39-.59-4.98-.82-5.17-.72-10.05-1.4-13.14-6.88-.54-.96-.2-2.18.76-2.72.96-.54,2.18-.2,2.72.76,2.12,3.76,5.16,4.18,10.21,4.88,1.58.22,3.37.47,5.25.86,8.28,1.74,10.02,9.52,9.78,13.39-.06,1.06-.95,1.88-1.99,1.88Z"/>
      <path class="cls-2" d="m61,53.85s-.07,0-.1,0c-1.1-.05-1.95-.99-1.9-2.09h0c0-.08.31-8.46-5.47-9.97-1.46-.38-2.84-.62-4.18-.85-5.26-.91-10.23-1.78-12.66-11.08-.28-1.07.36-2.16,1.43-2.44,1.07-.28,2.16.36,2.44,1.43,1.78,6.82,4.35,7.26,9.47,8.15,1.35.23,2.88.5,4.51.93,8.91,2.34,8.47,13.56,8.45,14.03-.05,1.07-.94,1.9-2,1.9Z"/>
      <path class="cls-2" d="m94.74,39.17c-.74,0-1.45-.41-1.8-1.12-.04-.09-2.63-5.13-8.5-6.79-7.94-2.24-10.97-15.01-11.1-15.55-.25-1.08.42-2.15,1.5-2.4,1.08-.25,2.15.42,2.4,1.5.71,3.05,3.59,11.27,8.29,12.6,7.66,2.17,10.87,8.61,11,8.88.48.99.07,2.19-.92,2.67-.28.14-.58.2-.87.2Z"/>
      <path class="cls-2" d="m74.55,50.63s-.04,0-.06,0c-1.1-.03-1.97-.95-1.94-2.05.13-4.87-.93-13.17-4.32-14.73-1.09-.5-2.15-.82-3.17-1.14-5.14-1.57-8.39-3.36-10.11-14.92-.16-1.09.59-2.11,1.68-2.27,1.1-.17,2.11.59,2.27,1.68,1.48,9.9,3.68,10.57,7.33,11.69,1.1.33,2.34.71,3.67,1.33,6.87,3.16,6.69,16.92,6.64,18.48-.03,1.08-.92,1.94-2,1.94Z"/>
      <path class="cls-2" d="m33.7,81.12s-.04,0-.05,0c-.07,0-.73-.02-1.78-.16-1.1-.14-1.87-1.14-1.73-2.24.14-1.1,1.15-1.87,2.24-1.73.85.11,1.38.13,1.38.13,1.1.03,1.97.95,1.94,2.06-.03,1.08-.92,1.94-2,1.94Z"/>
      <path class="cls-2" d="m24.36,78.66c-.3,0-.61-.07-.9-.22-1.28-.65-2.46-1.41-3.5-2.26-4.71-3.84-13.06-4.62-13.15-4.63-1.1-.1-1.91-1.07-1.82-2.17.1-1.1,1.07-1.91,2.17-1.82.39.03,9.65.89,15.33,5.51.82.67,1.76,1.27,2.79,1.79.99.5,1.38,1.7.88,2.69-.35.7-1.06,1.1-1.79,1.1Z"/>
      <path class="cls-4" d="m109.62,24.64s0-.02,0-.02c-.01-.07-.02-.13-.03-.2,0-.04-.03-.08-.04-.13,0-.02,0-.03-.01-.05-1.79-6.8-16.2-12.5-31.68-12.5-12.91,0-39.25,11.7-57.89,29.11C8.98,51.12-1.37,62.45,3.22,77.98c1.08,3.67,3.74,6.84,7.28,8.68,9.75,5.08,27.4,13.6,36.08,13.6,11.72,0,19.8-11.43,20.57-12.55l36.59-46.48c.92-.95,7.66-8.29,5.9-16.59ZM7.05,76.85c-2.7-9.16-1.01-17.51,15.65-33.07,14.19-13.26,40.33-28.04,55.16-28.04s25.31,4.98,27.48,8.75c-3.1,3.57-15.99,17.39-35.46,24.26-23.85,8.42-26.74,18.26-28.3,23.54l-.06.2c-.98,3.34-3.22,16-1.17,22.7-9.12-2.53-22-8.95-28.01-12.08-2.59-1.35-4.51-3.63-5.29-6.27Zm93.75-38.35c-.06.06-.11.11-.16.18l-36.7,46.62s-.06.08-.09.12c-.07.11-7.38,10.84-17.29,10.84-.39,0-.81-.03-1.25-.07-.1-.28-.25-.54-.47-.76-2.41-2.41-1.13-16.28.5-21.81l.06-.2c1.35-4.6,3.87-13.16,25.79-20.9,16.83-5.94,28.74-16.55,34.36-22.36-1.14,4.62-4.72,8.28-4.77,8.33Z"/>
    </g>
  </g>
</svg>