<svg xmlns="http://www.w3.org/2000/svg" id="flatten_icons" data-name="flatten icons" viewBox="0 0 112 112"><defs><style>.cls-10,.cls-11,.cls-3,.cls-5,.cls-6,.cls-8{stroke-width:0}.cls-3{fill:#d5514b}.cls-5{fill:#8bba75}.cls-6{fill:#ef6f6f}.cls-8{fill:#fff4e8}.cls-10{fill:#e8c876}.cls-11{fill:#004241}</style></defs><g id="repas-vege"><path id="area" d="M0 0h112v112H0z" style="fill:none;stroke-width:0"/><g id="repas-vege-2" data-name="repas-vege"><path d="M62.9 65.77c-27.41 0-48.88-9.05-48.88-20.61S35.49 24.55 62.9 24.55s48.88 9.05 48.88 20.61S90.31 65.77 62.9 65.77m0-37.23c-26.84 0-44.88 8.59-44.88 16.61S36.05 61.76 62.9 61.76s44.88-8.59 44.88-16.61S89.75 28.54 62.9 28.54" class="cls-11"/><path d="M109.77 48.45s1.72 44.73-46.88 44.73-46.87-44.73-46.87-44.73" style="stroke-width:0;fill:#c4e1e8"/><path d="M62.9 95.18c-15.59 0-27.8-4.48-36.31-13.33C13.43 68.17 14 49.18 14.03 48.37a2.002 2.002 0 1 1 4 .16c0 .18-.51 18.15 11.47 30.58 7.73 8.01 18.97 12.07 33.41 12.07s25.71-4.07 33.43-12.1c12-12.47 11.45-30.37 11.44-30.55-.04-1.1.82-2.03 1.92-2.08 1.1-.04 2.03.82 2.08 1.92.03.8.6 19.8-12.56 33.48-8.51 8.84-20.73 13.33-36.31 13.33Z" class="cls-11"/><path d="M23.46 32.7s5.52-6.81 9.6-13.47c4.67-7.64 9.48-5.88 11.35 0s5.25 13.15 16.23 13.47c13 .38 23.39-5.78 22.98-16.19-.38-9.44 9.96.26 13.11 10.34.71 2.26 1.88 4.34 3.37 6.19 3.65 4.54 9.42 13.04 6.09 17.82-4.02 5.77-13.52 10.96-34.03 12.52-44.51 3.38-48.67-17.37-48.67-17.37" class="cls-5"/><path d="M62.72 65.75c-36.87 0-41.04-18.5-41.22-19.35-.22-1.08.48-2.14 1.57-2.35 1.08-.22 2.14.48 2.35 1.57.04.17 4.67 18.95 46.56 15.77 17.1-1.3 28.05-5.23 32.54-11.67 1.86-2.66-.39-8.43-6.01-15.42-1.71-2.14-2.96-4.44-3.72-6.84-2.16-6.92-7.26-12.27-9.06-12.74-.08.25-.18.77-.14 1.73.18 4.41-1.37 8.39-4.46 11.52-4.49 4.54-12 7.01-20.57 6.75-11.95-.35-15.94-8.13-18.07-14.87-.68-2.14-1.79-3.55-2.91-3.69-1.33-.16-3.14 1.38-4.82 4.13-4.1 6.7-9.52 13.41-9.75 13.69-.7.86-1.96.99-2.81.29-.86-.7-.99-1.96-.29-2.81.05-.07 5.49-6.79 9.44-13.26 3.32-5.44 6.57-6.27 8.72-6.01 2.77.34 5.05 2.69 6.24 6.45 1.94 6.11 5.02 11.81 14.38 12.08 7.48.21 13.9-1.81 17.61-5.57 2.33-2.35 3.44-5.23 3.31-8.54-.18-4.58 1.96-5.64 3.25-5.87 4.56-.79 11.38 7.88 13.77 15.52.6 1.93 1.62 3.79 3.02 5.53 4.95 6.16 10.03 14.67 6.17 20.22-5.22 7.48-17.17 11.98-35.52 13.37-3.41.26-6.6.38-9.57.38Z" class="cls-11"/><path d="M36.61 43.59c-11.5-1.51-15.5-22.65-19.28-15.61s-2.39 18.85-2.39 18.85-.15 10.45 13.55 10.39 8.12-13.62 8.12-13.62" class="cls-5"/><path d="M28.38 59.21c-5.18 0-9.2-1.4-11.93-4.16-3.21-3.24-3.48-7.25-3.5-8.1-.14-1.31-1.25-12.7 2.62-19.92.86-1.6 1.97-2.44 3.3-2.48 2.43-.09 4.1 2.52 6.36 6.12 2.73 4.33 6.46 10.27 11.64 10.94.71.09 1.32.56 1.59 1.22.12.3 2.96 7.35-.28 12.21-1.84 2.75-5.09 4.16-9.68 4.18h-.12Zm-9.25-30.36s-.02.04-.04.07c-3.43 6.39-2.18 17.56-2.16 17.67.01.09.01.17.01.26 0 .02.03 3.08 2.39 5.43 1.98 1.97 5.1 2.94 9.15 2.94 3.17-.01 5.31-.82 6.36-2.39 1.42-2.12.84-5.53.26-7.48-6.31-1.51-10.3-7.85-13.25-12.55-.86-1.37-1.98-3.15-2.72-3.94Z" class="cls-11"/><ellipse cx="61.97" cy="32.38" class="cls-3" rx="14.32" ry="12.23"/><path d="M61.97 46.61c-9 0-16.32-6.38-16.32-14.23s7.32-14.23 16.32-14.23 16.32 6.38 16.32 14.23-7.32 14.23-16.32 14.23m0-24.46c-6.79 0-12.32 4.59-12.32 10.23s5.53 10.23 12.32 10.23 12.32-4.59 12.32-10.23-5.53-10.23-12.32-10.23" class="cls-11"/><ellipse cx="61.97" cy="32.38" class="cls-6" rx="8.31" ry="7.1"/><path d="M30.58 46.82c-1.15-6.61 4.92-13.18 13.55-14.68s16.56 2.64 17.71 9.24c0 0 1.07 5.69-2.96 11.17" class="cls-3"/><path d="M58.87 54.55a2.009 2.009 0 0 1-1.61-3.19c3.47-4.73 2.61-9.57 2.6-9.62-.45-2.59-2.23-4.81-5.01-6.26-2.96-1.54-6.65-2.03-10.39-1.38s-7.05 2.36-9.31 4.81c-2.13 2.3-3.05 4.99-2.6 7.55.19 1.09-.54 2.12-1.63 2.31-1.08.19-2.12-.54-2.31-1.63-.67-3.82.62-7.71 3.61-10.95 2.85-3.09 6.96-5.24 11.57-6.04 4.6-.8 9.19-.17 12.93 1.78 3.91 2.04 6.43 5.27 7.09 9.09.05.24 1.17 6.59-3.31 12.7-.39.53-1 .82-1.61.82Z" class="cls-11"/><ellipse cx="46.8" cy="43.54" class="cls-6" rx="9.83" ry="6.56"/><path d="M93.52 45.82c0-9.45-8.16-17.12-18.22-17.12s-18.22 7.66-18.22 17.12c0 0 1.36 13.17 20.04 13.51 18.69.34 16.4-13.51 16.4-13.51" class="cls-8"/><path d="M77.78 61.34h-.7c-20.23-.37-21.98-15.15-22-15.3 0-.07-.01-.14-.01-.2 0-10.54 9.07-19.12 20.22-19.12s20.14 8.5 20.22 18.98c.13 1.05.56 6.18-3.04 10.35-3.04 3.52-7.98 5.3-14.69 5.3ZM59.07 45.7c.16 1.11 2.08 11.34 18.08 11.63 5.8.1 9.92-1.2 12.26-3.88 2.73-3.13 2.13-7.27 2.13-7.32-.02-.1-.02-.21-.02-.32 0-8.34-7.28-15.12-16.22-15.12s-16.15 6.72-16.22 15Zm36.44.12" class="cls-11"/><circle cx="74.85" cy="47.45" r="9.44" class="cls-10"/><path d="M108.74 55.84c.65-5.05 1.92-12.15.84-21.9-.07-.2-.13-.4-.2-.59-.66-1.95-3.85-3.07-5.81-2.45-8.85 2.83-8.68 13.71-8.68 13.71-11.81.15-18.39 11.62-18.39 11.62s-10.61-7.58-20.85-7.34c-3.53.08-5.41 2.35-6.39 1.96-1.85-.74-4.03-5.39-12.31-5.7-14.42-.54-12.56 10.34-12.56 10.34l6.16 7.6c8.5 3.43 20.33 5.56 33.41 5.56 18.18 0 33.93-4.11 41.7-10.12 0 0 1.29-.9 3.06-2.7Z" style="stroke-width:0;fill:#a9d384"/><path d="M63.97 70.65c-12.91 0-25.04-2.03-34.15-5.71a2.1 2.1 0 0 1-.81-.6l-6.16-7.6c-.22-.27-.36-.58-.42-.92-.03-.2-.8-4.96 2.44-8.66 2.52-2.87 6.61-4.22 12.17-4.01 6.81.26 10.02 3.2 11.93 4.96.22.2.49.45.71.63.13-.07.27-.14.39-.21 1.2-.63 3-1.59 5.54-1.65 8.35-.19 16.79 4.38 20.33 6.58 2.35-3.23 8.15-9.82 17.06-10.75.39-3.61 2.15-11.23 9.96-13.72 2.86-.92 7.26.62 8.31 3.71l.2.6c.04.13.07.27.09.41.99 8.91.07 15.68-.61 20.63-.08.61-.16 1.19-.23 1.75-.06.43-.25.84-.56 1.15-1.71 1.73-3.03 2.71-3.3 2.9-8.42 6.48-24.85 10.51-42.89 10.51m-32.18-9.22c8.6 3.37 20 5.22 32.18 5.22 16.96 0 32.85-3.81 40.48-9.7.03-.02.05-.04.08-.06 0 0 .96-.68 2.31-1.99.05-.36.1-.72.15-1.1.64-4.7 1.52-11.12.62-19.43l-.13-.38c-.25-.73-2.2-1.54-3.3-1.19-7.31 2.34-7.29 11.39-7.28 11.78.01 1.1-.87 2.01-1.98 2.03-10.49.13-16.62 10.51-16.68 10.62-.28.49-.76.83-1.31.95s-1.13 0-1.59-.32c-.1-.07-10.24-7.21-19.64-6.97-1.59.04-2.74.65-3.76 1.19-1.01.54-2.15 1.14-3.42.63-.83-.33-1.5-.94-2.26-1.65-1.7-1.56-4.03-3.71-9.38-3.91-4.3-.16-7.32.73-9.01 2.65-1.52 1.73-1.59 3.95-1.54 4.89l5.45 6.73Zm76.95-5.59" class="cls-11"/><path d="M2 68.31h56.87v31.02H2z" style="stroke-width:0;fill:#fff2bd"/><path d="M58.87 101.33H2c-1.1 0-2-.9-2-2V68.31a2 2 0 0 1 2-2h56.87c1.1 0 2 .9 2 2v31.02c0 1.1-.9 2-2 2M4 97.33h52.87V70.31H4z" class="cls-11"/><path d="M2 68.31s2.91-15.06 25.18-17.84l31.69 17.84z" style="stroke-width:0;fill:#e4c591"/><path d="M58.87 70.31H2c-.6 0-1.16-.27-1.54-.73a2.01 2.01 0 0 1-.42-1.65c.13-.67 3.46-16.52 26.9-19.45.42-.06.86.03 1.23.24l31.69 17.84a2 2 0 0 1-.98 3.74Zm-54.08-4h46.45L26.78 52.54C11.92 54.6 6.58 62.33 4.79 66.31" class="cls-11"/><circle cx="17.77" cy="88.6" r="4.79" class="cls-10"/><path d="M17.77 95.39c-3.74 0-6.79-3.04-6.79-6.79a6.79 6.79 0 1 1 6.79 6.79m0-9.57a2.791 2.791 0 0 0 0 5.58 2.791 2.791 0 0 0 0-5.58" class="cls-11"/><path d="M58.87 81.07a5.93 5.93 0 0 0-3.66-1.27 5.94 5.94 0 0 0 0 11.88c1.38 0 2.65-.48 3.66-1.27z" class="cls-10"/><path d="M55.21 93.68c-4.38 0-7.94-3.56-7.94-7.94s3.56-7.94 7.94-7.94c1.79 0 3.48.59 4.89 1.69.48.38.77.96.77 1.57v9.34c0 .61-.28 1.19-.77 1.57a7.83 7.83 0 0 1-4.89 1.69Zm0-11.88c-2.17 0-3.94 1.77-3.94 3.94s1.77 3.94 3.94 3.94c.58 0 1.14-.13 1.66-.37v-7.14c-.52-.24-1.08-.37-1.66-.37" class="cls-11"/><path d="M30.01 71.72c0 2.64 2.14 4.79 4.79 4.79s4.78-2.14 4.78-4.79c0-1.34-.55-2.54-1.44-3.41h-6.7c-.88.87-1.44 2.07-1.44 3.41Z" class="cls-10"/><path d="M34.8 78.5c-3.74 0-6.79-3.04-6.79-6.79 0-1.83.72-3.55 2.03-4.84.37-.37.88-.57 1.4-.57h6.7c.52 0 1.03.21 1.4.57a6.75 6.75 0 0 1 2.03 4.84c0 3.74-3.04 6.79-6.78 6.79Zm-2.4-8.2c-.25.42-.39.91-.39 1.41 0 1.54 1.25 2.79 2.79 2.79s2.78-1.25 2.78-2.79c0-.5-.13-.99-.39-1.41h-4.8Z" class="cls-11"/><path d="M80.55 51.18s-7.13 5.76-6.47 16.32" class="cls-8"/><path d="M74.07 69.5c-1.05 0-1.93-.82-1.99-1.88-.72-11.46 6.89-17.74 7.21-18 .86-.7 2.12-.56 2.81.3s.56 2.11-.29 2.81c-.26.22-6.32 5.31-5.74 14.65.07 1.1-.77 2.05-1.87 2.12z" class="cls-11"/></g></g></svg>