<svg xmlns="http://www.w3.org/2000/svg" id="flatten_icons" data-name="flatten icons" viewBox="0 0 112 112"><defs><style>.cls-3{stroke-width:0;fill:#fff}</style></defs><g id="poisson_blanc" data-name="poisson blanc"><path id="area" d="M0 0h112v112H0z" style="fill:none;stroke-width:0"/><g id="posson"><path d="M6.9 79.43c.96 3.25 3.29 5.91 6.29 7.47 8.32 4.34 32.69 10.37 41.15 10.37 11.13 0 18.95-11.73 18.95-11.73l29.51-39.26c1.13-1.74 2.36-3.4 3.63-5.04 2-2.58 3.25-10.82 1.97-16.36s-24.03-9.6-39.67-9.6S38.35 31.77 22.1 42.33C-3.74 59.13 2.93 65.97 6.9 79.43" style="stroke-width:0;fill:#eae7d9"/><path d="M81.63 28.61c-.52 0-1-.2-1.36-.54-.54-.19-2.76-.77-10.3-.84-11.6-.1-21-2.71-21.4-2.82a2 2 0 0 1-1.38-2.47c.3-1.06 1.4-1.68 2.47-1.39.09.03 9.31 2.57 20.35 2.67 12.2.11 13.38 1.46 13.61 3.09a1.99 1.99 0 0 1-1.7 2.26c-.1.01-.19.02-.29.02Zm-1.23-.48h.01zm-.74-1.2s0 .04.01.06c0-.02 0-.04-.01-.06m-3.25 14.68c-.7 0-1.38-.37-1.74-1.02-.73-1.3-4.81-3.33-23.88-2.41-11.19.56-14-7.04-14.11-7.37-.37-1.04.18-2.18 1.22-2.55a2.01 2.01 0 0 1 2.55 1.2c.1.25 2.08 5.12 10.15 4.72 17.33-.84 25.31.45 27.56 4.44.54.96.2 2.18-.76 2.72-.31.18-.65.26-.98.26ZM59.17 53.49c-.54 0-1.08-.22-1.47-.65-1.58-.82-9.75-3.74-23.13-3.19-7.91.32-12.55-.88-14.2-3.69-1.09-1.86-.5-3.81.03-4.67.57-.94 1.8-1.24 2.75-.67.93.57 1.23 1.77.69 2.71-.04.07-.17.37-.01.62.13.21 1.58 2.07 10.58 1.7 14.04-.57 25.65 2.62 26.63 5.05.32.78.1 1.72-.54 2.28-.38.34-.85.5-1.33.5ZM18.52 69.21c-4.5 0-7.93-1.34-10.18-3.98-3.64-4.28-2.63-10.31-2.59-10.56a2 2 0 0 1 2.32-1.62 1.99 1.99 0 0 1 1.62 2.31c0 .06-.72 4.47 1.71 7.3 1.5 1.75 3.98 2.6 7.4 2.56 6.63-.1 12.81-2.23 18.26-4.1 5.26-1.81 10.22-3.53 14.87-3.22a2.004 2.004 0 0 1-.26 4c-3.84-.25-8.23 1.26-13.31 3.01-5.73 1.98-12.23 4.22-19.5 4.32h-.34Zm9.02 24.85c-.45 0-.9-.15-1.27-.45-.68-.56-6.62-5.57-6.76-10.53-.05-1.78.63-3.37 1.97-4.6 5.12-4.73 24.31-5.7 26.48-5.8 1.11-.06 2.04.81 2.09 1.91s-.81 2.04-1.91 2.09c-7.64.34-20.89 1.92-23.94 4.74-.49.45-.7.93-.68 1.55.07 2.38 3.29 5.9 5.3 7.56a1.998 1.998 0 0 1-1.28 3.54Z" class="cls-3"/><path d="M100.7 23.89c-5.61 3.21-16.35 10.89-31.4 20.19-20.93 12.94-21.84 24.5-21.25 30.6.48 4.89-.34 18.68 3.17 22.19l.07.23c1.16.12 2.2.18 3.06.18 11.13 0 18.95-11.73 18.95-11.73l29.51-39.26c1.13-1.74 2.36-3.4 3.63-5.04 2-2.58 3.25-10.82 1.98-16.36 0-.04-.03-.08-.04-.12-.26-.69-1.91-4.17-7.66-.88Z" style="stroke-width:0;fill:#e1d7d1"/><path d="M59.18 97.87a1.998 1.998 0 0 1-1.86-2.74c.03-.08 3.13-8.07.09-13.89-2.8-5.36-8.83-4.61-9.09-4.58-1.09.14-2.1-.62-2.25-1.71s.6-2.1 1.69-2.26c.37-.05 9.07-1.21 13.2 6.69 3.9 7.46.24 16.83.09 17.23a2 2 0 0 1-1.86 1.26Zm20.63-21.19c-.68 0-1.34-.34-1.71-.97-.17-.27-4.26-6.81-11.67-6.5-9.67.42-15.97-7.77-16.23-8.12-.66-.88-.49-2.14.39-2.8s2.13-.49 2.8.39c.06.08 5.33 6.85 12.87 6.54 9.84-.41 15.05 8.07 15.27 8.43.57.95.27 2.17-.68 2.75-.32.2-.68.29-1.03.29ZM90 65.56c-.36 0-.72-.1-1.05-.3-.09-.05-8.7-5.31-16.7-4.96-9.81.43-14.6-7.45-14.8-7.79-.56-.95-.25-2.18.7-2.74s2.17-.25 2.74.7c.17.28 3.82 6.15 11.19 5.84 9.23-.4 18.59 5.32 18.98 5.56.94.58 1.23 1.81.65 2.75-.38.61-1.03.95-1.7.95Zm8.56-12.69c-.89 0-1.71-.6-1.94-1.51-.43-1.72-7.82-2.08-12.23-2.3l-2.88-.15c-2.99-.18-5.13-1.22-6.38-3.1-1.93-2.9-.75-6.47-.61-6.86a1.996 1.996 0 0 1 3.77 1.32c-.19.57-.54 2.28.18 3.34.52.77 1.62 1.21 3.28 1.31.94.06 1.89.1 2.84.15 7.92.39 14.75.73 15.91 5.31a2.003 2.003 0 0 1-1.94 2.49m6.48-7.79c-.74 0-1.45-.41-1.8-1.13-.04-.08-2.51-5.01-6.36-5.81a2 2 0 0 1-1.55-2.37 2 2 0 0 1 2.37-1.55c5.81 1.21 9.01 7.7 9.15 7.98a2.004 2.004 0 0 1-1.8 2.87Z" class="cls-3"/><path d="M110.35 24.44c-.03-.11-.06-.22-.1-.33 0-.01-.01-.03-.02-.04 0-.03-.03-.07-.04-.1-.17-.45-.42-.88-.75-1.3-.05-.07-.11-.14-.17-.21-.07-.08-.14-.16-.22-.24-.1-.11-.21-.21-.32-.31-6.48-6.09-29.83-8.62-40-8.62-11.75 0-22.52 8.38-33.92 17.24-4.48 3.48-9.11 7.09-13.8 10.13C-1.89 55.54-.65 63.19 3.51 75.45 4 76.91 4.52 78.41 4.99 80c1.08 3.67 3.74 6.84 7.28 8.68 7.5 3.91 28.16 9.32 38.8 10.4h.01c.04 0 .08 0 .11.01l.6.06.37.03c.19.01.37.03.55.04.14 0 .27.02.4.02.15 0 .3.02.44.02.22 0 .43.01.63.01h.15c11.79 0 19.91-11.58 20.58-12.57l29.48-39.22.08-.11c.97-1.49 2.1-3.05 3.53-4.91 2.53-3.26 3.69-12.2 2.34-18.04Zm-3.43 6.3c0 .2-.02.39-.03.59 0 .17-.01.34-.02.51-.01.2-.03.39-.05.59-.01.16-.02.33-.04.49-.02.2-.04.4-.07.59-.02.15-.03.31-.05.46l-.09.6-.06.41c-.03.2-.07.39-.11.58-.02.13-.05.26-.07.38-.04.19-.08.37-.12.55-.03.12-.05.24-.08.35-.04.17-.09.33-.14.5-.03.11-.06.23-.09.33-.05.15-.09.29-.14.43-.03.1-.07.21-.1.31-.05.13-.09.24-.14.35-.04.1-.08.2-.12.29s-.08.16-.12.25c-.05.1-.1.2-.15.29-.01.03-.03.04-.05.07-.08.13-.15.25-.23.35-.47.6-.89 1.17-1.3 1.72-.9 1.21-1.68 2.32-2.39 3.4L71.69 84.34l-.06.09s-.04.06-.1.14c-.9 1.27-7.91 10.7-17.19 10.7-.55 0-1.2-.03-1.94-.09-1.86-2.49-2.05-10.97-2.16-15.61-.05-2.05-.08-3.82-.21-5.1-1-10.25 5.65-19.64 20.31-28.7 8.06-4.98 14.87-9.49 20.34-13.11 4.72-3.12 8.44-5.58 11-7.05 2.28-1.3 3.44-1.21 3.93-1.03.55.2.79.69.85.84l.09.45c.03.17.07.34.1.52.03.17.05.34.07.52s.05.35.07.53.03.36.04.54.03.36.04.54c.01.19.01.37.02.56 0 .18.02.36.02.54v1.1ZM8.82 78.87c-.49-1.67-1.02-3.21-1.52-4.71-3.44-10.13-5.52-16.24 15.9-30.15 4.83-3.14 9.53-6.79 14.07-10.33 10.85-8.43 21.09-16.4 31.47-16.4 12 0 24.32 2.23 31.49 4.59-.17.09-.34.17-.52.28-2.67 1.53-6.44 4.03-11.22 7.19-5.45 3.61-12.23 8.09-20.24 13.04-16.09 9.95-23.35 20.57-22.19 32.49.11 1.13.15 2.83.19 4.8.13 5.95.37 11.28 1.54 14.96-10.68-1.67-27.39-6.22-33.67-9.49-2.59-1.35-4.51-3.63-5.29-6.27Z" style="stroke-width:0;fill:#004241"/></g></g></svg>