<?xml version="1.0" encoding="UTF-8"?>
<svg id="flatten_icons" data-name="flatten icons" xmlns="http://www.w3.org/2000/svg" viewBox="0 0 112 112">
  <defs>
    <style>
      .cls-1 {
        fill: none;
      }

      .cls-1, .cls-2, .cls-3, .cls-4, .cls-5 {
        stroke-width: 0px;
      }

      .cls-2 {
        fill: #d5514b;
      }

      .cls-3 {
        fill: #ef6f6f;
      }

      .cls-4 {
        fill: #fff2bd;
      }

      .cls-5 {
        fill: #004241;
      }
    </style>
  </defs>
  <g id="boeuf">
    <g id="area">
      <rect class="cls-1" width="112" height="112"/>
    </g>
    <g id="steak">
      <g>
        <path class="cls-4" d="m103.26,40.38s-.03-.08-.04-.13c1.01,19.27-28.78,17.6-37.39,34.82-9.05,18.1-39.7,17.45-51.27.85-4.54-6.51-6.5-14.14-6.29-21.79-.43,6.08-.31,14.25.02,17.5.92,9.19,2.32,13.15,6.27,18.82,11.57,16.6,45.38,16.23,56.39-.75,9.7-14.96,28.62-15.97,32.18-31.25.49-2.1,1.61-11.68.13-18.07Z"/>
        <path class="cls-5" d="m42.4,104.67c-12.58,0-23.82-4.97-29.47-13.08-4.2-6.03-5.68-10.46-6.62-19.76-.36-3.53-.44-11.91-.02-17.84.08-1.09,1.01-1.91,2.09-1.86,1.09.05,1.93.97,1.9,2.05-.21,7.6,1.84,14.72,5.93,20.59,5.49,7.88,16.2,12.44,27.3,11.64,9.51-.69,17-5.15,20.54-12.25,4.16-8.33,12.89-12.54,20.59-16.26,9.17-4.43,17.08-8.25,16.59-17.56-.05-1.03.69-1.94,1.71-2.08,1.03-.14,1.99.51,2.23,1.51,0,0,.02.07.04.15,1.6,6.91.34,16.9-.14,18.97-2.13,9.17-9.12,13.53-16.52,18.14-5.79,3.61-11.78,7.35-15.93,13.74-5.49,8.47-16.49,13.66-29.43,13.88-.27,0-.54,0-.81,0Zm-31.95-31.72c.87,7.63,2.16,11.19,5.76,16.35,5.02,7.2,15.31,11.55,26.93,11.36,11.43-.19,21.44-4.81,26.14-12.05,4.63-7.14,11.29-11.3,17.17-14.96,6.96-4.34,12.98-8.09,14.74-15.65.24-1.03.59-3.72.74-6.88-3.61,4.63-9.64,7.54-15.55,10.4-7.47,3.61-15.2,7.34-18.75,14.45-4.19,8.38-12.88,13.65-23.83,14.45-12.48.91-24.59-4.33-30.87-13.34-.92-1.32-1.75-2.69-2.48-4.11Z"/>
      </g>
      <g>
        <path class="cls-2" d="m101.99,33.9c8.34,26.14-26.7,22.25-36.15,41.16-9.05,18.1-39.7,17.45-51.27.85-11.57-16.6-6.5-40.51,9.11-53.39C43.59,6.09,92.18,3.17,101.99,33.9Z"/>
        <path class="cls-5" d="m41,90.51c-11.46,0-22.27-5.11-28.08-13.44C1.16,60.17,5.41,35.02,22.4,20.99c13.52-11.16,38.46-15.69,56.78-10.31,12.63,3.71,21.18,11.53,24.71,22.62h0c5.47,17.13-6.22,22.77-17.52,28.22-7.47,3.61-15.2,7.34-18.76,14.45-4.19,8.38-12.88,13.65-23.83,14.45-.93.07-1.86.1-2.79.1ZM62.17,12.38c-13.78,0-28.23,4.26-37.22,11.69-15.43,12.74-19.35,35.48-8.74,50.7,5.49,7.88,16.2,12.45,27.3,11.64,9.51-.69,17-5.15,20.54-12.24,4.17-8.33,12.89-12.54,20.6-16.26,11.09-5.35,19.85-9.58,15.44-23.4h0c-3.94-12.33-14.15-17.68-22.03-20-4.92-1.45-10.35-2.13-15.88-2.13Z"/>
      </g>
      <path class="cls-4" d="m26.63,19.06c-9.53,6.49-16.06,16.83-17.99,27.82h0s11.35-17.46,34.11-11.49l.78-7.69s-16.87.32-16.89-8.64Z"/>
      <path class="cls-5" d="m41,90.51c-11.46,0-22.27-5.11-28.08-13.44C1.16,60.17,5.41,35.02,22.4,20.99c13.52-11.16,38.46-15.69,56.78-10.31,12.63,3.71,21.18,11.53,24.71,22.62h0c5.47,17.13-6.22,22.77-17.52,28.22-7.47,3.61-15.2,7.34-18.76,14.45-4.19,8.38-12.88,13.65-23.83,14.45-.93.07-1.86.1-2.79.1ZM62.17,12.38c-13.78,0-28.23,4.26-37.22,11.69-15.43,12.74-19.35,35.48-8.74,50.7,5.49,7.88,16.2,12.45,27.3,11.64,9.51-.69,17-5.15,20.54-12.24,4.17-8.33,12.89-12.54,20.6-16.26,11.09-5.35,19.85-9.58,15.44-23.4h0c-3.94-12.33-14.15-17.68-22.03-20-4.92-1.45-10.35-2.13-15.88-2.13Z"/>
      <g>
        <ellipse class="cls-4" cx="45.33" cy="31.24" rx="8.65" ry="6.69"/>
        <path class="cls-5" d="m45.33,39.93c-5.87,0-10.65-3.9-10.65-8.69s4.78-8.69,10.65-8.69,10.65,3.9,10.65,8.69-4.78,8.69-10.65,8.69Zm0-13.38c-3.6,0-6.65,2.15-6.65,4.69s3.05,4.69,6.65,4.69,6.65-2.15,6.65-4.69-3.04-4.69-6.65-4.69Z"/>
      </g>
      <path class="cls-3" d="m53.98,68.65c-.57,0-1.13-.24-1.53-.71-5.86-6.9-16.55-6.39-16.65-6.38-1.08.06-2.05-.78-2.11-1.88-.06-1.1.78-2.05,1.88-2.11.52-.03,12.79-.62,19.93,7.78.71.84.61,2.1-.23,2.82-.38.32-.84.48-1.29.48Z"/>
      <path class="cls-3" d="m71.61,56.06c-.57,0-1.13-.24-1.53-.71-5.83-6.86-16.55-6.38-16.66-6.38-1.08.06-2.04-.79-2.1-1.89-.06-1.1.78-2.04,1.88-2.11.52-.03,12.79-.62,19.93,7.78.71.84.61,2.1-.23,2.82-.38.32-.84.48-1.29.48Z"/>
      <path class="cls-3" d="m85.05,43.48c-.57,0-1.13-.24-1.53-.71-5.83-6.86-16.55-6.38-16.66-6.38-1.1.05-2.04-.79-2.1-1.89-.06-1.1.78-2.04,1.88-2.11.52-.03,12.79-.62,19.93,7.78.71.84.61,2.1-.23,2.82-.38.32-.84.48-1.29.48Z"/>
    </g>
  </g>
</svg>