<svg xmlns="http://www.w3.org/2000/svg" id="flatten_icons" data-name="flatten icons" viewBox="0 0 112 112"><defs><style>.cls-10,.cls-2,.cls-3,.cls-5,.cls-6{stroke-width:0}.cls-2{fill:#d5514b}.cls-3{fill:#d7c6a5}.cls-5{fill:#8bba75}.cls-6{fill:#ef6f6f}.cls-10{fill:#004241}</style></defs><g id="repas-vegetal"><path id="area" d="M0 0h112v112H0z" style="fill:none;stroke-width:0"/><g id="repas-vegetal-2" data-name="repas-vegetal"><path d="M63.33 65.38c-27.17 0-48.45-8.98-48.45-20.44S36.16 24.5 63.33 24.5s48.45 8.98 48.45 20.44S90.5 65.38 63.33 65.38m0-36.89c-26.59 0-44.45 8.5-44.45 16.44s17.86 16.44 44.45 16.44 44.45-8.5 44.45-16.44-17.86-16.44-44.45-16.44" class="cls-10"/><path d="M109.77 48.2s1.7 44.32-46.45 44.32S16.88 48.2 16.88 48.2" style="stroke-width:0;fill:#e4c591"/><path d="M63.33 94.52c-15.45 0-27.56-4.44-36-13.21-13.05-13.56-12.48-32.39-12.45-33.18.04-1.1.95-1.96 2.08-1.92 1.1.04 1.96.97 1.92 2.08 0 .18-.51 17.98 11.36 30.29 7.65 7.93 18.79 11.96 33.09 11.96s25.44-4.02 33.09-11.96c11.87-12.31 11.37-30.11 11.36-30.29-.04-1.1.82-2.03 1.92-2.07 1.12-.06 2.03.82 2.07 1.92.03.79.6 19.63-12.45 33.18-8.44 8.77-20.55 13.21-36 13.21Z" class="cls-10"/><path d="M24.25 32.59s5.47-6.75 9.51-13.35c4.63-7.57 9.39-5.83 11.24 0s5.2 13.03 16.08 13.35c12.89.37 23.18-5.73 22.77-16.04-.38-9.35 9.87.25 12.99 10.24.7 2.24 1.87 4.3 3.34 6.13 3.61 4.5 9.34 12.92 6.03 17.66-3.99 5.72-13.4 10.86-33.72 12.41-44.1 3.35-48.23-17.21-48.23-17.21" class="cls-5"/><path d="M63.15 65.36c-36.56 0-40.69-18.35-40.86-19.19-.22-1.08.48-2.14 1.57-2.35a1.99 1.99 0 0 1 2.35 1.57c.04.17 4.61 18.76 46.12 15.61 16.94-1.29 27.78-5.18 32.23-11.56 1.83-2.63-.39-8.34-5.95-15.26-1.7-2.12-2.94-4.4-3.68-6.79-2.13-6.82-7.16-12.11-8.95-12.61-.08.25-.17.76-.13 1.69.18 4.37-1.35 8.32-4.42 11.43-4.45 4.5-11.89 6.95-20.4 6.7-11.85-.34-15.8-8.06-17.92-14.74-.67-2.11-1.77-3.51-2.87-3.64-1.3-.16-3.1 1.36-4.76 4.08-4.06 6.64-9.44 13.29-9.66 13.57-.7.86-1.95.99-2.81.29s-.99-1.96-.29-2.81c.05-.07 5.44-6.73 9.36-13.13 3.3-5.4 6.53-6.22 8.66-5.96 2.75.33 5.02 2.67 6.2 6.4 1.92 6.05 4.97 11.69 14.23 11.96 7.4.21 13.76-1.79 17.44-5.51 2.3-2.33 3.4-5.17 3.27-8.45-.18-4.55 1.95-5.61 3.23-5.83 4.51-.79 11.29 7.81 13.66 15.4.59 1.91 1.6 3.75 2.99 5.48 4.91 6.11 9.95 14.55 6.11 20.05-5.17 7.41-17.02 11.88-35.21 13.26-3.38.26-6.54.38-9.48.38Z" class="cls-10"/><path d="M37.28 43.38c-11.39-1.49-15.36-22.45-19.1-15.47-3.75 6.97-2.37 18.68-2.37 18.68s-.14 10.35 13.43 10.3c13.57-.06 8.04-13.5 8.04-13.5" class="cls-5"/><path d="M29.12 58.88c-5.14 0-9.12-1.39-11.84-4.13-3.18-3.21-3.45-7.19-3.47-8.04-.14-1.3-1.24-12.59 2.6-19.75.86-1.59 1.96-2.42 3.28-2.47 2.48-.1 4.07 2.5 6.32 6.07 2.7 4.29 6.39 10.16 11.52 10.84.71.09 1.32.56 1.59 1.22.12.3 2.94 7.29-.28 12.11-1.82 2.73-5.05 4.13-9.6 4.15zm-9.16-30.07s-.02.03-.02.04c-3.41 6.35-2.15 17.38-2.14 17.5 0 .09.01.17.01.26 0 .02.03 3.05 2.36 5.36 1.95 1.94 4.99 2.91 9.06 2.9 3.13-.01 5.25-.81 6.29-2.36 1.4-2.09.83-5.46.26-7.39-6.26-1.51-10.2-7.78-13.13-12.44-.85-1.35-1.95-3.1-2.67-3.88Z" class="cls-10"/><ellipse cx="64.39" cy="32.28" class="cls-2" rx="14.19" ry="12.12"/><path d="M64.39 46.4c-8.93 0-16.19-6.33-16.19-14.12s7.26-14.12 16.19-14.12 16.19 6.33 16.19 14.12S73.32 46.4 64.39 46.4m0-24.24c-6.72 0-12.19 4.54-12.19 10.12S57.67 42.4 64.39 42.4s12.19-4.54 12.19-10.12-5.47-10.12-12.19-10.12" class="cls-10"/><ellipse cx="64.39" cy="32.28" class="cls-6" rx="8.23" ry="7.03"/><path d="M31.3 46.58c-1.14-6.55 4.87-13.06 13.42-14.54 8.55-1.49 16.41 2.61 17.55 9.16 0 0 1.06 5.64-2.93 11.07" class="cls-2"/><path d="M59.33 54.26a2.009 2.009 0 0 1-1.61-3.19c3.39-4.62 2.61-9.33 2.57-9.53-.44-2.55-2.2-4.74-4.95-6.18-2.93-1.53-6.58-2.01-10.28-1.37-7.45 1.3-12.74 6.78-11.79 12.23.19 1.09-.54 2.12-1.63 2.31-1.1.19-2.12-.54-2.31-1.63-1.33-7.62 5.43-15.18 15.05-16.86 4.57-.8 9.12-.17 12.82 1.76 3.88 2.02 6.38 5.23 7.04 9.02.04.24 1.16 6.53-3.29 12.6-.39.53-1 .82-1.61.82Z" class="cls-10"/><ellipse cx="47.38" cy="43.33" class="cls-6" rx="9.74" ry="6.5"/><path d="M52.24 49.06s1.26-6.6 8.55-8.08c.73-.15 1.41-.51 1.9-1.07.86-.99 2.58-2.46 5.14-2.44 1.21 0 2.12.17 2.8.39 1.01.32 2.15-.08 2.74-.96s1.49-1.66 2.99-1.91c1.91-.32 3.67.5 4.86 1.28.88.58 1.98.66 2.94.22 1.02-.47 2.58-.82 4.71-.27 4.13 1.07 5.48 6.34 5.48 6.34L82.84 58.53l-23.35.45z" style="stroke-width:0;fill:#ece2b7"/><path d="M59.49 60.99a2 2 0 0 1-1.62-.82l-7.25-9.92c-.33-.45-.45-1.01-.35-1.55.06-.32 1.61-7.94 10.12-9.66.32-.07.6-.22.79-.43 1.02-1.17 3.23-3.13 6.61-3.13h.06c1.28 0 2.42.17 3.39.48.16.05.37-.02.47-.17 1.02-1.51 2.51-2.47 4.32-2.77 2.02-.33 4.2.21 6.28 1.58.3.2.67.23 1 .07 1.24-.57 3.29-1.1 6.05-.39 5.22 1.35 6.85 7.52 6.92 7.79.15.57.03 1.18-.31 1.66L84.46 59.7c-.37.51-.96.82-1.58.83l-23.35.45h-.04Zm-5.06-12.31 6.06 8.29 21.31-.41 10.32-14.33c-.49-1.25-1.66-3.53-3.76-4.07-1.62-.42-2.73-.15-3.37.15-1.59.73-3.41.6-4.87-.36-.86-.56-2.15-1.19-3.44-.98-.73.12-1.25.45-1.65 1.05a4.45 4.45 0 0 1-5.01 1.75c-.59-.19-1.33-.29-2.2-.29h-.03c-1.7 0-2.89.95-3.59 1.76-.76.87-1.83 1.48-3.01 1.72-4.52.92-6.21 4.2-6.75 5.73Z" class="cls-10"/><circle cx="69.04" cy="47.93" r="3.59" class="cls-3"/><circle cx="85.85" cy="44.42" r="2.86" class="cls-3"/><path d="M108.75 55.52c.64-5 1.9-12.04.83-21.7-.07-.2-.13-.4-.19-.58-.66-1.93-3.81-3.05-5.75-2.42-8.77 2.81-8.6 13.59-8.6 13.59-11.7.14-18.22 11.51-18.22 11.51s-10.51-7.51-20.66-7.27c-3.5.08-5.36 2.33-6.33 1.95-1.83-.73-3.99-5.34-12.19-5.65-14.29-.54-12.45 10.24-12.45 10.24l6.1 7.53c8.43 3.4 20.14 5.51 33.1 5.51 18.01 0 33.62-4.07 41.32-10.02 0 0 1.28-.89 3.04-2.67Z" style="stroke-width:0;fill:#a9d384"/><path d="M64.39 70.21c-12.79 0-24.81-2.01-33.85-5.65q-.48-.195-.81-.6l-6.1-7.53c-.22-.27-.36-.58-.42-.92-.03-.2-.79-4.92 2.42-8.59 2.5-2.85 6.57-4.19 12.07-3.98 6.76.25 9.94 3.17 11.84 4.92.21.2.47.44.69.62.13-.06.26-.14.38-.2 1.19-.63 2.98-1.58 5.5-1.64 8.3-.2 16.62 4.33 20.14 6.51 2.33-3.21 8.08-9.72 16.9-10.64.39-3.59 2.14-11.12 9.88-13.6 2.84-.91 7.21.61 8.26 3.69l.17.52c.04.13.1.35.12.49.98 8.83.07 15.55-.6 20.45-.08.6-.16 1.18-.23 1.73-.06.43-.25.84-.56 1.15-1.69 1.72-3 2.68-3.27 2.88-8.35 6.43-24.63 10.42-42.51 10.42Zm-31.88-9.17c8.52 3.34 19.81 5.17 31.88 5.17 16.8 0 32.54-3.77 40.1-9.61.03-.02.05-.04.08-.06 0 0 .95-.67 2.28-1.97q.075-.525.15-1.08c.63-4.66 1.5-11.02.61-19.26l-.12-.37c-.24-.72-2.16-1.5-3.25-1.16-7.23 2.31-7.21 11.27-7.21 11.65.01 1.1-.87 2.01-1.98 2.03-10.38.13-16.45 10.41-16.51 10.51-.28.49-.76.83-1.31.95s-1.13 0-1.59-.32c-.1-.07-10.1-7.13-19.45-6.9-1.57.04-2.71.64-3.72 1.17-1 .53-2.14 1.13-3.4.63-.83-.33-1.49-.94-2.25-1.64-1.68-1.55-3.99-3.67-9.28-3.87-4.24-.16-7.25.72-8.91 2.62-1.5 1.7-1.57 3.89-1.53 4.83l5.4 6.66Zm76.24-5.52" class="cls-10"/><path d="M80.82 50.9s-7.07 5.71-6.42 16.17" style="stroke-width:0;fill:#fff4e8"/><path d="M74.4 69.07c-1.05 0-1.93-.82-1.99-1.88-.71-11.37 6.83-17.6 7.16-17.85a2 2 0 0 1 2.81.3c.69.86.56 2.11-.29 2.81-.26.22-6.26 5.26-5.68 14.5.07 1.1-.77 2.05-1.87 2.12h-.13Z" class="cls-10"/><path d="M51.68 97.73S-2.29 112.85 2.27 47.88c0 0 62.58-1.64 49.4 49.85Z" class="cls-5"/><path d="M38.93 101.28c-7.55 0-17.02-1.6-24.82-7.95C3.42 84.62-1.23 69.28.28 47.74c.07-1.03.91-1.83 1.94-1.86.33 0 8.05-.18 17.61 1.8 12.81 2.67 22.72 8.02 28.67 15.47 7.08 8.88 8.8 20.68 5.12 35.07-.18.69-.71 1.24-1.4 1.43-.45.13-5.97 1.63-13.29 1.63M4.15 49.89C3.12 69.05 7.31 82.61 16.62 90.22c11.88 9.7 28.92 6.83 33.41 5.85 2.98-12.58 1.41-22.8-4.65-30.41-11.15-13.99-34.53-15.6-41.23-15.77" class="cls-10"/><path d="M20.17 68.68s17.95 7.73 31.5 29.06" class="cls-5"/><path d="M51.68 99.73a2 2 0 0 1-1.69-.93C36.96 78.29 19.55 70.58 19.38 70.51a2.003 2.003 0 0 1-1.04-2.63 2.003 2.003 0 0 1 2.63-1.04c.76.33 18.67 8.22 32.4 29.82.59.93.32 2.17-.61 2.76-.33.21-.7.31-1.07.31Z" class="cls-10"/><circle cx="77.54" cy="43.04" r="2.11" class="cls-3"/></g></g></svg>