<?xml version="1.0" encoding="UTF-8"?>
<svg id="flatten_icons" data-name="flatten icons" xmlns="http://www.w3.org/2000/svg" viewBox="0 0 112 112">
  <defs>
    <style>
      .cls-1 {
        fill: none;
      }

      .cls-1, .cls-2, .cls-3, .cls-4, .cls-5 {
        stroke-width: 0px;
      }

      .cls-2 {
        fill: #c59878;
      }

      .cls-3 {
        fill: #fff2bd;
      }

      .cls-4 {
        fill: #e4c591;
      }

      .cls-5 {
        fill: #004241;
      }
    </style>
  </defs>
  <g id="poulet">
    <g id="area">
      <rect class="cls-1" width="112" height="112"/>
    </g>
    <g id="poulet-2" data-name="poulet">
      <path class="cls-2" d="m51.48,33.29h0c-2.89-2.56-7.31-2.3-9.87.59l-8.3,9.36c-2.56,2.89-2.3,7.31.59,9.87l.56.5c6.56,5.82,10.49,13.93,11.54,22.64.87,7.23,4.39,14.18,10.48,19.24,11.58,9.64,28.87,8.96,39.62-1.6,12.38-12.15,11.71-32.01-1.04-43.33-5.48-4.86-12.25-7.32-19.04-7.46-9.07-.18-17.74-3.79-24.52-9.82Z"/>
      <path class="cls-4" d="m95.04,50.56c-5.48-4.86-12.25-7.32-19.04-7.45-9.07-.18-17.74-3.79-24.52-9.82h0c-2.89-2.56-7.31-2.3-9.87.59l-8.3,9.36c-2.56,2.89-2.3,7.31.59,9.87l.56.5s7.01,3.94,15.81-.86c8.8-4.8,18.9-2.31,18.01,1.58-.07.32-.19.68-.34,1.06-1.89,4.85,2.05,9.93,7.18,9.07l.67-.11c4.05-.68,7.74,2.44,7.74,6.54,0,2.61,1.53,4.98,3.91,6.05l2.74,1.24c1.96.88,3.38,2.67,3.79,4.78l2.13,10.95c12.38-12.15,11.71-32.01-1.04-43.33Z"/>
      <path class="cls-4" d="m72.62,94.65c-.12,0-.24-.01-.36-.03-3.4-.62-6.54-2.01-9.31-4.11-3.29-2.49-5.8-5.83-7.27-9.66-.4-1.03.12-2.19,1.15-2.58,1.03-.4,2.19.12,2.58,1.15,1.2,3.13,3.26,5.87,5.95,7.9,2.27,1.72,4.84,2.85,7.62,3.36,1.09.2,1.81,1.24,1.61,2.33-.18.96-1.02,1.64-1.96,1.64Z"/>
      <path class="cls-5" d="m75.36,104.24c-7.18,0-14.38-2.39-20.18-7.22-6.25-5.2-10.22-12.49-11.18-20.54-1.01-8.47-4.88-16.06-10.88-21.39l-.56-.5c-3.71-3.29-4.05-8.99-.76-12.69l8.3-9.36c1.59-1.8,3.79-2.86,6.19-3.01,2.41-.14,4.71.66,6.5,2.25,6.58,5.84,14.83,9.15,23.24,9.31,7.5.15,14.72,2.98,20.33,7.96,6.53,5.8,10.4,14.13,10.62,22.86.22,8.85-3.15,17.16-9.51,23.39-6.03,5.92-14.07,8.92-22.12,8.92Zm-28.52-70.71c-.1,0-.2,0-.3,0-1.33.08-2.55.67-3.44,1.67l-8.3,9.36c-1.83,2.06-1.64,5.22.42,7.05l.56.5c6.73,5.97,11.06,14.46,12.19,23.9.84,7.03,4.31,13.4,9.77,17.94,10.75,8.95,26.98,8.29,36.94-1.49,5.55-5.45,8.5-12.71,8.31-20.44-.19-7.63-3.57-14.9-9.27-19.97-4.9-4.35-11.21-6.82-17.75-6.95-9.36-.19-18.52-3.85-25.81-10.32h0c-.92-.82-2.08-1.26-3.31-1.26Z"/>
      <g>
        <path class="cls-3" d="m15.51,12.09c-.79.9-1.29,1.96-1.54,3.05-.27,1.22-1.17,2.24-2.35,2.65-1.06.37-2.04,1-2.85,1.89-2.51,2.77-2.34,7.19.38,9.75,2.87,2.7,7.38,2.48,9.98-.45l15.85,14.07c2.11,1.87,5.39,1.88,7.32-.17,2-2.12,1.84-5.46-.33-7.39l-16.01-14.21c2.6-2.93,2.28-7.44-.74-9.97-2.87-2.4-7.28-2.04-9.73.78Z"/>
        <path class="cls-5" d="m38.62,46.42c-1.76,0-3.54-.62-4.96-1.88l-14.52-12.89c-1.39,1-3.05,1.58-4.81,1.66-2.46.11-4.77-.75-6.55-2.43-3.53-3.32-3.76-8.95-.49-12.55,1-1.1,2.27-1.94,3.67-2.43.52-.18.94-.65,1.06-1.19.32-1.45,1-2.81,1.98-3.93h0c3.18-3.67,8.8-4.11,12.52-1,1.88,1.57,3.01,3.78,3.19,6.21.13,1.76-.25,3.47-1.07,4.97l14.68,13.03c1.46,1.29,2.31,3.08,2.4,5.03.09,1.95-.6,3.8-1.94,5.22-1.36,1.45-3.24,2.18-5.15,2.18Zm-19.47-19.44c.49,0,.96.18,1.33.5l15.84,14.07c1.35,1.2,3.39,1.18,4.54-.05.59-.63.89-1.44.86-2.3-.04-.86-.41-1.65-1.06-2.22l-16.01-14.21c-.83-.73-.9-2-.17-2.82.9-1.01,1.34-2.31,1.24-3.66-.1-1.35-.73-2.57-1.77-3.44-2.02-1.7-5.2-1.44-6.93.56h0c-.55.63-.91,1.36-1.09,2.17-.42,1.9-1.81,3.47-3.65,4.11-.77.27-1.47.73-2.02,1.34-1.78,1.96-1.65,5.14.27,6.95.99.93,2.28,1.4,3.63,1.35,1.35-.06,2.59-.65,3.49-1.66.35-.4.85-.64,1.38-.67.04,0,.08,0,.12,0Zm-3.63-14.89h0,0Z"/>
      </g>
    </g>
  </g>
</svg>