<svg xmlns="http://www.w3.org/2000/svg" id="flatten_icons" data-name="flatten icons" viewBox="0 0 112 112"><defs><style>.cls-5{stroke-width:0;fill:#004241}</style></defs><g id="poulet"><path id="area" d="M0 0h112v112H0z" style="fill:none;stroke-width:0"/><g id="poulet-2" data-name="poulet"><path d="M51.48 33.29c-2.89-2.56-7.31-2.3-9.87.59l-8.3 9.36c-2.56 2.89-2.3 7.31.59 9.87l.56.5C41.02 59.43 44.95 67.54 46 76.25c.87 7.23 4.39 14.18 10.48 19.24 11.58 9.64 28.87 8.96 39.62-1.6 12.38-12.15 11.71-32.01-1.04-43.33a29.5 29.5 0 0 0-19.04-7.46c-9.07-.18-17.74-3.79-24.52-9.82Z" style="stroke-width:0;fill:#c59878"/><path d="M95.04 50.56A29.45 29.45 0 0 0 76 43.11c-9.07-.18-17.74-3.79-24.52-9.82-2.89-2.56-7.31-2.3-9.87.59l-8.3 9.36c-2.56 2.89-2.3 7.31.59 9.87l.56.5s7.01 3.94 15.81-.86 18.9-2.31 18.01 1.58c-.07.32-.19.68-.34 1.06-1.89 4.85 2.05 9.93 7.18 9.07l.67-.11c4.05-.68 7.74 2.44 7.74 6.54 0 2.61 1.53 4.98 3.91 6.05l2.74 1.24a6.64 6.64 0 0 1 3.79 4.78l2.13 10.95c12.38-12.15 11.71-32.01-1.04-43.33ZM72.62 94.65q-.18 0-.36-.03c-3.4-.62-6.54-2.01-9.31-4.11-3.29-2.49-5.8-5.83-7.27-9.66-.4-1.03.12-2.19 1.15-2.58 1.03-.4 2.19.12 2.58 1.15 1.2 3.13 3.26 5.87 5.95 7.9 2.27 1.72 4.84 2.85 7.62 3.36a2 2 0 0 1-.35 3.97Z" style="stroke-width:0;fill:#e4c591"/><path d="M75.36 104.24c-7.18 0-14.38-2.39-20.18-7.22-6.25-5.2-10.22-12.49-11.18-20.54-1.01-8.47-4.88-16.06-10.88-21.39l-.56-.5c-3.71-3.29-4.05-8.99-.76-12.69l8.3-9.36c1.59-1.8 3.79-2.86 6.19-3.01 2.41-.14 4.71.66 6.5 2.25 6.58 5.84 14.83 9.15 23.24 9.31 7.5.15 14.72 2.98 20.33 7.96 6.53 5.8 10.4 14.13 10.62 22.86.22 8.85-3.15 17.16-9.51 23.39-6.03 5.92-14.07 8.92-22.12 8.92ZM46.84 33.53h-.3a4.97 4.97 0 0 0-3.44 1.67l-8.3 9.36a4.997 4.997 0 0 0 .42 7.05l.56.5c6.73 5.97 11.06 14.46 12.19 23.9.84 7.03 4.31 13.4 9.77 17.94 10.75 8.95 26.98 8.29 36.94-1.49 5.55-5.45 8.5-12.71 8.31-20.44-.19-7.63-3.57-14.9-9.27-19.97a27.6 27.6 0 0 0-17.75-6.95c-9.36-.19-18.52-3.85-25.81-10.32a4.93 4.93 0 0 0-3.31-1.26Z" class="cls-5"/><path d="M15.51 12.09a6.96 6.96 0 0 0-1.54 3.05 3.66 3.66 0 0 1-2.35 2.65c-1.06.37-2.04 1-2.85 1.89-2.51 2.77-2.34 7.19.38 9.75a6.96 6.96 0 0 0 9.98-.45l15.85 14.07c2.11 1.87 5.39 1.88 7.32-.17 2-2.12 1.84-5.46-.33-7.39L25.96 21.28a6.97 6.97 0 0 0-.74-9.97c-2.87-2.4-7.28-2.04-9.73.78Z" style="stroke-width:0;fill:#fff2bd"/><path d="M38.62 46.42c-1.76 0-3.54-.62-4.96-1.88L19.14 31.65a8.9 8.9 0 0 1-4.81 1.66c-2.46.11-4.77-.75-6.55-2.43-3.53-3.32-3.76-8.95-.49-12.55 1-1.1 2.27-1.94 3.67-2.43.52-.18.94-.65 1.06-1.19.32-1.45 1-2.81 1.98-3.93 3.18-3.67 8.8-4.11 12.52-1a8.9 8.9 0 0 1 3.19 6.21c.13 1.76-.25 3.47-1.07 4.97l14.68 13.03a7.1 7.1 0 0 1 2.4 5.03c.09 1.95-.6 3.8-1.94 5.22-1.36 1.45-3.24 2.18-5.15 2.18ZM19.15 26.98c.49 0 .96.18 1.33.5l15.84 14.07c1.35 1.2 3.39 1.18 4.54-.05.59-.63.89-1.44.86-2.3-.04-.86-.41-1.65-1.06-2.22L24.65 22.77c-.83-.73-.9-2-.17-2.82a4.9 4.9 0 0 0 1.24-3.66c-.1-1.35-.73-2.57-1.77-3.44-2.02-1.7-5.2-1.44-6.93.56-.55.63-.91 1.36-1.09 2.17a5.66 5.66 0 0 1-3.65 4.11c-.77.27-1.47.73-2.02 1.34-1.78 1.96-1.65 5.14.27 6.95.99.93 2.28 1.4 3.63 1.35 1.35-.06 2.59-.65 3.49-1.66.35-.4.85-.64 1.38-.67h.12Zm-3.63-14.89" class="cls-5"/></g></g></svg>