<svg xmlns="http://www.w3.org/2000/svg" id="flatten_icons" data-name="flatten icons" viewBox="0 0 112 112"><defs><style>.cls-3,.cls-6{stroke-width:0}.cls-3{fill:#d3e7ee}.cls-6{fill:#004241}</style></defs><g id="transilien"><path id="area" d="M0 0h112v112H0z" style="fill:none;stroke-width:0"/><g id="rails"><path d="M97.84 103.04c-1.1 0-2-.9-2-2v-2.87c0-1.1.9-2 2-2s2 .9 2 2v2.87c0 1.1-.9 2-2 2m-14.29 0c-1.1 0-2-.9-2-2v-2.87c0-1.1.9-2 2-2s2 .9 2 2v2.87c0 1.1-.9 2-2 2m-13.74 0c-1.1 0-2-.9-2-2v-2.87c0-1.1.9-2 2-2s2 .9 2 2v2.87c0 1.1-.9 2-2 2m-14.29 0c-1.1 0-2-.9-2-2v-2.87c0-1.1.9-2 2-2s2 .9 2 2v2.87c0 1.1-.9 2-2 2m-14.44 0c-1.1 0-2-.9-2-2v-2.87c0-1.1.9-2 2-2s2 .9 2 2v2.87c0 1.1-.9 2-2 2m-14.29 0c-1.1 0-2-.9-2-2v-2.87c0-1.1.9-2 2-2s2 .9 2 2v2.87c0 1.1-.9 2-2 2m-13.74 0c-1.1 0-2-.9-2-2v-2.87c0-1.1.9-2 2-2s2 .9 2 2v2.87c0 1.1-.9 2-2 2" style="stroke-width:0;fill:#c4d1d5"/><path d="M105.87 100.17H4.02c-1.1 0-2-.9-2-2s.9-2 2-2h101.85c1.1 0 2 .9 2 2s-.9 2-2 2" class="cls-6"/></g><g id="car"><path d="M17.73 27.38a2 2 0 0 1-1.87-2.71l3.75-9.94-6.29-6.33c-.78-.78-.77-2.05 0-2.83.78-.78 2.05-.78 2.83 0l7.2 7.24c.55.56.73 1.38.45 2.12l-4.21 11.14c-.3.8-1.06 1.29-1.87 1.29Z" class="cls-6"/><path d="M2.29 83.79h92.77c10.24 0 17.44-9.55 14.13-18.73l-8.39-23.25c-3.55-9.83-13.29-16.43-24.25-16.43H2.29" style="stroke-width:0;fill:#a6c68d"/><path d="M95.06 85.79H2.29c-1.1 0-2-.9-2-2s.9-2 2-2h92.77c4.36 0 8.39-2.04 10.8-5.46 2.21-3.15 2.74-7.01 1.45-10.58L98.92 42.5c-3.26-9.04-12.25-15.11-22.37-15.11H2.29c-1.1 0-2-.9-2-2s.9-2 2-2h74.26c11.8 0 22.3 7.13 26.14 17.75l8.39 23.25c1.74 4.82 1.03 10.01-1.94 14.24-3.15 4.49-8.41 7.17-14.07 7.17Z" class="cls-6"/><rect width="16.33" height="16.33" x="23.97" y="37.48" class="cls-3" rx="1.26" ry="1.26"/><path d="M39.04 55.81H25.22a3.26 3.26 0 0 1-3.26-3.26V38.73c0-1.8 1.46-3.26 3.26-3.26h13.82c1.8 0 3.26 1.46 3.26 3.26v13.82c0 1.8-1.46 3.26-3.26 3.26m-13.08-4h12.33V39.48H25.96zm13.08-12.33" class="cls-6"/><rect width="16.33" height="16.33" x="48.59" y="37.48" class="cls-3" rx="1.26" ry="1.26"/><path d="M63.66 55.81H49.84a3.26 3.26 0 0 1-3.26-3.26V38.73c0-1.8 1.46-3.26 3.26-3.26h13.82c1.8 0 3.26 1.46 3.26 3.26v13.82c0 1.8-1.46 3.26-3.26 3.26m-13.08-4h12.33V39.48H50.58zm13.08-12.33" class="cls-6"/><path d="M2 53.81h15.08c.7 0 1.26-.56 1.26-1.26V38.73c0-.7-.56-1.26-1.26-1.26H2" class="cls-3"/><path d="M17.08 55.81H2c-1.1 0-2-.9-2-2s.9-2 2-2h14.33V39.48H2c-1.1 0-2-.9-2-2s.9-2 2-2h15.08c1.8 0 3.26 1.46 3.26 3.26v13.82c0 1.8-1.46 3.26-3.26 3.26Z" class="cls-6"/><path d="m76.99 40.32.53 5.1c.38 3.69 2.28 7.04 5.23 9.21l4.16 3.07a7.02 7.02 0 0 0 8.38 0c1.85-1.37 2.42-3.91 1.35-5.96l-4.53-8.64c-1.96-3.73-5.29-6.51-9.26-7.73-3.12-.95-6.19 1.64-5.85 4.95Z" class="cls-3"/><path d="M91.1 61.09c-1.88 0-3.77-.59-5.38-1.78l-4.16-3.07c-3.39-2.5-5.59-6.37-6.03-10.61l-.53-5.1c-.23-2.25.66-4.44 2.39-5.86a6.51 6.51 0 0 1 6.03-1.21c4.45 1.36 8.26 4.53 10.45 8.71l4.53 8.64c1.52 2.91.69 6.56-1.93 8.5a9 9 0 0 1-5.38 1.78ZM78.99 40.11l.53 5.1a11.12 11.12 0 0 0 4.43 7.81l4.16 3.07a5.01 5.01 0 0 0 6 0c1.05-.78 1.38-2.25.76-3.43l-4.53-8.64c-1.69-3.24-4.64-5.69-8.08-6.74-.81-.25-1.66-.08-2.32.47-.7.58-1.05 1.44-.95 2.36" class="cls-6"/><path d="M2.29 74.23H108.1c1.09-2.79 1.39-5.9.66-9.04H2.29z" style="stroke-width:0;fill:#ffdc49"/><path d="M63.66 85.18H49.84a3.26 3.26 0 0 1-3.26-3.26V39.17c0-1.8 1.46-3.26 3.26-3.26h13.82c1.8 0 3.26 1.46 3.26 3.26v42.75c0 1.8-1.46 3.26-3.26 3.26m-13.08-4h12.33V39.91H50.58zm13.08-41.27" class="cls-6"/><path d="M95.06 85.79H2.29c-1.1 0-2-.9-2-2s.9-2 2-2h92.77c4.36 0 8.39-2.04 10.8-5.46 2.21-3.15 2.74-7.01 1.45-10.58L98.92 42.5c-3.26-9.04-12.25-15.11-22.37-15.11H2.29c-1.1 0-2-.9-2-2s.9-2 2-2h74.26c11.8 0 22.3 7.13 26.14 17.75l8.39 23.25c1.74 4.82 1.03 10.01-1.94 14.24-3.15 4.49-8.41 7.17-14.07 7.17Z" class="cls-6"/><path d="M93.03 84.29a7.514 7.514 0 0 0-10.07-.82h-9.08a7.524 7.524 0 0 0-9.87.62c-2.13 2.07-2.82 5.33-1.7 8.09a7.516 7.516 0 0 0 11.1 3.54 7.51 7.51 0 0 0 3.38-5.68c.07-.83.8-1.46 1.63-1.46.84 0 1.56.64 1.63 1.48a7.52 7.52 0 0 0 3.08 5.46c3.76 2.72 9.19 1.45 11.25-3 1.26-2.73.71-6.05-1.36-8.23ZM64.92 62.54h-8.17c-1.1 0-2-.9-2-2s.9-2 2-2h8.17c1.1 0 2 .9 2 2s-.9 2-2 2" class="cls-6"/></g></g></svg>