<?xml version="1.0" encoding="UTF-8"?>
<svg id="flatten_icons" data-name="flatten icons" xmlns="http://www.w3.org/2000/svg" viewBox="0 0 112 112">
  <defs>
    <style>
      .cls-1 {
        fill: none;
      }

      .cls-1, .cls-2, .cls-3, .cls-4, .cls-5, .cls-6 {
        stroke-width: 0px;
      }

      .cls-2 {
        fill: #c4d1d5;
      }

      .cls-3 {
        fill: #d3e7ee;
      }

      .cls-4 {
        fill: #a6c68d;
      }

      .cls-5 {
        fill: #ffdc49;
      }

      .cls-6 {
        fill: #004241;
      }
    </style>
  </defs>
  <g id="transilien">
    <g id="area">
      <rect class="cls-1" width="112" height="112"/>
    </g>
    <g id="rails">
      <path class="cls-2" d="m97.84,103.04c-1.1,0-2-.9-2-2v-2.87c0-1.1.9-2,2-2s2,.9,2,2v2.87c0,1.1-.9,2-2,2Z"/>
      <path class="cls-2" d="m83.55,103.04c-1.1,0-2-.9-2-2v-2.87c0-1.1.9-2,2-2s2,.9,2,2v2.87c0,1.1-.9,2-2,2Z"/>
      <path class="cls-2" d="m69.81,103.04c-1.1,0-2-.9-2-2v-2.87c0-1.1.9-2,2-2s2,.9,2,2v2.87c0,1.1-.9,2-2,2Z"/>
      <path class="cls-2" d="m55.52,103.04c-1.1,0-2-.9-2-2v-2.87c0-1.1.9-2,2-2s2,.9,2,2v2.87c0,1.1-.9,2-2,2Z"/>
      <path class="cls-2" d="m41.08,103.04c-1.1,0-2-.9-2-2v-2.87c0-1.1.9-2,2-2s2,.9,2,2v2.87c0,1.1-.9,2-2,2Z"/>
      <path class="cls-2" d="m26.79,103.04c-1.1,0-2-.9-2-2v-2.87c0-1.1.9-2,2-2s2,.9,2,2v2.87c0,1.1-.9,2-2,2Z"/>
      <path class="cls-2" d="m13.05,103.04c-1.1,0-2-.9-2-2v-2.87c0-1.1.9-2,2-2s2,.9,2,2v2.87c0,1.1-.9,2-2,2Z"/>
      <path class="cls-6" d="m105.87,100.17H4.02c-1.1,0-2-.9-2-2s.9-2,2-2h101.85c1.1,0,2,.9,2,2s-.9,2-2,2Z"/>
    </g>
    <g id="car">
      <path class="cls-6" d="m17.73,27.38c-.23,0-.47-.04-.71-.13-1.03-.39-1.55-1.54-1.16-2.58l3.75-9.94-6.29-6.33c-.78-.78-.77-2.05,0-2.83.78-.78,2.05-.78,2.83,0l7.2,7.24c.55.56.73,1.38.45,2.12l-4.21,11.14c-.3.8-1.06,1.29-1.87,1.29Z"/>
      <g>
        <path class="cls-4" d="m2.29,83.79h92.77c10.24,0,17.44-9.55,14.13-18.73l-8.39-23.25c-3.55-9.83-13.29-16.43-24.25-16.43H2.29"/>
        <path class="cls-6" d="m95.06,85.79H2.29c-1.1,0-2-.9-2-2s.9-2,2-2h92.77c4.36,0,8.39-2.04,10.8-5.46,2.21-3.15,2.74-7.01,1.45-10.58l-8.39-23.25c-3.26-9.04-12.25-15.11-22.37-15.11H2.29c-1.1,0-2-.9-2-2s.9-2,2-2h74.26c11.8,0,22.3,7.13,26.14,17.75l8.39,23.25c1.74,4.82,1.03,10.01-1.94,14.24-3.15,4.49-8.41,7.17-14.07,7.17Z"/>
      </g>
      <g>
        <rect class="cls-3" x="23.97" y="37.48" width="16.33" height="16.33" rx="1.26" ry="1.26"/>
        <path class="cls-6" d="m39.04,55.81h-13.82c-1.8,0-3.26-1.46-3.26-3.26v-13.82c0-1.8,1.46-3.26,3.26-3.26h13.82c1.8,0,3.26,1.46,3.26,3.26v13.82c0,1.8-1.46,3.26-3.26,3.26Zm-13.08-4h12.33v-12.33h-12.33v12.33Zm13.08-12.33h0,0Z"/>
      </g>
      <g>
        <rect class="cls-3" x="48.59" y="37.48" width="16.33" height="16.33" rx="1.26" ry="1.26"/>
        <path class="cls-6" d="m63.66,55.81h-13.82c-1.8,0-3.26-1.46-3.26-3.26v-13.82c0-1.8,1.46-3.26,3.26-3.26h13.82c1.8,0,3.26,1.46,3.26,3.26v13.82c0,1.8-1.46,3.26-3.26,3.26Zm-13.08-4h12.33v-12.33h-12.33v12.33Zm13.08-12.33h0,0Z"/>
      </g>
      <g>
        <path class="cls-3" d="m2,53.81h15.08c.7,0,1.26-.56,1.26-1.26v-13.82c0-.7-.56-1.26-1.26-1.26H2"/>
        <path class="cls-6" d="m17.08,55.81H2c-1.1,0-2-.9-2-2s.9-2,2-2h14.33v-12.33H2c-1.1,0-2-.9-2-2s.9-2,2-2h15.08c1.8,0,3.26,1.46,3.26,3.26v13.82c0,1.8-1.46,3.26-3.26,3.26Z"/>
      </g>
      <g>
        <path class="cls-3" d="m76.99,40.32l.53,5.1c.38,3.69,2.28,7.04,5.23,9.21l4.16,3.07c2.5,1.85,5.88,1.85,8.38,0h0c1.85-1.37,2.42-3.91,1.35-5.96l-4.53-8.64c-1.96-3.73-5.29-6.51-9.26-7.73h0c-3.12-.95-6.19,1.64-5.85,4.95Z"/>
        <path class="cls-6" d="m91.1,61.09c-1.88,0-3.77-.59-5.38-1.78l-4.16-3.07c-3.39-2.5-5.59-6.37-6.03-10.61l-.53-5.1c-.23-2.25.66-4.44,2.39-5.86,1.69-1.39,3.94-1.84,6.03-1.21,4.45,1.36,8.26,4.53,10.45,8.71l4.53,8.64c1.52,2.91.69,6.56-1.93,8.5-1.61,1.19-3.49,1.78-5.38,1.78Zm-12.11-20.98l.53,5.1c.32,3.13,1.94,5.97,4.43,7.81l4.16,3.07c1.79,1.33,4.21,1.33,6,0,1.05-.78,1.38-2.25.76-3.43l-4.53-8.64c-1.69-3.24-4.64-5.69-8.08-6.74-.81-.25-1.66-.08-2.32.47-.7.58-1.05,1.44-.95,2.36h0Z"/>
      </g>
      <path class="cls-5" d="m2.29,74.23h105.81c1.09-2.79,1.39-5.9.66-9.04H2.29v9.04Z"/>
      <path class="cls-6" d="m63.66,85.18h-13.82c-1.8,0-3.26-1.46-3.26-3.26v-42.75c0-1.8,1.46-3.26,3.26-3.26h13.82c1.8,0,3.26,1.46,3.26,3.26v42.75c0,1.8-1.46,3.26-3.26,3.26Zm-13.08-4h12.33v-41.27h-12.33v41.27Zm13.08-41.27h0,0Z"/>
      <path class="cls-6" d="m95.06,85.79H2.29c-1.1,0-2-.9-2-2s.9-2,2-2h92.77c4.36,0,8.39-2.04,10.8-5.46,2.21-3.15,2.74-7.01,1.45-10.58l-8.39-23.25c-3.26-9.04-12.25-15.11-22.37-15.11H2.29c-1.1,0-2-.9-2-2s.9-2,2-2h74.26c11.8,0,22.3,7.13,26.14,17.75l8.39,23.25c1.74,4.82,1.03,10.01-1.94,14.24-3.15,4.49-8.41,7.17-14.07,7.17Z"/>
      <path class="cls-6" d="m93.03,84.29c-2.81-2.96-7.15-3.07-10.07-.82h-9.08c-2.83-2.17-7.01-2.16-9.87.62-2.13,2.07-2.82,5.33-1.7,8.09,1.84,4.55,7.21,6.08,11.1,3.54,2.02-1.32,3.19-3.44,3.38-5.68.07-.83.8-1.46,1.63-1.46h0c.84,0,1.56.64,1.63,1.48.18,2.11,1.24,4.12,3.08,5.46,3.76,2.72,9.19,1.45,11.25-3,1.26-2.73.71-6.05-1.36-8.23Z"/>
      <path class="cls-6" d="m64.92,62.54h-8.17c-1.1,0-2-.9-2-2s.9-2,2-2h8.17c1.1,0,2,.9,2,2s-.9,2-2,2Z"/>
    </g>
  </g>
</svg>