<svg xmlns="http://www.w3.org/2000/svg" data-name="flatten icons" viewBox="0 0 112 112"><path d="M0 0h112v112H0z" style="stroke-width:0;fill:none"/><path d="M11.17 13.68h31.45c3.19 0 5.79 2.59 5.79 5.79v63.6a2.57 2.57 0 0 1-2.57 2.57H7.96a2.57 2.57 0 0 1-2.57-2.57V19.46c0-3.19 2.59-5.79 5.79-5.79Zm91.56 42.41v26.97a2.57 2.57 0 0 1-2.57 2.57H62.28a2.57 2.57 0 0 1-2.57-2.57V56.09c0-1.05.55-2.03 1.45-2.58l16.08-9.79a7.66 7.66 0 0 1 7.97 0l16.08 9.79c.9.55 1.45 1.53 1.45 2.58Z" style="stroke:#004241;stroke-linecap:round;stroke-linejoin:round;stroke-width:4px;fill:#e4dbc9"/><path d="M21.95 72.8H32.5v12.83H21.95zm63.75 0h10.55v12.83H85.7z" style="fill:#a4b5bb;stroke:#004241;stroke-linecap:round;stroke-linejoin:round;stroke-width:4px"/><path d="M105.11 55.39c-.62 0-1.25-.17-1.82-.51L81.22 41.42 59.15 54.88c-1.65 1.01-3.8.48-4.81-1.17a3.5 3.5 0 0 1 1.17-4.81L79.4 34.33c1.12-.68 2.53-.68 3.64 0l23.89 14.57a3.507 3.507 0 0 1 1.17 4.81 3.5 3.5 0 0 1-2.99 1.68" style="stroke:#004241;stroke-linecap:round;stroke-linejoin:round;stroke-width:4px;fill:#e56f6b"/><path d="M5.39 98.32h35.64V85.63m0 12.69h55.42V85.63" style="fill:none;stroke:#004241;stroke-linecap:round;stroke-linejoin:round;stroke-width:4px"/><path d="M67.68 59.64h8.96V71.9h-8.96zm-54.26-3h27.61v8.96H13.42zm0-17.17h27.61v8.96H13.42zm0-17.05h27.61v8.96H13.42z" style="stroke:#004241;stroke-linecap:round;stroke-linejoin:round;stroke-width:4px;fill:#d2e3ec"/></svg>