<?xml version="1.0" encoding="UTF-8"?>
<svg id="flatten_icons" data-name="flatten icons" xmlns="http://www.w3.org/2000/svg" viewBox="0 0 112 112">
  <defs>
    <style>
      .cls-1 {
        stroke-width: 0px;
      }

      .cls-1, .cls-2 {
        fill: none;
      }

      .cls-3 {
        fill: #a4b5bb;
      }

      .cls-3, .cls-4, .cls-5, .cls-6, .cls-2 {
        stroke: #004241;
        stroke-linecap: round;
        stroke-linejoin: round;
        stroke-width: 4px;
      }

      .cls-4 {
        fill: #d2e3ec;
      }

      .cls-5 {
        fill: #e56f6b;
      }

      .cls-6 {
        fill: #e4dbc9;
      }
    </style>
  </defs>
  <rect class="cls-1" width="112" height="112"/>
  <g>
    <path class="cls-6" d="m11.17,13.68h31.45c3.19,0,5.79,2.59,5.79,5.79v63.6c0,1.42-1.15,2.57-2.57,2.57H7.96c-1.42,0-2.57-1.15-2.57-2.57V19.46c0-3.19,2.59-5.79,5.79-5.79Z"/>
    <path class="cls-6" d="m102.73,56.09v26.97c0,1.42-1.15,2.57-2.57,2.57h-37.88c-1.42,0-2.57-1.15-2.57-2.57v-26.97c0-1.05.55-2.03,1.45-2.58l16.08-9.79c2.45-1.49,5.52-1.49,7.97,0l16.08,9.79c.9.55,1.45,1.53,1.45,2.58Z"/>
    <rect class="cls-3" x="21.95" y="72.8" width="10.55" height="12.83"/>
    <rect class="cls-3" x="85.7" y="72.8" width="10.55" height="12.83"/>
    <path class="cls-5" d="m105.11,55.39c-.62,0-1.25-.17-1.82-.51l-22.07-13.46-22.07,13.46c-1.65,1.01-3.8.48-4.81-1.17-1.01-1.65-.48-3.8,1.17-4.81l23.89-14.57c1.12-.68,2.53-.68,3.64,0l23.89,14.57c1.65,1.01,2.17,3.16,1.17,4.81-.66,1.08-1.81,1.68-2.99,1.68Z"/>
    <polyline class="cls-2" points="5.39 98.32 41.03 98.32 41.03 85.63"/>
    <polyline class="cls-2" points="41.03 98.32 96.45 98.32 96.45 85.63"/>
    <rect class="cls-4" x="67.68" y="59.64" width="8.96" height="12.26"/>
    <rect class="cls-4" x="13.42" y="56.64" width="27.61" height="8.96"/>
    <rect class="cls-4" x="13.42" y="39.47" width="27.61" height="8.96"/>
    <rect class="cls-4" x="13.42" y="22.42" width="27.61" height="8.96"/>
  </g>
</svg>