<svg xmlns="http://www.w3.org/2000/svg" id="flatten_icons" viewBox="0 0 112 112"><defs><style>.cls-3{fill:#4ca7f2}.cls-7{fill:#579e6b}.cls-9{fill:#004241}.cls-10{fill:#ffdb49}</style></defs><path d="M55.97 10.63h1.16c24.62 0 44.61 19.99 44.61 44.61v53.65H11.36V55.24c0-24.62 19.99-44.61 44.61-44.61" style="fill:#bddce5"/><path d="M72.79 36.43H3.76v17.96h78.03z" style="fill:#838a9e"/><path d="M81.79 56.39H3.76c-1.1 0-2-.9-2-2V36.43c0-1.1.9-2 2-2h69.02c.76 0 1.45.43 1.79 1.1l9 17.96c.31.62.28 1.36-.09 1.95s-1.01.95-1.7.95Zm-76.03-4h72.78l-7-13.96H5.76z" class="cls-9"/><path id="area" d="M0 0h112v112H0z" style="fill:none"/><path d="M3.76 53.44h77.02v54.72H3.76z" style="fill:#efe6eb"/><path d="M80.79 110.17H3.76c-1.1 0-2-.9-2-2V53.45c0-1.1.9-2 2-2h77.02c1.1 0 2 .9 2 2v54.72c0 1.1-.9 2-2 2Zm-75.03-4h73.02V55.45H5.76z" class="cls-9"/><path d="M49.13 63.57h10.23v24.57H49.13z" class="cls-3"/><path d="M59.36 90.13H49.13c-1.1 0-2-.9-2-2V63.56c0-1.1.9-2 2-2h10.23c1.1 0 2 .9 2 2v24.57c0 1.1-.9 2-2 2m-8.23-4h6.23V65.56h-6.23z" class="cls-9"/><path d="M59.57 63.57H69.8v24.57H59.57z" class="cls-3"/><path d="M69.8 90.13H59.57c-1.1 0-2-.9-2-2V63.56c0-1.1.9-2 2-2H69.8c1.1 0 2 .9 2 2v24.57c0 1.1-.9 2-2 2m-8.23-4h6.23V65.56h-6.23z" class="cls-9"/><path d="M13.36 63.57H33.2v44.6H13.36z" class="cls-3"/><path d="M33.2 110.17H13.36c-1.1 0-2-.9-2-2v-44.6c0-1.1.9-2 2-2H33.2c1.1 0 2 .9 2 2v44.6c0 1.1-.9 2-2 2m-17.84-4H31.2v-40.6H15.36z" class="cls-9"/><circle cx="49.13" cy="100.19" r="4.12" class="cls-10"/><path d="M49.13 106.31c-3.37 0-6.12-2.74-6.12-6.12a6.12 6.12 0 1 1 6.12 6.12m0-8.23a2.121 2.121 0 0 0 0 4.24 2.121 2.121 0 0 0 0-4.24M25.35 73.76h-4.14c-1.1 0-2-.9-2-2s.9-2 2-2h4.14c1.1 0 2 .9 2 2s-.9 2-2 2" class="cls-9"/><path d="M99.5 45.41S88.87 73.92 88.87 84.29s6.04 22.98 10.79 23.34 5.28-7.46 6.98-17.86c3.56-21.82-7.14-44.36-7.14-44.36" class="cls-7"/><path d="M100.03 109.65c-.17 0-.35 0-.52-.02-6.51-.49-12.64-14.69-12.64-25.33s10.32-38.4 10.76-39.58c.28-.75.99-1.26 1.79-1.3.79-.03 1.55.41 1.89 1.14.45.94 10.93 23.36 7.3 45.54-.21 1.28-.4 2.53-.58 3.72-1.36 8.81-2.44 15.83-7.99 15.83ZM99.62 51c-2.99 8.53-8.75 25.93-8.75 33.29 0 10.68 6.15 21.14 8.94 21.35 2.31.15 3.22-5.67 4.26-12.43.19-1.21.38-2.46.59-3.76 2.47-15.12-2.21-30.82-5.04-38.45M25.35 80.77h-4.14c-1.1 0-2-.9-2-2s.9-2 2-2h4.14c1.1 0 2 .9 2 2s-.9 2-2 2" class="cls-9"/><path d="M79.91 87.72h28.04v6.88H79.91z" class="cls-3"/><path d="M107.95 96.6H79.91c-1.1 0-2-.9-2-2v-6.88c0-1.1.9-2 2-2h28.04c1.1 0 2 .9 2 2v6.88c0 1.1-.9 2-2 2m-26.04-4h24.04v-2.88H81.91z" class="cls-9"/><path d="M79.91 101.24h28.04v6.88H79.91z" class="cls-3"/><path d="M107.95 110.12H79.91c-1.1 0-2-.9-2-2v-6.88c0-1.1.9-2 2-2h28.04c1.1 0 2 .9 2 2v6.88c0 1.1-.9 2-2 2m-26.04-4h24.04v-2.88H81.91z" class="cls-9"/><path d="M65.48 29.96h9v12.43h-9z" style="fill:#f2eae7"/><path d="M74.48 44.39h-9c-1.1 0-2-.9-2-2V29.96c0-1.1.9-2 2-2h9c1.1 0 2 .9 2 2v12.43c0 1.1-.9 2-2 2m-7-4h5v-8.43h-5z" class="cls-9"/><path d="M89.94 13.8c0-3.18 1.14-6.08 3.04-8.34-.39-.04-.79-.06-1.19-.06-7.19 0-13.02 5.82-13.02 13s5.83 13 13.02 13c4.01 0 7.59-1.81 9.98-4.66-6.63-.6-11.82-6.16-11.82-12.94Z" class="cls-10"/><path d="M91.78 33.39c-8.28 0-15.02-6.73-15.02-15s6.74-15 15.02-15c.46 0 .92.03 1.38.07.74.07 1.38.54 1.67 1.23.28.69.16 1.48-.32 2.05a11 11 0 0 0-2.57 7.06c0 5.72 4.3 10.43 10.01 10.95.74.07 1.38.54 1.67 1.23.28.69.16 1.48-.32 2.05a14.98 14.98 0 0 1-11.51 5.37Zm-2.54-25.7c-4.86 1.15-8.48 5.51-8.48 10.71 0 6.07 4.94 11 11.02 11 2.05 0 4.03-.57 5.73-1.61-5.67-2.17-9.58-7.62-9.58-13.99 0-2.12.45-4.2 1.3-6.11Z" class="cls-9"/><path d="M47.32 30c-.53 0-1.04-.21-1.41-.59l-4.39-4.39c-.78-.78-.78-2.05 0-2.83s2.05-.78 2.83 0l2.98 2.98 4.8-4.8c.78-.78 2.05-.78 2.83 0s.78 2.05 0 2.83l-6.22 6.22c-.38.38-.88.59-1.41.59Z" style="fill:#90bac4"/><path d="M69.6 96.74a6.096 6.096 0 0 0-8.32 2.23c-.1.18-.16.36-.25.55-3.94-1.8-8.67-.39-10.88 3.44-.06.1-.08.2-.13.3-2.68-.88-5.7.2-7.17 2.74-.4.69-.64 1.42-.75 2.16h34.06a6.04 6.04 0 0 0-2.98-4.39c-.24-.14-.49-.23-.73-.33.62-2.56-.46-5.32-2.85-6.7" class="cls-7"/><path d="M76.16 110.17H42.1c-.58 0-1.13-.25-1.51-.69s-.55-1.02-.47-1.6c.15-1.02.48-1.99 1-2.88 1.62-2.81 4.78-4.34 7.92-3.99 2.55-3.49 6.95-5.02 11.1-3.93 2.44-3.17 6.91-4.12 10.46-2.07a8 8 0 0 1 4.02 7.3 8.06 8.06 0 0 1 3.52 5.57c.08.58-.08 1.16-.46 1.6s-.93.69-1.51.69Zm-30.93-4h27.82a4 4 0 0 0-.86-.66c-.11-.06-.23-.1-.34-.15l-.16-.06a2.005 2.005 0 0 1-1.18-2.32c.43-1.78-.34-3.59-1.91-4.5a4.09 4.09 0 0 0-5.59 1.5c-.01.03-.03.07-.05.12-.04.09-.07.18-.11.26-.22.48-.62.86-1.12 1.04-.5.19-1.05.17-1.53-.06-3.04-1.39-6.58-.29-8.27 2.55-.05.11-.09.2-.14.3-.45.87-1.47 1.27-2.39.97-1.49-.49-3.1-.06-4.17 1.01" class="cls-9"/></svg>