<?xml version="1.0" encoding="UTF-8"?>
<svg id="flatten_icons" xmlns="http://www.w3.org/2000/svg" viewBox="0 0 112 112">
  <defs>
    <style>
      .cls-1 {
        fill: none;
      }

      .cls-2 {
        fill: #838a9e;
      }

      .cls-3 {
        fill: #4ca7f2;
      }

      .cls-4 {
        fill: #90bac4;
      }

      .cls-5 {
        fill: #bddce5;
      }

      .cls-6 {
        fill: #efe6eb;
      }

      .cls-7 {
        fill: #579e6b;
      }

      .cls-8 {
        fill: #f2eae7;
      }

      .cls-9 {
        fill: #004241;
      }

      .cls-10 {
        fill: #ffdb49;
      }
    </style>
  </defs>
  <path class="cls-5" d="M55.97,10.63h1.16c24.62,0,44.61,19.99,44.61,44.61v53.65H11.36v-53.65c0-24.62,19.99-44.61,44.61-44.61Z"/>
  <g>
    <polygon class="cls-2" points="72.79 36.43 3.76 36.43 3.76 54.39 81.79 54.39 72.79 36.43"/>
    <path class="cls-9" d="M81.79,56.39H3.76c-1.1,0-2-.9-2-2v-17.96c0-1.1.9-2,2-2h69.02c.76,0,1.45.43,1.79,1.1l9,17.96c.31.62.28,1.36-.09,1.95s-1.01.95-1.7.95ZM5.76,52.39h72.78l-7-13.96H5.76v13.96Z"/>
  </g>
  <g id="area">
    <rect class="cls-1" y="0" width="112" height="112"/>
  </g>
  <g>
    <rect class="cls-6" x="3.76" y="53.44" width="77.02" height="54.72"/>
    <path class="cls-9" d="M80.79,110.17H3.76c-1.1,0-2-.9-2-2v-54.72c0-1.1.9-2,2-2h77.02c1.1,0,2,.9,2,2v54.72c0,1.1-.9,2-2,2ZM5.76,106.17h73.02v-50.72H5.76v50.72Z"/>
  </g>
  <g>
    <rect class="cls-3" x="49.13" y="63.57" width="10.23" height="24.57"/>
    <path class="cls-9" d="M59.36,90.13h-10.23c-1.1,0-2-.9-2-2v-24.57c0-1.1.9-2,2-2h10.23c1.1,0,2,.9,2,2v24.57c0,1.1-.9,2-2,2ZM51.13,86.13h6.23v-20.57h-6.23v20.57Z"/>
  </g>
  <g>
    <rect class="cls-3" x="59.57" y="63.57" width="10.23" height="24.57"/>
    <path class="cls-9" d="M69.8,90.13h-10.23c-1.1,0-2-.9-2-2v-24.57c0-1.1.9-2,2-2h10.23c1.1,0,2,.9,2,2v24.57c0,1.1-.9,2-2,2ZM61.57,86.13h6.23v-20.57h-6.23v20.57Z"/>
  </g>
  <g>
    <rect class="cls-3" x="13.36" y="63.57" width="19.84" height="44.6"/>
    <path class="cls-9" d="M33.2,110.17H13.36c-1.1,0-2-.9-2-2v-44.6c0-1.1.9-2,2-2h19.84c1.1,0,2,.9,2,2v44.6c0,1.1-.9,2-2,2ZM15.36,106.17h15.84v-40.6h-15.84v40.6Z"/>
  </g>
  <g>
    <circle class="cls-10" cx="49.13" cy="100.19" r="4.12"/>
    <path class="cls-9" d="M49.13,106.31c-3.37,0-6.12-2.74-6.12-6.12s2.74-6.12,6.12-6.12,6.12,2.74,6.12,6.12-2.74,6.12-6.12,6.12ZM49.13,98.08c-1.17,0-2.12.95-2.12,2.12s.95,2.12,2.12,2.12,2.12-.95,2.12-2.12-.95-2.12-2.12-2.12Z"/>
  </g>
  <path class="cls-9" d="M25.35,73.76h-4.14c-1.1,0-2-.9-2-2s.9-2,2-2h4.14c1.1,0,2,.9,2,2s-.9,2-2,2Z"/>
  <g>
    <path class="cls-7" d="M99.5,45.41s-10.63,28.51-10.63,38.88,6.04,22.98,10.79,23.34,5.28-7.46,6.98-17.86c3.56-21.82-7.14-44.36-7.14-44.36Z"/>
    <path class="cls-9" d="M100.03,109.65c-.17,0-.35,0-.52-.02-6.51-.49-12.64-14.69-12.64-25.33s10.32-38.4,10.76-39.58c.28-.75.99-1.26,1.79-1.3.79-.03,1.55.41,1.89,1.14.45.94,10.93,23.36,7.3,45.54-.21,1.28-.4,2.53-.58,3.72-1.36,8.81-2.44,15.83-7.99,15.83ZM99.62,51c-2.99,8.53-8.75,25.93-8.75,33.29,0,10.68,6.15,21.14,8.94,21.35,2.31.15,3.22-5.67,4.26-12.43.19-1.21.38-2.46.59-3.76,2.47-15.12-2.21-30.82-5.04-38.45Z"/>
  </g>
  <path class="cls-9" d="M25.35,80.77h-4.14c-1.1,0-2-.9-2-2s.9-2,2-2h4.14c1.1,0,2,.9,2,2s-.9,2-2,2Z"/>
  <g>
    <rect class="cls-3" x="79.91" y="87.72" width="28.04" height="6.88"/>
    <path class="cls-9" d="M107.95,96.6h-28.04c-1.1,0-2-.9-2-2v-6.88c0-1.1.9-2,2-2h28.04c1.1,0,2,.9,2,2v6.88c0,1.1-.9,2-2,2ZM81.91,92.6h24.04v-2.88h-24.04v2.88Z"/>
  </g>
  <g>
    <rect class="cls-3" x="79.91" y="101.24" width="28.04" height="6.88"/>
    <path class="cls-9" d="M107.95,110.12h-28.04c-1.1,0-2-.9-2-2v-6.88c0-1.1.9-2,2-2h28.04c1.1,0,2,.9,2,2v6.88c0,1.1-.9,2-2,2ZM81.91,106.12h24.04v-2.88h-24.04v2.88Z"/>
  </g>
  <g>
    <rect class="cls-8" x="65.48" y="29.96" width="9" height="12.43"/>
    <path class="cls-9" d="M74.48,44.39h-9c-1.1,0-2-.9-2-2v-12.43c0-1.1.9-2,2-2h9c1.1,0,2,.9,2,2v12.43c0,1.1-.9,2-2,2ZM67.48,40.39h5v-8.43h-5v8.43Z"/>
  </g>
  <g>
    <path class="cls-10" d="M89.94,13.8h0c0-3.18,1.14-6.08,3.04-8.34-.39-.04-.79-.06-1.19-.06h0c-7.19,0-13.02,5.82-13.02,13h0c0,7.18,5.83,13,13.02,13h0c4.01,0,7.59-1.81,9.98-4.66-6.63-.6-11.82-6.16-11.82-12.94Z"/>
    <path class="cls-9" d="M91.78,33.39c-8.28,0-15.02-6.73-15.02-15s6.74-15,15.02-15c.46,0,.92.03,1.38.07.74.07,1.38.54,1.67,1.23.28.69.16,1.48-.32,2.05-1.66,1.98-2.57,4.48-2.57,7.06,0,5.72,4.3,10.43,10.01,10.95.74.07,1.38.54,1.67,1.23.28.69.16,1.48-.32,2.05-2.87,3.42-7.06,5.37-11.51,5.37ZM89.24,7.69c-4.86,1.15-8.48,5.51-8.48,10.71,0,6.07,4.94,11,11.02,11,2.05,0,4.03-.57,5.73-1.61-5.67-2.17-9.58-7.62-9.58-13.99,0-2.12.45-4.2,1.3-6.11Z"/>
  </g>
  <path class="cls-4" d="M47.32,30h0c-.53,0-1.04-.21-1.41-.59l-4.39-4.39c-.78-.78-.78-2.05,0-2.83.78-.78,2.05-.78,2.83,0l2.98,2.98,4.8-4.8c.78-.78,2.05-.78,2.83,0s.78,2.05,0,2.83l-6.22,6.22c-.38.38-.88.59-1.41.59Z"/>
  <g>
    <path class="cls-7" d="M69.6,96.74c-2.91-1.68-6.64-.68-8.32,2.23-.1.18-.16.36-.25.55-3.94-1.8-8.67-.39-10.88,3.44-.06.1-.08.2-.13.3-2.68-.88-5.7.2-7.17,2.74-.4.69-.64,1.42-.75,2.16h34.06c-.26-1.78-1.3-3.43-2.98-4.39-.24-.14-.49-.23-.73-.33.62-2.56-.46-5.32-2.85-6.7Z"/>
    <path class="cls-9" d="M76.16,110.17h-34.06c-.58,0-1.13-.25-1.51-.69s-.55-1.02-.47-1.6c.15-1.02.48-1.99,1-2.88,1.62-2.81,4.78-4.34,7.92-3.99,2.55-3.49,6.95-5.02,11.1-3.93,2.44-3.17,6.91-4.12,10.46-2.07,2.65,1.53,4.14,4.33,4.02,7.3,1.91,1.27,3.18,3.27,3.52,5.57.08.58-.08,1.16-.46,1.6-.38.44-.93.69-1.51.69ZM45.23,106.17h27.82c-.25-.25-.54-.48-.86-.66-.11-.06-.23-.1-.34-.15l-.16-.06c-.91-.38-1.41-1.36-1.18-2.32.43-1.78-.34-3.59-1.91-4.5h0c-1.95-1.13-4.46-.46-5.59,1.5-.01.03-.03.07-.05.12-.04.09-.07.18-.11.26-.22.48-.62.86-1.12,1.04-.5.19-1.05.17-1.53-.06-3.04-1.39-6.58-.29-8.27,2.55-.05.11-.09.2-.14.3-.45.87-1.47,1.27-2.39.97-1.49-.49-3.1-.06-4.17,1.01Z"/>
  </g>
</svg>