<?xml version="1.0" encoding="UTF-8"?>
<svg id="flatten_icons" data-name="flatten icons" xmlns="http://www.w3.org/2000/svg" viewBox="0 0 112 112">
  <defs>
    <style>
      .cls-1 {
        fill: none;
      }

      .cls-1, .cls-2, .cls-3, .cls-4, .cls-5, .cls-6 {
        stroke-width: 0px;
      }

      .cls-2 {
        fill: #88b559;
      }

      .cls-3 {
        fill: #c66a8d;
      }

      .cls-4 {
        fill: #aad681;
      }

      .cls-5 {
        fill: #b5597e;
      }

      .cls-6 {
        fill: #004241;
      }
    </style>
  </defs>
  <rect class="cls-1" width="112" height="112"/>
  <g>
    <g>
      <path class="cls-5" d="m100.68,99.53s-23.91-34.66-25.31-42.83c-1.4-8.17-13.07,1.39-13.07,1.39l30.52,46.22,7.86-4.78Z"/>
      <path class="cls-6" d="m92.82,106.31c-.65,0-1.29-.32-1.67-.9l-30.52-46.22c-.56-.86-.39-2,.4-2.65,1.35-1.1,8.31-6.53,12.92-4.81,1.27.47,2.88,1.66,3.39,4.62,1.08,6.35,18.4,32.49,24.98,42.03.31.45.42,1.01.31,1.55-.11.54-.45,1.01-.92,1.29l-7.86,4.78c-.32.2-.68.29-1.04.29Zm-27.82-47.75l28.43,43.04,4.41-2.68c-5.23-7.67-23.14-34.31-24.44-41.88-.22-1.32-.69-1.49-.84-1.55-1.47-.55-4.92,1.21-7.55,3.07Z"/>
    </g>
    <g>
      <path class="cls-2" d="m65.71,63.26l12.64-14.53c3.04-3.49,3.58-8.55,1.21-12.53-.03-.05-.07-.11-.1-.17-3.36-5.53-7.81,1.84-7.81,1.84,0,0,4.37-12.04-.25-16.4-4.61-4.37-9.13,0-9.13,0,0,0,4.33-11.72.12-15.99-4.21-4.27-11.21-5.78-20.72,2.33s-1.36,31.74-1.36,31.74l25.39,23.7Z"/>
      <path class="cls-6" d="m65.71,65.26c-.51,0-.99-.19-1.36-.54l-25.39-23.7c-.24-.22-.42-.5-.53-.81-.35-1.02-8.48-25.02,1.95-33.92,12.56-10.72,20.58-5.12,23.44-2.21,3.22,3.26,2.61,9.35,1.65,13.58,2.2-.43,4.81-.02,7.31,2.35,3.06,2.9,3.06,8.02,2.38,12.17.45-.14.96-.21,1.41-.22,1.26,0,3.07.53,4.59,3.02l.08.14c2.82,4.74,2.25,10.71-1.4,14.91l-12.64,14.53c-.36.41-.86.66-1.41.68-.03,0-.07,0-.1,0Zm-23.66-26.82l23.51,21.94,11.28-12.97c2.51-2.89,2.92-6.99,1-10.19l-.08-.14c-.21-.34-.72-1.11-1.18-1.11h0c-.84,0-2.37,1.55-3.22,2.94-.53.88-1.65,1.21-2.57.76-.93-.44-1.37-1.52-1.02-2.48,1.01-2.81,3.24-11.45.26-14.27-3.02-2.86-5.84-.5-6.37,0-.68.64-1.71.73-2.48.22-.77-.51-1.1-1.48-.78-2.35,1.5-4.08,2.98-11.45.57-13.9-4.53-4.59-10.75-3.74-18,2.44-6.77,5.78-3.09,22.52-.92,29.1Z"/>
    </g>
    <g>
      <path class="cls-3" d="m55.33,65.04s24.56,26.34,35.25,42.96c1.05,1.63,3.04,2.37,4.9,1.82l2.18-.65c1.08-.32,1.99-1.04,2.54-2.01l1.3-2.27c1.01-1.76.67-3.98-.82-5.35-8.01-7.4-32.5-30.47-38.38-41.44"/>
      <path class="cls-6" d="m94.26,112c-2.12,0-4.18-1.07-5.36-2.92-10.47-16.28-34.78-42.41-35.03-42.67-.75-.81-.71-2.07.1-2.83.81-.75,2.07-.71,2.83.1,1.01,1.08,24.8,26.66,35.47,43.24.57.89,1.64,1.28,2.65.99l2.18-.65c.58-.17,1.07-.56,1.37-1.09l1.3-2.27c.55-.96.36-2.15-.44-2.89-9.7-8.95-32.89-30.97-38.78-41.96-.52-.97-.15-2.19.82-2.71.97-.52,2.19-.15,2.71.82,5.76,10.75,30.52,34.03,37.97,40.91,2.18,2.02,2.68,5.23,1.2,7.82l-1.3,2.27c-.81,1.43-2.13,2.47-3.71,2.94l-2.18.65c-.59.17-1.19.26-1.79.26Z"/>
    </g>
    <g>
      <path class="cls-4" d="m60.38,63.69s-7.42,1.25-11.61,3.64c-.76.43-1.45.85-2.07,1.24-2.49,1.55-5.76.83-7.39-1.61l-.98-1.47c-.76-1.14-.68-2.64.19-3.69l2.13-2.56-13.6-.36c-2.4-.06-4.48-1.69-5.11-4l-.57-2.07c-.62-2.26.27-4.67,2.22-5.97l4.55-3.05-14.52-3.68c-2.19-.56-3.72-2.55-3.68-4.81l.14-8.16c.06-3.34,2.11-6.32,5.22-7.56l5.52-2.2,2.2-5.86c1.39-3.69,5.18-5.9,9.08-5.27l9.59,1.55c2.18.35,3.85,2.12,4.07,4.32l1.43,14.08.71-1.17c1.6-2.66,5.1-3.44,7.69-1.72l1.08.72c1.73,1.15,2.65,3.19,2.38,5.25l-1.94,14.6,3.57-2.94c1.42-1.17,3.54-.88,4.59.63l2.26,3.25c1.43,2.05,1.28,4.82-.37,6.7-2.79,3.17-6.6,8.2-6.75,12.15Z"/>
      <path class="cls-6" d="m43.82,71.4c-2.4,0-4.74-1.17-6.18-3.33l-.98-1.47c-1.1-1.65-1.13-3.8-.12-5.47l-9.56-.25c-3.3-.09-6.11-2.29-6.99-5.47l-.57-2.07c-.85-3.1.37-6.38,3.04-8.17l.82-.55-10.17-2.58c-3.11-.79-5.24-3.58-5.19-6.78l.14-8.16c.07-4.16,2.61-7.84,6.48-9.38l4.7-1.87,1.89-5.03c1.71-4.57,6.46-7.31,11.27-6.54l9.59,1.55c3.07.5,5.43,3,5.74,6.09l.97,9.54c.68-.41,1.42-.71,2.22-.88,2-.45,4.05-.07,5.76,1.07l1.08.72c2.35,1.56,3.63,4.38,3.25,7.18l-1.27,9.58c1.05-.72,2.35-1.04,3.62-.86,1.42.2,2.71.98,3.52,2.16l2.26,3.25c1.96,2.82,1.75,6.59-.52,9.16-3.88,4.41-6.16,8.38-6.25,10.9-.04.95-.73,1.74-1.67,1.9-.07.01-7.13,1.22-10.95,3.41-.73.42-1.4.82-2.01,1.2-1.23.77-2.59,1.13-3.93,1.13ZM30.76,8.15c-2.58,0-4.96,1.6-5.89,4.08l-2.2,5.86c-.2.53-.61.95-1.13,1.16l-5.52,2.2c-2.36.94-3.92,3.19-3.96,5.73l-.14,8.16c-.02,1.34.87,2.51,2.17,2.84l14.52,3.68c.77.19,1.35.82,1.48,1.6.13.78-.2,1.56-.86,2l-4.55,3.05c-1.24.83-1.8,2.35-1.41,3.78l.57,2.07c.41,1.48,1.71,2.5,3.24,2.54l13.6.36c.77.02,1.45.48,1.77,1.17s.21,1.51-.28,2.1l-2.13,2.56c-.3.37-.33.9-.07,1.3l.98,1.47c1.04,1.56,3.09,2.01,4.67,1.02.65-.4,1.36-.83,2.14-1.28,3.32-1.89,8.34-3.09,10.81-3.6.87-4.07,4.21-8.56,7.04-11.78,1.04-1.19,1.14-2.93.23-4.23l-2.26-3.25c-.25-.36-.6-.46-.79-.48-.19-.03-.55-.03-.89.25l-3.57,2.94c-.63.52-1.52.6-2.24.21-.72-.4-1.12-1.2-1.01-2.01l1.94-14.6c.17-1.3-.42-2.6-1.51-3.33l-1.08-.72c-.79-.53-1.74-.7-2.67-.5-.93.21-1.71.77-2.2,1.59l-.71,1.17c-.44.74-1.31,1.11-2.15.92-.84-.19-1.47-.89-1.55-1.75l-1.43-14.08c-.13-1.29-1.12-2.34-2.4-2.55l-9.59-1.55c-.33-.05-.67-.08-1-.08Zm29.61,55.53h0,0Z"/>
    </g>
    <path class="cls-3" d="m92.29,102.33c-.56,0-1.11-.23-1.5-.68l-27.85-31.74-7.99-9.58-20.29-24.48-12.26-1.82c-1.09-.16-1.85-1.18-1.69-2.27.16-1.09,1.18-1.85,2.27-1.69l13.01,1.93c.49.07.93.32,1.25.7l20.77,25.06,7.95,9.54,27.82,31.7c.73.83.65,2.09-.18,2.82-.38.33-.85.5-1.32.5Z"/>
    <path class="cls-3" d="m35.7,35.99c-1.01,0-1.88-.76-1.99-1.79l-1.37-13.03c-.11-1.1.68-2.08,1.78-2.2,1.1-.1,2.08.68,2.2,1.78l1.37,13.03c.11,1.1-.68,2.08-1.78,2.2-.07,0-.14.01-.21.01Z"/>
    <path class="cls-3" d="m37.6,49.22c-.88,0-1.69-.59-1.93-1.48-.29-1.07.35-2.16,1.41-2.45l6.44-1.73.53-5.31c.11-1.1,1.09-1.9,2.19-1.79,1.1.11,1.9,1.09,1.79,2.19l-.66,6.68c-.08.83-.67,1.52-1.47,1.73l-7.78,2.09c-.17.05-.35.07-.52.07Z"/>
  </g>
</svg>