<?xml version="1.0" encoding="UTF-8"?>
<svg id="flatten_icons" xmlns="http://www.w3.org/2000/svg" viewBox="0 0 112 112">
  <defs>
    <style>
      .cls-1 {
        fill: none;
      }

      .cls-2 {
        fill: #f4f4ea;
      }

      .cls-3 {
        fill: #004241;
      }
    </style>
  </defs>
  <g id="riz">
    <rect class="cls-1" width="112" height="112"/>
    <g>
      <g>
        <path class="cls-2" d="M37.83,31.88c3.86,3.78,12.59,12.34,9.06,15.95s-12.26-4.95-16.13-8.74-12.59-12.34-9.06-15.95,12.26,4.95,16.13,8.74Z"/>
        <path class="cls-3" d="M44.79,50.7c-1.93,0-4.26-.95-6.97-2.83-3.25-2.26-6.5-5.45-8.44-7.35-1.94-1.91-5.2-5.09-7.52-8.29-3.34-4.6-3.87-8.13-1.57-10.48,4.93-5.03,14.05,3.91,18.95,8.71h0c1.94,1.91,5.2,5.1,7.52,8.29,3.34,4.6,3.87,8.13,1.57,10.48-.96.98-2.15,1.48-3.54,1.48ZM24.01,24.21c-.36,0-.66.1-.88.33-.68.7.07,2.74,1.95,5.33,2.13,2.93,5.23,5.97,7.09,7.79,1.85,1.82,4.96,4.86,7.93,6.93,2.63,1.83,4.68,2.54,5.37,1.84.68-.7-.07-2.74-1.95-5.33-2.13-2.93-5.23-5.97-7.09-7.79h0c-2.98-2.92-9.61-9.09-12.42-9.09Z"/>
      </g>
      <g>
        <path class="cls-2" d="M96.52,67.47c1.65,4.5,5.37,14.68.63,16.41s-8.46-8.45-10.11-12.95-5.37-14.68-.63-16.41,8.46,8.45,10.11,12.95Z"/>
        <path class="cls-3" d="M96.01,86.1c-5.55,0-9.07-9.62-10.84-14.48-1.96-5.38-6.05-16.56.57-18.98,6.62-2.42,10.71,8.76,12.67,14.14h0c.83,2.28,2.23,6.1,2.8,9.61,1.04,6.35-1.26,8.6-3.37,9.37-.63.23-1.24.34-1.83.34ZM87.51,56.33c-.14,0-.27.02-.41.07-2.49.91.07,9.07,1.82,13.85,1.75,4.78,5.05,12.67,7.54,11.76,1.37-.5,1.01-3.64.79-4.97-.51-3.14-1.83-6.73-2.61-8.88h0c-1.65-4.53-4.7-11.83-7.13-11.83Z"/>
      </g>
      <g>
        <path class="cls-2" d="M64.03,48.36c2.29-4.9,7.46-15.98,12.03-13.84s-.6,13.21-2.89,18.11c-2.29,4.9-7.46,15.98-12.03,13.84s.6-13.21,2.89-18.11Z"/>
        <path class="cls-3" d="M62.38,68.76c-.68,0-1.38-.15-2.08-.48-6.38-2.98-.98-14.55,1.92-20.77,0,0,0,0,0,0,2.9-6.22,8.31-17.78,14.69-14.8,6.38,2.98.98,14.55-1.92,20.77-2.58,5.53-7.14,15.29-12.61,15.29ZM64.03,48.36l1.81.85h0c-1.99,4.26-6.34,14.29-3.85,15.45,2.5,1.16,7.39-8.62,9.38-12.87,1.99-4.26,6.35-14.29,3.86-15.46-2.48-1.16-7.39,8.62-9.38,12.87l-1.81-.85Z"/>
      </g>
      <g>
        <path class="cls-2" d="M42.37,81.52c3.86-2.14,12.57-6.98,15.02-2.56s-6.27,9.25-10.12,11.39c-3.86,2.14-12.57,6.98-15.02,2.56s6.27-9.25,10.12-11.39Z"/>
        <path class="cls-3" d="M35.75,96.7c-2.95,0-4.47-1.41-5.25-2.82-3.42-6.16,6.25-11.53,10.9-14.11l.97,1.75-.97-1.75c1.96-1.09,5.25-2.91,8.41-3.9,5.75-1.79,8.24.16,9.33,2.11,3.42,6.16-6.25,11.53-10.9,14.11-1.96,1.09-5.25,2.91-8.41,3.9-1.6.5-2.94.71-4.08.71ZM53.86,79.16c-.88,0-1.93.25-2.85.53-2.77.86-5.83,2.56-7.66,3.58h0c-4.94,2.74-10.57,6.47-9.34,8.67.66,1.19,2.89.78,4.64.24,2.77-.86,5.83-2.56,7.66-3.58,4.94-2.74,10.57-6.47,9.34-8.67-.31-.56-.98-.77-1.79-.77Z"/>
      </g>
      <g>
        <path class="cls-2" d="M19.04,65.38c1.19-4.25,3.88-13.84,8.74-12.48s2.17,10.96.98,15.21c-1.19,4.25-3.88,13.84-8.74,12.48s-2.17-10.96-.98-15.21Z"/>
        <path class="cls-3" d="M21.04,82.73c-.5,0-1.02-.07-1.56-.22-2.15-.6-4.63-2.58-4.21-8.59.23-3.31,1.24-6.92,1.85-9.09h0c.61-2.16,1.62-5.78,3.14-8.72,2.77-5.34,5.91-5.75,8.06-5.14,2.15.6,4.63,2.58,4.21,8.59-.23,3.31-1.24,6.92-1.85,9.09-1.32,4.71-3.95,14.09-9.64,14.09ZM26.91,54.78c-1.19,0-2.32,1.69-3.09,3.18-1.34,2.58-2.28,5.95-2.85,7.96h0c-.56,2.01-1.51,5.39-1.71,8.28-.13,1.83,0,4.09,1.3,4.46,2.43.7,4.75-5.66,6.28-11.1.56-2.01,1.51-5.38,1.71-8.28.13-1.83,0-4.09-1.3-4.46-.11-.03-.22-.05-.34-.05ZM19.04,65.38h0,0Z"/>
      </g>
      <g>
        <path class="cls-2" d="M69.78,15.05c4.35-.71,14.19-2.32,15,2.67.81,4.98-9.03,6.59-13.38,7.3-4.35.71-14.19,2.32-15-2.67-.81-4.98,9.03-6.59,13.38-7.3Z"/>
        <path class="cls-3" d="M63.51,27.83c-.34,0-.68,0-1.02-.02-6.01-.26-7.7-2.94-8.06-5.14-1.13-6.95,9.78-8.73,15.03-9.59h0c5.25-.86,16.16-2.64,17.3,4.32,1.13,6.95-9.78,8.74-15.03,9.59-1.99.33-5.19.85-8.22.85ZM69.78,15.05l.32,1.97h0c-5.57.91-12.13,2.52-11.72,5,.22,1.34,2.45,1.71,4.28,1.79,2.9.12,6.36-.44,8.42-.78,5.57-.91,12.13-2.52,11.73-5-.4-2.48-7.13-1.92-12.71-1.01l-.32-1.97Z"/>
      </g>
    </g>
  </g>
</svg>