<svg xmlns="http://www.w3.org/2000/svg" id="flatten_icons" data-name="flatten icons" viewBox="0 0 112 112"><defs><style>.cls-2,.cls-3{stroke-width:0}.cls-2{fill:#9ddccd}.cls-3{fill:#014241}</style></defs><g id="robe-viscose"><path d="M73.99 42.53c6.13-5.7 4.82-24.11 4.82-24.11S76.22 10.39 76.22 2h-6.4s.56 16.42-12.53 16.42S44.76 2 44.76 2h-6.4c0 8.39-2.59 16.42-2.59 16.42s-1.31 18.41 4.82 24.11c0 0-22.69 37.4-27.06 53.11 0 0 4.71.88 11.83 4.47S42.02 110 57.31 110c30.58 0 41.23-19.17 41.23-19.17-4.38-15.71-24.52-48.3-24.52-48.3Z" class="cls-2"/><path d="M57.28 112c-13.76 0-23.1-4.95-29.92-8.57-1.02-.54-2-1.06-2.93-1.53-6.74-3.39-11.26-4.28-11.3-4.29-.55-.1-1.03-.44-1.33-.91s-.38-1.05-.23-1.59c4-14.33 22.44-45.54 26.51-52.34-5.4-7-4.47-22.63-4.33-24.49.01-.16.04-.32.09-.47.02-.08 2.5-7.85 2.5-15.8.01-1.11.9-2.01 2-2.01h6.4c.54 0 1.06.22 1.44.61s.58.92.56 1.46c0 .07-.19 7.63 3.78 11.73 1.71 1.77 3.92 2.62 6.75 2.62s5.05-.86 6.76-2.63c3.98-4.13 3.78-11.64 3.77-11.72-.02-.54.18-1.07.56-1.46.39-.39.91-.61 1.45-.61h6.4c1.1 0 2 .9 2 2 0 7.95 2.47 15.73 2.5 15.8.05.15.08.31.09.47.13 1.86 1.07 17.48-4.33 24.48 3.82 6.27 20 33.32 23.96 47.54.14.51.08 1.05-.18 1.51-.46.82-11.59 20.19-42.98 20.19ZM16.03 94.22c2.13.61 5.7 1.84 10.2 4.11.96.48 1.95 1.01 3 1.57 6.81 3.61 15.28 8.11 28.05 8.11 26.05 0 36.86-14.11 39.06-17.46-4.71-15.57-23.86-46.64-24.05-46.95-.5-.81-.36-1.87.34-2.52 4.38-4.08 4.53-17.24 4.2-22.28-.41-1.33-2.26-7.68-2.57-14.79h-2.52c-.22 3.03-1.13 8.73-4.83 12.56-2.47 2.56-5.71 3.85-9.63 3.85s-7.17-1.3-9.63-3.85c-3.7-3.84-4.62-9.53-4.83-12.56H40.3c-.31 7.11-2.16 13.46-2.57 14.79-.32 5.04-.18 18.21 4.2 22.28.69.65.84 1.69.35 2.5-.22.36-20.81 34.4-26.24 50.65Z" class="cls-3"/><path d="m40.57 42.53 1.94.25c9.81 1.26 19.74 1.26 29.55 0l1.94-.25" class="cls-2"/><path d="M57.28 45.72c-5.02 0-10.04-.32-15.03-.96l-1.94-.25a2.004 2.004 0 0 1-1.73-2.24c.14-1.1 1.14-1.87 2.23-1.73l1.94.25c9.64 1.24 19.41 1.24 29.04 0l1.94-.25c1.1-.14 2.09.63 2.23 1.73s-.63 2.1-1.73 2.24l-1.94.25c-4.99.64-10.01.96-15.03.96Z" class="cls-3"/><path d="M63.25 56.65c2.04-3.68 0-11.91 0-11.91s7.96 3.33 7.96 16.61" class="cls-2"/><path d="M71.21 63.35c-1.1 0-2-.9-2-2 0-5.67-1.53-9.29-3.14-11.53.2 2.67.08 5.71-1.07 7.8-.54.97-1.75 1.31-2.72.78a2.01 2.01 0 0 1-.78-2.72c1.2-2.17.52-7.57-.19-10.46a2 2 0 0 1 2.71-2.33c.37.16 9.19 4.01 9.19 18.46a2 2 0 0 1-2 2" class="cls-3"/><path d="M32.67 76s-1.05 19.57 15.97 21.89" class="cls-2"/><path d="M48.65 99.89c-.09 0-.18 0-.27-.02-14.91-2.03-18.1-16.57-17.7-23.98.06-1.1 1.01-1.96 2.1-1.89a2 2 0 0 1 1.89 2.1c-.04.75-.71 17.77 14.25 19.8 1.09.15 1.86 1.16 1.71 2.25-.14 1-.99 1.73-1.98 1.73Z" class="cls-3"/><path d="M0 0h112v112H0z" style="fill:none;stroke-width:0"/></g></svg>