<?xml version="1.0" encoding="UTF-8"?>
<svg id="flatten_icons" data-name="flatten icons" xmlns="http://www.w3.org/2000/svg" viewBox="0 0 112 112">
  <defs>
    <style>
      .cls-1 {
        fill: none;
      }

      .cls-1, .cls-2, .cls-3, .cls-4, .cls-5, .cls-6 {
        stroke-width: 0px;
      }

      .cls-2 {
        fill: #b3e3f0;
      }

      .cls-3 {
        fill: #8e889b;
      }

      .cls-4 {
        fill: #eb706b;
      }

      .cls-5 {
        fill: #004241;
      }

      .cls-6 {
        fill: #014241;
      }
    </style>
  </defs>
  <g id="robe-coton">
    <g>
      <g>
        <path class="cls-4" d="m81.65,23.96c-.41-7.07-1.17-16.63-.53-19.17.24-.95-.35-1.9-1.3-2.12l-2.73-.63c-.76-.18-1.55.17-1.92.86-7.6,14.37-19.17,16.65-19.17,16.65,0,0-11.58-2.28-19.17-16.65-.36-.69-1.16-1.04-1.92-.86l-2.73.63c-.95.22-1.54,1.17-1.3,2.12.64,2.54-.07,12.1-.53,19.17-.61,9.31,4.82,16.73,4.82,16.73h41.65s5.43-6.32,4.82-16.73Z"/>
        <path class="cls-6" d="m76.83,42.69h-41.65c-.64,0-1.24-.3-1.61-.82-.24-.33-5.85-8.12-5.2-18.04l.12-1.79c.39-5.87.98-14.73.47-16.76-.25-.98-.09-2,.43-2.86.53-.86,1.36-1.47,2.35-1.69l2.73-.63c1.65-.38,3.35.39,4.14,1.88,6.34,11.98,15.39,14.99,17.41,15.53,2-.53,11.07-3.54,17.41-15.53.79-1.48,2.49-2.26,4.14-1.88l2.73.63c.99.23,1.83.83,2.35,1.7.53.86.68,1.88.43,2.86-.46,1.82.02,9.41.37,14.95.08,1.24.15,2.46.22,3.61h0c.65,11.09-5.06,17.87-5.3,18.15-.38.44-.93.7-1.52.7Zm-40.57-4h39.57c1.24-1.81,4.27-7.07,3.83-14.61h0c-.07-1.15-.14-2.36-.22-3.6-.5-8-.8-13.5-.31-15.91l-2.28-.53c-7.95,14.86-19.94,17.38-20.45,17.48-.25.05-.52.05-.77,0-.51-.1-12.5-2.62-20.45-17.48l-2.28.53c.53,2.63.16,9.05-.42,17.74l-.12,1.79c-.44,6.75,2.63,12.52,3.91,14.6Z"/>
      </g>
      <g>
        <path class="cls-3" d="m35.18,40.69l4.91-.93c10.52-1.98,21.31-1.98,31.83,0l4.91.93v7.83h-41.65v-7.83Z"/>
        <path class="cls-5" d="m76.83,50.51h-41.65c-1.1,0-2-.9-2-2v-7.83c0-.96.68-1.79,1.63-1.97l4.91-.93c10.8-2.04,21.76-2.04,32.57,0l4.91.93c.94.18,1.63,1,1.63,1.97v7.83c0,1.1-.9,2-2,2Zm-39.65-4h37.65v-4.17l-3.28-.62c-10.31-1.95-20.77-1.95-31.08,0l-3.29.62v4.17Z"/>
      </g>
      <g>
        <path class="cls-4" d="m76.34,48.51h-40.67s-18.91,22.1-23.97,48.05c-.24,1.21.37,2.42,1.46,2.99,2.75,1.42,8.46,3.86,15.95,4.27,2.75.15,5.45.84,7.97,1.96,3.92,1.74,10.54,4.02,18.44,4.2v.02c.17,0,.33,0,.49,0,.16,0,.33,0,.49,0v-.02c7.9-.18,14.52-2.47,18.44-4.2,2.52-1.12,5.21-1.81,7.97-1.96,7.49-.41,13.2-2.85,15.95-4.27,1.09-.57,1.7-1.78,1.46-2.99-5.07-25.96-23.97-48.05-23.97-48.05Z"/>
        <path class="cls-6" d="m56.5,112h-.51s-.47,0-.47,0c-.11,0-.21,0-.31-.02-8.01-.23-14.71-2.49-18.93-4.37-2.38-1.05-4.82-1.66-7.27-1.79-7.86-.43-13.87-3-16.76-4.49-1.88-.97-2.91-3.09-2.51-5.15,5.11-26.17,23.63-48.05,24.42-48.97.38-.44.94-.7,1.52-.7h40.67c.58,0,1.14.26,1.52.7.79.92,19.31,22.8,24.42,48.97.4,2.06-.63,4.17-2.51,5.15-2.88,1.49-8.89,4.06-16.76,4.49-2.45.13-4.89.74-7.27,1.79-4.23,1.87-10.93,4.14-18.94,4.37-.1.02-.21.02-.31.02Zm-.51-4.01h.29c.06,0,.12,0,.18,0,7.47-.17,13.73-2.29,17.67-4.03,2.82-1.25,5.74-1.97,8.67-2.13,7.12-.39,12.54-2.7,15.14-4.05.31-.16.48-.5.42-.83-4.41-22.6-19.78-42.51-22.96-46.44h-38.79c-3.18,3.93-18.54,23.84-22.96,46.44-.06.33.11.66.42.83,2.6,1.34,8.02,3.66,15.14,4.05,2.93.16,5.85.88,8.67,2.13,3.94,1.75,10.21,3.86,17.67,4.03.06,0,.12,0,.18.01h.24Z"/>
      </g>
      <g>
        <path class="cls-2" d="m48.65,48.51s-2.38,20.66-11.18,32.78"/>
        <path class="cls-5" d="m37.47,83.29c-.41,0-.82-.12-1.17-.38-.89-.65-1.09-1.9-.44-2.79,8.39-11.54,10.79-31.63,10.81-31.83.13-1.1,1.12-1.89,2.22-1.76,1.1.13,1.88,1.12,1.76,2.22-.1.86-2.54,21.33-11.55,33.73-.39.54-1,.82-1.62.82Z"/>
      </g>
      <g>
        <path class="cls-2" d="m62.96,48.51s1.74,15.09,7.74,27.05"/>
        <path class="cls-5" d="m70.7,77.56c-.73,0-1.44-.4-1.79-1.1-6.09-12.13-7.87-27.09-7.94-27.72-.13-1.1.66-2.09,1.76-2.22,1.1-.12,2.09.66,2.22,1.76.02.15,1.77,14.89,7.54,26.38.5.99.1,2.19-.89,2.68-.29.15-.59.21-.9.21Z"/>
      </g>
    </g>
    <rect class="cls-1" x="0" width="112" height="112"/>
  </g>
</svg>