<?xml version="1.0" encoding="UTF-8"?>
<svg id="flatten_icons" data-name="flatten icons" xmlns="http://www.w3.org/2000/svg" viewBox="0 0 112 112">
  <defs>
    <style>
      .cls-1 {
        fill: none;
      }

      .cls-1, .cls-2, .cls-3, .cls-4 {
        stroke-width: 0px;
      }

      .cls-2 {
        fill: #dbad53;
      }

      .cls-3 {
        fill: #fbd849;
      }

      .cls-4 {
        fill: #014241;
      }
    </style>
  </defs>
  <g id="robe-poly">
    <g>
      <g>
        <path class="cls-2" d="m70.29,2s-7.05,4.1-13.57,4.1-13.35-4.1-13.35-4.1c0,0-8.76,22.98,12.36,22.98s14.56-22.98,14.56-22.98Z"/>
        <path class="cls-4" d="m55.73,26.98c-6.38,0-10.96-1.96-13.63-5.84-5.19-7.54-.78-19.35-.59-19.85.21-.55.66-.98,1.21-1.18.56-.19,1.18-.13,1.68.17.06.04,6.46,3.82,12.32,3.82s12.5-3.79,12.56-3.83c.53-.31,1.18-.35,1.75-.12.57.23,1.01.71,1.18,1.31.14.49,3.36,12.1-2.29,19.58-2.98,3.94-7.75,5.95-14.19,5.95Zm-11.16-22.09c-.89,3.35-2.05,9.82.83,13.99,1.88,2.72,5.36,4.1,10.34,4.1s8.81-1.46,10.99-4.34c3.11-4.11,2.69-10.28,2.14-13.66-2.78,1.29-7.53,3.13-12.14,3.13s-9.46-1.91-12.15-3.21Z"/>
      </g>
      <g>
        <path class="cls-3" d="m96.28,96.89l-13.51-40.63c-.97-4.95-3.56-9.98-3.53-15.03.04-5.07,2.94-10.67,2.94-10.67,8.87-7.48,11.22-19.21,11.22-19.21,0,0-8.83-5.32-23.18-9.35,0,0-.37,17.06-13.46,17.17-13.09-.11-13.46-17.17-13.46-17.17-14.35,4.03-23.18,9.35-23.18,9.35,0,0,2.35,11.73,11.22,19.21,0,0,2.85,5.84,2.94,10.99.08,4.65-2.6,9.27-3.88,13.74-3.42,11.95-11.36,28.61-14.74,40.93-.45,1.65.39,3.37,1.97,4l19.68,7.92c14.24,2.56,28.83,2.47,43.04-.26l14.22-6.94c1.5-.73,2.23-2.47,1.7-4.06Z"/>
        <path class="cls-4" d="m58.15,112.01c-7.08,0-14.16-.63-21.19-1.9-.13-.02-.27-.06-.39-.11l-19.68-7.92c-2.52-1.01-3.87-3.76-3.15-6.39,1.77-6.46,4.79-14.11,7.7-21.51,2.66-6.76,5.42-13.75,7.04-19.44.44-1.54,1.04-3.09,1.61-4.59,1.15-3,2.24-5.82,2.19-8.57-.07-3.97-1.99-8.5-2.57-9.79-9.02-7.84-11.45-19.56-11.55-20.06-.17-.83.21-1.67.93-2.11.37-.22,9.23-5.5,23.67-9.56.59-.17,1.23-.05,1.73.32.5.37.8.95.81,1.56.02.61.5,15.12,11.47,15.21,10.99-.09,11.43-14.6,11.44-15.21.01-.62.31-1.2.81-1.56.5-.37,1.14-.49,1.73-.32,14.44,4.06,23.3,9.34,23.67,9.56.72.44,1.1,1.28.93,2.11-.1.5-2.53,12.23-11.57,20.07-.58,1.22-2.52,5.57-2.55,9.43-.02,2.82.9,5.71,1.87,8.76.59,1.87,1.21,3.8,1.6,5.74l13.47,40.51c.84,2.53-.33,5.32-2.73,6.48l-14.22,6.94c-.16.08-.33.13-.5.17-7.49,1.44-15.04,2.16-22.58,2.16Zm-20.28-5.8c13.9,2.48,27.98,2.39,41.85-.24l13.98-6.82c.6-.29.9-.99.68-1.63h0l-13.51-40.63c-.03-.08-.05-.16-.06-.25-.34-1.76-.91-3.54-1.51-5.42-1.02-3.22-2.08-6.55-2.06-10,.04-5.49,3.03-11.33,3.16-11.58.12-.23.29-.44.49-.61,6.5-5.48,9.29-13.49,10.2-16.69-2.69-1.45-9.48-4.83-19.07-7.74-.88,6.8-4.77,16.48-15.24,16.56-10.5-.09-14.4-9.76-15.27-16.56-9.58,2.91-16.37,6.29-19.06,7.74.91,3.2,3.72,11.23,10.19,16.69.21.18.39.4.51.65.12.25,3.05,6.3,3.14,11.84.06,3.52-1.22,6.85-2.46,10.07-.57,1.48-1.11,2.88-1.5,4.25-1.68,5.87-4.47,12.96-7.17,19.81-2.88,7.3-5.85,14.85-7.57,21.1-.18.67.15,1.36.79,1.62l19.49,7.84Zm42.49,1.68h0,0Z"/>
      </g>
      <path class="cls-4" d="m56.52,39.01c-1.1,0-2-.9-2-2v-17.05c0-1.1.9-2,2-2s2,.9,2,2v17.05c0,1.1-.9,2-2,2Z"/>
    </g>
    <rect class="cls-1" width="112" height="112"/>
  </g>
</svg>