<svg xmlns="http://www.w3.org/2000/svg" id="flatten_icons" viewBox="0 0 112 112"><defs><style>.cls-6{fill:#004241}</style></defs><g id="sardines"><path d="M48.92 80.98S65.8 70.3 99.46 71.39c0 0 3.28 5.57-13.38 12.88-16.67 7.3-24.19 6.92-31.9 5.41-5.64-1.1-12.57-1.28-15.9-1.29-.65 0-.94-.82-.43-1.24l11.08-6.17Z" style="fill:#99b3b5"/><path d="M62.29 92.58c-3.11 0-5.81-.42-8.5-.94-5.4-1.06-12.05-1.24-15.53-1.25-1.15 0-2.14-.71-2.53-1.79-.38-1.09-.05-2.26.84-2.99.09-.07.19-.14.29-.2l11.04-6.14c1.26-.78 18.33-10.94 51.62-9.87.69.02 1.31.39 1.66.98.17.29.98 1.86.21 4.24-1.28 3.96-6.17 7.82-14.52 11.48-11.44 5.01-18.75 6.49-24.59 6.49ZM43.12 86.5c3.5.15 7.72.49 11.44 1.21 7.06 1.38 14.24 1.94 30.71-5.28 9.57-4.2 11.82-7.49 12.31-9.09-31.36-.64-47.43 9.23-47.59 9.33-.03.02-.06.04-.09.05l-6.78 3.77Zm5.8-5.52" class="cls-6"/><path d="M31.55 99.67h-.04c-1.1-.02-1.98-.94-1.96-2.04.08-3.9 1.76-6.72 3.7-8.68-2.09-.51-4.65-1.46-7.72-3.12a2.01 2.01 0 0 1-.81-2.71c.53-.97 1.74-1.33 2.71-.81 7.03 3.8 10.49 3.23 11.27 3.01.23-.09.38-.15.42-.16.98-.34 2.06.13 2.48 1.08s.05 2.06-.86 2.56c-.09.05-.31.16-.67.28-1.4.59-6.42 3.08-6.53 8.63a2 2 0 0 1-2 1.96ZM88.3 78.52c-.96 0-1.8-.69-1.97-1.66-.19-1.09.55-2.12 1.64-2.31l.18-.03a2.003 2.003 0 1 1 .67 3.95l-.18.03c-.11.02-.23.03-.34.03Zm-1.14 7.01c-.08 0-.16 0-.25-.01-2.93-.36-5.18-1.61-6.69-3.72-2.93-4.09-1.76-9.9-1.71-10.15a2.01 2.01 0 0 1 2.37-1.55c1.08.23 1.77 1.28 1.55 2.36-.01.07-.85 4.37 1.05 7.02.84 1.17 2.13 1.85 3.92 2.07 1.1.14 1.88 1.13 1.74 2.23a2.005 2.005 0 0 1-1.98 1.76Z" class="cls-6"/><path d="M47.47 58.17s12.81-15.32 45.19-24.56c0 0 4.83 4.31-8.81 16.35S62.93 63.93 55.13 64.85c-5.7.67-12.36 2.62-15.54 3.63-.62.2-1.14-.5-.79-1.05z" style="fill:#a9c2c4"/><path d="M39.37 70.51c-.82 0-1.6-.38-2.13-1.07-.7-.92-.74-2.14-.11-3.11.06-.1.14-.19.22-.28l8.63-9.22c.96-1.13 14.11-16.01 46.14-25.16.66-.19 1.37-.03 1.88.43.25.22 1.5 1.47 1.5 3.97-.01 4.16-3.48 9.33-10.32 15.36C70.83 64.1 63.19 65.89 55.37 66.81c-5.47.64-11.85 2.5-15.17 3.55-.27.09-.55.13-.83.13Zm52.11-34.47c-30.04 8.98-42.35 23.27-42.47 23.42-.02.03-.05.06-.07.08l-5.3 5.66c3.38-.92 7.5-1.89 11.26-2.34 7.14-.84 14.15-2.51 27.63-14.41 7.84-6.92 8.97-10.75 8.94-12.42ZM47.47 58.17" class="cls-6"/><path d="M36.02 81.37c-.86 0-1.66-.56-1.92-1.43-1.12-3.74-.37-6.94.87-9.4-2.15.15-4.88.03-8.31-.62a1.998 1.998 0 1 1 .73-3.93c7.85 1.48 10.97-.12 11.66-.57.19-.16.32-.25.35-.28.83-.62 2-.5 2.69.27s.67 1.95-.04 2.7c-.07.07-.24.25-.55.47-1.15.99-5.17 4.89-3.58 10.21.32 1.06-.29 2.17-1.34 2.49-.19.06-.38.08-.57.08ZM83.61 43.9c-.72 0-1.42-.39-1.78-1.08-.51-.98-.12-2.19.86-2.7l.16-.08c.98-.51 2.19-.13 2.7.86.51.98.12 2.19-.86 2.7l-.16.08c-.29.15-.61.22-.92.22m-.2 7.1h-.08c-3.28-.12-5.77-1.23-7.41-3.28-2.63-3.3-1.81-7.76-1.78-7.95a2.006 2.006 0 0 1 2.34-1.59c1.08.21 1.79 1.25 1.59 2.33-.01.07-.49 2.9.99 4.74.87 1.08 2.36 1.67 4.42 1.75a1.997 1.997 0 0 1-.08 3.99Z" class="cls-6"/><path d="M29.61 46.7s8.92-17.87 38.28-34.35c0 0 6.5 3.68-4.79 17.94-7.61 9.62-15.78 16.86-24.5 21.13-5.16 2.53-11.42 5.41-14.28 7.12-.56.34-1.23-.22-1.01-.84l6.29-11.01Z" style="fill:#c7dbdd"/><path d="M23.96 60.66a2.715 2.715 0 0 1-2.53-3.62c.04-.11.09-.22.15-.32l6.26-10.97c.67-1.32 10.02-18.84 39.07-35.15a2.01 2.01 0 0 1 1.96 0c.22.12 2.14 1.29 2.71 4.23.83 4.23-1.5 9.84-6.92 16.69-8.02 10.13-16.49 17.42-25.19 21.69-1.43.7-2.94 1.43-4.45 2.15-3.78 1.82-7.69 3.7-9.68 4.89-.43.26-.91.39-1.39.39ZM67.45 14.9c-14.02 8.08-22.99 16.38-28.09 22-5.71 6.29-7.94 10.66-7.97 10.7-.02.03-.03.07-.05.1l-3.98 6.97c1.78-.89 3.83-1.88 5.94-2.89 1.49-.72 3-1.44 4.42-2.14 8.16-4 16.17-10.92 23.81-20.58 5.96-7.54 6.42-11.54 6.17-13.25-.05-.36-.15-.66-.25-.9ZM29.61 46.7" class="cls-6"/><path d="M20.18 71.49c-1.06 0-1.94-.83-2-1.9-.14-2.82.53-5.49 1.43-7.74-1.95.54-4.42.96-7.52 1.11-1.11.03-2.04-.8-2.09-1.9a2 2 0 0 1 1.9-2.09c7.85-.38 10.55-2.58 11.18-3.22.17-.22.28-.35.31-.39a2 2 0 0 1 2.68-.35c.85.59 1.1 1.74.59 2.64-.05.09-.19.32-.47.63-.97 1.29-4.25 6.05-4.01 11.13.05 1.1-.8 2.04-1.9 2.1h-.1ZM61 24.51c-.56 0-1.12-.23-1.51-.69-.72-.84-.63-2.1.21-2.82l.14-.12c.84-.72 2.1-.63 2.82.21s.63 2.1-.21 2.82l-.14.12c-.38.33-.84.49-1.31.49Zm-.8 7.41c-1.17 0-2.3-.24-3.39-.71-4.63-1.99-6.63-7.56-6.71-7.8a1.999 1.999 0 0 1 3.77-1.33c.03.07 1.54 4.18 4.53 5.46 1.33.57 2.78.48 4.43-.26 1.01-.45 2.19 0 2.64 1.01s0 2.19-1.01 2.64c-1.46.65-2.88.98-4.26.98Z" class="cls-6"/><path d="M60.93 57.59c-.54 0-1.08-.22-1.47-.64-.75-.81-.7-2.08.11-2.83.19-.17 4.63-4.25 8.54-5.43 1.06-.32 2.17.28 2.49 1.33.32 1.06-.28 2.17-1.33 2.49-2.52.76-5.9 3.54-6.99 4.54-.38.35-.87.53-1.35.53Zm1.14 26.61c-.79 0-1.54-.47-1.85-1.25-.42-1.02.07-2.19 1.1-2.61.24-.1 5.82-2.34 9.91-2.09 1.1.07 1.94 1.02 1.87 2.12a2 2 0 0 1-2.12 1.87c-2.64-.18-6.77 1.25-8.14 1.8q-.375.15-.75.15ZM43.03 41.66a1.993 1.993 0 0 1-1.59-3.21c.16-.2 3.84-4.97 7.5-6.8.99-.49 2.19-.09 2.68.89.49.99.1 2.19-.89 2.68-2.36 1.18-5.22 4.49-6.12 5.66-.39.51-.99.78-1.59.78Z" style="fill:#fff"/><path d="M0 0h112v112H0z" style="fill:none"/></g></svg>