<svg xmlns="http://www.w3.org/2000/svg" id="outline_icons" viewBox="0 0 112 112"><defs><style>.cls-3{fill:#c7dbdd}.cls-4{fill:#fff}.cls-7{fill:#004241}</style></defs><g id="saumon"><path id="pommedeterre" d="M0 0h112v112H0z" style="fill:none"/><path d="M75.02 60.22s7.15 7.93 10.98 5.81c0 0 2.98-12.94-3.3-16.88" class="cls-3"/><path d="M84.56 68.38c-4.6 0-9.86-5.54-11.02-6.82-.74-.82-.67-2.08.15-2.82s2.08-.68 2.82.14c2.47 2.73 5.96 5.32 7.78 5.51.65-3.83 1.06-11.22-2.64-13.55a1.996 1.996 0 0 1-.63-2.76c.59-.94 1.82-1.22 2.76-.63 7.39 4.64 4.31 18.44 4.18 19.02-.13.55-.48 1.03-.98 1.3-.76.42-1.57.6-2.41.6Z" class="cls-7"/><path d="M45.42 76.69 44 83s9.67-.4 12.06 1.23c0 0 5.75-10.85 2.8-14.68" class="cls-3"/><path d="M56.06 86.24c-.4 0-.79-.12-1.13-.35-1.1-.75-6.5-1.06-10.85-.89-.61.02-1.22-.24-1.62-.72s-.55-1.11-.42-1.72l1.42-6.31a1.996 1.996 0 0 1 2.39-1.51c1.08.24 1.75 1.31 1.51 2.39l-.86 3.82c2.56.02 6.08.12 8.56.77 1.86-4.03 3.44-9.33 2.2-10.95-.67-.88-.51-2.13.37-2.8s2.13-.51 2.8.37c3.55 4.62-1.56 14.84-2.62 16.84-.27.5-.73.87-1.29 1q-.24.06-.48.06Z" class="cls-7"/><path d="M41.52 51.14s.39-15.09-4.12-19.59c0 0 13.47-2.43 19.88 3.97" class="cls-3"/><path d="M41.52 53.14h-.05c-1.1-.03-1.98-.95-1.95-2.05.14-5.5-.7-15.29-3.53-18.12-.53-.53-.72-1.3-.5-2.01s.82-1.24 1.55-1.37c.59-.11 14.58-2.54 21.64 4.53.78.78.78 2.05 0 2.83s-2.05.78-2.83 0C52 33.1 44.89 32.92 40.82 33.19c2.88 6.25 2.72 16.64 2.69 18.01a2 2 0 0 1-2 1.95Z" class="cls-7"/><path d="M20.42 78.99S6.21 80.8 3.74 84.62s4.06.62 12.5 7.25 4.66 11.99 6.92 14.01 8.06-12.12 7-15.32c0 0 4.28-2.37 4.86-6.15s8.94-7.51 23.14-13.36 46.71-44.02 41.85-62.07c0 0-13.18-1.24-40.36 24.29-20.19 18.97-28.18 31.97-30.96 37.4a10 10 0 0 1-4.13 4.24c-2.17 1.17-4.7 2.86-4.15 4.07Z" style="fill:#acccd1"/><path d="M91.87 38.26c-.08 0-.17 0-.26-.02-14.09-1.8-16.43-9.31-16.52-9.63a2 2 0 0 1 1.36-2.48c1.05-.3 2.15.29 2.47 1.33.1.29 2.01 5.38 13.2 6.81a2.004 2.004 0 0 1-.25 3.99" class="cls-7"/><path d="M91.84 38.5a2.003 2.003 0 0 1-1.75-2.97c1.7-3.06 4.02-6 6.9-8.74 5.15-4.9 8.2-11.63 8.23-11.7.45-1.01 1.63-1.46 2.64-1.01s1.46 1.63 1.01 2.64c-.14.3-3.39 7.5-9.12 12.96-2.58 2.46-4.66 5.08-6.16 7.79-.37.66-1.05 1.03-1.75 1.03m-.92-17.62c-.26 0-.52-.05-.76-.15s-.46-.25-.65-.43c-.09-.1-.18-.2-.25-.31s-.14-.22-.19-.34-.08-.25-.11-.37c-.02-.13-.04-.26-.04-.4 0-.53.22-1.04.59-1.41.74-.75 2.08-.75 2.83 0 .37.37.58.88.58 1.41 0 .14-.01.27-.03.4a2.2 2.2 0 0 1-.3.71c-.07.11-.16.21-.25.31-.1.09-.2.17-.31.25-.11.07-.22.13-.34.18s-.25.09-.37.11c-.13.03-.26.04-.4.04m-65.2 48.23c-.86 0-1.65-.56-1.91-1.42-.32-1.06.28-2.17 1.33-2.5l6.12-1.86c1.06-.32 2.17.28 2.49 1.33s-.28 2.17-1.33 2.5l-6.12 1.86c-.19.06-.39.09-.58.09m4.45 23.45c-.12 0-.25-.01-.38-.04-13.17-2.53-11.36-13.77-11.34-13.88a1.996 1.996 0 0 1 2.31-1.63c1.08.19 1.81 1.22 1.63 2.3-.12.78-.93 7.54 8.15 9.28 1.08.21 1.8 1.26 1.59 2.34a1.99 1.99 0 0 1-1.96 1.62Zm39.28-40.53a2 2 0 0 1-1.67-.89c-.61-.92-.36-2.16.56-2.77 1.02-.68 2-1.28 2.91-1.85 3.71-2.31 5.5-3.51 5.74-5.61.52-4.54 3.56-7.81 3.69-7.95a2.002 2.002 0 0 1 2.92 2.74c-.05.05-2.27 2.5-2.63 5.66-.47 4.12-3.78 6.18-7.61 8.56-.88.55-1.82 1.13-2.81 1.79-.34.23-.72.33-1.1.33Z" class="cls-7"/><path d="M44.1 65.51c-.44 0-.89-.15-1.26-.44a2 2 0 0 1-.3-2.81c.49-.6 12.01-14.84 18.76-20.28a2 2 0 0 1 2.81.3 2 2 0 0 1-.3 2.81c-6.42 5.18-18.04 19.54-18.16 19.68-.4.49-.97.74-1.56.74Z" class="cls-4"/><path d="M71.26 55.6a3.024 3.024 0 0 0-3.57 2.97c-1.18 0-2.2.69-2.69 1.68-.61-.43-1.38-.65-2.2-.52s-1.58.66-2.04 1.37c-.64.99-.6 1.86-.33 2.63-1.2.16-2.17 1.02-2.49 2.16-.62-.39-1.39-.57-2.21-.4-1.2.25-2.17 1.25-2.37 2.46a3.024 3.024 0 0 0 2.98 3.52c1.38 0 2.54-.93 2.89-2.2.6.38 1.35.56 2.14.42s1.53-.68 1.97-1.38c.63-.98.59-1.85.32-2.6 1.01-.14 1.85-.76 2.29-1.64.49.35 1.09.56 1.74.56 1.67 0 3.02-1.35 3.02-3.02 1.85 0 3.31-1.66 2.97-3.57a3.03 3.03 0 0 0-2.42-2.42Z" style="fill:#f7c0ba"/><path d="M23.66 108.08c-.74 0-1.39-.31-1.84-.71-1.38-1.23-1.48-2.89-1.59-4.5-.16-2.5-.37-5.61-5.23-9.43-3.97-3.12-7.42-3.85-9.7-4.33-1.75-.37-3.26-.69-3.88-2.17-.61-1.46.3-2.87.64-3.4 2.45-3.81 12.41-5.69 16.63-6.33.98-1.91 3.68-3.38 4.92-4.05a7.94 7.94 0 0 0 3.3-3.39c3.11-6.09 11.33-19.12 31.37-37.95C85.81 5.96 99.63 6.94 100.21 7c.83.08 1.53.67 1.74 1.47 5.16 19.15-27.67 58.12-43.02 64.44-9.57 3.94-21.47 8.84-21.93 11.81-.52 3.36-3.19 5.75-4.75 6.87-.1 4.66-3.91 14.01-6.86 15.94-.61.4-1.2.56-1.74.56ZM5.95 85.16c.06.01.12.03.19.04 2.49.53 6.65 1.41 11.35 5.1 6.27 4.93 6.57 9.55 6.75 12.31 0 .1.01.22.02.34 1.91-2.98 4.48-10.06 4.01-11.77-.3-.92.08-1.91.93-2.37.95-.54 3.5-2.43 3.85-4.71.72-4.71 7.98-8.16 24.36-14.9 13.26-5.46 43.29-40.71 40.99-58.11-4 .57-16.4 3.94-37.37 23.64-20.33 19.1-28.14 32.14-30.55 36.85a11.94 11.94 0 0 1-4.96 5.09c-2.05 1.11-2.84 1.83-3.11 2.14.04.4-.05.8-.25 1.15-.31.55-.86.93-1.49 1.01-5.78.74-12.58 2.47-14.72 4.18Z" class="cls-7"/><path d="M104.92 104.95c6.25-4.64 1.98-20.46-.06-25.24-1.93-4.5-27.76-.93-34.9 6.04-.71.69-1.01 1.76-.84 2.82.55 3.43 1.98 11.89 3.52 16.89 1.97 6.39 25.59 4.46 32.28-.51" style="fill:#f98f80"/><path d="M97.62 109.4c-.99 0-1.85-.74-1.98-1.75-.03-.2-.62-5.04.3-10.19 1.32-7.34 5.06-11.69 10.81-12.58a2 2 0 0 1 .61 3.95c-9.78 1.51-7.78 18.15-7.76 18.32.14 1.1-.64 2.1-1.73 2.24-.09.01-.17.02-.25.02Zm-11.38.61h-.04a2 2 0 0 1-1.96-2.04c.02-1.02.65-25.09 14.97-31.86 1-.47 2.19-.05 2.66.95s.05 2.19-.95 2.66c-12.07 5.71-12.67 28.1-12.68 28.33a2 2 0 0 1-2 1.96m-12.53-.98c-.34 0-.68-.09-1-.27a1.986 1.986 0 0 1-.73-2.73c2.77-4.81 8.86-18.4 3.87-23.44-.78-.79-.77-2.05.01-2.83s2.05-.77 2.83.01c8.01 8.09-2.07 26.21-3.25 28.25-.37.64-1.04 1-1.73 1Z" class="cls-4"/><path d="M84.9 111.52c-3.44 0-6.64-.36-9.06-1.16-2.79-.91-4.51-2.36-5.11-4.31-1.58-5.13-3.03-13.71-3.58-17.16-.27-1.72.26-3.42 1.42-4.56 6.54-6.39 25.77-9.8 33.66-8.23 2.4.48 3.86 1.4 4.47 2.83 1.75 4.09 7.16 21.88-.59 27.63-4.09 3.04-13.3 4.96-21.22 4.96Zm12.7-31.81c-8.57 0-21.9 3.24-26.23 7.47-.23.22-.33.64-.27 1.07.54 3.37 1.95 11.73 3.46 16.62.19.61 1.11 1.22 2.53 1.69 6.66 2.18 21.84.35 26.64-3.22 4.81-3.57 1.49-17.65-.67-22.76-.29-.24-1.61-.8-4.86-.86h-.61Zm5.49.9" class="cls-7"/></g></svg>