<?xml version="1.0" encoding="UTF-8"?>
<svg id="outline_icons" xmlns="http://www.w3.org/2000/svg" viewBox="0 0 112 112">
  <defs>
    <style>
      .cls-1 {
        fill: none;
      }

      .cls-2 {
        fill: #f7c0ba;
      }

      .cls-3 {
        fill: #c7dbdd;
      }

      .cls-4 {
        fill: #fff;
      }

      .cls-5 {
        fill: #f98f80;
      }

      .cls-6 {
        fill: #acccd1;
      }

      .cls-7 {
        fill: #004241;
      }
    </style>
  </defs>
  <g id="saumon">
    <g id="pommedeterre">
      <rect class="cls-1" width="112" height="112"/>
    </g>
    <g>
      <g>
        <path class="cls-3" d="M75.02,60.22s7.15,7.93,10.98,5.81c0,0,2.98-12.94-3.3-16.88"/>
        <path class="cls-7" d="M84.56,68.38c-4.6,0-9.86-5.54-11.02-6.82-.74-.82-.67-2.08.15-2.82.82-.74,2.08-.68,2.82.14,2.47,2.73,5.96,5.32,7.78,5.51.65-3.83,1.06-11.22-2.64-13.55-.94-.59-1.22-1.82-.63-2.76.59-.94,1.82-1.22,2.76-.63,7.39,4.64,4.31,18.44,4.18,19.02-.13.55-.48,1.03-.98,1.3-.76.42-1.57.6-2.41.6Z"/>
      </g>
      <g>
        <path class="cls-3" d="M45.42,76.69l-1.42,6.31s9.67-.4,12.06,1.23c0,0,5.75-10.85,2.8-14.68"/>
        <path class="cls-7" d="M56.06,86.24c-.4,0-.79-.12-1.13-.35-1.1-.75-6.5-1.06-10.85-.89-.61.02-1.22-.24-1.62-.72-.4-.48-.55-1.11-.42-1.72l1.42-6.31c.24-1.08,1.31-1.75,2.39-1.51,1.08.24,1.75,1.31,1.51,2.39l-.86,3.82c2.56.02,6.08.12,8.56.77,1.86-4.03,3.44-9.33,2.2-10.95-.67-.88-.51-2.13.37-2.8.88-.67,2.13-.51,2.8.37,3.55,4.62-1.56,14.84-2.62,16.84-.27.5-.73.87-1.29,1-.16.04-.32.06-.48.06Z"/>
      </g>
      <g>
        <path class="cls-3" d="M41.52,51.14s.39-15.09-4.12-19.59c0,0,13.47-2.43,19.88,3.97"/>
        <path class="cls-7" d="M41.52,53.14s-.03,0-.05,0c-1.1-.03-1.98-.95-1.95-2.05.14-5.5-.7-15.29-3.53-18.12-.53-.53-.72-1.3-.5-2.01.22-.71.82-1.24,1.55-1.37.59-.11,14.58-2.54,21.64,4.53.78.78.78,2.05,0,2.83-.78.78-2.05.78-2.83,0-3.85-3.85-10.96-4.03-15.03-3.76,2.88,6.25,2.72,16.64,2.69,18.01-.03,1.09-.92,1.95-2,1.95Z"/>
      </g>
      <path class="cls-6" d="M20.42,78.99s-14.21,1.81-16.68,5.63,4.06.62,12.5,7.25c8.44,6.63,4.66,11.99,6.92,14.01s8.06-12.12,7-15.32c0,0,4.28-2.37,4.86-6.15s8.94-7.51,23.14-13.36c14.2-5.85,46.71-44.02,41.85-62.07,0,0-13.18-1.24-40.36,24.29-20.19,18.97-28.18,31.97-30.96,37.4-.92,1.8-2.36,3.28-4.13,4.24-2.17,1.17-4.7,2.86-4.15,4.07Z"/>
      <path class="cls-7" d="M91.87,38.26c-.08,0-.17,0-.26-.02-14.09-1.8-16.43-9.31-16.52-9.63-.31-1.06.3-2.17,1.36-2.48,1.05-.3,2.15.29,2.47,1.33.1.29,2.01,5.38,13.2,6.81,1.1.14,1.87,1.14,1.73,2.24-.13,1.01-.99,1.75-1.98,1.75Z"/>
      <path class="cls-7" d="M91.84,38.5c-.33,0-.66-.08-.97-.25-.97-.54-1.31-1.75-.78-2.72,1.7-3.06,4.02-6,6.9-8.74,5.15-4.9,8.2-11.63,8.23-11.7.45-1.01,1.63-1.46,2.64-1.01,1.01.45,1.46,1.63,1.01,2.64-.14.3-3.39,7.5-9.12,12.96-2.58,2.46-4.66,5.08-6.16,7.79-.37.66-1.05,1.03-1.75,1.03Z"/>
      <path class="cls-7" d="M90.92,20.88c-.26,0-.52-.05-.76-.15-.24-.1-.46-.25-.65-.43-.09-.1-.18-.2-.25-.31-.07-.11-.14-.22-.19-.34-.05-.12-.08-.25-.11-.37-.02-.13-.04-.26-.04-.4,0-.53.22-1.04.59-1.41.74-.75,2.08-.75,2.83,0,.37.37.58.88.58,1.41,0,.14-.01.27-.03.4-.03.12-.07.25-.12.37-.05.12-.11.23-.18.34-.07.11-.16.21-.25.31-.1.09-.2.17-.31.25-.11.07-.22.13-.34.18-.12.05-.25.09-.37.11-.13.03-.26.04-.4.04Z"/>
      <path class="cls-7" d="M25.72,69.11c-.86,0-1.65-.56-1.91-1.42-.32-1.06.28-2.17,1.33-2.5l6.12-1.86c1.06-.32,2.17.28,2.49,1.33s-.28,2.17-1.33,2.5l-6.12,1.86c-.19.06-.39.09-.58.09Z"/>
      <path class="cls-7" d="M30.17,92.56c-.12,0-.25-.01-.38-.04-13.17-2.53-11.36-13.77-11.34-13.88.19-1.09,1.22-1.82,2.31-1.63,1.08.19,1.81,1.22,1.63,2.3-.12.78-.93,7.54,8.15,9.28,1.08.21,1.8,1.26,1.59,2.34-.18.96-1.02,1.62-1.96,1.62Z"/>
      <path class="cls-7" d="M69.45,52.03c-.65,0-1.28-.31-1.67-.89-.61-.92-.36-2.16.56-2.77,1.02-.68,2-1.28,2.91-1.85,3.71-2.31,5.5-3.51,5.74-5.61.52-4.54,3.56-7.81,3.69-7.95.76-.8,2.02-.84,2.83-.08.8.76.84,2.02.09,2.82-.05.05-2.27,2.5-2.63,5.66-.47,4.12-3.78,6.18-7.61,8.56-.88.55-1.82,1.13-2.81,1.79-.34.23-.72.33-1.1.33Z"/>
      <path class="cls-4" d="M44.1,65.51c-.44,0-.89-.15-1.26-.44-.86-.69-.99-1.95-.3-2.81.49-.6,12.01-14.84,18.76-20.28.86-.69,2.12-.56,2.81.3.69.86.56,2.12-.3,2.81-6.42,5.18-18.04,19.54-18.16,19.68-.4.49-.97.74-1.56.74Z"/>
      <path class="cls-2" d="M71.26,55.6c-1.91-.33-3.57,1.12-3.57,2.97-1.18,0-2.2.69-2.69,1.68-.61-.43-1.38-.65-2.2-.52s-1.58.66-2.04,1.37c-.64.99-.6,1.86-.33,2.63-1.2.16-2.17,1.02-2.49,2.16-.62-.39-1.39-.57-2.21-.4-1.2.25-2.17,1.25-2.37,2.46-.3,1.89,1.15,3.52,2.98,3.52,1.38,0,2.54-.93,2.89-2.2.6.38,1.35.56,2.14.42s1.53-.68,1.97-1.38c.63-.98.59-1.85.32-2.6,1.01-.14,1.85-.76,2.29-1.64.49.35,1.09.56,1.74.56,1.67,0,3.02-1.35,3.02-3.02,1.85,0,3.31-1.66,2.97-3.57-.21-1.21-1.21-2.21-2.42-2.42Z"/>
      <path class="cls-7" d="M23.66,108.08c-.74,0-1.39-.31-1.84-.71-1.38-1.23-1.48-2.89-1.59-4.5-.16-2.5-.37-5.61-5.23-9.43-3.97-3.12-7.42-3.85-9.7-4.33-1.75-.37-3.26-.69-3.88-2.17-.61-1.46.3-2.87.64-3.4,2.45-3.81,12.41-5.69,16.63-6.33.98-1.91,3.68-3.38,4.92-4.05,1.42-.77,2.56-1.94,3.3-3.39,3.11-6.09,11.33-19.12,31.37-37.95C85.81,5.96,99.63,6.94,100.21,7c.83.08,1.53.67,1.74,1.47,5.16,19.15-27.67,58.12-43.02,64.44-9.57,3.94-21.47,8.84-21.93,11.81-.52,3.36-3.19,5.75-4.75,6.87-.1,4.66-3.91,14.01-6.86,15.94-.61.4-1.2.56-1.74.56ZM5.95,85.16c.06.01.12.03.19.04,2.49.53,6.65,1.41,11.35,5.1,6.27,4.93,6.57,9.55,6.75,12.31,0,.1.01.22.02.34,1.91-2.98,4.48-10.06,4.01-11.77-.3-.92.08-1.91.93-2.37.95-.54,3.5-2.43,3.85-4.71.72-4.71,7.98-8.16,24.36-14.9,13.26-5.46,43.29-40.71,40.99-58.11-4,.57-16.4,3.94-37.37,23.64-20.33,19.1-28.14,32.14-30.55,36.85-1.11,2.17-2.82,3.93-4.96,5.09-2.05,1.11-2.84,1.83-3.11,2.14.04.4-.05.8-.25,1.15-.31.55-.86.93-1.49,1.01-5.78.74-12.58,2.47-14.72,4.18Z"/>
    </g>
    <g>
      <path class="cls-5" d="M104.92,104.95c6.25-4.64,1.98-20.46-.06-25.24-1.93-4.5-27.76-.93-34.9,6.04-.71.69-1.01,1.76-.84,2.82.55,3.43,1.98,11.89,3.52,16.89,1.97,6.39,25.59,4.46,32.28-.51Z"/>
      <path class="cls-4" d="M97.62,109.4c-.99,0-1.85-.74-1.98-1.75-.03-.2-.62-5.04.3-10.19,1.32-7.34,5.06-11.69,10.81-12.58,1.09-.17,2.11.58,2.28,1.67.17,1.09-.58,2.11-1.67,2.28-9.78,1.51-7.78,18.15-7.76,18.32.14,1.1-.64,2.1-1.73,2.24-.09.01-.17.02-.25.02Z"/>
      <path class="cls-4" d="M86.24,110.01h-.04c-1.1-.02-1.98-.93-1.96-2.04.02-1.02.65-25.09,14.97-31.86,1-.47,2.19-.05,2.66.95.47,1,.05,2.19-.95,2.66-12.07,5.71-12.67,28.1-12.68,28.33-.02,1.09-.91,1.96-2,1.96Z"/>
      <path class="cls-4" d="M73.71,109.03c-.34,0-.68-.09-1-.27-.96-.55-1.29-1.77-.73-2.73,2.77-4.81,8.86-18.4,3.87-23.44-.78-.79-.77-2.05.01-2.83.78-.78,2.05-.77,2.83.01,8.01,8.09-2.07,26.21-3.25,28.25-.37.64-1.04,1-1.73,1Z"/>
      <path class="cls-7" d="M84.9,111.52c-3.44,0-6.64-.36-9.06-1.16-2.79-.91-4.51-2.36-5.11-4.31-1.58-5.13-3.03-13.71-3.58-17.16-.27-1.72.26-3.42,1.42-4.56,6.54-6.39,25.77-9.8,33.66-8.23,2.4.48,3.86,1.4,4.47,2.83,1.75,4.09,7.16,21.88-.59,27.63h0c-4.09,3.04-13.3,4.96-21.22,4.96ZM97.6,79.71c-8.57,0-21.9,3.24-26.23,7.47-.23.22-.33.64-.27,1.07.54,3.37,1.95,11.73,3.46,16.62.19.61,1.11,1.22,2.53,1.69,6.66,2.18,21.84.35,26.64-3.22,4.81-3.57,1.49-17.65-.67-22.76-.29-.24-1.61-.8-4.86-.86-.2,0-.4,0-.61,0ZM104.92,104.95h0,0ZM103.09,80.61h0Z"/>
    </g>
  </g>
</svg>