<?xml version="1.0" encoding="UTF-8"?>
<svg id="flatten_icons" data-name="flatten icons" xmlns="http://www.w3.org/2000/svg" viewBox="0 0 112 112">
  <defs>
    <style>
      .cls-1 {
        fill: none;
      }

      .cls-1, .cls-2, .cls-3, .cls-4, .cls-5 {
        stroke-width: 0px;
      }

      .cls-2 {
        fill: #9fdecf;
      }

      .cls-3 {
        fill: #fdda49;
      }

      .cls-4 {
        fill: #ed706b;
      }

      .cls-5 {
        fill: #004241;
      }
    </style>
  </defs>
  <g id="scooter">
    <g id="area">
      <rect class="cls-1" width="112" height="112"/>
    </g>
    <g id="vespa">
      <g>
        <path class="cls-2" d="m31.35,73.12c-9.08,0-16.45,7.36-16.45,16.45s7.36,16.45,16.45,16.45,16.45-7.36,16.45-16.45-7.36-16.45-16.45-16.45Zm0,23.59c-3.94,0-7.14-3.2-7.14-7.14s3.2-7.14,7.14-7.14,7.14,3.2,7.14,7.14-3.2,7.14-7.14,7.14Z"/>
        <path class="cls-5" d="m31.35,108.02c-10.17,0-18.45-8.28-18.45-18.45s8.28-18.45,18.45-18.45,18.45,8.28,18.45,18.45-8.28,18.45-18.45,18.45Zm0-32.9c-7.97,0-14.45,6.48-14.45,14.45s6.48,14.45,14.45,14.45,14.45-6.48,14.45-14.45-6.48-14.45-14.45-14.45Zm0,23.59c-5.04,0-9.14-4.1-9.14-9.14s4.1-9.14,9.14-9.14,9.14,4.1,9.14,9.14-4.1,9.14-9.14,9.14Zm0-14.28c-2.83,0-5.14,2.31-5.14,5.14s2.31,5.14,5.14,5.14,5.14-2.31,5.14-5.14-2.31-5.14-5.14-5.14Z"/>
      </g>
      <g>
        <path class="cls-2" d="m88.52,73.12c-9.08,0-16.45,7.36-16.45,16.45s7.36,16.45,16.45,16.45,16.45-7.36,16.45-16.45-7.36-16.45-16.45-16.45Zm0,23.59c-3.94,0-7.14-3.2-7.14-7.14s3.2-7.14,7.14-7.14,7.14,3.2,7.14,7.14-3.2,7.14-7.14,7.14Z"/>
        <path class="cls-5" d="m88.52,108.02c-10.17,0-18.45-8.28-18.45-18.45s8.28-18.45,18.45-18.45,18.45,8.28,18.45,18.45-8.28,18.45-18.45,18.45Zm0-32.9c-7.97,0-14.45,6.48-14.45,14.45s6.48,14.45,14.45,14.45,14.45-6.48,14.45-14.45-6.48-14.45-14.45-14.45Zm0,23.59c-5.04,0-9.14-4.1-9.14-9.14s4.1-9.14,9.14-9.14,9.14,4.1,9.14,9.14-4.1,9.14-9.14,9.14Zm0-14.28c-2.83,0-5.14,2.31-5.14,5.14s2.31,5.14,5.14,5.14,5.14-2.31,5.14-5.14-2.31-5.14-5.14-5.14Z"/>
      </g>
      <g>
        <path class="cls-2" d="m33.11,47.42h-4.92c-2.16,0-3.92-1.75-3.92-3.92v-2.86c0-2.16,1.75-3.92,3.92-3.92h20.58c2.16,0,3.92,1.75,3.92,3.92v2.86c0,2.16-1.75,3.92-3.92,3.92h-15.66Z"/>
        <path class="cls-5" d="m48.77,49.42h-20.58c-3.26,0-5.92-2.65-5.92-5.92v-2.86c0-3.26,2.65-5.92,5.92-5.92h20.58c3.26,0,5.92,2.65,5.92,5.92v2.86c0,3.26-2.65,5.92-5.92,5.92Zm-20.58-10.69c-1.06,0-1.92.86-1.92,1.92v2.86c0,1.06.86,1.92,1.92,1.92h20.58c1.06,0,1.92-.86,1.92-1.92v-2.86c0-1.06-.86-1.92-1.92-1.92h-20.58Z"/>
      </g>
      <g>
        <path class="cls-4" d="m13.18,88.86h90.64c2.4,0,4.13-2.27,3.51-4.59-.97-3.63-2.79-8.63-5.95-11.98-1.49-1.58-2.39-3.63-2.58-5.79-.63-7.1-4.49-22.59-9.07-34.42h-9.21s5.48,30.63-6.31,38.27-18.1,1.87-18.1-7.64v-11.16c0-4.21-3.46-7.6-7.67-7.51-13.17.3-39.14,4.78-43.8,34.87-.81,5.23,3.25,9.94,8.54,9.94Z"/>
        <path class="cls-5" d="m103.82,90.86H13.18c-3.11,0-6.06-1.36-8.08-3.72-2.02-2.36-2.91-5.47-2.43-8.53,4.98-32.18,33.65-36.29,45.74-36.57,2.61-.05,5.01.9,6.85,2.7,1.85,1.8,2.86,4.22,2.86,6.8v11.16c0,4.05,1.33,7.1,3.66,8.37,2.67,1.46,6.71.6,11.35-2.41,8.74-5.67,6.88-28.08,5.42-36.24-.1-.58.06-1.18.44-1.64.38-.45.94-.72,1.53-.72h9.21c.83,0,1.57.51,1.87,1.28,4.73,12.2,8.57,27.93,9.2,34.96.15,1.73.88,3.36,2.04,4.6,3.45,3.66,5.4,9,6.43,12.83.46,1.71.11,3.5-.97,4.9-1.08,1.4-2.71,2.21-4.47,2.21Zm-55.2-44.82s-.08,0-.13,0c-32.08.73-40,21.1-41.87,33.18-.29,1.91.26,3.84,1.52,5.31,1.26,1.48,3.1,2.32,5.05,2.32h90.64c.51,0,.99-.23,1.3-.64.31-.41.42-.93.28-1.43-.91-3.39-2.6-8.07-5.48-11.13-1.78-1.89-2.88-4.37-3.11-6.99-.58-6.52-4.08-20.92-8.46-32.6h-5.5c1.05,7.57,3.31,30.91-7.55,37.95-7.6,4.93-12.59,4.11-15.44,2.57-3.66-1.99-5.75-6.32-5.75-11.88v-11.16c0-1.5-.59-2.9-1.66-3.94-1.04-1.01-2.39-1.56-3.83-1.56Z"/>
      </g>
      <path class="cls-5" d="m69.39,90.91c-1.03,0-1.91-.79-1.99-1.84-.97-12.02,18.84-16.57,19.69-16.76,1.08-.24,2.15.44,2.39,1.52.24,1.08-.44,2.15-1.52,2.39-4.8,1.07-17.15,5.42-16.57,12.53.09,1.1-.73,2.07-1.83,2.15-.05,0-.11,0-.16,0Z"/>
      <path class="cls-5" d="m4.89,84.67c-.46,0-.92-.16-1.29-.48-.84-.71-.95-1.97-.23-2.82.17-.2,17.32-20.03,41.89-12.95,1.06.31,1.67,1.41,1.37,2.48-.31,1.06-1.42,1.67-2.48,1.37-22.05-6.35-37.1,10.96-37.73,11.7-.4.46-.96.7-1.53.7Z"/>
      <g>
        <path class="cls-4" d="m89.73,32.08h-19.08c-1.93,0-3.5-1.57-3.5-3.5h0c0-1.93,1.57-3.5,3.5-3.5h19.08v7Z"/>
        <path class="cls-5" d="m89.73,34.08h-19.08c-3.03,0-5.5-2.47-5.5-5.5s2.47-5.5,5.5-5.5h19.08c1.1,0,2,.9,2,2v7c0,1.1-.9,2-2,2Zm-19.08-7c-.83,0-1.5.67-1.5,1.5s.67,1.5,1.5,1.5h17.08v-3h-17.08Z"/>
      </g>
      <g>
        <path class="cls-3" d="m100.88,17.98h3.73v22.01h-3.73c-6.05,0-10.96-4.91-10.96-10.96v-.08c0-6.05,4.91-10.96,10.96-10.96Z"/>
        <path class="cls-5" d="m104.61,41.99h-3.73c-7.15,0-12.96-5.81-12.96-12.96s5.82-13.05,12.96-13.05h3.73c1.1,0,2,.9,2,2v22.01c0,1.1-.9,2-2,2Zm-3.73-22.01c-4.94,0-8.96,4.02-8.96,8.96s4.02,9.05,8.96,9.05h1.73v-18.01h-1.73Z"/>
      </g>
    </g>
  </g>
</svg>