<svg xmlns="http://www.w3.org/2000/svg" id="flatten_icons" data-name="flatten icons" viewBox="0 0 112 112"><defs><style>.cls-2,.cls-4,.cls-5{stroke-width:0}.cls-2{fill:#9fdecf}.cls-4{fill:#ed706b}.cls-5{fill:#004241}</style></defs><g id="scooter"><path id="area" d="M0 0h112v112H0z" style="fill:none;stroke-width:0"/><g id="vespa"><path d="M31.35 73.12c-9.08 0-16.45 7.36-16.45 16.45s7.36 16.45 16.45 16.45S47.8 98.66 47.8 89.57s-7.36-16.45-16.45-16.45m0 23.59c-3.94 0-7.14-3.2-7.14-7.14s3.2-7.14 7.14-7.14 7.14 3.2 7.14 7.14-3.2 7.14-7.14 7.14" class="cls-2"/><path d="M31.35 108.02c-10.17 0-18.45-8.28-18.45-18.45s8.28-18.45 18.45-18.45S49.8 79.4 49.8 89.57s-8.28 18.45-18.45 18.45m0-32.9c-7.97 0-14.45 6.48-14.45 14.45s6.48 14.45 14.45 14.45S45.8 97.54 45.8 89.57s-6.48-14.45-14.45-14.45m0 23.59c-5.04 0-9.14-4.1-9.14-9.14s4.1-9.14 9.14-9.14 9.14 4.1 9.14 9.14-4.1 9.14-9.14 9.14m0-14.28c-2.83 0-5.14 2.31-5.14 5.14s2.31 5.14 5.14 5.14 5.14-2.31 5.14-5.14-2.31-5.14-5.14-5.14" class="cls-5"/><path d="M88.52 73.12c-9.08 0-16.45 7.36-16.45 16.45s7.36 16.45 16.45 16.45 16.45-7.36 16.45-16.45-7.36-16.45-16.45-16.45m0 23.59c-3.94 0-7.14-3.2-7.14-7.14s3.2-7.14 7.14-7.14 7.14 3.2 7.14 7.14-3.2 7.14-7.14 7.14" class="cls-2"/><path d="M88.52 108.02c-10.17 0-18.45-8.28-18.45-18.45s8.28-18.45 18.45-18.45 18.45 8.28 18.45 18.45-8.28 18.45-18.45 18.45m0-32.9c-7.97 0-14.45 6.48-14.45 14.45s6.48 14.45 14.45 14.45 14.45-6.48 14.45-14.45-6.48-14.45-14.45-14.45m0 23.59c-5.04 0-9.14-4.1-9.14-9.14s4.1-9.14 9.14-9.14 9.14 4.1 9.14 9.14-4.1 9.14-9.14 9.14m0-14.28c-2.83 0-5.14 2.31-5.14 5.14s2.31 5.14 5.14 5.14 5.14-2.31 5.14-5.14-2.31-5.14-5.14-5.14" class="cls-5"/><path d="M33.11 47.42h-4.92a3.92 3.92 0 0 1-3.92-3.92v-2.86a3.92 3.92 0 0 1 3.92-3.92h20.58a3.92 3.92 0 0 1 3.92 3.92v2.86a3.92 3.92 0 0 1-3.92 3.92z" class="cls-2"/><path d="M48.77 49.42H28.19c-3.26 0-5.92-2.65-5.92-5.92v-2.86c0-3.26 2.65-5.92 5.92-5.92h20.58c3.26 0 5.92 2.65 5.92 5.92v2.86c0 3.26-2.65 5.92-5.92 5.92M28.19 38.73c-1.06 0-1.92.86-1.92 1.92v2.86c0 1.06.86 1.92 1.92 1.92h20.58c1.06 0 1.92-.86 1.92-1.92v-2.86c0-1.06-.86-1.92-1.92-1.92z" class="cls-5"/><path d="M13.18 88.86h90.64c2.4 0 4.13-2.27 3.51-4.59-.97-3.63-2.79-8.63-5.95-11.98a9.68 9.68 0 0 1-2.58-5.79c-.63-7.1-4.49-22.59-9.07-34.42h-9.21S86 62.71 74.21 70.35s-18.1 1.87-18.1-7.64V51.55c0-4.21-3.46-7.6-7.67-7.51-13.17.3-39.14 4.78-43.8 34.87-.81 5.23 3.25 9.94 8.54 9.94Z" class="cls-4"/><path d="M103.82 90.86H13.18c-3.11 0-6.06-1.36-8.08-3.72a10.59 10.59 0 0 1-2.43-8.53c4.98-32.18 33.65-36.29 45.74-36.57 2.61-.05 5.01.9 6.85 2.7a9.4 9.4 0 0 1 2.86 6.8V62.7c0 4.05 1.33 7.1 3.66 8.37 2.67 1.46 6.71.6 11.35-2.41 8.74-5.67 6.88-28.08 5.42-36.24a2.012 2.012 0 0 1 1.97-2.36h9.21c.83 0 1.57.51 1.87 1.28 4.73 12.2 8.57 27.93 9.2 34.96.15 1.73.88 3.36 2.04 4.6 3.45 3.66 5.4 9 6.43 12.83.46 1.71.11 3.5-.97 4.9a5.62 5.62 0 0 1-4.47 2.21Zm-55.2-44.82h-.13c-32.08.73-40 21.1-41.87 33.18-.29 1.91.26 3.84 1.52 5.31a6.61 6.61 0 0 0 5.05 2.32h90.64c.51 0 .99-.23 1.3-.64s.42-.93.28-1.43c-.91-3.39-2.6-8.07-5.48-11.13-1.78-1.89-2.88-4.37-3.11-6.99-.58-6.52-4.08-20.92-8.46-32.6h-5.5c1.05 7.57 3.31 30.91-7.55 37.95-7.6 4.93-12.59 4.11-15.44 2.57-3.66-1.99-5.75-6.32-5.75-11.88V51.54c0-1.5-.59-2.9-1.66-3.94a5.45 5.45 0 0 0-3.83-1.56Z" class="cls-5"/><path d="M69.39 90.91c-1.03 0-1.91-.79-1.99-1.84-.97-12.02 18.84-16.57 19.69-16.76a2.003 2.003 0 1 1 .87 3.91c-4.8 1.07-17.15 5.42-16.57 12.53a1.99 1.99 0 0 1-1.83 2.15h-.16Zm-64.5-6.24c-.46 0-.92-.16-1.29-.48-.84-.71-.95-1.97-.23-2.82.17-.2 17.32-20.03 41.89-12.95a2.01 2.01 0 0 1 1.37 2.48 2.014 2.014 0 0 1-2.48 1.37C22.1 65.92 7.05 83.23 6.42 83.97c-.4.46-.96.7-1.53.7" class="cls-5"/><path d="M89.73 32.08H70.65c-1.93 0-3.5-1.57-3.5-3.5s1.57-3.5 3.5-3.5h19.08z" class="cls-4"/><path d="M89.73 34.08H70.65c-3.03 0-5.5-2.47-5.5-5.5s2.47-5.5 5.5-5.5h19.08c1.1 0 2 .9 2 2v7c0 1.1-.9 2-2 2m-19.08-7c-.83 0-1.5.67-1.5 1.5s.67 1.5 1.5 1.5h17.08v-3z" class="cls-5"/><path d="M100.88 17.98h3.73v22.01h-3.73c-6.05 0-10.96-4.91-10.96-10.96v-.08c0-6.05 4.91-10.96 10.96-10.96Z" style="stroke-width:0;fill:#fdda49"/><path d="M104.61 41.99h-3.73c-7.15 0-12.96-5.81-12.96-12.96s5.82-13.05 12.96-13.05h3.73c1.1 0 2 .9 2 2v22.01c0 1.1-.9 2-2 2m-3.73-22.01c-4.94 0-8.96 4.02-8.96 8.96s4.02 9.05 8.96 9.05h1.73V19.98z" class="cls-5"/></g></g></svg>