<svg xmlns="http://www.w3.org/2000/svg" id="outline_icons" data-name="outline icons" viewBox="0 0 112 112"><defs><style>.cls-2,.cls-3,.cls-4,.cls-6{stroke-width:0}.cls-2{fill:#d3e7ee}.cls-3{fill:#b5dbe5}.cls-4{fill:#fff}.cls-6{fill:#004241}</style></defs><path d="M51.76 4.81h8.49c26.91 0 48.76 21.85 48.76 48.76v52.67H3V53.57C3 26.66 24.85 4.81 51.76 4.81" class="cls-2"/><path d="M4.72 107.04 59.9 31.42l49.1 75.91" class="cls-4"/><path d="M12.19 106.23H3V70.05l14.9-20.03 18.69 23.96z" class="cls-4"/><path d="m23.44 65.76-6.61 2.09c-1.62.51-1.72 2.78-.14 3.43l1.14.47c1.27.53 1.53 2.23.46 3.1L5.76 85.12c-.62.51-.83 1.36-.54 2.1l4.15 10.29L34.1 66.77l-4.75-2.08-5.68 1.01c-.08.01-.16.03-.23.06m51.38-9.07s.29 14.43-7.13 21.44-5.48 9.38 0 14.65-.28 13.03-6.32 14.55 45.77 0 45.77 0L81.9 65.73l-7.09-9.04Z" class="cls-2"/><path d="M4.72 107.08c-.42 0-.84-.13-1.2-.4a2.006 2.006 0 0 1-.4-2.8L58.3 30.22c.39-.52 1-.83 1.67-.8a2 2 0 0 1 1.61.91l26.46 40.76a2.002 2.002 0 1 1-3.36 2.18l-24.9-38.35-53.46 71.36c-.39.52-.99.8-1.6.8" class="cls-6"/><path d="M33.25 107.08c-1.04 0-1.92-.81-1.99-1.86-.08-1.1.75-2.06 1.86-2.13 15.39-1.07 21.83-4.55 22.93-6.05-.54-.26-1.88-.6-4.43-.41-17.69 1.32-21.65-.64-23.2-2.74-.62-.84-1.2-2.26-.41-4.27.47-1.2 1.79-3.1 7.73-5.75 2.75-1.23 5.34-2.09 5.84-2.26 18.37-7.73 23.3-14.91 24.21-19.58.93-4.83-2.22-8-2.25-8.03-.79-.78-.79-2.04-.02-2.83.78-.79 2.04-.79 2.83-.02.19.19 4.7 4.73 3.37 11.64-1.58 8.19-10.55 15.77-26.66 22.54-.05.02-.1.04-.16.06-5.36 1.74-10.68 4.45-11.16 5.69-.12.3-.1.43-.1.43.05.09 1.48 2.5 19.69 1.13 4.18-.31 7.04.48 8.26 2.29.72 1.06.79 2.38.19 3.62-2.08 4.28-12.19 7.56-26.38 8.54h-.14Zm9.02-23.6" class="cls-3"/><path d="M3.66 69.83a2 2 0 0 1-1.56-3.25l14.23-17.81c.37-.47.93-.74 1.53-.75.61-.03 1.17.25 1.55.7l14.25 16.67c.72.84.62 2.1-.22 2.82s-2.1.62-2.82-.22L17.94 53.16 5.22 69.08c-.4.49-.98.75-1.56.75" class="cls-6"/><path d="M108.8 90.14 91.64 65.73 74.47 90.14h11.32l-11.32 16.09h34.33L97.49 90.14z" class="cls-3"/><path d="M108.8 108.23H74.47c-.75 0-1.43-.42-1.77-1.08s-.29-1.46.14-2.07l9.1-12.94h-7.46c-.75 0-1.43-.42-1.77-1.08s-.29-1.46.14-2.07l17.16-24.41a2.01 2.01 0 0 1 3.28 0l17.16 24.41a2.002 2.002 0 0 1-1.63 3.15h-7.46l9.1 12.94a2.002 2.002 0 0 1-1.63 3.15Zm-30.48-4h26.63l-9.1-12.94a2.002 2.002 0 0 1 1.63-3.15h7.46L91.63 69.2 78.32 88.14h7.46c.75 0 1.43.42 1.77 1.08s.29 1.46-.14 2.07l-9.1 12.94Z" class="cls-6"/><path d="M97.49 90.14h11.31L91.64 65.73 74.47 90.14z" class="cls-4"/><path d="M108.8 92.14H74.47c-.75 0-1.43-.42-1.77-1.08s-.29-1.46.14-2.07L90 64.58c.37-.53.98-.85 1.64-.85.65 0 1.26.32 1.64.85l17.16 24.41a2.002 2.002 0 0 1-1.63 3.15Zm-30.48-4h26.63L91.64 69.2 78.33 88.14Z" class="cls-6"/><path d="M38.01 42.03c-1.9 0-3.45-1.55-3.45-3.46s1.55-3.46 3.45-3.46 3.45 1.55 3.45 3.46-1.55 3.46-3.45 3.46m0-4c-.3 0-.55.24-.55.54s.25.54.55.54.55-.24.55-.54-.25-.54-.55-.54m49.74 5.46c-1.9 0-3.45-1.55-3.45-3.46s1.55-3.46 3.45-3.46 3.45 1.55 3.45 3.46-1.55 3.46-3.45 3.46m0-4c-.3 0-.55.24-.55.54s.25.54.55.54.55-.24.55-.54-.25-.54-.55-.54m-64.65-8.8c-1.9 0-3.45-1.55-3.45-3.46s1.55-3.46 3.45-3.46 3.45 1.55 3.45 3.46-1.55 3.46-3.45 3.46m0-4c-.3 0-.55.24-.55.54s.25.54.55.54.55-.24.55-.54-.25-.54-.55-.54m51.57-1c-1.9 0-3.45-1.55-3.45-3.46s1.55-3.46 3.45-3.46 3.45 1.55 3.45 3.46-1.55 3.46-3.45 3.46m0-4c-.3 0-.55.24-.55.54s.25.54.55.54.55-.24.55-.54-.25-.54-.55-.54" class="cls-4"/><path d="M59.9 33.42c-1.1 0-2-.9-2-2V4c0-1.1.9-2 2-2s2 .9 2 2v27.42c0 1.1-.9 2-2 2" class="cls-6"/><path d="M34.1 20.15h25.8V4H34.1l6.1 8.07z" style="stroke-width:0;fill:#ef706b"/><path d="M59.9 22.15H34.1a2 2 0 0 1-1.79-1.11c-.34-.68-.26-1.49.19-2.1l5.19-6.87L32.5 5.2c-.46-.61-.53-1.42-.19-2.1a2 2 0 0 1 1.79-1.11h25.8c1.1 0 2 .9 2 2v16.15c0 1.1-.9 2-2 2Zm-21.78-4H57.9V6H38.12l3.68 4.87c.54.71.54 1.7 0 2.41z" class="cls-6"/><path id="area" d="M0 0h112v112H0z" style="fill:none;stroke-width:0"/></svg>