<?xml version="1.0" encoding="UTF-8"?>
<svg id="outline_icons" data-name="outline icons" xmlns="http://www.w3.org/2000/svg" viewBox="0 0 112 112">
  <defs>
    <style>
      .cls-1 {
        fill: none;
      }

      .cls-1, .cls-2, .cls-3, .cls-4, .cls-5, .cls-6 {
        stroke-width: 0px;
      }

      .cls-2 {
        fill: #d3e7ee;
      }

      .cls-3 {
        fill: #b5dbe5;
      }

      .cls-4 {
        fill: #fff;
      }

      .cls-5 {
        fill: #ef706b;
      }

      .cls-6 {
        fill: #004241;
      }
    </style>
  </defs>
  <g>
    <path class="cls-2" d="m51.76,4.81h8.49c26.91,0,48.76,21.85,48.76,48.76v52.67H3v-52.67C3,26.66,24.85,4.81,51.76,4.81Z"/>
    <g>
      <polyline class="cls-4" points="4.72 107.04 59.9 31.42 109 107.33"/>
      <polygon class="cls-4" points="12.19 106.23 3 106.23 3 70.05 17.9 50.02 36.59 73.98 12.19 106.23"/>
      <path class="cls-2" d="m23.44,65.76l-6.61,2.09c-1.62.51-1.72,2.78-.14,3.43l1.14.47c1.27.53,1.53,2.23.46,3.1l-12.53,10.27c-.62.51-.83,1.36-.54,2.1l4.15,10.29,24.73-30.74-4.75-2.08-5.68,1.01c-.08.01-.16.03-.23.06Z"/>
      <path class="cls-2" d="m74.82,56.69s.29,14.43-7.13,21.44c-7.42,7.01-5.48,9.38,0,14.65s-.28,13.03-6.32,14.55,45.77,0,45.77,0l-25.24-41.6-7.09-9.04Z"/>
      <path class="cls-6" d="m4.72,107.08c-.42,0-.84-.13-1.2-.4-.88-.66-1.06-1.92-.4-2.8L58.3,30.22c.39-.52,1-.83,1.67-.8.65.02,1.25.36,1.61.91l26.46,40.76c.6.93.34,2.17-.59,2.77-.93.6-2.17.34-2.77-.59l-24.9-38.35L6.32,106.28c-.39.52-.99.8-1.6.8Z"/>
      <path class="cls-3" d="m33.25,107.08c-1.04,0-1.92-.81-1.99-1.86-.08-1.1.75-2.06,1.86-2.13,15.39-1.07,21.83-4.55,22.93-6.05-.54-.26-1.88-.6-4.43-.41-17.69,1.32-21.65-.64-23.2-2.74-.62-.84-1.2-2.26-.41-4.27.47-1.2,1.79-3.1,7.73-5.75,2.75-1.23,5.34-2.09,5.84-2.26,18.37-7.73,23.3-14.91,24.21-19.58.93-4.83-2.22-8-2.25-8.03-.79-.78-.79-2.04-.02-2.83.78-.79,2.04-.79,2.83-.02.19.19,4.7,4.73,3.37,11.64-1.58,8.19-10.55,15.77-26.66,22.54-.05.02-.1.04-.16.06-5.36,1.74-10.68,4.45-11.16,5.69-.12.3-.1.43-.1.43.05.09,1.48,2.5,19.69,1.13,4.18-.31,7.04.48,8.26,2.29.72,1.06.79,2.38.19,3.62-2.08,4.28-12.19,7.56-26.38,8.54-.05,0-.09,0-.14,0Zm9.02-23.6h0,0Z"/>
      <path class="cls-6" d="m3.66,69.83c-.44,0-.88-.14-1.25-.44-.86-.69-1-1.95-.31-2.81l14.23-17.81c.37-.47.93-.74,1.53-.75.61-.03,1.17.25,1.55.7l14.25,16.67c.72.84.62,2.1-.22,2.82-.84.72-2.1.62-2.82-.22l-12.68-14.83-12.72,15.92c-.4.49-.98.75-1.56.75Z"/>
      <g>
        <polygon class="cls-3" points="108.8 90.14 91.64 65.73 74.47 90.14 85.79 90.14 74.47 106.23 108.8 106.23 97.49 90.14 108.8 90.14"/>
        <path class="cls-6" d="m108.8,108.23h-34.33c-.75,0-1.43-.42-1.77-1.08s-.29-1.46.14-2.07l9.1-12.94h-7.46c-.75,0-1.43-.42-1.77-1.08s-.29-1.46.14-2.07l17.16-24.41c.37-.53.98-.85,1.64-.85s1.26.32,1.64.85l17.16,24.41c.43.61.48,1.41.14,2.07s-1.03,1.08-1.77,1.08h-7.46l9.1,12.94c.43.61.48,1.41.14,2.07s-1.03,1.08-1.77,1.08Zm-30.48-4h26.63l-9.1-12.94c-.43-.61-.48-1.41-.14-2.07s1.03-1.08,1.77-1.08h7.46l-13.31-18.94-13.31,18.94h7.46c.75,0,1.43.42,1.77,1.08s.29,1.46-.14,2.07l-9.1,12.94Z"/>
      </g>
      <g>
        <polygon class="cls-4" points="97.49 90.14 108.8 90.14 91.64 65.73 74.47 90.14 85.79 90.14 97.49 90.14"/>
        <path class="cls-6" d="m108.8,92.14h-34.33c-.75,0-1.43-.42-1.77-1.08s-.29-1.46.14-2.07l17.16-24.41c.37-.53.98-.85,1.64-.85h0c.65,0,1.26.32,1.64.85l17.16,24.41c.43.61.48,1.41.14,2.07s-1.03,1.08-1.77,1.08Zm-30.48-4h26.63l-13.31-18.94-13.31,18.94Z"/>
      </g>
    </g>
    <path class="cls-4" d="m38.01,42.03c-1.9,0-3.45-1.55-3.45-3.46s1.55-3.46,3.45-3.46,3.45,1.55,3.45,3.46-1.55,3.46-3.45,3.46Zm0-4c-.3,0-.55.24-.55.54s.25.54.55.54.55-.24.55-.54-.25-.54-.55-.54Z"/>
    <path class="cls-4" d="m87.75,43.49c-1.9,0-3.45-1.55-3.45-3.46s1.55-3.46,3.45-3.46,3.45,1.55,3.45,3.46-1.55,3.46-3.45,3.46Zm0-4c-.3,0-.55.24-.55.54s.25.54.55.54.55-.24.55-.54-.25-.54-.55-.54Z"/>
    <path class="cls-4" d="m23.1,30.69c-1.9,0-3.45-1.55-3.45-3.46s1.55-3.46,3.45-3.46,3.45,1.55,3.45,3.46-1.55,3.46-3.45,3.46Zm0-4c-.3,0-.55.24-.55.54s.25.54.55.54.55-.24.55-.54-.25-.54-.55-.54Z"/>
    <path class="cls-4" d="m74.67,25.69c-1.9,0-3.45-1.55-3.45-3.46s1.55-3.46,3.45-3.46,3.45,1.55,3.45,3.46-1.55,3.46-3.45,3.46Zm0-4c-.3,0-.55.24-.55.54s.25.54.55.54.55-.24.55-.54-.25-.54-.55-.54Z"/>
    <path class="cls-6" d="m59.9,33.42c-1.1,0-2-.9-2-2V4c0-1.1.9-2,2-2s2,.9,2,2v27.42c0,1.1-.9,2-2,2Z"/>
    <g>
      <polygon class="cls-5" points="34.1 20.15 59.9 20.15 59.9 4 34.1 4 40.2 12.07 34.1 20.15"/>
      <path class="cls-6" d="m59.9,22.15h-25.8c-.76,0-1.45-.43-1.79-1.11-.34-.68-.26-1.49.19-2.1l5.19-6.87-5.19-6.87c-.46-.61-.53-1.42-.19-2.1.34-.68,1.03-1.11,1.79-1.11h25.8c1.1,0,2,.9,2,2v16.15c0,1.1-.9,2-2,2Zm-21.78-4h19.78V6h-19.78l3.68,4.87c.54.71.54,1.7,0,2.41l-3.68,4.87Z"/>
    </g>
  </g>
  <g id="area">
    <rect class="cls-1" width="112" height="112"/>
  </g>
</svg>