<?xml version="1.0" encoding="UTF-8"?>
<svg id="flatten_icons" data-name="flatten icons" xmlns="http://www.w3.org/2000/svg" viewBox="0 0 112 112">
  <defs>
    <style>
      .cls-1 {
        fill: none;
      }

      .cls-1, .cls-2, .cls-3, .cls-4, .cls-5 {
        stroke-width: 0px;
      }

      .cls-2 {
        fill: #b7e7f1;
      }

      .cls-3 {
        fill: #8ed4ea;
      }

      .cls-4 {
        fill: #e9e5dc;
      }

      .cls-5 {
        fill: #004241;
      }
    </style>
  </defs>
  <g id="smartphone">
    <rect class="cls-1" width="112" height="112"/>
    <g>
      <rect class="cls-3" x="26.92" y="7.52" width="58.16" height="96.97" rx="8.75" ry="8.75"/>
      <g>
        <rect class="cls-4" x="50.45" y="85.39" width="11.09" height="11.09" rx="4.85" ry="4.85"/>
        <path class="cls-5" d="m56.7,98.48h-1.39c-3.78,0-6.85-3.07-6.85-6.85v-1.4c0-3.78,3.07-6.85,6.85-6.85h1.39c3.78,0,6.85,3.07,6.85,6.85v1.4c0,3.78-3.07,6.85-6.85,6.85Zm-1.39-11.09c-1.57,0-2.85,1.28-2.85,2.85v1.4c0,1.57,1.28,2.85,2.85,2.85h1.39c1.57,0,2.85-1.28,2.85-2.85v-1.4c0-1.57-1.28-2.85-2.85-2.85h-1.39Z"/>
      </g>
      <path class="cls-5" d="m76.33,106.48h-40.66c-5.93,0-10.75-4.82-10.75-10.75V16.27c0-5.93,4.82-10.75,10.75-10.75h40.66c5.93,0,10.75,4.82,10.75,10.75v79.47c0,5.93-4.82,10.75-10.75,10.75ZM35.67,9.52c-3.72,0-6.75,3.03-6.75,6.75v79.47c0,3.72,3.03,6.75,6.75,6.75h40.66c3.72,0,6.75-3.03,6.75-6.75V16.27c0-3.72-3.03-6.75-6.75-6.75h-40.66Z"/>
      <path class="cls-2" d="m36.51,82.51c-1.29,0-2.34-1.05-2.34-2.34V20.91c0-3.23,2.62-5.85,5.85-5.85h36.13c1.2,0,1.99,1.25,1.48,2.34h0c-3,23-7.73,38.91-40.81,64.97l-.31.15Z"/>
      <path class="cls-3" d="m69.48,29.78h-24.34c-1.1,0-2-.9-2-2s.9-2,2-2h24.34c1.1,0,2,.9,2,2s-.9,2-2,2Z"/>
      <path class="cls-3" d="m57.31,39.16h-12.17c-1.1,0-2-.9-2-2s.9-2,2-2h12.17c1.1,0,2,.9,2,2s-.9,2-2,2Z"/>
    </g>
  </g>
</svg>