<svg xmlns="http://www.w3.org/2000/svg" id="flatten_icons" data-name="flatten icons" viewBox="0 0 112 112"><defs><style>.cls-3,.cls-5{stroke-width:0}.cls-3{fill:#8ed4ea}.cls-5{fill:#004241}</style></defs><g id="smartphone"><path d="M0 0h112v112H0z" style="fill:none;stroke-width:0"/><rect width="58.16" height="96.97" x="26.92" y="7.52" class="cls-3" rx="8.75" ry="8.75"/><rect width="11.09" height="11.09" x="50.45" y="85.39" rx="4.85" ry="4.85" style="stroke-width:0;fill:#e9e5dc"/><path d="M56.7 98.48h-1.39c-3.78 0-6.85-3.07-6.85-6.85v-1.4c0-3.78 3.07-6.85 6.85-6.85h1.39c3.78 0 6.85 3.07 6.85 6.85v1.4c0 3.78-3.07 6.85-6.85 6.85m-1.39-11.09c-1.57 0-2.85 1.28-2.85 2.85v1.4c0 1.57 1.28 2.85 2.85 2.85h1.39c1.57 0 2.85-1.28 2.85-2.85v-1.4c0-1.57-1.28-2.85-2.85-2.85z" class="cls-5"/><path d="M76.33 106.48H35.67c-5.93 0-10.75-4.82-10.75-10.75V16.27c0-5.93 4.82-10.75 10.75-10.75h40.66c5.93 0 10.75 4.82 10.75 10.75v79.47c0 5.93-4.82 10.75-10.75 10.75ZM35.67 9.52c-3.72 0-6.75 3.03-6.75 6.75v79.47c0 3.72 3.03 6.75 6.75 6.75h40.66c3.72 0 6.75-3.03 6.75-6.75V16.27c0-3.72-3.03-6.75-6.75-6.75z" class="cls-5"/><path d="M36.51 82.51c-1.29 0-2.34-1.05-2.34-2.34V20.91c0-3.23 2.62-5.85 5.85-5.85h36.13c1.2 0 1.99 1.25 1.48 2.34-3 23-7.73 38.91-40.81 64.97l-.31.15Z" style="stroke-width:0;fill:#b7e7f1"/><path d="M69.48 29.78H45.14c-1.1 0-2-.9-2-2s.9-2 2-2h24.34c1.1 0 2 .9 2 2s-.9 2-2 2m-12.17 9.38H45.14c-1.1 0-2-.9-2-2s.9-2 2-2h12.17c1.1 0 2 .9 2 2s-.9 2-2 2" class="cls-3"/></g></svg>