<svg xmlns="http://www.w3.org/2000/svg" id="flatten_icons" data-name="flatten icons" viewBox="0 0 112 112"><defs><style>.cls-11,.cls-4,.cls-5,.cls-8{stroke-width:0}.cls-4{fill:#e26f6b}.cls-5{fill:#a9d580}.cls-8{fill:#fff}.cls-11{fill:#004241}</style></defs><g id="soda"><path d="M0 0h112v112H0z" style="fill:none;stroke-width:0"/><path d="M36.64 101.47S9.19 89.73 21.07 69.69c0 0 27.96-2.18 15.57 31.78" class="cls-5"/><path d="M36.64 103.47c-.27 0-.54-.05-.79-.16-.61-.26-15.08-6.56-18.87-18.16-1.74-5.34-.95-10.88 2.37-16.48.33-.56.92-.92 1.56-.97.47-.03 11.49-.8 17.4 6.98 4.58 6.03 4.65 15.28.2 27.48-.19.52-.58.93-1.08 1.15-.25.11-.52.16-.79.16m-14.39-31.8C20 75.89 19.51 80 20.78 83.91c2.48 7.59 10.88 12.76 14.71 14.78 3.22-9.76 3.1-17-.34-21.56-3.66-4.85-10.34-5.42-12.89-5.45Z" class="cls-11"/><circle cx="48.32" cy="90.08" r="19.05" style="stroke-width:0;fill:#edcf4d"/><path d="M48.32 111.13c-11.61 0-21.05-9.44-21.05-21.05s9.44-21.05 21.05-21.05 21.05 9.44 21.05 21.05-9.44 21.05-21.05 21.05m0-38.09c-9.4 0-17.05 7.65-17.05 17.05s7.65 17.05 17.05 17.05 17.05-7.65 17.05-17.05-7.65-17.05-17.05-17.05" class="cls-11"/><circle cx="48.58" cy="90.34" r="11.11" style="stroke-width:0;fill:#fbeb6b"/><path d="M48.58 103.44c-7.23 0-13.11-5.88-13.11-13.11s5.88-13.11 13.11-13.11 13.11 5.88 13.11 13.11-5.88 13.11-13.11 13.11m0-22.21c-5.02 0-9.11 4.08-9.11 9.11s4.08 9.11 9.11 9.11 9.11-4.08 9.11-9.11-4.08-9.11-9.11-9.11" class="cls-11"/><path d="M72.67 1.69h9.27a2.88 2.88 0 0 1 2.88 2.88v6.4H69.79v-6.4a2.88 2.88 0 0 1 2.88-2.88" class="cls-4"/><path d="M84.82 12.97H69.79c-1.1 0-2-.9-2-2v-6.4c0-2.69 2.19-4.88 4.88-4.88h9.27c2.69 0 4.88 2.19 4.88 4.88v6.4c0 1.1-.9 2-2 2m-13.03-4h11.03v-4.4c0-.49-.39-.88-.88-.88h-9.27c-.49 0-.88.39-.88.88z" class="cls-11"/><path d="M96.61 66.5c-2.22-5.54-2.6-11.68-1.17-17.48.56-2.3.87-4.75.87-7.3 0-8.31-3.83-16.33-8.87-21.24-2.59-2.52-4.14-5.91-4.14-9.52s-11.97 0-11.97 0c0 3.61-1.55 7-4.14 9.52-5.04 4.91-8.87 12.92-8.87 21.24 0 2.54.3 4.99.87 7.3 1.42 5.8 1.05 11.94-1.17 17.48-1.28 3.19-1.19 16.35-1.19 19.96 0 12.19-.88 23.49 8.33 23.22 3.35-.1 6.82-3.49 12.16-3.49s9.72 3.08 13.07 3.2c8.32.3 7.42-10.73 7.42-22.92 0-3.61.1-16.77-1.19-19.96Z" style="stroke-width:0;fill:#8d879a"/><path d="M75.36 94.48c-5.75.4-4.76 8.53-8.33 9.32s-2.98-6.35-2.98-17.06.59-17.65 5.74-23.41c5.14-5.75 1.6-38.28 4.38-42.85 1.23-2.01 5.3-4.49 9.47-6.63-.22-.94-.35-1.91-.35-2.89H71.32c0 3.61-1.55 7-4.14 9.52-5.04 4.91-8.87 12.92-8.87 21.24 0 2.54.3 4.99.87 7.3 1.42 5.8 1.05 11.94-1.17 17.48-1.28 3.19-1.19 16.35-1.19 19.96 0 12.19-.88 23.49 8.33 23.22 3.35-.1 6.82-3.49 12.16-3.49 2.56 0 4.89.71 7 1.45-5.65-5.11-3.94-13.51-8.95-13.17Z" style="stroke-width:0;fill:#77708b"/><path d="M92.81 29.77H61.85c-1.1 0-2-.9-2-2s.9-2 2-2h30.96c1.1 0 2 .9 2 2s-.9 2-2 2m1.54 32.56H59.69c-1.1 0-2-.9-2-2s.9-2 2-2h34.66c1.1 0 2 .9 2 2s-.9 2-2 2" class="cls-11"/><path d="M58.33 41.73c0 2.54.3 4.99.87 7.3.91 3.71 1.08 7.56.5 11.31h35.26c-.57-3.74-.41-7.59.5-11.31.56-2.3.87-4.75.87-7.3 0-4.96-1.37-9.8-3.54-13.95H61.87c-2.17 4.15-3.54 9-3.54 13.95" class="cls-4"/><path d="M94.96 62.33H59.7c-.58 0-1.14-.25-1.52-.7-.38-.44-.55-1.03-.46-1.61.54-3.52.38-7.06-.47-10.53-.61-2.51-.93-5.12-.93-7.77 0-5.02 1.3-10.17 3.77-14.88.34-.66 1.03-1.07 1.77-1.07h30.92c.74 0 1.43.41 1.77 1.07 2.47 4.71 3.77 9.86 3.77 14.88 0 2.65-.31 5.26-.93 7.77-.85 3.47-1.01 7.01-.47 10.53a2.008 2.008 0 0 1-1.98 2.31Zm-33.02-4h30.77c-.26-3.28.01-6.56.8-9.78.54-2.2.81-4.49.81-6.82 0-4-.96-8.11-2.78-11.95H63.1c-1.82 3.84-2.78 7.95-2.78 11.95 0 2.33.27 4.62.81 6.82.79 3.22 1.06 6.5.8 9.78Z" class="cls-11"/><path d="M78.91 33.58s-9.05 3.08-9.43 13.28 15.21 10.2 17.13 0c0 0 .96-4.91-3.08-5.83-.95-.22-1.94-.09-2.85.25-1.9.69-5.89 1.33-1.76-7.69Z" style="stroke-width:0;fill:#e9e5dc"/><path d="M77.16 56.52c-.43 0-.86-.02-1.28-.07-4.34-.49-8.62-3.66-8.4-9.65.43-11.45 10.36-14.96 10.79-15.1a2.002 2.002 0 0 1 2.47 2.72c-1.47 3.22-1.64 4.67-1.62 5.21.2-.02.49-.09.89-.23 1.36-.49 2.73-.6 3.99-.32 4.69 1.08 5.06 5.81 4.6 8.17-1.17 6.2-6.52 9.27-11.41 9.27ZM75.22 38.3c-1.83 1.79-3.59 4.55-3.74 8.65-.17 4.6 3.67 5.4 4.85 5.53 3.41.39 7.49-1.58 8.32-5.97.09-.51.45-3.05-1.56-3.51-.63-.14-1.28.02-1.72.18-3.02 1.1-4.58.06-5.24-.66-.9-.97-1.2-2.33-.9-4.2Zm3.93 1.61h.01z" class="cls-11"/><path d="M91.13 73.04c-.13 0-.27-.01-.39-.04-.13-.03-.26-.07-.38-.11-.12-.06-.24-.12-.34-.19-.11-.07-.22-.16-.31-.25s-.17-.19-.25-.3c-.07-.11-.13-.23-.18-.35s-.09-.24-.11-.37c-.03-.13-.04-.26-.04-.39s0-.26.04-.39c.02-.13.06-.26.11-.38s.11-.23.18-.34c.08-.11.16-.21.25-.31a2.035 2.035 0 0 1 2.53-.25c.11.08.21.16.3.25.09.1.18.2.25.31a2.2 2.2 0 0 1 .3.72c.02.13.04.26.04.39 0 .52-.22 1.04-.59 1.41-.09.09-.19.18-.3.25s-.23.13-.35.19c-.12.04-.24.08-.37.11s-.26.04-.39.04m-4.34 28.73c-.69 0-1.37-.11-2.04-.34l-.58-.2a2.004 2.004 0 0 1-1.25-2.54c.36-1.04 1.49-1.6 2.54-1.25l.58.2c.72.25 1.49.13 2.11-.31s.97-1.13.97-1.89V76.28c0-1.1.9-2 2-2s2 .9 2 2v19.16a6.33 6.33 0 0 1-6.34 6.33Z" style="stroke-width:0;fill:#e2cdd6"/><path d="M64.82 111.69c-2.54 0-4.63-.78-6.21-2.32-3.9-3.81-3.86-11.29-3.81-19.96 0-.97.01-1.95.01-2.94v-.71c-.01-8.22.14-17.02 1.33-19.99 2.03-5.06 2.42-10.83 1.09-16.26-.61-2.51-.93-5.12-.93-7.77 0-8.29 3.63-16.97 9.48-22.67 2.28-2.22 3.53-5.09 3.53-8.09 0-1.1.9-2 2-2h11.97c1.1 0 2 .9 2 2 0 3 1.25 5.87 3.53 8.09 5.85 5.69 9.48 14.38 9.48 22.67 0 2.65-.31 5.26-.93 7.77-1.33 5.43-.94 11.2 1.09 16.26 1.19 2.97 1.34 11.77 1.33 19.99v.71c0 1.09 0 2.17.01 3.24.06 8.59.11 16-3.6 19.6-1.51 1.47-3.49 2.17-5.91 2.08-1.65-.06-3.4-.52-5.25-1.01-2.31-.61-4.93-1.3-7.74-1.3s-4.89.73-7 1.43c-1.73.58-3.37 1.12-5.11 1.18h-.39Zm8.37-98.72c-.46 3.34-2.05 6.47-4.61 8.95-5.1 4.97-8.27 12.56-8.27 19.8 0 2.33.27 4.62.81 6.82 1.53 6.23 1.08 12.87-1.26 18.7-.71 1.76-1.06 7.98-1.04 18.5v.72c0 1 0 1.98-.01 2.96-.04 7.43-.09 14.45 2.6 17.08.87.85 2.04 1.23 3.68 1.18 1.15-.03 2.45-.47 3.96-.97 2.18-.73 4.9-1.63 8.26-1.63s6.22.76 8.76 1.43c1.7.45 3.18.84 4.37.88 1.74.05 2.53-.51 2.98-.95 2.48-2.41 2.43-9.35 2.38-16.71 0-1.07-.01-2.17-.01-3.27v-.72c.01-10.52-.34-16.74-1.04-18.5-2.34-5.83-2.79-12.47-1.26-18.7.54-2.2.81-4.49.81-6.82 0-7.25-3.17-14.83-8.27-19.8-2.55-2.49-4.15-5.61-4.61-8.95h-8.25Z" class="cls-11"/><ellipse cx="43.96" cy="90.34" class="cls-8" rx="2.05" ry="1.62"/><ellipse cx="48.58" cy="85.26" class="cls-8" rx="1.62" ry="2.05" transform="rotate(-32.48 48.588 85.27)"/><ellipse cx="47.66" cy="95.75" class="cls-8" rx="2.05" ry="1.62" transform="rotate(-68.9 47.668 95.747)"/><path d="M45.72 109.69s-29.55 4.8-31.55-12.14c0 0 20.14-17.14 31.55 12.14" class="cls-5"/><path d="M36.86 112.32c-6.11 0-13.92-.9-19.12-4.83-3.21-2.42-5.08-5.69-5.55-9.71-.08-.66.18-1.32.69-1.76.36-.3 8.81-7.38 18.43-4.96 6.84 1.73 12.32 7.75 16.28 17.9a2.002 2.002 0 0 1-1.55 2.7c-.34.06-4.19.66-9.18.66M16.34 98.41c.52 2.42 1.77 4.35 3.8 5.88 6.2 4.68 17.64 4.21 22.72 3.72-3.31-7.41-7.51-11.8-12.5-13.07-6.05-1.54-11.86 1.95-14.01 3.47Z" class="cls-11"/></g></svg>