<svg xmlns="http://www.w3.org/2000/svg" id="flatten_icons" data-name="flatten icons" viewBox="0 0 112 112"><defs><style>.cls-2,.cls-3,.cls-5,.cls-6{stroke-width:0}.cls-2{fill:#86c487}.cls-3{fill:#80d886}.cls-5{fill:#f4f2e6}.cls-6{fill:#004241}</style></defs><g id="lait-soja"><path d="M0 0h112v112H0z" style="fill:none;stroke-width:0"/><path d="M26 33.16h44.71V110H26z" class="cls-5"/><path d="M70.71 112H26c-1.1 0-2-.9-2-2V33.16c0-1.1.9-2 2-2h44.71c1.1 0 2 .9 2 2V110c0 1.1-.9 2-2 2M28 108h40.71V35.16H28z" class="cls-6"/><path d="M38.97 2H73.1c2.92 0 5.29 2.37 5.29 5.29v7.04H33.68V7.29c0-2.92 2.37-5.29 5.29-5.29" style="stroke-width:0;fill:#efedd8"/><path d="M78.39 16.33H33.68c-1.1 0-2-.9-2-2V7.29c0-4.02 3.27-7.29 7.29-7.29H73.1c4.02 0 7.29 3.27 7.29 7.29v7.04c0 1.1-.9 2-2 2m-42.71-4h40.71V7.29C76.39 5.47 74.91 4 73.1 4H38.97c-1.82 0-3.29 1.48-3.29 3.29z" class="cls-6"/><path d="M78.39 14.33H33.68L26 33.16h44.71z" class="cls-5"/><path d="M70.71 35.16H26c-.67 0-1.29-.33-1.66-.88s-.44-1.25-.19-1.87l7.68-18.82c.31-.75 1.04-1.24 1.85-1.24h44.71c.67 0 1.29.33 1.66.88s.44 1.25.19 1.87l-7.68 18.82c-.31.75-1.04 1.24-1.85 1.24m-41.74-4h40.39l6.04-14.82H35.01l-6.05 14.82Z" class="cls-6"/><path d="m70.71 33.16 7.68-18.83h-.07L86 33.16V110H70.71z" class="cls-5"/><path d="M86 112H70.71c-1.1 0-2-.9-2-2V33.16c0-.26.05-.52.15-.76l7.48-18.35a1.996 1.996 0 0 1 1.98-1.72c.67 0 1.32.33 1.69.88.16.23.26.49.32.76l7.52 18.43c.1.24.15.5.15.76V110c0 1.1-.9 2-2 2m-13.29-4H84V33.55l-5.64-13.84-5.64 13.84V108ZM56 92.04H36.88c-1.1 0-2-.9-2-2s.9-2 2-2H56c1.1 0 2 .9 2 2s-.9 2-2 2m-12.7 7.88h-6.42c-1.1 0-2-.9-2-2s.9-2 2-2h6.42c1.1 0 2 .9 2 2s-.9 2-2 2" class="cls-6"/><path d="M59.23 21.67c0 3.3-4.05 5.98-9.05 5.98s-9.05-2.68-9.05-5.98v-5.98h18.1z" class="cls-2"/><path d="M50.18 29.65c-6.2 0-11.05-3.51-11.05-7.98v-5.98c0-1.1.9-2 2-2h18.1c1.1 0 2 .9 2 2v5.98c0 4.48-4.85 7.98-11.05 7.98m-7.05-11.96v3.98c0 1.88 2.89 3.98 7.05 3.98s7.05-2.1 7.05-3.98v-3.98z" class="cls-6"/><path d="M36.88 71.58s4.7 11.75 26.8 10.9c0 0-2.11-8.48-7.65-15.18S43.3 65.19 43.3 65.19z" class="cls-2"/><path d="M61.42 84.52c-21.27 0-26.19-11.69-26.4-12.2-.3-.74-.12-1.59.45-2.16l6.42-6.39c.1-.1.21-.19.34-.27 3-1.91 10.08-3.85 15.35 2.53C63.34 73 65.53 81.63 65.62 82c.15.58.02 1.2-.34 1.68s-.92.77-1.52.8c-.8.03-1.58.05-2.33.05ZM39.36 71.93c1.68 2.54 7.15 8.47 21.62 8.59-1.01-2.88-3.07-7.81-6.48-11.94-3.97-4.8-8.85-2.42-9.95-1.8l-5.18 5.16Zm-2.48-.36" class="cls-6"/><ellipse cx="50.18" cy="14.95" class="cls-3" rx="9.05" ry="5.98"/><path d="M50.18 22.93c-6.2 0-11.05-3.51-11.05-7.98s4.85-7.98 11.05-7.98 11.05 3.51 11.05 7.98-4.85 7.98-11.05 7.98m0-11.96c-4.15 0-7.05 2.1-7.05 3.98s2.89 3.98 7.05 3.98 7.05-2.1 7.05-3.98-2.89-3.98-7.05-3.98" class="cls-6"/><path d="M36.88 71.58S32.65 45 60.51 43.68c0 0 6.36 32.47-23.63 27.9" class="cls-3"/><path d="M42.34 74.02c-1.81 0-3.73-.15-5.76-.46-.86-.13-1.54-.8-1.67-1.66-.08-.51-1.89-12.52 5.3-21.36 4.43-5.45 11.23-8.43 20.21-8.85a1.98 1.98 0 0 1 2.06 1.61c.13.67 3.09 16.38-5.32 25.16-3.55 3.71-8.52 5.57-14.82 5.57Zm-3.63-4.21c6.96.78 12.18-.6 15.55-4.12 5.53-5.77 5-15.85 4.53-19.88-6.88.64-12.08 3.07-15.48 7.23-4.73 5.8-4.81 13.58-4.61 16.77Z" class="cls-6"/></g></svg>