<?xml version="1.0" encoding="UTF-8"?>
<svg id="flatten_icons" data-name="flatten icons" xmlns="http://www.w3.org/2000/svg" viewBox="0 0 112 112">
  <defs>
    <style>
      .cls-1 {
        fill: none;
      }

      .cls-1, .cls-2, .cls-3, .cls-4, .cls-5, .cls-6 {
        stroke-width: 0px;
      }

      .cls-2 {
        fill: #86c487;
      }

      .cls-3 {
        fill: #80d886;
      }

      .cls-4 {
        fill: #efedd8;
      }

      .cls-5 {
        fill: #f4f2e6;
      }

      .cls-6 {
        fill: #004241;
      }
    </style>
  </defs>
  <g id="lait-soja">
    <rect class="cls-1" width="112" height="112"/>
    <g>
      <g>
        <g>
          <rect class="cls-5" x="26" y="33.16" width="44.71" height="76.84"/>
          <path class="cls-6" d="m70.71,112H26c-1.1,0-2-.9-2-2V33.16c0-1.1.9-2,2-2h44.71c1.1,0,2,.9,2,2v76.84c0,1.1-.9,2-2,2Zm-42.71-4h40.71V35.16H28v72.84Z"/>
        </g>
        <g>
          <path class="cls-4" d="m38.97,2h34.13c2.92,0,5.29,2.37,5.29,5.29v7.04h-44.71v-7.04c0-2.92,2.37-5.29,5.29-5.29Z"/>
          <path class="cls-6" d="m78.39,16.33h-44.71c-1.1,0-2-.9-2-2v-7.04C31.68,3.27,34.95,0,38.97,0h34.13C77.12,0,80.39,3.27,80.39,7.29v7.04c0,1.1-.9,2-2,2Zm-42.71-4h40.71v-5.04c0-1.82-1.48-3.29-3.29-3.29h-34.13c-1.82,0-3.29,1.48-3.29,3.29v5.04Z"/>
        </g>
        <g>
          <polygon class="cls-5" points="78.39 14.33 33.68 14.33 26 33.16 70.71 33.16 78.39 14.33"/>
          <path class="cls-6" d="m70.71,35.16H26c-.67,0-1.29-.33-1.66-.88-.37-.55-.44-1.25-.19-1.87l7.68-18.82c.31-.75,1.04-1.24,1.85-1.24h44.71c.67,0,1.29.33,1.66.88.37.55.44,1.25.19,1.87l-7.68,18.82c-.31.75-1.04,1.24-1.85,1.24Zm-41.74-4h40.39l6.04-14.82h-40.39l-6.05,14.82Z"/>
        </g>
        <g>
          <polygon class="cls-5" points="70.71 33.16 78.39 14.33 78.32 14.33 86 33.16 86 110 70.71 110 70.71 33.16"/>
          <path class="cls-6" d="m86,112h-15.29c-1.1,0-2-.9-2-2V33.16c0-.26.05-.52.15-.76l7.48-18.35c.04-.3.15-.58.32-.84.37-.55.99-.88,1.66-.88s1.32.33,1.69.88c.16.23.26.49.32.76l7.52,18.43c.1.24.15.5.15.76v76.84c0,1.1-.9,2-2,2Zm-13.29-4h11.29V33.55l-5.64-13.84-5.64,13.84v74.45Z"/>
        </g>
        <path class="cls-6" d="m56,92.04h-19.12c-1.1,0-2-.9-2-2s.9-2,2-2h19.12c1.1,0,2,.9,2,2s-.9,2-2,2Z"/>
        <path class="cls-6" d="m43.3,99.92h-6.42c-1.1,0-2-.9-2-2s.9-2,2-2h6.42c1.1,0,2,.9,2,2s-.9,2-2,2Z"/>
      </g>
      <g>
        <path class="cls-2" d="m59.23,21.67c0,3.3-4.05,5.98-9.05,5.98s-9.05-2.68-9.05-5.98v-5.98h18.1v5.98Z"/>
        <path class="cls-6" d="m50.18,29.65c-6.2,0-11.05-3.51-11.05-7.98v-5.98c0-1.1.9-2,2-2h18.1c1.1,0,2,.9,2,2v5.98c0,4.48-4.85,7.98-11.05,7.98Zm-7.05-11.96v3.98c0,1.88,2.89,3.98,7.05,3.98s7.05-2.1,7.05-3.98v-3.98h-14.1Z"/>
      </g>
      <g>
        <path class="cls-2" d="m36.88,71.58s4.7,11.75,26.8,10.9c0,0-2.11-8.48-7.65-15.18s-12.73-2.11-12.73-2.11l-6.42,6.39Z"/>
        <path class="cls-6" d="m61.42,84.52c-21.27,0-26.19-11.69-26.4-12.2-.3-.74-.12-1.59.45-2.16l6.42-6.39c.1-.1.21-.19.34-.27,3-1.91,10.08-3.85,15.35,2.53,5.76,6.97,7.95,15.6,8.04,15.97.15.58.02,1.2-.34,1.68-.36.48-.92.77-1.52.8-.8.03-1.58.05-2.33.05Zm-22.06-12.59c1.68,2.54,7.15,8.47,21.62,8.59-1.01-2.88-3.07-7.81-6.48-11.94-3.97-4.8-8.85-2.42-9.95-1.8l-5.18,5.16Zm-2.48-.36h0,0Z"/>
      </g>
      <g>
        <ellipse class="cls-3" cx="50.18" cy="14.95" rx="9.05" ry="5.98"/>
        <path class="cls-6" d="m50.18,22.93c-6.2,0-11.05-3.51-11.05-7.98s4.85-7.98,11.05-7.98,11.05,3.51,11.05,7.98-4.85,7.98-11.05,7.98Zm0-11.96c-4.15,0-7.05,2.1-7.05,3.98s2.89,3.98,7.05,3.98,7.05-2.1,7.05-3.98-2.89-3.98-7.05-3.98Z"/>
      </g>
      <g>
        <path class="cls-3" d="m36.88,71.58s-4.23-26.58,23.63-27.9c0,0,6.36,32.47-23.63,27.9Z"/>
        <path class="cls-6" d="m42.34,74.02c-1.81,0-3.73-.15-5.76-.46-.86-.13-1.54-.8-1.67-1.66-.08-.51-1.89-12.52,5.3-21.36,4.43-5.45,11.23-8.43,20.21-8.85,1.02-.05,1.87.64,2.06,1.61.13.67,3.09,16.38-5.32,25.16-3.55,3.71-8.52,5.57-14.82,5.57Zm-3.63-4.21c6.96.78,12.18-.6,15.55-4.12,5.53-5.77,5-15.85,4.53-19.88-6.88.64-12.08,3.07-15.48,7.23-4.73,5.8-4.81,13.58-4.61,16.77Z"/>
      </g>
    </g>
  </g>
</svg>