<?xml version="1.0" encoding="UTF-8"?>
<svg id="flatten_icons" data-name="flatten icons" xmlns="http://www.w3.org/2000/svg" viewBox="0 0 112 112">
  <defs>
    <style>
      .cls-1 {
        fill: none;
      }

      .cls-1, .cls-2, .cls-3, .cls-4 {
        stroke-width: 0px;
      }

      .cls-2 {
        fill: #ed706b;
      }

      .cls-3 {
        fill: #f19f9c;
      }

      .cls-4 {
        fill: #004241;
      }
    </style>
  </defs>
  <g id="spam">
    <g id="area">
      <rect class="cls-1" width="112" height="112"/>
    </g>
    <g id="spam-2" data-name="spam">
      <g>
        <path class="cls-2" d="m95.55,22.96H16.45c-5.77,0-10.45,1.68-10.45,7.45v51.1c0,5.77,4.68,10.45,10.45,10.45l14.34-1.57c2.58-.28,5.18-.07,7.68.63l1.42.4c3.61,1.01,7.44,1,11.05-.03h0c3.26-.93,6.7-1.03,10.01-.29l7.15,1.6c3.72.83,7.59.6,11.18-.67l.65-.23c3.39-1.2,7.04-1.47,10.57-.8l5.05.97c5.77,0,10.45-4.68,10.45-10.45V30.41c0-5.77-4.68-7.45-10.45-7.45Z"/>
        <path class="cls-4" d="m72.52,95.18c-1.63,0-3.26-.18-4.87-.54l-7.15-1.6c-2.97-.67-6.09-.57-9.02.26-3.97,1.13-8.16,1.15-12.13.04l-1.42-.4c-2.26-.63-4.59-.82-6.92-.57l-14.34,1.57c-.07,0-.15.01-.22.01-6.86,0-12.45-5.58-12.45-12.45V30.41c0-4.31,2.16-9.45,12.45-9.45h79.1c10.29,0,12.45,5.14,12.45,9.45v51.1c0,6.86-5.58,12.45-12.45,12.45-.13,0-.25-.01-.38-.04l-5.05-.97c-3.18-.61-6.48-.36-9.53.72l-.65.23c-2.4.85-4.91,1.27-7.42,1.27Zm-16.01-6.58c1.63,0,3.26.18,4.86.54l7.15,1.6c3.35.75,6.84.54,10.08-.6l.65-.23c3.72-1.31,7.74-1.62,11.61-.87l4.86.93c4.58-.1,8.27-3.85,8.27-8.45V30.41c0-1.63,0-5.45-8.45-5.45H16.45c-8.45,0-8.45,3.82-8.45,5.45v51.1c0,4.62,3.73,8.39,8.34,8.45l14.23-1.56c2.84-.31,5.68-.08,8.43.69l1.42.4c3.26.91,6.7.9,9.96-.03,2-.57,4.06-.86,6.13-.86Z"/>
      </g>
      <path class="cls-4" d="m11.46,91.66c-.51,0-1.02-.2-1.41-.59-.78-.78-.78-2.05,0-2.83l28.98-28.98c.78-.78,2.05-.78,2.83,0,.78.78.78,2.05,0,2.83l-28.98,28.98c-.39.39-.9.59-1.41.59Z"/>
      <path class="cls-4" d="m99.83,91.66c-.51,0-1.02-.2-1.41-.59l-29.46-29.46c-.78-.78-.78-2.05,0-2.83.78-.78,2.05-.78,2.83,0l29.46,29.46c.78.78.78,2.05,0,2.83-.39.39-.9.59-1.41.59Z"/>
      <g>
        <path class="cls-3" d="m104.91,25.78c-1.71-3.44-5.25-5.82-9.36-5.82l-12.83,1.51c-2.76.32-5.55.09-8.21-.68l-3.96-1.15c-3.78-1.1-7.79-1.1-11.57,0l-3.23.94c-3.14.91-6.44,1.07-9.65.46l-1.22-.23c-2.93-.55-5.94-.47-8.83.24h0c-2.47.61-5.03.76-7.56.44l-12.04-1.52c-4.27,0-7.94,2.57-9.56,6.24l.61.53,38.04,38.04c5.6,5.6,14.68,5.6,20.28,0l38.46-38.46.65-.54Z"/>
        <path class="cls-4" d="m55.67,70.97c-4.18,0-8.37-1.59-11.55-4.78L6.12,28.2l-.56-.49c-.65-.58-.86-1.51-.51-2.3,1.99-4.52,6.46-7.44,11.39-7.44.08,0,.17,0,.25.02l12.04,1.52c2.29.29,4.59.16,6.83-.4,3.19-.79,6.45-.87,9.68-.26l1.23.23c2.89.55,5.9.4,8.72-.42l3.22-.94c4.15-1.2,8.54-1.2,12.69,0l3.96,1.15c2.42.7,4.92.91,7.42.62l12.83-1.51c.08,0,.16-.01.23-.01,4.76,0,9.03,2.65,11.15,6.93.41.83.2,1.83-.51,2.42l-.58.48-38.39,38.39c-3.18,3.19-7.37,4.78-11.55,4.78ZM9.38,25.8l37.57,37.57c4.81,4.81,12.64,4.81,17.45,0l37.96-37.96c-1.55-2.12-4-3.41-6.69-3.44l-12.7,1.49c-3.04.36-6.07.11-9-.75l-3.96-1.15c-3.42-.99-7.04-.99-10.46,0l-3.23.94c-3.42.99-7.08,1.17-10.58.5l-1.23-.23c-2.66-.5-5.35-.43-7.98.22-2.72.67-5.51.83-8.29.48l-11.91-1.5c-2.83.04-5.43,1.5-6.95,3.83Z"/>
      </g>
    </g>
  </g>
</svg>