<svg xmlns="http://www.w3.org/2000/svg" id="flatten_icons" data-name="flatten icons" viewBox="0 0 112 112"><defs><style>.cls-4{stroke-width:0;fill:#004241}</style></defs><g id="spam"><path id="area" d="M0 0h112v112H0z" style="fill:none;stroke-width:0"/><g id="spam-2" data-name="spam"><path d="M95.55 22.96h-79.1C10.68 22.96 6 24.64 6 30.41v51.1c0 5.77 4.68 10.45 10.45 10.45l14.34-1.57c2.58-.28 5.18-.07 7.68.63l1.42.4c3.61 1.01 7.44 1 11.05-.03 3.26-.93 6.7-1.03 10.01-.29l7.15 1.6c3.72.83 7.59.6 11.18-.67l.65-.23c3.39-1.2 7.04-1.47 10.57-.8l5.05.97c5.77 0 10.45-4.68 10.45-10.45V30.41c0-5.77-4.68-7.45-10.45-7.45" style="stroke-width:0;fill:#ed706b"/><path d="M72.52 95.18c-1.63 0-3.26-.18-4.87-.54l-7.15-1.6a18.4 18.4 0 0 0-9.02.26 22.3 22.3 0 0 1-12.13.04l-1.42-.4a18.4 18.4 0 0 0-6.92-.57l-14.34 1.57c-.07 0-.15.01-.22.01C9.59 93.95 4 88.37 4 81.5V30.41c0-4.31 2.16-9.45 12.45-9.45h79.1c10.29 0 12.45 5.14 12.45 9.45v51.1c0 6.86-5.58 12.45-12.45 12.45-.13 0-.25-.01-.38-.04l-5.05-.97a18.3 18.3 0 0 0-9.53.72l-.65.23c-2.4.85-4.91 1.27-7.42 1.27ZM56.51 88.6c1.63 0 3.26.18 4.86.54l7.15 1.6c3.35.75 6.84.54 10.08-.6l.65-.23c3.72-1.31 7.74-1.62 11.61-.87l4.86.93c4.58-.1 8.27-3.85 8.27-8.45V30.41c0-1.63 0-5.45-8.45-5.45H16.45C8 24.96 8 28.78 8 30.41v51.1c0 4.62 3.73 8.39 8.34 8.45l14.23-1.56c2.84-.31 5.68-.08 8.43.69l1.42.4c3.26.91 6.7.9 9.96-.03 2-.57 4.06-.86 6.13-.86" class="cls-4"/><path d="M11.46 91.66a2.004 2.004 0 0 1-1.41-3.42l28.98-28.98c.78-.78 2.05-.78 2.83 0s.78 2.05 0 2.83L12.88 91.07c-.39.39-.9.59-1.41.59Zm88.37 0c-.51 0-1.02-.2-1.41-.59L68.96 61.61c-.78-.78-.78-2.05 0-2.83s2.05-.78 2.83 0l29.46 29.46a2.004 2.004 0 0 1-1.41 3.42Z" class="cls-4"/><path d="M104.91 25.78c-1.71-3.44-5.25-5.82-9.36-5.82l-12.83 1.51c-2.76.32-5.55.09-8.21-.68l-3.96-1.15c-3.78-1.1-7.79-1.1-11.57 0l-3.23.94c-3.14.91-6.44 1.07-9.65.46l-1.22-.23c-2.93-.55-5.94-.47-8.83.24-2.47.61-5.03.76-7.56.44l-12.04-1.52c-4.27 0-7.94 2.57-9.56 6.24l.61.53 38.04 38.04c5.6 5.6 14.68 5.6 20.28 0l38.46-38.46.65-.54Z" style="stroke-width:0;fill:#f19f9c"/><path d="M55.67 70.97c-4.18 0-8.37-1.59-11.55-4.78l-38-37.99-.56-.49c-.65-.58-.86-1.51-.51-2.3 1.99-4.52 6.46-7.44 11.39-7.44.08 0 .17 0 .25.02l12.04 1.52c2.29.29 4.59.16 6.83-.4 3.19-.79 6.45-.87 9.68-.26l1.23.23c2.89.55 5.9.4 8.72-.42l3.22-.94c4.15-1.2 8.54-1.2 12.69 0l3.96 1.15c2.42.7 4.92.91 7.42.62l12.83-1.51c.08 0 .16-.01.23-.01 4.76 0 9.03 2.65 11.15 6.93.41.83.2 1.83-.51 2.42l-.58.48-38.39 38.39c-3.18 3.19-7.37 4.78-11.55 4.78ZM9.38 25.8l37.57 37.57c4.81 4.81 12.64 4.81 17.45 0l37.96-37.96c-1.55-2.12-4-3.41-6.69-3.44l-12.7 1.49c-3.04.36-6.07.11-9-.75l-3.96-1.15a18.8 18.8 0 0 0-10.46 0l-3.23.94c-3.42.99-7.08 1.17-10.58.5l-1.23-.23c-2.66-.5-5.35-.43-7.98.22-2.72.67-5.51.83-8.29.48l-11.91-1.5c-2.83.04-5.43 1.5-6.95 3.83" class="cls-4"/></g></g></svg>