<?xml version="1.0" encoding="UTF-8"?>
<svg id="flatten_icons" data-name="flatten icons" xmlns="http://www.w3.org/2000/svg" viewBox="0 0 112 112">
  <defs>
    <style>
      .cls-1 {
        fill: none;
      }

      .cls-1, .cls-2, .cls-3, .cls-4 {
        stroke-width: 0px;
      }

      .cls-2 {
        fill: #d8e7ec;
      }

      .cls-3 {
        fill: #b3e3f0;
      }

      .cls-4 {
        fill: #004241;
      }
    </style>
  </defs>
  <g id="data">
    <g id="area">
      <rect class="cls-1" width="112" height="112"/>
    </g>
    <g id="data-2" data-name="data">
      <g>
        <path class="cls-2" d="m94.35,61.22c.24-1.71.38-3.45.38-5.22,0-20.33-16.48-36.81-36.81-36.81-17.6,0-32.31,12.36-35.94,28.86-11.23,1.23-19.98,10.75-19.98,22.31,0,12.4,10.05,22.45,22.45,22.45h69.75c8.73,0,15.8-7.07,15.8-15.8s-6.99-15.71-15.65-15.79Z"/>
        <path class="cls-4" d="m94.2,94.81H24.45C10.97,94.81,0,83.84,0,70.36,0,58.35,8.65,48.23,20.35,46.26c4.38-16.93,19.96-29.07,37.57-29.07,21.4,0,38.81,17.41,38.81,38.81,0,1.11-.05,2.24-.15,3.38,8.68,1.17,15.42,8.66,15.42,17.63,0,9.81-7.99,17.8-17.8,17.8ZM57.92,21.19c-16.21,0-30.51,11.48-33.99,27.29-.18.84-.88,1.46-1.74,1.56-10.37,1.14-18.19,9.87-18.19,20.32,0,11.28,9.17,20.45,20.45,20.45h69.75c7.61,0,13.8-6.19,13.8-13.8s-6.13-13.72-13.67-13.79c-.58,0-1.12-.26-1.5-.7-.38-.44-.54-1.02-.46-1.59.24-1.66.36-3.32.36-4.94,0-19.2-15.62-34.81-34.81-34.81Z"/>
      </g>
      <path class="cls-4" d="m24.37,73.15c-.76,0-1.49-.44-1.82-1.18-8.81-19.5-.11-42.54,19.4-51.35,1.01-.45,2.19,0,2.65,1s0,2.19-1,2.65c-17.49,7.9-25.3,28.56-17.4,46.06.46,1.01,0,2.19-1,2.65-.27.12-.55.18-.82.18Z"/>
      <g>
        <circle class="cls-3" cx="58" cy="56" r="24.62"/>
        <path class="cls-4" d="m58,82.62c-14.68,0-26.62-11.94-26.62-26.62s11.94-26.62,26.62-26.62,26.62,11.94,26.62,26.62-11.94,26.62-26.62,26.62Zm0-49.23c-12.47,0-22.62,10.15-22.62,22.62s10.15,22.62,22.62,22.62,22.62-10.15,22.62-22.62-10.15-22.62-22.62-22.62Z"/>
      </g>
      <path class="cls-4" d="m55.55,66.48s-.03,0-.04,0c-.57-.01-1.1-.26-1.47-.69l-7-8.11c-.72-.84-.63-2.1.21-2.82.83-.72,2.1-.63,2.82.21l5.55,6.43,10.39-11.04c.76-.81,2.02-.84,2.83-.09.8.76.84,2.02.09,2.83l-11.91,12.66c-.38.4-.91.63-1.46.63Z"/>
    </g>
  </g>
</svg>