<svg xmlns="http://www.w3.org/2000/svg" id="flatten_icons" data-name="flatten icons" viewBox="0 0 112 112"><defs><style>.cls-4{stroke-width:0;fill:#004241}</style></defs><g id="streaming"><path id="area" d="M0 0h112v112H0z" style="fill:none;stroke-width:0"/><g id="streaming-2" data-name="streaming"><rect width="100" height="72" x="6" y="20" rx="10.45" ry="10.45" style="stroke-width:0;fill:#ed706b"/><path d="M95.55 94h-79.1C9.59 94 4 88.42 4 81.55v-51.1C4 23.59 9.58 18 16.45 18h79.1c6.86 0 12.45 5.58 12.45 12.45v51.1C108 88.41 102.42 94 95.55 94m-79.1-72C11.79 22 8 25.79 8 30.45v51.1C8 86.21 11.79 90 16.45 90h79.1c4.66 0 8.45-3.79 8.45-8.45v-51.1c0-4.66-3.79-8.45-8.45-8.45z" class="cls-4"/><path d="M46.26 46.1v19.8c0 2.06 2.21 3.36 4.01 2.36l18.1-10.05c1.86-1.03 1.85-3.72-.03-4.73l-18.1-9.75c-1.8-.97-3.98.33-3.98 2.37" style="stroke-width:0;fill:#fff"/><path d="M48.95 70.6c-.82 0-1.64-.22-2.38-.66a4.66 4.66 0 0 1-2.32-4.05v-19.8c0-1.67.86-3.18 2.29-4.03a4.66 4.66 0 0 1 4.64-.1l18.1 9.75a4.71 4.71 0 0 1 2.47 4.11c.01 1.72-.92 3.3-2.42 4.14L51.24 70.01c-.72.4-1.5.6-2.28.6Zm0-25.2c-.16 0-.28.06-.36.1a.67.67 0 0 0-.34.6v19.8c0 .35.21.53.34.6s.39.18.69 0l18.09-10.05c.31-.17.36-.46.36-.61s-.05-.44-.37-.61l-18.09-9.75a.75.75 0 0 0-.33-.09Z" class="cls-4"/></g></g></svg>