<?xml version="1.0" encoding="UTF-8"?>
<svg id="flatten_icons" data-name="flatten icons" xmlns="http://www.w3.org/2000/svg" viewBox="0 0 112 112">
  <defs>
    <style>
      .cls-1 {
        fill: none;
      }

      .cls-1, .cls-2, .cls-3, .cls-4 {
        stroke-width: 0px;
      }

      .cls-2 {
        fill: #fff;
      }

      .cls-3 {
        fill: #ed706b;
      }

      .cls-4 {
        fill: #004241;
      }
    </style>
  </defs>
  <g id="streaming">
    <g id="area">
      <rect class="cls-1" width="112" height="112"/>
    </g>
    <g id="streaming-2" data-name="streaming">
      <g>
        <rect class="cls-3" x="6" y="20" width="100" height="72" rx="10.45" ry="10.45"/>
        <path class="cls-4" d="m95.55,94H16.45c-6.86,0-12.45-5.58-12.45-12.45V30.45c0-6.86,5.58-12.45,12.45-12.45h79.1c6.86,0,12.45,5.58,12.45,12.45v51.1c0,6.86-5.58,12.45-12.45,12.45ZM16.45,22c-4.66,0-8.45,3.79-8.45,8.45v51.1c0,4.66,3.79,8.45,8.45,8.45h79.1c4.66,0,8.45-3.79,8.45-8.45V30.45c0-4.66-3.79-8.45-8.45-8.45H16.45Z"/>
      </g>
      <g>
        <path class="cls-2" d="m46.26,46.1v19.8c0,2.06,2.21,3.36,4.01,2.36l18.1-10.05c1.86-1.03,1.85-3.72-.03-4.73l-18.1-9.75c-1.8-.97-3.98.33-3.98,2.37Z"/>
        <path class="cls-4" d="m48.95,70.6c-.82,0-1.64-.22-2.38-.66-1.45-.85-2.32-2.37-2.32-4.05v-19.8c0-1.67.86-3.18,2.29-4.03,1.43-.86,3.17-.89,4.64-.1l18.1,9.75c1.51.82,2.46,2.39,2.47,4.11.01,1.72-.92,3.3-2.42,4.14l-18.09,10.05c-.72.4-1.5.6-2.28.6Zm0-25.2c-.16,0-.28.06-.36.1-.13.08-.34.25-.34.6v19.8c0,.35.21.53.34.6s.39.18.69,0l18.09-10.05c.31-.17.36-.46.36-.61s-.05-.44-.37-.61l-18.09-9.75c-.12-.06-.23-.09-.33-.09Z"/>
      </g>
    </g>
  </g>
</svg>