<?xml version="1.0" encoding="UTF-8"?>
<svg id="flatten_icons" xmlns="http://www.w3.org/2000/svg" viewBox="0 0 112 112">
  <defs>
    <style>
      .cls-1 {
        fill: none;
      }

      .cls-2 {
        fill: #f4f4ea;
      }

      .cls-3 {
        fill: #fff;
      }

      .cls-4 {
        fill: #aad681;
      }

      .cls-5 {
        fill: #f98f80;
      }

      .cls-6 {
        fill: #86c487;
      }

      .cls-7 {
        fill: #004241;
      }

      .cls-8 {
        fill: #558e66;
      }
    </style>
  </defs>
  <g id="sushismakis">
    <rect class="cls-1" width="112" height="112"/>
    <g>
      <g>
        <rect class="cls-5" x="16" y="15.49" width="40" height="50.73" rx="8.29" ry="8.29"/>
        <path class="cls-7" d="M47.71,68.22h-23.42c-5.67,0-10.29-4.62-10.29-10.29V23.78c0-5.67,4.62-10.29,10.29-10.29h23.42c5.67,0,10.29,4.62,10.29,10.29v34.15c0,5.67-4.62,10.29-10.29,10.29ZM24.29,17.49c-3.47,0-6.29,2.82-6.29,6.29v34.15c0,3.47,2.82,6.29,6.29,6.29h23.42c3.47,0,6.29-2.82,6.29-6.29V23.78c0-3.47-2.82-6.29-6.29-6.29h-23.42Z"/>
      </g>
      <g>
        <rect class="cls-8" x="16" y="49.27" width="40" height="50.73" rx="8.29" ry="8.29"/>
        <path class="cls-7" d="M47.71,102h-23.42c-5.67,0-10.29-4.62-10.29-10.29v-34.15c0-5.67,4.62-10.29,10.29-10.29h23.42c5.67,0,10.29,4.62,10.29,10.29v34.15c0,5.67-4.62,10.29-10.29,10.29ZM24.29,51.27c-3.47,0-6.29,2.82-6.29,6.29v34.15c0,3.47,2.82,6.29,6.29,6.29h23.42c3.47,0,6.29-2.82,6.29-6.29v-34.15c0-3.47-2.82-6.29-6.29-6.29h-23.42Z"/>
      </g>
      <g>
        <rect class="cls-2" x="16" y="12" width="40" height="30.52" rx="8.29" ry="8.29"/>
        <path class="cls-7" d="M47.71,44.52h-23.42c-5.67,0-10.29-4.62-10.29-10.29v-13.94c0-5.67,4.62-10.29,10.29-10.29h23.42c5.67,0,10.29,4.62,10.29,10.29v13.94c0,5.67-4.62,10.29-10.29,10.29ZM24.29,14c-3.47,0-6.29,2.82-6.29,6.29v13.94c0,3.47,2.82,6.29,6.29,6.29h23.42c3.47,0,6.29-2.82,6.29-6.29v-13.94c0-3.47-2.82-6.29-6.29-6.29h-23.42Z"/>
      </g>
      <g>
        <rect class="cls-2" x="16" y="42.52" width="40" height="30.52" rx="15.26" ry="15.26"/>
        <path class="cls-7" d="M40.74,75.03h-9.48c-9.52,0-17.26-7.74-17.26-17.26s7.74-17.26,17.26-17.26h9.48c9.52,0,17.26,7.74,17.26,17.26s-7.74,17.26-17.26,17.26ZM31.26,44.52c-7.31,0-13.26,5.95-13.26,13.26s5.95,13.26,13.26,13.26h9.48c7.31,0,13.26-5.95,13.26-13.26s-5.95-13.26-13.26-13.26h-9.48Z"/>
      </g>
      <g>
        <path class="cls-5" d="M71.19,44.61h9.63c8.38,0,15.19,6.81,15.19,15.19v31.91c0,4.58-3.71,8.29-8.29,8.29h-23.42c-4.58,0-8.29-3.71-8.29-8.29v-31.91c0-8.38,6.81-15.19,15.19-15.19Z"/>
        <path class="cls-7" d="M87.71,102h-23.42c-5.67,0-10.29-4.62-10.29-10.29v-31.92c0-9.48,7.71-17.19,17.19-17.19h9.63c9.48,0,17.19,7.71,17.19,17.19v31.92c0,5.67-4.62,10.29-10.29,10.29ZM71.19,46.61c-7.27,0-13.19,5.92-13.19,13.19v31.92c0,3.47,2.82,6.29,6.29,6.29h23.42c3.47,0,6.29-2.82,6.29-6.29v-31.92c0-7.27-5.92-13.19-13.19-13.19h-9.63Z"/>
      </g>
      <g>
        <path class="cls-8" d="M71.19,13.16h9.63c8.38,0,15.19,6.81,15.19,15.19v31.91c0,4.58-3.71,8.29-8.29,8.29h-23.42c-4.58,0-8.29-3.71-8.29-8.29v-31.91c0-8.38,6.81-15.19,15.19-15.19Z"/>
        <path class="cls-7" d="M87.71,70.55h-23.42c-5.67,0-10.29-4.62-10.29-10.29v-31.92c0-9.48,7.71-17.19,17.19-17.19h9.63c9.48,0,17.19,7.71,17.19,17.19v31.92c0,5.67-4.62,10.29-10.29,10.29ZM71.19,15.16c-7.27,0-13.19,5.92-13.19,13.19v31.92c0,3.47,2.82,6.29,6.29,6.29h23.42c3.47,0,6.29-2.82,6.29-6.29v-31.92c0-7.27-5.92-13.19-13.19-13.19h-9.63Z"/>
      </g>
      <path class="cls-3" d="M65.93,101.16c-.54,0-1.08-.22-1.47-.65-.75-.81-.69-2.08.12-2.83.17-.17,4.6-4.64-1.26-13.87-5.42-8.54-.58-17.55-.37-17.93.53-.97,1.75-1.32,2.72-.79.97.53,1.32,1.74.79,2.71h0c-.16.3-3.89,7.35.24,13.87,7.73,12.17.89,18.69.59,18.96-.38.35-.87.53-1.35.53Z"/>
      <path class="cls-3" d="M78.38,101.16c-.41,0-.82-.12-1.17-.38-.89-.65-1.09-1.9-.45-2.79.1-.16,2.99-4.74-3-14.17-5.55-8.74,1.51-17.83,1.81-18.21.69-.87,1.94-1.01,2.81-.33s1.01,1.94.33,2.8h0c-.23.29-5.59,7.27-1.57,13.59,7.56,11.91,3.06,18.39,2.86,18.66-.39.54-1,.83-1.62.83Z"/>
      <path class="cls-3" d="M90.73,101.16c-.23,0-.46-.04-.68-.12-1.04-.38-1.58-1.52-1.2-2.56,0,0,1.43-4.95-4.74-14.66-5.66-8.91,3.59-18.02,3.99-18.41.79-.77,2.06-.75,2.83.05.77.79.75,2.06-.04,2.83h0c-.07.07-7.3,7.23-3.4,13.39,7.24,11.4,5.36,17.51,5.12,18.17-.29.81-1.06,1.32-1.88,1.32Z"/>
      <g>
        <rect class="cls-2" x="56" y="12" width="40" height="30.52" rx="15.26" ry="15.26"/>
        <path class="cls-7" d="M80.74,44.52h-9.48c-9.52,0-17.26-7.74-17.26-17.26s7.74-17.26,17.26-17.26h9.48c9.52,0,17.26,7.74,17.26,17.26s-7.74,17.26-17.26,17.26ZM71.26,14c-7.31,0-13.26,5.95-13.26,13.26s5.95,13.26,13.26,13.26h9.48c7.31,0,13.26-5.95,13.26-13.26s-5.95-13.26-13.26-13.26h-9.48Z"/>
      </g>
      <g>
        <rect class="cls-2" x="56" y="42.52" width="40" height="30.52" rx="8.29" ry="8.29"/>
        <path class="cls-7" d="M87.71,75.03h-23.42c-5.67,0-10.29-4.62-10.29-10.29v-13.94c0-5.67,4.62-10.29,10.29-10.29h23.42c5.67,0,10.29,4.62,10.29,10.29v13.94c0,5.67-4.62,10.29-10.29,10.29ZM64.29,44.52c-3.47,0-6.29,2.82-6.29,6.29v13.94c0,3.47,2.82,6.29,6.29,6.29h23.42c3.47,0,6.29-2.82,6.29-6.29v-13.94c0-3.47-2.82-6.29-6.29-6.29h-23.42Z"/>
      </g>
      <g>
        <rect class="cls-4" x="27.71" y="22.54" width="16.58" height="9.44" rx="2.77" ry="2.77"/>
        <path class="cls-7" d="M41.52,33.98h-11.05c-2.63,0-4.77-2.14-4.77-4.77v-3.91c0-2.63,2.14-4.77,4.77-4.77h11.05c2.63,0,4.77,2.14,4.77,4.77v3.91c0,2.63-2.14,4.77-4.77,4.77ZM30.48,24.54c-.42,0-.77.34-.77.77v3.91c0,.42.34.77.77.77h11.05c.42,0,.77-.34.77-.77v-3.91c0-.42-.34-.77-.77-.77h-11.05Z"/>
      </g>
      <g>
        <rect class="cls-6" x="67.71" y="53.06" width="16.58" height="9.44" rx="2.77" ry="2.77"/>
        <path class="cls-7" d="M81.52,64.5h-11.05c-2.63,0-4.77-2.14-4.77-4.77v-3.91c0-2.63,2.14-4.77,4.77-4.77h11.05c2.63,0,4.77,2.14,4.77,4.77v3.91c0,2.63-2.14,4.77-4.77,4.77ZM70.48,55.06c-.42,0-.77.34-.77.77v3.91c0,.42.34.77.77.77h11.05c.42,0,.77-.34.77-.77v-3.91c0-.42-.34-.77-.77-.77h-11.05Z"/>
      </g>
      <path class="cls-7" d="M87.71,102h-23.42c-5.67,0-10.29-4.62-10.29-10.29v-31.92c0-1.1.9-2,2-2s2,.9,2,2v31.92c0,3.47,2.82,6.29,6.29,6.29h23.42c3.47,0,6.29-2.82,6.29-6.29v-31.92c0-1.1.9-2,2-2s2,.9,2,2v31.92c0,5.67-4.62,10.29-10.29,10.29Z"/>
      <circle class="cls-3" cx="68.34" cy="18.53" r="3.04"/>
      <circle class="cls-3" cx="62.76" cy="26.18" r="3.04"/>
      <circle class="cls-3" cx="88.66" cy="25.57" r="3.04"/>
      <circle class="cls-3" cx="70.62" cy="36.21" r="3.04"/>
      <circle class="cls-3" cx="83.52" cy="18.31" r="3.04"/>
      <circle class="cls-3" cx="48.82" cy="58.4" r="3.04"/>
      <circle class="cls-3" cx="24.03" cy="53.06" r="3.04"/>
      <circle class="cls-3" cx="27.07" cy="66.23" r="3.04"/>
      <circle class="cls-3" cx="22.53" cy="19.5" r="3.04"/>
      <circle class="cls-3" cx="48.82" cy="35.01" r="3.04"/>
      <circle class="cls-3" cx="48.82" cy="20.71" r="3.04"/>
      <circle class="cls-3" cx="37.74" cy="17.17" r="3.04"/>
      <circle class="cls-3" cx="32.48" cy="37.25" r="3.04"/>
      <circle class="cls-3" cx="65.17" cy="48.27" r="3.04"/>
      <circle class="cls-3" cx="61.86" cy="59.35" r="3.04"/>
      <circle class="cls-3" cx="87.96" cy="66.85" r="3.04"/>
      <circle class="cls-3" cx="83.52" cy="47.79" r="3.04"/>
      <circle class="cls-3" cx="76.59" cy="67.76" r="3.04"/>
      <path class="cls-7" d="M16,89.38c-.81,0-1.57-.49-1.87-1.29-.39-1.03.13-2.19,1.16-2.58,9.43-3.58,17.3-13.6,17.38-13.7.68-.87,1.93-1.03,2.81-.35.87.68,1.03,1.93.35,2.8-.35.45-8.62,11-19.12,14.98-.23.09-.47.13-.71.13Z"/>
      <path class="cls-7" d="M37.52,95.31c-.81,0-1.57-.49-1.87-1.29-.39-1.03.13-2.19,1.16-2.58,9.42-3.58,17.3-13.66,17.38-13.76.67-.87,1.93-1.03,2.81-.36.87.68,1.04,1.93.36,2.8-.35.45-8.63,11.07-19.12,15.05-.23.09-.47.13-.71.13Z"/>
      <g>
        <rect class="cls-5" x="29.12" y="52.02" width="13.76" height="11.51" rx="4.72" ry="4.72"/>
        <path class="cls-7" d="M38.16,65.53h-4.32c-3.71,0-6.72-3.01-6.72-6.72v-2.07c0-3.71,3.01-6.72,6.72-6.72h4.32c3.71,0,6.72,3.01,6.72,6.72v2.07c0,3.71-3.01,6.72-6.72,6.72ZM33.84,54.02c-1.5,0-2.72,1.22-2.72,2.72v2.07c0,1.5,1.22,2.72,2.72,2.72h4.32c1.5,0,2.72-1.22,2.72-2.72v-2.07c0-1.5-1.22-2.72-2.72-2.72h-4.32Z"/>
      </g>
      <g>
        <rect class="cls-5" x="70.2" y="21.69" width="13.31" height="11.14" rx="4.72" ry="4.72"/>
        <path class="cls-7" d="M78.8,34.83h-3.87c-3.71,0-6.72-3.01-6.72-6.72v-1.7c0-3.71,3.01-6.72,6.72-6.72h3.87c3.71,0,6.72,3.01,6.72,6.72v1.7c0,3.71-3.01,6.72-6.72,6.72ZM74.92,23.69c-1.5,0-2.72,1.22-2.72,2.72v1.7c0,1.5,1.22,2.72,2.72,2.72h3.87c1.5,0,2.72-1.22,2.72-2.72v-1.7c0-1.5-1.22-2.72-2.72-2.72h-3.87Z"/>
      </g>
    </g>
  </g>
</svg>