<svg xmlns="http://www.w3.org/2000/svg" id="flatten_icons" viewBox="0 0 112 112"><defs><style>.cls-2{fill:#f4f4ea}.cls-3{fill:#fff}.cls-5{fill:#f98f80}.cls-7{fill:#004241}.cls-8{fill:#558e66}</style></defs><g id="sushismakis"><path d="M0 0h112v112H0z" style="fill:none"/><rect width="40" height="50.73" x="16" y="15.49" class="cls-5" rx="8.29" ry="8.29"/><path d="M47.71 68.22H24.29C18.62 68.22 14 63.6 14 57.93V23.78c0-5.67 4.62-10.29 10.29-10.29h23.42c5.67 0 10.29 4.62 10.29 10.29v34.15c0 5.67-4.62 10.29-10.29 10.29M24.29 17.49c-3.47 0-6.29 2.82-6.29 6.29v34.15c0 3.47 2.82 6.29 6.29 6.29h23.42c3.47 0 6.29-2.82 6.29-6.29V23.78c0-3.47-2.82-6.29-6.29-6.29z" class="cls-7"/><rect width="40" height="50.73" x="16" y="49.27" class="cls-8" rx="8.29" ry="8.29"/><path d="M47.71 102H24.29C18.62 102 14 97.38 14 91.71V57.56c0-5.67 4.62-10.29 10.29-10.29h23.42c5.67 0 10.29 4.62 10.29 10.29v34.15C58 97.38 53.38 102 47.71 102M24.29 51.27c-3.47 0-6.29 2.82-6.29 6.29v34.15c0 3.47 2.82 6.29 6.29 6.29h23.42c3.47 0 6.29-2.82 6.29-6.29V57.56c0-3.47-2.82-6.29-6.29-6.29z" class="cls-7"/><rect width="40" height="30.52" x="16" y="12" class="cls-2" rx="8.29" ry="8.29"/><path d="M47.71 44.52H24.29C18.62 44.52 14 39.9 14 34.23V20.29C14 14.62 18.62 10 24.29 10h23.42C53.38 10 58 14.62 58 20.29v13.94c0 5.67-4.62 10.29-10.29 10.29M24.29 14C20.82 14 18 16.82 18 20.29v13.94c0 3.47 2.82 6.29 6.29 6.29h23.42c3.47 0 6.29-2.82 6.29-6.29V20.29c0-3.47-2.82-6.29-6.29-6.29z" class="cls-7"/><rect width="40" height="30.52" x="16" y="42.52" class="cls-2" rx="15.26" ry="15.26"/><path d="M40.74 75.03h-9.48C21.74 75.03 14 67.29 14 57.77s7.74-17.26 17.26-17.26h9.48c9.52 0 17.26 7.74 17.26 17.26s-7.74 17.26-17.26 17.26m-9.48-30.51C23.95 44.52 18 50.47 18 57.78s5.95 13.26 13.26 13.26h9.48c7.31 0 13.26-5.95 13.26-13.26s-5.95-13.26-13.26-13.26z" class="cls-7"/><path d="M71.19 44.61h9.63c8.38 0 15.19 6.81 15.19 15.19v31.91c0 4.58-3.71 8.29-8.29 8.29H64.3c-4.58 0-8.29-3.71-8.29-8.29V59.8c0-8.38 6.81-15.19 15.19-15.19Z" class="cls-5"/><path d="M87.71 102H64.29C58.62 102 54 97.38 54 91.71V59.79c0-9.48 7.71-17.19 17.19-17.19h9.63c9.48 0 17.19 7.71 17.19 17.19v31.92c0 5.67-4.62 10.29-10.29 10.29ZM71.19 46.61C63.92 46.61 58 52.53 58 59.8v31.92c0 3.47 2.82 6.29 6.29 6.29h23.42c3.47 0 6.29-2.82 6.29-6.29V59.8c0-7.27-5.92-13.19-13.19-13.19h-9.63Z" class="cls-7"/><path d="M71.19 13.16h9.63c8.38 0 15.19 6.81 15.19 15.19v31.91c0 4.58-3.71 8.29-8.29 8.29H64.3c-4.58 0-8.29-3.71-8.29-8.29V28.35c0-8.38 6.81-15.19 15.19-15.19Z" class="cls-8"/><path d="M87.71 70.55H64.29C58.62 70.55 54 65.93 54 60.26V28.34c0-9.48 7.71-17.19 17.19-17.19h9.63c9.48 0 17.19 7.71 17.19 17.19v31.92c0 5.67-4.62 10.29-10.29 10.29ZM71.19 15.16C63.92 15.16 58 21.08 58 28.35v31.92c0 3.47 2.82 6.29 6.29 6.29h23.42c3.47 0 6.29-2.82 6.29-6.29V28.35c0-7.27-5.92-13.19-13.19-13.19h-9.63Z" class="cls-7"/><path d="M65.93 101.16a2.006 2.006 0 0 1-1.35-3.48c.17-.17 4.6-4.64-1.26-13.87-5.42-8.54-.58-17.55-.37-17.93.53-.97 1.75-1.32 2.72-.79s1.32 1.74.79 2.71c-.16.3-3.89 7.35.24 13.87 7.73 12.17.89 18.69.59 18.96-.38.35-.87.53-1.35.53Zm12.45 0c-.41 0-.82-.12-1.17-.38a2.01 2.01 0 0 1-.45-2.79c.1-.16 2.99-4.74-3-14.17-5.55-8.74 1.51-17.83 1.81-18.21.69-.87 1.94-1.01 2.81-.33s1.01 1.94.33 2.8c-.23.29-5.59 7.27-1.57 13.59 7.56 11.91 3.06 18.39 2.86 18.66-.39.54-1 .83-1.62.83m12.35 0a1.995 1.995 0 0 1-1.88-2.68s1.43-4.95-4.74-14.66c-5.66-8.91 3.59-18.02 3.99-18.41.79-.77 2.06-.75 2.83.05.77.79.75 2.06-.04 2.83-.07.07-7.3 7.23-3.4 13.39 7.24 11.4 5.36 17.51 5.12 18.17a2 2 0 0 1-1.88 1.32Z" class="cls-3"/><rect width="40" height="30.52" x="56" y="12" class="cls-2" rx="15.26" ry="15.26"/><path d="M80.74 44.52h-9.48C61.74 44.52 54 36.78 54 27.26S61.74 10 71.26 10h9.48C90.26 10 98 17.74 98 27.26s-7.74 17.26-17.26 17.26M71.26 14C63.95 14 58 19.95 58 27.26s5.95 13.26 13.26 13.26h9.48c7.31 0 13.26-5.95 13.26-13.26S88.05 14 80.74 14z" class="cls-7"/><rect width="40" height="30.52" x="56" y="42.52" class="cls-2" rx="8.29" ry="8.29"/><path d="M87.71 75.03H64.29C58.62 75.03 54 70.41 54 64.74V50.8c0-5.67 4.62-10.29 10.29-10.29h23.42C93.38 40.51 98 45.13 98 50.8v13.94c0 5.67-4.62 10.29-10.29 10.29M64.29 44.52c-3.47 0-6.29 2.82-6.29 6.29v13.94c0 3.47 2.82 6.29 6.29 6.29h23.42c3.47 0 6.29-2.82 6.29-6.29V50.81c0-3.47-2.82-6.29-6.29-6.29z" class="cls-7"/><rect width="16.58" height="9.44" x="27.71" y="22.54" rx="2.77" ry="2.77" style="fill:#aad681"/><path d="M41.52 33.98H30.47c-2.63 0-4.77-2.14-4.77-4.77V25.3c0-2.63 2.14-4.77 4.77-4.77h11.05c2.63 0 4.77 2.14 4.77 4.77v3.91c0 2.63-2.14 4.77-4.77 4.77m-11.04-9.44a.77.77 0 0 0-.77.77v3.91c0 .42.34.77.77.77h11.05c.42 0 .77-.34.77-.77v-3.91a.77.77 0 0 0-.77-.77z" class="cls-7"/><rect width="16.58" height="9.44" x="67.71" y="53.06" rx="2.77" ry="2.77" style="fill:#86c487"/><path d="M81.52 64.5H70.47c-2.63 0-4.77-2.14-4.77-4.77v-3.91c0-2.63 2.14-4.77 4.77-4.77h11.05c2.63 0 4.77 2.14 4.77 4.77v3.91c0 2.63-2.14 4.77-4.77 4.77m-11.04-9.44a.77.77 0 0 0-.77.77v3.91c0 .42.34.77.77.77h11.05c.42 0 .77-.34.77-.77v-3.91a.77.77 0 0 0-.77-.77z" class="cls-7"/><path d="M87.71 102H64.29C58.62 102 54 97.38 54 91.71V59.79c0-1.1.9-2 2-2s2 .9 2 2v31.92c0 3.47 2.82 6.29 6.29 6.29h23.42c3.47 0 6.29-2.82 6.29-6.29V59.79c0-1.1.9-2 2-2s2 .9 2 2v31.92C98 97.38 93.38 102 87.71 102" class="cls-7"/><circle cx="68.34" cy="18.53" r="3.04" class="cls-3"/><circle cx="62.76" cy="26.18" r="3.04" class="cls-3"/><circle cx="88.66" cy="25.57" r="3.04" class="cls-3"/><circle cx="70.62" cy="36.21" r="3.04" class="cls-3"/><circle cx="83.52" cy="18.31" r="3.04" class="cls-3"/><circle cx="48.82" cy="58.4" r="3.04" class="cls-3"/><circle cx="24.03" cy="53.06" r="3.04" class="cls-3"/><circle cx="27.07" cy="66.23" r="3.04" class="cls-3"/><circle cx="22.53" cy="19.5" r="3.04" class="cls-3"/><circle cx="48.82" cy="35.01" r="3.04" class="cls-3"/><circle cx="48.82" cy="20.71" r="3.04" class="cls-3"/><circle cx="37.74" cy="17.17" r="3.04" class="cls-3"/><circle cx="32.48" cy="37.25" r="3.04" class="cls-3"/><circle cx="65.17" cy="48.27" r="3.04" class="cls-3"/><circle cx="61.86" cy="59.35" r="3.04" class="cls-3"/><circle cx="87.96" cy="66.85" r="3.04" class="cls-3"/><circle cx="83.52" cy="47.79" r="3.04" class="cls-3"/><circle cx="76.59" cy="67.76" r="3.04" class="cls-3"/><path d="M16 89.38c-.81 0-1.57-.49-1.87-1.29-.39-1.03.13-2.19 1.16-2.58 9.43-3.58 17.3-13.6 17.38-13.7.68-.87 1.93-1.03 2.81-.35.87.68 1.03 1.93.35 2.8-.35.45-8.62 11-19.12 14.98-.23.09-.47.13-.71.13Zm21.52 5.93c-.81 0-1.57-.49-1.87-1.29-.39-1.03.13-2.19 1.16-2.58 9.42-3.58 17.3-13.66 17.38-13.76.67-.87 1.93-1.03 2.81-.36.87.68 1.04 1.93.36 2.8-.35.45-8.63 11.07-19.12 15.05-.23.09-.47.13-.71.13Z" class="cls-7"/><rect width="13.76" height="11.51" x="29.12" y="52.02" class="cls-5" rx="4.72" ry="4.72"/><path d="M38.16 65.53h-4.32c-3.71 0-6.72-3.01-6.72-6.72v-2.07c0-3.71 3.01-6.72 6.72-6.72h4.32c3.71 0 6.72 3.01 6.72 6.72v2.07c0 3.71-3.01 6.72-6.72 6.72m-4.32-11.51c-1.5 0-2.72 1.22-2.72 2.72v2.07c0 1.5 1.22 2.72 2.72 2.72h4.32c1.5 0 2.72-1.22 2.72-2.72v-2.07c0-1.5-1.22-2.72-2.72-2.72z" class="cls-7"/><rect width="13.31" height="11.14" x="70.2" y="21.69" class="cls-5" rx="4.72" ry="4.72"/><path d="M78.8 34.83h-3.87c-3.71 0-6.72-3.01-6.72-6.72v-1.7c0-3.71 3.01-6.72 6.72-6.72h3.87c3.71 0 6.72 3.01 6.72 6.72v1.7c0 3.71-3.01 6.72-6.72 6.72m-3.88-11.14c-1.5 0-2.72 1.22-2.72 2.72v1.7c0 1.5 1.22 2.72 2.72 2.72h3.87c1.5 0 2.72-1.22 2.72-2.72v-1.7c0-1.5-1.22-2.72-2.72-2.72z" class="cls-7"/></g></svg>