<?xml version="1.0" encoding="UTF-8"?>
<svg id="flatten_icons" data-name="flatten icons" xmlns="http://www.w3.org/2000/svg" viewBox="0 0 112 112">
  <defs>
    <style>
      .cls-1 {
        fill: none;
      }

      .cls-1, .cls-2, .cls-3, .cls-4, .cls-5, .cls-6 {
        stroke-width: 0px;
      }

      .cls-2 {
        fill: #dae9ed;
      }

      .cls-3 {
        fill: #b8c9ce;
      }

      .cls-4 {
        fill: #b3e3f0;
      }

      .cls-5 {
        fill: #e9e9da;
      }

      .cls-6 {
        fill: #004241;
      }
    </style>
  </defs>
  <g id="sweat-coton">
    <rect class="cls-1" x="0" width="112" height="112"/>
    <g>
      <g>
        <path class="cls-2" d="m21.35,15.62s-13.14,4.49-14.74,87.18l10.58,3.21s8.89-11.34,8.47-17.03,9.7-37.42,6.92-58.29c-2.78-20.87-11.22-15.06-11.22-15.06Z"/>
        <path class="cls-6" d="m17.18,108c-.19,0-.39-.03-.58-.09l-10.58-3.21c-.86-.26-1.44-1.06-1.42-1.95C6.1,25.53,17.45,15.21,20.41,13.84c1.2-.73,3.65-1.53,6.22-.39,3.99,1.77,6.66,7.48,7.92,16.97,1.93,14.49-2.15,33.81-4.85,46.59-1.16,5.51-2.17,10.26-2.05,11.82.46,6.29-7.93,17.19-8.88,18.41-.39.49-.97.77-1.57.77Zm-8.55-6.68l7.8,2.36c3.21-4.33,7.46-11.28,7.22-14.57-.15-2.02.63-5.83,2.13-12.94,2.64-12.52,6.64-31.43,4.8-45.24-1.44-10.82-4.35-13.27-5.53-13.82-1.34-.62-2.54.12-2.59.16-.2.13-.2.17-.37.21-1.02.76-11.89,10.63-13.45,83.83ZM21.35,15.62h0,0Z"/>
      </g>
      <g>
        <path class="cls-2" d="m90.66,15.62s13.14,4.49,14.74,87.18l-10.58,3.21s-8.89-11.34-8.47-17.03-9.7-37.42-6.92-58.29c2.78-20.87,11.22-15.06,11.22-15.06Z"/>
        <path class="cls-6" d="m94.83,108c-.6,0-1.19-.27-1.57-.77-.96-1.22-9.35-12.13-8.88-18.41.11-1.55-.89-6.31-2.05-11.82-2.7-12.78-6.78-32.1-4.85-46.59,1.26-9.48,3.93-15.19,7.92-16.97,2.57-1.14,5.02-.34,6.22.39,2.97,1.37,14.31,11.69,15.81,88.92.02.9-.56,1.69-1.42,1.95l-10.58,3.21c-.19.06-.39.09-.58.09Zm-6.75-91.12c-.34,0-.72.06-1.12.25-1.18.55-4.09,3-5.53,13.82-1.84,13.81,2.16,32.72,4.8,45.24,1.5,7.11,2.28,10.91,2.13,12.94-.24,3.29,4.01,10.24,7.22,14.57l7.8-2.36c-1.63-76.38-13.24-83.77-13.36-83.81-.16-.06-.32-.13-.46-.23-.06-.04-.66-.4-1.47-.4Z"/>
      </g>
      <g>
        <path class="cls-2" d="m41.86,6s6.09,3.53,14.42,3.53,15.38-3.53,15.38-3.53c0,0,15.38,5.45,20.51,10.9,0,0-6.73,10.9-6.73,33.01s4.81,28.21.96,47.12H26.8s-3.85-17.95,0-38.46c3.85-20.51-5.45-42.95-5.45-42.95,0,0,9.29-8.65,20.51-9.62Z"/>
        <path class="cls-6" d="m86.41,99.03H26.8c-.94,0-1.76-.66-1.96-1.58-.16-.75-3.89-18.58,0-39.25,3.69-19.7-5.24-41.6-5.33-41.81-.32-.77-.13-1.66.48-2.23.4-.37,9.94-9.14,21.71-10.14.41-.03.82.06,1.17.26.12.07,5.81,3.26,13.42,3.26s14.42-3.28,14.49-3.31c.49-.24,1.05-.28,1.56-.1.65.23,15.9,5.68,21.3,11.41.62.66.72,1.65.25,2.42-.06.1-6.43,10.79-6.43,31.96,0,8.69.76,14.9,1.42,20.38,1.01,8.29,1.88,15.44-.5,27.14-.19.93-1.01,1.6-1.96,1.6Zm-57.95-4h56.3c1.86-10.11,1.1-16.4.14-24.26-.68-5.59-1.45-11.93-1.45-20.86,0-18.13,4.41-28.9,6.25-32.61-4.78-4.06-15.07-8.06-17.94-9.14-2.16.95-8.33,3.36-15.47,3.36s-13.03-2.56-14.83-3.48c-8.12.91-15.17,6.08-17.73,8.16,1.97,5.26,8.45,24.53,5.04,42.72-3.08,16.41-1.1,31.32-.3,36.09Z"/>
      </g>
      <g>
        <line class="cls-4" x1="7.71" y1="93.65" x2="22.87" y2="97.37"/>
        <path class="cls-6" d="m22.88,99.37c-.16,0-.32-.02-.48-.06l-15.16-3.73c-1.07-.26-1.73-1.35-1.46-2.42.26-1.07,1.35-1.73,2.42-1.46l15.16,3.73c1.07.26,1.73,1.35,1.46,2.42-.22.91-1.04,1.52-1.94,1.52Z"/>
      </g>
      <g>
        <line class="cls-4" x1="89.08" y1="96.39" x2="103.64" y2="92.95"/>
        <path class="cls-6" d="m89.08,98.4c-.91,0-1.73-.62-1.94-1.54-.25-1.08.41-2.15,1.49-2.41l14.56-3.44c1.07-.26,2.15.41,2.41,1.49.25,1.08-.41,2.15-1.49,2.41l-14.56,3.44c-.15.04-.31.05-.46.05Z"/>
      </g>
      <g>
        <rect class="cls-2" x="25.35" y="94.67" width="61.88" height="11.33"/>
        <path class="cls-6" d="m87.23,108H25.35c-1.1,0-2-.9-2-2v-11.33c0-1.1.9-2,2-2h61.88c1.1,0,2,.9,2,2v11.33c0,1.1-.9,2-2,2Zm-59.88-4h57.88v-7.33H27.35v7.33Z"/>
      </g>
      <g>
        <path class="cls-3" d="m56.29,24.22c15.38,0,15.38-18.22,15.38-18.22,0,0-7.05,3.53-15.38,3.53s-14.42-3.53-14.42-3.53c0,0-.96,18.22,14.43,18.22Z"/>
        <path class="cls-6" d="m56.29,26.22c-4.66,0-8.46-1.51-11.28-4.48-5.6-5.9-5.17-15.44-5.15-15.84.04-.7.43-1.32,1.04-1.65.61-.33,1.35-.32,1.96.03.05.03,5.77,3.26,13.42,3.26s14.43-3.28,14.49-3.32c.62-.31,1.36-.27,1.95.09.59.36.95,1.01.95,1.7,0,6.99-3.63,20.22-17.38,20.22Zm-12.29-17.04c.31,2.82,1.23,6.98,3.93,9.82,2.03,2.14,4.85,3.22,8.36,3.22,9.68,0,12.36-8.39,13.1-13.11-2.98,1.08-7.77,2.42-13.1,2.42s-9.54-1.27-12.29-2.35Z"/>
      </g>
      <rect class="cls-5" x="50.61" y="14" width="12.3" height="4.54" rx="1.57" ry="1.57"/>
    </g>
  </g>
</svg>