<svg xmlns="http://www.w3.org/2000/svg" id="flatten_icons" data-name="flatten icons" viewBox="0 0 112 112"><defs><style>.cls-2,.cls-4,.cls-6{stroke-width:0}.cls-2{fill:#dae9ed}.cls-4{fill:#b3e3f0}.cls-6{fill:#004241}</style></defs><g id="sweat-coton"><path d="M0 0h112v112H0z" style="fill:none;stroke-width:0"/><path d="M21.35 15.62S8.21 20.11 6.61 102.8l10.58 3.21s8.89-11.34 8.47-17.03 9.7-37.42 6.92-58.29-11.22-15.06-11.22-15.06Z" class="cls-2"/><path d="M17.18 108c-.19 0-.39-.03-.58-.09L6.02 104.7a1.995 1.995 0 0 1-1.42-1.95c1.5-77.22 12.85-87.54 15.81-88.91 1.2-.73 3.65-1.53 6.22-.39 3.99 1.77 6.66 7.48 7.92 16.97 1.93 14.49-2.15 33.81-4.85 46.59-1.16 5.51-2.17 10.26-2.05 11.82.46 6.29-7.93 17.19-8.88 18.41-.39.49-.97.77-1.57.77Zm-8.55-6.68 7.8 2.36c3.21-4.33 7.46-11.28 7.22-14.57-.15-2.02.63-5.83 2.13-12.94 2.64-12.52 6.64-31.43 4.8-45.24-1.44-10.82-4.35-13.27-5.53-13.82-1.34-.62-2.54.12-2.59.16-.2.13-.2.17-.37.21-1.02.76-11.89 10.63-13.45 83.83Zm12.72-85.7" class="cls-6"/><path d="M90.66 15.62s13.14 4.49 14.74 87.18l-10.58 3.21s-8.89-11.34-8.47-17.03-9.7-37.42-6.92-58.29 11.22-15.06 11.22-15.06Z" class="cls-2"/><path d="M94.83 108c-.6 0-1.19-.27-1.57-.77-.96-1.22-9.35-12.13-8.88-18.41.11-1.55-.89-6.31-2.05-11.82-2.7-12.78-6.78-32.1-4.85-46.59 1.26-9.48 3.93-15.19 7.92-16.97 2.57-1.14 5.02-.34 6.22.39 2.97 1.37 14.31 11.69 15.81 88.92.02.9-.56 1.69-1.42 1.95l-10.58 3.21c-.19.06-.39.09-.58.09Zm-6.75-91.12c-.34 0-.72.06-1.12.25-1.18.55-4.09 3-5.53 13.82-1.84 13.81 2.16 32.72 4.8 45.24 1.5 7.11 2.28 10.91 2.13 12.94-.24 3.29 4.01 10.24 7.22 14.57l7.8-2.36c-1.63-76.38-13.24-83.77-13.36-83.81a2 2 0 0 1-.46-.23c-.06-.04-.66-.4-1.47-.4Z" class="cls-6"/><path d="M41.86 6s6.09 3.53 14.42 3.53S71.66 6 71.66 6s15.38 5.45 20.51 10.9c0 0-6.73 10.9-6.73 33.01s4.81 28.21.96 47.12H26.8s-3.85-17.95 0-38.46-5.45-42.95-5.45-42.95S30.64 6.97 41.86 6" class="cls-2"/><path d="M86.41 99.03H26.8c-.94 0-1.76-.66-1.96-1.58-.16-.75-3.89-18.58 0-39.25 3.69-19.7-5.24-41.6-5.33-41.81-.32-.77-.13-1.66.48-2.23.4-.37 9.94-9.14 21.71-10.14.41-.03.82.06 1.17.26.12.07 5.81 3.26 13.42 3.26s14.42-3.28 14.49-3.31c.49-.24 1.05-.28 1.56-.1.65.23 15.9 5.68 21.3 11.41.62.66.72 1.65.25 2.42-.06.1-6.43 10.79-6.43 31.96 0 8.69.76 14.9 1.42 20.38 1.01 8.29 1.88 15.44-.5 27.14-.19.93-1.01 1.6-1.96 1.6Zm-57.95-4h56.3c1.86-10.11 1.1-16.4.14-24.26-.68-5.59-1.45-11.93-1.45-20.86 0-18.13 4.41-28.9 6.25-32.61-4.78-4.06-15.07-8.06-17.94-9.14-2.16.95-8.33 3.36-15.47 3.36S43.26 8.96 41.46 8.04c-8.12.91-15.17 6.08-17.73 8.16 1.97 5.26 8.45 24.53 5.04 42.72-3.08 16.41-1.1 31.32-.3 36.09Z" class="cls-6"/><path d="m7.71 93.65 15.16 3.72" class="cls-4"/><path d="M22.88 99.37q-.24 0-.48-.06L7.24 95.58a1.994 1.994 0 0 1-1.46-2.42A1.994 1.994 0 0 1 8.2 91.7l15.16 3.73c1.07.26 1.73 1.35 1.46 2.42-.22.91-1.04 1.52-1.94 1.52" class="cls-6"/><path d="m89.08 96.39 14.56-3.44" class="cls-4"/><path d="M89.08 98.4c-.91 0-1.73-.62-1.94-1.54-.25-1.08.41-2.15 1.49-2.41l14.56-3.44c1.07-.26 2.15.41 2.41 1.49.25 1.08-.41 2.15-1.49 2.41l-14.56 3.44c-.15.04-.31.05-.46.05Z" class="cls-6"/><path d="M25.35 94.67h61.88V106H25.35z" class="cls-2"/><path d="M87.23 108H25.35c-1.1 0-2-.9-2-2V94.67c0-1.1.9-2 2-2h61.88c1.1 0 2 .9 2 2V106c0 1.1-.9 2-2 2m-59.88-4h57.88v-7.33H27.35z" class="cls-6"/><path d="M56.29 24.22C71.67 24.22 71.67 6 71.67 6s-7.05 3.53-15.38 3.53S41.87 6 41.87 6s-.96 18.22 14.43 18.22Z" style="stroke-width:0;fill:#b8c9ce"/><path d="M56.29 26.22c-4.66 0-8.46-1.51-11.28-4.48-5.6-5.9-5.17-15.44-5.15-15.84a1.994 1.994 0 0 1 3-1.62c.05.03 5.77 3.26 13.42 3.26s14.43-3.28 14.49-3.32a2.02 2.02 0 0 1 1.95.09c.59.36.95 1.01.95 1.7 0 6.99-3.63 20.22-17.38 20.22ZM44 9.18c.31 2.82 1.23 6.98 3.93 9.82 2.03 2.14 4.85 3.22 8.36 3.22 9.68 0 12.36-8.39 13.1-13.11-2.98 1.08-7.77 2.42-13.1 2.42S46.75 10.26 44 9.18" class="cls-6"/><rect width="12.3" height="4.54" x="50.61" y="14" rx="1.57" ry="1.57" style="stroke-width:0;fill:#e9e9da"/></g></svg>