<?xml version="1.0" encoding="UTF-8"?>
<svg id="flatten_icons" data-name="flatten icons" xmlns="http://www.w3.org/2000/svg" viewBox="0 0 112 112">
  <defs>
    <style>
      .cls-1 {
        fill: none;
      }

      .cls-1, .cls-2, .cls-3, .cls-4, .cls-5, .cls-6, .cls-7 {
        stroke-width: 0px;
      }

      .cls-2 {
        fill: #70b16d;
      }

      .cls-3 {
        fill: #c59878;
      }

      .cls-4 {
        fill: #ffdb49;
      }

      .cls-5 {
        fill: #e4c8a7;
      }

      .cls-6 {
        fill: #ee706b;
      }

      .cls-7 {
        fill: #004241;
      }
    </style>
  </defs>
  <g id="table">
    <g id="area">
      <rect class="cls-1" width="112" height="112"/>
    </g>
    <g id="table-2" data-name="table">
      <g>
        <g>
          <g>
            <polygon class="cls-3" points="24.86 65.56 23.36 99.26 31.6 99.26 34.09 65.56 24.86 65.56"/>
            <path class="cls-7" d="m31.6,101.26h-8.24c-.55,0-1.07-.22-1.45-.62-.38-.39-.58-.93-.55-1.47l1.5-33.7c.05-1.07.93-1.91,2-1.91h9.23c.56,0,1.09.23,1.47.64.38.41.57.95.53,1.51l-2.49,33.7c-.08,1.04-.95,1.85-1.99,1.85Zm-6.15-4h4.29l2.2-29.7h-5.17l-1.32,29.7Z"/>
          </g>
          <g>
            <polygon class="cls-3" points="77.91 65.56 80.4 99.26 88.64 99.26 87.14 65.56 77.91 65.56"/>
            <path class="cls-7" d="m88.64,101.26h-8.24c-1.05,0-1.92-.81-1.99-1.85l-2.49-33.7c-.04-.55.15-1.1.53-1.51.38-.41.91-.64,1.47-.64h9.23c1.07,0,1.95.84,2,1.91l1.5,33.7c.02.55-.18,1.08-.55,1.47-.38.39-.9.62-1.45.62Zm-6.38-4h4.29l-1.32-29.7h-5.17l2.2,29.7Z"/>
          </g>
        </g>
        <g>
          <rect class="cls-5" x="7.5" y="45.62" width="97" height="8.9"/>
          <path class="cls-7" d="m104.5,56.52H7.5c-1.1,0-2-.9-2-2v-8.9c0-1.1.9-2,2-2h97c1.1,0,2,.9,2,2v8.9c0,1.1-.9,2-2,2Zm-95-4h93v-4.9H9.5v4.9Z"/>
        </g>
        <g>
          <rect class="cls-3" x="20" y="54.69" width="72" height="10.87"/>
          <path class="cls-7" d="m92,67.56H20c-1.1,0-2-.9-2-2v-10.87c0-1.1.9-2,2-2h72c1.1,0,2,.9,2,2v10.87c0,1.1-.9,2-2,2Zm-70-4h68v-6.87H22v6.87Z"/>
        </g>
        <g>
          <g>
            <polygon class="cls-5" points="24.64 110 16.4 110 18.86 54.52 28.74 54.52 24.64 110"/>
            <path class="cls-7" d="m24.64,112h-8.24c-.55,0-1.07-.22-1.45-.62-.38-.39-.58-.93-.55-1.47l2.46-55.48c.05-1.07.93-1.91,2-1.91h9.88c.56,0,1.09.23,1.47.64.38.41.57.95.53,1.51l-4.11,55.48c-.08,1.04-.95,1.85-1.99,1.85Zm-6.15-4h4.29l3.81-51.48h-5.81l-2.29,51.48Z"/>
          </g>
          <g>
            <polygon class="cls-5" points="87.36 110 95.6 110 93.14 54.52 83.26 54.52 87.36 110"/>
            <path class="cls-7" d="m95.6,112h-8.24c-1.05,0-1.92-.81-1.99-1.85l-4.11-55.48c-.04-.55.15-1.1.53-1.51.38-.41.91-.64,1.47-.64h9.88c1.07,0,1.95.84,2,1.91l2.46,55.48c.02.55-.18,1.08-.55,1.47-.38.39-.9.62-1.45.62Zm-6.38-4h4.29l-2.29-51.48h-5.81l3.81,51.48Z"/>
          </g>
        </g>
      </g>
      <g>
        <path class="cls-2" d="m76.37,31.44s-9.24-.99-7.11-10.01c0,0,10.66-2.63,12.79,9.45"/>
        <path class="cls-7" d="m76.38,33.44c-.07,0-.14,0-.21-.01-.2-.02-5.04-.58-7.64-4.24-1.57-2.21-1.97-4.98-1.21-8.22.17-.73.74-1.3,1.47-1.48.21-.05,5.28-1.26,9.67,1.6,2.93,1.91,4.8,5.09,5.57,9.45.19,1.09-.53,2.13-1.62,2.32-1.09.19-2.13-.53-2.32-1.62-.57-3.21-1.84-5.49-3.79-6.77-1.85-1.22-4-1.33-5.31-1.24-.15,1.47.12,2.69.79,3.65,1.54,2.19,4.78,2.59,4.82,2.6,1.09.13,1.88,1.11,1.76,2.21-.11,1.02-.98,1.78-1.98,1.78Z"/>
      </g>
      <g>
        <path class="cls-2" d="m79.1,31.7s-3.55-10.42,2.37-15.52c5.92-5.09,12.44-7.23,12.44-7.23,0,0,3.84,18.77-6.84,22.47"/>
        <path class="cls-7" d="m79.1,33.7c-.83,0-1.61-.52-1.89-1.35-.16-.48-3.91-11.77,2.96-17.68,6.15-5.29,12.84-7.52,13.12-7.61.54-.18,1.13-.12,1.63.17.49.29.84.77.96,1.33.17.84,4.05,20.54-8.15,24.77-1.04.36-2.18-.19-2.54-1.23s.19-2.18,1.23-2.54c6.86-2.38,6.46-12.98,5.9-17.79-2.3,1.02-6.04,2.95-9.53,5.95-4.81,4.14-1.81,13.27-1.78,13.36.35,1.05-.21,2.18-1.25,2.53-.21.07-.43.11-.64.11Z"/>
      </g>
      <g>
        <path class="cls-4" d="m78.33,21.88s1.84-14.23-2.07-18.25c0,0-6.51-3.67-8.05,0-1.54,3.67,2.37,7.82,8.29,4.03"/>
        <path class="cls-7" d="m78.33,23.88c-.08,0-.17,0-.26-.02-1.1-.14-1.87-1.14-1.73-2.24.44-3.4.6-8.05.14-11.66-3.22,1.68-6.36,1.6-8.56-.25-1.97-1.65-2.6-4.41-1.57-6.86.52-1.25,1.46-2.13,2.72-2.56,3.16-1.08,7.35,1.14,8.16,1.59.17.09.32.21.45.35.77.79,4.49,5.45,2.62,19.9-.13,1.01-.99,1.74-1.98,1.74Zm-7.34-19.89c-.23,0-.44.03-.61.09-.15.05-.24.11-.33.33-.35.84-.17,1.73.45,2.25.8.68,2.52.85,4.91-.69.01,0,.02-.02.04-.02-.14-.28-.29-.52-.45-.73-1.14-.59-2.87-1.23-4.01-1.23Z"/>
      </g>
      <g>
        <polygon class="cls-6" points="87.96 31.44 72.67 31.44 73.57 44.93 87.06 44.93 87.96 31.44"/>
        <path class="cls-7" d="m87.06,46.93h-13.49c-1.05,0-1.93-.82-2-1.87l-.9-13.49c-.04-.55.16-1.1.54-1.5.38-.4.91-.63,1.46-.63h15.29c.55,0,1.08.23,1.46.63.38.4.57.95.54,1.5l-.9,13.49c-.07,1.05-.94,1.87-2,1.87Zm-11.62-4h9.75l.63-9.49h-11.01l.63,9.49Z"/>
      </g>
    </g>
  </g>
</svg>