<svg xmlns="http://www.w3.org/2000/svg" id="flatten_icons" data-name="flatten icons" viewBox="0 0 112 112"><defs><style>.cls-3,.cls-5{stroke-width:0}.cls-3{fill:#8ed4ea}.cls-5{fill:#004241}</style></defs><g id="tablette"><path d="M0 0h112v112H0z" style="fill:none;stroke-width:0"/><rect width="73.67" height="98.97" x="19.17" y="6.52" class="cls-3" rx="8.75" ry="8.75"/><rect width="11.09" height="11.09" x="50.45" y="86.39" rx="4.85" ry="4.85" style="stroke-width:0;fill:#e9e5dc"/><path d="M56.7 99.48h-1.4c-3.78 0-6.85-3.07-6.85-6.85v-1.4c0-3.78 3.07-6.85 6.85-6.85h1.4c3.78 0 6.85 3.07 6.85 6.85v1.4c0 3.78-3.07 6.85-6.85 6.85m-1.4-11.09c-1.57 0-2.85 1.28-2.85 2.85v1.4c0 1.57 1.28 2.85 2.85 2.85h1.4c1.57 0 2.85-1.28 2.85-2.85v-1.4c0-1.57-1.28-2.85-2.85-2.85z" class="cls-5"/><path d="M26.55 84.07V17.49c0-1.5 1.22-2.72 2.72-2.72h52.56c1.5 0 2.72 1.22 2.72 2.72-2.48 30.09-30.33 65.32-52.13 67.96l-2.75.33c-2.27.32-3.12-.12-3.12-1.72Z" style="stroke-width:0;fill:#b7e7f1"/><path d="M84.09 107.48H27.91c-5.93 0-10.75-4.82-10.75-10.75V15.27c0-5.93 4.82-10.75 10.75-10.75h56.17c5.93 0 10.75 4.82 10.75 10.75v81.47c0 5.93-4.82 10.75-10.75 10.75ZM27.91 8.52c-3.72 0-6.75 3.03-6.75 6.75v81.47c0 3.72 3.03 6.75 6.75 6.75h56.17c3.72 0 6.75-3.03 6.75-6.75V15.27c0-3.72-3.03-6.75-6.75-6.75z" class="cls-5"/><path d="M70.01 33.16H36.14c-1.1 0-2-.9-2-2s.9-2 2-2h33.87c1.1 0 2 .9 2 2s-.9 2-2 2m-11.78 9.38H36.14c-1.1 0-2-.9-2-2s.9-2 2-2h22.09c1.1 0 2 .9 2 2s-.9 2-2 2" class="cls-3"/></g></svg>