<?xml version="1.0" encoding="UTF-8"?>
<svg id="flatten_icons" data-name="flatten icons" xmlns="http://www.w3.org/2000/svg" viewBox="0 0 112 112">
  <defs>
    <style>
      .cls-1 {
        fill: none;
      }

      .cls-1, .cls-2, .cls-3, .cls-4, .cls-5 {
        stroke-width: 0px;
      }

      .cls-2 {
        fill: #b7e7f1;
      }

      .cls-3 {
        fill: #8ed4ea;
      }

      .cls-4 {
        fill: #e9e5dc;
      }

      .cls-5 {
        fill: #004241;
      }
    </style>
  </defs>
  <g id="tablette">
    <rect class="cls-1" width="112" height="112"/>
    <g>
      <rect class="cls-3" x="19.17" y="6.52" width="73.67" height="98.97" rx="8.75" ry="8.75"/>
      <g>
        <rect class="cls-4" x="50.45" y="86.39" width="11.09" height="11.09" rx="4.85" ry="4.85"/>
        <path class="cls-5" d="m56.7,99.48h-1.4c-3.78,0-6.85-3.07-6.85-6.85v-1.4c0-3.78,3.07-6.85,6.85-6.85h1.4c3.78,0,6.85,3.07,6.85,6.85v1.4c0,3.78-3.07,6.85-6.85,6.85Zm-1.4-11.09c-1.57,0-2.85,1.28-2.85,2.85v1.4c0,1.57,1.28,2.85,2.85,2.85h1.4c1.57,0,2.85-1.28,2.85-2.85v-1.4c0-1.57-1.28-2.85-2.85-2.85h-1.4Z"/>
      </g>
      <path class="cls-2" d="m26.55,84.07V17.49c0-1.5,1.22-2.72,2.72-2.72h52.56c1.5,0,2.72,1.22,2.72,2.72h0c-2.48,30.09-30.33,65.32-52.13,67.96l-2.75.33c-2.27.32-3.12-.12-3.12-1.72Z"/>
      <path class="cls-5" d="m84.09,107.48H27.91c-5.93,0-10.75-4.82-10.75-10.75V15.27c0-5.93,4.82-10.75,10.75-10.75h56.17c5.93,0,10.75,4.82,10.75,10.75v81.47c0,5.93-4.82,10.75-10.75,10.75ZM27.91,8.52c-3.72,0-6.75,3.03-6.75,6.75v81.47c0,3.72,3.03,6.75,6.75,6.75h56.17c3.72,0,6.75-3.03,6.75-6.75V15.27c0-3.72-3.03-6.75-6.75-6.75H27.91Z"/>
      <path class="cls-3" d="m70.01,33.16h-33.87c-1.1,0-2-.9-2-2s.9-2,2-2h33.87c1.1,0,2,.9,2,2s-.9,2-2,2Z"/>
      <path class="cls-3" d="m58.23,42.54h-22.09c-1.1,0-2-.9-2-2s.9-2,2-2h22.09c1.1,0,2,.9,2,2s-.9,2-2,2Z"/>
    </g>
  </g>
</svg>