<svg xmlns="http://www.w3.org/2000/svg" id="flatten_icons" data-name="flatten icons" viewBox="0 0 112 112"><defs><style>.cls-4{stroke-width:0;fill:#004241}</style></defs><g id="data-dl"><path id="area" d="M0 0h112v112H0z" style="fill:none;stroke-width:0"/><g id="data"><path d="M94.35 61.22c.24-1.71.38-3.45.38-5.22 0-20.33-16.48-36.81-36.81-36.81-17.6 0-32.31 12.36-35.94 28.86C10.75 49.28 2 58.8 2 70.36c0 12.4 10.05 22.45 22.45 22.45H94.2c8.73 0 15.8-7.07 15.8-15.8s-6.99-15.71-15.65-15.79" style="stroke-width:0;fill:#d8e7ec"/><path d="M94.2 94.81H24.45C10.97 94.81 0 83.84 0 70.36c0-12.02 8.65-22.14 20.35-24.1 4.38-16.93 19.96-29.07 37.57-29.07 21.4 0 38.81 17.41 38.81 38.81 0 1.11-.05 2.24-.15 3.38 8.68 1.17 15.42 8.66 15.42 17.63 0 9.81-7.99 17.8-17.8 17.8M57.92 21.19c-16.21 0-30.51 11.48-33.99 27.29a2 2 0 0 1-1.74 1.56C11.82 51.18 4 59.91 4 70.36c0 11.28 9.17 20.45 20.45 20.45H94.2c7.61 0 13.8-6.19 13.8-13.8s-6.13-13.72-13.67-13.79c-.58 0-1.12-.26-1.5-.7a2 2 0 0 1-.46-1.59c.24-1.66.36-3.32.36-4.94 0-19.2-15.62-34.81-34.81-34.81Z" class="cls-4"/><path d="M24.37 73.15c-.76 0-1.49-.44-1.82-1.18-8.81-19.5-.11-42.54 19.4-51.35 1.01-.45 2.19 0 2.65 1 .46 1.01 0 2.19-1 2.65-17.49 7.9-25.3 28.56-17.4 46.06a2.007 2.007 0 0 1-1.82 2.83Z" class="cls-4"/><circle cx="58" cy="56" r="24.62" style="stroke-width:0;fill:#b6de8c"/><path d="M58 82.62c-14.68 0-26.62-11.94-26.62-26.62S43.32 29.38 58 29.38 84.62 41.32 84.62 56 72.68 82.62 58 82.62m0-49.23c-12.47 0-22.62 10.15-22.62 22.62S45.53 78.63 58 78.63s22.62-10.15 22.62-22.62S70.47 33.39 58 33.39" class="cls-4"/><path d="M58 61.71c-1.1 0-2-.9-2-2V42.5c0-1.1.9-2 2-2s2 .9 2 2v17.21c0 1.1-.9 2-2 2" class="cls-4"/><path d="M58 62.12c-.51 0-1.02-.2-1.41-.59l-8.25-8.25c-.78-.78-.78-2.05 0-2.83s2.05-.78 2.83 0L58 57.28l6.83-6.83c.78-.78 2.05-.78 2.83 0s.78 2.05 0 2.83l-8.25 8.25c-.39.39-.9.59-1.41.59m8.25 6.93h-16.5c-1.1 0-2-.9-2-2s.9-2 2-2h16.5c1.1 0 2 .9 2 2s-.9 2-2 2" class="cls-4"/></g></g></svg>