<?xml version="1.0" encoding="UTF-8"?>
<svg id="flatten_icons" data-name="flatten icons" xmlns="http://www.w3.org/2000/svg" viewBox="0 0 112 112">
  <defs>
    <style>
      .cls-1 {
        fill: none;
      }

      .cls-1, .cls-2, .cls-3 {
        stroke-width: 0px;
      }

      .cls-2 {
        fill: #b0bec7;
      }

      .cls-3 {
        fill: #004241;
      }
    </style>
  </defs>
  <g id="tel">
    <rect class="cls-1" width="112" height="112"/>
    <g>
      <path class="cls-3" d="m34.87,57.24c-1.06,0-1.95-.84-2-1.91-.78-16.99,15.6-23.58,15.76-23.65,1.03-.4,2.19.11,2.59,1.14.4,1.03-.11,2.19-1.13,2.59h0c-.57.22-13.87,5.65-13.22,19.74.05,1.1-.8,2.04-1.91,2.09-.03,0-.06,0-.09,0Z"/>
      <path class="cls-3" d="m25.72,53.53c-1.06,0-1.95-.84-2-1.91-.9-19.38,17.8-26.91,17.99-26.98,1.03-.4,2.19.11,2.59,1.14.4,1.03-.11,2.19-1.13,2.59h0c-.66.26-16.21,6.59-15.45,23.07.05,1.1-.8,2.04-1.91,2.09-.03,0-.06,0-.09,0Z"/>
      <path class="cls-3" d="m16.23,52.19c-1.06,0-1.95-.84-2-1.91-1.12-24.35,22.37-33.8,22.6-33.89,1.03-.4,2.19.11,2.59,1.14.4,1.03-.11,2.19-1.13,2.59-.87.34-21.05,8.55-20.06,29.98.05,1.1-.8,2.04-1.91,2.09-.03,0-.06,0-.09,0Z"/>
      <g>
        <path class="cls-2" d="m74.34,11.35l8.35-.46c7.77.54,13.63,7.28,13.09,15.05l-1.07,15.31c-.62,12.16-4.81,21.73-9.99,29.75-5.48,8.49-12.73,15.7-21.07,21.42l-9.08,6.22c-6.43,4.4-15.2,2.76-19.6-3.67l-3.83-7.44c-2.01-3.91-.8-8.7,2.82-11.19l11.7-8.01c3.79-2.6,8.94-1.81,11.78,1.8l5.17,6.57c6.66-4.77,17.41-15.13,18.46-32.71l-8.42-1.15c-4.55-.62-7.84-4.67-7.52-9.25l.99-14.15c.31-4.39,3.83-7.86,8.22-8.1Z"/>
        <path class="cls-3" d="m46.62,103.11c-.99,0-2-.09-2.99-.28-4.23-.79-7.9-3.18-10.33-6.73-.05-.07-.09-.14-.13-.21l-3.83-7.44c-2.47-4.79-.98-10.71,3.47-13.76l11.7-8.01c4.64-3.18,11-2.21,14.48,2.21l3.96,5.04c5.96-4.68,14.45-13.75,15.95-28.21l-6.54-.9c-5.57-.76-9.63-5.76-9.24-11.37l.99-14.15c.38-5.38,4.72-9.66,10.1-9.96l8.35-.46c.08,0,.17,0,.25,0,8.86.62,15.56,8.33,14.94,17.19l-1.07,15.31c-.56,10.9-3.83,20.67-10.31,30.7-5.51,8.54-12.79,15.93-21.62,21.98l-9.08,6.22c-2.71,1.86-5.85,2.82-9.06,2.82Zm-9.95-9.17c1.83,2.61,4.55,4.37,7.69,4.96,3.18.59,6.4-.08,9.06-1.91l9.08-6.22c8.39-5.75,15.3-12.76,20.52-20.85,6.08-9.42,9.16-18.56,9.68-28.77l1.07-15.35c.46-6.62-4.51-12.38-11.11-12.91l-8.22.45h0c-3.38.19-6.1,2.87-6.33,6.24l-.99,14.15c-.25,3.52,2.3,6.65,5.79,7.13l8.42,1.15c1.04.14,1.79,1.06,1.72,2.1-1.11,18.53-12.56,29.39-19.29,34.21-.87.62-2.08.45-2.74-.39l-5.17-6.57c-2.18-2.77-6.17-3.38-9.08-1.39l-11.7,8.01c-2.79,1.91-3.72,5.62-2.18,8.62l3.77,7.32ZM74.34,11.35h0,0Z"/>
      </g>
      <g>
        <line class="cls-2" x1="73.93" y1="18.84" x2="72.64" y2="42.85"/>
        <path class="cls-3" d="m72.65,44.85s-.07,0-.11,0c-1.1-.06-1.95-1-1.89-2.1l1.29-24c.06-1.1.98-1.95,2.1-1.89,1.1.06,1.95,1,1.89,2.1l-1.29,24c-.06,1.07-.94,1.89-2,1.89Z"/>
      </g>
      <g>
        <line class="cls-2" x1="31.12" y1="87.54" x2="51.76" y2="73.89"/>
        <path class="cls-3" d="m31.13,89.54c-.65,0-1.29-.31-1.67-.9-.61-.92-.36-2.16.56-2.77l20.63-13.65c.92-.61,2.16-.36,2.77.56.61.92.36,2.16-.56,2.77l-20.63,13.65c-.34.22-.72.33-1.1.33Z"/>
      </g>
    </g>
  </g>
</svg>