<?xml version="1.0" encoding="UTF-8"?>
<svg id="flatten_icons" data-name="flatten icons" xmlns="http://www.w3.org/2000/svg" viewBox="0 0 112 112">
  <defs>
    <style>
      .cls-1 {
        fill: none;
      }

      .cls-1, .cls-2, .cls-3, .cls-4, .cls-5, .cls-6, .cls-7 {
        stroke-width: 0px;
      }

      .cls-2 {
        fill: #dabe9c;
      }

      .cls-3 {
        fill: #8dbc76;
      }

      .cls-4 {
        fill: #b9dc99;
      }

      .cls-5 {
        fill: #ba9278;
      }

      .cls-6 {
        fill: #fff;
      }

      .cls-7 {
        fill: #004241;
      }
    </style>
  </defs>
  <g id="tv">
    <rect class="cls-1" x="0" y="0" width="112" height="112"/>
    <g>
      <rect class="cls-3" x="2" y="2" width="108" height="70.41" rx="2.45" ry="2.45"/>
      <g>
        <rect class="cls-2" x="2" y="80.96" width="108" height="21.11" rx="2.45" ry="2.45"/>
        <path class="cls-7" d="m107.55,104.07H4.45c-2.46,0-4.45-2-4.45-4.45v-16.2c0-2.46,2-4.45,4.45-4.45h103.09c2.46,0,4.45,2,4.45,4.45v16.2c0,2.46-2,4.45-4.45,4.45ZM4.45,82.96c-.25,0-.45.2-.45.45v16.2c0,.25.2.45.45.45h103.09c.25,0,.45-.2.45-.45v-16.2c0-.25-.2-.45-.45-.45H4.45Z"/>
      </g>
      <path class="cls-5" d="m8.01,86.89v11.47l8.05-2.47c1.54-.47,2.07-1.51,1.19-2.33h0c-.9-.84-.33-1.9,1.27-2.36l4.86-1.39c.78-.22,1.7-.27,2.54-.12l5.82,1.02c.91.16,1.91.09,2.72-.18l4.27-1.43c.94-.31,1.51-.86,1.51-1.45v-.77H8.01Z"/>
      <path class="cls-5" d="m63.22,86.89v11.47l8.05-2.47c1.54-.47,2.07-1.51,1.19-2.33h0c-.9-.84-.33-1.9,1.27-2.36l4.86-1.39c.78-.22,1.7-.27,2.54-.12l5.82,1.02c.91.16,1.91.09,2.72-.18l4.27-1.43c.94-.31,1.51-.86,1.51-1.45v-.77h-32.23Z"/>
      <path class="cls-7" d="m57.63,104.07c-1.1,0-2-.9-2-2v-21.11c0-1.1.9-2,2-2s2,.9,2,2v21.11c0,1.1-.9,2-2,2Z"/>
      <path class="cls-4" d="m9.01,61.99V10.88c0-1.11.91-2.01,2.03-2.01h82.69c2.09,0,3.4,2.25,2.35,4.05h0c-16.55,28.27-45.52,47.21-78.25,51.14l-4.14.5c-2.4.47-4.68-.17-4.68-2.56Z"/>
      <g>
        <line class="cls-2" x1="8.01" y1="102.07" x2="6.23" y2="110"/>
        <path class="cls-7" d="m6.24,112c-.15,0-.29-.02-.44-.05-1.08-.24-1.76-1.31-1.51-2.39l1.78-7.93c.24-1.08,1.31-1.75,2.39-1.51,1.08.24,1.76,1.31,1.51,2.39l-1.78,7.93c-.21.93-1.03,1.56-1.95,1.56Z"/>
      </g>
      <g>
        <line class="cls-2" x1="104.02" y1="102.07" x2="105.8" y2="110"/>
        <path class="cls-7" d="m105.8,112c-.92,0-1.74-.63-1.95-1.56l-1.78-7.93c-.24-1.08.44-2.15,1.51-2.39,1.08-.24,2.15.44,2.39,1.51l1.78,7.93c.24,1.08-.44,2.15-1.51,2.39-.15.03-.29.05-.44.05Z"/>
      </g>
      <path class="cls-6" d="m108.65,57.39c-.58,0-1.16-.2-1.63-.61L47.17,5.06c-1.04-.9-1.16-2.48-.26-3.53.9-1.04,2.48-1.16,3.53-.26l59.84,51.72c1.04.9,1.16,2.48.26,3.53-.49.57-1.19.87-1.89.87Z"/>
      <path class="cls-7" d="m107.55,74.41H4.45c-2.46,0-4.45-2-4.45-4.45V4.45C0,2,2,0,4.45,0h103.09c2.46,0,4.45,2,4.45,4.45v65.51c0,2.46-2,4.45-4.45,4.45ZM4.45,4c-.25,0-.45.2-.45.45v65.51c0,.25.2.45.45.45h103.09c.25,0,.45-.2.45-.45V4.45c0-.25-.2-.45-.45-.45H4.45Z"/>
      <ellipse class="cls-3" cx="42.27" cy="56.06" rx="7.2" ry="7.15"/>
      <ellipse class="cls-6" cx="43.28" cy="52.28" rx="7.2" ry="7.15"/>
      <path class="cls-7" d="m47.9,46.8l-1.28.34c-.28.07-.5.29-.57.57l-.53,1.96c-.07.28,0,.57.21.77l1.44,1.43c.2.2.5.28.78.21l1.97-.52c.21-.06.36-.21.47-.39-.28-1.74-1.19-3.28-2.49-4.36Z"/>
      <path class="cls-7" d="m45.61,54.44c-.2-.2-.5-.28-.78-.21l-2.17.58c-.28.07-.5.29-.57.57l-.58,2.16c-.07.28,0,.57.21.77l1.1,1.09c.16,0,.31.02.47.02,1.35,0,2.61-.37,3.69-1.01l.44-1.62c.07-.28,0-.57-.21-.77l-1.59-1.58Z"/>
      <path class="cls-7" d="m36.66,49.48c.04.08.08.15.15.21l1.48,1.47c.2.2.5.28.78.21l2.03-.54c.28-.07.5-.29.57-.57l.54-2.01c.07-.28,0-.57-.21-.77l-1.48-1.47c-.09-.09-.19-.14-.3-.18-1.59.75-2.86,2.04-3.56,3.65Z"/>
    </g>
  </g>
</svg>