<svg xmlns="http://www.w3.org/2000/svg" id="flatten_icons" data-name="flatten icons" viewBox="0 0 112 112"><defs><style>.cls-2,.cls-3,.cls-6,.cls-7{stroke-width:0}.cls-2{fill:#dabe9c}.cls-3{fill:#8dbc76}.cls-6{fill:#fff}.cls-7{fill:#004241}</style></defs><g id="tv"><path d="M0 0h112v112H0z" style="fill:none;stroke-width:0"/><rect width="108" height="70.41" x="2" y="2" class="cls-3" rx="2.45" ry="2.45"/><rect width="108" height="21.11" x="2" y="80.96" class="cls-2" rx="2.45" ry="2.45"/><path d="M107.55 104.07H4.45c-2.46 0-4.45-2-4.45-4.45v-16.2c0-2.46 2-4.45 4.45-4.45h103.09c2.46 0 4.45 2 4.45 4.45v16.2c0 2.46-2 4.45-4.45 4.45ZM4.45 82.96c-.25 0-.45.2-.45.45v16.2c0 .25.2.45.45.45h103.09c.25 0 .45-.2.45-.45v-16.2c0-.25-.2-.45-.45-.45z" class="cls-7"/><path d="M8.01 86.89v11.47l8.05-2.47c1.54-.47 2.07-1.51 1.19-2.33-.9-.84-.33-1.9 1.27-2.36l4.86-1.39c.78-.22 1.7-.27 2.54-.12l5.82 1.02c.91.16 1.91.09 2.72-.18l4.27-1.43c.94-.31 1.51-.86 1.51-1.45v-.77H8.01Zm55.21 0v11.47l8.05-2.47c1.54-.47 2.07-1.51 1.19-2.33-.9-.84-.33-1.9 1.27-2.36l4.86-1.39c.78-.22 1.7-.27 2.54-.12l5.82 1.02c.91.16 1.91.09 2.72-.18l4.27-1.43c.94-.31 1.51-.86 1.51-1.45v-.77H63.22Z" style="stroke-width:0;fill:#ba9278"/><path d="M57.63 104.07c-1.1 0-2-.9-2-2V80.96c0-1.1.9-2 2-2s2 .9 2 2v21.11c0 1.1-.9 2-2 2" class="cls-7"/><path d="M9.01 61.99V10.88c0-1.11.91-2.01 2.03-2.01h82.69c2.09 0 3.4 2.25 2.35 4.05-16.55 28.27-45.52 47.21-78.25 51.14l-4.14.5c-2.4.47-4.68-.17-4.68-2.56Z" style="stroke-width:0;fill:#b9dc99"/><path d="M8.01 102.07 6.23 110" class="cls-2"/><path d="M6.24 112c-.15 0-.29-.02-.44-.05a1.99 1.99 0 0 1-1.51-2.39l1.78-7.93a1.996 1.996 0 0 1 2.39-1.51c1.08.24 1.76 1.31 1.51 2.39l-1.78 7.93c-.21.93-1.03 1.56-1.95 1.56" class="cls-7"/><path d="m104.02 102.07 1.78 7.93" class="cls-2"/><path d="M105.8 112c-.92 0-1.74-.63-1.95-1.56l-1.78-7.93c-.24-1.08.44-2.15 1.51-2.39 1.08-.24 2.15.44 2.39 1.51l1.78 7.93a2.004 2.004 0 0 1-1.95 2.44" class="cls-7"/><path d="M108.65 57.39c-.58 0-1.16-.2-1.63-.61L47.17 5.06a2.51 2.51 0 0 1-.26-3.53c.9-1.04 2.48-1.16 3.53-.26l59.84 51.72c1.04.9 1.16 2.48.26 3.53-.49.57-1.19.87-1.89.87" class="cls-6"/><path d="M107.55 74.41H4.45c-2.46 0-4.45-2-4.45-4.45V4.45C0 2 2 0 4.45 0h103.09c2.46 0 4.45 2 4.45 4.45v65.51c0 2.46-2 4.45-4.45 4.45ZM4.45 4C4.2 4 4 4.2 4 4.45v65.51c0 .25.2.45.45.45h103.09c.25 0 .45-.2.45-.45V4.45c0-.25-.2-.45-.45-.45z" class="cls-7"/><ellipse cx="42.27" cy="56.06" class="cls-3" rx="7.2" ry="7.15"/><ellipse cx="43.28" cy="52.28" class="cls-6" rx="7.2" ry="7.15"/><path d="m47.9 46.8-1.28.34c-.28.07-.5.29-.57.57l-.53 1.96c-.07.28 0 .57.21.77l1.44 1.43c.2.2.5.28.78.21l1.97-.52c.21-.06.36-.21.47-.39a7.15 7.15 0 0 0-2.49-4.36Zm-2.29 7.64c-.2-.2-.5-.28-.78-.21l-2.17.58c-.28.07-.5.29-.57.57l-.58 2.16c-.07.28 0 .57.21.77l1.1 1.09c.16 0 .31.02.47.02 1.35 0 2.61-.37 3.69-1.01l.44-1.62c.07-.28 0-.57-.21-.77l-1.59-1.58Zm-8.95-4.96c.04.08.08.15.15.21l1.48 1.47c.2.2.5.28.78.21l2.03-.54c.28-.07.5-.29.57-.57l.54-2.01c.07-.28 0-.57-.21-.77l-1.48-1.47a.8.8 0 0 0-.3-.18 7.23 7.23 0 0 0-3.56 3.65" class="cls-7"/></g></svg>