<?xml version="1.0" encoding="UTF-8"?>
<svg id="flatten_icons" data-name="flatten icons" xmlns="http://www.w3.org/2000/svg" viewBox="0 0 112 112">
  <defs>
    <style>
      .cls-1 {
        fill: none;
      }

      .cls-1, .cls-2, .cls-3, .cls-4, .cls-5 {
        stroke-width: 0px;
      }

      .cls-2 {
        fill: #336eaf;
      }

      .cls-3 {
        fill: #c4d1d5;
      }

      .cls-4 {
        fill: #b8e1ec;
      }

      .cls-5 {
        fill: #004241;
      }
    </style>
  </defs>
  <g id="ter">
    <g id="area">
      <rect class="cls-1" width="112" height="112"/>
    </g>
    <g id="rails">
      <path class="cls-3" d="m97.84,103.04c-1.1,0-2-.9-2-2v-2.87c0-1.1.9-2,2-2s2,.9,2,2v2.87c0,1.1-.9,2-2,2Z"/>
      <path class="cls-3" d="m83.55,103.04c-1.1,0-2-.9-2-2v-2.87c0-1.1.9-2,2-2s2,.9,2,2v2.87c0,1.1-.9,2-2,2Z"/>
      <path class="cls-3" d="m69.81,103.04c-1.1,0-2-.9-2-2v-2.87c0-1.1.9-2,2-2s2,.9,2,2v2.87c0,1.1-.9,2-2,2Z"/>
      <path class="cls-3" d="m55.52,103.04c-1.1,0-2-.9-2-2v-2.87c0-1.1.9-2,2-2s2,.9,2,2v2.87c0,1.1-.9,2-2,2Z"/>
      <path class="cls-3" d="m41.08,103.04c-1.1,0-2-.9-2-2v-2.87c0-1.1.9-2,2-2s2,.9,2,2v2.87c0,1.1-.9,2-2,2Z"/>
      <path class="cls-3" d="m26.79,103.04c-1.1,0-2-.9-2-2v-2.87c0-1.1.9-2,2-2s2,.9,2,2v2.87c0,1.1-.9,2-2,2Z"/>
      <path class="cls-3" d="m13.05,103.04c-1.1,0-2-.9-2-2v-2.87c0-1.1.9-2,2-2s2,.9,2,2v2.87c0,1.1-.9,2-2,2Z"/>
      <path class="cls-5" d="m105.87,100.17H4.02c-1.1,0-2-.9-2-2s.9-2,2-2h101.85c1.1,0,2,.9,2,2s-.9,2-2,2Z"/>
    </g>
    <g id="car">
      <path class="cls-5" d="m69.08,80.67c-3.08-2.06-7.01-1.85-9.88.22-1.03.75-2.3,1.1-3.57,1.1h-13.02c-1.3,0-2.57-.39-3.62-1.14-2.71-1.92-6.36-2.22-9.4-.47-4.17,2.41-5.58,7.78-3.14,12.01,2.44,4.22,7.8,5.69,11.97,3.28,1.43-.83,2.54-2.01,3.27-3.37,1.08-2.01,3.24-3.21,5.53-3.21h3.88c2.34,0,4.43,1.32,5.61,3.35.63,1.09,1.52,2.06,2.64,2.81,3.98,2.66,9.38,1.55,12.07-2.47,2.69-4.02,1.65-9.44-2.33-12.1Z"/>
      <path class="cls-5" d="m20.54,26.99c-.23,0-.47-.04-.71-.13-1.03-.39-1.55-1.54-1.16-2.58l3.55-9.41-5.95-5.99c-.78-.78-.77-2.05,0-2.83.78-.78,2.05-.78,2.83,0l6.86,6.9c.55.56.73,1.38.45,2.12l-4.01,10.61c-.3.8-1.06,1.29-1.87,1.29Z"/>
      <g>
        <path class="cls-3" d="m3.83,88.37h23.07c1.23,0,2.43-.33,3.48-.96l2.23-1.33c2.69-1.61,5.77-2.45,8.91-2.45h13.46c2.66,0,5.28.61,7.67,1.78l4.6,2.26c.93.46,1.96.7,3,.7h23.19c5.73,0,10.81-8.44,12.59-13.89l.93-2.86c.97-2.98,1.17-6.15.58-9.22l-.81-4.22c-3.7-19.32-20.6-33.29-40.28-33.29H3.83"/>
        <path class="cls-5" d="m93.44,90.37h-23.19c-1.34,0-2.68-.31-3.88-.9l-4.6-2.26c-2.1-1.03-4.45-1.58-6.79-1.58h-13.46c-2.77,0-5.5.75-7.88,2.17l-2.23,1.33c-1.36.81-2.92,1.24-4.51,1.24H3.83c-1.1,0-2-.9-2-2s.9-2,2-2h23.07c.86,0,1.71-.23,2.46-.68l2.23-1.33c3-1.79,6.44-2.74,9.93-2.74h13.46c2.95,0,5.91.69,8.55,1.99l4.6,2.27c.65.32,1.39.49,2.12.49h23.19c4.32,0,8.98-7.26,10.69-12.5l.93-2.86c.86-2.65,1.04-5.49.52-8.23l-.81-4.22c-3.52-18.35-19.63-31.67-38.31-31.67H3.83c-1.1,0-2-.9-2-2s.9-2,2-2h62.62c20.6,0,38.37,14.69,42.24,34.92l.81,4.22c.65,3.4.43,6.93-.64,10.22l-.93,2.86c-2,6.14-7.51,15.27-14.49,15.27Z"/>
      </g>
      <g>
        <rect class="cls-2" x="5.56" y="40.64" width="15.56" height="47.38" rx="1.26" ry="1.26"/>
        <path class="cls-5" d="m19.86,90.02H6.82c-1.8,0-3.26-1.46-3.26-3.26v-44.86c0-1.8,1.46-3.26,3.26-3.26h13.04c1.8,0,3.26,1.46,3.26,3.26v44.86c0,1.8-1.46,3.26-3.26,3.26Zm-12.3-4h11.56v-43.38H7.56v43.38Zm12.3-43.38h0,0Z"/>
      </g>
      <g>
        <rect class="cls-4" x="26.48" y="40.23" width="15.56" height="15.56" rx="1.26" ry="1.26"/>
        <path class="cls-5" d="m40.78,57.79h-13.04c-1.8,0-3.26-1.46-3.26-3.26v-13.04c0-1.8,1.46-3.26,3.26-3.26h13.04c1.8,0,3.26,1.46,3.26,3.26v13.04c0,1.8-1.46,3.26-3.26,3.26Zm-12.3-4h11.56v-11.56h-11.56v11.56Zm12.3-11.56h0,0Z"/>
      </g>
      <g>
        <rect class="cls-4" x="5.56" y="40.23" width="15.56" height="15.56" rx="1.26" ry="1.26"/>
        <path class="cls-5" d="m19.86,57.79H6.82c-1.8,0-3.26-1.46-3.26-3.26v-13.04c0-1.8,1.46-3.26,3.26-3.26h13.04c1.8,0,3.26,1.46,3.26,3.26v13.04c0,1.8-1.46,3.26-3.26,3.26Zm-12.3-4h11.56v-11.56H7.56v11.56Zm12.3-11.56h0,0Z"/>
      </g>
      <g>
        <rect class="cls-4" x="49.07" y="40.23" width="15.56" height="15.56" rx="1.26" ry="1.26"/>
        <path class="cls-5" d="m63.37,57.79h-13.04c-1.8,0-3.26-1.46-3.26-3.26v-13.04c0-1.8,1.46-3.26,3.26-3.26h13.04c1.8,0,3.26,1.46,3.26,3.26v13.04c0,1.8-1.46,3.26-3.26,3.26Zm-12.3-4h11.56v-11.56h-11.56v11.56Zm12.3-11.56h0,0Z"/>
      </g>
      <path class="cls-5" d="m21.12,64.21h-7.78c-1.1,0-2-.9-2-2s.9-2,2-2h7.78c1.1,0,2,.9,2,2s-.9,2-2,2Z"/>
      <path class="cls-5" d="m105.67,77.63H21.12c-1.1,0-2-.9-2-2s.9-2,2-2h84.55c1.1,0,2,.9,2,2s-.9,2-2,2Z"/>
      <g>
        <path class="cls-2" d="m106.73,58.18c-3.34-17.44-17.44-30.52-34.62-32.9l1.09,24.17c1.04,3.57,3.91,6.3,7.53,7.18l23.43,4.87c1.59.33,3-1.06,2.69-2.65l-.13-.67Z"/>
        <path class="cls-5" d="m104.63,63.55c-.29,0-.58-.03-.87-.09l-23.43-4.87c-4.36-1.05-7.8-4.33-9.04-8.57l-.07-.23-1.21-26.81,2.38.33c18.25,2.53,32.84,16.4,36.3,34.5h0s.13.67.13.67c.27,1.41-.18,2.84-1.2,3.85-.81.8-1.88,1.23-2.99,1.23Zm-29.44-14.44c.89,2.77,3.18,4.89,6.01,5.58l23.37,4.86s.14.03.24-.07c.1-.1.08-.21.08-.24l-.13-.67c-2.99-15.62-15.12-27.77-30.54-30.89l.97,21.44Z"/>
      </g>
      <g>
        <rect class="cls-4" x="79.43" y="40.23" width="7.54" height="7.54" rx="1.26" ry="1.26"/>
        <path class="cls-5" d="m85.71,49.78h-5.02c-1.8,0-3.26-1.46-3.26-3.26v-5.02c0-1.8,1.46-3.26,3.26-3.26h5.02c1.8,0,3.26,1.46,3.26,3.26v5.02c0,1.8-1.46,3.26-3.26,3.26Zm-4.28-4h3.54v-3.54h-3.54v3.54Zm4.28-3.54h0,0Z"/>
      </g>
    </g>
  </g>
</svg>