<svg xmlns="http://www.w3.org/2000/svg" id="outline_icons" data-name="outline icons" viewBox="0 0 112 112"><defs><style>.cls-2,.cls-4,.cls-5{stroke-width:0}.cls-2{fill:#98d2e2}.cls-4{fill:#e4f2f4}.cls-5{fill:#004241}</style></defs><path id="area" d="M0 0h112v112H0z" style="fill:none;stroke-width:0"/><path d="M56.62 28.77h22.41c1.19 0 2.16-.95 2.16-2.12v-6.21c0-2.73-2.25-4.94-5.04-4.94h-3.17c-1.69 0-3.26-.83-4.19-2.21l-3.12-4.6a7.49 7.49 0 0 0-6.19-3.26H48.03c-2.25 0-4.39 1-5.8 2.73l-5.41 6.61a7.23 7.23 0 0 0-1.64 4.57v9.42h21.44Z" style="stroke-width:0;fill:#ef706b"/><path d="M79.03 30.77H35.19c-1.1 0-2-.9-2-2v-9.42c0-2.12.74-4.19 2.09-5.84l5.41-6.61c1.8-2.2 4.48-3.46 7.35-3.46h11.45a9.47 9.47 0 0 1 7.85 4.14l3.12 4.6c.56.83 1.51 1.33 2.54 1.33h3.17c3.88 0 7.04 3.12 7.04 6.94v6.21c0 2.27-1.86 4.12-4.16 4.12Zm-41.84-4h41.84c.09 0 .16-.06.16-.12v-6.21c0-1.62-1.36-2.94-3.04-2.94h-3.17c-2.35 0-4.54-1.15-5.85-3.08l-3.12-4.6a5.47 5.47 0 0 0-4.54-2.38H48.02c-1.66 0-3.21.73-4.25 2l-5.41 6.61c-.77.94-1.19 2.11-1.19 3.31v7.42Z" class="cls-5"/><ellipse cx="45.85" cy="28.5" class="cls-4" rx="4.76" ry="4.94"/><path d="M45.85 35.44c-3.73 0-6.76-3.11-6.76-6.94s3.03-6.94 6.76-6.94 6.76 3.11 6.76 6.94-3.03 6.94-6.76 6.94m0-9.88c-1.52 0-2.76 1.32-2.76 2.94s1.24 2.94 2.76 2.94 2.76-1.32 2.76-2.94-1.24-2.94-2.76-2.94" class="cls-5"/><ellipse cx="67.61" cy="28.5" class="cls-4" rx="4.76" ry="4.94"/><path d="M67.61 35.44c-3.73 0-6.76-3.11-6.76-6.94s3.03-6.94 6.76-6.94 6.76 3.11 6.76 6.94-3.03 6.94-6.76 6.94m0-9.88c-1.52 0-2.76 1.32-2.76 2.94s1.24 2.94 2.76 2.94 2.76-1.32 2.76-2.94-1.24-2.94-2.76-2.94m-17.63-10.5h-2.6c-1.1 0-2-.9-2-2s.9-2 2-2h2.6c1.1 0 2 .9 2 2s-.9 2-2 2m10.38 0h-2.6c-1.1 0-2-.9-2-2s.9-2 2-2h2.6c1.1 0 2 .9 2 2s-.9 2-2 2" class="cls-5"/><circle cx="55.69" cy="74.01" r="34.97" class="cls-2"/><path d="M55.69 110.97c-20.38 0-36.97-16.58-36.97-36.97S35.3 37.03 55.69 37.03 92.66 53.61 92.66 74s-16.58 36.97-36.97 36.97m0-69.93c-18.18 0-32.97 14.79-32.97 32.97s14.79 32.97 32.97 32.97 32.97-14.79 32.97-32.97-14.79-32.97-32.97-32.97" class="cls-5"/><path d="M90.65 74.01a34.8 34.8 0 0 0-5.94-19.5H61.36a4.3 4.3 0 0 0-4.3 4.3v.2a4.3 4.3 0 0 0 4.3 4.3h.78a4.3 4.3 0 0 1 4.3 4.3v.44a4.3 4.3 0 0 1-4.3 4.3H46.49a4.3 4.3 0 0 0-4.3 4.3v.9a4.3 4.3 0 0 0 4.3 4.3h22.39a4.3 4.3 0 0 1 4.3 4.3v.98a4.3 4.3 0 0 1-4.3 4.3h-3.85a4.3 4.3 0 1 0 0 8.6h13.43c.19 0 .37.04.55.06 7.14-6.4 11.64-15.7 11.64-26.04Z" class="cls-4"/><path d="M79.01 102.05c-.09 0-.17 0-.26-.02l-.32-.05H65.04a6.3 6.3 0 1 1 0-12.6h3.85a2.3 2.3 0 0 0 2.3-2.3v-.98a2.3 2.3 0 0 0-2.3-2.3H46.5c-3.47 0-6.3-2.83-6.3-6.3v-.9c0-3.47 2.83-6.3 6.3-6.3h15.65a2.3 2.3 0 0 0 2.3-2.3v-.44a2.3 2.3 0 0 0-2.3-2.3h-.78c-3.47 0-6.3-2.82-6.3-6.3v-.2c0-3.47 2.82-6.3 6.3-6.3h23.35c.67 0 1.29.33 1.66.88 4.11 6.1 6.28 13.24 6.28 20.62 0 10.49-4.49 20.52-12.31 27.53-.37.33-.85.51-1.33.51Zm-13.98-8.66a2.3 2.3 0 0 0 0 4.6h13.26a33.02 33.02 0 0 0 10.35-23.98c0-6.23-1.73-12.26-5.03-17.5H61.34a2.3 2.3 0 0 0-2.3 2.3v.2a2.3 2.3 0 0 0 2.3 2.3h.78c3.47 0 6.3 2.83 6.3 6.3v.44c0 3.47-2.83 6.3-6.3 6.3H46.47a2.3 2.3 0 0 0-2.3 2.3v.9a2.3 2.3 0 0 0 2.3 2.3h22.39c3.47 0 6.3 2.82 6.3 6.3v.98c0 3.47-2.83 6.3-6.3 6.3h-3.85Z" class="cls-5"/><path d="M40.2 54.05H26.98a34.7 34.7 0 0 0-4.53 9.09H40.2c2.5 0 4.53-2.03 4.53-4.53v-.03c0-2.5-2.03-4.53-4.53-4.53" class="cls-4"/><path d="M40.2 65.14H22.45c-.64 0-1.24-.31-1.62-.83s-.48-1.19-.28-1.8a37 37 0 0 1 4.79-9.61c.37-.54.99-.86 1.64-.86H40.2c3.6 0 6.53 2.93 6.53 6.53s-2.93 6.56-6.53 6.56Zm-14.87-4H40.2c1.39 0 2.53-1.13 2.53-2.53s-1.13-2.56-2.53-2.56H28.04a33 33 0 0 0-2.71 5.09" class="cls-5"/><path d="M27.72 72.54h-6.08c-.3 0-.6.04-.89.1-.02.46-.03.91-.03 1.37 0 2.61.3 5.16.84 7.61h6.17c2.5 0 4.53-2.03 4.53-4.53v-.03c0-2.5-2.03-4.53-4.53-4.53Z" class="cls-4"/><path d="M27.72 83.62h-6.09c-.08 0-.19 0-.28-.02-.85-.09-1.56-.71-1.74-1.56-.59-2.65-.89-5.36-.89-8.04 0-.49.02-.97.04-1.45.04-.92.7-1.7 1.6-1.88.46-.09.88-.14 1.28-.14h6.08c3.6 0 6.53 2.93 6.53 6.53s-2.93 6.56-6.53 6.56m-4.52-4h4.52c1.39 0 2.53-1.13 2.53-2.53s-1.13-2.56-2.53-2.56h-5c.03 1.69.19 3.4.48 5.09" class="cls-5"/><path d="M88.92 63.14h-6.5c-2.56 0-4.64 2.08-4.64 4.64v.12c0 2.56 2.08 4.64 4.64 4.64h7.04c.4 0 .78-.06 1.15-.16-.15-3.21-.73-6.31-1.69-9.24" class="cls-2"/><path d="M89.46 74.54h-7.04a6.65 6.65 0 0 1-6.64-6.64v-.12a6.65 6.65 0 0 1 6.64-6.64h6.5a2 2 0 0 1 1.9 1.38c1.03 3.16 1.63 6.45 1.79 9.77.04.95-.58 1.79-1.5 2.03-.58.15-1.12.22-1.64.22Zm-7.04-9.4c-1.46 0-2.64 1.18-2.64 2.64v.12c0 1.46 1.18 2.64 2.64 2.64h6.04c-.19-1.83-.54-3.63-1.03-5.4z" class="cls-5"/></svg>