<?xml version="1.0" encoding="UTF-8"?>
<svg id="outline_icons" data-name="outline icons" xmlns="http://www.w3.org/2000/svg" viewBox="0 0 112 112">
  <defs>
    <style>
      .cls-1 {
        fill: none;
      }

      .cls-1, .cls-2, .cls-3, .cls-4, .cls-5 {
        stroke-width: 0px;
      }

      .cls-2 {
        fill: #98d2e2;
      }

      .cls-3 {
        fill: #ef706b;
      }

      .cls-4 {
        fill: #e4f2f4;
      }

      .cls-5 {
        fill: #004241;
      }
    </style>
  </defs>
  <g id="area">
    <rect class="cls-1" width="112" height="112"/>
  </g>
  <g>
    <g>
      <path class="cls-3" d="m56.62,28.77h22.41c1.19,0,2.16-.95,2.16-2.12v-6.21c0-2.73-2.25-4.94-5.04-4.94h-3.17c-1.69,0-3.26-.83-4.19-2.21l-3.12-4.6c-1.38-2.03-3.7-3.26-6.19-3.26h-11.45c-2.25,0-4.39,1-5.8,2.73l-5.41,6.61c-1.06,1.3-1.64,2.91-1.64,4.57v9.42h21.44Z"/>
      <path class="cls-5" d="m79.03,30.77h-43.84c-1.1,0-2-.9-2-2v-9.42c0-2.12.74-4.19,2.09-5.84l5.41-6.61c1.8-2.2,4.48-3.46,7.35-3.46h11.45c3.16,0,6.09,1.55,7.85,4.14l3.12,4.6c.56.83,1.51,1.33,2.54,1.33h3.17c3.88,0,7.04,3.12,7.04,6.94v6.21c0,2.27-1.86,4.12-4.16,4.12Zm-41.84-4h41.84c.09,0,.16-.06.16-.12v-6.21c0-1.62-1.36-2.94-3.04-2.94h-3.17c-2.35,0-4.54-1.15-5.85-3.08l-3.12-4.6c-1.01-1.49-2.71-2.38-4.54-2.38h-11.45c-1.66,0-3.21.73-4.25,2l-5.41,6.61c-.77.94-1.19,2.11-1.19,3.31v7.42Z"/>
    </g>
    <g>
      <ellipse class="cls-4" cx="45.85" cy="28.5" rx="4.76" ry="4.94"/>
      <path class="cls-5" d="m45.85,35.44c-3.73,0-6.76-3.11-6.76-6.94s3.03-6.94,6.76-6.94,6.76,3.11,6.76,6.94-3.03,6.94-6.76,6.94Zm0-9.88c-1.52,0-2.76,1.32-2.76,2.94s1.24,2.94,2.76,2.94,2.76-1.32,2.76-2.94-1.24-2.94-2.76-2.94Z"/>
    </g>
    <g>
      <ellipse class="cls-4" cx="67.61" cy="28.5" rx="4.76" ry="4.94"/>
      <path class="cls-5" d="m67.61,35.44c-3.73,0-6.76-3.11-6.76-6.94s3.03-6.94,6.76-6.94,6.76,3.11,6.76,6.94-3.03,6.94-6.76,6.94Zm0-9.88c-1.52,0-2.76,1.32-2.76,2.94s1.24,2.94,2.76,2.94,2.76-1.32,2.76-2.94-1.24-2.94-2.76-2.94Z"/>
    </g>
    <path class="cls-5" d="m49.98,15.06h-2.6c-1.1,0-2-.9-2-2s.9-2,2-2h2.6c1.1,0,2,.9,2,2s-.9,2-2,2Z"/>
    <path class="cls-5" d="m60.36,15.06h-2.6c-1.1,0-2-.9-2-2s.9-2,2-2h2.6c1.1,0,2,.9,2,2s-.9,2-2,2Z"/>
  </g>
  <g>
    <g>
      <circle class="cls-2" cx="55.69" cy="74.01" r="34.97"/>
      <path class="cls-5" d="m55.69,110.97c-20.38,0-36.97-16.58-36.97-36.97s16.58-36.97,36.97-36.97,36.97,16.58,36.97,36.97-16.58,36.97-36.97,36.97Zm0-69.93c-18.18,0-32.97,14.79-32.97,32.97s14.79,32.97,32.97,32.97,32.97-14.79,32.97-32.97-14.79-32.97-32.97-32.97Z"/>
    </g>
    <g>
      <path class="cls-4" d="m90.65,74.01c0-7.22-2.19-13.93-5.94-19.5h-23.35c-2.37,0-4.3,1.92-4.3,4.3v.2c0,2.37,1.92,4.3,4.3,4.3h.78c2.37,0,4.3,1.92,4.3,4.3v.44c0,2.37-1.92,4.3-4.3,4.3h-15.65c-2.37,0-4.3,1.92-4.3,4.3v.9c0,2.37,1.92,4.3,4.3,4.3h22.39c2.37,0,4.3,1.92,4.3,4.3v.98c0,2.37-1.92,4.3-4.3,4.3h-3.85c-2.37,0-4.3,1.92-4.3,4.3h0c0,2.37,1.92,4.3,4.3,4.3h13.43c.19,0,.37.04.55.06,7.14-6.4,11.64-15.7,11.64-26.04Z"/>
      <path class="cls-5" d="m79.01,102.05c-.09,0-.17,0-.26-.02l-.32-.05h-13.39c-3.47,0-6.3-2.82-6.3-6.3s2.82-6.3,6.3-6.3h3.85c1.27,0,2.3-1.03,2.3-2.3v-.98c0-1.27-1.03-2.3-2.3-2.3h-22.39c-3.47,0-6.3-2.83-6.3-6.3v-.9c0-3.47,2.83-6.3,6.3-6.3h15.65c1.27,0,2.3-1.03,2.3-2.3v-.44c0-1.27-1.03-2.3-2.3-2.3h-.78c-3.47,0-6.3-2.82-6.3-6.3v-.2c0-3.47,2.82-6.3,6.3-6.3h23.35c.67,0,1.29.33,1.66.88,4.11,6.1,6.28,13.24,6.28,20.62,0,10.49-4.49,20.52-12.31,27.53-.37.33-.85.51-1.33.51Zm-13.98-8.66c-1.27,0-2.3,1.03-2.3,2.3s1.03,2.3,2.3,2.3h13.26c6.59-6.22,10.35-14.91,10.35-23.98,0-6.23-1.73-12.26-5.03-17.5h-22.27c-1.27,0-2.3,1.03-2.3,2.3v.2c0,1.27,1.03,2.3,2.3,2.3h.78c3.47,0,6.3,2.83,6.3,6.3v.44c0,3.47-2.83,6.3-6.3,6.3h-15.65c-1.27,0-2.3,1.03-2.3,2.3v.9c0,1.27,1.03,2.3,2.3,2.3h22.39c3.47,0,6.3,2.82,6.3,6.3v.98c0,3.47-2.83,6.3-6.3,6.3h-3.85Z"/>
    </g>
    <g>
      <path class="cls-4" d="m40.2,54.05h-13.22c-1.93,2.76-3.46,5.82-4.53,9.09h17.75c2.5,0,4.53-2.03,4.53-4.53v-.03c0-2.5-2.03-4.53-4.53-4.53Z"/>
      <path class="cls-5" d="m40.2,65.14h-17.75c-.64,0-1.24-.31-1.62-.83-.38-.52-.48-1.19-.28-1.8,1.12-3.42,2.73-6.65,4.79-9.61.37-.54.99-.86,1.64-.86h13.22c3.6,0,6.53,2.93,6.53,6.53s-2.93,6.56-6.53,6.56Zm-14.87-4h14.87c1.39,0,2.53-1.13,2.53-2.53s-1.13-2.56-2.53-2.56h-12.16c-1.05,1.62-1.96,3.32-2.71,5.09Z"/>
    </g>
    <g>
      <path class="cls-4" d="m27.72,72.54h-6.08c-.3,0-.6.04-.89.1-.02.46-.03.91-.03,1.37,0,2.61.3,5.16.84,7.61.03,0,.05,0,.08,0h6.09c2.5,0,4.53-2.03,4.53-4.53v-.03c0-2.5-2.03-4.53-4.53-4.53Z"/>
      <path class="cls-5" d="m27.72,83.62h-6.09c-.08,0-.19,0-.28-.02-.85-.09-1.56-.71-1.74-1.56-.59-2.65-.89-5.36-.89-8.04,0-.49.02-.97.04-1.45.04-.92.7-1.7,1.6-1.88.46-.09.88-.14,1.28-.14h6.08c3.6,0,6.53,2.93,6.53,6.53s-2.93,6.56-6.53,6.56Zm-4.52-4h4.52c1.39,0,2.53-1.13,2.53-2.53s-1.13-2.56-2.53-2.56h-5c.03,1.69.19,3.4.48,5.09Z"/>
    </g>
    <g>
      <path class="cls-2" d="m88.92,63.14h-6.5c-2.56,0-4.64,2.08-4.64,4.64v.12c0,2.56,2.08,4.64,4.64,4.64h7.04c.4,0,.78-.06,1.15-.16-.15-3.21-.73-6.31-1.69-9.24Z"/>
      <path class="cls-5" d="m89.46,74.54h-7.04c-3.66,0-6.64-2.98-6.64-6.64v-.12c0-3.66,2.98-6.64,6.64-6.64h6.5c.87,0,1.63.56,1.9,1.38,1.03,3.16,1.63,6.45,1.79,9.77.04.95-.58,1.79-1.5,2.03-.58.15-1.12.22-1.64.22Zm-7.04-9.4c-1.46,0-2.64,1.18-2.64,2.64v.12c0,1.46,1.18,2.64,2.64,2.64h6.04c-.19-1.83-.54-3.63-1.03-5.4h-5.01Z"/>
    </g>
  </g>
</svg>