<?xml version="1.0" encoding="UTF-8"?>
<svg id="flatten_icons" data-name="flatten icons" xmlns="http://www.w3.org/2000/svg" viewBox="0 0 112 112">
  <defs>
    <style>
      .cls-1 {
        fill: none;
      }

      .cls-1, .cls-2, .cls-3, .cls-4, .cls-5, .cls-6, .cls-7 {
        stroke-width: 0px;
      }

      .cls-2 {
        fill: #c4d1d5;
      }

      .cls-3 {
        fill: #fff;
      }

      .cls-4 {
        fill: #ef706b;
      }

      .cls-5 {
        fill: #ffd833;
      }

      .cls-6 {
        fill: #004241;
      }

      .cls-7 {
        fill: #004978;
      }
    </style>
  </defs>
  <g>
    <rect class="cls-1" width="112" height="112"/>
    <g id="tgv">
      <g id="area">
        <rect class="cls-1" width="112" height="112"/>
      </g>
      <g id="rails">
        <path class="cls-2" d="m97.84,106.55c-1.1,0-2-.9-2-2v-2.87c0-1.1.9-2,2-2s2,.9,2,2v2.87c0,1.1-.9,2-2,2Z"/>
        <path class="cls-2" d="m83.55,106.55c-1.1,0-2-.9-2-2v-2.87c0-1.1.9-2,2-2s2,.9,2,2v2.87c0,1.1-.9,2-2,2Z"/>
        <path class="cls-2" d="m69.81,106.55c-1.1,0-2-.9-2-2v-2.87c0-1.1.9-2,2-2s2,.9,2,2v2.87c0,1.1-.9,2-2,2Z"/>
        <path class="cls-2" d="m55.52,106.55c-1.1,0-2-.9-2-2v-2.87c0-1.1.9-2,2-2s2,.9,2,2v2.87c0,1.1-.9,2-2,2Z"/>
        <path class="cls-2" d="m41.08,106.55c-1.1,0-2-.9-2-2v-2.87c0-1.1.9-2,2-2s2,.9,2,2v2.87c0,1.1-.9,2-2,2Z"/>
        <path class="cls-2" d="m26.79,106.55c-1.1,0-2-.9-2-2v-2.87c0-1.1.9-2,2-2s2,.9,2,2v2.87c0,1.1-.9,2-2,2Z"/>
        <path class="cls-2" d="m13.05,106.55c-1.1,0-2-.9-2-2v-2.87c0-1.1.9-2,2-2s2,.9,2,2v2.87c0,1.1-.9,2-2,2Z"/>
        <path class="cls-6" d="m105.87,103.69H4.02c-1.1,0-2-.9-2-2s.9-2,2-2h101.85c1.1,0,2,.9,2,2s-.9,2-2,2Z"/>
      </g>
      <g id="train">
        <path class="cls-6" d="m55.99,85.35c-3.06-2.04-6.96-1.84-9.81.21-1.03.74-2.28,1.09-3.55,1.09h-12.93c-1.29,0-2.55-.39-3.6-1.13-2.69-1.9-6.32-2.21-9.33-.47-4.14,2.39-5.54,7.73-3.12,11.92,2.42,4.19,7.74,5.65,11.88,3.26,1.42-.82,2.52-1.99,3.25-3.34,1.08-2,3.22-3.19,5.49-3.19h3.85c2.33,0,4.4,1.31,5.57,3.32.63,1.09,1.51,2.05,2.62,2.79,3.95,2.64,9.31,1.54,11.98-2.46,2.67-3.99,1.64-9.37-2.31-12.01Z"/>
        <g>
          <path class="cls-2" d="m13.96,30.9h38.49c13.32,0,25.76,7.18,33.15,19.12h0c2.16,3.49,4.99,6.45,8.29,8.67l4.03,2.71c4.3,2.89,7.97,6.75,10.76,11.31h0c2.09,3.42,1.67,7.95-1,10.86h0c-1.51,1.64-3.56,2.57-5.71,2.57h-56.24s-31.76,0-31.76,0"/>
          <path class="cls-6" d="m101.96,88.13H13.96v-4h88.01c1.59,0,3.1-.68,4.24-1.92,2.07-2.25,2.39-5.81.77-8.46-2.62-4.28-6.13-7.98-10.17-10.69l-4.03-2.71c-3.56-2.4-6.55-5.52-8.87-9.27-7.04-11.38-18.8-18.17-31.45-18.17H13.96v-4h38.49c14.05,0,27.08,7.5,34.85,20.07,2.02,3.27,4.62,5.98,7.7,8.06l4.03,2.71c4.51,3.03,8.43,7.15,11.35,11.92,2.58,4.21,2.07,9.67-1.24,13.26-1.88,2.04-4.49,3.21-7.18,3.21Z"/>
        </g>
        <g>
          <path class="cls-7" d="m13.96,45.21h34.56c3.06,0,5.99,1.36,8.09,3.75l17.4,17.4c2.24,2.56.56,6.76-2.7,6.76H13.96"/>
          <path class="cls-3" d="m71.31,75.12H13.96c-1.1,0-2-.9-2-2s.9-2,2-2h57.35c.93,0,1.37-.75,1.52-1.07.29-.63.36-1.57-.28-2.33l-17.34-17.35s-.06-.06-.09-.09c-1.72-1.95-4.12-3.07-6.59-3.07H13.96c-1.1,0-2-.9-2-2s.9-2,2-2h34.56c3.6,0,7.08,1.6,9.55,4.38l17.35,17.35s.06.06.09.09c1.59,1.81,1.97,4.43.96,6.66-.96,2.11-2.93,3.42-5.16,3.42Z"/>
        </g>
        <path class="cls-6" d="m88.42,57.49h-4.48c-4.19,0-8-2.19-10.2-5.87-5.66-9.46-17.5-18.09-17.62-18.18-.9-.65-1.1-1.9-.45-2.79.65-.9,1.9-1.1,2.79-.45.51.37,12.63,9.2,18.71,19.36,1.47,2.45,4,3.92,6.77,3.92h4.48c1.1,0,2,.9,2,2s-.9,2-2,2Z"/>
        <path class="cls-6" d="m24.38,88.13h-15.97c-1.1,0-2-.9-2-2s.9-2,2-2h15.97c1.1,0,2,.9,2,2s-.9,2-2,2Z"/>
        <path class="cls-6" d="m14.21,32.9h-.5c-1.1,0-2-.9-2-2s.9-2,2-2h.5c1.1,0,2,.9,2,2s-.9,2-2,2Z"/>
        <path class="cls-6" d="m2.92,88.13h-.53c-1.1,0-2-.9-2-2s.9-2,2-2h.53c1.1,0,2,.9,2,2s-.9,2-2,2Z"/>
        <path class="cls-6" d="m8.68,32.9h-.53c-1.1,0-2-.9-2-2s.9-2,2-2h.53c1.1,0,2,.9,2,2s-.9,2-2,2Z"/>
        <path class="cls-3" d="m100.61,73.08h-5.96c-1.05,0-1.9-.92-1.9-2.05v-1.93c0-.73.55-1.33,1.23-1.33h2.28c.87,0,1.72.35,2.37.97l2.62,2.51c.67.64.25,1.83-.65,1.83Z"/>
        <path class="cls-4" d="m52.83,59.68h3.69c1.8,0,3.26,1.46,3.26,3.26v1.27c0,.67-.54,1.21-1.21,1.21h-5.74c-.67,0-1.21-.54-1.21-1.21v-3.32c0-.67.54-1.21,1.21-1.21Z"/>
        <path class="cls-6" d="m22.78,62.11h-13.25c-1.1,0-2-.9-2-2s.9-2,2-2h13.25c1.1,0,2,.9,2,2s-.9,2-2,2Z"/>
        <path class="cls-6" d="m2.98,62.11h-.98C.9,62.11,0,61.21,0,60.11s.9-2,2-2h.98c1.1,0,2,.9,2,2s-.9,2-2,2Z"/>
        <path class="cls-6" d="m61.03,87.07l4.81,8.33c.21.45.56.72.93.72h33.68c.86,0,1.4-1.32.98-2.39l-3.51-6.66"/>
        <path class="cls-6" d="m22.2,32.9c-.23,0-.47-.04-.71-.13-1.03-.39-1.55-1.54-1.16-2.58l3.52-9.33-5.9-5.94c-.78-.78-.78-2.05,0-2.83.78-.78,2.05-.78,2.83,0l6.81,6.85c.55.56.73,1.38.45,2.12l-3.98,10.53c-.3.8-1.06,1.29-1.87,1.29Z"/>
      </g>
    </g>
    <g>
      <circle class="cls-5" cx="93" cy="19" r="15"/>
      <path class="cls-6" d="m93,36c-9.37,0-17-7.63-17-17s7.63-17,17-17,17,7.63,17,17-7.63,17-17,17Zm0-30c-7.17,0-13,5.83-13,13s5.83,13,13,13,13-5.83,13-13-5.83-13-13-13Z"/>
    </g>
  </g>
  <path class="cls-6" d="m53.44,19.29c-.56,0-1.09-.23-1.47-.64l-4.44-4.78c-.75-.81-.71-2.07.1-2.83.81-.75,2.08-.71,2.83.1l2.95,3.17,4.89-5.45c.74-.82,2-.89,2.82-.15.82.74.89,2,.15,2.82l-6.35,7.08c-.38.42-.91.66-1.47.66h-.02Z"/>
</svg>