<svg xmlns="http://www.w3.org/2000/svg" id="flatten_icons" data-name="flatten icons" viewBox="0 0 112 112"><defs><style>.cls-1{fill:none}.cls-1,.cls-3,.cls-5,.cls-7{stroke-width:0}.cls-3{fill:#c4d1d5}.cls-5{fill:#fff}.cls-7{fill:#004241}</style></defs><path d="M1.21 0h112v112h-112z" class="cls-1"/><g id="tgv"><path id="area" d="M0 0h111.98v112H0z" class="cls-1"/><g id="rails"><path d="M97.83 106.55c-1.1 0-2-.9-2-2v-2.87c0-1.1.9-2 2-2s2 .9 2 2v2.87c0 1.1-.9 2-2 2m-14.29 0c-1.1 0-2-.9-2-2v-2.87c0-1.1.9-2 2-2s2 .9 2 2v2.87c0 1.1-.9 2-2 2m-13.74 0c-1.1 0-2-.9-2-2v-2.87c0-1.1.9-2 2-2s2 .9 2 2v2.87c0 1.1-.9 2-2 2m-14.29 0c-1.1 0-2-.9-2-2v-2.87c0-1.1.9-2 2-2s2 .9 2 2v2.87c0 1.1-.9 2-2 2m-14.44 0c-1.1 0-2-.9-2-2v-2.87c0-1.1.9-2 2-2s2 .9 2 2v2.87c0 1.1-.9 2-2 2m-14.29 0c-1.1 0-2-.9-2-2v-2.87c0-1.1.9-2 2-2s2 .9 2 2v2.87c0 1.1-.9 2-2 2m-13.73 0c-1.1 0-2-.9-2-2v-2.87c0-1.1.9-2 2-2s2 .9 2 2v2.87c0 1.1-.9 2-2 2" class="cls-3"/><path d="M105.85 103.69H4.02c-1.1 0-2-.9-2-2s.9-2 2-2h101.84c1.1 0 2 .9 2 2s-.9 2-2 2Z" class="cls-7"/></g><g id="train"><path d="M55.99 85.35c-3.06-2.04-6.96-1.84-9.8.21-1.03.74-2.28 1.09-3.55 1.09H29.71c-1.29 0-2.55-.39-3.6-1.13-2.69-1.9-6.32-2.21-9.33-.47-4.14 2.39-5.54 7.73-3.12 11.92s7.74 5.65 11.88 3.26a8.54 8.54 0 0 0 3.25-3.34c1.08-2 3.22-3.19 5.49-3.19h3.85c2.33 0 4.4 1.31 5.57 3.32a8.4 8.4 0 0 0 2.62 2.79c3.95 2.64 9.31 1.54 11.98-2.46 2.67-3.99 1.64-9.37-2.31-12.01Z" class="cls-7"/><path d="M13.96 30.9h38.49c13.32 0 25.76 7.18 33.15 19.12 2.16 3.49 4.98 6.45 8.29 8.67l4.03 2.71c4.3 2.89 7.97 6.75 10.76 11.31 2.09 3.42 1.67 7.95-1 10.86-1.51 1.64-3.56 2.57-5.71 2.57H13.98" class="cls-3"/><path d="M101.95 88.13H13.96v-4h87.99c1.59 0 3.1-.68 4.24-1.92 2.07-2.25 2.39-5.81.77-8.46-2.62-4.28-6.13-7.98-10.16-10.69l-4.03-2.71c-3.56-2.4-6.55-5.52-8.87-9.27-7.04-11.38-18.79-18.17-31.45-18.17H13.96v-4h38.49c14.05 0 27.08 7.5 34.85 20.07 2.02 3.27 4.61 5.98 7.7 8.06l4.03 2.71c4.51 3.03 8.43 7.15 11.35 11.92 2.58 4.21 2.07 9.67-1.24 13.26-1.88 2.04-4.49 3.21-7.18 3.21Z" class="cls-7"/><path d="M13.96 45.21h34.56c3.06 0 5.99 1.36 8.09 3.75L74 66.36c2.24 2.56.56 6.76-2.7 6.76H13.96" style="stroke-width:0;fill:#004978"/><path d="M71.3 75.12H13.96c-1.1 0-2-.9-2-2s.9-2 2-2H71.3c.93 0 1.37-.75 1.52-1.07.29-.63.36-1.57-.28-2.33L55.2 50.37l-.09-.09c-1.72-1.95-4.12-3.07-6.59-3.07H13.96c-1.1 0-2-.9-2-2s.9-2 2-2h34.56c3.6 0 7.08 1.6 9.55 4.38l17.35 17.35.09.09c1.59 1.81 1.97 4.43.96 6.66-.95 2.11-2.93 3.42-5.16 3.42Z" class="cls-5"/><path d="M88.41 57.49h-4.48c-4.19 0-8-2.19-10.2-5.87-5.66-9.46-17.5-18.09-17.62-18.18-.89-.65-1.1-1.9-.45-2.79s1.9-1.1 2.79-.45c.51.37 12.63 9.2 18.71 19.36 1.47 2.45 4 3.92 6.76 3.92h4.48c1.1 0 2 .9 2 2s-.9 2-2 2ZM24.38 88.13H8.41c-1.1 0-2-.9-2-2s.9-2 2-2h15.97c1.1 0 2 .9 2 2s-.9 2-2 2M14.21 32.9h-.5c-1.1 0-2-.9-2-2s.9-2 2-2h.5c1.1 0 2 .9 2 2s-.9 2-2 2M2.92 88.13h-.53c-1.1 0-2-.9-2-2s.9-2 2-2h.53c1.1 0 2 .9 2 2s-.9 2-2 2M8.67 32.9h-.53c-1.1 0-2-.9-2-2s.9-2 2-2h.53c1.1 0 2 .9 2 2s-.9 2-2 2" class="cls-7"/><path d="M100.59 73.08h-5.96c-1.05 0-1.9-.92-1.9-2.05V69.1c0-.73.55-1.33 1.23-1.33h2.28c.87 0 1.72.35 2.37.97l2.62 2.51c.67.64.25 1.83-.64 1.83" class="cls-5"/><path d="M52.82 59.68h3.69c1.8 0 3.26 1.46 3.26 3.26v1.27c0 .67-.54 1.21-1.21 1.21h-5.74c-.67 0-1.21-.54-1.21-1.21v-3.32c0-.67.54-1.21 1.21-1.21" style="stroke-width:0;fill:#ef706b"/><path d="M22.77 62.11H9.52c-1.1 0-2-.9-2-2s.9-2 2-2h13.25c1.1 0 2 .9 2 2s-.9 2-2 2m-19.79 0H2c-1.1 0-2-.9-2-2s.9-2 2-2h.98c1.1 0 2 .9 2 2s-.9 2-2 2m58.05 24.96 4.81 8.33c.21.45.56.72.93.72h33.67c.86 0 1.4-1.32.98-2.39l-3.51-6.66M22.2 32.9a2 2 0 0 1-1.87-2.71l3.52-9.33-5.9-5.94c-.78-.78-.78-2.05 0-2.83s2.05-.78 2.83 0l6.81 6.85c.55.56.73 1.38.45 2.12l-3.98 10.53c-.3.8-1.06 1.29-1.87 1.29Z" class="cls-7"/></g></g><path d="M8.38 2h39.23c3.52 0 6.38 2.86 6.38 6.38v19.23c0 3.52-2.86 6.38-6.38 6.38H8.38C4.86 33.99 2 31.13 2 27.61V8.38C2 4.86 4.86 2 8.38 2" style="stroke-width:0;fill:#e26f6b"/><path d="M47.62 4C50.04 4 52 5.96 52 8.38v19.23c0 2.42-1.96 4.38-4.38 4.38H8.38C5.96 31.99 4 30.03 4 27.61V8.38C4 5.96 5.96 4 8.38 4h39.23m0-4H8.38C3.76 0 0 3.76 0 8.38v19.23c0 4.62 3.76 8.38 8.38 8.38h39.23c4.62 0 8.38-3.76 8.38-8.38V8.38c0-4.62-3.76-8.38-8.38-8.38" class="cls-7"/><path d="M52 13.33H4V8.38C4 5.96 5.96 4 8.38 4h39.23c2.42 0 4.38 1.96 4.38 4.38v4.95Z" class="cls-7"/><path d="M52 22.72H4v4.95c0 2.42 1.96 4.38 4.38 4.38h39.23c2.42 0 4.38-1.96 4.38-4.38v-4.95Z" style="stroke-width:0;fill:#f4d645"/></svg>