<?xml version="1.0" encoding="UTF-8"?>
<svg id="flatten_icons" data-name="flatten icons" xmlns="http://www.w3.org/2000/svg" viewBox="0 0 112 112">
  <defs>
    <style>
      .cls-1 {
        fill: none;
      }

      .cls-1, .cls-2, .cls-3, .cls-4, .cls-5, .cls-6 {
        stroke-width: 0px;
      }

      .cls-2 {
        fill: #d16f5d;
      }

      .cls-3 {
        fill: #fff;
      }

      .cls-4 {
        fill: #ede1df;
      }

      .cls-5 {
        fill: #e57f67;
      }

      .cls-6 {
        fill: #004241;
      }
    </style>
  </defs>
  <g id="theiere">
    <g>
      <g>
        <path class="cls-2" d="m84.33,43.92s4.55-12.04,14.36-9.49,14.36,19.27,9.09,27.45-12.64,6.54-17.41,19.81l-3.9,5.05-4.07-5.05,1.92-14.95,5.48-3.75c4.64,1.46,9.18-3.58,11.3-7.81s-.16-10.88-5.86-10.88c-4.88,0-7.26,11.99-7.26,11.99l-6.21-4.69,2.54-7.68Z"/>
        <path class="cls-6" d="m86.47,88.74c-.6,0-1.18-.27-1.56-.75l-4.07-5.05c-.34-.42-.5-.97-.43-1.51l1.92-14.95c.07-.57.38-1.07.85-1.4l5.48-3.75c.51-.35,1.15-.44,1.73-.26,3.47,1.09,7.31-3.59,8.91-6.79.87-1.73.73-4.15-.34-5.88-.59-.96-1.72-2.1-3.72-2.1s-4.32,5.47-5.3,10.38c-.13.67-.61,1.23-1.25,1.48-.64.24-1.37.14-1.92-.27l-6.21-4.69c-.68-.52-.96-1.41-.69-2.22l2.54-7.69s.02-.05.03-.08c1.79-4.75,7.6-13.09,16.74-10.72,4.69,1.21,8.69,5.27,10.98,11.13,2.69,6.9,2.42,14.49-.71,19.33-2.34,3.63-5.03,5.49-7.63,7.28-3.57,2.47-6.95,4.8-9.58,12.12-.07.2-.17.38-.3.55l-3.9,5.05c-.37.48-.95.77-1.56.78h-.02Zm-1.97-7.64l1.94,2.41,2.16-2.79c3.06-8.3,7.25-11.2,10.96-13.76,2.38-1.65,4.63-3.2,6.54-6.16,2.41-3.74,2.55-10.06.34-15.71-1.82-4.65-4.82-7.83-8.25-8.72-7.79-2.02-11.68,7.46-11.98,8.23l-2.08,6.28,2.64,1.99c1.2-4.14,3.8-10.56,8.48-10.56,2.96,0,5.55,1.46,7.12,4,1.79,2.89,2,6.82.52,9.77-3.6,7.2-8.77,9.68-12.68,9.06l-4.02,2.75-1.7,13.22Z"/>
      </g>
      <g>
        <path class="cls-5" d="m84.33,43.92c-1.5-4.08-5.39-6.79-9.75-6.79h-34.48c-4.21,0-7.96,2.55-9.57,6.41-2.73.46-6.83.42-9.37-2.97-4.08-5.44-6.41-14.68-12.04-15.65H3.37c-1.18,0-1.8,1.38-1.02,2.27,2.01,2.31,4.57,6.3,4.45,11.51-.19,8.43,3.82,26.35,17.98,30.16-.47,5.36-.51,10.75-.08,16.12.44,5.39,4.92,9.56,10.33,9.58l44.63.16c5.44.02,9.97-4.17,10.4-9.59,1.11-13.89-.82-27.86-5.74-41.21Z"/>
        <path class="cls-6" d="m79.7,96.73h-.04l-44.63-.16c-6.5-.02-11.79-4.93-12.32-11.42-.39-4.88-.41-9.86-.05-14.85-13.39-4.76-18.09-21.69-17.86-31.63.1-4.51-2.1-8.01-3.96-10.16-.88-1.01-1.08-2.4-.53-3.62.55-1.21,1.73-1.97,3.06-1.97h5.76c.11,0,.23,0,.34.03,4.75.82,7.34,5.75,9.83,10.52,1.09,2.08,2.22,4.24,3.46,5.9,1.63,2.18,4.24,2.52,6.43,2.32,2.14-4.02,6.3-6.56,10.91-6.56h34.48c5.17,0,9.84,3.26,11.62,8.1h0c5.03,13.65,7,27.8,5.86,42.06-.51,6.42-5.94,11.43-12.36,11.43ZM4.71,26.92c2.09,2.72,4.2,6.74,4.09,11.83-.17,7.7,3.63,24.72,16.5,28.18.94.25,1.56,1.14,1.47,2.11-.47,5.29-.49,10.6-.07,15.78.36,4.4,3.94,7.73,8.34,7.74l44.63.16h.03c4.35,0,8.02-3.4,8.37-7.75,1.1-13.68-.8-27.26-5.62-40.36h0c-1.21-3.28-4.37-5.49-7.87-5.49h-34.48c-3.38,0-6.41,2.03-7.72,5.18-.26.64-.84,1.09-1.52,1.2-4.87.81-8.88-.52-11.3-3.74-1.44-1.92-2.64-4.22-3.81-6.44-2.01-3.84-4.09-7.81-6.82-8.41h-4.23Z"/>
      </g>
      <g>
        <path class="cls-5" d="m36.6,37.13h0c0-5.36,5.69-9.71,12.72-9.71h15.99c7.02,0,12.72,4.35,12.72,9.71h0s-41.42,0-41.42,0Z"/>
        <path class="cls-6" d="m78.02,39.13h-41.42c-1.1,0-2-.9-2-2,0-6.46,6.6-11.71,14.71-11.71h15.99c8.11,0,14.72,5.25,14.72,11.71,0,1.1-.9,2-2,2Zm-39.05-4h36.69c-1.23-3.29-5.4-5.71-10.35-5.71h-15.99c-4.95,0-9.12,2.43-10.35,5.71Z"/>
      </g>
      <g>
        <circle class="cls-5" cx="57.38" cy="21.95" r="4.67"/>
        <path class="cls-6" d="m57.38,28.62c-3.68,0-6.67-2.99-6.67-6.67s2.99-6.67,6.67-6.67,6.67,2.99,6.67,6.67-2.99,6.67-6.67,6.67Zm0-9.35c-1.47,0-2.67,1.2-2.67,2.67s1.2,2.67,2.67,2.67,2.67-1.2,2.67-2.67-1.2-2.67-2.67-2.67Z"/>
      </g>
      <g>
        <path class="cls-5" d="m59.96,37.13s7.81,10.9,8.13,17.08"/>
        <path class="cls-6" d="m68.09,56.21c-1.06,0-1.94-.83-2-1.9-.24-4.59-5.68-13.12-7.76-16.02-.64-.9-.44-2.15.46-2.79.9-.64,2.15-.44,2.79.46.83,1.16,8.16,11.56,8.5,18.14.06,1.1-.79,2.04-1.89,2.1-.04,0-.07,0-.11,0Z"/>
      </g>
      <g>
        <rect class="cls-4" x="64.74" y="53.81" width="10.82" height="11.81" transform="translate(-7.08 9.49) rotate(-7.37)"/>
        <path class="cls-6" d="m65.54,68.26c-.99,0-1.85-.73-1.98-1.74l-1.52-11.71c-.07-.53.08-1.06.4-1.48.32-.42.8-.69,1.33-.76l10.73-1.39c1.1-.14,2.1.63,2.24,1.73l1.52,11.71c.07.53-.08,1.06-.4,1.48-.32.42-.8.69-1.33.76l-10.73,1.39c-.09.01-.17.02-.26.02Zm.73-11.98l1,7.74,6.76-.87-1-7.74-6.76.87Z"/>
      </g>
      <path class="cls-3" d="m34.32,66.23c-.1,0-.2,0-.3-.02-1.09-.16-1.85-1.18-1.68-2.27,1.17-7.85,2.64-12.58,3.67-15.16.82-2.07,2.74-3.41,4.88-3.41h2.83c1.1,0,2,.9,2,2s-.9,2-2,2h-2.83c-.49,0-.95.35-1.16.89-.95,2.39-2.31,6.81-3.43,14.28-.15.99-1,1.71-1.98,1.71Z"/>
      <path class="cls-2" d="m78.57,74.05c1.7-.41,3.36.81,3.46,2.55.22,3.86.03,10.68-4.01,11.11-4.55.49-22.41.19-29.2.06-1.55-.03-2.28-1.91-1.17-3,1.17-1.14,3.28-2.24,7.07-2.51,8.56-.61,14.61-1.01,18.85-5.25,1.81-1.81,3.57-2.63,5-2.97Z"/>
    </g>
    <rect class="cls-1" width="112" height="112"/>
  </g>
</svg>