<?xml version="1.0" encoding="UTF-8"?>
<svg id="flatten_icons" xmlns="http://www.w3.org/2000/svg" viewBox="0 0 112 112">
  <defs>
    <style>
      .cls-1 {
        fill: none;
      }

      .cls-2 {
        fill: #a1c4d6;
      }

      .cls-3 {
        fill: #d4ecf4;
      }

      .cls-4 {
        fill: #c7dbdd;
      }

      .cls-5 {
        fill: #fff;
      }

      .cls-6 {
        fill: #ce8292;
      }

      .cls-7 {
        fill: #004241;
      }
    </style>
  </defs>
  <g id="thon">
    <path class="cls-6" d="M76.21,80.23c-7.05,3.3-6.04,19.65-4.99,24.74.99,4.8,27.02,6.46,35.4,1.06.83-.54,1.34-1.52,1.39-2.59.15-3.47.44-12.04-.07-17.25-.65-6.65-24.18-9.48-31.73-5.95Z"/>
    <path class="cls-5" d="M71.04,99.55c-.21,0-.42,0-.64-.01-1.1-.05-1.96-.99-1.9-2.09.05-1.1,1-1.93,2.09-1.9,9.86.5,11.25-16.23,11.27-16.4.08-1.1,1.04-1.93,2.15-1.84,1.1.08,1.93,1.04,1.84,2.14-.02.21-.4,5.07-2.34,9.93-2.66,6.67-6.96,10.18-12.47,10.18Z"/>
    <path class="cls-5" d="M76.35,109.71c-.29,0-.58,0-.88-.02-1.1-.05-1.96-.99-1.9-2.09s1.01-1.92,2.09-1.9c15.35.74,17.45-24.62,17.47-24.87.08-1.1,1.05-1.93,2.15-1.84,1.1.08,1.93,1.04,1.84,2.14-.02.29-.57,7.28-3.36,14.27-3.74,9.39-9.75,14.32-17.42,14.32Z"/>
    <path class="cls-5" d="M98.54,111.04s-.04,0-.06,0c-1.1-.03-1.97-.95-1.94-2.06.4-13.39,8.67-25.21,9.03-25.71.64-.9,1.89-1.11,2.79-.47.9.64,1.11,1.89.48,2.79-.08.11-7.93,11.35-8.29,23.51-.03,1.08-.92,1.94-2,1.94Z"/>
    <g id="thon-2" data-name="thon">
      <g id="pommedeterre">
        <rect class="cls-1" width="112" height="112"/>
      </g>
      <g>
        <g>
          <path class="cls-4" d="M82.31,60.87l6.19,9.32s5.36-11.14,1.31-15.2"/>
          <path class="cls-7" d="M88.5,72.2c-.67,0-1.29-.33-1.67-.89l-6.19-9.32c-.61-.92-.36-2.16.56-2.77.92-.61,2.16-.36,2.77.56l4.09,6.15c1.17-3.49,2-7.84.34-9.5-.78-.78-.78-2.05,0-2.83s2.05-.78,2.83,0c4.91,4.92-.32,16.21-.93,17.48-.31.65-.95,1.08-1.66,1.13-.05,0-.09,0-.14,0Z"/>
        </g>
        <g>
          <path class="cls-4" d="M49.11,31.15l-2.69-3.69s7.93-6.45,10.57-19.94c0,0,9.85,2.77,13.78,10.4"/>
          <path class="cls-7" d="M49.12,33.15c-.62,0-1.23-.28-1.62-.82l-2.69-3.69c-.63-.86-.47-2.06.35-2.73.07-.06,7.42-6.23,9.87-18.77.11-.55.44-1.03.91-1.32.48-.29,1.05-.38,1.59-.22.44.12,10.73,3.1,15.01,11.41.51.98.12,2.19-.86,2.69-.98.5-2.19.12-2.69-.86-2.46-4.77-7.67-7.48-10.54-8.66-2.34,9.37-7.03,15.12-9.38,17.53l1.65,2.26c.65.89.46,2.14-.44,2.79-.36.26-.77.38-1.18.38Z"/>
        </g>
        <path class="cls-7" d="M63.26,30.02c-.72,0-1.42-.39-1.78-1.08-2.59-5-8.49-6.97-8.55-6.99-1.05-.34-1.62-1.47-1.28-2.52s1.46-1.62,2.51-1.29c.31.1,7.52,2.48,10.88,8.96.51.98.12,2.19-.86,2.7-.29.15-.61.22-.92.22Z"/>
        <g>
          <path class="cls-4" d="M40.4,53.94s-9.42-7.07-18.54-7.04c0,0,13.67-6.81,23.72-1.84"/>
          <path class="cls-7" d="M40.4,55.94c-.42,0-.84-.13-1.2-.4-.09-.07-8.97-6.64-17.28-6.64-.02,0-.05,0-.07,0-.93,0-1.73-.64-1.95-1.54-.21-.9.22-1.84,1.05-2.25.59-.3,14.69-7.2,25.5-1.84.99.49,1.4,1.69.91,2.68-.49.99-1.69,1.4-2.68.9-4.76-2.36-10.55-1.74-14.99-.62,6.48,2.08,11.61,5.89,11.9,6.11.88.66,1.06,1.92.4,2.8-.39.52-.99.8-1.6.8Z"/>
        </g>
        <g>
          <path class="cls-4" d="M52.1,71.42s5.22,10.56,3.51,19.52c0,0,9.21-12.19,6.16-22.98"/>
          <path class="cls-7" d="M55.6,92.94c-.27,0-.55-.06-.81-.17-.85-.38-1.33-1.29-1.15-2.2,1.57-8.2-3.29-18.16-3.34-18.26-.49-.99-.08-2.19.91-2.68.99-.49,2.19-.08,2.68.91.16.33,2.96,6.06,3.81,12.8,1.91-4.16,3.58-9.74,2.14-14.83-.3-1.06.32-2.17,1.38-2.47,1.06-.3,2.17.32,2.47,1.38,3.28,11.62-6.09,24.2-6.49,24.73-.39.51-.98.79-1.6.79Z"/>
        </g>
        <g>
          <path class="cls-4" d="M2.71,77.96s12.18,2.06,17.53,8.42c5.35,6.36,5.31,17.41,5.31,17.41,0,0,13.48-3.32,5.7-26.55,0,0-14.71-11.52-28.54.72Z"/>
          <path class="cls-7" d="M25.56,105.79c-.44,0-.88-.15-1.24-.43-.48-.38-.77-.96-.77-1.58,0-.1-.04-10.41-4.84-16.12-4.82-5.73-16.22-7.72-16.34-7.74-.76-.13-1.38-.68-1.59-1.42-.21-.74.02-1.54.6-2.05,14.91-13.2,30.94-.93,31.1-.8.31.24.54.57.66.94,3.25,9.7,3.37,17.39.36,22.86-2.79,5.07-7.29,6.23-7.48,6.27-.16.04-.32.06-.48.06ZM7.35,77.01c4.29,1.23,10.73,3.7,14.43,8.09,3.96,4.7,5.21,11.55,5.6,15.53.89-.67,1.88-1.69,2.69-3.19,2.3-4.28,2.12-10.83-.51-18.96-2.26-1.57-12.06-7.6-22.21-1.47Z"/>
        </g>
        <path class="cls-2" d="M31.62,78.56c-1.69.57-3.11-1.34-2.08-2.79,3.8-5.34,9.56-14.1,11.22-20.28,2.55-9.48,6.31-21.98,20.61-32.81,14.31-10.83,32.41-9.14,39.17-12.23,0,0,.86,4.91.68,8.48l6.55-.76s.15,19.96-17.28,36c-17.43,16.03-29.2,16.23-37.82,18.08-5.56,1.2-15.03,4.28-21.05,6.32Z"/>
        <path class="cls-3" d="M82.74,34.36c-.16.06-.33.12-.49.18-2.38.87-4.32,2.71-5.17,5.09-.24.67-.36,1.29-.23,1.74,1.39,4.95,3,4.6-3.98,4.63-4.18.02-8.54,1.89-11.37,3.4-6.77,8.15-9.39,16.53-11.26,23.42.87-.22,1.68-.42,2.43-.58,8.62-1.85,20.39-2.05,37.82-18.08,4.02-3.7,9.51-11.93,11.88-15.75-11.18,4.74-18.29-.43-19.63-4.04Z"/>
        <path class="cls-7" d="M98.54,29.77c-.33,0-.66-.08-.97-.25-.97-.54-1.32-1.75-.78-2.72,2.08-3.75,2.43-7.99,2.44-8.03.09-1.1,1.05-1.91,2.15-1.84,1.1.09,1.92,1.05,1.84,2.15-.02.21-.43,5.15-2.93,9.66-.36.66-1.05,1.03-1.75,1.03Z"/>
        <path class="cls-7" d="M91.31,22.08c-.54,0-1.04-.21-1.42-.59-.37-.37-.58-.87-.58-1.41,0-.13.01-.26.04-.39.02-.13.06-.25.11-.37.05-.13.11-.24.18-.35.08-.11.16-.21.25-.3.74-.75,2.09-.75,2.83,0,.37.37.59.89.59,1.41s-.21,1.04-.59,1.41c-.09.1-.2.18-.3.26-.11.07-.23.13-.35.18s-.24.09-.37.11c-.13.03-.26.04-.39.04Z"/>
        <path class="cls-7" d="M93.56,41.78c-.98,0-2.02-.13-3.1-.43-8.64-2.39-10.61-10.92-10.45-15.1.04-1.1.99-1.98,2.08-1.92,1.1.04,1.96.97,1.92,2.07h0c-.01.37-.19,8.95,7.52,11.09,7.58,2.1,12.54-9.01,12.59-9.12.44-1.01,1.62-1.47,2.63-1.04,1.01.44,1.48,1.61,1.04,2.63-.23.53-5.23,11.82-14.23,11.82Z"/>
        <path class="cls-7" d="M62.81,50.91c-.52,0-1.05-.2-1.44-.61-.76-.79-.75-2.04.04-2.81.16-.16,4.02-3.86,9.49-2.79,1.81.36,3.25,0,4.2-.4-.69-1.9-.76-4.11-.76-4.93,0-1.1.89-2,2-2h0c1.1,0,2,.89,2,2h0c0,1.77.42,3.79.86,4.24.38.39.59.91.57,1.45-.01.54-.25,1.05-.65,1.42-.14.13-3.57,3.22-9,2.15-3.37-.67-5.83,1.63-5.93,1.73-.39.37-.89.55-1.38.55Z"/>
        <path class="cls-5" d="M54,48c-.27,0-.54-.05-.8-.17-1.01-.44-1.47-1.62-1.03-2.63.21-.48,5.23-11.75,13.64-16.16.98-.51,2.19-.13,2.7.84.51.98.14,2.19-.84,2.7-7.15,3.75-11.79,14.12-11.84,14.23-.33.75-1.06,1.19-1.83,1.19Z"/>
        <path class="cls-7" d="M31,80.66c-1.18,0-2.3-.55-3.04-1.55-1.01-1.36-1.03-3.13-.04-4.51,3.38-4.75,9.3-13.63,10.92-19.64,2.24-8.33,6-22.28,21.34-33.89,10.01-7.58,21.72-9.27,30.27-10.5,3.92-.57,7.31-1.05,9.28-1.95.56-.26,1.21-.24,1.76.05.55.29.93.82,1.04,1.43.03.17.58,3.38.71,6.58l4.32-.5c.56-.07,1.13.11,1.55.49s.67.92.68,1.48c0,.85-.05,21.04-17.93,37.48-15.57,14.33-26.95,16.39-35.26,17.9-1.22.22-2.38.43-3.49.67-5.6,1.21-15.46,4.44-20.83,6.26h0c-.42.14-.85.21-1.26.21ZM30.98,76.66s0,0,0,0l.64,1.89-.64-1.89ZM98.9,13.12c-2.16.58-4.8.96-7.9,1.41-8.12,1.17-19.24,2.78-28.42,9.73-14.25,10.79-17.64,23.4-19.89,31.74-1.65,6.14-6.95,14.45-11.22,20.5,6.62-2.23,15.41-5.06,20.78-6.21,1.15-.25,2.35-.47,3.62-.7,8.26-1.5,18.55-3.36,33.27-16.9,13.23-12.17,15.94-26.76,16.49-32.26l-4.18.48c-.58.07-1.17-.12-1.6-.53s-.66-.97-.63-1.56c.09-1.82-.11-4.05-.32-5.7Z"/>
      </g>
      <path class="cls-7" d="M89.25,111.41c-6.41,0-12.65-.89-16.17-2.37-2.25-.95-3.5-2.15-3.82-3.67-.9-4.36-2.64-22.86,6.1-26.95h0c6.63-3.1,23.12-1.84,30.42,2.33,2.55,1.45,3.94,3.22,4.14,5.24.52,5.33.23,14.04.08,17.53-.07,1.74-.94,3.3-2.3,4.19-4.04,2.61-11.35,3.7-18.46,3.7ZM73.16,104.48c.23.3,1.42,1.11,4.59,1.82,8.33,1.86,22.58,1.41,27.79-1.95.27-.17.46-.57.47-1,.15-3.41.43-11.89-.06-16.97-.06-.63-.84-1.42-2.14-2.16-6.08-3.47-21.33-4.71-26.75-2.18h0c-5.43,2.54-4.99,16.99-3.9,22.44ZM73.18,104.56h0,0ZM73.14,104.44h0ZM76.21,80.23h0,0Z"/>
    </g>
  </g>
</svg>