<svg xmlns="http://www.w3.org/2000/svg" id="flatten_icons" viewBox="0 0 112 112"><defs><style>.cls-2{fill:#f4f4ea}.cls-4{fill:#dbdbd1}.cls-7{fill:#004241}</style></defs><g id="tofu"><path d="M0 0h112v112H0z" style="fill:none"/><path d="M44.41 95.46 12.82 71.43V49.29l31.59 24.03z" class="cls-4"/><path d="M44.41 97.46c-.43 0-.86-.14-1.21-.41L11.62 73.02c-.5-.38-.79-.97-.79-1.59V49.28a2 2 0 0 1 3.21-1.59l31.58 24.03c.5.38.79.97.79 1.59v22.15a2 2 0 0 1-2 2M14.82 70.44 42.4 91.43V74.31L14.82 53.32z" class="cls-7"/><path d="M28.87 51.95 15.62 41.92V23.34l13.25 10.03z" class="cls-4"/><path d="M28.87 53.95c-.43 0-.85-.14-1.21-.41L14.41 43.51c-.5-.38-.79-.97-.79-1.59V23.34a2 2 0 0 1 3.21-1.59l13.25 10.03c.5.38.79.97.79 1.59v18.58a2 2 0 0 1-2 2M17.62 40.93l9.25 7V34.36l-9.25-7z" class="cls-7"/><path d="m28.87 33.37 16.35-6.14v13.03L28.87 47.2z" class="cls-4"/><path d="M28.87 49.2c-.39 0-.77-.11-1.1-.33-.56-.37-.9-1-.9-1.67V33.37a2 2 0 0 1 1.3-1.87l16.35-6.14c.61-.23 1.3-.14 1.84.23s.86.99.86 1.64v13.03c0 .8-.48 1.53-1.22 1.84l-16.35 6.94c-.25.11-.52.16-.78.16m2-14.45v9.42l12.35-5.24v-8.82z" class="cls-7"/><path d="m12.82 48.97 56.77-20.11 31.59 24.35-56.77 20.11-31.59-24.03" class="cls-2"/><path d="M44.41 75.32c-.43 0-.86-.14-1.21-.41L11.62 50.88c-.56-.43-.83-1.1-.78-1.75-.07-.88.45-1.74 1.33-2.05l56.77-20.1c.64-.22 1.35-.11 1.89.3l31.58 24.35c.58.45.87 1.18.75 1.9a2.01 2.01 0 0 1-1.31 1.57L45.08 75.2c-.22.08-.44.11-.67.11Zm-27.72-25.6 28.07 21.35 52.29-18.52-27.81-21.44L16.7 49.72Z" class="cls-7"/><path d="m15.62 23.23 16.35-6.14 13.25 10.14-16.35 6.14-13.25-9.87" class="cls-2"/><path d="M28.87 35.37c-.42 0-.84-.13-1.19-.4L14.43 25.1c-.56-.42-.84-1.08-.8-1.74-.06-.86.45-1.69 1.29-2.01l16.35-6.14c.65-.24 1.37-.13 1.92.28l13.25 10.14c.58.44.87 1.16.76 1.88a2 2 0 0 1-1.28 1.58l-16.35 6.14c-.23.09-.47.13-.7.13ZM19.51 23.9l9.68 7.21 11.95-4.49-9.51-7.27z" class="cls-7"/><path d="M101.18 74.72V53.21L44.41 73.32v22.14z" style="fill:#edede8"/><path d="M44.41 97.46c-.4 0-.81-.12-1.15-.36-.54-.37-.85-.99-.85-1.64V73.31c0-.85.53-1.6 1.33-1.89l56.77-20.1c.61-.21 1.29-.12 1.82.25s.85.98.85 1.63v21.51c0 .84-.52 1.59-1.31 1.88L45.1 97.33c-.22.08-.46.12-.69.12Zm2-22.73V92.6l52.77-19.28V56.04zm54.77-.01" class="cls-7"/><ellipse cx="42.71" cy="50.62" class="cls-4" rx="2.51" ry="1.33"/><ellipse cx="74.51" cy="54.55" class="cls-4" rx="2.51" ry="1.33"/><ellipse cx="70.35" cy="75.32" class="cls-4" rx="1.65" ry="2.32"/><ellipse cx="92.1" cy="64.98" class="cls-4" rx="1.65" ry="2.32"/><ellipse cx="67.29" cy="39.82" class="cls-4" rx="3.13" ry="1.67"/><path d="M88.69 100.31s21.27-5.83 16.15-37.77c0 0-18.16-3.15-28.59 13.64-6.99 11.26 2.28 15.08 2.28 15.08l10.17 9.05Z" style="fill:#86c487"/><path d="M88.69 102.31c-.48 0-.96-.18-1.33-.51l-9.95-8.86c-1.05-.52-4.11-2.32-5.3-6.02-1.11-3.44-.29-7.41 2.44-11.8 11.02-17.73 30.44-14.59 30.63-14.56.84.15 1.5.81 1.63 1.65 2.77 17.25-2.06 27.19-6.61 32.48-5.02 5.85-10.74 7.47-10.98 7.53-.17.05-.35.07-.53.07Zm12.48-38.02c-5.4 0-16.15 1.57-23.23 12.95-2.06 3.32-2.75 6.16-2.04 8.42.82 2.62 3.37 3.75 3.4 3.76.2.08.39.21.55.35l9.29 8.27c3.88-1.55 17.37-8.79 13.94-33.68-.52-.04-1.17-.07-1.92-.07Z" class="cls-7"/><path d="M87.86 100.3s-32.44 1.46-34.23-36.77c0 0 40.43-4.38 34.23 36.77" style="fill:#aad681"/><path d="M87.57 102.31c-3.76 0-34.19-1.18-35.94-38.67-.05-1.06.73-1.97 1.78-2.08.76-.08 18.79-1.9 29.53 9.3 6.52 6.8 8.84 16.81 6.89 29.75-.14.95-.93 1.66-1.89 1.7h-.38ZM55.75 65.42C58.05 94.85 79.82 98 86.11 98.29c1.32-10.81-.72-19.11-6.05-24.67-7.5-7.82-19.64-8.31-24.31-8.2" class="cls-7"/></g></svg>