<?xml version="1.0" encoding="UTF-8"?>
<svg id="flatten_icons" xmlns="http://www.w3.org/2000/svg" viewBox="0 0 112 112">
  <defs>
    <style>
      .cls-1 {
        fill: none;
      }

      .cls-2 {
        fill: #f4f4ea;
      }

      .cls-3 {
        fill: #aad681;
      }

      .cls-4 {
        fill: #dbdbd1;
      }

      .cls-5 {
        fill: #86c487;
      }

      .cls-6 {
        fill: #edede8;
      }

      .cls-7 {
        fill: #004241;
      }
    </style>
  </defs>
  <g id="tofu">
    <rect class="cls-1" width="112" height="112"/>
    <g>
      <polygon class="cls-4" points="44.41 95.46 12.82 71.43 12.82 49.29 44.41 73.32 44.41 95.46"/>
      <path class="cls-7" d="M44.41,97.46c-.43,0-.86-.14-1.21-.41l-31.58-24.03c-.5-.38-.79-.97-.79-1.59v-22.15c0-.76.43-1.45,1.11-1.79.68-.34,1.49-.26,2.1.2l31.58,24.03c.5.38.79.97.79,1.59v22.15c0,.76-.43,1.45-1.11,1.79-.28.14-.59.21-.89.21ZM14.82,70.44l27.58,20.99v-17.12l-27.58-20.99v17.12Z"/>
    </g>
    <g>
      <polygon class="cls-4" points="28.87 51.95 15.62 41.92 15.62 23.34 28.87 33.37 28.87 51.95"/>
      <path class="cls-7" d="M28.87,53.95c-.43,0-.85-.14-1.21-.41l-13.25-10.03c-.5-.38-.79-.97-.79-1.59v-18.58c0-.76.43-1.45,1.11-1.79.68-.34,1.49-.26,2.1.2l13.25,10.03c.5.38.79.97.79,1.59v18.58c0,.76-.43,1.45-1.11,1.79-.28.14-.59.21-.89.21ZM17.62,40.93l9.25,7v-13.57l-9.25-7v13.57Z"/>
    </g>
    <g>
      <polygon class="cls-4" points="28.87 33.37 45.22 27.23 45.22 40.26 28.87 47.2 28.87 33.37"/>
      <path class="cls-7" d="M28.87,49.2c-.39,0-.77-.11-1.1-.33-.56-.37-.9-1-.9-1.67v-13.83c0-.83.52-1.58,1.3-1.87l16.35-6.14c.61-.23,1.3-.14,1.84.23.54.37.86.99.86,1.64v13.03c0,.8-.48,1.53-1.22,1.84l-16.35,6.94c-.25.11-.52.16-.78.16ZM30.87,34.75v9.42l12.35-5.24v-8.82l-12.35,4.64Z"/>
    </g>
    <g>
      <polyline class="cls-2" points="12.82 48.97 69.59 28.86 101.18 53.21 44.41 73.32 12.82 49.29"/>
      <path class="cls-7" d="M44.41,75.32c-.43,0-.86-.14-1.21-.41l-31.58-24.03c-.56-.43-.83-1.1-.78-1.75-.07-.88.45-1.74,1.33-2.05l56.77-20.1c.64-.22,1.35-.11,1.89.3l31.58,24.35c.58.45.87,1.18.75,1.9-.12.72-.62,1.33-1.31,1.57l-56.77,20.1c-.22.08-.44.11-.67.11ZM16.69,49.72l28.07,21.35,52.29-18.52-27.81-21.44-52.54,18.61Z"/>
    </g>
    <g>
      <polyline class="cls-2" points="15.62 23.23 31.97 17.09 45.22 27.23 28.87 33.37 15.62 23.5"/>
      <path class="cls-7" d="M28.87,35.37c-.42,0-.84-.13-1.19-.4l-13.25-9.87c-.56-.42-.84-1.08-.8-1.74-.06-.86.45-1.69,1.29-2.01l16.35-6.14c.65-.24,1.37-.13,1.92.28l13.25,10.14c.58.44.87,1.16.76,1.88-.11.72-.59,1.32-1.28,1.58l-16.35,6.14c-.23.09-.47.13-.7.13ZM19.51,23.9l9.68,7.21,11.95-4.49-9.51-7.27-12.12,4.55Z"/>
    </g>
    <g>
      <polygon class="cls-6" points="101.18 74.72 101.18 53.21 44.41 73.32 44.41 95.46 101.18 74.72"/>
      <path class="cls-7" d="M44.41,97.46c-.4,0-.81-.12-1.15-.36-.54-.37-.85-.99-.85-1.64v-22.15c0-.85.53-1.6,1.33-1.89l56.77-20.1c.61-.21,1.29-.12,1.82.25.53.37.85.98.85,1.63v21.51c0,.84-.52,1.59-1.31,1.88l-56.77,20.74c-.22.08-.46.12-.69.12ZM46.41,74.73v17.87l52.77-19.28v-17.28l-52.77,18.69ZM101.18,74.72h0,0Z"/>
    </g>
    <ellipse class="cls-4" cx="42.71" cy="50.62" rx="2.51" ry="1.33"/>
    <ellipse class="cls-4" cx="74.51" cy="54.55" rx="2.51" ry="1.33"/>
    <ellipse class="cls-4" cx="70.35" cy="75.32" rx="1.65" ry="2.32"/>
    <ellipse class="cls-4" cx="92.1" cy="64.98" rx="1.65" ry="2.32"/>
    <ellipse class="cls-4" cx="67.29" cy="39.82" rx="3.13" ry="1.67"/>
    <g>
      <g>
        <path class="cls-5" d="M88.69,100.31s21.27-5.83,16.15-37.77c0,0-18.16-3.15-28.59,13.64-6.99,11.26,2.28,15.08,2.28,15.08l10.17,9.05Z"/>
        <path class="cls-7" d="M88.69,102.31c-.48,0-.96-.18-1.33-.51l-9.95-8.86c-1.05-.52-4.11-2.32-5.3-6.02-1.11-3.44-.29-7.41,2.44-11.8,11.02-17.73,30.44-14.59,30.63-14.56.84.15,1.5.81,1.63,1.65,2.77,17.25-2.06,27.19-6.61,32.48-5.02,5.85-10.74,7.47-10.98,7.53-.17.05-.35.07-.53.07ZM101.17,64.29c-5.4,0-16.15,1.57-23.23,12.95-2.06,3.32-2.75,6.16-2.04,8.42.82,2.62,3.37,3.75,3.4,3.76.2.08.39.21.55.35l9.29,8.27c3.88-1.55,17.37-8.79,13.94-33.68-.52-.04-1.17-.07-1.92-.07Z"/>
      </g>
      <g>
        <path class="cls-3" d="M87.86,100.3s-32.44,1.46-34.23-36.77c0,0,40.43-4.38,34.23,36.77Z"/>
        <path class="cls-7" d="M87.57,102.31c-3.76,0-34.19-1.18-35.94-38.67-.05-1.06.73-1.97,1.78-2.08.76-.08,18.79-1.9,29.53,9.3,6.52,6.8,8.84,16.81,6.89,29.75-.14.95-.93,1.66-1.89,1.7-.02,0-.15,0-.38,0ZM87.86,100.3h0,0ZM55.75,65.42c2.3,29.43,24.07,32.58,30.36,32.87,1.32-10.81-.72-19.11-6.05-24.67-7.5-7.82-19.64-8.31-24.31-8.2Z"/>
      </g>
    </g>
  </g>
</svg>