<svg xmlns="http://www.w3.org/2000/svg" id="flatten_icons" data-name="flatten icons" viewBox="0 0 112 112"><defs><style>.cls-6{stroke-width:0;fill:#004241}</style></defs><path d="M0 0h112v112H0z" style="fill:none;stroke-width:0"/><path d="M104.7 62.2c0 23.09-15.27 41.8-48.16 41.8S7.3 85.28 7.3 62.2s18.06-41.81 49.24-41.81 48.16 18.72 48.16 41.8Z" style="stroke-width:0;fill:#e5554e"/><path d="M26.63 96.93c7.68 4.46 17.64 7.07 29.91 7.07 32.89 0 48.16-18.72 48.16-41.8 0-9.53-3.08-18.3-8.88-25.33s-8.31-.95-9.17 7.03 9.36 35.46-10.37 47.78c-18.13 11.33-31.15-.2-49.64 5.25Z" style="stroke-width:0;fill:#d14343"/><path d="M56.54 106C25.41 106 5.3 88.81 5.3 62.2s21.07-43.81 51.24-43.81 50.16 17.6 50.16 43.8c0 21.18-13.18 43.8-50.16 43.8Zm0-83.61c-28.26 0-47.24 16-47.24 39.8s18.1 39.8 47.24 39.8c14.9 0 27.02-4.04 35.03-11.69 7.28-6.95 11.13-16.67 11.13-28.11S98.53 41.13 90.95 34.1c-8.24-7.66-20.14-11.71-34.41-11.71" class="cls-6"/><path d="M21.62 60.03c-.07 0-.14 0-.21-.01-1.1-.11-1.9-1.09-1.79-2.19 1.85-18.14 14.39-22.44 14.92-22.62a1.99 1.99 0 0 1 2.52 1.28c.34 1.05-.23 2.17-1.27 2.52-.46.16-10.62 3.8-12.2 19.22-.11 1.03-.97 1.8-1.99 1.8Z" style="stroke-width:0;fill:#fff"/><path d="m62.23 26.8-10.86 8.28s-4.4-4.63-1.73-8.89l-10.85-3.25 9.59-4.36-.35-2.54a5 5 0 0 0-1.33-2.77l-5.03-5.29 10.6 1.47c2.49.34 4.72 1.72 6.16 3.78l2.61 3.75 9.82-6.44c.46 3.06.28 6.19-.55 9.17l-.51 1.83 9.66 11.01-4.42-.66c-3.73-.56-7.31-1.83-10.56-3.76l-2.26-1.34Z" style="stroke-width:0;fill:#aad681"/><path d="M51.38 37.09a2 2 0 0 1-1.45-.62c-.19-.2-4.05-4.33-2.96-8.98l-8.74-2.62c-.8-.24-1.36-.95-1.42-1.78s.41-1.61 1.17-1.96l8.24-3.74-.15-1.06c-.09-.63-.36-1.2-.8-1.66l-5.03-5.28a1.99 1.99 0 0 1-.33-2.29c.39-.76 1.21-1.18 2.05-1.07l10.6 1.47c3.04.42 5.78 2.1 7.53 4.62l1.5 2.15 8.19-5.37a2 2 0 0 1 3.07 1.38c.51 3.36.31 6.73-.6 10.01l-.22.79 8.95 10.19c.55.63.65 1.54.25 2.28s-1.22 1.15-2.05 1.02l-4.42-.66c-4-.6-7.8-1.95-11.28-4.02l-1.1-.65-9.78 7.46c-.36.28-.79.41-1.21.41Zm-6.89-14.52 5.74 1.72c.6.18 1.08.63 1.3 1.21s.15 1.24-.18 1.77c-1.08 1.73-.34 3.7.44 5l9.24-7.05c.65-.5 1.53-.54 2.23-.13l2.26 1.34c2.74 1.63 5.71 2.75 8.82 3.33l-6.04-6.88c-.44-.51-.6-1.21-.42-1.85l.51-1.83c.47-1.68.71-3.38.73-5.09l-6.97 4.57c-.9.59-2.12.36-2.74-.53L56.8 14.4a7.03 7.03 0 0 0-4.79-2.94l-4.94-.68 1.09 1.14a7 7 0 0 1 1.87 3.87l.35 2.54c.12.88-.35 1.73-1.15 2.1l-4.74 2.16Z" class="cls-6"/></svg>