<?xml version="1.0" encoding="UTF-8"?>
<svg id="flatten_icons" data-name="flatten icons" xmlns="http://www.w3.org/2000/svg" viewBox="0 0 112 112">
  <defs>
    <style>
      .cls-1 {
        fill: none;
      }

      .cls-1, .cls-2, .cls-3, .cls-4 {
        stroke-width: 0px;
      }

      .cls-2 {
        fill: #ddc8ab;
      }

      .cls-3 {
        fill: #ede5b4;
      }

      .cls-4 {
        fill: #004241;
      }
    </style>
  </defs>
  <rect class="cls-1" width="112" height="112"/>
  <g>
    <path class="cls-3" d="m96.74,14.08c-8.51.52-20.67-3.73-26.75,4.17-4.29,5.58-7.01,1.15-9.75-3.43,2.3-.34,4.06-2.32,4.06-4.71,0-2.64,0-4.77-4.77-4.77-2,0-3.71,1.23-4.42,2.97-3.82-3.19-7.89-4.28-14.3-1.61-7.3,3.04-13.54-8.43-28.57-1.51-.06-.06-.1-.16-.18-.19-6.76-2.07-11.42,0-9.69,5.8l1.01,3.38s5.22,7.11,3.4,10.15c-1.82,3.04-5.31,12.16.39,14.59,1.44.61,2.98,1.27,4.48,1.9,4.73,2,7.6,6.87,7.01,11.97-.27,2.33-.45,4.91-.37,7.47-.14,0-.27-.02-.41-.02-3.9,0-6.98,3.53-6.2,7.58.47,2.44,2.41,4.41,4.83,4.92,1.13.24,2.21.17,3.2-.13,1.01-.3,2.08.25,2.45,1.23,2.54,6.7,3.06,13.04,2.7,21-.43,9.73,13.55,19.45,35.44,10.94,21.89-8.51.61-31.61-3.04-36.48-3.65-4.86-3.04-21.28-8.51-26.14-5.47-4.86-9.42-3.88-15.2-7.3-2.78-1.64-3.82-1.63-7.66-5.82-3.26-3.56-.55-9.28,4.25-8.85.1,0,7.66,7.98,14.35,9.19,6.69,1.22,11.55-4.26,15.2,1.82,3.65,6.08,3.04,13.98,14.59,16.41,11.55,2.43,24.93,2.43,32.83-6.08,7.9-8.51-1.82-29.01-10.34-28.49Z"/>
    <g>
      <path class="cls-2" d="m29.27,58.54l.47-.49c1.44-1.5,3.56-2.14,5.59-1.67.38.09.76.18,1.13.26,1.8.42,3.69-.04,5.11-1.22l.85-.71c1.3-1.09,3.01-1.56,4.68-1.3l6.19.96c-.62-3.08-1.37-6.03-2.5-8.3l-4.74.59c-.09.01-.18.03-.26.06l-4.55,1.44c-1.41-.05-2.7-.1-4.12-.16-2.03-.81-4.34-.44-6,.97l-4.77,4.03-5.96-3.27c-.45.02-.89-.16-1.19-.5l-1.01-1.16c.47,1.5.63,3.1.44,4.74-.27,2.33-.45,4.91-.37,7.47l6.48.14c1.57-.65,2.95-1.22,4.52-1.87Z"/>
      <path class="cls-2" d="m17.17,60.29l1.1-.02c-.14,0-.27-.02-.41-.02-.23,0-.46.01-.68.04Z"/>
      <path class="cls-2" d="m59.05,87.62c-.34-.49-.94-.72-1.52-.59l-10.46,2.25c-.15.03-.31.04-.46.03l-10.43-1.06c-.26-.03-.51-.12-.72-.28l-4.73-3.47c-.38-.28-.6-.72-.6-1.19v-2.02c0-.79.63-1.45,1.42-1.47l1.73-.06c.36-.01.71-.16.97-.41l.65-.63c.86-.83.43-2.28-.74-2.51l-11.44-2.23c-.18-.04-.37-.03-.55,0,2.5,6.66,3.02,12.97,2.67,20.89-.06,1.31.15,2.61.6,3.87l1.39-.99c.29-.21.64-.3,1-.27l6.12.6c.17.02.33,0,.5-.04l19.1-4.71c.15-.04.29-.09.42-.17l4.94-3.01c.73-.44.93-1.41.44-2.11l-.29-.42Z"/>
      <path class="cls-2" d="m19.48,33.91h-9.42c-.1,0-.2-.01-.3-.03l-5.69-1.18c-.18,2.66.51,5.13,3.09,6.23,1.44.61,2.98,1.27,4.48,1.9,1.84.78,3.4,1.99,4.58,3.49l.75-4.47c.08-.49.41-.91.86-1.11l5.44-2.4s.08-.03.11-.04l5.53-1.91c.39-.14.66-.4.82-.7-.65-.47-1.38-1.07-2.27-1.95l-7.58,2.12c-.13.04-.26.05-.4.05Z"/>
      <path class="cls-2" d="m6.77,24.33c-.65,1.08-1.5,2.93-2.08,4.96l8.34-2.78c.63-.21,1.04-.81,1.01-1.47l-.11-2.29c-.04-.84-.77-1.48-1.6-1.4l-5.27.47c.16.95.11,1.83-.29,2.51Z"/>
    </g>
    <path class="cls-2" d="m41.89,29.65c.86.34,1.72.6,2.57.76,6.69,1.22,11.55-4.26,15.2,1.82,3.65,6.08,3.04,13.98,14.59,16.41,11.55,2.43,24.93,2.43,32.83-6.08,1.2-1.29,1.99-2.87,2.44-4.6l-7.75,1.03c-.22.03-.44.11-.63.23l-2.58,1.66c-.77.5-1.8.21-2.21-.61l-.66-1.32c-.56-1.12-2.14-1.14-2.73-.04l-1.62,3.03c-.33.61-1.03.93-1.71.77l-1.16-.27c-.6-.14-1.06-.62-1.16-1.23-.42-2.49-1.48-8.97-1.48-11.94,0-1.83,1.46-6.7,2.94-11.2.54-1.64-1.62-2.78-2.68-1.42l-.97,1.25c-.08.1-.15.22-.2.34l-3.58,8.47c-.06.15-.1.31-.12.47l-.68,7.96c-.14,1.66-2.46,1.94-2.99.36l-.41-1.25c-.08-.24-.1-.5-.05-.76l.66-3.67c.06-.36,0-.73-.18-1.04l-.71-1.24c-.67-1.16-2.4-.97-2.8.31-.04.12-.09.24-.16.34l-2.65,4.33c-.45.74-1.42.96-2.14.49l-1.48-.96c-.32-.21-.55-.52-.65-.89l-.94-3.49c-.17-.62-.7-1.07-1.34-1.13l-12.75-1.23c-.26-.03-.53.02-.77.13l-9.2,4.1s-.06.05-.1.07Z"/>
    <path class="cls-4" d="m44.31,111.09c-5.83,0-10.99-1.46-15.04-4.37-4.29-3.08-6.63-7.43-6.43-11.95.38-8.51-.37-14.36-2.58-20.21-1.35.38-2.76.44-4.18.14-3.2-.68-5.77-3.29-6.38-6.5-.48-2.48.16-5.01,1.75-6.93,1.24-1.5,2.95-2.51,4.82-2.87.03-1.83.16-3.78.4-5.83.49-4.18-1.9-8.25-5.8-9.9-1.5-.63-3.05-1.29-4.49-1.91-1.9-.81-3.25-2.29-3.89-4.27-1.54-4.74,1.34-11.13,2.58-13.19.58-.97-1.02-4.83-3.29-7.93-.14-.18-.24-.39-.3-.61l-1.01-3.38c-1.18-3.97.28-6.19,1.26-7.17,2.13-2.11,5.97-2.56,10.58-1.22,9.27-3.93,15.62-1.31,20.3.61,3.36,1.38,5.37,2.12,7.46,1.26,5.69-2.37,10.27-2.2,14.57.59,1.25-1.33,3.01-2.11,4.92-2.11,6.77,0,6.77,4.24,6.77,6.77,0,2.34-1.23,4.47-3.11,5.69,1.01,1.56,2.12,3.02,2.94,3.07.21,0,.94-.09,2.28-1.83,5.06-6.58,13.41-5.87,20.79-5.25,2.68.23,5.21.44,7.43.3l.12,2-.12-2c5.46-.33,10.12,5.27,12.65,10.63,2.95,6.25,4.54,15.55-.73,21.22-8.98,9.67-23.83,8.96-34.71,6.68-9.63-2.03-11.84-7.7-13.79-12.7-.64-1.65-1.25-3.22-2.11-4.64-1.42-2.37-2.59-2.23-6.06-1.44-2.13.49-4.79,1.09-7.78.55-4.2-.76-9.32-3.93-14.8-9.17-1.09.1-2.01.72-2.52,1.75-.49.99-.6,2.5.55,3.75,2.79,3.05,3.89,3.64,5.55,4.53.5.27,1.03.56,1.65.92,2.21,1.31,4.09,1.9,6.09,2.53,2.9.92,5.91,1.87,9.42,4.99,3.6,3.2,4.79,9.81,5.94,16.21.75,4.17,1.53,8.48,2.84,10.22.31.41.74.95,1.26,1.6,4.24,5.28,14.16,17.63,11.46,27.69-1.22,4.55-4.77,8-10.56,10.25-5.88,2.29-11.54,3.42-16.68,3.42Zm-24.07-40.55c1.62,0,3.15,1.01,3.76,2.61,2.42,6.39,3.24,12.71,2.83,21.8-.14,3.14,1.6,6.25,4.77,8.52,6.42,4.6,16.86,4.78,27.95.47,4.6-1.79,7.27-4.26,8.15-7.55,2.17-8.11-6.86-19.35-10.72-24.15-.56-.69-1.02-1.27-1.35-1.71-1.88-2.51-2.67-6.87-3.58-11.92-.98-5.46-2.1-11.65-4.66-13.93-2.87-2.56-5.23-3.3-7.97-4.16-2.02-.64-4.32-1.36-6.92-2.91-.56-.33-1.05-.59-1.5-.84-1.88-1.01-3.36-1.8-6.61-5.35-2.07-2.26-2.54-5.5-1.18-8.23,1.35-2.72,4.06-4.23,7.09-3.96.71.07,1.08.42,1.51.83,4.95,4.78,9.57,7.76,13.02,8.38,2.18.39,4.21-.07,6.17-.52,3.3-.75,7.4-1.7,10.39,3.28,1.03,1.71,1.73,3.51,2.4,5.25,1.81,4.65,3.37,8.66,10.88,10.24,9.87,2.08,23.25,2.81,30.95-5.48,3.65-3.93,2.65-11.26.04-16.78-2.41-5.08-6.02-8.52-8.79-8.35h0c-2.51.15-5.18-.07-8.01-.31-6.67-.56-13.55-1.14-17.28,3.7-1.84,2.39-3.7,3.48-5.68,3.38-3.29-.19-5.36-3.65-7.37-7-.34-.57-.38-1.28-.09-1.88s.85-1.03,1.51-1.12c1.34-.2,2.36-1.38,2.36-2.74,0-2.56,0-2.77-2.77-2.77-1.13,0-2.14.68-2.57,1.73-.24.59-.75,1.03-1.37,1.18-.62.15-1.27,0-1.76-.4-3.07-2.56-6.33-3.76-12.25-1.3-3.71,1.55-7.02.19-10.52-1.25-4.61-1.89-9.83-4.04-17.99-.29-.68.31-1.46.22-2.04-.22-3.58-1.01-5.73-.5-6.51.26-.76.76-.56,2.15-.25,3.18l.91,3.06c1.58,2.22,5.51,8.37,3.29,12.07-1.42,2.36-3.1,7.14-2.2,9.9.29.88.81,1.46,1.66,1.83,1.44.61,2.97,1.27,4.47,1.9,5.53,2.34,8.91,8.11,8.22,14.05-.3,2.6-.42,5.01-.36,7.18.02.56-.2,1.11-.61,1.5s-.96.59-1.52.56c-.16-.01-.22-.02-.29-.02-1.29,0-2.51.57-3.33,1.57-.84,1.01-1.16,2.3-.9,3.62.32,1.65,1.64,3,3.28,3.34.75.16,1.5.13,2.2-.08.38-.11.76-.17,1.14-.17Z"/>
    <path class="cls-4" d="m19.68,74.62c-.95,0-1.79-.68-1.97-1.65-.19-1.07.51-2.1,1.58-2.31.14-.03,2.02-.54,3.33-3.35.47-1,1.66-1.43,2.66-.97,1,.47,1.43,1.66.97,2.66-2.22,4.75-5.82,5.52-6.22,5.59-.12.02-.24.03-.35.03Z"/>
    <path class="cls-4" d="m30.11,23.22c-.93,0-1.77-.66-1.96-1.6-.57-2.84-3.47-3.08-3.8-3.09-1.1-.06-1.95-.99-1.9-2.09s.96-1.95,2.06-1.91c2.19.08,6.59,1.5,7.56,6.3.22,1.08-.48,2.14-1.56,2.36-.13.03-.27.04-.4.04Z"/>
    <path class="cls-4" d="m48.67,74.62c-.78,0-1.52-.46-1.84-1.23-.43-1.02.05-2.19,1.07-2.62,6.3-2.65,4.79-9.06,4.6-9.78-.28-1.06.35-2.16,1.41-2.45,1.06-.29,2.16.33,2.45,1.39,1,3.6.83,11.28-6.91,14.53-.25.11-.52.16-.77.16Z"/>
    <path class="cls-4" d="m28.39,44.59c-.39,0-.79-.11-1.13-.35-.9-.62-1.14-1.85-.52-2.76.18-.26,4.41-6.33,12.83-5.09,1.09.16,1.85,1.18,1.69,2.27-.16,1.09-1.18,1.85-2.27,1.69-5.89-.87-8.83,3.22-8.95,3.39-.39.56-1.01.85-1.65.85Z"/>
    <path class="cls-4" d="m81.28,51.76c-.65,0-1.29-.32-1.67-.9-1.54-2.34-1.56-4.64-1.58-6.48,0-.56-.01-1.1-.06-1.58-.06-.59-.26-1.22-.47-1.88-.35-1.11-.75-2.36-.47-3.67.54-2.53,1.41-4.14,1.51-4.32.54-.96,1.76-1.31,2.72-.77.96.54,1.31,1.75.77,2.71-.02.03-.68,1.28-1.09,3.2-.06.28.19,1.06.37,1.64.25.79.53,1.68.63,2.69.06.66.07,1.3.08,1.92.02,1.59.04,2.97.93,4.34.61.92.35,2.16-.58,2.77-.34.22-.72.33-1.1.33Z"/>
    <path class="cls-4" d="m101.61,32.22c-.98,0-1.84-.73-1.98-1.73-1.18-8.58,3.42-12.91,3.62-13.09.81-.75,2.08-.69,2.83.12.74.81.69,2.06-.11,2.81-.16.16-3.25,3.24-2.37,9.61.15,1.09-.61,2.1-1.71,2.25-.09.01-.19.02-.28.02Z"/>
    <path class="cls-4" d="m37.08,100.28c-1.05,0-2.09-.06-3.13-.19-1.09-.13-1.96-.7-2.65-1.16-.23-.15-.59-.39-.72-.43-3.87-1-6.22-1.7-6.31-1.73-1.06-.32-1.66-1.43-1.35-2.49s1.43-1.66,2.49-1.35c.02,0,2.38.71,6.19,1.69.74.19,1.36.6,1.9.96.29.19.76.5.94.53,1.54.19,3.11.21,4.66.07,1.09-.11,2.07.71,2.17,1.81.1,1.1-.71,2.07-1.81,2.17-.79.07-1.58.11-2.38.11Z"/>
    <path class="cls-4" d="m45.77,98.57c-1.1,0-2-.9-2-2s.89-2,1.99-2c.07,0,2.45-.05,4.79-1.43.95-.56,2.18-.24,2.74.71.56.95.25,2.18-.71,2.74-3.33,1.96-6.67,1.99-6.81,1.99Z"/>
    <path class="cls-4" d="m44.46,76.89c-.53,0-1.04-.2-1.41-.58-.1-.09-.18-.2-.25-.31-.08-.1-.14-.22-.19-.34-.05-.12-.08-.24-.11-.37-.02-.13-.04-.26-.04-.39,0-.14.02-.27.04-.4.03-.12.07-.25.12-.37.05-.12.11-.24.18-.35.07-.1.16-.21.25-.3s.19-.17.3-.25c.11-.07.23-.13.35-.18s.24-.09.37-.12c.26-.05.52-.05.78,0,.13.03.26.07.38.12.12.05.23.11.34.18.11.08.21.16.31.25.37.37.58.89.58,1.42,0,.13-.01.26-.04.39-.02.13-.06.25-.11.37-.05.12-.11.24-.18.34-.08.11-.16.22-.25.31-.38.38-.88.58-1.42.58Z"/>
    <path class="cls-4" d="m26.24,56.16c-1.03,0-2.06-.11-3.08-.33l-4.95-1.08c-1.08-.23-1.76-1.3-1.53-2.38.23-1.08,1.3-1.76,2.38-1.53l4.95,1.08c2.02.44,4.11.27,6.04-.48.98-.38,2-.66,3.04-.83l4.91-.77c1.09-.17,2.11.58,2.29,1.67.17,1.09-.57,2.12-1.67,2.29l-4.92.77c-.75.12-1.49.32-2.2.6-1.69.67-3.48,1-5.27,1Z"/>
    <path class="cls-4" d="m48.29,32.22c-.89,0-1.71-.6-1.94-1.5l-.63-2.46c-.65-2.56-.24-5.33,1.15-7.58.57-.92.86-1.98.86-3.05v-2.73c0-1.1.9-2,2-2s2,.9,2,2v2.73c0,1.82-.5,3.6-1.46,5.15-.82,1.34-1.07,2.98-.68,4.5l.63,2.46c.27,1.07-.37,2.16-1.44,2.43-.17.04-.33.06-.5.06Z"/>
    <path class="cls-4" d="m59.21,17.03c-1.83,0-3.31-1.09-4.01-1.91-.72-.84-.61-2.1.23-2.82.84-.71,2.08-.61,2.8.21.08.09.67.7,1.28.46,1.03-.4,2.19.1,2.59,1.12.41,1.03-.1,2.19-1.12,2.6-.62.24-1.21.34-1.77.34Z"/>
    <path class="cls-4" d="m7.14,24.55c-1,0-1.87-.75-1.98-1.77-.53-4.64,5.24-8.77,6.41-9.55.92-.62,2.16-.37,2.78.54.62.92.37,2.16-.54,2.77h0c-1.99,1.35-4.86,4.12-4.67,5.78.13,1.1-.66,2.09-1.76,2.21-.08,0-.15.01-.23.01Z"/>
    <path class="cls-4" d="m10.52,11.18c-.26,0-.53-.05-.79-.17-1.01-.44-1.48-1.62-1.04-2.63l1.72-3.98c.44-1.01,1.62-1.48,2.63-1.04,1.01.44,1.48,1.62,1.04,2.63l-1.72,3.98c-.33.75-1.06,1.21-1.84,1.21Z"/>
  </g>
</svg>