<svg xmlns="http://www.w3.org/2000/svg" id="flatten_icons" data-name="flatten icons" viewBox="0 0 112 112"><defs><style>.cls-7{stroke-width:0;fill:#004241}</style></defs><g id="tramway"><path id="area" d="M0 0h112v112H0z" style="fill:none;stroke-width:0"/><g id="car"><path d="M88.09 30.25h-64c-10.26 0-18.75 7.97-19.4 18.21L2.2 88.03c-.28 4.47 3.27 8.26 7.75 8.26h92.29c4.48 0 8.03-3.78 7.75-8.26l-2.49-39.57c-.65-10.24-9.14-18.21-19.4-18.21Z" style="stroke-width:0;fill:#ffdc49"/><path d="M51.68 41.23h19.56v40.59H51.68zm-26.53 0h19.56v26.24H25.15zm-5.59 26.24H3.38l3.2-26.24h12.98zm88.45 0h-30.1V41.23h28.1z" style="stroke-width:0;fill:#d3e7ee"/><path d="M42.26 96.92c0 3.56-2.89 6.45-6.45 6.45s-6.45-2.89-6.45-6.45" class="cls-7"/><path d="M35.81 104.87c-4.38 0-7.95-3.57-7.95-7.95h3c0 2.73 2.22 4.95 4.95 4.95s4.95-2.22 4.95-4.95h3c0 4.38-3.57 7.95-7.95 7.95m-10.94-7.95c0 3.56-2.89 6.45-6.45 6.45s-6.45-2.89-6.45-6.45" class="cls-7"/><path d="M18.42 104.87c-4.38 0-7.95-3.57-7.95-7.95h3c0 2.73 2.22 4.95 4.95 4.95s4.95-2.22 4.95-4.95h3c0 4.38-3.57 7.95-7.95 7.95m83.34-7.95c0 3.56-2.89 6.45-6.45 6.45s-6.45-2.89-6.45-6.45" class="cls-7"/><path d="M95.31 104.87c-4.38 0-7.95-3.57-7.95-7.95h3c0 2.73 2.22 4.95 4.95 4.95s4.95-2.22 4.95-4.95h3c0 4.38-3.57 7.95-7.95 7.95m-10.95-7.95c0 3.56-2.89 6.45-6.45 6.45s-6.45-2.89-6.45-6.45" class="cls-7"/><path d="M77.91 104.87c-4.38 0-7.95-3.57-7.95-7.95h3c0 2.73 2.22 4.95 4.95 4.95s4.95-2.22 4.95-4.95h3c0 4.38-3.57 7.95-7.95 7.95" class="cls-7"/><path d="M108 10H4c-1.1 0-2-.9-2-2s.9-2 2-2h104c1.1 0 2 .9 2 2s-.9 2-2 2" style="stroke-width:0;fill:#c4d1d5"/><path d="M108 106.41H4c-1.1 0-2-.9-2-2s.9-2 2-2h104c1.1 0 2 .9 2 2s-.9 2-2 2" class="cls-7"/><path d="M109.59 81.82H2.58l-.39 6.22c-.28 4.47 3.27 8.26 7.75 8.26h92.29c4.48 0 8.03-3.78 7.75-8.26z" style="stroke-width:0;fill:#ef706b"/><path d="M61.46 30.16c-.45 0-.9-.15-1.27-.45l-11.64-9.56c-.46-.38-.73-.95-.73-1.55s.27-1.17.73-1.55l11.64-9.56c.74-.61 1.8-.61 2.54 0l11.64 9.56c.46.38.73.95.73 1.55s-.27 1.17-.73 1.55l-11.64 9.56c-.37.3-.82.45-1.27.45M52.97 18.6l8.49 6.97 8.49-6.97-8.49-6.97z" class="cls-7"/><path d="M102.23 98.29H9.94c-2.69 0-5.28-1.12-7.12-3.08S.03 90.59.2 87.91l2.49-39.57C3.4 37.08 12.8 28.25 24.08 28.25h64.01c11.29 0 20.69 8.82 21.4 20.09l2.49 39.57c.17 2.68-.79 5.34-2.63 7.3s-4.43 3.08-7.12 3.08M24.08 32.25c-9.18 0-16.83 7.18-17.4 16.34L4.19 88.16c-.1 1.61.45 3.14 1.55 4.31s2.59 1.82 4.2 1.82h92.29c1.61 0 3.1-.65 4.2-1.82a5.7 5.7 0 0 0 1.55-4.31l-2.49-39.57c-.58-9.16-8.22-16.34-17.4-16.34z" class="cls-7"/><path d="M18.42 69.47H3.38c-1.1 0-2-.9-2-2s.9-2 2-2h13.03V43.23H6.58c-1.1 0-2-.9-2-2s.9-2 2-2h11.83c1.1 0 2 .9 2 2v26.24c0 1.1-.9 2-2 2Zm89.59 0h-30.1c-1.1 0-2-.9-2-2V41.23c0-1.1.9-2 2-2h26.9c1.1 0 2 .9 2 2s-.9 2-2 2h-24.9v22.24h28.1c1.1 0 2 .9 2 2s-.9 2-2 2M71.24 92.11H51.68c-1.1 0-2-.9-2-2V41.23c0-1.1.9-2 2-2h19.56c1.1 0 2 .9 2 2v48.88c0 1.1-.9 2-2 2m-17.56-4h15.56V43.23H53.68zm-8.69-18.64H24.87c-1.1 0-2-.9-2-2V41.23c0-1.1.9-2 2-2h20.12c1.1 0 2 .9 2 2v26.24c0 1.1-.9 2-2 2m-18.12-4h16.12V43.23H26.87z" class="cls-7"/><path d="M108.96 83.82H24.87c-1.1 0-2-.9-2-2s.9-2 2-2h84.09c1.1 0 2 .9 2 2s-.9 2-2 2m-93.34 0H2.58c-1.1 0-2-.9-2-2s.9-2 2-2h13.03c1.1 0 2 .9 2 2s-.9 2-2 2Z" class="cls-7"/><path d="M61.46 83.82c-1.1 0-2-.9-2-2V41.23c0-1.1.9-2 2-2s2 .9 2 2v40.59c0 1.1-.9 2-2 2" class="cls-7"/><path d="M99.76 53.27H85.4c-1.1 0-2-.9-2-2s.9-2 2-2h14.36c1.1 0 2 .9 2 2s-.9 2-2 2m-63.22 0h-4.36c-1.1 0-2-.9-2-2s.9-2 2-2h4.36c1.1 0 2 .9 2 2s-.9 2-2 2" style="stroke-width:0;fill:#fff"/></g></g></svg>