<?xml version="1.0" encoding="UTF-8"?>
<svg id="flatten_icons" data-name="flatten icons" xmlns="http://www.w3.org/2000/svg" viewBox="0 0 112 112">
  <defs>
    <style>
      .cls-1 {
        fill: none;
      }

      .cls-1, .cls-2, .cls-3, .cls-4, .cls-5, .cls-6, .cls-7 {
        stroke-width: 0px;
      }

      .cls-2 {
        fill: #c4d1d5;
      }

      .cls-3 {
        fill: #d3e7ee;
      }

      .cls-4 {
        fill: #fff;
      }

      .cls-5 {
        fill: #ef706b;
      }

      .cls-6 {
        fill: #ffdc49;
      }

      .cls-7 {
        fill: #004241;
      }
    </style>
  </defs>
  <g id="tramway">
    <g id="area">
      <rect class="cls-1" width="112" height="112"/>
    </g>
    <g id="car">
      <path class="cls-6" d="m88.09,30.25H24.09c-10.26,0-18.75,7.97-19.4,18.21l-2.49,39.57c-.28,4.47,3.27,8.26,7.75,8.26h92.29c4.48,0,8.03-3.78,7.75-8.26l-2.49-39.57c-.65-10.24-9.14-18.21-19.4-18.21Z"/>
      <g>
        <rect class="cls-3" x="51.68" y="41.23" width="19.56" height="40.59"/>
        <rect class="cls-3" x="25.15" y="41.23" width="19.56" height="26.24"/>
        <polygon class="cls-3" points="19.56 67.47 3.38 67.47 6.58 41.23 19.56 41.23 19.56 67.47"/>
        <polygon class="cls-3" points="108.01 67.47 77.91 67.47 77.91 41.23 106.01 41.23 108.01 67.47"/>
      </g>
      <g>
        <path class="cls-7" d="m42.26,96.92c0,3.56-2.89,6.45-6.45,6.45s-6.45-2.89-6.45-6.45"/>
        <path class="cls-7" d="m35.81,104.87c-4.38,0-7.95-3.57-7.95-7.95h3c0,2.73,2.22,4.95,4.95,4.95s4.95-2.22,4.95-4.95h3c0,4.38-3.57,7.95-7.95,7.95Z"/>
      </g>
      <g>
        <path class="cls-7" d="m24.87,96.92c0,3.56-2.89,6.45-6.45,6.45s-6.45-2.89-6.45-6.45"/>
        <path class="cls-7" d="m18.42,104.87c-4.38,0-7.95-3.57-7.95-7.95h3c0,2.73,2.22,4.95,4.95,4.95s4.95-2.22,4.95-4.95h3c0,4.38-3.57,7.95-7.95,7.95Z"/>
      </g>
      <g>
        <path class="cls-7" d="m101.76,96.92c0,3.56-2.89,6.45-6.45,6.45s-6.45-2.89-6.45-6.45"/>
        <path class="cls-7" d="m95.31,104.87c-4.38,0-7.95-3.57-7.95-7.95h3c0,2.73,2.22,4.95,4.95,4.95s4.95-2.22,4.95-4.95h3c0,4.38-3.57,7.95-7.95,7.95Z"/>
      </g>
      <g>
        <path class="cls-7" d="m84.36,96.92c0,3.56-2.89,6.45-6.45,6.45s-6.45-2.89-6.45-6.45"/>
        <path class="cls-7" d="m77.91,104.87c-4.38,0-7.95-3.57-7.95-7.95h3c0,2.73,2.22,4.95,4.95,4.95s4.95-2.22,4.95-4.95h3c0,4.38-3.57,7.95-7.95,7.95Z"/>
      </g>
      <path class="cls-2" d="m108,10H4c-1.1,0-2-.9-2-2s.9-2,2-2h104c1.1,0,2,.9,2,2s-.9,2-2,2Z"/>
      <path class="cls-7" d="m108,106.41H4c-1.1,0-2-.9-2-2s.9-2,2-2h104c1.1,0,2,.9,2,2s-.9,2-2,2Z"/>
      <path class="cls-5" d="m109.59,81.82H2.58l-.39,6.22c-.28,4.47,3.27,8.26,7.75,8.26h92.29c4.48,0,8.03-3.78,7.75-8.26l-.39-6.22Z"/>
      <path class="cls-7" d="m61.46,30.16c-.45,0-.9-.15-1.27-.45l-11.64-9.56c-.46-.38-.73-.95-.73-1.55s.27-1.17.73-1.55l11.64-9.56c.74-.61,1.8-.61,2.54,0l11.64,9.56c.46.38.73.95.73,1.55s-.27,1.17-.73,1.55l-11.64,9.56c-.37.3-.82.45-1.27.45Zm-8.49-11.56l8.49,6.97,8.49-6.97-8.49-6.97-8.49,6.97Z"/>
      <path class="cls-7" d="m102.23,98.29H9.94c-2.69,0-5.28-1.12-7.12-3.08S.03,90.59.2,87.91l2.49-39.57c.71-11.26,10.11-20.09,21.39-20.09h64.01c11.29,0,20.69,8.82,21.4,20.09l2.49,39.57c.17,2.68-.79,5.34-2.63,7.3s-4.43,3.08-7.12,3.08ZM24.08,32.25c-9.18,0-16.83,7.18-17.4,16.34l-2.49,39.57c-.1,1.61.45,3.14,1.55,4.31s2.59,1.82,4.2,1.82h92.29c1.61,0,3.1-.65,4.2-1.82,1.1-1.17,1.65-2.7,1.55-4.31l-2.49-39.57c-.58-9.16-8.22-16.34-17.4-16.34H24.08Z"/>
      <path class="cls-7" d="m18.42,69.47H3.38c-1.1,0-2-.9-2-2s.9-2,2-2h13.03v-22.24H6.58c-1.1,0-2-.9-2-2s.9-2,2-2h11.83c1.1,0,2,.9,2,2v26.24c0,1.1-.9,2-2,2Z"/>
      <path class="cls-7" d="m108.01,69.47h-30.1c-1.1,0-2-.9-2-2v-26.24c0-1.1.9-2,2-2h26.9c1.1,0,2,.9,2,2s-.9,2-2,2h-24.9v22.24h28.1c1.1,0,2,.9,2,2s-.9,2-2,2Z"/>
      <path class="cls-7" d="m71.24,92.11h-19.56c-1.1,0-2-.9-2-2v-48.88c0-1.1.9-2,2-2h19.56c1.1,0,2,.9,2,2v48.88c0,1.1-.9,2-2,2Zm-17.56-4h15.56v-44.88h-15.56v44.88Z"/>
      <path class="cls-7" d="m44.99,69.47h-20.12c-1.1,0-2-.9-2-2v-26.24c0-1.1.9-2,2-2h20.12c1.1,0,2,.9,2,2v26.24c0,1.1-.9,2-2,2Zm-18.12-4h16.12v-22.24h-16.12v22.24Z"/>
      <path class="cls-7" d="m108.96,83.82H24.87c-1.1,0-2-.9-2-2s.9-2,2-2h84.09c1.1,0,2,.9,2,2s-.9,2-2,2Z"/>
      <path class="cls-7" d="m15.62,83.82H2.58c-1.1,0-2-.9-2-2s.9-2,2-2h13.03c1.1,0,2,.9,2,2s-.9,2-2,2Z"/>
      <path class="cls-7" d="m61.46,83.82c-1.1,0-2-.9-2-2v-40.59c0-1.1.9-2,2-2s2,.9,2,2v40.59c0,1.1-.9,2-2,2Z"/>
      <path class="cls-4" d="m99.76,53.27h-14.36c-1.1,0-2-.9-2-2s.9-2,2-2h14.36c1.1,0,2,.9,2,2s-.9,2-2,2Z"/>
      <path class="cls-4" d="m36.54,53.27h-4.36c-1.1,0-2-.9-2-2s.9-2,2-2h4.36c1.1,0,2,.9,2,2s-.9,2-2,2Z"/>
    </g>
  </g>
</svg>