<?xml version="1.0" encoding="UTF-8"?>
<svg id="flatten_icons" data-name="flatten icons" xmlns="http://www.w3.org/2000/svg" viewBox="0 0 112 112">
  <defs>
    <style>
      .cls-1 {
        fill: none;
      }

      .cls-1, .cls-2, .cls-3, .cls-4, .cls-5, .cls-6 {
        stroke-width: 0px;
      }

      .cls-2 {
        fill: #a9d384;
      }

      .cls-3 {
        fill: #8e88a6;
      }

      .cls-4 {
        fill: #fdda49;
      }

      .cls-5 {
        fill: #ed706b;
      }

      .cls-6 {
        fill: #004241;
      }
    </style>
  </defs>
  <g id="velo-electrique">
    <g id="area">
      <rect class="cls-1" width="112" height="112"/>
    </g>
    <g id="bolt">
      <path class="cls-4" d="m52.36,32.82h-17.21c-.81,0-1.38-.8-1.12-1.57l7.39-21.15c.42-1.2-1.1-2.13-1.97-1.2l-29.37,31.01c-.71.75-.18,1.99.86,1.99h17.21c.81,0,1.38.8,1.12,1.57l-7.39,21.15c-.42,1.2,1.1,2.13,1.97,1.2l29.37-31.01c.71-.75.18-1.99-.86-1.99Z"/>
      <path class="cls-6" d="m22.99,68.2c-.57,0-1.14-.15-1.66-.47-1.29-.79-1.85-2.34-1.35-3.77l7-20.06H10.93c-1.27,0-2.42-.76-2.92-1.92-.5-1.17-.26-2.52.61-3.44L37.99,7.52c1.04-1.1,2.67-1.32,3.97-.53,1.29.79,1.85,2.34,1.35,3.77l-7,20.06h16.06c1.27,0,2.42.76,2.92,1.92s.26,2.52-.61,3.44l-29.37,31.01c-.62.66-1.46,1-2.3,1Zm-10.16-28.3h15.31c1.03,0,2,.5,2.59,1.34.6.84.75,1.92.41,2.89l-6.13,17.54,25.43-26.85h-15.31c-1.03,0-2-.5-2.59-1.34-.6-.84-.75-1.92-.41-2.89l6.13-17.55-25.43,26.85Zm39.52-5.08h0,0Z"/>
    </g>
    <g id="bike">
      <g>
        <path class="cls-5" d="m57.79,16.6h12.44v7.93h-12.44c-1.86,0-3.37-1.51-3.37-3.37v-1.19c0-1.86,1.51-3.37,3.37-3.37Z"/>
        <path class="cls-6" d="m70.22,26.53h-12.44c-2.96,0-5.37-2.41-5.37-5.37v-1.19c0-2.96,2.41-5.37,5.37-5.37h12.44c1.1,0,2,.9,2,2v7.93c0,1.1-.9,2-2,2Zm-12.44-7.93c-.75,0-1.37.61-1.37,1.37v1.19c0,.75.61,1.37,1.37,1.37h10.44v-3.93h-10.44Z"/>
      </g>
      <path class="cls-6" d="m53.55,97.31c-.94,0-1.77-.66-1.96-1.61-.21-1.08.49-2.14,1.57-2.35l7.73-1.53c1.08-.21,2.14.49,2.35,1.57s-.49,2.14-1.57,2.35l-7.73,1.53c-.13.03-.26.04-.39.04Z"/>
      <path class="cls-6" d="m46.96,89.01c-.84,0-1.62-.53-1.9-1.37-2.39-7.18-9.2-12.01-16.92-12.01-3.59,0-7.06,1.06-10.02,3.06-.92.62-2.16.38-2.78-.54-.62-.92-.38-2.16.54-2.78,3.63-2.45,7.87-3.75,12.26-3.75,9.45,0,17.78,5.92,20.72,14.74.35,1.05-.22,2.18-1.26,2.53-.21.07-.42.1-.63.1Z"/>
      <path class="cls-6" d="m91.31,83.64c-.92,0-1.74-.63-1.95-1.57l-12.8-57.69c-.24-1.06-1.19-1.83-2.28-1.83h-2.98c-1.1,0-2-.9-2-2s.9-2,2-2h2.98c2.99,0,5.53,2.04,6.18,4.96l12.8,57.69c.24,1.08-.44,2.15-1.52,2.39-.15.03-.29.05-.44.05Z"/>
      <g>
        <path class="cls-2" d="m65.73,97.85h-29.24v-10.89h40.37l-4.29,7.05c-1.45,2.38-4.04,3.84-6.83,3.84Z"/>
        <path class="cls-6" d="m65.73,99.85h-29.24c-1.1,0-2-.9-2-2v-10.89c0-1.1.9-2,2-2h40.37c.72,0,1.39.39,1.74,1.02.35.63.34,1.4-.04,2.02l-4.29,7.05c-1.8,2.96-5.07,4.8-8.54,4.8Zm-27.24-4h27.24c2.08,0,4.04-1.1,5.12-2.88l2.44-4.01h-34.81v6.89Z"/>
      </g>
      <g>
        <path class="cls-2" d="m80.72,73.11l-5.41-24.38c-.58-2.61,1.1-5.19,3.72-5.71l3.52-.7,7.43,33.46-3.35.91c-2.63.71-5.32-.91-5.91-3.57Z"/>
        <path class="cls-6" d="m85.36,78.85c-1.22,0-2.41-.33-3.49-.98-1.6-.97-2.7-2.5-3.11-4.33h0s-5.41-24.38-5.41-24.38c-.4-1.79-.07-3.63.94-5.16,1-1.54,2.55-2.58,4.35-2.94l3.52-.7c1.06-.21,2.11.47,2.34,1.53l7.43,33.46c.23,1.04-.4,2.08-1.43,2.36l-3.35.91c-.59.16-1.2.24-1.79.24Zm-4.34-34.2l-1.6.32c-.74.15-1.37.58-1.78,1.21-.41.63-.55,1.38-.38,2.11l5.41,24.38h0c.17.75.62,1.38,1.27,1.77.66.4,1.42.5,2.16.3l1.51-.41-6.59-29.69Z"/>
      </g>
      <g>
        <path class="cls-3" d="m93.36,81.45c-6.25,0-11.31,5.07-11.31,11.31s5.06,11.31,11.31,11.31,11.31-5.06,11.31-11.31-5.07-11.31-11.31-11.31Zm0,15.32c-2.21,0-4-1.79-4-4s1.79-4,4-4,4,1.79,4,4-1.79,4-4,4Z"/>
        <path class="cls-6" d="m93.36,106.07c-7.34,0-13.31-5.97-13.31-13.31s5.97-13.31,13.31-13.31,13.31,5.97,13.31,13.31-5.97,13.31-13.31,13.31Zm0-22.63c-5.14,0-9.31,4.18-9.31,9.31s4.18,9.31,9.31,9.31,9.31-4.18,9.31-9.31-4.18-9.31-9.31-9.31Zm0,15.32c-3.31,0-6-2.69-6-6s2.69-6,6-6,6,2.69,6,6-2.69,6-6,6Zm0-8c-1.1,0-2,.9-2,2s.9,2,2,2,2-.9,2-2-.9-2-2-2Z"/>
      </g>
      <g>
        <path class="cls-3" d="m28.49,81.45c-6.25,0-11.31,5.07-11.31,11.31s5.06,11.31,11.31,11.31,11.31-5.06,11.31-11.31-5.07-11.31-11.31-11.31Zm0,15.32c-2.21,0-4-1.79-4-4s1.79-4,4-4,4,1.79,4,4-1.79,4-4,4Z"/>
        <path class="cls-6" d="m28.49,106.07c-7.34,0-13.31-5.97-13.31-13.31s5.97-13.31,13.31-13.31,13.31,5.97,13.31,13.31-5.97,13.31-13.31,13.31Zm0-22.63c-5.14,0-9.31,4.18-9.31,9.31s4.18,9.31,9.31,9.31,9.31-4.18,9.31-9.31-4.18-9.31-9.31-9.31Zm0,15.32c-3.31,0-6-2.69-6-6s2.69-6,6-6,6,2.69,6,6-2.69,6-6,6Zm0-8c-1.1,0-2,.9-2,2s.9,2,2,2,2-.9,2-2-.9-2-2-2Z"/>
      </g>
      <path class="cls-6" d="m83.13,88.96h-23.11c-1.1,0-2-.9-2-2s.9-2,2-2h23.11c1.1,0,2,.9,2,2s-.9,2-2,2Z"/>
    </g>
  </g>
</svg>