<svg xmlns="http://www.w3.org/2000/svg" id="flatten_icons" data-name="flatten icons" viewBox="0 0 112 112"><defs><style>.cls-2,.cls-3,.cls-6{stroke-width:0}.cls-2{fill:#a9d384}.cls-3{fill:#8e88a6}.cls-6{fill:#004241}</style></defs><g id="velo-electrique"><path id="area" d="M0 0h112v112H0z" style="fill:none;stroke-width:0"/><g id="bolt"><path d="M52.36 32.82H35.15c-.81 0-1.38-.8-1.12-1.57l7.39-21.15c.42-1.2-1.1-2.13-1.97-1.2L10.08 39.91c-.71.75-.18 1.99.86 1.99h17.21c.81 0 1.38.8 1.12 1.57l-7.39 21.15c-.42 1.2 1.1 2.13 1.97 1.2l29.37-31.01c.71-.75.18-1.99-.86-1.99" style="stroke-width:0;fill:#fdda49"/><path d="M22.99 68.2c-.57 0-1.14-.15-1.66-.47a3.17 3.17 0 0 1-1.35-3.77l7-20.06H10.93c-1.27 0-2.42-.76-2.92-1.92-.5-1.17-.26-2.52.61-3.44L37.99 7.52a3.16 3.16 0 0 1 3.97-.53c1.29.79 1.85 2.34 1.35 3.77l-7 20.06h16.06c1.27 0 2.42.76 2.92 1.92s.26 2.52-.61 3.44L25.31 67.19c-.62.66-1.46 1-2.3 1ZM12.83 39.9h15.31c1.03 0 2 .5 2.59 1.34.6.84.75 1.92.41 2.89l-6.13 17.54 25.43-26.85H35.13c-1.03 0-2-.5-2.59-1.34a3.17 3.17 0 0 1-.41-2.89l6.13-17.55-25.43 26.85Zm39.52-5.08" class="cls-6"/></g><g id="bike"><path d="M57.79 16.6h12.44v7.93H57.79c-1.86 0-3.37-1.51-3.37-3.37v-1.19c0-1.86 1.51-3.37 3.37-3.37" style="stroke-width:0;fill:#ed706b"/><path d="M70.22 26.53H57.78c-2.96 0-5.37-2.41-5.37-5.37v-1.19c0-2.96 2.41-5.37 5.37-5.37h12.44c1.1 0 2 .9 2 2v7.93c0 1.1-.9 2-2 2M57.78 18.6c-.75 0-1.37.61-1.37 1.37v1.19c0 .75.61 1.37 1.37 1.37h10.44V18.6zm-4.23 78.71a1.999 1.999 0 0 1-.39-3.96l7.73-1.53c1.08-.21 2.14.49 2.35 1.57s-.49 2.14-1.57 2.35l-7.73 1.53c-.13.03-.26.04-.39.04m-6.59-8.3c-.84 0-1.62-.53-1.9-1.37-2.39-7.18-9.2-12.01-16.92-12.01-3.59 0-7.06 1.06-10.02 3.06-.92.62-2.16.38-2.78-.54s-.38-2.16.54-2.78a21.84 21.84 0 0 1 12.26-3.75c9.45 0 17.78 5.92 20.72 14.74.35 1.05-.22 2.18-1.26 2.53-.21.07-.42.1-.63.1Z" class="cls-6"/><path d="M91.31 83.64c-.92 0-1.74-.63-1.95-1.57l-12.8-57.69a2.35 2.35 0 0 0-2.28-1.83H71.3c-1.1 0-2-.9-2-2s.9-2 2-2h2.98c2.99 0 5.53 2.04 6.18 4.96l12.8 57.69a2.003 2.003 0 0 1-1.96 2.44Z" class="cls-6"/><path d="M65.73 97.85H36.49V86.96h40.37l-4.29 7.05a8 8 0 0 1-6.83 3.84Z" class="cls-2"/><path d="M65.73 99.85H36.49c-1.1 0-2-.9-2-2V86.96c0-1.1.9-2 2-2h40.37c.72 0 1.39.39 1.74 1.02a2 2 0 0 1-.04 2.02l-4.29 7.05a10.05 10.05 0 0 1-8.54 4.8m-27.24-4h27.24c2.08 0 4.04-1.1 5.12-2.88l2.44-4.01H38.48v6.89Z" class="cls-6"/><path d="m80.72 73.11-5.41-24.38a4.767 4.767 0 0 1 3.72-5.71l3.52-.7 7.43 33.46-3.35.91c-2.63.71-5.32-.91-5.91-3.57Z" class="cls-2"/><path d="M85.36 78.85c-1.22 0-2.41-.33-3.49-.98-1.6-.97-2.7-2.5-3.11-4.33s-5.41-24.38-5.41-24.38c-.4-1.79-.07-3.63.94-5.16 1-1.54 2.55-2.58 4.35-2.94l3.52-.7c1.06-.21 2.11.47 2.34 1.53l7.43 33.46a2 2 0 0 1-1.43 2.36l-3.35.91c-.59.16-1.2.24-1.79.24Zm-4.34-34.2-1.6.32c-.74.15-1.37.58-1.78 1.21s-.55 1.38-.38 2.11l5.41 24.38c.17.75.62 1.38 1.27 1.77.66.4 1.42.5 2.16.3l1.51-.41-6.59-29.69Z" class="cls-6"/><path d="M93.36 81.45c-6.25 0-11.31 5.07-11.31 11.31s5.06 11.31 11.31 11.31 11.31-5.06 11.31-11.31-5.07-11.31-11.31-11.31m0 15.32c-2.21 0-4-1.79-4-4s1.79-4 4-4 4 1.79 4 4-1.79 4-4 4" class="cls-3"/><path d="M93.36 106.07c-7.34 0-13.31-5.97-13.31-13.31s5.97-13.31 13.31-13.31 13.31 5.97 13.31 13.31-5.97 13.31-13.31 13.31m0-22.63c-5.14 0-9.31 4.18-9.31 9.31s4.18 9.31 9.31 9.31 9.31-4.18 9.31-9.31-4.18-9.31-9.31-9.31m0 15.32c-3.31 0-6-2.69-6-6s2.69-6 6-6 6 2.69 6 6-2.69 6-6 6m0-8c-1.1 0-2 .9-2 2s.9 2 2 2 2-.9 2-2-.9-2-2-2" class="cls-6"/><path d="M28.49 81.45c-6.25 0-11.31 5.07-11.31 11.31s5.06 11.31 11.31 11.31S39.8 99.01 39.8 92.76s-5.07-11.31-11.31-11.31m0 15.32c-2.21 0-4-1.79-4-4s1.79-4 4-4 4 1.79 4 4-1.79 4-4 4" class="cls-3"/><path d="M28.49 106.07c-7.34 0-13.31-5.97-13.31-13.31s5.97-13.31 13.31-13.31S41.8 85.42 41.8 92.76s-5.97 13.31-13.31 13.31m0-22.63c-5.14 0-9.31 4.18-9.31 9.31s4.18 9.31 9.31 9.31 9.31-4.18 9.31-9.31-4.18-9.31-9.31-9.31m0 15.32c-3.31 0-6-2.69-6-6s2.69-6 6-6 6 2.69 6 6-2.69 6-6 6m0-8c-1.1 0-2 .9-2 2s.9 2 2 2 2-.9 2-2-.9-2-2-2m54.64-1.8H60.02c-1.1 0-2-.9-2-2s.9-2 2-2h23.11c1.1 0 2 .9 2 2s-.9 2-2 2" class="cls-6"/></g></g></svg>