<svg xmlns="http://www.w3.org/2000/svg" id="flatten_icons" data-name="flatten icons" viewBox="0 0 112 112"><defs><style>.cls-6{stroke-width:0;fill:#004241}</style></defs><g id="t-shirt_-coton" data-name="t-shirt -coton"><path d="M0 0h112v112H0z" style="fill:none;stroke-width:0"/><path d="M80.22 7.66H66.93l-1.08.38a30.7 30.7 0 0 1-21.05-.25l-.35-.13H32.14c-2.2 0-4.31.9-5.83 2.5L2.62 35c-.89.94-.82 2.43.17 3.27l11.44 9.77c.84.71 2.06.72 2.91.02l7.25-6.05v62.33h62.78V42.01l7.86 6.56c.49.41 1.21.41 1.7 0l12.82-10.94c.57-.48.62-1.34.11-1.89L86.14 10.27a8.07 8.07 0 0 0-5.92-2.59Z" style="stroke-width:0;fill:#c2e4a5"/><path d="M87.17 106.34H24.39c-1.1 0-2-.9-2-2V46.28l-3.96 3.31a4.25 4.25 0 0 1-5.49-.03L1.49 39.79A4.26 4.26 0 0 1 0 36.77c-.06-1.16.37-2.31 1.17-3.15L24.84 8.78c1.89-1.98 4.54-3.12 7.28-3.12h12.31c.24 0 .48.04.71.13l.35.13a28.75 28.75 0 0 0 19.68.23l1.08-.38c.21-.08.44-.11.66-.11H80.2c2.8 0 5.49 1.18 7.39 3.24l23.52 25.47c.61.66.93 1.55.87 2.45s-.48 1.74-1.16 2.32L98 50.08a3.3 3.3 0 0 1-4.27.02l-4.57-3.82v58.06c0 1.1-.9 2-2 2Zm-60.78-4h58.78V42.01a1.997 1.997 0 0 1 3.28-1.53l7.41 6.19 11.84-10.1-23.03-24.95a6.07 6.07 0 0 0-4.45-1.95H67.27l-.76.27a32.78 32.78 0 0 1-22.42-.26H32.13c-1.65 0-3.25.69-4.39 1.88L4.07 36.38c-.05.05-.07.12-.07.19q0 .105.09.18l11.44 9.77c.09.08.23.08.33 0l7.25-6.05c.6-.5 1.43-.6 2.13-.28.7.33 1.15 1.04 1.15 1.81v60.33Zm81.79-65.26h.01z" class="cls-6"/><path d="M55.78 24.57c6.21 0 11.24-5.03 11.24-11.24V7.66l-1.08.38a30.7 30.7 0 0 1-21.05-.25l-.35-.13v5.67c0 6.21 5.03 11.24 11.24 11.24" style="stroke-width:0;fill:#8dbd76"/><path d="M55.78 26.57c-7.3 0-13.24-5.94-13.24-13.24V7.66c0-.66.32-1.27.86-1.65a2.01 2.01 0 0 1 1.84-.23l.35.13a28.75 28.75 0 0 0 19.68.23l1.08-.38c.61-.22 1.29-.12 1.82.25.53.38.84.98.84 1.63v5.67c0 7.3-5.94 13.24-13.24 13.24Zm-9.24-16.12v2.88c0 5.1 4.15 9.24 9.24 9.24s9.24-4.15 9.24-9.24v-2.89a32.86 32.86 0 0 1-18.49.02Z" class="cls-6"/><rect width="11.09" height="4.1" x="50.45" y="13.26" rx="1.57" ry="1.57" style="stroke-width:0;fill:#e9e9da"/><path d="m24.39 42.01 3.59-3.5" style="stroke-width:0;fill:#b3e3f0"/><path d="M24.39 44.01c-.52 0-1.04-.2-1.43-.6-.77-.79-.75-2.06.04-2.83l3.6-3.5c.79-.77 2.06-.75 2.83.04s.75 2.06-.04 2.83l-3.6 3.5c-.39.38-.89.57-1.4.57Zm62.78 0c-1.1 0-2-.9-2-2v-5.69c0-1.1.9-2 2-2s2 .9 2 2v5.69c0 1.1-.9 2-2 2m0 55.07H24.39c-1.1 0-2-.9-2-2s.9-2 2-2h62.78c1.1 0 2 .9 2 2s-.9 2-2 2" class="cls-6"/></g></svg>