<?xml version="1.0" encoding="UTF-8"?>
<svg id="flatten_icons" data-name="flatten icons" xmlns="http://www.w3.org/2000/svg" viewBox="0 0 112 112">
  <defs>
    <style>
      .cls-1 {
        fill: none;
      }

      .cls-1, .cls-2, .cls-3, .cls-4, .cls-5, .cls-6 {
        stroke-width: 0px;
      }

      .cls-2 {
        fill: #dae9ed;
      }

      .cls-3 {
        fill: #b8c9ce;
      }

      .cls-4 {
        fill: #b3e3f0;
      }

      .cls-5 {
        fill: #e9e9da;
      }

      .cls-6 {
        fill: #004241;
      }
    </style>
  </defs>
  <g id="t-shirt-poly">
    <g>
      <g>
        <path class="cls-2" d="m80.22,7.66h-13.29l-1.08.38c-6.83,2.4-14.28,2.31-21.05-.25l-.35-.13h-12.31c-2.2,0-4.31.9-5.83,2.5L2.62,35c-.89.94-.82,2.43.17,3.27l11.44,9.77c.84.71,2.06.72,2.91.02l7.25-6.05v62.33h62.78v-62.33l7.86,6.56c.49.41,1.21.41,1.7,0l12.82-10.94c.57-.48.62-1.34.11-1.89l-23.52-25.47c-1.53-1.65-3.67-2.59-5.92-2.59Z"/>
        <path class="cls-6" d="m87.17,106.34H24.39c-1.1,0-2-.9-2-2v-58.06l-3.96,3.31c-1.6,1.33-3.9,1.32-5.49-.03L1.49,39.79c-.89-.76-1.43-1.85-1.49-3.02-.06-1.16.37-2.31,1.17-3.15L24.84,8.78c1.89-1.98,4.54-3.12,7.28-3.12h12.31c.24,0,.48.04.71.13l.35.13c6.32,2.39,13.31,2.47,19.68.23l1.08-.38c.21-.08.44-.11.66-.11h13.29c2.8,0,5.49,1.18,7.39,3.24l23.52,25.47c.61.66.93,1.55.87,2.45s-.48,1.74-1.16,2.32l-12.82,10.94c-1.23,1.05-3.03,1.06-4.27.02l-4.57-3.82v58.06c0,1.1-.9,2-2,2Zm-60.78-4h58.78v-60.33c0-.78.45-1.48,1.15-1.81.7-.33,1.53-.22,2.13.28l7.41,6.19,11.84-10.1-23.03-24.95c-1.14-1.24-2.77-1.95-4.45-1.95h-12.95l-.76.27c-7.26,2.55-15.22,2.46-22.42-.26h-.01s-11.95,0-11.95,0c-1.65,0-3.25.69-4.39,1.88L4.07,36.38c-.05.05-.07.12-.07.19,0,.07.03.13.09.18l11.44,9.77c.09.08.23.08.33,0l7.25-6.05c.6-.5,1.43-.6,2.13-.28.7.33,1.15,1.04,1.15,1.81v60.33ZM108.18,37.08h.01-.01Z"/>
      </g>
      <g>
        <path class="cls-3" d="m55.78,24.57c6.21,0,11.24-5.03,11.24-11.24v-5.67l-1.08.38c-6.83,2.4-14.28,2.31-21.05-.25l-.35-.13v5.67c0,6.21,5.03,11.24,11.24,11.24Z"/>
        <path class="cls-6" d="m55.78,26.57c-7.3,0-13.24-5.94-13.24-13.24v-5.67c0-.66.32-1.27.86-1.65.54-.37,1.23-.46,1.84-.23l.35.13c6.32,2.39,13.31,2.47,19.68.23l1.08-.38c.61-.22,1.29-.12,1.82.25.53.38.84.98.84,1.63v5.67c0,7.3-5.94,13.24-13.24,13.24Zm-9.24-16.12v2.88c0,5.1,4.15,9.24,9.24,9.24s9.24-4.15,9.24-9.24v-2.89c-6.03,1.78-12.46,1.78-18.49.02Z"/>
      </g>
      <rect class="cls-5" x="50.45" y="13.26" width="11.09" height="4.1" rx="1.57" ry="1.57"/>
      <path class="cls-6" d="m31.7,100.08c-.85,0-1.63-.54-1.9-1.39-.34-1.05.24-2.18,1.29-2.51.23-.08,14.92-5.06,18.68-20.51.26-1.07,1.34-1.73,2.42-1.47,1.07.26,1.73,1.34,1.47,2.42-4.31,17.71-20.65,23.15-21.34,23.37-.2.07-.41.1-.61.1Z"/>
      <g>
        <line class="cls-4" x1="24.39" y1="42.01" x2="27.98" y2="38.51"/>
        <path class="cls-6" d="m24.39,44.01c-.52,0-1.04-.2-1.43-.6-.77-.79-.75-2.06.04-2.83l3.6-3.5c.79-.77,2.06-.75,2.83.04.77.79.75,2.06-.04,2.83l-3.6,3.5c-.39.38-.89.57-1.4.57Z"/>
      </g>
      <path class="cls-6" d="m87.17,44.01c-1.1,0-2-.9-2-2v-5.69c0-1.1.9-2,2-2s2,.9,2,2v5.69c0,1.1-.9,2-2,2Z"/>
    </g>
    <rect class="cls-1" width="112" height="112"/>
  </g>
</svg>