<?xml version="1.0" encoding="UTF-8"?>
<svg id="flatten_icons" xmlns="http://www.w3.org/2000/svg" viewBox="0 0 112 112">
  <defs>
    <style>
      .cls-1 {
        fill: none;
      }

      .cls-2 {
        fill: #e2d2c3;
      }

      .cls-3 {
        fill: #e8d5ba;
      }

      .cls-4 {
        fill: #c4ae97;
      }

      .cls-5 {
        fill: #af8977;
      }

      .cls-6 {
        fill: #e8beb8;
      }

      .cls-7 {
        fill: #004241;
      }
    </style>
  </defs>
  <g id="veau">
    <g>
      <polygon class="cls-2" points="47.11 96.32 33.41 96.32 32.13 65.49 47.11 65.49 47.11 96.32"/>
      <path class="cls-7" d="M47.11,98.32h-13.71c-1.07,0-1.95-.85-2-1.92l-1.28-30.84c-.02-.54.18-1.07.55-1.47.38-.39.9-.62,1.44-.62h14.99c1.1,0,2,.9,2,2v30.84c0,1.1-.9,2-2,2ZM35.33,94.32h9.79v-26.84h-10.9l1.11,26.84Z"/>
    </g>
    <g>
      <polygon class="cls-2" points="93.09 96.32 79.38 96.32 78.1 65.49 93.09 65.49 93.09 96.32"/>
      <path class="cls-7" d="M93.09,98.32h-13.71c-1.07,0-1.95-.85-2-1.92l-1.28-30.84c-.02-.54.18-1.07.55-1.47.38-.39.9-.62,1.44-.62h14.99c1.1,0,2,.9,2,2v30.84c0,1.1-.9,2-2,2ZM81.3,94.32h9.79v-26.84h-10.9l1.11,26.84Z"/>
    </g>
    <g>
      <path class="cls-4" d="M29.94,61.35c1.42,3.84,4.14,7.05,7.63,9.1,1.66.97,2.75,2.69,2.82,4.61l.87,21.26h8.8l.94-23.45h24.99c1.93,0,3.77.72,5.31,1.89,1.75,1.33,3.84,2.19,6.08,2.44l.71,19.12h8.8l1.28-29.9v-14.31c0-7.84-6.35-14.19-14.19-14.19H28.84l1.09,23.42Z"/>
      <path class="cls-7" d="M96.88,98.32h-8.8c-1.08,0-1.96-.85-2-1.93l-.65-17.5c-1.93-.46-3.76-1.32-5.35-2.54-1.27-.97-2.69-1.48-4.09-1.48h-23.06l-.86,21.53c-.04,1.07-.93,1.92-2,1.92h-8.8c-1.07,0-1.95-.85-2-1.92l-.87-21.26c-.05-1.21-.74-2.32-1.84-2.97-3.91-2.29-6.92-5.89-8.49-10.13-.07-.19-.11-.39-.12-.6l-1.09-23.42c-.03-.55.17-1.08.55-1.47s.9-.62,1.45-.62h55.12c8.93,0,16.19,7.26,16.19,16.19v14.31l-1.28,29.99c-.05,1.07-.93,1.91-2,1.91ZM90.01,94.32h4.95l1.2-27.99v-14.23c0-6.72-5.47-12.19-12.19-12.19H30.94l.98,21.01c1.28,3.25,3.63,6.01,6.66,7.79,2.28,1.34,3.71,3.68,3.81,6.26l.79,19.34h4.96l.86-21.53c.04-1.07.93-1.92,2-1.92h24.99c2.29,0,4.55.8,6.52,2.3,1.49,1.13,3.25,1.84,5.09,2.05.98.11,1.74.92,1.78,1.91l.64,17.19Z"/>
    </g>
    <g>
      <g>
        <g>
          <path class="cls-6" d="M18.56,31.81s-10.17-1.86-13.08,3.1c0,0,5.7,5.59,10.38,5.68"/>
          <path class="cls-7" d="M15.87,42.59h-.04c-5.33-.1-11.11-5.62-11.75-6.25-.65-.64-.79-1.65-.32-2.44,3.51-6,13.98-4.27,15.17-4.06,1.09.2,1.81,1.24,1.61,2.33-.2,1.09-1.24,1.8-2.33,1.61-1.94-.35-7.22-.76-9.87.99,1.99,1.63,5.14,3.77,7.57,3.82,1.1.02,1.98.93,1.96,2.04-.02,1.09-.91,1.96-2,1.96Z"/>
        </g>
        <g>
          <path class="cls-6" d="M41.99,41.41s6.2-2.27,10.45-5.75c0,0-6.35-5.93-11.47-3.79"/>
          <path class="cls-7" d="M41.99,43.41c-.81,0-1.58-.5-1.88-1.31-.38-1.04.15-2.19,1.19-2.57.05-.02,4.18-1.55,7.83-3.93-2.08-1.41-5.09-2.84-7.38-1.88-1.02.43-2.19-.05-2.62-1.07-.43-1.02.05-2.19,1.07-2.62,6.24-2.61,13.31,3.89,13.61,4.17.42.39.65.95.63,1.53-.02.58-.29,1.12-.73,1.48-4.46,3.65-10.76,5.98-11.03,6.08-.23.08-.46.12-.69.12Z"/>
        </g>
        <g>
          <path class="cls-4" d="M34.47,63.31h-11.25c-2.34,0-4.23-1.89-4.23-4.23l-2.56-27.18h24.83l-2.56,27.18c0,2.34-1.89,4.23-4.23,4.23Z"/>
          <path class="cls-7" d="M34.47,65.31h-11.25c-3.4,0-6.17-2.74-6.23-6.13l-2.55-27.09c-.05-.56.13-1.12.51-1.53.38-.42.92-.65,1.48-.65h24.83c.56,0,1.1.24,1.48.65.38.42.56.97.51,1.53l-2.55,27.09c-.06,3.39-2.83,6.13-6.23,6.13ZM18.63,33.9l2.35,24.99c0,.06,0,.12,0,.19,0,1.23,1,2.23,2.23,2.23h11.25c1.23,0,2.23-1,2.23-2.23,0-.06,0-.12,0-.19l2.35-24.99h-20.43Z"/>
        </g>
      </g>
      <g>
        <path class="cls-6" d="M19.02,50.09h19.64c1.27,0,2.31,1.03,2.31,2.31v7.61c0,1.82-1.48,3.3-3.3,3.3h-17.65c-1.82,0-3.3-1.48-3.3-3.3v-7.61c0-1.27,1.03-2.31,2.31-2.31Z"/>
        <path class="cls-7" d="M37.67,65.31h-17.65c-2.92,0-5.3-2.38-5.3-5.3v-7.61c0-2.38,1.93-4.31,4.31-4.31h19.64c2.38,0,4.31,1.93,4.31,4.31v7.61c0,2.92-2.38,5.3-5.3,5.3ZM19.02,52.09c-.17,0-.31.14-.31.31v7.61c0,.72.58,1.3,1.3,1.3h17.65c.72,0,1.3-.58,1.3-1.3v-7.61c0-.17-.14-.31-.31-.31h-19.64Z"/>
      </g>
    </g>
    <path class="cls-7" d="M107.65,55.26c-.9,0-1.72-.61-1.94-1.53-1.25-5.16-4.97-13.81-15.84-13.81h-9.31c-1.1,0-2-.9-2-2s.9-2,2-2h9.31c9.94,0,17.13,6.15,19.73,16.86.26,1.07-.4,2.15-1.47,2.42-.16.04-.32.06-.47.06Z"/>
    <g>
      <polyline class="cls-5" points="104.45 58.14 107.65 54.17 108.84 60.44"/>
      <path class="cls-7" d="M108.84,62.44c-.94,0-1.78-.67-1.96-1.63l-.38-2.02-.49.6c-.69.86-1.95,1-2.81.3-.86-.69-1-1.95-.3-2.81l3.2-3.97c.49-.61,1.29-.88,2.04-.69.76.19,1.33.8,1.48,1.57l1.19,6.27c.21,1.09-.51,2.13-1.59,2.34-.13.02-.25.04-.38.04Z"/>
    </g>
    <rect class="cls-1" width="112" height="112"/>
    <path class="cls-3" d="M89.65,58.16c-1.1,0-2-.9-2-2,0-5.09-1.31-8.03-8.03-8.03h-10.01c-1.1,0-2-.9-2-2s.9-2,2-2h10.01c12.03,0,12.03,9.06,12.03,12.03,0,1.1-.9,2-2,2Z"/>
    <g>
      <line class="cls-5" x1="16.43" y1="26.63" x2="18.56" y2="31.81"/>
      <path class="cls-7" d="M18.57,33.81c-.79,0-1.53-.47-1.85-1.24l-2.13-5.18c-.42-1.02.07-2.19,1.09-2.61,1.02-.42,2.19.07,2.61,1.09l2.13,5.18c.42,1.02-.07,2.19-1.09,2.61-.25.1-.51.15-.76.15Z"/>
    </g>
    <g>
      <line class="cls-5" x1="39.43" y1="26.63" x2="37.3" y2="31.81"/>
      <path class="cls-7" d="M37.3,33.81c-.25,0-.51-.05-.76-.15-1.02-.42-1.51-1.59-1.09-2.61l2.13-5.18c.42-1.02,1.59-1.51,2.61-1.09,1.02.42,1.51,1.59,1.09,2.61l-2.13,5.18c-.32.77-1.06,1.24-1.85,1.24Z"/>
    </g>
  </g>
</svg>