<svg xmlns="http://www.w3.org/2000/svg" id="flatten_icons" viewBox="0 0 112 112"><defs><style>.cls-2{fill:#e2d2c3}.cls-4{fill:#c4ae97}.cls-5{fill:#af8977}.cls-6{fill:#e8beb8}.cls-7{fill:#004241}</style></defs><g id="veau"><path d="M47.11 96.32h-13.7l-1.28-30.83h14.98z" class="cls-2"/><path d="M47.11 98.32H33.4a2.01 2.01 0 0 1-2-1.92l-1.28-30.84c-.02-.54.18-1.07.55-1.47.38-.39.9-.62 1.44-.62H47.1c1.1 0 2 .9 2 2v30.84c0 1.1-.9 2-2 2Zm-11.78-4h9.79V67.48h-10.9z" class="cls-7"/><path d="M93.09 96.32H79.38L78.1 65.49h14.99z" class="cls-2"/><path d="M93.09 98.32H79.38a2.01 2.01 0 0 1-2-1.92L76.1 65.56c-.02-.54.18-1.07.55-1.47.38-.39.9-.62 1.44-.62h14.99c1.1 0 2 .9 2 2v30.84c0 1.1-.9 2-2 2Zm-11.79-4h9.79V67.48h-10.9z" class="cls-7"/><path d="M29.94 61.35c1.42 3.84 4.14 7.05 7.63 9.1 1.66.97 2.75 2.69 2.82 4.61l.87 21.26h8.8L51 72.87h24.99c1.93 0 3.77.72 5.31 1.89 1.75 1.33 3.84 2.19 6.08 2.44l.71 19.12h8.8l1.28-29.9V52.11c0-7.84-6.35-14.19-14.19-14.19H28.84l1.09 23.42Z" class="cls-4"/><path d="M96.88 98.32h-8.8c-1.08 0-1.96-.85-2-1.93l-.65-17.5c-1.93-.46-3.76-1.32-5.35-2.54-1.27-.97-2.69-1.48-4.09-1.48H52.93l-.86 21.53a2.004 2.004 0 0 1-2 1.92h-8.8a2.01 2.01 0 0 1-2-1.92l-.87-21.26c-.05-1.21-.74-2.32-1.84-2.97a19.7 19.7 0 0 1-8.49-10.13 2 2 0 0 1-.12-.6l-1.09-23.42c-.03-.55.17-1.08.55-1.47s.9-.62 1.45-.62h55.12c8.93 0 16.19 7.26 16.19 16.19v14.31l-1.28 29.99a2 2 0 0 1-2 1.91Zm-6.87-4h4.95l1.2-27.99V52.1c0-6.72-5.47-12.19-12.19-12.19H30.94l.98 21.01c1.28 3.25 3.63 6.01 6.66 7.79 2.28 1.34 3.71 3.68 3.81 6.26l.79 19.34h4.96L49 72.78c.04-1.07.93-1.92 2-1.92h24.99c2.29 0 4.55.8 6.52 2.3C84 74.29 85.76 75 87.6 75.21c.98.11 1.74.92 1.78 1.91l.64 17.19Z" class="cls-7"/><path d="M18.56 31.81s-10.17-1.86-13.08 3.1c0 0 5.7 5.59 10.38 5.68" class="cls-6"/><path d="M15.87 42.59h-.04c-5.33-.1-11.11-5.62-11.75-6.25-.65-.64-.79-1.65-.32-2.44 3.51-6 13.98-4.27 15.17-4.06a2 2 0 0 1 1.61 2.33c-.2 1.09-1.24 1.8-2.33 1.61-1.94-.35-7.22-.76-9.87.99 1.99 1.63 5.14 3.77 7.57 3.82a2 2 0 0 1-.04 4" class="cls-7"/><path d="M41.99 41.41s6.2-2.27 10.45-5.75c0 0-6.35-5.93-11.47-3.79" class="cls-6"/><path d="M41.99 43.41a2.001 2.001 0 0 1-.69-3.88c.05-.02 4.18-1.55 7.83-3.93-2.08-1.41-5.09-2.84-7.38-1.88-1.02.43-2.19-.05-2.62-1.07s.05-2.19 1.07-2.62c6.24-2.61 13.31 3.89 13.61 4.17.42.39.65.95.63 1.53s-.29 1.12-.73 1.48c-4.46 3.65-10.76 5.98-11.03 6.08q-.345.12-.69.12" class="cls-7"/><path d="M34.47 63.31H23.22c-2.34 0-4.23-1.89-4.23-4.23L16.43 31.9h24.83L38.7 59.08c0 2.34-1.89 4.23-4.23 4.23" class="cls-4"/><path d="M34.47 65.31H23.22c-3.4 0-6.17-2.74-6.23-6.13l-2.55-27.09a1.99 1.99 0 0 1 1.99-2.18h24.83c.56 0 1.1.24 1.48.65.38.42.56.97.51 1.53L40.7 59.18c-.06 3.39-2.83 6.13-6.23 6.13M18.63 33.9l2.35 24.99v.19c0 1.23 1 2.23 2.23 2.23h11.25c1.23 0 2.23-1 2.23-2.23v-.19l2.35-24.99H18.61Z" class="cls-7"/><path d="M19.02 50.09h19.64c1.27 0 2.31 1.03 2.31 2.31v7.61c0 1.82-1.48 3.3-3.3 3.3H20.02c-1.82 0-3.3-1.48-3.3-3.3V52.4c0-1.27 1.03-2.31 2.31-2.31Z" class="cls-6"/><path d="M37.67 65.31H20.02a5.31 5.31 0 0 1-5.3-5.3V52.4a4.31 4.31 0 0 1 4.31-4.31h19.64a4.31 4.31 0 0 1 4.31 4.31v7.61c0 2.92-2.38 5.3-5.3 5.3ZM19.02 52.09c-.17 0-.31.14-.31.31v7.61c0 .72.58 1.3 1.3 1.3h17.65c.72 0 1.3-.58 1.3-1.3V52.4c0-.17-.14-.31-.31-.31H19.01Zm88.63 3.17c-.9 0-1.72-.61-1.94-1.53-1.25-5.16-4.97-13.81-15.84-13.81h-9.31c-1.1 0-2-.9-2-2s.9-2 2-2h9.31c9.94 0 17.13 6.15 19.73 16.86a2.013 2.013 0 0 1-1.94 2.48Z" class="cls-7"/><path d="m104.45 58.14 3.2-3.97 1.19 6.27" class="cls-5"/><path d="M108.84 62.44a2 2 0 0 1-1.96-1.63l-.38-2.02-.49.6c-.69.86-1.95 1-2.81.3-.86-.69-1-1.95-.3-2.81l3.2-3.97a1.996 1.996 0 0 1 3.52.88l1.19 6.27c.21 1.09-.51 2.13-1.59 2.34-.13.02-.25.04-.38.04" class="cls-7"/><path d="M0 0h112v112H0z" style="fill:none"/><path d="M89.65 58.16c-1.1 0-2-.9-2-2 0-5.09-1.31-8.03-8.03-8.03H69.61c-1.1 0-2-.9-2-2s.9-2 2-2h10.01c12.03 0 12.03 9.06 12.03 12.03 0 1.1-.9 2-2 2" style="fill:#e8d5ba"/><path d="m16.43 26.63 2.13 5.18" class="cls-5"/><path d="M18.57 33.81c-.79 0-1.53-.47-1.85-1.24l-2.13-5.18c-.42-1.02.07-2.19 1.09-2.61s2.19.07 2.61 1.09l2.13 5.18a2.002 2.002 0 0 1-1.85 2.76" class="cls-7"/><path d="m39.43 26.63-2.13 5.18" class="cls-5"/><path d="M37.3 33.81a2.002 2.002 0 0 1-1.85-2.76l2.13-5.18a2 2 0 0 1 2.61-1.09c1.02.42 1.51 1.59 1.09 2.61l-2.13 5.18c-.32.77-1.06 1.24-1.85 1.24" class="cls-7"/></g></svg>