<?xml version="1.0" encoding="UTF-8"?>
<svg id="flatten_icons" data-name="flatten icons" xmlns="http://www.w3.org/2000/svg" viewBox="0 0 112 112">
  <defs>
    <style>
      .cls-1 {
        fill: none;
      }

      .cls-1, .cls-2, .cls-3, .cls-4, .cls-5, .cls-6 {
        stroke-width: 0px;
      }

      .cls-2 {
        fill: #d3e7ee;
      }

      .cls-3 {
        fill: #b0c0c6;
      }

      .cls-4 {
        fill: #fff;
      }

      .cls-5 {
        fill: #ef706b;
      }

      .cls-6 {
        fill: #004241;
      }
    </style>
  </defs>
  <g id="marche-velo">
    <g id="area">
      <rect class="cls-1" width="112" height="112"/>
    </g>
    <g id="bike">
      <path class="cls-6" d="m14.68,94.58c-.26,0-.52-.05-.78-.16-8.45-3.57-13.9-11.81-13.9-20.97,0-12.55,10.21-22.76,22.76-22.76,7.57,0,14.63,3.75,18.88,10.04.62.92.38,2.16-.54,2.78-.92.62-2.16.38-2.78-.54-3.5-5.18-9.32-8.27-15.56-8.27-10.35,0-18.76,8.42-18.76,18.76,0,7.56,4.5,14.35,11.46,17.29,1.02.43,1.49,1.6,1.06,2.62-.32.76-1.06,1.22-1.84,1.22Z"/>
      <path class="cls-6" d="m109.58,79.64c-.13,0-.27-.01-.4-.04-1.08-.22-1.78-1.28-1.56-2.36.25-1.24.38-2.51.38-3.78,0-10.35-8.42-18.76-18.76-18.76-5.13,0-9.92,2.03-13.49,5.72-.77.79-2.03.81-2.83.05-.79-.77-.81-2.03-.05-2.83,4.33-4.47,10.14-6.94,16.36-6.94,12.55,0,22.76,10.21,22.76,22.76,0,1.54-.16,3.09-.46,4.59-.19.95-1.03,1.6-1.96,1.6Z"/>
      <path class="cls-2" d="m101.01,78.62c.77.31,1.48.74,2.11,1.24.81-1.85,1.27-3.89,1.27-6.03,0-8.28-6.71-15-15-15-6.31,0-11.71,3.91-13.92,9.43l25.53,10.35Z"/>
      <path class="cls-2" d="m22.58,71.32c0-3.32,3.55-5.43,6.47-3.84l3.14,1.71c1.68.92,3.54,1.35,5.38,1.32-1.51-6.68-7.47-11.68-14.61-11.68-8.28,0-15,6.71-15,15s6.51,14.78,14.62,14.98v-17.49Z"/>
      <path class="cls-3" d="m43.92,37.25h-9.61c-2.26,0-4.1-2.14-4.1-4.78v-.92c0-2.64,1.83-4.78,4.1-4.78h2.36c.6,0,1.2.11,1.77.32l3.34,1.23c.49.18,1,.29,1.52.31l2.55.12c1.93.09,3.45,1.95,3.45,4.2v.1c0,2.32-1.61,4.2-3.6,4.2h-1.79Z"/>
      <path class="cls-6" d="m45.71,39.25h-11.39c-3.36,0-6.1-3.04-6.1-6.78v-.92c0-3.74,2.73-6.78,6.1-6.78h2.36c.84,0,1.66.15,2.46.44l3.34,1.23c.3.11.62.18.93.19l2.55.12c3,.15,5.36,2.87,5.36,6.2,0,3.52-2.51,6.3-5.6,6.3Zm-11.39-10.48c-1.14,0-2.1,1.27-2.1,2.78v.92c0,1.51.96,2.78,2.1,2.78h11.39c.87,0,1.6-1.01,1.6-2.2s-.71-2.26-1.55-2.3l-2.55-.12c-.72-.04-1.43-.18-2.11-.43l-3.34-1.22c-.35-.13-.71-.19-1.08-.19h-2.36Z"/>
      <path class="cls-6" d="m88.87,68.2c-.86,0-1.65-.56-1.91-1.42l-9.53-31.35c-.76-1.81-.76-3.88,0-5.7l2.94-7.73h-12.85c-1.1,0-2-.9-2-2s.9-2,2-2h15.75c.66,0,1.27.32,1.65.86.37.54.46,1.23.22,1.85l-4,10.51c-.38.9-.37,1.9,0,2.73.03.07.06.15.08.22l9.56,31.45c.32,1.06-.27,2.17-1.33,2.5-.19.06-.39.09-.58.09Z"/>
      <path class="cls-6" d="m43.48,52.43c-.87,0-1.67-.58-1.92-1.46l-3.72-13.17c-.3-1.06.32-2.17,1.38-2.47,1.07-.3,2.17.32,2.47,1.38l3.72,13.17c.3,1.06-.32,2.17-1.38,2.47-.18.05-.36.08-.54.08Z"/>
      <path class="cls-6" d="m64.32,41.68c-.84,0-1.62-.53-1.9-1.38-.35-1.05.23-2.18,1.27-2.52l14.99-4.93c1.05-.35,2.18.23,2.52,1.27s-.23,2.18-1.27,2.52l-14.99,4.93c-.21.07-.42.1-.63.1Z"/>
    </g>
    <g id="shoe">
      <path class="cls-4" d="m22.76,71.95v21.58h83.11v-6.27c0-3.52-2.13-6.68-5.39-8l-32.18-13.05c-2.41-.98-3.99-3.32-3.99-5.92v-.24c0-4.06-3.29-7.35-7.35-7.35h-.39c-4.06,0-7.35,3.29-7.35,7.35v5.78l-5.73,3.64c-3.36,2.14-7.62,2.28-11.12.37l-3.14-1.71c-2.91-1.59-6.47.52-6.47,3.84Z"/>
      <path class="cls-5" d="m100.48,79.25l-32.18-13.05c-2.41-.98-3.99-3.32-3.99-5.92v-.24c0-4.06-3.29-7.35-7.35-7.35h-.39c-4.06,0-7.35,3.29-7.35,7.35v5.78l-5.73,3.64c-3.36,2.14-7.62,2.28-11.12.37l-3.14-1.71c-2.91-1.59-6.47.52-6.47,3.84v2.88c8.5.61,12.33,6.72,14.01,12.73h69.09v-.3c0-3.52-2.13-6.68-5.39-8Z"/>
      <path class="cls-6" d="m105.87,95.53H22.76c-1.1,0-2-.9-2-2v-21.58c0-2.27,1.17-4.32,3.12-5.48,1.95-1.16,4.31-1.2,6.3-.12l3.14,1.71c2.86,1.56,6.34,1.44,9.09-.3l4.8-3.05v-4.68c0-5.16,4.2-9.35,9.35-9.35h.39c5.16,0,9.35,4.2,9.35,9.35v.24c0,1.8,1.08,3.39,2.74,4.07l32.18,13.05c4.03,1.64,6.64,5.5,6.64,9.86v6.27c0,1.1-.9,2-2,2Zm-81.11-4h79.11v-4.27c0-2.71-1.63-5.13-4.14-6.15l-32.18-13.05c-3.18-1.29-5.24-4.34-5.24-7.77v-.24c0-2.95-2.4-5.35-5.35-5.35h-.39c-2.95,0-5.35,2.4-5.35,5.35v5.78c0,.68-.35,1.32-.93,1.69l-5.73,3.64c-3.98,2.52-9.01,2.69-13.15.44l-3.14-1.71c-1.07-.58-2-.16-2.35.04-.35.21-1.16.82-1.16,2.04v19.58Z"/>
      <path class="cls-6" d="m105.87,87.98H22.76c-1.1,0-2-.9-2-2s.9-2,2-2h83.11c1.1,0,2,.9,2,2s-.9,2-2,2Z"/>
      <path class="cls-6" d="m62.18,74.33c-.51,0-1.02-.2-1.41-.59-.78-.78-.78-2.05,0-2.83l6.13-6.13c.78-.78,2.05-.78,2.83,0,.78.78.78,2.05,0,2.83l-6.13,6.13c-.39.39-.9.59-1.41.59Z"/>
      <path class="cls-6" d="m69.62,77.97c-.51,0-1.02-.2-1.41-.59-.78-.78-.78-2.05,0-2.83l6.13-6.13c.78-.78,2.05-.78,2.83,0,.78.78.78,2.05,0,2.83l-6.13,6.13c-.39.39-.9.59-1.41.59Z"/>
      <path class="cls-6" d="m34.48,87c-1.1,0-2-.9-2-2,0-7.61-9.37-7.97-9.77-7.98-1.1-.03-1.97-.95-1.94-2.05s.93-1.96,2.05-1.95c4.73.12,13.66,2.77,13.66,11.98,0,1.1-.9,2-2,2Z"/>
    </g>
  </g>
</svg>