<?xml version="1.0" encoding="UTF-8"?>
<svg id="flatten_icons" xmlns="http://www.w3.org/2000/svg" viewBox="0 0 112 112">
  <defs>
    <style>
      .cls-1 {
        fill: none;
      }

      .cls-2 {
        fill: #e2b491;
      }

      .cls-3 {
        fill: #ed706b;
      }

      .cls-4 {
        fill: #fdda49;
      }

      .cls-5 {
        fill: #004241;
      }

      .cls-6 {
        fill: #a6c68d;
      }
    </style>
  </defs>
  <g id="velo-electrique">
    <g id="area">
      <rect class="cls-1" width="112" height="112"/>
    </g>
    <g id="bike">
      <g>
        <path class="cls-2" d="M43.44,46.9h-10.61c-2.5,0-4.52-2.36-4.52-5.28v-1.01c0-2.91,2.02-5.28,4.52-5.28h2.61c.66,0,1.32.12,1.95.35l3.69,1.35c.54.2,1.11.32,1.68.34l2.82.14c2.13.1,3.81,2.15,3.81,4.64v.11c0,2.56-1.78,4.64-3.98,4.64h-1.97Z"/>
        <path class="cls-5" d="M45.41,48.9h-12.58c-3.6,0-6.52-3.26-6.52-7.28v-1.01c0-4.01,2.93-7.28,6.52-7.28h2.61c.9,0,1.79.16,2.64.47l3.69,1.35c.35.13.72.2,1.09.22l2.82.14c3.21.16,5.72,3.07,5.72,6.64v.11c0,3.66-2.68,6.64-5.98,6.64ZM32.83,37.33c-1.37,0-2.52,1.5-2.52,3.28v1.01c0,1.78,1.16,3.28,2.52,3.28h12.58c1.07,0,1.98-1.21,1.98-2.64v-.11c0-1.4-.86-2.59-1.91-2.64l-2.82-.14c-.77-.04-1.54-.19-2.27-.46l-3.69-1.35c-.41-.15-.83-.23-1.26-.23h-2.61Z"/>
      </g>
      <path class="cls-5" d="M49.52,89.76c-.89,0-1.7-.6-1.93-1.49l-10.68-40.86c-.28-1.07.36-2.16,1.43-2.44,1.07-.28,2.16.36,2.44,1.43l10.68,40.86c.28,1.07-.36,2.16-1.43,2.44-.17.04-.34.07-.51.07Z"/>
      <g>
        <path class="cls-2" d="M63.92,26h7.21v7.31h-7.21c-1.86,0-3.37-1.51-3.37-3.37v-.58c0-1.86,1.51-3.37,3.37-3.37Z"/>
        <path class="cls-5" d="M73.13,35.31h-9.21c-2.96,0-5.37-2.41-5.37-5.37v-.58c0-2.96,2.41-5.37,5.37-5.37h9.21v11.31ZM63.92,28c-.75,0-1.37.61-1.37,1.37v.58c0,.75.61,1.37,1.37,1.37h5.21v-3.31h-5.21Z"/>
      </g>
      <path class="cls-5" d="M49.52,89.76c-.42,0-.85-.13-1.21-.41-.88-.67-1.04-1.93-.37-2.8l25.65-33.5c.67-.88,1.93-1.04,2.8-.37.88.67,1.04,1.93.37,2.8l-25.65,33.5c-.39.51-.99.78-1.59.78Z"/>
      <path class="cls-5" d="M24.27,86.23c-.38,0-.77-.11-1.11-.34-.92-.62-1.16-1.86-.55-2.77l16.94-25.25c.27-.41.68-.7,1.16-.82l32.88-8.54c1.07-.28,2.16.36,2.44,1.43.28,1.07-.36,2.16-1.43,2.44l-32.14,8.35-16.52,24.62c-.39.58-1.02.89-1.66.89Z"/>
      <path class="cls-5" d="M53.95,100.06c-.77,0-1.5-.44-1.83-1.19l-6.38-14.35c-.45-1.01,0-2.19,1.01-2.64,1.01-.45,2.19,0,2.64,1.02l6.38,14.35c.45,1.01,0,2.19-1.01,2.64-.26.12-.54.17-.81.17Z"/>
      <path class="cls-5" d="M50.75,102.59c-.94,0-1.77-.66-1.96-1.61-.21-1.08.49-2.14,1.57-2.35l7.13-1.41c1.08-.22,2.14.49,2.35,1.57s-.49,2.14-1.57,2.35l-7.13,1.41c-.13.03-.26.04-.39.04Z"/>
      <g>
        <path class="cls-6" d="M89.04,66.94c-11.53,0-20.87,9.34-20.87,20.87s9.34,20.87,20.87,20.87,20.87-9.34,20.87-20.87-9.34-20.87-20.87-20.87ZM89.04,100.59c-7.06,0-12.79-5.72-12.79-12.79s5.72-12.78,12.79-12.78,12.78,5.72,12.78,12.78-5.72,12.79-12.78,12.79Z"/>
        <path class="cls-5" d="M89.04,110.67c-12.61,0-22.87-10.26-22.87-22.87s10.26-22.87,22.87-22.87,22.87,10.26,22.87,22.87-10.26,22.87-22.87,22.87ZM89.04,68.94c-10.4,0-18.87,8.46-18.87,18.87s8.46,18.87,18.87,18.87,18.87-8.46,18.87-18.87-8.46-18.87-18.87-18.87ZM89.04,102.59c-8.15,0-14.79-6.63-14.79-14.79s6.63-14.78,14.79-14.78,14.79,6.63,14.79,14.78-6.63,14.79-14.79,14.79ZM89.04,77.02c-5.95,0-10.79,4.84-10.79,10.78s4.84,10.79,10.79,10.79,10.79-4.84,10.79-10.79-4.84-10.78-10.79-10.78Z"/>
      </g>
      <path class="cls-5" d="M89.04,89.81c-.63,0-1.24-.29-1.63-.84l-2.84-3.99c-.78-1.1-1.41-2.29-1.87-3.56l-12.38-36.08c-.27-.78-.03-1.65.6-2.18l6.29-5.3c.74-.62,1.17-1.54,1.17-2.51v-3.28h-6.17c-1.1,0-2-.9-2-2s.9-2,2-2h8.17c1.1,0,2,.9,2,2v5.28c0,2.15-.94,4.18-2.59,5.57l-5.24,4.41,11.92,34.75c.33.89.79,1.77,1.36,2.57l2.84,3.99c.64.9.43,2.15-.47,2.79-.35.25-.76.37-1.16.37Z"/>
      <g>
        <path class="cls-6" d="M22.87,66.94c-11.52,0-20.87,9.34-20.87,20.87s9.34,20.87,20.87,20.87,20.87-9.34,20.87-20.87-9.34-20.87-20.87-20.87ZM22.87,100.59c-7.06,0-12.79-5.72-12.79-12.79s5.72-12.78,12.79-12.78,12.79,5.72,12.79,12.78-5.72,12.79-12.79,12.79Z"/>
        <path class="cls-5" d="M22.87,110.67C10.26,110.67,0,100.41,0,87.81s10.26-22.87,22.87-22.87,22.87,10.26,22.87,22.87-10.26,22.87-22.87,22.87ZM22.87,68.94c-10.4,0-18.87,8.46-18.87,18.87s8.46,18.87,18.87,18.87,18.87-8.46,18.87-18.87-8.46-18.87-18.87-18.87ZM22.87,102.59c-8.15,0-14.79-6.63-14.79-14.79s6.63-14.78,14.79-14.78,14.79,6.63,14.79,14.78-6.63,14.79-14.79,14.79ZM22.87,77.02c-5.95,0-10.79,4.84-10.79,10.78s4.84,10.79,10.79,10.79,10.79-4.84,10.79-10.79-4.84-10.78-10.79-10.78Z"/>
      </g>
      <g>
        <circle class="cls-4" cx="23.17" cy="87.76" r="4.05"/>
        <path class="cls-5" d="M23.17,93.81c-3.33,0-6.05-2.71-6.05-6.05s2.71-6.05,6.05-6.05,6.05,2.71,6.05,6.05-2.71,6.05-6.05,6.05ZM23.17,85.71c-1.13,0-2.05.92-2.05,2.05s.92,2.05,2.05,2.05,2.05-.92,2.05-2.05-.92-2.05-2.05-2.05Z"/>
      </g>
      <g>
        <circle class="cls-3" cx="48.69" cy="85.76" r="6.23"/>
        <path class="cls-5" d="M48.69,93.99c-4.54,0-8.23-3.69-8.23-8.23s3.69-8.23,8.23-8.23,8.23,3.69,8.23,8.23-3.69,8.23-8.23,8.23ZM48.69,81.53c-2.33,0-4.23,1.9-4.23,4.23s1.9,4.23,4.23,4.23,4.23-1.9,4.23-4.23-1.9-4.23-4.23-4.23Z"/>
      </g>
    </g>
  </g>
</svg>