<svg xmlns="http://www.w3.org/2000/svg" id="flatten_icons" data-name="flatten icons" viewBox="0 0 112 112"><defs><style>.cls-2,.cls-3,.cls-4,.cls-5{stroke-width:0}.cls-2{fill:#9fdecf}.cls-3{fill:#fdda49}.cls-4{fill:#ed706b}.cls-5{fill:#004241}</style></defs><g id="velo-electrique"><path id="area" d="M0 .1h112V112H0z" style="fill:none;stroke-width:0"/><g id="bolt"><path d="M44.8 25.99H27.51c-.82 0-1.39-.79-1.12-1.55l7.42-20.9c.42-1.19-1.1-2.1-1.98-1.19L2.33 32.99c-.72.74-.18 1.97.86 1.97h17.29c.82 0 1.39.79 1.12 1.55l-7.42 20.9c-.42 1.19 1.1 2.1 1.98 1.19l29.5-30.64c.72-.74.18-1.97-.86-1.97" class="cls-3"/><path d="M15.31 60.94c-.57 0-1.15-.15-1.67-.47-1.3-.78-1.86-2.31-1.35-3.72l7.04-19.82H3.2c-1.28 0-2.43-.75-2.94-1.9s-.26-2.49.62-3.4L30.37.99a3.2 3.2 0 0 1 3.98-.52c1.3.78 1.86 2.31 1.35 3.72l-7.04 19.82h16.13c1.28 0 2.43.75 2.93 1.9.51 1.15.26 2.49-.61 3.4l-29.5 30.64c-.63.65-1.46.99-2.31.99ZM5.11 32.98h15.38c1.03 0 2.01.49 2.6 1.32.6.83.75 1.9.41 2.86L17.35 54.5 42.9 27.97H27.52c-1.03 0-2.01-.5-2.61-1.32-.6-.83-.75-1.9-.41-2.86l6.15-17.34zm39.7-5.02" class="cls-5"/></g><g id="bike"><path d="M43.47 46.84H32.85c-2.5 0-4.53-2.34-4.53-5.23v-1c0-2.89 2.03-5.23 4.53-5.23h2.61c.66 0 1.32.12 1.95.35l3.69 1.34c.55.2 1.11.31 1.68.34l2.82.14c2.13.1 3.82 2.13 3.82 4.6v.1c0 2.54-1.78 4.6-3.98 4.6h-1.97Z" class="cls-4"/><path d="M45.45 48.82H32.86c-3.6 0-6.53-3.24-6.53-7.21v-1c0-3.98 2.93-7.21 6.53-7.21h2.61c.9 0 1.79.16 2.64.47l3.69 1.34c.35.13.72.2 1.09.22l2.82.14c3.21.15 5.72 3.04 5.72 6.58v.1c0 3.63-2.68 6.58-5.98 6.58ZM32.86 37.35c-1.37 0-2.52 1.49-2.52 3.25v1c0 1.76 1.16 3.25 2.52 3.25h12.59c1.07 0 1.98-1.2 1.98-2.62v-.1c0-1.39-.86-2.57-1.91-2.62l-2.82-.14c-.77-.04-1.54-.19-2.27-.46l-3.69-1.34c-.41-.15-.84-.22-1.26-.22h-2.61Z" class="cls-5"/><path d="M46.58 76.58c-.88 0-1.69-.58-1.93-1.46l-7.7-27.76a1.98 1.98 0 0 1 1.4-2.44 2 2 0 0 1 2.46 1.39l7.7 27.76a1.98 1.98 0 0 1-1.4 2.44c-.18.05-.36.07-.53.07" class="cls-5"/><path d="M63.98 26.12h7.22v7.25h-7.22c-1.86 0-3.37-1.51-3.37-3.37v-.51c0-1.86 1.51-3.37 3.37-3.37" class="cls-4"/><path d="M71.19 35.35h-7.22c-2.96 0-5.37-2.39-5.37-5.32v-.57c0-2.93 2.41-5.32 5.37-5.32h7.22c1.11 0 2 .89 2 1.98v7.25c0 1.09-.9 1.98-2 1.98m-7.22-7.25c-.75 0-1.37.61-1.37 1.35v.57c0 .75.61 1.35 1.37 1.35h5.21v-3.28h-5.21ZM52.01 81.72c-.48 0-.95-.17-1.34-.51a1.97 1.97 0 0 1-.15-2.8l23.23-25.6c.74-.81 2-.88 2.83-.15s.89 1.99.15 2.8L53.5 81.06c-.39.44-.94.66-1.49.66" class="cls-5"/><path d="M22.89 83.84c-.43 0-.87-.14-1.24-.43a1.96 1.96 0 0 1-.33-2.78l18.36-23.04c.27-.34.65-.58 1.07-.69l32.91-8.46c1.07-.27 2.16.36 2.44 1.42s-.36 2.14-1.43 2.42l-32.26 8.29-17.94 22.52c-.39.5-.98.75-1.57.75Zm31.1 13.7c-.77 0-1.5-.44-1.83-1.18l-6.38-14.22c-.45-1 0-2.17 1.02-2.62 1.01-.44 2.19 0 2.64 1.01l6.38 14.22c.45 1 0 2.17-1.02 2.62-.26.12-.54.17-.81.17" class="cls-5"/><path d="M50.8 100.05c-.94 0-1.77-.65-1.96-1.6-.22-1.07.49-2.12 1.57-2.33l7.13-1.4c1.08-.21 2.14.48 2.35 1.56s-.49 2.12-1.57 2.33l-7.13 1.4c-.13.03-.26.04-.39.04" class="cls-5"/><path d="M89.11 64.72c-11.53 0-20.89 9.26-20.89 20.68s9.35 20.68 20.89 20.68S110 96.82 110 85.4s-9.35-20.68-20.89-20.68m0 33.35c-7.07 0-12.8-5.67-12.8-12.67s5.73-12.67 12.8-12.67 12.8 5.67 12.8 12.67-5.73 12.67-12.8 12.67" class="cls-2"/><path d="M89.11 108.06c-12.62 0-22.89-10.17-22.89-22.66s10.27-22.66 22.89-22.66S112 72.91 112 85.4s-10.27 22.66-22.89 22.66m0-41.36c-10.41 0-18.88 8.39-18.88 18.7s8.47 18.7 18.88 18.7 18.88-8.39 18.88-18.7-8.47-18.7-18.88-18.7m0 33.35c-8.16 0-14.8-6.57-14.8-14.65s6.64-14.65 14.8-14.65 14.8 6.57 14.8 14.65-6.64 14.65-14.8 14.65m0-25.34c-5.95 0-10.79 4.79-10.79 10.69s4.84 10.69 10.79 10.69S99.9 91.29 99.9 85.4s-4.84-10.69-10.79-10.69" class="cls-5"/><path d="M89.12 87.38a2 2 0 0 1-1.63-.83l-2.84-3.95c-.78-1.09-1.41-2.27-1.87-3.53L70.4 45.33c-.29-.78-.05-1.66.59-2.19l6.3-5.25a3.25 3.25 0 0 0 1.17-2.49c0-1.79-1.47-3.25-3.29-3.25h-2.89c-1.11 0-2-.89-2-1.98s.9-1.98 2-1.98h2.89c4.02 0 7.29 3.24 7.29 7.22 0 2.13-.95 4.15-2.59 5.52l-5.23 4.36 11.9 32.44c.34.92.8 1.79 1.37 2.58l2.84 3.95c.64.89.43 2.13-.47 2.76-.35.25-.76.37-1.16.37Z" class="cls-5"/><path d="M22.89 64.72C11.36 64.72 2 73.98 2 85.4s9.35 20.68 20.89 20.68 20.89-9.26 20.89-20.68-9.35-20.68-20.89-20.68m0 33.35c-7.07 0-12.8-5.67-12.8-12.67s5.73-12.67 12.8-12.67 12.8 5.67 12.8 12.67-5.73 12.67-12.8 12.67" class="cls-2"/><path d="M22.89 108.06C10.27 108.06 0 97.89 0 85.4s10.27-22.66 22.89-22.66S45.78 72.91 45.78 85.4s-10.27 22.66-22.89 22.66m0-41.36c-10.41 0-18.88 8.39-18.88 18.7s8.47 18.7 18.88 18.7 18.88-8.39 18.88-18.7-8.47-18.7-18.88-18.7m0 33.35c-8.16 0-14.8-6.57-14.8-14.65s6.64-14.65 14.8-14.65 14.8 6.57 14.8 14.65-6.64 14.65-14.8 14.65m0-25.34c-5.95 0-10.79 4.79-10.79 10.69s4.84 10.69 10.79 10.69 10.79-4.8 10.79-10.69-4.84-10.69-10.79-10.69" class="cls-5"/><path d="m47.13 89.33-23.44-1.3c-1.72-.28-2.98-1.75-2.98-3.47 0-1.59 1.08-2.99 2.64-3.4l23.42-7.74c1.56-.41 3.21.28 4.01 1.67l2.76 4.85c.65 1.14.6 2.54-.11 3.63l-2.73 4.19a3.57 3.57 0 0 1-3.56 1.56Z" class="cls-2"/><path d="M47.71 91.36c-.26 0-.52-.02-.78-.05l-23.35-1.29c-.07 0-.14-.01-.21-.02-2.7-.44-4.65-2.72-4.65-5.43 0-2.47 1.67-4.63 4.06-5.3l23.37-7.72s.08-.03.12-.04c2.45-.64 5.02.43 6.26 2.62l2.76 4.85a5.45 5.45 0 0 1-.17 5.68l-2.73 4.19a5.57 5.57 0 0 1-4.66 2.51Zm-23.78-5.3 23.32 1.29c.07 0 .14.01.21.02.61.1 1.22-.17 1.55-.68l2.73-4.19c.31-.48.33-1.09.05-1.58l-2.76-4.85c-.34-.59-1.03-.89-1.7-.74l-23.35 7.72s-.08.03-.12.04c-.68.18-1.15.79-1.15 1.48s.51 1.34 1.21 1.5Z" class="cls-5"/><ellipse cx="23.19" cy="85.36" class="cls-3" rx="4.05" ry="4.01"/><path d="M23.19 91.35c-3.34 0-6.05-2.69-6.05-5.99s2.72-6 6.05-6 6.05 2.69 6.05 6-2.72 5.99-6.05 5.99m0-8.03c-1.13 0-2.05.91-2.05 2.03s.92 2.03 2.05 2.03 2.05-.91 2.05-2.03-.92-2.03-2.05-2.03" class="cls-5"/></g></g></svg>