<svg xmlns="http://www.w3.org/2000/svg" id="flatten_icons" viewBox="0 0 112 112"><defs><style>.cls-2{fill:#e2b491}.cls-5{fill:#004241}.cls-6{fill:#a6c68d}</style></defs><g id="velo-electrique"><path id="area" d="M0 0h112v112H0z" style="fill:none"/><g id="bike"><path d="M43.44 46.9H32.83c-2.5 0-4.52-2.36-4.52-5.28v-1.01c0-2.91 2.02-5.28 4.52-5.28h2.61c.66 0 1.32.12 1.95.35l3.69 1.35c.54.2 1.11.32 1.68.34l2.82.14c2.13.1 3.81 2.15 3.81 4.64v.11c0 2.56-1.78 4.64-3.98 4.64z" class="cls-2"/><path d="M45.41 48.9H32.83c-3.6 0-6.52-3.26-6.52-7.28v-1.01c0-4.01 2.93-7.28 6.52-7.28h2.61c.9 0 1.79.16 2.64.47l3.69 1.35c.35.13.72.2 1.09.22l2.82.14c3.21.16 5.72 3.07 5.72 6.64v.11c0 3.66-2.68 6.64-5.98 6.64ZM32.83 37.33c-1.37 0-2.52 1.5-2.52 3.28v1.01c0 1.78 1.16 3.28 2.52 3.28h12.58c1.07 0 1.98-1.21 1.98-2.64v-.11c0-1.4-.86-2.59-1.91-2.64l-2.82-.14c-.77-.04-1.54-.19-2.27-.46l-3.69-1.35c-.41-.15-.83-.23-1.26-.23z" class="cls-5"/><path d="M49.52 89.76c-.89 0-1.7-.6-1.93-1.49L36.91 47.41c-.28-1.07.36-2.16 1.43-2.44s2.16.36 2.44 1.43l10.68 40.86c.28 1.07-.36 2.16-1.43 2.44-.17.04-.34.07-.51.07Z" class="cls-5"/><path d="M63.92 26h7.21v7.31h-7.21c-1.86 0-3.37-1.51-3.37-3.37v-.58c0-1.86 1.51-3.37 3.37-3.37Z" class="cls-2"/><path d="M73.13 35.31h-9.21c-2.96 0-5.37-2.41-5.37-5.37v-.58c0-2.96 2.41-5.37 5.37-5.37h9.21V35.3ZM63.92 28c-.75 0-1.37.61-1.37 1.37v.58c0 .75.61 1.37 1.37 1.37h5.21v-3.31h-5.21Zm-14.4 61.76a1.994 1.994 0 0 1-1.58-3.21l25.65-33.5c.67-.88 1.93-1.04 2.8-.37.88.67 1.04 1.93.37 2.8l-25.65 33.5c-.39.51-.99.78-1.59.78" class="cls-5"/><path d="M24.27 86.23a2 2 0 0 1-1.66-3.11l16.94-25.25c.27-.41.68-.7 1.16-.82l32.88-8.54c1.07-.28 2.16.36 2.44 1.43s-.36 2.16-1.43 2.44l-32.14 8.35-16.52 24.62c-.39.58-1.02.89-1.66.89Zm29.68 13.83c-.77 0-1.5-.44-1.83-1.19l-6.38-14.35a1.996 1.996 0 1 1 3.65-1.62l6.38 14.35c.45 1.01 0 2.19-1.01 2.64-.26.12-.54.17-.81.17" class="cls-5"/><path d="M50.75 102.59a1.999 1.999 0 0 1-.39-3.96l7.13-1.41c1.08-.22 2.14.49 2.35 1.57s-.49 2.14-1.57 2.35l-7.13 1.41c-.13.03-.26.04-.39.04" class="cls-5"/><path d="M89.04 66.94c-11.53 0-20.87 9.34-20.87 20.87s9.34 20.87 20.87 20.87 20.87-9.34 20.87-20.87-9.34-20.87-20.87-20.87m0 33.65c-7.06 0-12.79-5.72-12.79-12.79s5.72-12.78 12.79-12.78 12.78 5.72 12.78 12.78-5.72 12.79-12.78 12.79" class="cls-6"/><path d="M89.04 110.67c-12.61 0-22.87-10.26-22.87-22.87s10.26-22.87 22.87-22.87 22.87 10.26 22.87 22.87-10.26 22.87-22.87 22.87m0-41.73c-10.4 0-18.87 8.46-18.87 18.87s8.46 18.87 18.87 18.87 18.87-8.46 18.87-18.87-8.46-18.87-18.87-18.87m0 33.65c-8.15 0-14.79-6.63-14.79-14.79s6.63-14.78 14.79-14.78 14.79 6.63 14.79 14.78-6.63 14.79-14.79 14.79m0-25.57c-5.95 0-10.79 4.84-10.79 10.78s4.84 10.79 10.79 10.79 10.79-4.84 10.79-10.79-4.84-10.78-10.79-10.78" class="cls-5"/><path d="M89.04 89.81c-.63 0-1.24-.29-1.63-.84l-2.84-3.99c-.78-1.1-1.41-2.29-1.87-3.56L70.32 45.34a2 2 0 0 1 .6-2.18l6.29-5.3c.74-.62 1.17-1.54 1.17-2.51v-3.28h-6.17c-1.1 0-2-.9-2-2s.9-2 2-2h8.17c1.1 0 2 .9 2 2v5.28c0 2.15-.94 4.18-2.59 5.57l-5.24 4.41 11.92 34.75c.33.89.79 1.77 1.36 2.57l2.84 3.99a2.001 2.001 0 0 1-1.63 3.16Z" class="cls-5"/><path d="M22.87 66.94C11.35 66.94 2 76.28 2 87.81s9.34 20.87 20.87 20.87 20.87-9.34 20.87-20.87-9.34-20.87-20.87-20.87m0 33.65c-7.06 0-12.79-5.72-12.79-12.79s5.72-12.78 12.79-12.78 12.79 5.72 12.79 12.78-5.72 12.79-12.79 12.79" class="cls-6"/><path d="M22.87 110.67C10.26 110.67 0 100.41 0 87.81s10.26-22.87 22.87-22.87S45.74 75.2 45.74 87.81s-10.26 22.87-22.87 22.87Zm0-41.73C12.47 68.94 4 77.4 4 87.81s8.46 18.87 18.87 18.87 18.87-8.46 18.87-18.87-8.46-18.87-18.87-18.87m0 33.65c-8.15 0-14.79-6.63-14.79-14.79s6.63-14.78 14.79-14.78 14.79 6.63 14.79 14.78-6.63 14.79-14.79 14.79m0-25.57c-5.95 0-10.79 4.84-10.79 10.78s4.84 10.79 10.79 10.79 10.79-4.84 10.79-10.79-4.84-10.78-10.79-10.78" class="cls-5"/><circle cx="23.17" cy="87.76" r="4.05" style="fill:#fdda49"/><path d="M23.17 93.81c-3.33 0-6.05-2.71-6.05-6.05s2.71-6.05 6.05-6.05 6.05 2.71 6.05 6.05-2.71 6.05-6.05 6.05m0-8.1c-1.13 0-2.05.92-2.05 2.05s.92 2.05 2.05 2.05 2.05-.92 2.05-2.05-.92-2.05-2.05-2.05" class="cls-5"/><circle cx="48.69" cy="85.76" r="6.23" style="fill:#ed706b"/><path d="M48.69 93.99c-4.54 0-8.23-3.69-8.23-8.23s3.69-8.23 8.23-8.23 8.23 3.69 8.23 8.23-3.69 8.23-8.23 8.23m0-12.46c-2.33 0-4.23 1.9-4.23 4.23s1.9 4.23 4.23 4.23 4.23-1.9 4.23-4.23-1.9-4.23-4.23-4.23" class="cls-5"/></g></g></svg>