<?xml version="1.0" encoding="UTF-8"?>
<svg id="flatten_icons" data-name="flatten icons" xmlns="http://www.w3.org/2000/svg" viewBox="0 0 112 112">
  <defs>
    <style>
      .cls-1 {
        fill: none;
      }

      .cls-1, .cls-2, .cls-3, .cls-4, .cls-5 {
        stroke-width: 0px;
      }

      .cls-2 {
        fill: #9fdecf;
      }

      .cls-3 {
        fill: #fdda49;
      }

      .cls-4 {
        fill: #ed706b;
      }

      .cls-5 {
        fill: #004241;
      }
    </style>
  </defs>
  <g id="velo-electrique">
    <g id="area">
      <rect class="cls-1" y=".1" width="112" height="111.9"/>
    </g>
    <g id="bolt">
      <path class="cls-3" d="m44.8,25.99h-17.29c-.82,0-1.39-.79-1.12-1.55l7.42-20.9c.42-1.19-1.1-2.1-1.98-1.19L2.33,32.99c-.72.74-.18,1.97.86,1.97h17.29c.82,0,1.39.79,1.12,1.55l-7.42,20.9c-.42,1.19,1.1,2.1,1.98,1.19l29.5-30.64c.72-.74.18-1.97-.86-1.97Z"/>
      <path class="cls-5" d="m15.31,60.94c-.57,0-1.15-.15-1.67-.47-1.3-.78-1.86-2.31-1.35-3.72l7.04-19.82H3.2c-1.28,0-2.43-.75-2.94-1.9s-.26-2.49.62-3.4L30.37.99c1.05-1.09,2.68-1.3,3.98-.52,1.3.78,1.86,2.31,1.35,3.72l-7.04,19.82h16.13c1.28,0,2.43.75,2.93,1.9.51,1.15.26,2.49-.61,3.4l-29.5,30.64c-.63.65-1.46.99-2.31.99Zm-10.2-27.96h15.38c1.03,0,2.01.49,2.6,1.32.6.83.75,1.9.41,2.86l-6.15,17.34,25.55-26.53h-15.38c-1.03,0-2.01-.5-2.61-1.32-.6-.83-.75-1.9-.41-2.86l6.15-17.34L5.11,32.98Zm39.7-5.02h0,0Z"/>
    </g>
    <g id="bike">
      <g>
        <path class="cls-4" d="m43.47,46.84h-10.62c-2.5,0-4.53-2.34-4.53-5.23v-1c0-2.89,2.03-5.23,4.53-5.23h2.61c.66,0,1.32.12,1.95.35l3.69,1.34c.55.2,1.11.31,1.68.34l2.82.14c2.13.1,3.82,2.13,3.82,4.6v.1c0,2.54-1.78,4.6-3.98,4.6h-1.97Z"/>
        <path class="cls-5" d="m45.45,48.82h-12.59c-3.6,0-6.53-3.24-6.53-7.21v-1c0-3.98,2.93-7.21,6.53-7.21h2.61c.9,0,1.79.16,2.64.47l3.69,1.34c.35.13.72.2,1.09.22l2.82.14c3.21.15,5.72,3.04,5.72,6.58v.1c0,3.63-2.68,6.58-5.98,6.58Zm-12.59-11.47c-1.37,0-2.52,1.49-2.52,3.25v1c0,1.76,1.16,3.25,2.52,3.25h12.59c1.07,0,1.98-1.2,1.98-2.62v-.1c0-1.39-.86-2.57-1.91-2.62l-2.82-.14c-.77-.04-1.54-.19-2.27-.46l-3.69-1.34c-.41-.15-.84-.22-1.26-.22h-2.61Z"/>
      </g>
      <path class="cls-5" d="m46.58,76.58c-.88,0-1.69-.58-1.93-1.46l-7.7-27.76c-.29-1.06.33-2.15,1.4-2.44,1.07-.29,2.17.33,2.46,1.39l7.7,27.76c.29,1.06-.33,2.15-1.4,2.44-.18.05-.36.07-.53.07Z"/>
      <g>
        <path class="cls-4" d="m63.98,26.12h7.22v7.25h-7.22c-1.86,0-3.37-1.51-3.37-3.37v-.51c0-1.86,1.51-3.37,3.37-3.37Z"/>
        <path class="cls-5" d="m71.19,35.35h-7.22c-2.96,0-5.37-2.39-5.37-5.32v-.57c0-2.93,2.41-5.32,5.37-5.32h7.22c1.11,0,2,.89,2,1.98v7.25c0,1.09-.9,1.98-2,1.98Zm-7.22-7.25c-.75,0-1.37.61-1.37,1.35v.57c0,.75.61,1.35,1.37,1.35h5.21v-3.28h-5.21Z"/>
      </g>
      <path class="cls-5" d="m52.01,81.72c-.48,0-.95-.17-1.34-.51-.82-.73-.89-1.99-.15-2.8l23.23-25.6c.74-.81,2-.88,2.83-.15s.89,1.99.15,2.8l-23.23,25.6c-.39.44-.94.66-1.49.66Z"/>
      <path class="cls-5" d="m22.89,83.84c-.43,0-.87-.14-1.24-.43-.87-.68-1.02-1.92-.33-2.78l18.36-23.04c.27-.34.65-.58,1.07-.69l32.91-8.46c1.07-.27,2.16.36,2.44,1.42.28,1.06-.36,2.14-1.43,2.42l-32.26,8.29-17.94,22.52c-.39.5-.98.75-1.57.75Z"/>
      <path class="cls-5" d="m53.99,97.54c-.77,0-1.5-.44-1.83-1.18l-6.38-14.22c-.45-1,0-2.17,1.02-2.62,1.01-.44,2.19,0,2.64,1.01l6.38,14.22c.45,1,0,2.17-1.02,2.62-.26.12-.54.17-.81.17Z"/>
      <path class="cls-5" d="m50.8,100.05c-.94,0-1.77-.65-1.96-1.6-.22-1.07.49-2.12,1.57-2.33l7.13-1.4c1.08-.21,2.14.48,2.35,1.56s-.49,2.12-1.57,2.33l-7.13,1.4c-.13.03-.26.04-.39.04Z"/>
      <g>
        <path class="cls-2" d="m89.11,64.72c-11.53,0-20.89,9.26-20.89,20.68s9.35,20.68,20.89,20.68,20.89-9.26,20.89-20.68-9.35-20.68-20.89-20.68Zm0,33.35c-7.07,0-12.8-5.67-12.8-12.67s5.73-12.67,12.8-12.67,12.8,5.67,12.8,12.67-5.73,12.67-12.8,12.67Z"/>
        <path class="cls-5" d="m89.11,108.06c-12.62,0-22.89-10.17-22.89-22.66s10.27-22.66,22.89-22.66,22.89,10.17,22.89,22.66-10.27,22.66-22.89,22.66Zm0-41.36c-10.41,0-18.88,8.39-18.88,18.7s8.47,18.7,18.88,18.7,18.88-8.39,18.88-18.7-8.47-18.7-18.88-18.7Zm0,33.35c-8.16,0-14.8-6.57-14.8-14.65s6.64-14.65,14.8-14.65,14.8,6.57,14.8,14.65-6.64,14.65-14.8,14.65Zm0-25.34c-5.95,0-10.79,4.79-10.79,10.69s4.84,10.69,10.79,10.69,10.79-4.8,10.79-10.69-4.84-10.69-10.79-10.69Z"/>
      </g>
      <path class="cls-5" d="m89.12,87.38c-.63,0-1.24-.29-1.63-.83l-2.84-3.95c-.78-1.09-1.41-2.27-1.87-3.53l-12.38-33.74c-.29-.78-.05-1.66.59-2.19l6.3-5.25c.74-.62,1.17-1.53,1.17-2.49,0-1.79-1.47-3.25-3.29-3.25h-2.89c-1.11,0-2-.89-2-1.98s.9-1.98,2-1.98h2.89c4.02,0,7.29,3.24,7.29,7.22,0,2.13-.95,4.15-2.59,5.52l-5.23,4.36,11.9,32.44c.34.92.8,1.79,1.37,2.58l2.84,3.95c.64.89.43,2.13-.47,2.76-.35.25-.76.37-1.16.37Z"/>
      <g>
        <path class="cls-2" d="m22.89,64.72c-11.53,0-20.89,9.26-20.89,20.68s9.35,20.68,20.89,20.68,20.89-9.26,20.89-20.68-9.35-20.68-20.89-20.68Zm0,33.35c-7.07,0-12.8-5.67-12.8-12.67s5.73-12.67,12.8-12.67,12.8,5.67,12.8,12.67-5.73,12.67-12.8,12.67Z"/>
        <path class="cls-5" d="m22.89,108.06c-12.62,0-22.89-10.17-22.89-22.66s10.27-22.66,22.89-22.66,22.89,10.17,22.89,22.66-10.27,22.66-22.89,22.66Zm0-41.36c-10.41,0-18.88,8.39-18.88,18.7s8.47,18.7,18.88,18.7,18.88-8.39,18.88-18.7-8.47-18.7-18.88-18.7Zm0,33.35c-8.16,0-14.8-6.57-14.8-14.65s6.64-14.65,14.8-14.65,14.8,6.57,14.8,14.65-6.64,14.65-14.8,14.65Zm0-25.34c-5.95,0-10.79,4.79-10.79,10.69s4.84,10.69,10.79,10.69,10.79-4.8,10.79-10.69-4.84-10.69-10.79-10.69Z"/>
      </g>
      <g>
        <path class="cls-2" d="m47.13,89.33l-23.44-1.3c-1.72-.28-2.98-1.75-2.98-3.47h0c0-1.59,1.08-2.99,2.64-3.4l23.42-7.74c1.56-.41,3.21.28,4.01,1.67l2.76,4.85c.65,1.14.6,2.54-.11,3.63l-2.73,4.19c-.77,1.17-2.16,1.79-3.56,1.56Z"/>
        <path class="cls-5" d="m47.71,91.36c-.26,0-.52-.02-.78-.05l-23.35-1.29c-.07,0-.14-.01-.21-.02-2.7-.44-4.65-2.72-4.65-5.43,0-2.47,1.67-4.63,4.06-5.3l23.37-7.72s.08-.03.12-.04c2.45-.64,5.02.43,6.26,2.62l2.76,4.85c1.01,1.78.95,3.96-.17,5.68l-2.73,4.19c-1.03,1.58-2.8,2.51-4.66,2.51Zm-23.78-5.3l23.32,1.29c.07,0,.14.01.21.02.61.1,1.22-.17,1.55-.68l2.73-4.19c.31-.48.33-1.09.05-1.58l-2.76-4.85c-.34-.59-1.03-.89-1.7-.74l-23.35,7.72s-.08.03-.12.04c-.68.18-1.15.79-1.15,1.48s.51,1.34,1.21,1.5Z"/>
      </g>
      <g>
        <ellipse class="cls-3" cx="23.19" cy="85.36" rx="4.05" ry="4.01"/>
        <path class="cls-5" d="m23.19,91.35c-3.34,0-6.05-2.69-6.05-5.99s2.72-6,6.05-6,6.05,2.69,6.05,6-2.72,5.99-6.05,5.99Zm0-8.03c-1.13,0-2.05.91-2.05,2.03s.92,2.03,2.05,2.03,2.05-.91,2.05-2.03-.92-2.03-2.05-2.03Z"/>
      </g>
    </g>
  </g>
</svg>