<svg xmlns="http://www.w3.org/2000/svg" id="flatten_icons" data-name="flatten icons" viewBox="0 0 112 112"><defs><style>.cls-2,.cls-3,.cls-4{stroke-width:0}.cls-2{fill:#dbbf9d}.cls-3{fill:#bb9278}.cls-4{fill:#004241}</style></defs><g id="cuir"><path d="M0 0h112v112H0z" style="fill:none;stroke-width:0"/><path d="m71.18 4.15-4.43-.96a52.1 52.1 0 0 0-21.53-.12l-5.27 1.08v17.14h33.64z" class="cls-2"/><path d="M73.59 23.29H39.95c-1.1 0-2-.9-2-2V4.15c0-.95.67-1.77 1.6-1.96l5.27-1.08a53.6 53.6 0 0 1 22.35.13l4.43.96c.82.18 1.44.85 1.56 1.68l2.41 17.14c.08.57-.09 1.15-.47 1.59s-.93.69-1.51.69Zm-31.64-4h29.34l-1.9-13.48-3.07-.67a49.8 49.8 0 0 0-20.7-.12l-3.68.76v13.51Z" class="cls-4"/><path d="m74.79 14.23-3.6 2.81-3.57-.66a59.8 59.8 0 0 0-23.17.28l-4.49.94-2.74-3.37-16.84 8.47 2.22 43.65 7.93 35.3h50.96l7.93-35.3 2.22-43.65-16.84-8.47Z" class="cls-3"/><path d="M81.48 103.64H30.52c-.94 0-1.75-.65-1.95-1.56l-7.93-35.3c-.03-.11-.04-.22-.05-.34l-2.22-43.65c-.04-.79.39-1.53 1.1-1.89l16.84-8.47a2 2 0 0 1 2.45.53l1.97 2.42 3.3-.69a61.4 61.4 0 0 1 23.94-.29l2.69.5 2.89-2.25c.61-.47 1.44-.55 2.13-.21l16.84 8.47c.71.36 1.14 1.1 1.1 1.89L91.4 66.45c0 .11-.02.23-.05.34l-7.93 35.3c-.21.91-1.02 1.56-1.95 1.56Zm-49.36-4h47.76l7.54-33.57 2.14-42.18-14.55-7.31-2.61 2.03c-.45.35-1.03.49-1.59.39l-3.57-.66a57.6 57.6 0 0 0-22.39.27l-4.49.94c-.73.15-1.49-.12-1.96-.7l-1.72-2.12-14.24 7.16 2.14 42.18z" class="cls-4"/><path d="M20.37 22.69s-9.53 14.3-13.99 41.87c-2.26 14.01-.93 34.42-.29 42.23A3.497 3.497 0 0 0 9.58 110h9.84c1.85 0 3.39-1.45 3.5-3.3l1.07-18.14c.44-7.51 1.54-14.97 3.23-22.3 1.44-6.26 2.93-14.92 2.66-23.14-.51-15.32-9.5-20.42-9.5-20.42Z" class="cls-3"/><path d="M19.42 112H9.59c-2.84 0-5.25-2.21-5.48-5.04-.67-8.13-1.98-28.56.31-42.72 4.48-27.68 13.9-42.06 14.3-42.66.58-.87 1.74-1.15 2.65-.63.41.23 9.97 5.85 10.51 22.1.29 8.59-1.31 17.6-2.71 23.66-1.69 7.33-2.76 14.72-3.18 21.97l-1.07 18.14a5.51 5.51 0 0 1-5.49 5.18Zm1.53-86.36c-2.59 4.64-9.15 17.97-12.59 39.24-2.22 13.72-.93 33.77-.27 41.75.06.78.71 1.37 1.5 1.37h9.83c.79 0 1.45-.62 1.5-1.41l1.07-18.14c.44-7.47 1.54-15.09 3.28-22.63 1.34-5.82 2.88-14.47 2.61-22.63-.34-10.16-4.56-15.39-6.92-17.54Z" class="cls-4"/><path d="M91.63 22.69s9.53 14.3 13.99 41.87c2.26 14.01.93 34.42.29 42.23a3.497 3.497 0 0 1-3.49 3.21h-9.84c-1.85 0-3.39-1.45-3.5-3.3l-1.17-19.87c-.41-6.9-1.54-13.73-3.1-20.47-1.46-6.27-2.01-14.98-1.73-23.25.51-15.32 8.55-20.42 8.55-20.42" class="cls-3"/><path d="M102.41 112h-9.83a5.5 5.5 0 0 1-5.49-5.18l-1.17-19.87c-.37-6.31-1.37-12.89-3.06-20.13-1.43-6.16-2.08-14.82-1.79-23.77.54-16.19 9.11-21.81 9.48-22.04.92-.58 2.13-.33 2.74.58.4.6 9.82 14.98 14.3 42.66 2.29 14.16.98 34.59.31 42.72-.23 2.83-2.64 5.04-5.48 5.04ZM91.12 25.77c-2.14 2.26-5.72 7.49-6.05 17.41-.28 8.49.35 16.99 1.68 22.73 1.74 7.46 2.77 14.27 3.15 20.8l1.17 19.87c.05.79.71 1.41 1.5 1.41h9.83c.79 0 1.43-.59 1.5-1.37.66-7.98 1.95-28.03-.27-41.75-3.41-21.07-9.87-34.35-12.51-39.1" class="cls-4"/><path d="m31.97 17.34.69 10.86 12.12 3.69-6.68 7.28 15.9 5.3 4.54-9.27-10.2-13.36a47 47 0 0 1-8.09-16.52l-.31-1.17-7.98 13.19Z" class="cls-2"/><path d="M54.01 46.47c-.21 0-.42-.03-.63-.1l-15.9-5.3c-.64-.21-1.13-.74-1.3-1.4s0-1.35.46-1.85l4.53-4.94-9.09-2.76c-.8-.24-1.36-.95-1.41-1.79l-.69-10.86c-.03-.41.07-.81.29-1.16l7.98-13.19a1.98 1.98 0 0 1 2-.94c.79.11 1.44.69 1.65 1.47l.31 1.17a44.7 44.7 0 0 0 7.74 15.82L60.15 34c.46.6.54 1.41.21 2.09l-4.54 9.27a2 2 0 0 1-1.8 1.12Zm-12.34-8.22 11.31 3.77 3.23-6.59-9.45-12.38a48.5 48.5 0 0 1-7.45-13.97l-5.3 8.76.56 8.85 10.8 3.29c.66.2 1.17.72 1.35 1.39.18.66 0 1.37-.46 1.88l-4.59 5.01Z" class="cls-4"/><path d="m54.01 45.42 12.33-24.63a46.8 46.8 0 0 0 4.41-13.82l.44-2.82 8.98 12.92-.2 10.47-8.78 2.84 5.53 9.08-27.97 16.58z" class="cls-2"/><path d="M48.75 58.04c-.49 0-.98-.18-1.36-.53-.65-.6-.83-1.56-.43-2.35l5.26-10.62 12.33-24.63c2.09-4.17 3.51-8.63 4.22-13.24l.44-2.82c.13-.81.73-1.46 1.53-1.64.8-.19 1.62.14 2.09.81l8.98 12.92c.24.35.37.76.36 1.18l-.2 10.47c-.02.85-.57 1.6-1.38 1.86l-6.37 2.06 4.22 6.92c.28.46.36 1.01.23 1.52-.13.52-.46.96-.92 1.24L49.78 57.77c-.32.19-.67.28-1.02.28Zm7.05-11.73-2.26 4.56 20.42-12.1-4.48-7.36a2.01 2.01 0 0 1-.17-1.74c.21-.57.68-1.02 1.26-1.21l7.42-2.4.16-8.39-5.8-8.34c-.85 4.28-2.27 8.43-4.23 12.35L55.8 46.3Z" class="cls-4"/><path d="M67.63 103.64h-.03c-1.1-.02-1.99-.93-1.97-2.03.28-16.94-4.61-27.96-8.76-34.22-4.49-6.77-9.11-9.6-9.16-9.63-.94-.57-1.25-1.8-.69-2.74.57-.95 1.79-1.26 2.74-.69.83.5 20.44 12.55 19.86 47.36a2.006 2.006 0 0 1-2 1.97ZM83 89.15c-.27 0-.54-.05-.8-.17-9.46-4.12-10.57-16.2-10.61-16.71-.09-1.1.73-2.07 1.83-2.16 1.1-.1 2.07.73 2.16 1.82.01.13.98 10.23 8.22 13.38 1.01.44 1.48 1.62 1.04 2.63a2 2 0 0 1-1.83 1.2Zm-53.08 0c-.77 0-1.51-.45-1.83-1.2-.44-1.01.02-2.19 1.04-2.63 7.25-3.16 8.21-13.28 8.22-13.38.1-1.1 1.06-1.92 2.16-1.82a1.99 1.99 0 0 1 1.82 2.16c-.04.51-1.15 12.59-10.61 16.71-.26.11-.53.17-.8.17Z" class="cls-4"/><path d="M30.52 101.64v4.86c0 1.93 1.57 3.5 3.5 3.5h43.96c1.93 0 3.5-1.57 3.5-3.5v-4.86z" class="cls-3"/><path d="M77.98 112H34.02a5.51 5.51 0 0 1-5.5-5.5v-4.86c0-1.1.9-2 2-2h50.96c1.1 0 2 .9 2 2v4.86c0 3.03-2.47 5.5-5.5 5.5m-45.46-8.36v2.86c0 .83.67 1.5 1.5 1.5h43.96c.83 0 1.5-.67 1.5-1.5v-2.86z" class="cls-4"/></g></svg>