<svg xmlns="http://www.w3.org/2000/svg" id="flatten_icons" data-name="flatten icons" viewBox="0 0 112 112"><defs><style>.cls-2,.cls-4{stroke-width:0}.cls-2{fill:#b3e3f0}.cls-4{fill:#004241}</style></defs><g id="imper"><path d="M107.53 86.18c-.53-4.93-2.91-21.18-4.67-25.81l-5.74-15.11a13.39 13.39 0 0 0-10.71-8.53l-13.67-1.87s3.59-7.17 4.04-17.54S72 2 59.57 2h-7.14C40.01 2 34.78 6.96 35.22 17.32c.45 10.36 4.04 17.54 4.04 17.54l-13.67 1.87a13.39 13.39 0 0 0-10.71 8.53L9.14 60.37C4.25 72.43 2 109.14 2 109.14l10.78.86C20.86 93.17 26.7 70.56 26.7 70.56c.45 14.93 4.62 39.44 4.62 39.44h49.37s4.17-24.51 4.62-39.44c0 0 5.84 22.62 13.92 39.44l10.77-.86z" style="stroke-width:0;fill:#fbd849"/><path d="M12.78 112h-.16l-10.77-.86a2.01 2.01 0 0 1-1.84-2.12c.09-1.51 2.32-37.18 7.28-49.4l5.73-15.07c2.01-5.28 6.72-9.04 12.31-9.8l11.09-1.51c-1.16-3.06-2.87-8.71-3.18-15.82-.24-5.5 1-9.58 3.79-12.5C40.18 1.61 45.22 0 52.43 0h7.14c7.21 0 12.25 1.61 15.41 4.91 2.79 2.91 4.03 7 3.79 12.5-.31 7.11-2.03 12.76-3.18 15.82l11.09 1.51c5.58.76 10.3 4.52 12.31 9.8l5.74 15.11c1.92 5.05 4.3 21.71 4.79 26.31l2.47 22.96c.06.54-.1 1.07-.45 1.49s-.84.67-1.38.72l-10.78.86a2 2 0 0 1-1.96-1.13c-4.53-9.44-8.39-20.76-10.91-28.91-1.31 13.33-3.73 27.6-3.86 28.38-.16.96-1 1.66-1.97 1.66H31.31c-.97 0-1.81-.7-1.97-1.66-.13-.77-2.55-15.05-3.86-28.38-2.52 8.15-6.37 19.47-10.91 28.91-.33.7-1.04 1.13-1.8 1.13Zm20.24-4H79c.93-5.75 3.95-25.11 4.32-37.5a2 2 0 0 1 3.94-.44c.06.22 5.6 21.53 13.2 37.84l7.35-.59-2.25-20.91c-.61-5.67-2.96-21.12-4.55-25.32l-5.74-15.11c-1.49-3.91-4.98-6.7-9.11-7.26l-13.67-1.87a2.003 2.003 0 0 1-1.52-2.88c.03-.07 3.41-6.96 3.83-16.73.19-4.35-.69-7.47-2.69-9.56-2.37-2.48-6.47-3.68-12.52-3.68h-7.14c-6.06 0-10.15 1.2-12.52 3.68-2 2.08-2.87 5.21-2.69 9.56.43 9.82 3.8 16.66 3.83 16.73a2.003 2.003 0 0 1-1.52 2.88l-13.67 1.87c-4.13.56-7.62 3.35-9.11 7.26l-5.74 15.11C6.94 71.17 4.7 99.58 4.15 107.3l7.43.59c7.6-16.31 13.14-37.62 13.2-37.84.25-.96 1.19-1.6 2.16-1.49a2 2 0 0 1 1.78 1.93c.37 12.39 3.38 31.75 4.32 37.5Z" style="stroke-width:0;fill:#014241"/><path d="M50.83 9.19s-8.19.62-8.63 8.75c-.41 7.59 2.07 15.53 9.78 20.96 1.06.75 2.34 1.12 3.63 1.12h3.28c1.68 0 3.31-.64 4.5-1.83 2.68-2.68 6.89-8.4 6.91-17.96.03-14.01-19.47-11.04-19.47-11.04" class="cls-2"/><path d="M58.89 42.02h-3.28c-1.75 0-3.4-.51-4.78-1.48-7.37-5.19-11.14-13.25-10.63-22.71.42-7.76 6.94-10.34 10.4-10.63 1.09-.16 11.72-1.51 17.7 3.64 2.66 2.29 4 5.45 4 9.39-.02 10.35-4.7 16.58-7.49 19.37-1.56 1.56-3.66 2.42-5.92 2.42m-7.9-30.84c-.66.06-6.46.74-6.79 6.86-.31 5.68.99 13.63 8.93 19.22.7.49 1.56.75 2.48.75h3.28c1.17 0 2.29-.46 3.09-1.25 2.35-2.35 6.31-7.63 6.32-16.55 0-2.76-.84-4.84-2.6-6.35-4.78-4.12-14.48-2.72-14.58-2.71-.04 0-.09.01-.14.02ZM57.47 112c-1.1 0-2-.9-2-2V59.56H49.5c-1.1 0-2-.9-2-2V46.7c-4.74-3.14-9.67-10.4-9.89-10.73-.62-.92-.38-2.16.54-2.78a2 2 0 0 1 2.78.54c1.48 2.19 6.07 8.26 9.51 10.06.66.35 1.07 1.03 1.07 1.77v9.99h5.97c1.1 0 2 .9 2 2v52.44c0 1.1-.9 2-2 2Z" class="cls-4"/><path d="m23.97 57.56 2.72 13" class="cls-2"/><path d="M26.69 72.56c-.93 0-1.76-.65-1.96-1.59L22 57.98c-.23-1.08.46-2.14 1.55-2.37a2 2 0 0 1 2.37 1.55l2.73 12.99a1.997 1.997 0 0 1-1.96 2.41" class="cls-4"/><path d="M85.31 70.56s-3.04-7.5-3.04-14.56" class="cls-2"/><path d="M85.31 72.56c-.79 0-1.54-.47-1.85-1.25-.13-.32-3.19-7.95-3.19-15.31 0-1.1.9-2 2-2s2 .9 2 2c0 6.56 2.87 13.73 2.9 13.81a2 2 0 0 1-1.85 2.75Zm-2.72 25.83H68.35c-1.1 0-2-.9-2-2v-7.03c0-1.1.9-2 2-2h14.24c1.1 0 2 .9 2 2s-.9 2-2 2H70.35v3.03h12.24c1.1 0 2 .9 2 2s-.9 2-2 2m-39.43 1.44H30.69c-1.1 0-2-.9-2-2s.9-2 2-2h10.47v-4.48H28.32c-1.1 0-2-.9-2-2s.9-2 2-2h14.84c1.1 0 2 .9 2 2v8.48c0 1.1-.9 2-2 2m14.31-40.27c-1.1 0-2-.9-2-2V45.19c0-1.1.9-2 2-2s2 .9 2 2v12.37c0 1.1-.9 2-2 2" class="cls-4"/><path d="M0 0h112v112H0z" style="fill:none;stroke-width:0"/></g></svg>