<?xml version="1.0" encoding="UTF-8"?>
<svg id="flatten_icons" data-name="flatten icons" xmlns="http://www.w3.org/2000/svg" viewBox="0 0 112 112">
  <defs>
    <style>
      .cls-1 {
        fill: none;
      }

      .cls-1, .cls-2, .cls-3, .cls-4, .cls-5 {
        stroke-width: 0px;
      }

      .cls-2 {
        fill: #b3e3f0;
      }

      .cls-3 {
        fill: #fbd849;
      }

      .cls-4 {
        fill: #004241;
      }

      .cls-5 {
        fill: #014241;
      }
    </style>
  </defs>
  <g id="imper">
    <g>
      <g>
        <path class="cls-3" d="m107.53,86.18c-.53-4.93-2.91-21.18-4.67-25.81l-5.74-15.11c-1.75-4.6-5.85-7.87-10.71-8.53l-13.67-1.87s3.59-7.17,4.04-17.54-4.78-15.32-17.21-15.32h-7.14c-12.42,0-17.65,4.96-17.21,15.32.45,10.36,4.04,17.54,4.04,17.54l-13.67,1.87c-4.86.66-8.96,3.93-10.71,8.53l-5.74,15.11c-4.89,12.06-7.14,48.77-7.14,48.77l10.78.86c8.08-16.83,13.92-39.44,13.92-39.44.45,14.93,4.62,39.44,4.62,39.44h49.37s4.17-24.51,4.62-39.44c0,0,5.84,22.62,13.92,39.44l10.77-.86-2.47-22.96Z"/>
        <path class="cls-5" d="m12.78,112c-.05,0-.11,0-.16,0l-10.77-.86c-1.09-.09-1.9-1.03-1.84-2.12.09-1.51,2.32-37.18,7.28-49.4l5.73-15.07c2.01-5.28,6.72-9.04,12.31-9.8l11.09-1.51c-1.16-3.06-2.87-8.71-3.18-15.82-.24-5.5,1-9.58,3.79-12.5C40.18,1.61,45.22,0,52.43,0h7.14C66.78,0,71.82,1.61,74.98,4.91c2.79,2.91,4.03,7,3.79,12.5-.31,7.11-2.03,12.76-3.18,15.82l11.09,1.51c5.58.76,10.3,4.52,12.31,9.8l5.74,15.11c1.92,5.05,4.3,21.71,4.79,26.31l2.47,22.96c.06.54-.1,1.07-.45,1.49s-.84.67-1.38.72l-10.78.86c-.81.07-1.6-.38-1.96-1.13-4.53-9.44-8.39-20.76-10.91-28.91-1.31,13.33-3.73,27.6-3.86,28.38-.16.96-1,1.66-1.97,1.66H31.31c-.97,0-1.81-.7-1.97-1.66-.13-.77-2.55-15.05-3.86-28.38-2.52,8.15-6.37,19.47-10.91,28.91-.33.7-1.04,1.13-1.8,1.13Zm20.24-4h45.98c.93-5.75,3.95-25.11,4.32-37.5.03-1,.79-1.82,1.78-1.93.98-.11,1.91.52,2.16,1.49.06.22,5.6,21.53,13.2,37.84l7.35-.59-2.25-20.91h0c-.61-5.67-2.96-21.12-4.55-25.32l-5.74-15.11c-1.49-3.91-4.98-6.7-9.11-7.26l-13.67-1.87c-.64-.09-1.2-.48-1.5-1.05-.3-.57-.31-1.25-.02-1.83.03-.07,3.41-6.96,3.83-16.73.19-4.35-.69-7.47-2.69-9.56-2.37-2.48-6.47-3.68-12.52-3.68h-7.14c-6.06,0-10.15,1.2-12.52,3.68-2,2.08-2.87,5.21-2.69,9.56.43,9.82,3.8,16.66,3.83,16.73.29.58.28,1.26-.02,1.83-.3.57-.86.96-1.5,1.05l-13.67,1.87c-4.13.56-7.62,3.35-9.11,7.26l-5.74,15.11c-4.09,10.09-6.33,38.5-6.88,46.22l7.43.59c7.6-16.31,13.14-37.62,13.2-37.84.25-.96,1.19-1.6,2.16-1.49.99.11,1.75.93,1.78,1.93.37,12.39,3.38,31.75,4.32,37.5Z"/>
      </g>
      <g>
        <path class="cls-2" d="m50.83,9.19s-8.19.62-8.63,8.75c-.41,7.59,2.07,15.53,9.78,20.96,1.06.75,2.34,1.12,3.63,1.12h3.28c1.68,0,3.31-.64,4.5-1.83,2.68-2.68,6.89-8.4,6.91-17.96.03-14.01-19.47-11.04-19.47-11.04Z"/>
        <path class="cls-4" d="m58.89,42.02h-3.28c-1.75,0-3.4-.51-4.78-1.48-7.37-5.19-11.14-13.25-10.63-22.71.42-7.76,6.94-10.34,10.4-10.63,1.09-.16,11.72-1.51,17.7,3.64,2.66,2.29,4,5.45,4,9.39-.02,10.35-4.7,16.58-7.49,19.37-1.56,1.56-3.66,2.42-5.92,2.42Zm-7.9-30.84c-.66.06-6.46.74-6.79,6.86-.31,5.68.99,13.63,8.93,19.22.7.49,1.56.75,2.48.75h3.28c1.17,0,2.29-.46,3.09-1.25,2.35-2.35,6.31-7.63,6.32-16.55,0-2.76-.84-4.84-2.6-6.35-4.78-4.12-14.48-2.72-14.58-2.71-.04,0-.09.01-.14.02Zm-.16-1.99h0,0Z"/>
      </g>
      <path class="cls-4" d="m57.47,112c-1.1,0-2-.9-2-2v-50.44h-5.97c-1.1,0-2-.9-2-2v-10.86c-4.74-3.14-9.67-10.4-9.89-10.73-.62-.92-.38-2.16.54-2.78.91-.62,2.16-.38,2.78.54,1.48,2.19,6.07,8.26,9.51,10.06.66.35,1.07,1.03,1.07,1.77v9.99h5.97c1.1,0,2,.9,2,2v52.44c0,1.1-.9,2-2,2Z"/>
      <g>
        <line class="cls-2" x1="23.97" y1="57.56" x2="26.69" y2="70.56"/>
        <path class="cls-4" d="m26.69,72.56c-.93,0-1.76-.65-1.96-1.59l-2.73-12.99c-.23-1.08.46-2.14,1.55-2.37,1.09-.23,2.14.47,2.37,1.55l2.73,12.99c.23,1.08-.46,2.14-1.55,2.37-.14.03-.28.04-.41.04Z"/>
      </g>
      <g>
        <path class="cls-2" d="m85.31,70.56s-3.04-7.5-3.04-14.56"/>
        <path class="cls-4" d="m85.31,72.56c-.79,0-1.54-.47-1.85-1.25-.13-.32-3.19-7.95-3.19-15.31,0-1.1.9-2,2-2s2,.9,2,2c0,6.56,2.87,13.73,2.9,13.81.41,1.02-.08,2.19-1.1,2.6-.25.1-.5.15-.75.15Z"/>
      </g>
      <path class="cls-4" d="m82.59,98.39h-14.24c-1.1,0-2-.9-2-2v-7.03c0-1.1.9-2,2-2h14.24c1.1,0,2,.9,2,2s-.9,2-2,2h-12.24v3.03h12.24c1.1,0,2,.9,2,2s-.9,2-2,2Z"/>
      <path class="cls-4" d="m43.16,99.83h-12.47c-1.1,0-2-.9-2-2s.9-2,2-2h10.47v-4.48h-12.84c-1.1,0-2-.9-2-2s.9-2,2-2h14.84c1.1,0,2,.9,2,2v8.48c0,1.1-.9,2-2,2Z"/>
      <path class="cls-4" d="m57.47,59.56c-1.1,0-2-.9-2-2v-12.37c0-1.1.9-2,2-2s2,.9,2,2v12.37c0,1.1-.9,2-2,2Z"/>
    </g>
    <rect class="cls-1" width="112" height="112"/>
  </g>
</svg>