<?xml version="1.0" encoding="UTF-8"?>
<svg id="flatten_icons" data-name="flatten icons" xmlns="http://www.w3.org/2000/svg" viewBox="0 0 112 112">
  <defs>
    <style>
      .cls-1 {
        fill: none;
      }

      .cls-1, .cls-2, .cls-3, .cls-4, .cls-5 {
        stroke-width: 0px;
      }

      .cls-2 {
        fill: #d3425e;
      }

      .cls-3 {
        fill: #cae8ef;
      }

      .cls-4 {
        fill: #fff;
      }

      .cls-5 {
        fill: #004241;
      }
    </style>
  </defs>
  <g id="vin">
    <rect class="cls-1" width="112" height="112"/>
    <g>
      <g>
        <path class="cls-3" d="m56,60.42h0c14.12,0,25.57-11.79,25.57-26.33l-2.24-18.9h-46.66l-2.24,18.9c0,14.54,11.45,26.33,25.57,26.33Z"/>
        <path class="cls-5" d="m56,62.42c-15.2,0-27.57-12.71-27.57-28.33,0-.08,0-.16.01-.23l2.24-18.9c.12-1.01.97-1.77,1.99-1.77h46.66c1.01,0,1.87.76,1.99,1.77l2.24,18.9c0,.08.01.16.01.23,0,15.62-12.37,28.33-27.57,28.33Zm-23.57-28.21c.06,13.36,10.61,24.21,23.57,24.21s23.51-10.85,23.57-24.21l-2.01-17.02h-43.11l-2.01,17.02Z"/>
      </g>
      <g>
        <path class="cls-2" d="m56,60.42h0c14.12,0,25.57-11.79,25.57-26.33H30.43c0,14.54,11.45,26.33,25.57,26.33Z"/>
        <path class="cls-5" d="m56,62.42c-15.2,0-27.57-12.71-27.57-28.33,0-1.1.9-2,2-2h51.13c1.1,0,2,.9,2,2,0,15.62-12.37,28.33-27.57,28.33Zm-23.49-26.33c.99,12.48,11.15,22.33,23.49,22.33s22.5-9.84,23.49-22.33h-46.98Z"/>
      </g>
      <g>
        <path class="cls-3" d="m56,94.46h0c12.22,0,22.12,3.91,22.12,8.73h-44.25c0-4.82,9.91-8.73,22.12-8.73Z"/>
        <path class="cls-5" d="m78.12,105.19h-44.25c-1.1,0-2-.9-2-2,0-6.97,12.43-10.73,24.12-10.73s24.12,3.76,24.12,10.73c0,1.1-.9,2-2,2Zm-41.07-4h37.9c-2.62-2.35-9.46-4.73-18.95-4.73s-16.33,2.38-18.95,4.73Z"/>
      </g>
      <path class="cls-5" d="m56,96.46c-1.1,0-2-.9-2-2v-34.04c0-1.1.9-2,2-2s2,.9,2,2v34.04c0,1.1-.9,2-2,2Z"/>
      <path class="cls-4" d="m42.04,44.09c-.73,0-1.44-.41-1.79-1.11-3.86-7.73-1.25-17.21-1.13-17.61.3-1.06,1.41-1.68,2.47-1.38,1.06.3,1.68,1.41,1.38,2.47-.03.12-2.29,8.42.86,14.73.49.99.09,2.19-.89,2.68-.29.14-.59.21-.89.21Z"/>
    </g>
  </g>
</svg>