<?xml version="1.0" encoding="UTF-8"?>
<svg id="flatten_icons" data-name="flatten icons" xmlns="http://www.w3.org/2000/svg" viewBox="0 0 112 112">
  <defs>
    <style>
      .cls-1 {
        fill: none;
      }

      .cls-1, .cls-2, .cls-3, .cls-4, .cls-5, .cls-6, .cls-7 {
        stroke-width: 0px;
      }

      .cls-2 {
        fill: #c0c9d1;
      }

      .cls-3 {
        fill: #b3a4ba;
      }

      .cls-4 {
        fill: #b6de8c;
      }

      .cls-5 {
        fill: #8e889b;
      }

      .cls-6 {
        fill: #e7edef;
      }

      .cls-7 {
        fill: #004241;
      }
    </style>
  </defs>
  <g id="visio">
    <g id="area">
      <rect class="cls-1" width="112" height="112"/>
    </g>
    <g id="visio-2" data-name="visio">
      <g>
        <g>
          <path class="cls-5" d="m17.81,17.74h76.39c3.86,0,7,3.14,7,7v53.08H10.81V24.74c0-3.86,3.14-7,7-7Z"/>
          <path class="cls-7" d="m101.19,79.82H10.81c-1.1,0-2-.9-2-2V24.75c0-4.96,4.04-9,9-9h76.39c4.96,0,9,4.04,9,9v53.08c0,1.1-.9,2-2,2Zm-88.39-4h86.39V24.75c0-2.76-2.24-5-5-5H17.81c-2.76,0-5,2.24-5,5v51.08Z"/>
        </g>
        <g>
          <path class="cls-6" d="m5.04,77.59h101.91c1.68,0,3.04,1.36,3.04,3.04v3.38c0,5.65-4.59,10.25-10.25,10.25H12.25c-5.65,0-10.25-4.59-10.25-10.25v-3.38c0-1.68,1.36-3.04,3.04-3.04Z"/>
          <path class="cls-7" d="m99.75,96.26H12.25c-6.75,0-12.25-5.49-12.25-12.25v-3.38c0-2.78,2.26-5.04,5.04-5.04h101.91c2.78,0,5.04,2.26,5.04,5.04v3.38c0,6.75-5.49,12.25-12.25,12.25ZM5.04,79.59c-.58,0-1.04.47-1.04,1.04v3.38c0,4.55,3.7,8.25,8.25,8.25h87.51c4.55,0,8.25-3.7,8.25-8.25v-3.38c0-.58-.47-1.04-1.04-1.04H5.04Z"/>
        </g>
        <g>
          <path class="cls-2" d="m47.28,77.82h17.45v2.09c0,2.57-2.08,4.65-4.65,4.65h-8.14c-2.57,0-4.65-2.08-4.65-4.65v-2.09h0Z"/>
          <path class="cls-7" d="m60.07,86.57h-8.14c-3.67,0-6.65-2.98-6.65-6.65v-2.09c0-1.1.9-2,2-2h17.45c1.1,0,2,.9,2,2v2.09c0,3.67-2.98,6.65-6.65,6.65Zm-10.79-6.75v.09c0,1.46,1.19,2.65,2.65,2.65h8.14c1.46,0,2.65-1.19,2.65-2.65v-.09h-13.45Z"/>
        </g>
        <g>
          <path class="cls-4" d="m50.5,57.91h10.99c8.45,0,15.3,6.86,15.3,15.3v4.61h-41.6v-4.61c0-8.45,6.86-15.3,15.3-15.3Z"/>
          <path class="cls-7" d="m76.8,79.82h-41.6c-1.1,0-2-.9-2-2v-4.61c0-9.54,7.76-17.3,17.3-17.3h10.99c9.54,0,17.3,7.76,17.3,17.3v4.61c0,1.1-.9,2-2,2Zm-39.6-4h37.6v-2.61c0-7.34-5.97-13.3-13.3-13.3h-10.99c-7.34,0-13.3,5.97-13.3,13.3v2.61Z"/>
        </g>
        <g>
          <circle class="cls-4" cx="56" cy="42.73" r="11.5"/>
          <path class="cls-7" d="m56,56.23c-7.44,0-13.5-6.06-13.5-13.5s6.06-13.5,13.5-13.5,13.5,6.06,13.5,13.5-6.06,13.5-13.5,13.5Zm0-23c-5.24,0-9.5,4.26-9.5,9.5s4.26,9.5,9.5,9.5,9.5-4.26,9.5-9.5-4.26-9.5-9.5-9.5Z"/>
        </g>
      </g>
      <path class="cls-3" d="m35.2,44.73h-12.92c-1.1,0-2-.9-2-2s.9-2,2-2h12.92c1.1,0,2,.9,2,2s-.9,2-2,2Z"/>
      <path class="cls-3" d="m35.2,53.06h-12.92c-1.1,0-2-.9-2-2s.9-2,2-2h12.92c1.1,0,2,.9,2,2s-.9,2-2,2Z"/>
      <g>
        <polyline class="cls-5" points="90.93 42.73 78.01 42.73 78.01 24.56"/>
        <path class="cls-3" d="m90.93,44.73h-12.92c-1.1,0-2-.9-2-2v-18.17c0-1.1.9-2,2-2s2,.9,2,2v16.17h10.92c1.1,0,2,.9,2,2s-.9,2-2,2Z"/>
      </g>
    </g>
  </g>
</svg>