<svg xmlns="http://www.w3.org/2000/svg" id="flatten_icons" data-name="flatten icons" viewBox="0 0 112 112"><defs><style>.cls-3,.cls-4,.cls-5,.cls-7{stroke-width:0}.cls-3{fill:#b3a4ba}.cls-4{fill:#b6de8c}.cls-5{fill:#8e889b}.cls-7{fill:#004241}</style></defs><g id="visio"><path id="area" d="M0 0h112v112H0z" style="fill:none;stroke-width:0"/><g id="visio-2" data-name="visio"><path d="M17.81 17.74H94.2c3.86 0 7 3.14 7 7v53.08H10.81V24.74c0-3.86 3.14-7 7-7" class="cls-5"/><path d="M101.19 79.82H10.81c-1.1 0-2-.9-2-2V24.75c0-4.96 4.04-9 9-9H94.2c4.96 0 9 4.04 9 9v53.08c0 1.1-.9 2-2 2Zm-88.39-4h86.39V24.75c0-2.76-2.24-5-5-5H17.81c-2.76 0-5 2.24-5 5v51.08Z" class="cls-7"/><path d="M5.04 77.59h101.91c1.68 0 3.04 1.36 3.04 3.04v3.38c0 5.65-4.59 10.25-10.25 10.25H12.25C6.6 94.26 2 89.67 2 84.01v-3.38c0-1.68 1.36-3.04 3.04-3.04" style="stroke-width:0;fill:#e7edef"/><path d="M99.75 96.26h-87.5C5.5 96.26 0 90.77 0 84.01v-3.38c0-2.78 2.26-5.04 5.04-5.04h101.91c2.78 0 5.04 2.26 5.04 5.04v3.38c0 6.75-5.49 12.25-12.25 12.25ZM5.04 79.59c-.58 0-1.04.47-1.04 1.04v3.38c0 4.55 3.7 8.25 8.25 8.25h87.51c4.55 0 8.25-3.7 8.25-8.25v-3.38c0-.58-.47-1.04-1.04-1.04z" class="cls-7"/><path d="M47.28 77.82h17.45v2.09c0 2.57-2.08 4.65-4.65 4.65h-8.14c-2.57 0-4.65-2.08-4.65-4.65v-2.09Z" style="stroke-width:0;fill:#c0c9d1"/><path d="M60.07 86.57h-8.14c-3.67 0-6.65-2.98-6.65-6.65v-2.09c0-1.1.9-2 2-2h17.45c1.1 0 2 .9 2 2v2.09c0 3.67-2.98 6.65-6.65 6.65Zm-10.79-6.75v.09c0 1.46 1.19 2.65 2.65 2.65h8.14c1.46 0 2.65-1.19 2.65-2.65v-.09H49.27Z" class="cls-7"/><path d="M50.5 57.91h10.99c8.45 0 15.3 6.86 15.3 15.3v4.61h-41.6v-4.61c0-8.45 6.86-15.3 15.3-15.3Z" class="cls-4"/><path d="M76.8 79.82H35.2c-1.1 0-2-.9-2-2v-4.61c0-9.54 7.76-17.3 17.3-17.3h10.99c9.54 0 17.3 7.76 17.3 17.3v4.61c0 1.1-.9 2-2 2Zm-39.6-4h37.6v-2.61c0-7.34-5.97-13.3-13.3-13.3H50.51c-7.34 0-13.3 5.97-13.3 13.3v2.61Z" class="cls-7"/><circle cx="56" cy="42.73" r="11.5" class="cls-4"/><path d="M56 56.23c-7.44 0-13.5-6.06-13.5-13.5s6.06-13.5 13.5-13.5 13.5 6.06 13.5 13.5-6.06 13.5-13.5 13.5m0-23c-5.24 0-9.5 4.26-9.5 9.5s4.26 9.5 9.5 9.5 9.5-4.26 9.5-9.5-4.26-9.5-9.5-9.5" class="cls-7"/><path d="M35.2 44.73H22.28c-1.1 0-2-.9-2-2s.9-2 2-2H35.2c1.1 0 2 .9 2 2s-.9 2-2 2m0 8.33H22.28c-1.1 0-2-.9-2-2s.9-2 2-2H35.2c1.1 0 2 .9 2 2s-.9 2-2 2" class="cls-3"/><path d="M90.93 42.73H78.01V24.56" class="cls-5"/><path d="M90.93 44.73H78.01c-1.1 0-2-.9-2-2V24.56c0-1.1.9-2 2-2s2 .9 2 2v16.17h10.92c1.1 0 2 .9 2 2s-.9 2-2 2" class="cls-3"/></g></g></svg>