<svg xmlns="http://www.w3.org/2000/svg" id="flatten_icons" data-name="flatten icons" viewBox="0 0 112 112"><defs><style>.cls-6{stroke-width:0;fill:#004241}</style></defs><g id="voiture-electriquee"><path id="area" d="M0 0h112v112H0z" style="fill:none;stroke-width:0"/><g id="car"><path d="M110 63.92c0-2.18-1.43-4.11-3.52-4.74l-18.29-5.51-12.51-22.31A13.24 13.24 0 0 0 63.82 24H33.08c-5.31 0-10.11 3.17-12.19 8.06l-2.06 4.27-5.29 10.96-3.08 6.38A19.25 19.25 0 0 0 2 69.61v16.96h11.55v.19c0 6.59 5.34 11.93 11.93 11.93s11.93-5.34 11.93-11.93v-.19h36.05v.19c0 6.59 5.34 11.93 11.93 11.93s11.93-5.34 11.93-11.93v-.19h12.72V63.92Z" style="stroke-width:0;fill:#fff"/><path d="M76.63 33.07H34.15s-4.53-.6-8.68 8.47c-1.94 4.23-4.06 8.62-5.8 12.13h68.51zm-11.65 9.17H52.56c-1.34 0-2.43-1.09-2.43-2.43s1.09-2.43 2.43-2.43h12.42c1.34 0 2.43 1.09 2.43 2.43s-1.09 2.43-2.43 2.43" style="stroke-width:0;fill:#d3e7ee"/><path d="M10.46 55.67a2.004 2.004 0 0 1-1.8-2.87l10.42-21.61C21.44 25.64 26.94 22 33.07 22h30.74c5.81 0 11.03 3.23 13.63 8.42l12.49 22.27c.54.96.2 2.18-.77 2.72-.96.54-2.18.2-2.72-.77L73.93 32.33s-.03-.06-.05-.09a11.18 11.18 0 0 0-10.07-6.25H33.07c-4.52 0-8.58 2.69-10.35 6.84L12.26 54.52c-.34.71-1.06 1.13-1.8 1.13Z" class="cls-6"/><path d="M41.25 55.67c-1.1 0-2-.9-2-2V24.61c0-1.1.9-2 2-2s2 .9 2 2v29.06c0 1.1-.9 2-2 2m-15.78 45.01c-7.68 0-13.93-6.25-13.93-13.93s6.25-13.93 13.93-13.93S39.4 79.07 39.4 86.75s-6.25 13.93-13.93 13.93m0-23.86c-5.47 0-9.93 4.45-9.93 9.93s4.45 9.93 9.93 9.93 9.93-4.45 9.93-9.93-4.45-9.93-9.93-9.93" class="cls-6"/><path d="M101.44 64.85c-.28-1.93.22-4.55.88-6.92l-14.14-4.26H10.46A19.25 19.25 0 0 0 2 69.61v16.96h11.55c.1-6.5 5.39-11.74 11.92-11.74s11.82 5.24 11.92 11.74h36.05c.1-6.5 5.39-11.74 11.92-11.74s11.82 5.24 11.92 11.74H110V70.16c-4.15-1.29-8.24-3.1-8.56-5.3Z" style="stroke-width:0;fill:#ef706b"/><path d="M85.36 100.68c-7.68 0-13.93-6.25-13.93-13.93s6.25-13.93 13.93-13.93 13.93 6.25 13.93 13.93-6.25 13.93-13.93 13.93m0-23.86c-5.47 0-9.93 4.45-9.93 9.93s4.45 9.93 9.93 9.93 9.93-4.45 9.93-9.93-4.45-9.93-9.93-9.93" class="cls-6"/><path d="M110 88.56H97.28c-1.09 0-1.98-.88-2-1.97-.08-5.39-4.53-9.77-9.92-9.77s-9.84 4.38-9.92 9.77a2.006 2.006 0 0 1-2 1.97H37.39c-1.09 0-1.98-.88-2-1.97-.08-5.39-4.53-9.77-9.92-9.77s-9.84 4.38-9.92 9.77a2.006 2.006 0 0 1-2 1.97H2c-1.1 0-2-.9-2-2V69.6C0 62.54 3.49 55.96 9.34 52c.33-.22.72-.34 1.12-.34h77.72c.2 0 .39.03.58.08l18.29 5.51c2.96.89 4.94 3.56 4.94 6.65v22.65c0 1.1-.9 2-2 2Zm-10.89-4H108V63.91c0-1.31-.84-2.44-2.1-2.82l-18.01-5.43H11.1C6.65 58.9 4 64.07 4 69.6v14.96h7.72c1.06-6.63 6.86-11.74 13.75-11.74s12.69 5.11 13.75 11.74h32.4c1.06-6.63 6.86-11.74 13.75-11.74s12.69 5.11 13.75 11.74Z" class="cls-6"/><path d="M85.36 93.03c-3.46 0-6.27-2.81-6.27-6.27s2.81-6.27 6.27-6.27 6.27 2.81 6.27 6.27-2.81 6.27-6.27 6.27m0-8.55c-1.25 0-2.27 1.02-2.27 2.27s1.02 2.27 2.27 2.27 2.27-1.02 2.27-2.27-1.02-2.27-2.27-2.27m-59.89 8.55c-3.46 0-6.27-2.81-6.27-6.27s2.81-6.27 6.27-6.27 6.27 2.81 6.27 6.27c0 1.1-.9 2-2 2s-2-.9-2-2c0-1.25-1.02-2.27-2.27-2.27s-2.27 1.02-2.27 2.27 1.02 2.27 2.27 2.27c1.1 0 2 .9 2 2s-.9 2-2 2" class="cls-6"/></g><g id="bolt"><path d="M102.57 31.41H81.74c-.98 0-1.67-.97-1.35-1.9l8.94-25.6c.51-1.45-1.33-2.57-2.39-1.45L51.4 39.99c-.86.91-.22 2.41 1.04 2.41h20.83c.98 0 1.67.97 1.35 1.9l-8.94 25.6c-.51 1.45 1.33 2.57 2.39 1.45l35.54-37.53c.86-.91.22-2.41-1.04-2.41" style="stroke-width:0;fill:#ffdc49"/><path d="M67.03 73.8c-.61 0-1.23-.17-1.79-.51a3.41 3.41 0 0 1-1.45-4.06l8.67-24.84H52.43c-1.37 0-2.61-.81-3.15-2.07s-.28-2.72.66-3.71L85.49 1.08C86.61-.1 88.37-.34 89.76.51s1.99 2.52 1.45 4.06l-8.67 24.84h20.03c1.37 0 2.61.81 3.15 2.07s.28 2.72-.66 3.71L69.52 72.72c-.67.71-1.57 1.08-2.48 1.08ZM53.76 40.39h19.51c1.11 0 2.15.54 2.8 1.44.64.9.81 2.07.44 3.12l-8.06 23.09 32.8-34.63H81.74c-1.11 0-2.15-.54-2.8-1.44-.64-.9-.81-2.07-.44-3.12l8.06-23.09zm48.81-6.99" class="cls-6"/></g></g></svg>