<?xml version="1.0" encoding="UTF-8"?>
<svg id="flatten_icons" xmlns="http://www.w3.org/2000/svg" viewBox="0 0 112 112">
  <defs>
    <style>
      .cls-1 {
        fill: none;
      }

      .cls-2 {
        fill: #a6e1f0;
      }

      .cls-3 {
        fill: #cae8ef;
      }

      .cls-4 {
        fill: #fff;
      }

      .cls-5 {
        fill: #004241;
      }
    </style>
  </defs>
  <g id="yaourt">
    <rect class="cls-1" width="112" height="112"/>
    <g>
      <g>
        <path class="cls-2" d="M32.33,38.5v50.02c0,4.24,10.56,7.68,23.59,7.68s23.59-3.44,23.59-7.68v-50.02"/>
        <path class="cls-5" d="M55.91,98.2c-12.71,0-25.59-3.33-25.59-9.68v-50.02c0-1.1.9-2,2-2s2,.9,2,2v50.02c0,2,8.2,5.68,21.59,5.68s21.59-3.68,21.59-5.68v-50.02c0-1.1.9-2,2-2s2,.9,2,2v50.02c0,6.36-12.87,9.68-25.59,9.68Z"/>
      </g>
      <g>
        <path class="cls-2" d="M51.88,67.24c1.31.07,2.66.11,4.03.11,5.69,0,10.92-.66,14.99-1.75"/>
        <path class="cls-5" d="M55.91,69.35c-1.39,0-2.78-.04-4.15-.12-1.1-.06-1.95-1.01-1.88-2.11.06-1.1,1.02-1.94,2.11-1.88,1.29.07,2.61.11,3.92.11,5.29,0,10.43-.6,14.47-1.68,1.07-.29,2.16.35,2.45,1.41s-.35,2.16-1.41,2.45c-4.43,1.19-9.8,1.82-15.51,1.82Z"/>
      </g>
      <g>
        <path class="cls-2" d="M51.88,76.84c1.31.07,2.66.11,4.03.11,2.85,0,5.58-.16,8.1-.47"/>
        <path class="cls-5" d="M55.91,78.95c-1.4,0-2.79-.04-4.15-.11-1.1-.06-1.95-1.01-1.88-2.11.06-1.1,1.02-1.93,2.11-1.88,3.91.22,8.05.1,11.79-.34,1.1-.14,2.09.65,2.22,1.75s-.65,2.09-1.75,2.22c-2.67.32-5.47.48-8.34.48Z"/>
      </g>
      <g>
        <path class="cls-3" d="M69.35,18.77c-7.37-3.96-19.32-3.96-26.69,0l-10.74,5.77-6.58,3.54c-7.37,3.96-7.37,10.38,0,14.35l17.32,9.31c7.37,3.96,19.32,3.96,26.69,0l17.32-9.31c7.37-3.96,7.37-10.38,0-14.35l-17.32-9.31Z"/>
        <path class="cls-5" d="M56,56.73c-5.14,0-10.29-1.08-14.29-3.23l-17.32-9.31c-4.24-2.28-6.58-5.45-6.58-8.94s2.34-6.65,6.58-8.93l17.32-9.31c8.01-4.31,20.57-4.31,28.59,0l17.32,9.31c4.24,2.28,6.58,5.45,6.58,8.93s-2.34,6.65-6.58,8.94l-17.32,9.31c-4.01,2.15-9.15,3.23-14.29,3.23ZM56,17.77c-4.49,0-8.98.92-12.4,2.76l-17.32,9.31c-2.84,1.53-4.48,3.5-4.48,5.41s1.63,3.88,4.48,5.41l17.32,9.31c6.84,3.67,17.96,3.67,24.8,0l17.32-9.31c2.84-1.53,4.48-3.5,4.48-5.41s-1.63-3.88-4.48-5.41l-17.32-9.31h0c-3.42-1.84-7.91-2.76-12.4-2.76Z"/>
      </g>
      <g>
        <ellipse class="cls-4" cx="55.91" cy="35.25" rx="20" ry="6.51"/>
        <path class="cls-5" d="M55.91,43.77c-10.6,0-22-2.66-22-8.51s11.4-8.51,22-8.51,22,2.66,22,8.51-11.41,8.51-22,8.51ZM55.91,30.74c-11.69,0-18,3.2-18,4.51s6.31,4.51,18,4.51,18-3.2,18-4.51-6.31-4.51-18-4.51Z"/>
      </g>
    </g>
  </g>
</svg>